  0
SECTION
  2
HEADER
  9
$ANGBASE
  50
0.0
  9
$ANGDIR
  70
1
  9
$MEASUREMENT
  70
0
  0
ENDSEC
  0
SECTION
  2
TABLES
  0
TABLE
  2
LTYPE
  70
4
  0
LTYPE
  5
40F
  2
CONTINUOUS
  70
0
  3
Solid line
  72
65
  73
0
  40
0.0
  0
LTYPE
  5
410
  2
DASHDOT
 70
0
  3
Dash Dot ____ _ ____ _
 72
65
 73
4
 40
2.0
 49
1.25
 49
-0.25
 49
0.25
 49
-0.25
  0
LTYPE
  5
411
  2
DASHED
 70
0
  3
Dashed __ __ __ __ __
 72
65
 73
2
 40
0.75
 49
0.5
 49
-0.25
  0
LTYPE
  5
43B
  2
DOTTED
 70
0
  3
Dotted .  .  .  .
 72
65
 73
2
 40
0.2
 49
0.0
 49
-0.2
  0
ENDTAB
  0
TABLE
  2
STYLE
  70
4
  0
STYLE
  2
KICAD
  70
0
  40
0
  41
1
  42
1
  50
0
  71
0
  3
isocp.shx
  0
STYLE
  2
KICADB
  70
0
  40
0
  41
1
  42
1
  50
0
  71
0
  3
isocp.shx
  0
STYLE
  2
KICADI
  70
0
  40
0
  41
1
  42
1
  50
15
  71
0
  3
isocp.shx
  0
STYLE
  2
KICADBI
  70
0
  40
0
  41
1
  42
1
  50
15
  71
0
  3
isocp.shx
  0
ENDTAB
  0
TABLE
  2
LAYER
  70
1
  0
LAYER
  2
BLACK
  70
0
  62
7
  6
CONTINUOUS
  0
ENDTAB
  0
ENDSEC
  0
SECTION
  2
ENTITIES
0
LINE
8
BLACK
6
CONTINUOUS
10
1.21753
20
0.290997
11
1.21724
21
0.291693
0
LINE
8
BLACK
6
CONTINUOUS
10
1.21724
20
0.291693
11
1.21724
21
0.496417
0
LINE
8
BLACK
6
CONTINUOUS
10
1.21724
20
0.496417
11
1.21753
21
0.497113
0
LINE
8
BLACK
6
CONTINUOUS
10
1.21753
20
0.497113
11
1.21823
21
0.497402
0
LINE
8
BLACK
6
CONTINUOUS
10
1.21823
20
0.497402
11
1.75366
21
0.497402
0
LINE
8
BLACK
6
CONTINUOUS
10
1.75366
20
0.497402
11
1.75436
21
0.497113
0
LINE
8
BLACK
6
CONTINUOUS
10
1.75436
20
0.497113
11
1.75465
21
0.496417
0
LINE
8
BLACK
6
CONTINUOUS
10
1.75465
20
0.496417
11
1.75465
21
0.291693
0
LINE
8
BLACK
6
CONTINUOUS
10
1.75465
20
0.291693
11
1.75436
21
0.290997
0
LINE
8
BLACK
6
CONTINUOUS
10
1.75436
20
0.290997
11
1.75366
21
0.290709
0
LINE
8
BLACK
6
CONTINUOUS
10
1.75366
20
0.290709
11
1.21823
21
0.290709
0
LINE
8
BLACK
6
CONTINUOUS
10
1.21823
20
0.290709
11
1.21753
21
0.290997
0
LINE
8
BLACK
6
CONTINUOUS
10
1.21921
20
0.495433
11
1.21921
21
0.292677
0
LINE
8
BLACK
6
CONTINUOUS
10
1.21921
20
0.292677
11
1.75268
21
0.292677
0
LINE
8
BLACK
6
CONTINUOUS
10
1.75268
20
0.292677
11
1.75268
21
0.495433
0
LINE
8
BLACK
6
CONTINUOUS
10
1.75268
20
0.495433
11
1.21921
21
0.495433
0
LINE
8
BLACK
6
CONTINUOUS
10
0.292887
20
0.290997
11
0.292598
21
0.291693
0
LINE
8
BLACK
6
CONTINUOUS
10
0.292598
20
0.291693
11
0.292598
21
0.496417
0
LINE
8
BLACK
6
CONTINUOUS
10
0.292598
20
0.496417
11
0.292887
21
0.497113
0
LINE
8
BLACK
6
CONTINUOUS
10
0.292887
20
0.497113
11
0.293583
21
0.497402
0
LINE
8
BLACK
6
CONTINUOUS
10
0.293583
20
0.497402
11
0.829016
21
0.497402
0
LINE
8
BLACK
6
CONTINUOUS
10
0.829016
20
0.497402
11
0.829712
21
0.497113
0
LINE
8
BLACK
6
CONTINUOUS
10
0.829712
20
0.497113
11
0.83
21
0.496417
0
LINE
8
BLACK
6
CONTINUOUS
10
0.83
20
0.496417
11
0.83
21
0.291693
0
LINE
8
BLACK
6
CONTINUOUS
10
0.83
20
0.291693
11
0.829712
21
0.290997
0
LINE
8
BLACK
6
CONTINUOUS
10
0.829712
20
0.290997
11
0.829016
21
0.290709
0
LINE
8
BLACK
6
CONTINUOUS
10
0.829016
20
0.290709
11
0.293583
21
0.290709
0
LINE
8
BLACK
6
CONTINUOUS
10
0.293583
20
0.290709
11
0.292887
21
0.290997
0
LINE
8
BLACK
6
CONTINUOUS
10
0.294567
20
0.495433
11
0.294567
21
0.292677
0
LINE
8
BLACK
6
CONTINUOUS
10
0.294567
20
0.292677
11
0.828031
21
0.292677
0
LINE
8
BLACK
6
CONTINUOUS
10
0.828031
20
0.292677
11
0.828031
21
0.495433
0
LINE
8
BLACK
6
CONTINUOUS
10
0.828031
20
0.495433
11
0.294567
21
0.495433
0
LINE
8
BLACK
6
CONTINUOUS
10
1.85954
20
0.331981
11
1.85925
21
0.332677
0
LINE
8
BLACK
6
CONTINUOUS
10
1.85925
20
0.332677
11
1.85925
21
0.431102
0
LINE
8
BLACK
6
CONTINUOUS
10
1.85925
20
0.431102
11
1.85954
21
0.431798
0
LINE
8
BLACK
6
CONTINUOUS
10
1.85954
20
0.431798
11
1.85976
21
0.43189
0
LINE
8
BLACK
6
CONTINUOUS
10
1.85976
20
0.43189
11
1.85954
21
0.431981
0
LINE
8
BLACK
6
CONTINUOUS
10
1.85954
20
0.431981
11
1.85925
21
0.432677
0
LINE
8
BLACK
6
CONTINUOUS
10
1.85925
20
0.432677
11
1.85925
21
0.531102
0
LINE
8
BLACK
6
CONTINUOUS
10
1.85925
20
0.531102
11
1.85954
21
0.531798
0
LINE
8
BLACK
6
CONTINUOUS
10
1.85954
20
0.531798
11
1.86024
21
0.532087
0
LINE
8
BLACK
6
CONTINUOUS
10
1.86024
20
0.532087
11
1.95866
21
0.532087
0
LINE
8
BLACK
6
CONTINUOUS
10
1.95866
20
0.532087
11
1.95936
21
0.531798
0
LINE
8
BLACK
6
CONTINUOUS
10
1.95936
20
0.531798
11
1.95965
21
0.531102
0
LINE
8
BLACK
6
CONTINUOUS
10
1.95965
20
0.531102
11
1.95965
21
0.432677
0
LINE
8
BLACK
6
CONTINUOUS
10
1.95965
20
0.432677
11
1.95936
21
0.431981
0
LINE
8
BLACK
6
CONTINUOUS
10
1.95936
20
0.431981
11
1.95914
21
0.43189
0
LINE
8
BLACK
6
CONTINUOUS
10
1.95914
20
0.43189
11
1.95936
21
0.431798
0
LINE
8
BLACK
6
CONTINUOUS
10
1.95936
20
0.431798
11
1.95965
21
0.431102
0
LINE
8
BLACK
6
CONTINUOUS
10
1.95965
20
0.431102
11
1.95965
21
0.332677
0
LINE
8
BLACK
6
CONTINUOUS
10
1.95965
20
0.332677
11
1.95936
21
0.331981
0
LINE
8
BLACK
6
CONTINUOUS
10
1.95936
20
0.331981
11
1.95866
21
0.331693
0
LINE
8
BLACK
6
CONTINUOUS
10
1.95866
20
0.331693
11
1.86024
21
0.331693
0
LINE
8
BLACK
6
CONTINUOUS
10
1.86024
20
0.331693
11
1.85954
21
0.331981
0
LINE
8
BLACK
6
CONTINUOUS
10
1.86122
20
0.430118
11
1.86122
21
0.333661
0
LINE
8
BLACK
6
CONTINUOUS
10
1.86122
20
0.333661
11
1.95768
21
0.333661
0
LINE
8
BLACK
6
CONTINUOUS
10
1.95768
20
0.333661
11
1.95768
21
0.430118
0
LINE
8
BLACK
6
CONTINUOUS
10
1.95768
20
0.430118
11
1.86122
21
0.430118
0
LINE
8
BLACK
6
CONTINUOUS
10
1.86122
20
0.530118
11
1.86122
21
0.433661
0
LINE
8
BLACK
6
CONTINUOUS
10
1.86122
20
0.433661
11
1.95768
21
0.433661
0
LINE
8
BLACK
6
CONTINUOUS
10
1.95768
20
0.433661
11
1.95768
21
0.530118
0
LINE
8
BLACK
6
CONTINUOUS
10
1.95768
20
0.530118
11
1.86122
21
0.530118
0
LINE
8
BLACK
6
CONTINUOUS
10
1.14576
20
0.350977
11
1.14547
21
0.351673
0
LINE
8
BLACK
6
CONTINUOUS
10
1.14547
20
0.351673
11
1.14547
21
0.468209
0
LINE
8
BLACK
6
CONTINUOUS
10
1.14547
20
0.468209
11
1.14576
21
0.468905
0
LINE
8
BLACK
6
CONTINUOUS
10
1.14576
20
0.468905
11
1.14646
21
0.469193
0
LINE
8
BLACK
6
CONTINUOUS
10
1.14646
20
0.469193
11
1.20394
21
0.469193
0
LINE
8
BLACK
6
CONTINUOUS
10
1.20394
20
0.469193
11
1.20463
21
0.468905
0
LINE
8
BLACK
6
CONTINUOUS
10
1.20463
20
0.468905
11
1.20492
21
0.468209
0
LINE
8
BLACK
6
CONTINUOUS
10
1.20492
20
0.468209
11
1.20492
21
0.351673
0
LINE
8
BLACK
6
CONTINUOUS
10
1.20492
20
0.351673
11
1.20463
21
0.350977
0
LINE
8
BLACK
6
CONTINUOUS
10
1.20463
20
0.350977
11
1.20394
21
0.350689
0
LINE
8
BLACK
6
CONTINUOUS
10
1.20394
20
0.350689
11
1.14646
21
0.350689
0
LINE
8
BLACK
6
CONTINUOUS
10
1.14646
20
0.350689
11
1.14576
21
0.350977
0
LINE
8
BLACK
6
CONTINUOUS
10
1.14744
20
0.467224
11
1.14744
21
0.352657
0
LINE
8
BLACK
6
CONTINUOUS
10
1.14744
20
0.352657
11
1.20295
21
0.352657
0
LINE
8
BLACK
6
CONTINUOUS
10
1.20295
20
0.352657
11
1.20295
21
0.467224
0
LINE
8
BLACK
6
CONTINUOUS
10
1.20295
20
0.467224
11
1.14744
21
0.467224
0
LINE
8
BLACK
6
CONTINUOUS
10
1.08474
20
0.398221
11
1.08445
21
0.398917
0
LINE
8
BLACK
6
CONTINUOUS
10
1.08445
20
0.398917
11
1.08445
21
0.515453
0
LINE
8
BLACK
6
CONTINUOUS
10
1.08445
20
0.515453
11
1.08474
21
0.516149
0
LINE
8
BLACK
6
CONTINUOUS
10
1.08474
20
0.516149
11
1.08543
21
0.516437
0
LINE
8
BLACK
6
CONTINUOUS
10
1.08543
20
0.516437
11
1.14291
21
0.516437
0
LINE
8
BLACK
6
CONTINUOUS
10
1.14291
20
0.516437
11
1.14361
21
0.516149
0
LINE
8
BLACK
6
CONTINUOUS
10
1.14361
20
0.516149
11
1.1439
21
0.515453
0
LINE
8
BLACK
6
CONTINUOUS
10
1.1439
20
0.515453
11
1.1439
21
0.398917
0
LINE
8
BLACK
6
CONTINUOUS
10
1.1439
20
0.398917
11
1.14361
21
0.398221
0
LINE
8
BLACK
6
CONTINUOUS
10
1.14361
20
0.398221
11
1.14291
21
0.397933
0
LINE
8
BLACK
6
CONTINUOUS
10
1.14291
20
0.397933
11
1.08543
21
0.397933
0
LINE
8
BLACK
6
CONTINUOUS
10
1.08543
20
0.397933
11
1.08474
21
0.398221
0
LINE
8
BLACK
6
CONTINUOUS
10
1.08642
20
0.514469
11
1.08642
21
0.399902
0
LINE
8
BLACK
6
CONTINUOUS
10
1.08642
20
0.399902
11
1.14193
21
0.399902
0
LINE
8
BLACK
6
CONTINUOUS
10
1.14193
20
0.399902
11
1.14193
21
0.514469
0
LINE
8
BLACK
6
CONTINUOUS
10
1.14193
20
0.514469
11
1.08642
21
0.514469
0
LINE
8
BLACK
6
CONTINUOUS
10
0.797611
20
0.53269
11
0.797323
21
0.533386
0
LINE
8
BLACK
6
CONTINUOUS
10
0.797323
20
0.533386
11
0.797323
21
0.689479
0
LINE
8
BLACK
6
CONTINUOUS
10
0.797323
20
0.689479
11
0.797153
21
0.689068
0
LINE
8
BLACK
6
CONTINUOUS
10
0.797153
20
0.689068
11
0.796457
21
0.68878
0
LINE
8
BLACK
6
CONTINUOUS
10
0.796457
20
0.68878
11
0.738976
21
0.68878
0
LINE
8
BLACK
6
CONTINUOUS
10
0.738976
20
0.68878
11
0.73828
21
0.689068
0
LINE
8
BLACK
6
CONTINUOUS
10
0.73828
20
0.689068
11
0.737992
21
0.689764
0
LINE
8
BLACK
6
CONTINUOUS
10
0.737992
20
0.689764
11
0.737992
21
0.806299
0
LINE
8
BLACK
6
CONTINUOUS
10
0.737992
20
0.806299
11
0.73828
21
0.806995
0
LINE
8
BLACK
6
CONTINUOUS
10
0.73828
20
0.806995
11
0.738976
21
0.807283
0
LINE
8
BLACK
6
CONTINUOUS
10
0.738976
20
0.807283
11
0.796457
21
0.807283
0
LINE
8
BLACK
6
CONTINUOUS
10
0.796457
20
0.807283
11
0.797153
21
0.806995
0
LINE
8
BLACK
6
CONTINUOUS
10
0.797153
20
0.806995
11
0.797323
21
0.806584
0
LINE
8
BLACK
6
CONTINUOUS
10
0.797323
20
0.806584
11
0.797323
21
0.824724
0
LINE
8
BLACK
6
CONTINUOUS
10
0.797323
20
0.824724
11
0.797611
21
0.82542
0
LINE
8
BLACK
6
CONTINUOUS
10
0.797611
20
0.82542
11
0.798307
21
0.825709
0
LINE
8
BLACK
6
CONTINUOUS
10
0.798307
20
0.825709
11
1.15894
21
0.825709
0
LINE
8
BLACK
6
CONTINUOUS
10
1.15894
20
0.825709
11
1.15963
21
0.82542
0
LINE
8
BLACK
6
CONTINUOUS
10
1.15963
20
0.82542
11
1.15992
21
0.824724
0
LINE
8
BLACK
6
CONTINUOUS
10
1.15992
20
0.824724
11
1.15992
21
0.533386
0
LINE
8
BLACK
6
CONTINUOUS
10
1.15992
20
0.533386
11
1.15963
21
0.53269
0
LINE
8
BLACK
6
CONTINUOUS
10
1.15963
20
0.53269
11
1.15894
21
0.532402
0
LINE
8
BLACK
6
CONTINUOUS
10
1.15894
20
0.532402
11
0.798307
21
0.532402
0
LINE
8
BLACK
6
CONTINUOUS
10
0.798307
20
0.532402
11
0.797611
21
0.53269
0
LINE
8
BLACK
6
CONTINUOUS
10
0.799291
20
0.82374
11
0.799291
21
0.53437
0
LINE
8
BLACK
6
CONTINUOUS
10
0.799291
20
0.53437
11
1.15795
21
0.53437
0
LINE
8
BLACK
6
CONTINUOUS
10
1.15795
20
0.53437
11
1.15795
21
0.82374
0
LINE
8
BLACK
6
CONTINUOUS
10
1.15795
20
0.82374
11
0.799291
21
0.82374
0
LINE
8
BLACK
6
CONTINUOUS
10
0.739961
20
0.805315
11
0.739961
21
0.690748
0
LINE
8
BLACK
6
CONTINUOUS
10
0.739961
20
0.690748
11
0.795472
21
0.690748
0
LINE
8
BLACK
6
CONTINUOUS
10
0.795472
20
0.690748
11
0.795472
21
0.805315
0
LINE
8
BLACK
6
CONTINUOUS
10
0.795472
20
0.805315
11
0.739961
21
0.805315
0
LINE
8
BLACK
6
CONTINUOUS
10
1.95585
20
1.47904
11
1.95585
21
1.45571
0
LINE
8
BLACK
6
CONTINUOUS
10
1.95585
20
1.45571
11
2.03543
21
1.45571
0
LINE
8
BLACK
6
CONTINUOUS
10
2.03543
20
1.45571
11
2.03613
21
1.45542
0
LINE
8
BLACK
6
CONTINUOUS
10
2.03613
20
1.45542
11
2.03642
21
1.45472
0
LINE
8
BLACK
6
CONTINUOUS
10
2.03642
20
1.45472
11
2.03642
21
1.01378
0
LINE
8
BLACK
6
CONTINUOUS
10
2.03642
20
1.01378
11
2.03613
21
1.01308
0
LINE
8
BLACK
6
CONTINUOUS
10
2.03613
20
1.01308
11
2.03543
21
1.0128
0
LINE
8
BLACK
6
CONTINUOUS
10
2.03543
20
1.0128
11
1.97933
21
1.0128
0
LINE
8
BLACK
6
CONTINUOUS
10
1.97933
20
1.0128
11
1.97933
21
0.996843
0
LINE
8
BLACK
6
CONTINUOUS
10
1.97933
20
0.996843
11
1.97904
21
0.996147
0
LINE
8
BLACK
6
CONTINUOUS
10
1.97904
20
0.996147
11
1.97882
21
0.996055
0
LINE
8
BLACK
6
CONTINUOUS
10
1.97882
20
0.996055
11
1.97904
21
0.995964
0
LINE
8
BLACK
6
CONTINUOUS
10
1.97904
20
0.995964
11
1.97933
21
0.995268
0
LINE
8
BLACK
6
CONTINUOUS
10
1.97933
20
0.995268
11
1.97933
21
0.981299
0
LINE
8
BLACK
6
CONTINUOUS
10
1.97933
20
0.981299
11
2.03543
21
0.981299
0
LINE
8
BLACK
6
CONTINUOUS
10
2.03543
20
0.981299
11
2.03613
21
0.981011
0
LINE
8
BLACK
6
CONTINUOUS
10
2.03613
20
0.981011
11
2.03642
21
0.980315
0
LINE
8
BLACK
6
CONTINUOUS
10
2.03642
20
0.980315
11
2.03642
21
0.53937
0
LINE
8
BLACK
6
CONTINUOUS
10
2.03642
20
0.53937
11
2.03613
21
0.538674
0
LINE
8
BLACK
6
CONTINUOUS
10
2.03613
20
0.538674
11
2.03543
21
0.538386
0
LINE
8
BLACK
6
CONTINUOUS
10
2.03543
20
0.538386
11
1.22441
21
0.538386
0
LINE
8
BLACK
6
CONTINUOUS
10
1.22441
20
0.538386
11
1.22371
21
0.538674
0
LINE
8
BLACK
6
CONTINUOUS
10
1.22371
20
0.538674
11
1.22343
21
0.53937
0
LINE
8
BLACK
6
CONTINUOUS
10
1.22343
20
0.53937
11
1.22343
21
0.882657
0
LINE
8
BLACK
6
CONTINUOUS
10
1.22343
20
0.882657
11
1.09634
21
0.882657
0
LINE
8
BLACK
6
CONTINUOUS
10
1.09634
20
0.882657
11
1.09564
21
0.882946
0
LINE
8
BLACK
6
CONTINUOUS
10
1.09564
20
0.882946
11
1.09535
21
0.883642
0
LINE
8
BLACK
6
CONTINUOUS
10
1.09535
20
0.883642
11
1.09535
21
1.17498
0
LINE
8
BLACK
6
CONTINUOUS
10
1.09535
20
1.17498
11
1.09564
21
1.17568
0
LINE
8
BLACK
6
CONTINUOUS
10
1.09564
20
1.17568
11
1.09634
21
1.17596
0
LINE
8
BLACK
6
CONTINUOUS
10
1.09634
20
1.17596
11
1.22343
21
1.17596
0
LINE
8
BLACK
6
CONTINUOUS
10
1.22343
20
1.17596
11
1.22343
21
1.45472
0
LINE
8
BLACK
6
CONTINUOUS
10
1.22343
20
1.45472
11
1.22371
21
1.45542
0
LINE
8
BLACK
6
CONTINUOUS
10
1.22371
20
1.45542
11
1.22441
21
1.45571
0
LINE
8
BLACK
6
CONTINUOUS
10
1.22441
20
1.45571
11
1.8364
21
1.45571
0
LINE
8
BLACK
6
CONTINUOUS
10
1.8364
20
1.45571
11
1.8364
21
1.47904
0
LINE
8
BLACK
6
CONTINUOUS
10
1.8364
20
1.47904
11
1.83669
21
1.47973
0
LINE
8
BLACK
6
CONTINUOUS
10
1.83669
20
1.47973
11
1.83738
21
1.48002
0
LINE
8
BLACK
6
CONTINUOUS
10
1.83738
20
1.48002
11
1.89486
21
1.48002
0
LINE
8
BLACK
6
CONTINUOUS
10
1.89486
20
1.48002
11
1.89556
21
1.47973
0
LINE
8
BLACK
6
CONTINUOUS
10
1.89556
20
1.47973
11
1.89585
21
1.47904
0
LINE
8
BLACK
6
CONTINUOUS
10
1.89585
20
1.47904
11
1.89585
21
1.45571
0
LINE
8
BLACK
6
CONTINUOUS
10
1.89585
20
1.45571
11
1.8964
21
1.45571
0
LINE
8
BLACK
6
CONTINUOUS
10
1.8964
20
1.45571
11
1.8964
21
1.47904
0
LINE
8
BLACK
6
CONTINUOUS
10
1.8964
20
1.47904
11
1.89669
21
1.47973
0
LINE
8
BLACK
6
CONTINUOUS
10
1.89669
20
1.47973
11
1.89738
21
1.48002
0
LINE
8
BLACK
6
CONTINUOUS
10
1.89738
20
1.48002
11
1.95486
21
1.48002
0
LINE
8
BLACK
6
CONTINUOUS
10
1.95486
20
1.48002
11
1.95556
21
1.47973
0
LINE
8
BLACK
6
CONTINUOUS
10
1.95556
20
1.47973
11
1.95585
21
1.47904
0
LINE
8
BLACK
6
CONTINUOUS
10
1.87923
20
0.896147
11
1.87894
21
0.896843
0
LINE
8
BLACK
6
CONTINUOUS
10
1.87894
20
0.896843
11
1.87894
21
0.979331
0
LINE
8
BLACK
6
CONTINUOUS
10
1.87894
20
0.979331
11
1.30992
21
0.979331
0
LINE
8
BLACK
6
CONTINUOUS
10
1.30992
20
0.979331
11
1.30992
21
0.883642
0
LINE
8
BLACK
6
CONTINUOUS
10
1.30992
20
0.883642
11
1.30963
21
0.882946
0
LINE
8
BLACK
6
CONTINUOUS
10
1.30963
20
0.882946
11
1.30894
21
0.882657
0
LINE
8
BLACK
6
CONTINUOUS
10
1.30894
20
0.882657
11
1.22539
21
0.882657
0
LINE
8
BLACK
6
CONTINUOUS
10
1.22539
20
0.882657
11
1.22539
21
0.540354
0
LINE
8
BLACK
6
CONTINUOUS
10
1.22539
20
0.540354
11
2.03445
21
0.540354
0
LINE
8
BLACK
6
CONTINUOUS
10
2.03445
20
0.540354
11
2.03445
21
0.979331
0
LINE
8
BLACK
6
CONTINUOUS
10
2.03445
20
0.979331
11
1.97933
21
0.979331
0
LINE
8
BLACK
6
CONTINUOUS
10
1.97933
20
0.979331
11
1.97933
21
0.896843
0
LINE
8
BLACK
6
CONTINUOUS
10
1.97933
20
0.896843
11
1.97904
21
0.896147
0
LINE
8
BLACK
6
CONTINUOUS
10
1.97904
20
0.896147
11
1.97835
21
0.895858
0
LINE
8
BLACK
6
CONTINUOUS
10
1.97835
20
0.895858
11
1.87992
21
0.895858
0
LINE
8
BLACK
6
CONTINUOUS
10
1.87992
20
0.895858
11
1.87923
21
0.896147
0
LINE
8
BLACK
6
CONTINUOUS
10
1.09732
20
1.174
11
1.09732
21
0.884626
0
LINE
8
BLACK
6
CONTINUOUS
10
1.09732
20
0.884626
11
1.22343
21
0.884626
0
LINE
8
BLACK
6
CONTINUOUS
10
1.22343
20
0.884626
11
1.22343
21
0.980315
0
LINE
8
BLACK
6
CONTINUOUS
10
1.22343
20
0.980315
11
1.22371
21
0.981011
0
LINE
8
BLACK
6
CONTINUOUS
10
1.22371
20
0.981011
11
1.22441
21
0.981299
0
LINE
8
BLACK
6
CONTINUOUS
10
1.22441
20
0.981299
11
1.30795
21
0.981299
0
LINE
8
BLACK
6
CONTINUOUS
10
1.30795
20
0.981299
11
1.30795
21
1.0128
0
LINE
8
BLACK
6
CONTINUOUS
10
1.30795
20
1.0128
11
1.22441
21
1.0128
0
LINE
8
BLACK
6
CONTINUOUS
10
1.22441
20
1.0128
11
1.22371
21
1.01308
0
LINE
8
BLACK
6
CONTINUOUS
10
1.22371
20
1.01308
11
1.22343
21
1.01378
0
LINE
8
BLACK
6
CONTINUOUS
10
1.22343
20
1.01378
11
1.22343
21
1.174
0
LINE
8
BLACK
6
CONTINUOUS
10
1.22343
20
1.174
11
1.09732
21
1.174
0
LINE
8
BLACK
6
CONTINUOUS
10
1.22539
20
0.979331
11
1.22539
21
0.884626
0
LINE
8
BLACK
6
CONTINUOUS
10
1.22539
20
0.884626
11
1.30795
21
0.884626
0
LINE
8
BLACK
6
CONTINUOUS
10
1.30795
20
0.884626
11
1.30795
21
0.979331
0
LINE
8
BLACK
6
CONTINUOUS
10
1.30795
20
0.979331
11
1.22539
21
0.979331
0
LINE
8
BLACK
6
CONTINUOUS
10
1.88091
20
0.979331
11
1.88091
21
0.897827
0
LINE
8
BLACK
6
CONTINUOUS
10
1.88091
20
0.897827
11
1.97736
21
0.897827
0
LINE
8
BLACK
6
CONTINUOUS
10
1.97736
20
0.897827
11
1.97736
21
0.979331
0
LINE
8
BLACK
6
CONTINUOUS
10
1.97736
20
0.979331
11
1.88091
21
0.979331
0
LINE
8
BLACK
6
CONTINUOUS
10
1.57428
20
1.00566
11
1.574
21
1.00636
0
LINE
8
BLACK
6
CONTINUOUS
10
1.574
20
1.00636
11
1.574
21
1.0128
0
LINE
8
BLACK
6
CONTINUOUS
10
1.574
20
1.0128
11
1.30992
21
1.0128
0
LINE
8
BLACK
6
CONTINUOUS
10
1.30992
20
1.0128
11
1.30992
21
0.981299
0
LINE
8
BLACK
6
CONTINUOUS
10
1.30992
20
0.981299
11
1.87894
21
0.981299
0
LINE
8
BLACK
6
CONTINUOUS
10
1.87894
20
0.981299
11
1.87894
21
0.995268
0
LINE
8
BLACK
6
CONTINUOUS
10
1.87894
20
0.995268
11
1.87923
21
0.995964
0
LINE
8
BLACK
6
CONTINUOUS
10
1.87923
20
0.995964
11
1.87945
21
0.996055
0
LINE
8
BLACK
6
CONTINUOUS
10
1.87945
20
0.996055
11
1.87923
21
0.996147
0
LINE
8
BLACK
6
CONTINUOUS
10
1.87923
20
0.996147
11
1.87894
21
0.996843
0
LINE
8
BLACK
6
CONTINUOUS
10
1.87894
20
0.996843
11
1.87894
21
1.0128
0
LINE
8
BLACK
6
CONTINUOUS
10
1.87894
20
1.0128
11
1.70825
21
1.0128
0
LINE
8
BLACK
6
CONTINUOUS
10
1.70825
20
1.0128
11
1.70825
21
1.00636
0
LINE
8
BLACK
6
CONTINUOUS
10
1.70825
20
1.00636
11
1.70796
21
1.00566
0
LINE
8
BLACK
6
CONTINUOUS
10
1.70796
20
1.00566
11
1.70726
21
1.00537
0
LINE
8
BLACK
6
CONTINUOUS
10
1.70726
20
1.00537
11
1.57498
21
1.00537
0
LINE
8
BLACK
6
CONTINUOUS
10
1.57498
20
1.00537
11
1.57428
21
1.00566
0
LINE
8
BLACK
6
CONTINUOUS
10
1.88091
20
0.994283
11
1.88091
21
0.981299
0
LINE
8
BLACK
6
CONTINUOUS
10
1.88091
20
0.981299
11
1.97736
21
0.981299
0
LINE
8
BLACK
6
CONTINUOUS
10
1.97736
20
0.981299
11
1.97736
21
0.994283
0
LINE
8
BLACK
6
CONTINUOUS
10
1.97736
20
0.994283
11
1.88091
21
0.994283
0
LINE
8
BLACK
6
CONTINUOUS
10
1.88091
20
1.0128
11
1.88091
21
0.997827
0
LINE
8
BLACK
6
CONTINUOUS
10
1.88091
20
0.997827
11
1.97736
21
0.997827
0
LINE
8
BLACK
6
CONTINUOUS
10
1.97736
20
0.997827
11
1.97736
21
1.0128
0
LINE
8
BLACK
6
CONTINUOUS
10
1.97736
20
1.0128
11
1.88091
21
1.0128
0
LINE
8
BLACK
6
CONTINUOUS
10
1.57596
20
1.0128
11
1.57596
21
1.00734
0
LINE
8
BLACK
6
CONTINUOUS
10
1.57596
20
1.00734
11
1.70628
21
1.00734
0
LINE
8
BLACK
6
CONTINUOUS
10
1.70628
20
1.00734
11
1.70628
21
1.0128
0
LINE
8
BLACK
6
CONTINUOUS
10
1.70628
20
1.0128
11
1.57596
21
1.0128
0
LINE
8
BLACK
6
CONTINUOUS
10
1.22539
20
1.174
11
1.22539
21
1.01476
0
LINE
8
BLACK
6
CONTINUOUS
10
1.22539
20
1.01476
11
1.30795
21
1.01476
0
LINE
8
BLACK
6
CONTINUOUS
10
1.30795
20
1.01476
11
1.30795
21
1.174
0
LINE
8
BLACK
6
CONTINUOUS
10
1.30795
20
1.174
11
1.22539
21
1.174
0
LINE
8
BLACK
6
CONTINUOUS
10
1.89669
20
1.3618
11
1.8964
21
1.3625
0
LINE
8
BLACK
6
CONTINUOUS
10
1.8964
20
1.3625
11
1.8964
21
1.45374
0
LINE
8
BLACK
6
CONTINUOUS
10
1.8964
20
1.45374
11
1.89585
21
1.45374
0
LINE
8
BLACK
6
CONTINUOUS
10
1.89585
20
1.45374
11
1.89585
21
1.3625
0
LINE
8
BLACK
6
CONTINUOUS
10
1.89585
20
1.3625
11
1.89556
21
1.3618
0
LINE
8
BLACK
6
CONTINUOUS
10
1.89556
20
1.3618
11
1.89486
21
1.36152
0
LINE
8
BLACK
6
CONTINUOUS
10
1.89486
20
1.36152
11
1.83738
21
1.36152
0
LINE
8
BLACK
6
CONTINUOUS
10
1.83738
20
1.36152
11
1.83669
21
1.3618
0
LINE
8
BLACK
6
CONTINUOUS
10
1.83669
20
1.3618
11
1.8364
21
1.3625
0
LINE
8
BLACK
6
CONTINUOUS
10
1.8364
20
1.3625
11
1.8364
21
1.45374
0
LINE
8
BLACK
6
CONTINUOUS
10
1.8364
20
1.45374
11
1.22539
21
1.45374
0
LINE
8
BLACK
6
CONTINUOUS
10
1.22539
20
1.45374
11
1.22539
21
1.17596
0
LINE
8
BLACK
6
CONTINUOUS
10
1.22539
20
1.17596
11
1.30894
21
1.17596
0
LINE
8
BLACK
6
CONTINUOUS
10
1.30894
20
1.17596
11
1.30963
21
1.17568
0
LINE
8
BLACK
6
CONTINUOUS
10
1.30963
20
1.17568
11
1.30992
21
1.17498
0
LINE
8
BLACK
6
CONTINUOUS
10
1.30992
20
1.17498
11
1.30992
21
1.01476
0
LINE
8
BLACK
6
CONTINUOUS
10
1.30992
20
1.01476
11
1.574
21
1.01476
0
LINE
8
BLACK
6
CONTINUOUS
10
1.574
20
1.01476
11
1.574
21
1.08116
0
LINE
8
BLACK
6
CONTINUOUS
10
1.574
20
1.08116
11
1.57428
21
1.08186
0
LINE
8
BLACK
6
CONTINUOUS
10
1.57428
20
1.08186
11
1.57498
21
1.08215
0
LINE
8
BLACK
6
CONTINUOUS
10
1.57498
20
1.08215
11
1.70726
21
1.08215
0
LINE
8
BLACK
6
CONTINUOUS
10
1.70726
20
1.08215
11
1.70796
21
1.08186
0
LINE
8
BLACK
6
CONTINUOUS
10
1.70796
20
1.08186
11
1.70825
21
1.08116
0
LINE
8
BLACK
6
CONTINUOUS
10
1.70825
20
1.08116
11
1.70825
21
1.01476
0
LINE
8
BLACK
6
CONTINUOUS
10
1.70825
20
1.01476
11
1.87894
21
1.01476
0
LINE
8
BLACK
6
CONTINUOUS
10
1.87894
20
1.01476
11
1.87894
21
1.09527
0
LINE
8
BLACK
6
CONTINUOUS
10
1.87894
20
1.09527
11
1.87923
21
1.09596
0
LINE
8
BLACK
6
CONTINUOUS
10
1.87923
20
1.09596
11
1.87992
21
1.09625
0
LINE
8
BLACK
6
CONTINUOUS
10
1.87992
20
1.09625
11
1.97835
21
1.09625
0
LINE
8
BLACK
6
CONTINUOUS
10
1.97835
20
1.09625
11
1.97904
21
1.09596
0
LINE
8
BLACK
6
CONTINUOUS
10
1.97904
20
1.09596
11
1.97933
21
1.09527
0
LINE
8
BLACK
6
CONTINUOUS
10
1.97933
20
1.09527
11
1.97933
21
1.01476
0
LINE
8
BLACK
6
CONTINUOUS
10
1.97933
20
1.01476
11
2.03445
21
1.01476
0
LINE
8
BLACK
6
CONTINUOUS
10
2.03445
20
1.01476
11
2.03445
21
1.45374
0
LINE
8
BLACK
6
CONTINUOUS
10
2.03445
20
1.45374
11
1.95585
21
1.45374
0
LINE
8
BLACK
6
CONTINUOUS
10
1.95585
20
1.45374
11
1.95585
21
1.3625
0
LINE
8
BLACK
6
CONTINUOUS
10
1.95585
20
1.3625
11
1.95556
21
1.3618
0
LINE
8
BLACK
6
CONTINUOUS
10
1.95556
20
1.3618
11
1.95486
21
1.36152
0
LINE
8
BLACK
6
CONTINUOUS
10
1.95486
20
1.36152
11
1.89738
21
1.36152
0
LINE
8
BLACK
6
CONTINUOUS
10
1.89738
20
1.36152
11
1.89669
21
1.3618
0
LINE
8
BLACK
6
CONTINUOUS
10
1.57596
20
1.08018
11
1.57596
21
1.01476
0
LINE
8
BLACK
6
CONTINUOUS
10
1.57596
20
1.01476
11
1.70628
21
1.01476
0
LINE
8
BLACK
6
CONTINUOUS
10
1.70628
20
1.01476
11
1.70628
21
1.08018
0
LINE
8
BLACK
6
CONTINUOUS
10
1.70628
20
1.08018
11
1.57596
21
1.08018
0
LINE
8
BLACK
6
CONTINUOUS
10
1.88091
20
1.09428
11
1.88091
21
1.01476
0
LINE
8
BLACK
6
CONTINUOUS
10
1.88091
20
1.01476
11
1.97736
21
1.01476
0
LINE
8
BLACK
6
CONTINUOUS
10
1.97736
20
1.01476
11
1.97736
21
1.09428
0
LINE
8
BLACK
6
CONTINUOUS
10
1.97736
20
1.09428
11
1.88091
21
1.09428
0
LINE
8
BLACK
6
CONTINUOUS
10
1.89837
20
1.45374
11
1.89837
21
1.36348
0
LINE
8
BLACK
6
CONTINUOUS
10
1.89837
20
1.36348
11
1.95388
21
1.36348
0
LINE
8
BLACK
6
CONTINUOUS
10
1.95388
20
1.36348
11
1.95388
21
1.45374
0
LINE
8
BLACK
6
CONTINUOUS
10
1.95388
20
1.45374
11
1.89837
21
1.45374
0
LINE
8
BLACK
6
CONTINUOUS
10
1.83837
20
1.45374
11
1.83837
21
1.36348
0
LINE
8
BLACK
6
CONTINUOUS
10
1.83837
20
1.36348
11
1.89388
21
1.36348
0
LINE
8
BLACK
6
CONTINUOUS
10
1.89388
20
1.36348
11
1.89388
21
1.45374
0
LINE
8
BLACK
6
CONTINUOUS
10
1.89388
20
1.45374
11
1.83837
21
1.45374
0
LINE
8
BLACK
6
CONTINUOUS
10
1.83837
20
1.47805
11
1.83837
21
1.45571
0
LINE
8
BLACK
6
CONTINUOUS
10
1.83837
20
1.45571
11
1.89388
21
1.45571
0
LINE
8
BLACK
6
CONTINUOUS
10
1.89388
20
1.45571
11
1.89388
21
1.47805
0
LINE
8
BLACK
6
CONTINUOUS
10
1.89388
20
1.47805
11
1.83837
21
1.47805
0
LINE
8
BLACK
6
CONTINUOUS
10
1.89837
20
1.47805
11
1.89837
21
1.45571
0
LINE
8
BLACK
6
CONTINUOUS
10
1.89837
20
1.45571
11
1.95388
21
1.45571
0
LINE
8
BLACK
6
CONTINUOUS
10
1.95388
20
1.45571
11
1.95388
21
1.47805
0
LINE
8
BLACK
6
CONTINUOUS
10
1.95388
20
1.47805
11
1.89837
21
1.47805
0
LINE
8
BLACK
6
CONTINUOUS
10
1.45285
20
0.903241
11
1.45256
21
0.903937
0
LINE
8
BLACK
6
CONTINUOUS
10
1.45256
20
0.903937
11
1.45256
21
0.961417
0
LINE
8
BLACK
6
CONTINUOUS
10
1.45256
20
0.961417
11
1.45285
21
0.962113
0
LINE
8
BLACK
6
CONTINUOUS
10
1.45285
20
0.962113
11
1.45354
21
0.962402
0
LINE
8
BLACK
6
CONTINUOUS
10
1.45354
20
0.962402
11
1.57008
21
0.962402
0
LINE
8
BLACK
6
CONTINUOUS
10
1.57008
20
0.962402
11
1.57077
21
0.962113
0
LINE
8
BLACK
6
CONTINUOUS
10
1.57077
20
0.962113
11
1.57106
21
0.961417
0
LINE
8
BLACK
6
CONTINUOUS
10
1.57106
20
0.961417
11
1.57106
21
0.903937
0
LINE
8
BLACK
6
CONTINUOUS
10
1.57106
20
0.903937
11
1.57077
21
0.903241
0
LINE
8
BLACK
6
CONTINUOUS
10
1.57077
20
0.903241
11
1.57008
21
0.902953
0
LINE
8
BLACK
6
CONTINUOUS
10
1.57008
20
0.902953
11
1.45354
21
0.902953
0
LINE
8
BLACK
6
CONTINUOUS
10
1.45354
20
0.902953
11
1.45285
21
0.903241
0
LINE
8
BLACK
6
CONTINUOUS
10
1.45453
20
0.960433
11
1.45453
21
0.904921
0
LINE
8
BLACK
6
CONTINUOUS
10
1.45453
20
0.904921
11
1.56909
21
0.904921
0
LINE
8
BLACK
6
CONTINUOUS
10
1.56909
20
0.904921
11
1.56909
21
0.960433
0
LINE
8
BLACK
6
CONTINUOUS
10
1.56909
20
0.960433
11
1.45453
21
0.960433
0
LINE
8
BLACK
6
CONTINUOUS
10
1.31623
20
0.904028
11
1.31594
21
0.904724
0
LINE
8
BLACK
6
CONTINUOUS
10
1.31594
20
0.904724
11
1.31594
21
0.962205
0
LINE
8
BLACK
6
CONTINUOUS
10
1.31594
20
0.962205
11
1.31623
21
0.962901
0
LINE
8
BLACK
6
CONTINUOUS
10
1.31623
20
0.962901
11
1.31693
21
0.963189
0
LINE
8
BLACK
6
CONTINUOUS
10
1.31693
20
0.963189
11
1.43346
21
0.963189
0
LINE
8
BLACK
6
CONTINUOUS
10
1.43346
20
0.963189
11
1.43416
21
0.962901
0
LINE
8
BLACK
6
CONTINUOUS
10
1.43416
20
0.962901
11
1.43445
21
0.962205
0
LINE
8
BLACK
6
CONTINUOUS
10
1.43445
20
0.962205
11
1.43445
21
0.904724
0
LINE
8
BLACK
6
CONTINUOUS
10
1.43445
20
0.904724
11
1.43416
21
0.904028
0
LINE
8
BLACK
6
CONTINUOUS
10
1.43416
20
0.904028
11
1.43346
21
0.90374
0
LINE
8
BLACK
6
CONTINUOUS
10
1.43346
20
0.90374
11
1.31693
21
0.90374
0
LINE
8
BLACK
6
CONTINUOUS
10
1.31693
20
0.90374
11
1.31623
21
0.904028
0
LINE
8
BLACK
6
CONTINUOUS
10
1.31791
20
0.96122
11
1.31791
21
0.905709
0
LINE
8
BLACK
6
CONTINUOUS
10
1.31791
20
0.905709
11
1.43248
21
0.905709
0
LINE
8
BLACK
6
CONTINUOUS
10
1.43248
20
0.905709
11
1.43248
21
0.96122
0
LINE
8
BLACK
6
CONTINUOUS
10
1.43248
20
0.96122
11
1.31791
21
0.96122
0
LINE
8
BLACK
6
CONTINUOUS
10
1.54527
20
1.38789
11
1.54498
21
1.38858
0
LINE
8
BLACK
6
CONTINUOUS
10
1.54498
20
1.38858
11
1.54498
21
1.44606
0
LINE
8
BLACK
6
CONTINUOUS
10
1.54498
20
1.44606
11
1.54527
21
1.44676
0
LINE
8
BLACK
6
CONTINUOUS
10
1.54527
20
1.44676
11
1.54596
21
1.44705
0
LINE
8
BLACK
6
CONTINUOUS
10
1.54596
20
1.44705
11
1.6625
21
1.44705
0
LINE
8
BLACK
6
CONTINUOUS
10
1.6625
20
1.44705
11
1.6632
21
1.44676
0
LINE
8
BLACK
6
CONTINUOUS
10
1.6632
20
1.44676
11
1.66348
21
1.44606
0
LINE
8
BLACK
6
CONTINUOUS
10
1.66348
20
1.44606
11
1.66348
21
1.38858
0
LINE
8
BLACK
6
CONTINUOUS
10
1.66348
20
1.38858
11
1.6632
21
1.38789
0
LINE
8
BLACK
6
CONTINUOUS
10
1.6632
20
1.38789
11
1.6625
21
1.3876
0
LINE
8
BLACK
6
CONTINUOUS
10
1.6625
20
1.3876
11
1.54596
21
1.3876
0
LINE
8
BLACK
6
CONTINUOUS
10
1.54596
20
1.3876
11
1.54527
21
1.38789
0
LINE
8
BLACK
6
CONTINUOUS
10
1.54695
20
1.44508
11
1.54695
21
1.38957
0
LINE
8
BLACK
6
CONTINUOUS
10
1.54695
20
1.38957
11
1.66152
21
1.38957
0
LINE
8
BLACK
6
CONTINUOUS
10
1.66152
20
1.38957
11
1.66152
21
1.44508
0
LINE
8
BLACK
6
CONTINUOUS
10
1.66152
20
1.44508
11
1.54695
21
1.44508
0
LINE
8
BLACK
6
CONTINUOUS
10
0.469186
20
0.559147
11
0.468898
21
0.559843
0
LINE
8
BLACK
6
CONTINUOUS
10
0.468898
20
0.559843
11
0.468898
21
0.676378
0
LINE
8
BLACK
6
CONTINUOUS
10
0.468898
20
0.676378
11
0.469186
21
0.677074
0
LINE
8
BLACK
6
CONTINUOUS
10
0.469186
20
0.677074
11
0.469882
21
0.677362
0
LINE
8
BLACK
6
CONTINUOUS
10
0.469882
20
0.677362
11
0.527362
21
0.677362
0
LINE
8
BLACK
6
CONTINUOUS
10
0.527362
20
0.677362
11
0.528058
21
0.677074
0
LINE
8
BLACK
6
CONTINUOUS
10
0.528058
20
0.677074
11
0.528346
21
0.676378
0
LINE
8
BLACK
6
CONTINUOUS
10
0.528346
20
0.676378
11
0.528346
21
0.559843
0
LINE
8
BLACK
6
CONTINUOUS
10
0.528346
20
0.559843
11
0.528058
21
0.559147
0
LINE
8
BLACK
6
CONTINUOUS
10
0.528058
20
0.559147
11
0.527362
21
0.558858
0
LINE
8
BLACK
6
CONTINUOUS
10
0.527362
20
0.558858
11
0.469882
21
0.558858
0
LINE
8
BLACK
6
CONTINUOUS
10
0.469882
20
0.558858
11
0.469186
21
0.559147
0
LINE
8
BLACK
6
CONTINUOUS
10
0.470866
20
0.675394
11
0.470866
21
0.560827
0
LINE
8
BLACK
6
CONTINUOUS
10
0.470866
20
0.560827
11
0.526378
21
0.560827
0
LINE
8
BLACK
6
CONTINUOUS
10
0.526378
20
0.560827
11
0.526378
21
0.675394
0
LINE
8
BLACK
6
CONTINUOUS
10
0.526378
20
0.675394
11
0.470866
21
0.675394
0
LINE
8
BLACK
6
CONTINUOUS
10
0.549186
20
0.560091
11
0.548898
21
0.560787
0
LINE
8
BLACK
6
CONTINUOUS
10
0.548898
20
0.560787
11
0.548898
21
0.677323
0
LINE
8
BLACK
6
CONTINUOUS
10
0.548898
20
0.677323
11
0.549186
21
0.678019
0
LINE
8
BLACK
6
CONTINUOUS
10
0.549186
20
0.678019
11
0.549882
21
0.678307
0
LINE
8
BLACK
6
CONTINUOUS
10
0.549882
20
0.678307
11
0.607362
21
0.678307
0
LINE
8
BLACK
6
CONTINUOUS
10
0.607362
20
0.678307
11
0.608058
21
0.678019
0
LINE
8
BLACK
6
CONTINUOUS
10
0.608058
20
0.678019
11
0.608346
21
0.677323
0
LINE
8
BLACK
6
CONTINUOUS
10
0.608346
20
0.677323
11
0.608346
21
0.560787
0
LINE
8
BLACK
6
CONTINUOUS
10
0.608346
20
0.560787
11
0.608058
21
0.560091
0
LINE
8
BLACK
6
CONTINUOUS
10
0.608058
20
0.560091
11
0.607362
21
0.559803
0
LINE
8
BLACK
6
CONTINUOUS
10
0.607362
20
0.559803
11
0.549882
21
0.559803
0
LINE
8
BLACK
6
CONTINUOUS
10
0.549882
20
0.559803
11
0.549186
21
0.560091
0
LINE
8
BLACK
6
CONTINUOUS
10
0.550866
20
0.676339
11
0.550866
21
0.561772
0
LINE
8
BLACK
6
CONTINUOUS
10
0.550866
20
0.561772
11
0.606378
21
0.561772
0
LINE
8
BLACK
6
CONTINUOUS
10
0.606378
20
0.561772
11
0.606378
21
0.676339
0
LINE
8
BLACK
6
CONTINUOUS
10
0.606378
20
0.676339
11
0.550866
21
0.676339
0
LINE
8
BLACK
6
CONTINUOUS
10
0.598517
20
0.679619
11
0.598228
21
0.680315
0
LINE
8
BLACK
6
CONTINUOUS
10
0.598228
20
0.680315
11
0.598228
21
0.737795
0
LINE
8
BLACK
6
CONTINUOUS
10
0.598228
20
0.737795
11
0.598517
21
0.738491
0
LINE
8
BLACK
6
CONTINUOUS
10
0.598517
20
0.738491
11
0.599213
21
0.73878
0
LINE
8
BLACK
6
CONTINUOUS
10
0.599213
20
0.73878
11
0.715748
21
0.73878
0
LINE
8
BLACK
6
CONTINUOUS
10
0.715748
20
0.73878
11
0.716444
21
0.738491
0
LINE
8
BLACK
6
CONTINUOUS
10
0.716444
20
0.738491
11
0.716732
21
0.737795
0
LINE
8
BLACK
6
CONTINUOUS
10
0.716732
20
0.737795
11
0.716732
21
0.680315
0
LINE
8
BLACK
6
CONTINUOUS
10
0.716732
20
0.680315
11
0.716444
21
0.679619
0
LINE
8
BLACK
6
CONTINUOUS
10
0.716444
20
0.679619
11
0.715748
21
0.679331
0
LINE
8
BLACK
6
CONTINUOUS
10
0.715748
20
0.679331
11
0.599213
21
0.679331
0
LINE
8
BLACK
6
CONTINUOUS
10
0.599213
20
0.679331
11
0.598517
21
0.679619
0
LINE
8
BLACK
6
CONTINUOUS
10
0.600197
20
0.736811
11
0.600197
21
0.681299
0
LINE
8
BLACK
6
CONTINUOUS
10
0.600197
20
0.681299
11
0.714764
21
0.681299
0
LINE
8
BLACK
6
CONTINUOUS
10
0.714764
20
0.681299
11
0.714764
21
0.736811
0
LINE
8
BLACK
6
CONTINUOUS
10
0.714764
20
0.736811
11
0.600197
21
0.736811
0
LINE
8
BLACK
6
CONTINUOUS
10
0.469658
20
0.679619
11
0.46937
21
0.680315
0
LINE
8
BLACK
6
CONTINUOUS
10
0.46937
20
0.680315
11
0.46937
21
0.737795
0
LINE
8
BLACK
6
CONTINUOUS
10
0.46937
20
0.737795
11
0.469658
21
0.738491
0
LINE
8
BLACK
6
CONTINUOUS
10
0.469658
20
0.738491
11
0.470354
21
0.73878
0
LINE
8
BLACK
6
CONTINUOUS
10
0.470354
20
0.73878
11
0.58689
21
0.73878
0
LINE
8
BLACK
6
CONTINUOUS
10
0.58689
20
0.73878
11
0.587586
21
0.738491
0
LINE
8
BLACK
6
CONTINUOUS
10
0.587586
20
0.738491
11
0.587874
21
0.737795
0
LINE
8
BLACK
6
CONTINUOUS
10
0.587874
20
0.737795
11
0.587874
21
0.680315
0
LINE
8
BLACK
6
CONTINUOUS
10
0.587874
20
0.680315
11
0.587586
21
0.679619
0
LINE
8
BLACK
6
CONTINUOUS
10
0.587586
20
0.679619
11
0.58689
21
0.679331
0
LINE
8
BLACK
6
CONTINUOUS
10
0.58689
20
0.679331
11
0.470354
21
0.679331
0
LINE
8
BLACK
6
CONTINUOUS
10
0.470354
20
0.679331
11
0.469658
21
0.679619
0
LINE
8
BLACK
6
CONTINUOUS
10
0.471339
20
0.736811
11
0.471339
21
0.681299
0
LINE
8
BLACK
6
CONTINUOUS
10
0.471339
20
0.681299
11
0.585906
21
0.681299
0
LINE
8
BLACK
6
CONTINUOUS
10
0.585906
20
0.681299
11
0.585906
21
0.736811
0
LINE
8
BLACK
6
CONTINUOUS
10
0.585906
20
0.736811
11
0.471339
21
0.736811
0
LINE
8
BLACK
6
CONTINUOUS
10
0.598517
20
0.739619
11
0.598228
21
0.740315
0
LINE
8
BLACK
6
CONTINUOUS
10
0.598228
20
0.740315
11
0.598228
21
0.797795
0
LINE
8
BLACK
6
CONTINUOUS
10
0.598228
20
0.797795
11
0.598517
21
0.798491
0
LINE
8
BLACK
6
CONTINUOUS
10
0.598517
20
0.798491
11
0.599213
21
0.79878
0
LINE
8
BLACK
6
CONTINUOUS
10
0.599213
20
0.79878
11
0.715748
21
0.79878
0
LINE
8
BLACK
6
CONTINUOUS
10
0.715748
20
0.79878
11
0.716444
21
0.798491
0
LINE
8
BLACK
6
CONTINUOUS
10
0.716444
20
0.798491
11
0.716732
21
0.797795
0
LINE
8
BLACK
6
CONTINUOUS
10
0.716732
20
0.797795
11
0.716732
21
0.740315
0
LINE
8
BLACK
6
CONTINUOUS
10
0.716732
20
0.740315
11
0.716444
21
0.739619
0
LINE
8
BLACK
6
CONTINUOUS
10
0.716444
20
0.739619
11
0.715748
21
0.739331
0
LINE
8
BLACK
6
CONTINUOUS
10
0.715748
20
0.739331
11
0.599213
21
0.739331
0
LINE
8
BLACK
6
CONTINUOUS
10
0.599213
20
0.739331
11
0.598517
21
0.739619
0
LINE
8
BLACK
6
CONTINUOUS
10
0.600197
20
0.796811
11
0.600197
21
0.741299
0
LINE
8
BLACK
6
CONTINUOUS
10
0.600197
20
0.741299
11
0.714764
21
0.741299
0
LINE
8
BLACK
6
CONTINUOUS
10
0.714764
20
0.741299
11
0.714764
21
0.796811
0
LINE
8
BLACK
6
CONTINUOUS
10
0.714764
20
0.796811
11
0.600197
21
0.796811
0
LINE
8
BLACK
6
CONTINUOUS
10
0.469658
20
0.739619
11
0.46937
21
0.740315
0
LINE
8
BLACK
6
CONTINUOUS
10
0.46937
20
0.740315
11
0.46937
21
0.797795
0
LINE
8
BLACK
6
CONTINUOUS
10
0.46937
20
0.797795
11
0.469658
21
0.798491
0
LINE
8
BLACK
6
CONTINUOUS
10
0.469658
20
0.798491
11
0.470354
21
0.79878
0
LINE
8
BLACK
6
CONTINUOUS
10
0.470354
20
0.79878
11
0.58689
21
0.79878
0
LINE
8
BLACK
6
CONTINUOUS
10
0.58689
20
0.79878
11
0.587586
21
0.798491
0
LINE
8
BLACK
6
CONTINUOUS
10
0.587586
20
0.798491
11
0.587874
21
0.797795
0
LINE
8
BLACK
6
CONTINUOUS
10
0.587874
20
0.797795
11
0.587874
21
0.740315
0
LINE
8
BLACK
6
CONTINUOUS
10
0.587874
20
0.740315
11
0.587586
21
0.739619
0
LINE
8
BLACK
6
CONTINUOUS
10
0.587586
20
0.739619
11
0.58689
21
0.739331
0
LINE
8
BLACK
6
CONTINUOUS
10
0.58689
20
0.739331
11
0.470354
21
0.739331
0
LINE
8
BLACK
6
CONTINUOUS
10
0.470354
20
0.739331
11
0.469658
21
0.739619
0
LINE
8
BLACK
6
CONTINUOUS
10
0.471339
20
0.796811
11
0.471339
21
0.741299
0
LINE
8
BLACK
6
CONTINUOUS
10
0.471339
20
0.741299
11
0.585906
21
0.741299
0
LINE
8
BLACK
6
CONTINUOUS
10
0.585906
20
0.741299
11
0.585906
21
0.796811
0
LINE
8
BLACK
6
CONTINUOUS
10
0.585906
20
0.796811
11
0.471339
21
0.796811
0
LINE
8
BLACK
6
CONTINUOUS
10
0.41269
20
0.818635
11
0.412402
21
0.819331
0
LINE
8
BLACK
6
CONTINUOUS
10
0.412402
20
0.819331
11
0.412402
21
1.22878
0
LINE
8
BLACK
6
CONTINUOUS
10
0.412402
20
1.22878
11
0.41269
21
1.22948
0
LINE
8
BLACK
6
CONTINUOUS
10
0.41269
20
1.22948
11
0.413386
21
1.22976
0
LINE
8
BLACK
6
CONTINUOUS
10
0.413386
20
1.22976
11
0.704724
21
1.22976
0
LINE
8
BLACK
6
CONTINUOUS
10
0.704724
20
1.22976
11
0.70542
21
1.22948
0
LINE
8
BLACK
6
CONTINUOUS
10
0.70542
20
1.22948
11
0.705709
21
1.22878
0
LINE
8
BLACK
6
CONTINUOUS
10
0.705709
20
1.22878
11
0.705709
21
0.819331
0
LINE
8
BLACK
6
CONTINUOUS
10
0.705709
20
0.819331
11
0.70542
21
0.818635
0
LINE
8
BLACK
6
CONTINUOUS
10
0.70542
20
0.818635
11
0.704724
21
0.818346
0
LINE
8
BLACK
6
CONTINUOUS
10
0.704724
20
0.818346
11
0.413386
21
0.818346
0
LINE
8
BLACK
6
CONTINUOUS
10
0.413386
20
0.818346
11
0.41269
21
0.818635
0
LINE
8
BLACK
6
CONTINUOUS
10
0.41437
20
1.2278
11
0.41437
21
0.820315
0
LINE
8
BLACK
6
CONTINUOUS
10
0.41437
20
0.820315
11
0.70374
21
0.820315
0
LINE
8
BLACK
6
CONTINUOUS
10
0.70374
20
0.820315
11
0.70374
21
1.2278
0
LINE
8
BLACK
6
CONTINUOUS
10
0.70374
20
1.2278
11
0.41437
21
1.2278
0
LINE
8
BLACK
6
CONTINUOUS
10
0.913583
20
0.890945
11
0.913583
21
0.833465
0
LINE
8
BLACK
6
CONTINUOUS
10
0.913583
20
0.833465
11
0.913294
21
0.832769
0
LINE
8
BLACK
6
CONTINUOUS
10
0.913294
20
0.832769
11
0.912598
21
0.83248
0
LINE
8
BLACK
6
CONTINUOUS
10
0.912598
20
0.83248
11
0.796063
21
0.83248
0
LINE
8
BLACK
6
CONTINUOUS
10
0.796063
20
0.83248
11
0.795367
21
0.832769
0
LINE
8
BLACK
6
CONTINUOUS
10
0.795367
20
0.832769
11
0.795079
21
0.833465
0
LINE
8
BLACK
6
CONTINUOUS
10
0.795079
20
0.833465
11
0.795079
21
0.890945
0
LINE
8
BLACK
6
CONTINUOUS
10
0.795079
20
0.890945
11
0.795323
21
0.891535
0
LINE
8
BLACK
6
CONTINUOUS
10
0.795323
20
0.891535
11
0.76063
21
0.891535
0
LINE
8
BLACK
6
CONTINUOUS
10
0.76063
20
0.891535
11
0.759934
21
0.891824
0
LINE
8
BLACK
6
CONTINUOUS
10
0.759934
20
0.891824
11
0.759646
21
0.89252
0
LINE
8
BLACK
6
CONTINUOUS
10
0.759646
20
0.89252
11
0.759646
21
0.95
0
LINE
8
BLACK
6
CONTINUOUS
10
0.759646
20
0.95
11
0.759934
21
0.950696
0
LINE
8
BLACK
6
CONTINUOUS
10
0.759934
20
0.950696
11
0.76063
21
0.950984
0
LINE
8
BLACK
6
CONTINUOUS
10
0.76063
20
0.950984
11
0.877165
21
0.950984
0
LINE
8
BLACK
6
CONTINUOUS
10
0.877165
20
0.950984
11
0.877861
21
0.950696
0
LINE
8
BLACK
6
CONTINUOUS
10
0.877861
20
0.950696
11
0.87815
21
0.95
0
LINE
8
BLACK
6
CONTINUOUS
10
0.87815
20
0.95
11
0.87815
21
0.89252
0
LINE
8
BLACK
6
CONTINUOUS
10
0.87815
20
0.89252
11
0.877905
21
0.891929
0
LINE
8
BLACK
6
CONTINUOUS
10
0.877905
20
0.891929
11
0.912598
21
0.891929
0
LINE
8
BLACK
6
CONTINUOUS
10
0.912598
20
0.891929
11
0.913294
21
0.891641
0
LINE
8
BLACK
6
CONTINUOUS
10
0.913294
20
0.891641
11
0.913583
21
0.890945
0
LINE
8
BLACK
6
CONTINUOUS
10
0.797047
20
0.889961
11
0.797047
21
0.834449
0
LINE
8
BLACK
6
CONTINUOUS
10
0.797047
20
0.834449
11
0.911614
21
0.834449
0
LINE
8
BLACK
6
CONTINUOUS
10
0.911614
20
0.834449
11
0.911614
21
0.889961
0
LINE
8
BLACK
6
CONTINUOUS
10
0.911614
20
0.889961
11
0.797047
21
0.889961
0
LINE
8
BLACK
6
CONTINUOUS
10
0.761614
20
0.949016
11
0.761614
21
0.893504
0
LINE
8
BLACK
6
CONTINUOUS
10
0.761614
20
0.893504
11
0.876181
21
0.893504
0
LINE
8
BLACK
6
CONTINUOUS
10
0.876181
20
0.893504
11
0.876181
21
0.949016
0
LINE
8
BLACK
6
CONTINUOUS
10
0.876181
20
0.949016
11
0.761614
21
0.949016
0
LINE
8
BLACK
6
CONTINUOUS
10
0.101666
20
0.848635
11
0.101378
21
0.849331
0
LINE
8
BLACK
6
CONTINUOUS
10
0.101378
20
0.849331
11
0.101378
21
1.25878
0
LINE
8
BLACK
6
CONTINUOUS
10
0.101378
20
1.25878
11
0.101666
21
1.25948
0
LINE
8
BLACK
6
CONTINUOUS
10
0.101666
20
1.25948
11
0.102362
21
1.25976
0
LINE
8
BLACK
6
CONTINUOUS
10
0.102362
20
1.25976
11
0.393701
21
1.25976
0
LINE
8
BLACK
6
CONTINUOUS
10
0.393701
20
1.25976
11
0.394397
21
1.25948
0
LINE
8
BLACK
6
CONTINUOUS
10
0.394397
20
1.25948
11
0.394685
21
1.25878
0
LINE
8
BLACK
6
CONTINUOUS
10
0.394685
20
1.25878
11
0.394685
21
0.849331
0
LINE
8
BLACK
6
CONTINUOUS
10
0.394685
20
0.849331
11
0.394397
21
0.848635
0
LINE
8
BLACK
6
CONTINUOUS
10
0.394397
20
0.848635
11
0.393701
21
0.848346
0
LINE
8
BLACK
6
CONTINUOUS
10
0.393701
20
0.848346
11
0.102362
21
0.848346
0
LINE
8
BLACK
6
CONTINUOUS
10
0.102362
20
0.848346
11
0.101666
21
0.848635
0
LINE
8
BLACK
6
CONTINUOUS
10
0.103346
20
1.2578
11
0.103346
21
0.850315
0
LINE
8
BLACK
6
CONTINUOUS
10
0.103346
20
0.850315
11
0.392717
21
0.850315
0
LINE
8
BLACK
6
CONTINUOUS
10
0.392717
20
0.850315
11
0.392717
21
1.2578
0
LINE
8
BLACK
6
CONTINUOUS
10
0.392717
20
1.2578
11
0.103346
21
1.2578
0
LINE
8
BLACK
6
CONTINUOUS
10
0.790643
20
0.957178
11
0.790354
21
0.957874
0
LINE
8
BLACK
6
CONTINUOUS
10
0.790354
20
0.957874
11
0.790354
21
1.3185
0
LINE
8
BLACK
6
CONTINUOUS
10
0.790354
20
1.3185
11
0.790643
21
1.3192
0
LINE
8
BLACK
6
CONTINUOUS
10
0.790643
20
1.3192
11
0.791339
21
1.31949
0
LINE
8
BLACK
6
CONTINUOUS
10
0.791339
20
1.31949
11
1.08268
21
1.31949
0
LINE
8
BLACK
6
CONTINUOUS
10
1.08268
20
1.31949
11
1.08337
21
1.3192
0
LINE
8
BLACK
6
CONTINUOUS
10
1.08337
20
1.3192
11
1.08366
21
1.3185
0
LINE
8
BLACK
6
CONTINUOUS
10
1.08366
20
1.3185
11
1.08366
21
0.957874
0
LINE
8
BLACK
6
CONTINUOUS
10
1.08366
20
0.957874
11
1.08337
21
0.957178
0
LINE
8
BLACK
6
CONTINUOUS
10
1.08337
20
0.957178
11
1.08268
21
0.95689
0
LINE
8
BLACK
6
CONTINUOUS
10
1.08268
20
0.95689
11
0.791339
21
0.95689
0
LINE
8
BLACK
6
CONTINUOUS
10
0.791339
20
0.95689
11
0.790643
21
0.957178
0
LINE
8
BLACK
6
CONTINUOUS
10
0.792323
20
1.31752
11
0.792323
21
0.958858
0
LINE
8
BLACK
6
CONTINUOUS
10
0.792323
20
0.958858
11
1.08169
21
0.958858
0
LINE
8
BLACK
6
CONTINUOUS
10
1.08169
20
0.958858
11
1.08169
21
1.31752
0
LINE
8
BLACK
6
CONTINUOUS
10
1.08169
20
1.31752
11
0.792323
21
1.31752
0
LINE
8
BLACK
6
CONTINUOUS
10
0.124658
20
1.27462
11
0.12437
21
1.27531
0
LINE
8
BLACK
6
CONTINUOUS
10
0.12437
20
1.27531
11
0.12437
21
1.3328
0
LINE
8
BLACK
6
CONTINUOUS
10
0.12437
20
1.3328
11
0.124658
21
1.33349
0
LINE
8
BLACK
6
CONTINUOUS
10
0.124658
20
1.33349
11
0.125354
21
1.33378
0
LINE
8
BLACK
6
CONTINUOUS
10
0.125354
20
1.33378
11
0.24189
21
1.33378
0
LINE
8
BLACK
6
CONTINUOUS
10
0.24189
20
1.33378
11
0.242586
21
1.33349
0
LINE
8
BLACK
6
CONTINUOUS
10
0.242586
20
1.33349
11
0.242874
21
1.3328
0
LINE
8
BLACK
6
CONTINUOUS
10
0.242874
20
1.3328
11
0.242874
21
1.27531
0
LINE
8
BLACK
6
CONTINUOUS
10
0.242874
20
1.27531
11
0.242586
21
1.27462
0
LINE
8
BLACK
6
CONTINUOUS
10
0.242586
20
1.27462
11
0.24189
21
1.27433
0
LINE
8
BLACK
6
CONTINUOUS
10
0.24189
20
1.27433
11
0.125354
21
1.27433
0
LINE
8
BLACK
6
CONTINUOUS
10
0.125354
20
1.27433
11
0.124658
21
1.27462
0
LINE
8
BLACK
6
CONTINUOUS
10
0.126339
20
1.33181
11
0.126339
21
1.2763
0
LINE
8
BLACK
6
CONTINUOUS
10
0.126339
20
1.2763
11
0.240906
21
1.2763
0
LINE
8
BLACK
6
CONTINUOUS
10
0.240906
20
1.2763
11
0.240906
21
1.33181
0
LINE
8
BLACK
6
CONTINUOUS
10
0.240906
20
1.33181
11
0.126339
21
1.33181
0
LINE
8
BLACK
6
CONTINUOUS
10
1.52825
20
1.83583
11
1.52825
21
1.77835
0
LINE
8
BLACK
6
CONTINUOUS
10
1.52825
20
1.77835
11
1.52796
21
1.77765
0
LINE
8
BLACK
6
CONTINUOUS
10
1.52796
20
1.77765
11
1.52726
21
1.77736
0
LINE
8
BLACK
6
CONTINUOUS
10
1.52726
20
1.77736
11
1.51835
21
1.77736
0
LINE
8
BLACK
6
CONTINUOUS
10
1.51835
20
1.77736
11
1.51835
21
1.50189
0
LINE
8
BLACK
6
CONTINUOUS
10
1.51835
20
1.50189
11
1.51806
21
1.50119
0
LINE
8
BLACK
6
CONTINUOUS
10
1.51806
20
1.50119
11
1.51736
21
1.50091
0
LINE
8
BLACK
6
CONTINUOUS
10
1.51736
20
1.50091
11
1.35988
21
1.50091
0
LINE
8
BLACK
6
CONTINUOUS
10
1.35988
20
1.50091
11
1.35919
21
1.50119
0
LINE
8
BLACK
6
CONTINUOUS
10
1.35919
20
1.50119
11
1.3589
21
1.50189
0
LINE
8
BLACK
6
CONTINUOUS
10
1.3589
20
1.50189
11
1.3589
21
1.59648
0
LINE
8
BLACK
6
CONTINUOUS
10
1.3589
20
1.59648
11
1.08314
21
1.32072
0
LINE
8
BLACK
6
CONTINUOUS
10
1.08314
20
1.32072
11
1.08244
21
1.32043
0
LINE
8
BLACK
6
CONTINUOUS
10
1.08244
20
1.32043
11
1.08175
21
1.32072
0
LINE
8
BLACK
6
CONTINUOUS
10
1.08175
20
1.32072
11
0.786655
21
1.61581
0
LINE
8
BLACK
6
CONTINUOUS
10
0.786655
20
1.61581
11
0.786366
21
1.61651
0
LINE
8
BLACK
6
CONTINUOUS
10
0.786366
20
1.61651
11
0.786655
21
1.6172
0
LINE
8
BLACK
6
CONTINUOUS
10
0.786655
20
1.6172
11
1.08175
21
1.91229
0
LINE
8
BLACK
6
CONTINUOUS
10
1.08175
20
1.91229
11
1.08244
21
1.91258
0
LINE
8
BLACK
6
CONTINUOUS
10
1.08244
20
1.91258
11
1.08314
21
1.91229
0
LINE
8
BLACK
6
CONTINUOUS
10
1.08314
20
1.91229
11
1.3589
21
1.63653
0
LINE
8
BLACK
6
CONTINUOUS
10
1.3589
20
1.63653
11
1.3589
21
1.77748
0
LINE
8
BLACK
6
CONTINUOUS
10
1.3589
20
1.77748
11
1.35919
21
1.77818
0
LINE
8
BLACK
6
CONTINUOUS
10
1.35919
20
1.77818
11
1.35988
21
1.77846
0
LINE
8
BLACK
6
CONTINUOUS
10
1.35988
20
1.77846
11
1.40974
21
1.77846
0
LINE
8
BLACK
6
CONTINUOUS
10
1.40974
20
1.77846
11
1.40974
21
1.83583
0
LINE
8
BLACK
6
CONTINUOUS
10
1.40974
20
1.83583
11
1.41003
21
1.83652
0
LINE
8
BLACK
6
CONTINUOUS
10
1.41003
20
1.83652
11
1.41073
21
1.83681
0
LINE
8
BLACK
6
CONTINUOUS
10
1.41073
20
1.83681
11
1.52726
21
1.83681
0
LINE
8
BLACK
6
CONTINUOUS
10
1.52726
20
1.83681
11
1.52796
21
1.83652
0
LINE
8
BLACK
6
CONTINUOUS
10
1.52796
20
1.83652
11
1.52825
21
1.83583
0
LINE
8
BLACK
6
CONTINUOUS
10
0.788743
20
1.61651
11
1.08244
21
1.32281
0
LINE
8
BLACK
6
CONTINUOUS
10
1.08244
20
1.32281
11
1.3589
21
1.59926
0
LINE
8
BLACK
6
CONTINUOUS
10
1.3589
20
1.59926
11
1.3589
21
1.63375
0
LINE
8
BLACK
6
CONTINUOUS
10
1.3589
20
1.63375
11
1.08244
21
1.91021
0
LINE
8
BLACK
6
CONTINUOUS
10
1.08244
20
1.91021
11
0.788743
21
1.61651
0
LINE
8
BLACK
6
CONTINUOUS
10
1.36087
20
1.7765
11
1.36087
21
1.63457
0
LINE
8
BLACK
6
CONTINUOUS
10
1.36087
20
1.63457
11
1.37823
21
1.6172
0
LINE
8
BLACK
6
CONTINUOUS
10
1.37823
20
1.6172
11
1.37852
21
1.61651
0
LINE
8
BLACK
6
CONTINUOUS
10
1.37852
20
1.61651
11
1.37823
21
1.61581
0
LINE
8
BLACK
6
CONTINUOUS
10
1.37823
20
1.61581
11
1.36087
21
1.59845
0
LINE
8
BLACK
6
CONTINUOUS
10
1.36087
20
1.59845
11
1.36087
21
1.50287
0
LINE
8
BLACK
6
CONTINUOUS
10
1.36087
20
1.50287
11
1.51638
21
1.50287
0
LINE
8
BLACK
6
CONTINUOUS
10
1.51638
20
1.50287
11
1.51638
21
1.7765
0
LINE
8
BLACK
6
CONTINUOUS
10
1.51638
20
1.7765
11
1.36087
21
1.7765
0
LINE
8
BLACK
6
CONTINUOUS
10
1.36087
20
1.60123
11
1.37614
21
1.61651
0
LINE
8
BLACK
6
CONTINUOUS
10
1.37614
20
1.61651
11
1.36087
21
1.63178
0
LINE
8
BLACK
6
CONTINUOUS
10
1.36087
20
1.63178
11
1.36087
21
1.60123
0
LINE
8
BLACK
6
CONTINUOUS
10
1.41171
20
1.83484
11
1.41171
21
1.77933
0
LINE
8
BLACK
6
CONTINUOUS
10
1.41171
20
1.77933
11
1.52628
21
1.77933
0
LINE
8
BLACK
6
CONTINUOUS
10
1.52628
20
1.77933
11
1.52628
21
1.83484
0
LINE
8
BLACK
6
CONTINUOUS
10
1.52628
20
1.83484
11
1.41171
21
1.83484
0
LINE
8
BLACK
6
CONTINUOUS
10
1.69694
20
1.50718
11
1.69665
21
1.50787
0
LINE
8
BLACK
6
CONTINUOUS
10
1.69665
20
1.50787
11
1.69665
21
1.90945
0
LINE
8
BLACK
6
CONTINUOUS
10
1.69665
20
1.90945
11
1.69694
21
1.91014
0
LINE
8
BLACK
6
CONTINUOUS
10
1.69694
20
1.91014
11
1.69764
21
1.91043
0
LINE
8
BLACK
6
CONTINUOUS
10
1.69764
20
1.91043
11
2.02953
21
1.91043
0
LINE
8
BLACK
6
CONTINUOUS
10
2.02953
20
1.91043
11
2.03022
21
1.91014
0
LINE
8
BLACK
6
CONTINUOUS
10
2.03022
20
1.91014
11
2.03051
21
1.90945
0
LINE
8
BLACK
6
CONTINUOUS
10
2.03051
20
1.90945
11
2.03051
21
1.50787
0
LINE
8
BLACK
6
CONTINUOUS
10
2.03051
20
1.50787
11
2.03022
21
1.50718
0
LINE
8
BLACK
6
CONTINUOUS
10
2.03022
20
1.50718
11
2.02953
21
1.50689
0
LINE
8
BLACK
6
CONTINUOUS
10
2.02953
20
1.50689
11
1.69764
21
1.50689
0
LINE
8
BLACK
6
CONTINUOUS
10
1.69764
20
1.50689
11
1.69694
21
1.50718
0
LINE
8
BLACK
6
CONTINUOUS
10
1.69862
20
1.90846
11
1.69862
21
1.50886
0
LINE
8
BLACK
6
CONTINUOUS
10
1.69862
20
1.50886
11
2.02854
21
1.50886
0
LINE
8
BLACK
6
CONTINUOUS
10
2.02854
20
1.50886
11
2.02854
21
1.90846
0
LINE
8
BLACK
6
CONTINUOUS
10
2.02854
20
1.90846
11
1.69862
21
1.90846
0
LINE
8
BLACK
6
CONTINUOUS
10
0.114186
20
1.53009
11
0.113898
21
1.53079
0
LINE
8
BLACK
6
CONTINUOUS
10
0.113898
20
1.53079
11
0.113898
21
1.64732
0
LINE
8
BLACK
6
CONTINUOUS
10
0.113898
20
1.64732
11
0.114186
21
1.64802
0
LINE
8
BLACK
6
CONTINUOUS
10
0.114186
20
1.64802
11
0.114882
21
1.64831
0
LINE
8
BLACK
6
CONTINUOUS
10
0.114882
20
1.64831
11
0.172362
21
1.64831
0
LINE
8
BLACK
6
CONTINUOUS
10
0.172362
20
1.64831
11
0.173058
21
1.64802
0
LINE
8
BLACK
6
CONTINUOUS
10
0.173058
20
1.64802
11
0.173346
21
1.64732
0
LINE
8
BLACK
6
CONTINUOUS
10
0.173346
20
1.64732
11
0.173346
21
1.53079
0
LINE
8
BLACK
6
CONTINUOUS
10
0.173346
20
1.53079
11
0.173058
21
1.53009
0
LINE
8
BLACK
6
CONTINUOUS
10
0.173058
20
1.53009
11
0.172362
21
1.5298
0
LINE
8
BLACK
6
CONTINUOUS
10
0.172362
20
1.5298
11
0.114882
21
1.5298
0
LINE
8
BLACK
6
CONTINUOUS
10
0.114882
20
1.5298
11
0.114186
21
1.53009
0
LINE
8
BLACK
6
CONTINUOUS
10
0.115866
20
1.64634
11
0.115866
21
1.53177
0
LINE
8
BLACK
6
CONTINUOUS
10
0.115866
20
1.53177
11
0.171378
21
1.53177
0
LINE
8
BLACK
6
CONTINUOUS
10
0.171378
20
1.53177
11
0.171378
21
1.64634
0
LINE
8
BLACK
6
CONTINUOUS
10
0.171378
20
1.64634
11
0.115866
21
1.64634
0
LINE
8
BLACK
6
CONTINUOUS
10
0.114658
20
1.65962
11
0.11437
21
1.66031
0
LINE
8
BLACK
6
CONTINUOUS
10
0.11437
20
1.66031
11
0.11437
21
1.7178
0
LINE
8
BLACK
6
CONTINUOUS
10
0.11437
20
1.7178
11
0.114658
21
1.71849
0
LINE
8
BLACK
6
CONTINUOUS
10
0.114658
20
1.71849
11
0.115354
21
1.71878
0
LINE
8
BLACK
6
CONTINUOUS
10
0.115354
20
1.71878
11
0.23189
21
1.71878
0
LINE
8
BLACK
6
CONTINUOUS
10
0.23189
20
1.71878
11
0.232586
21
1.71849
0
LINE
8
BLACK
6
CONTINUOUS
10
0.232586
20
1.71849
11
0.232874
21
1.7178
0
LINE
8
BLACK
6
CONTINUOUS
10
0.232874
20
1.7178
11
0.232874
21
1.66031
0
LINE
8
BLACK
6
CONTINUOUS
10
0.232874
20
1.66031
11
0.232586
21
1.65962
0
LINE
8
BLACK
6
CONTINUOUS
10
0.232586
20
1.65962
11
0.23189
21
1.65933
0
LINE
8
BLACK
6
CONTINUOUS
10
0.23189
20
1.65933
11
0.115354
21
1.65933
0
LINE
8
BLACK
6
CONTINUOUS
10
0.115354
20
1.65933
11
0.114658
21
1.65962
0
LINE
8
BLACK
6
CONTINUOUS
10
0.116339
20
1.71681
11
0.116339
21
1.6613
0
LINE
8
BLACK
6
CONTINUOUS
10
0.116339
20
1.6613
11
0.230906
21
1.6613
0
LINE
8
BLACK
6
CONTINUOUS
10
0.230906
20
1.6613
11
0.230906
21
1.71681
0
LINE
8
BLACK
6
CONTINUOUS
10
0.230906
20
1.71681
11
0.116339
21
1.71681
0
LINE
8
BLACK
6
CONTINUOUS
10
0.114816
20
1.73749
11
0.114528
21
1.73819
0
LINE
8
BLACK
6
CONTINUOUS
10
0.114528
20
1.73819
11
0.114528
21
1.87992
0
LINE
8
BLACK
6
CONTINUOUS
10
0.114528
20
1.87992
11
0.114816
21
1.88062
0
LINE
8
BLACK
6
CONTINUOUS
10
0.114816
20
1.88062
11
0.115512
21
1.88091
0
LINE
8
BLACK
6
CONTINUOUS
10
0.115512
20
1.88091
11
0.265118
21
1.88091
0
LINE
8
BLACK
6
CONTINUOUS
10
0.265118
20
1.88091
11
0.265814
21
1.88062
0
LINE
8
BLACK
6
CONTINUOUS
10
0.265814
20
1.88062
11
0.266102
21
1.87992
0
LINE
8
BLACK
6
CONTINUOUS
10
0.266102
20
1.87992
11
0.266102
21
1.73819
0
LINE
8
BLACK
6
CONTINUOUS
10
0.266102
20
1.73819
11
0.265814
21
1.73749
0
LINE
8
BLACK
6
CONTINUOUS
10
0.265814
20
1.73749
11
0.265118
21
1.7372
0
LINE
8
BLACK
6
CONTINUOUS
10
0.265118
20
1.7372
11
0.115512
21
1.7372
0
LINE
8
BLACK
6
CONTINUOUS
10
0.115512
20
1.7372
11
0.114816
21
1.73749
0
LINE
8
BLACK
6
CONTINUOUS
10
0.116496
20
1.87894
11
0.116496
21
1.73917
0
LINE
8
BLACK
6
CONTINUOUS
10
0.116496
20
1.73917
11
0.264134
21
1.73917
0
LINE
8
BLACK
6
CONTINUOUS
10
0.264134
20
1.73917
11
0.264134
21
1.87894
0
LINE
8
BLACK
6
CONTINUOUS
10
0.264134
20
1.87894
11
0.116496
21
1.87894
0
LINE
8
BLACK
6
CONTINUOUS
10
1.21466
20
1.78159
11
1.21437
21
1.78228
0
LINE
8
BLACK
6
CONTINUOUS
10
1.21437
20
1.78228
11
1.21437
21
1.83976
0
LINE
8
BLACK
6
CONTINUOUS
10
1.21437
20
1.83976
11
1.21466
21
1.84046
0
LINE
8
BLACK
6
CONTINUOUS
10
1.21466
20
1.84046
11
1.21535
21
1.84075
0
LINE
8
BLACK
6
CONTINUOUS
10
1.21535
20
1.84075
11
1.33189
21
1.84075
0
LINE
8
BLACK
6
CONTINUOUS
10
1.33189
20
1.84075
11
1.33259
21
1.84046
0
LINE
8
BLACK
6
CONTINUOUS
10
1.33259
20
1.84046
11
1.33287
21
1.83976
0
LINE
8
BLACK
6
CONTINUOUS
10
1.33287
20
1.83976
11
1.33287
21
1.78228
0
LINE
8
BLACK
6
CONTINUOUS
10
1.33287
20
1.78228
11
1.33259
21
1.78159
0
LINE
8
BLACK
6
CONTINUOUS
10
1.33259
20
1.78159
11
1.33189
21
1.7813
0
LINE
8
BLACK
6
CONTINUOUS
10
1.33189
20
1.7813
11
1.21535
21
1.7813
0
LINE
8
BLACK
6
CONTINUOUS
10
1.21535
20
1.7813
11
1.21466
21
1.78159
0
LINE
8
BLACK
6
CONTINUOUS
10
1.21634
20
1.83878
11
1.21634
21
1.78327
0
LINE
8
BLACK
6
CONTINUOUS
10
1.21634
20
1.78327
11
1.33091
21
1.78327
0
LINE
8
BLACK
6
CONTINUOUS
10
1.33091
20
1.78327
11
1.33091
21
1.83878
0
LINE
8
BLACK
6
CONTINUOUS
10
1.33091
20
1.83878
11
1.21634
21
1.83878
0
LINE
8
BLACK
6
CONTINUOUS
10
1.59655
20
1.79537
11
1.59626
21
1.79606
0
LINE
8
BLACK
6
CONTINUOUS
10
1.59626
20
1.79606
11
1.59626
21
1.9126
0
LINE
8
BLACK
6
CONTINUOUS
10
1.59626
20
1.9126
11
1.59655
21
1.91329
0
LINE
8
BLACK
6
CONTINUOUS
10
1.59655
20
1.91329
11
1.59724
21
1.91358
0
LINE
8
BLACK
6
CONTINUOUS
10
1.59724
20
1.91358
11
1.65472
21
1.91358
0
LINE
8
BLACK
6
CONTINUOUS
10
1.65472
20
1.91358
11
1.65542
21
1.91329
0
LINE
8
BLACK
6
CONTINUOUS
10
1.65542
20
1.91329
11
1.65571
21
1.9126
0
LINE
8
BLACK
6
CONTINUOUS
10
1.65571
20
1.9126
11
1.65571
21
1.79606
0
LINE
8
BLACK
6
CONTINUOUS
10
1.65571
20
1.79606
11
1.65542
21
1.79537
0
LINE
8
BLACK
6
CONTINUOUS
10
1.65542
20
1.79537
11
1.65472
21
1.79508
0
LINE
8
BLACK
6
CONTINUOUS
10
1.65472
20
1.79508
11
1.59724
21
1.79508
0
LINE
8
BLACK
6
CONTINUOUS
10
1.59724
20
1.79508
11
1.59655
21
1.79537
0
LINE
8
BLACK
6
CONTINUOUS
10
1.59823
20
1.91161
11
1.59823
21
1.79705
0
LINE
8
BLACK
6
CONTINUOUS
10
1.59823
20
1.79705
11
1.65374
21
1.79705
0
LINE
8
BLACK
6
CONTINUOUS
10
1.65374
20
1.79705
11
1.65374
21
1.91161
0
LINE
8
BLACK
6
CONTINUOUS
10
1.65374
20
1.91161
11
1.59823
21
1.91161
0
LINE
8
BLACK
6
CONTINUOUS
10
0.838162
20
1.83462
11
0.837874
21
1.83531
0
LINE
8
BLACK
6
CONTINUOUS
10
0.837874
20
1.83531
11
0.837874
21
1.8928
0
LINE
8
BLACK
6
CONTINUOUS
10
0.837874
20
1.8928
11
0.838162
21
1.89349
0
LINE
8
BLACK
6
CONTINUOUS
10
0.838162
20
1.89349
11
0.838858
21
1.89378
0
LINE
8
BLACK
6
CONTINUOUS
10
0.838858
20
1.89378
11
0.955394
21
1.89378
0
LINE
8
BLACK
6
CONTINUOUS
10
0.955394
20
1.89378
11
0.95609
21
1.89349
0
LINE
8
BLACK
6
CONTINUOUS
10
0.95609
20
1.89349
11
0.956378
21
1.8928
0
LINE
8
BLACK
6
CONTINUOUS
10
0.956378
20
1.8928
11
0.956378
21
1.83531
0
LINE
8
BLACK
6
CONTINUOUS
10
0.956378
20
1.83531
11
0.95609
21
1.83462
0
LINE
8
BLACK
6
CONTINUOUS
10
0.95609
20
1.83462
11
0.955394
21
1.83433
0
LINE
8
BLACK
6
CONTINUOUS
10
0.955394
20
1.83433
11
0.838858
21
1.83433
0
LINE
8
BLACK
6
CONTINUOUS
10
0.838858
20
1.83433
11
0.838162
21
1.83462
0
LINE
8
BLACK
6
CONTINUOUS
10
0.839843
20
1.89181
11
0.839843
21
1.8363
0
LINE
8
BLACK
6
CONTINUOUS
10
0.839843
20
1.8363
11
0.954409
21
1.8363
0
LINE
8
BLACK
6
CONTINUOUS
10
0.954409
20
1.8363
11
0.954409
21
1.89181
0
LINE
8
BLACK
6
CONTINUOUS
10
0.954409
20
1.89181
11
0.839843
21
1.89181
0
LINE
8
BLACK
6
CONTINUOUS
10
1.15678
20
1.84379
11
1.1565
21
1.84449
0
LINE
8
BLACK
6
CONTINUOUS
10
1.1565
20
1.84449
11
1.1565
21
2.2185
0
LINE
8
BLACK
6
CONTINUOUS
10
1.1565
20
2.2185
11
1.15678
21
2.2192
0
LINE
8
BLACK
6
CONTINUOUS
10
1.15678
20
2.2192
11
1.15748
21
2.21949
0
LINE
8
BLACK
6
CONTINUOUS
10
1.15748
20
2.21949
11
1.59055
21
2.21949
0
LINE
8
BLACK
6
CONTINUOUS
10
1.59055
20
2.21949
11
1.59125
21
2.2192
0
LINE
8
BLACK
6
CONTINUOUS
10
1.59125
20
2.2192
11
1.59154
21
2.2185
0
LINE
8
BLACK
6
CONTINUOUS
10
1.59154
20
2.2185
11
1.59154
21
1.84449
0
LINE
8
BLACK
6
CONTINUOUS
10
1.59154
20
1.84449
11
1.59125
21
1.84379
0
LINE
8
BLACK
6
CONTINUOUS
10
1.59125
20
1.84379
11
1.59055
21
1.8435
0
LINE
8
BLACK
6
CONTINUOUS
10
1.59055
20
1.8435
11
1.15748
21
1.8435
0
LINE
8
BLACK
6
CONTINUOUS
10
1.15748
20
1.8435
11
1.15678
21
1.84379
0
LINE
8
BLACK
6
CONTINUOUS
10
1.15846
20
2.21752
11
1.15846
21
1.84547
0
LINE
8
BLACK
6
CONTINUOUS
10
1.15846
20
1.84547
11
1.58957
21
1.84547
0
LINE
8
BLACK
6
CONTINUOUS
10
1.58957
20
1.84547
11
1.58957
21
2.21752
0
LINE
8
BLACK
6
CONTINUOUS
10
1.58957
20
2.21752
11
1.15846
21
2.21752
0
LINE
8
BLACK
6
CONTINUOUS
10
0.587158
20
1.85462
11
0.58687
21
1.85531
0
LINE
8
BLACK
6
CONTINUOUS
10
0.58687
20
1.85531
11
0.58687
21
1.9128
0
LINE
8
BLACK
6
CONTINUOUS
10
0.58687
20
1.9128
11
0.587158
21
1.91349
0
LINE
8
BLACK
6
CONTINUOUS
10
0.587158
20
1.91349
11
0.587854
21
1.91378
0
LINE
8
BLACK
6
CONTINUOUS
10
0.587854
20
1.91378
11
0.70439
21
1.91378
0
LINE
8
BLACK
6
CONTINUOUS
10
0.70439
20
1.91378
11
0.705086
21
1.91349
0
LINE
8
BLACK
6
CONTINUOUS
10
0.705086
20
1.91349
11
0.705374
21
1.9128
0
LINE
8
BLACK
6
CONTINUOUS
10
0.705374
20
1.9128
11
0.705374
21
1.85531
0
LINE
8
BLACK
6
CONTINUOUS
10
0.705374
20
1.85531
11
0.705086
21
1.85462
0
LINE
8
BLACK
6
CONTINUOUS
10
0.705086
20
1.85462
11
0.70439
21
1.85433
0
LINE
8
BLACK
6
CONTINUOUS
10
0.70439
20
1.85433
11
0.587854
21
1.85433
0
LINE
8
BLACK
6
CONTINUOUS
10
0.587854
20
1.85433
11
0.587158
21
1.85462
0
LINE
8
BLACK
6
CONTINUOUS
10
0.588839
20
1.91181
11
0.588839
21
1.8563
0
LINE
8
BLACK
6
CONTINUOUS
10
0.588839
20
1.8563
11
0.703406
21
1.8563
0
LINE
8
BLACK
6
CONTINUOUS
10
0.703406
20
1.8563
11
0.703406
21
1.91181
0
LINE
8
BLACK
6
CONTINUOUS
10
0.703406
20
1.91181
11
0.588839
21
1.91181
0
LINE
8
BLACK
6
CONTINUOUS
10
0.192611
20
1.91269
11
0.192323
21
1.91339
0
LINE
8
BLACK
6
CONTINUOUS
10
0.192323
20
1.91339
11
0.192323
21
2.20472
0
LINE
8
BLACK
6
CONTINUOUS
10
0.192323
20
2.20472
11
0.192611
21
2.20542
0
LINE
8
BLACK
6
CONTINUOUS
10
0.192611
20
2.20542
11
0.193307
21
2.20571
0
LINE
8
BLACK
6
CONTINUOUS
10
0.193307
20
2.20571
11
0.553937
21
2.20571
0
LINE
8
BLACK
6
CONTINUOUS
10
0.553937
20
2.20571
11
0.554633
21
2.20542
0
LINE
8
BLACK
6
CONTINUOUS
10
0.554633
20
2.20542
11
0.554921
21
2.20472
0
LINE
8
BLACK
6
CONTINUOUS
10
0.554921
20
2.20472
11
0.554921
21
1.91339
0
LINE
8
BLACK
6
CONTINUOUS
10
0.554921
20
1.91339
11
0.554633
21
1.91269
0
LINE
8
BLACK
6
CONTINUOUS
10
0.554633
20
1.91269
11
0.553937
21
1.9124
0
LINE
8
BLACK
6
CONTINUOUS
10
0.553937
20
1.9124
11
0.193307
21
1.9124
0
LINE
8
BLACK
6
CONTINUOUS
10
0.193307
20
1.9124
11
0.192611
21
1.91269
0
LINE
8
BLACK
6
CONTINUOUS
10
0.194291
20
2.20374
11
0.194291
21
1.91437
0
LINE
8
BLACK
6
CONTINUOUS
10
0.194291
20
1.91437
11
0.552953
21
1.91437
0
LINE
8
BLACK
6
CONTINUOUS
10
0.552953
20
1.91437
11
0.552953
21
2.20374
0
LINE
8
BLACK
6
CONTINUOUS
10
0.552953
20
2.20374
11
0.194291
21
2.20374
0
LINE
8
BLACK
6
CONTINUOUS
10
0.662611
20
1.91525
11
0.662323
21
1.91594
0
LINE
8
BLACK
6
CONTINUOUS
10
0.662323
20
1.91594
11
0.662323
21
2.20728
0
LINE
8
BLACK
6
CONTINUOUS
10
0.662323
20
2.20728
11
0.662611
21
2.20798
0
LINE
8
BLACK
6
CONTINUOUS
10
0.662611
20
2.20798
11
0.663307
21
2.20827
0
LINE
8
BLACK
6
CONTINUOUS
10
0.663307
20
2.20827
11
1.02394
21
2.20827
0
LINE
8
BLACK
6
CONTINUOUS
10
1.02394
20
2.20827
11
1.02463
21
2.20798
0
LINE
8
BLACK
6
CONTINUOUS
10
1.02463
20
2.20798
11
1.02492
21
2.20728
0
LINE
8
BLACK
6
CONTINUOUS
10
1.02492
20
2.20728
11
1.02492
21
1.91594
0
LINE
8
BLACK
6
CONTINUOUS
10
1.02492
20
1.91594
11
1.02463
21
1.91525
0
LINE
8
BLACK
6
CONTINUOUS
10
1.02463
20
1.91525
11
1.02394
21
1.91496
0
LINE
8
BLACK
6
CONTINUOUS
10
1.02394
20
1.91496
11
0.663307
21
1.91496
0
LINE
8
BLACK
6
CONTINUOUS
10
0.663307
20
1.91496
11
0.662611
21
1.91525
0
LINE
8
BLACK
6
CONTINUOUS
10
0.664291
20
2.2063
11
0.664291
21
1.91693
0
LINE
8
BLACK
6
CONTINUOUS
10
0.664291
20
1.91693
11
1.02295
21
1.91693
0
LINE
8
BLACK
6
CONTINUOUS
10
1.02295
20
1.91693
11
1.02295
21
2.2063
0
LINE
8
BLACK
6
CONTINUOUS
10
1.02295
20
2.2063
11
0.664291
21
2.2063
0
LINE
8
BLACK
6
CONTINUOUS
10
0.584186
20
1.93009
11
0.583898
21
1.93079
0
LINE
8
BLACK
6
CONTINUOUS
10
0.583898
20
1.93079
11
0.583898
21
2.04732
0
LINE
8
BLACK
6
CONTINUOUS
10
0.583898
20
2.04732
11
0.584186
21
2.04802
0
LINE
8
BLACK
6
CONTINUOUS
10
0.584186
20
2.04802
11
0.584882
21
2.04831
0
LINE
8
BLACK
6
CONTINUOUS
10
0.584882
20
2.04831
11
0.642362
21
2.04831
0
LINE
8
BLACK
6
CONTINUOUS
10
0.642362
20
2.04831
11
0.643058
21
2.04802
0
LINE
8
BLACK
6
CONTINUOUS
10
0.643058
20
2.04802
11
0.643346
21
2.04732
0
LINE
8
BLACK
6
CONTINUOUS
10
0.643346
20
2.04732
11
0.643346
21
1.93079
0
LINE
8
BLACK
6
CONTINUOUS
10
0.643346
20
1.93079
11
0.643058
21
1.93009
0
LINE
8
BLACK
6
CONTINUOUS
10
0.643058
20
1.93009
11
0.642362
21
1.9298
0
LINE
8
BLACK
6
CONTINUOUS
10
0.642362
20
1.9298
11
0.584882
21
1.9298
0
LINE
8
BLACK
6
CONTINUOUS
10
0.584882
20
1.9298
11
0.584186
21
1.93009
0
LINE
8
BLACK
6
CONTINUOUS
10
0.585866
20
2.04634
11
0.585866
21
1.93177
0
LINE
8
BLACK
6
CONTINUOUS
10
0.585866
20
1.93177
11
0.641378
21
1.93177
0
LINE
8
BLACK
6
CONTINUOUS
10
0.641378
20
1.93177
11
0.641378
21
2.04634
0
LINE
8
BLACK
6
CONTINUOUS
10
0.641378
20
2.04634
11
0.585866
21
2.04634
0
LINE
8
BLACK
6
CONTINUOUS
10
1.59576
20
1.95442
11
1.59547
21
1.95512
0
LINE
8
BLACK
6
CONTINUOUS
10
1.59547
20
1.95512
11
1.59547
21
2.04331
0
LINE
8
BLACK
6
CONTINUOUS
10
1.59547
20
2.04331
11
1.59576
21
2.044
0
LINE
8
BLACK
6
CONTINUOUS
10
1.59576
20
2.044
11
1.59646
21
2.04429
0
LINE
8
BLACK
6
CONTINUOUS
10
1.59646
20
2.04429
11
1.77598
21
2.04429
0
LINE
8
BLACK
6
CONTINUOUS
10
1.77598
20
2.04429
11
1.77668
21
2.044
0
LINE
8
BLACK
6
CONTINUOUS
10
1.77668
20
2.044
11
1.77697
21
2.04331
0
LINE
8
BLACK
6
CONTINUOUS
10
1.77697
20
2.04331
11
1.77697
21
1.95512
0
LINE
8
BLACK
6
CONTINUOUS
10
1.77697
20
1.95512
11
1.77668
21
1.95442
0
LINE
8
BLACK
6
CONTINUOUS
10
1.77668
20
1.95442
11
1.77598
21
1.95413
0
LINE
8
BLACK
6
CONTINUOUS
10
1.77598
20
1.95413
11
1.59646
21
1.95413
0
LINE
8
BLACK
6
CONTINUOUS
10
1.59646
20
1.95413
11
1.59576
21
1.95442
0
LINE
8
BLACK
6
CONTINUOUS
10
1.59744
20
2.04232
11
1.59744
21
1.9561
0
LINE
8
BLACK
6
CONTINUOUS
10
1.59744
20
1.9561
11
1.775
21
1.9561
0
LINE
8
BLACK
6
CONTINUOUS
10
1.775
20
1.9561
11
1.775
21
2.04232
0
LINE
8
BLACK
6
CONTINUOUS
10
1.775
20
2.04232
11
1.59744
21
2.04232
0
LINE
8
BLACK
6
CONTINUOUS
10
1.79143
20
1.95521
11
1.79114
21
1.95591
0
LINE
8
BLACK
6
CONTINUOUS
10
1.79114
20
1.95591
11
1.79114
21
2.09764
0
LINE
8
BLACK
6
CONTINUOUS
10
1.79114
20
2.09764
11
1.79143
21
2.09833
0
LINE
8
BLACK
6
CONTINUOUS
10
1.79143
20
2.09833
11
1.79213
21
2.09862
0
LINE
8
BLACK
6
CONTINUOUS
10
1.79213
20
2.09862
11
1.94173
21
2.09862
0
LINE
8
BLACK
6
CONTINUOUS
10
1.94173
20
2.09862
11
1.94243
21
2.09833
0
LINE
8
BLACK
6
CONTINUOUS
10
1.94243
20
2.09833
11
1.94272
21
2.09764
0
LINE
8
BLACK
6
CONTINUOUS
10
1.94272
20
2.09764
11
1.94272
21
1.95591
0
LINE
8
BLACK
6
CONTINUOUS
10
1.94272
20
1.95591
11
1.94243
21
1.95521
0
LINE
8
BLACK
6
CONTINUOUS
10
1.94243
20
1.95521
11
1.94173
21
1.95492
0
LINE
8
BLACK
6
CONTINUOUS
10
1.94173
20
1.95492
11
1.79213
21
1.95492
0
LINE
8
BLACK
6
CONTINUOUS
10
1.79213
20
1.95492
11
1.79143
21
1.95521
0
LINE
8
BLACK
6
CONTINUOUS
10
1.79311
20
2.09665
11
1.79311
21
1.95689
0
LINE
8
BLACK
6
CONTINUOUS
10
1.79311
20
1.95689
11
1.94075
21
1.95689
0
LINE
8
BLACK
6
CONTINUOUS
10
1.94075
20
1.95689
11
1.94075
21
2.09665
0
LINE
8
BLACK
6
CONTINUOUS
10
1.94075
20
2.09665
11
1.79311
21
2.09665
0
LINE
8
BLACK
6
CONTINUOUS
10
0.114186
20
2.00009
11
0.113898
21
2.00079
0
LINE
8
BLACK
6
CONTINUOUS
10
0.113898
20
2.00079
11
0.113898
21
2.11732
0
LINE
8
BLACK
6
CONTINUOUS
10
0.113898
20
2.11732
11
0.114186
21
2.11802
0
LINE
8
BLACK
6
CONTINUOUS
10
0.114186
20
2.11802
11
0.114882
21
2.11831
0
LINE
8
BLACK
6
CONTINUOUS
10
0.114882
20
2.11831
11
0.172362
21
2.11831
0
LINE
8
BLACK
6
CONTINUOUS
10
0.172362
20
2.11831
11
0.173058
21
2.11802
0
LINE
8
BLACK
6
CONTINUOUS
10
0.173058
20
2.11802
11
0.173346
21
2.11732
0
LINE
8
BLACK
6
CONTINUOUS
10
0.173346
20
2.11732
11
0.173346
21
2.00079
0
LINE
8
BLACK
6
CONTINUOUS
10
0.173346
20
2.00079
11
0.173058
21
2.00009
0
LINE
8
BLACK
6
CONTINUOUS
10
0.173058
20
2.00009
11
0.172362
21
1.9998
0
LINE
8
BLACK
6
CONTINUOUS
10
0.172362
20
1.9998
11
0.114882
21
1.9998
0
LINE
8
BLACK
6
CONTINUOUS
10
0.114882
20
1.9998
11
0.114186
21
2.00009
0
LINE
8
BLACK
6
CONTINUOUS
10
0.115866
20
2.11634
11
0.115866
21
2.00177
0
LINE
8
BLACK
6
CONTINUOUS
10
0.115866
20
2.00177
11
0.171378
21
2.00177
0
LINE
8
BLACK
6
CONTINUOUS
10
0.171378
20
2.00177
11
0.171378
21
2.11634
0
LINE
8
BLACK
6
CONTINUOUS
10
0.171378
20
2.11634
11
0.115866
21
2.11634
0
LINE
8
BLACK
6
CONTINUOUS
10
0.584186
20
2.07009
11
0.583898
21
2.07079
0
LINE
8
BLACK
6
CONTINUOUS
10
0.583898
20
2.07079
11
0.583898
21
2.18732
0
LINE
8
BLACK
6
CONTINUOUS
10
0.583898
20
2.18732
11
0.584186
21
2.18802
0
LINE
8
BLACK
6
CONTINUOUS
10
0.584186
20
2.18802
11
0.584882
21
2.18831
0
LINE
8
BLACK
6
CONTINUOUS
10
0.584882
20
2.18831
11
0.642362
21
2.18831
0
LINE
8
BLACK
6
CONTINUOUS
10
0.642362
20
2.18831
11
0.643058
21
2.18802
0
LINE
8
BLACK
6
CONTINUOUS
10
0.643058
20
2.18802
11
0.643346
21
2.18732
0
LINE
8
BLACK
6
CONTINUOUS
10
0.643346
20
2.18732
11
0.643346
21
2.07079
0
LINE
8
BLACK
6
CONTINUOUS
10
0.643346
20
2.07079
11
0.643058
21
2.07009
0
LINE
8
BLACK
6
CONTINUOUS
10
0.643058
20
2.07009
11
0.642362
21
2.0698
0
LINE
8
BLACK
6
CONTINUOUS
10
0.642362
20
2.0698
11
0.584882
21
2.0698
0
LINE
8
BLACK
6
CONTINUOUS
10
0.584882
20
2.0698
11
0.584186
21
2.07009
0
LINE
8
BLACK
6
CONTINUOUS
10
0.585866
20
2.18634
11
0.585866
21
2.07177
0
LINE
8
BLACK
6
CONTINUOUS
10
0.585866
20
2.07177
11
0.641378
21
2.07177
0
LINE
8
BLACK
6
CONTINUOUS
10
0.641378
20
2.07177
11
0.641378
21
2.18634
0
LINE
8
BLACK
6
CONTINUOUS
10
0.641378
20
2.18634
11
0.585866
21
2.18634
0
LINE
8
BLACK
6
CONTINUOUS
10
1.03669
20
2.08759
11
1.0364
21
2.08829
0
LINE
8
BLACK
6
CONTINUOUS
10
1.0364
20
2.08829
11
1.0364
21
2.20482
0
LINE
8
BLACK
6
CONTINUOUS
10
1.0364
20
2.20482
11
1.03669
21
2.20552
0
LINE
8
BLACK
6
CONTINUOUS
10
1.03669
20
2.20552
11
1.03738
21
2.20581
0
LINE
8
BLACK
6
CONTINUOUS
10
1.03738
20
2.20581
11
1.09486
21
2.20581
0
LINE
8
BLACK
6
CONTINUOUS
10
1.09486
20
2.20581
11
1.09556
21
2.20552
0
LINE
8
BLACK
6
CONTINUOUS
10
1.09556
20
2.20552
11
1.09585
21
2.20482
0
LINE
8
BLACK
6
CONTINUOUS
10
1.09585
20
2.20482
11
1.09585
21
2.08829
0
LINE
8
BLACK
6
CONTINUOUS
10
1.09585
20
2.08829
11
1.09556
21
2.08759
0
LINE
8
BLACK
6
CONTINUOUS
10
1.09556
20
2.08759
11
1.09486
21
2.0873
0
LINE
8
BLACK
6
CONTINUOUS
10
1.09486
20
2.0873
11
1.03738
21
2.0873
0
LINE
8
BLACK
6
CONTINUOUS
10
1.03738
20
2.0873
11
1.03669
21
2.08759
0
LINE
8
BLACK
6
CONTINUOUS
10
1.03837
20
2.20384
11
1.03837
21
2.08927
0
LINE
8
BLACK
6
CONTINUOUS
10
1.03837
20
2.08927
11
1.09388
21
2.08927
0
LINE
8
BLACK
6
CONTINUOUS
10
1.09388
20
2.08927
11
1.09388
21
2.20384
0
LINE
8
BLACK
6
CONTINUOUS
10
1.09388
20
2.20384
11
1.03837
21
2.20384
0
LINE
8
BLACK
6
CONTINUOUS
10
1.71466
20
2.09458
11
1.71437
21
2.09528
0
LINE
8
BLACK
6
CONTINUOUS
10
1.71437
20
2.09528
11
1.71437
21
2.21181
0
LINE
8
BLACK
6
CONTINUOUS
10
1.71437
20
2.21181
11
1.71466
21
2.21251
0
LINE
8
BLACK
6
CONTINUOUS
10
1.71466
20
2.21251
11
1.71535
21
2.2128
0
LINE
8
BLACK
6
CONTINUOUS
10
1.71535
20
2.2128
11
1.77283
21
2.2128
0
LINE
8
BLACK
6
CONTINUOUS
10
1.77283
20
2.2128
11
1.77353
21
2.21251
0
LINE
8
BLACK
6
CONTINUOUS
10
1.77353
20
2.21251
11
1.77382
21
2.21181
0
LINE
8
BLACK
6
CONTINUOUS
10
1.77382
20
2.21181
11
1.77382
21
2.09528
0
LINE
8
BLACK
6
CONTINUOUS
10
1.77382
20
2.09528
11
1.77353
21
2.09458
0
LINE
8
BLACK
6
CONTINUOUS
10
1.77353
20
2.09458
11
1.77283
21
2.09429
0
LINE
8
BLACK
6
CONTINUOUS
10
1.77283
20
2.09429
11
1.71535
21
2.09429
0
LINE
8
BLACK
6
CONTINUOUS
10
1.71535
20
2.09429
11
1.71466
21
2.09458
0
LINE
8
BLACK
6
CONTINUOUS
10
1.71634
20
2.21083
11
1.71634
21
2.09626
0
LINE
8
BLACK
6
CONTINUOUS
10
1.71634
20
2.09626
11
1.77185
21
2.09626
0
LINE
8
BLACK
6
CONTINUOUS
10
1.77185
20
2.09626
11
1.77185
21
2.21083
0
LINE
8
BLACK
6
CONTINUOUS
10
1.77185
20
2.21083
11
1.71634
21
2.21083
0
LINE
8
BLACK
6
CONTINUOUS
10
1.79965
20
2.10662
11
1.79937
21
2.10731
0
LINE
8
BLACK
6
CONTINUOUS
10
1.79937
20
2.10731
11
1.79937
21
2.1648
0
LINE
8
BLACK
6
CONTINUOUS
10
1.79937
20
2.1648
11
1.79965
21
2.16549
0
LINE
8
BLACK
6
CONTINUOUS
10
1.79965
20
2.16549
11
1.80035
21
2.16578
0
LINE
8
BLACK
6
CONTINUOUS
10
1.80035
20
2.16578
11
1.91689
21
2.16578
0
LINE
8
BLACK
6
CONTINUOUS
10
1.91689
20
2.16578
11
1.91758
21
2.16549
0
LINE
8
BLACK
6
CONTINUOUS
10
1.91758
20
2.16549
11
1.91787
21
2.1648
0
LINE
8
BLACK
6
CONTINUOUS
10
1.91787
20
2.1648
11
1.91787
21
2.10731
0
LINE
8
BLACK
6
CONTINUOUS
10
1.91787
20
2.10731
11
1.91758
21
2.10662
0
LINE
8
BLACK
6
CONTINUOUS
10
1.91758
20
2.10662
11
1.91689
21
2.10633
0
LINE
8
BLACK
6
CONTINUOUS
10
1.91689
20
2.10633
11
1.80035
21
2.10633
0
LINE
8
BLACK
6
CONTINUOUS
10
1.80035
20
2.10633
11
1.79965
21
2.10662
0
LINE
8
BLACK
6
CONTINUOUS
10
1.80133
20
2.16381
11
1.80133
21
2.1083
0
LINE
8
BLACK
6
CONTINUOUS
10
1.80133
20
2.1083
11
1.9159
21
2.1083
0
LINE
8
BLACK
6
CONTINUOUS
10
1.9159
20
2.1083
11
1.9159
21
2.16381
0
LINE
8
BLACK
6
CONTINUOUS
10
1.9159
20
2.16381
11
1.80133
21
2.16381
0
LINE
8
BLACK
6
CONTINUOUS
10
1.85954
20
2.17844
11
1.85925
21
2.17913
0
LINE
8
BLACK
6
CONTINUOUS
10
1.85925
20
2.17913
11
1.85925
21
2.27756
0
LINE
8
BLACK
6
CONTINUOUS
10
1.85925
20
2.27756
11
1.85954
21
2.27826
0
LINE
8
BLACK
6
CONTINUOUS
10
1.85954
20
2.27826
11
1.86012
21
2.27849
0
LINE
8
BLACK
6
CONTINUOUS
10
1.86012
20
2.27849
11
1.85954
21
2.27873
0
LINE
8
BLACK
6
CONTINUOUS
10
1.85954
20
2.27873
11
1.85925
21
2.27943
0
LINE
8
BLACK
6
CONTINUOUS
10
1.85925
20
2.27943
11
1.85925
21
2.37785
0
LINE
8
BLACK
6
CONTINUOUS
10
1.85925
20
2.37785
11
1.85954
21
2.37855
0
LINE
8
BLACK
6
CONTINUOUS
10
1.85954
20
2.37855
11
1.86012
21
2.37879
0
LINE
8
BLACK
6
CONTINUOUS
10
1.86012
20
2.37879
11
1.85954
21
2.37903
0
LINE
8
BLACK
6
CONTINUOUS
10
1.85954
20
2.37903
11
1.85925
21
2.37972
0
LINE
8
BLACK
6
CONTINUOUS
10
1.85925
20
2.37972
11
1.85925
21
2.47815
0
LINE
8
BLACK
6
CONTINUOUS
10
1.85925
20
2.47815
11
1.85954
21
2.47885
0
LINE
8
BLACK
6
CONTINUOUS
10
1.85954
20
2.47885
11
1.86012
21
2.47908
0
LINE
8
BLACK
6
CONTINUOUS
10
1.86012
20
2.47908
11
1.85954
21
2.47932
0
LINE
8
BLACK
6
CONTINUOUS
10
1.85954
20
2.47932
11
1.85925
21
2.48002
0
LINE
8
BLACK
6
CONTINUOUS
10
1.85925
20
2.48002
11
1.85925
21
2.57844
0
LINE
8
BLACK
6
CONTINUOUS
10
1.85925
20
2.57844
11
1.85954
21
2.57914
0
LINE
8
BLACK
6
CONTINUOUS
10
1.85954
20
2.57914
11
1.86012
21
2.57938
0
LINE
8
BLACK
6
CONTINUOUS
10
1.86012
20
2.57938
11
1.85954
21
2.57962
0
LINE
8
BLACK
6
CONTINUOUS
10
1.85954
20
2.57962
11
1.85925
21
2.58031
0
LINE
8
BLACK
6
CONTINUOUS
10
1.85925
20
2.58031
11
1.85925
21
2.67874
0
LINE
8
BLACK
6
CONTINUOUS
10
1.85925
20
2.67874
11
1.85954
21
2.67944
0
LINE
8
BLACK
6
CONTINUOUS
10
1.85954
20
2.67944
11
1.86024
21
2.67972
0
LINE
8
BLACK
6
CONTINUOUS
10
1.86024
20
2.67972
11
1.95866
21
2.67972
0
LINE
8
BLACK
6
CONTINUOUS
10
1.95866
20
2.67972
11
1.95936
21
2.67944
0
LINE
8
BLACK
6
CONTINUOUS
10
1.95936
20
2.67944
11
1.95965
21
2.67874
0
LINE
8
BLACK
6
CONTINUOUS
10
1.95965
20
2.67874
11
1.95965
21
2.58031
0
LINE
8
BLACK
6
CONTINUOUS
10
1.95965
20
2.58031
11
1.95936
21
2.57962
0
LINE
8
BLACK
6
CONTINUOUS
10
1.95936
20
2.57962
11
1.95878
21
2.57938
0
LINE
8
BLACK
6
CONTINUOUS
10
1.95878
20
2.57938
11
1.95936
21
2.57914
0
LINE
8
BLACK
6
CONTINUOUS
10
1.95936
20
2.57914
11
1.95965
21
2.57844
0
LINE
8
BLACK
6
CONTINUOUS
10
1.95965
20
2.57844
11
1.95965
21
2.48002
0
LINE
8
BLACK
6
CONTINUOUS
10
1.95965
20
2.48002
11
1.95936
21
2.47932
0
LINE
8
BLACK
6
CONTINUOUS
10
1.95936
20
2.47932
11
1.95878
21
2.47908
0
LINE
8
BLACK
6
CONTINUOUS
10
1.95878
20
2.47908
11
1.95936
21
2.47885
0
LINE
8
BLACK
6
CONTINUOUS
10
1.95936
20
2.47885
11
1.95965
21
2.47815
0
LINE
8
BLACK
6
CONTINUOUS
10
1.95965
20
2.47815
11
1.95965
21
2.37972
0
LINE
8
BLACK
6
CONTINUOUS
10
1.95965
20
2.37972
11
1.95936
21
2.37903
0
LINE
8
BLACK
6
CONTINUOUS
10
1.95936
20
2.37903
11
1.95878
21
2.37879
0
LINE
8
BLACK
6
CONTINUOUS
10
1.95878
20
2.37879
11
1.95936
21
2.37855
0
LINE
8
BLACK
6
CONTINUOUS
10
1.95936
20
2.37855
11
1.95965
21
2.37785
0
LINE
8
BLACK
6
CONTINUOUS
10
1.95965
20
2.37785
11
1.95965
21
2.27943
0
LINE
8
BLACK
6
CONTINUOUS
10
1.95965
20
2.27943
11
1.95936
21
2.27873
0
LINE
8
BLACK
6
CONTINUOUS
10
1.95936
20
2.27873
11
1.95878
21
2.27849
0
LINE
8
BLACK
6
CONTINUOUS
10
1.95878
20
2.27849
11
1.95936
21
2.27826
0
LINE
8
BLACK
6
CONTINUOUS
10
1.95936
20
2.27826
11
1.95965
21
2.27756
0
LINE
8
BLACK
6
CONTINUOUS
10
1.95965
20
2.27756
11
1.95965
21
2.17913
0
LINE
8
BLACK
6
CONTINUOUS
10
1.95965
20
2.17913
11
1.95936
21
2.17844
0
LINE
8
BLACK
6
CONTINUOUS
10
1.95936
20
2.17844
11
1.95866
21
2.17815
0
LINE
8
BLACK
6
CONTINUOUS
10
1.95866
20
2.17815
11
1.86024
21
2.17815
0
LINE
8
BLACK
6
CONTINUOUS
10
1.86024
20
2.17815
11
1.85954
21
2.17844
0
LINE
8
BLACK
6
CONTINUOUS
10
1.86122
20
2.27657
11
1.86122
21
2.18012
0
LINE
8
BLACK
6
CONTINUOUS
10
1.86122
20
2.18012
11
1.95768
21
2.18012
0
LINE
8
BLACK
6
CONTINUOUS
10
1.95768
20
2.18012
11
1.95768
21
2.27657
0
LINE
8
BLACK
6
CONTINUOUS
10
1.95768
20
2.27657
11
1.86122
21
2.27657
0
LINE
8
BLACK
6
CONTINUOUS
10
1.86122
20
2.37687
11
1.86122
21
2.28041
0
LINE
8
BLACK
6
CONTINUOUS
10
1.86122
20
2.28041
11
1.95768
21
2.28041
0
LINE
8
BLACK
6
CONTINUOUS
10
1.95768
20
2.28041
11
1.95768
21
2.37687
0
LINE
8
BLACK
6
CONTINUOUS
10
1.95768
20
2.37687
11
1.86122
21
2.37687
0
LINE
8
BLACK
6
CONTINUOUS
10
1.86122
20
2.47717
11
1.86122
21
2.38071
0
LINE
8
BLACK
6
CONTINUOUS
10
1.86122
20
2.38071
11
1.95768
21
2.38071
0
LINE
8
BLACK
6
CONTINUOUS
10
1.95768
20
2.38071
11
1.95768
21
2.47717
0
LINE
8
BLACK
6
CONTINUOUS
10
1.95768
20
2.47717
11
1.86122
21
2.47717
0
LINE
8
BLACK
6
CONTINUOUS
10
1.86122
20
2.57746
11
1.86122
21
2.481
0
LINE
8
BLACK
6
CONTINUOUS
10
1.86122
20
2.481
11
1.95768
21
2.481
0
LINE
8
BLACK
6
CONTINUOUS
10
1.95768
20
2.481
11
1.95768
21
2.57746
0
LINE
8
BLACK
6
CONTINUOUS
10
1.95768
20
2.57746
11
1.86122
21
2.57746
0
LINE
8
BLACK
6
CONTINUOUS
10
1.86122
20
2.67776
11
1.86122
21
2.5813
0
LINE
8
BLACK
6
CONTINUOUS
10
1.86122
20
2.5813
11
1.95768
21
2.5813
0
LINE
8
BLACK
6
CONTINUOUS
10
1.95768
20
2.5813
11
1.95768
21
2.67776
0
LINE
8
BLACK
6
CONTINUOUS
10
1.95768
20
2.67776
11
1.86122
21
2.67776
0
LINE
8
BLACK
6
CONTINUOUS
10
1.02962
20
2.30423
11
1.02933
21
2.30492
0
LINE
8
BLACK
6
CONTINUOUS
10
1.02933
20
2.30492
11
1.02933
21
2.42146
0
LINE
8
BLACK
6
CONTINUOUS
10
1.02933
20
2.42146
11
1.02962
21
2.42215
0
LINE
8
BLACK
6
CONTINUOUS
10
1.02962
20
2.42215
11
1.03031
21
2.42244
0
LINE
8
BLACK
6
CONTINUOUS
10
1.03031
20
2.42244
11
1.0878
21
2.42244
0
LINE
8
BLACK
6
CONTINUOUS
10
1.0878
20
2.42244
11
1.08849
21
2.42215
0
LINE
8
BLACK
6
CONTINUOUS
10
1.08849
20
2.42215
11
1.08878
21
2.42146
0
LINE
8
BLACK
6
CONTINUOUS
10
1.08878
20
2.42146
11
1.08878
21
2.30492
0
LINE
8
BLACK
6
CONTINUOUS
10
1.08878
20
2.30492
11
1.08849
21
2.30423
0
LINE
8
BLACK
6
CONTINUOUS
10
1.08849
20
2.30423
11
1.0878
21
2.30394
0
LINE
8
BLACK
6
CONTINUOUS
10
1.0878
20
2.30394
11
1.03031
21
2.30394
0
LINE
8
BLACK
6
CONTINUOUS
10
1.03031
20
2.30394
11
1.02962
21
2.30423
0
LINE
8
BLACK
6
CONTINUOUS
10
1.0313
20
2.42047
11
1.0313
21
2.30591
0
LINE
8
BLACK
6
CONTINUOUS
10
1.0313
20
2.30591
11
1.08681
21
2.30591
0
LINE
8
BLACK
6
CONTINUOUS
10
1.08681
20
2.30591
11
1.08681
21
2.42047
0
LINE
8
BLACK
6
CONTINUOUS
10
1.08681
20
2.42047
11
1.0313
21
2.42047
0
LINE
8
BLACK
6
CONTINUOUS
10
0.966627
20
2.30423
11
0.966339
21
2.30492
0
LINE
8
BLACK
6
CONTINUOUS
10
0.966339
20
2.30492
11
0.966339
21
2.42146
0
LINE
8
BLACK
6
CONTINUOUS
10
0.966339
20
2.42146
11
0.966627
21
2.42215
0
LINE
8
BLACK
6
CONTINUOUS
10
0.966627
20
2.42215
11
0.967323
21
2.42244
0
LINE
8
BLACK
6
CONTINUOUS
10
0.967323
20
2.42244
11
1.0248
21
2.42244
0
LINE
8
BLACK
6
CONTINUOUS
10
1.0248
20
2.42244
11
1.0255
21
2.42215
0
LINE
8
BLACK
6
CONTINUOUS
10
1.0255
20
2.42215
11
1.02579
21
2.42146
0
LINE
8
BLACK
6
CONTINUOUS
10
1.02579
20
2.42146
11
1.02579
21
2.30492
0
LINE
8
BLACK
6
CONTINUOUS
10
1.02579
20
2.30492
11
1.0255
21
2.30423
0
LINE
8
BLACK
6
CONTINUOUS
10
1.0255
20
2.30423
11
1.0248
21
2.30394
0
LINE
8
BLACK
6
CONTINUOUS
10
1.0248
20
2.30394
11
0.967323
21
2.30394
0
LINE
8
BLACK
6
CONTINUOUS
10
0.967323
20
2.30394
11
0.966627
21
2.30423
0
LINE
8
BLACK
6
CONTINUOUS
10
0.968307
20
2.42047
11
0.968307
21
2.30591
0
LINE
8
BLACK
6
CONTINUOUS
10
0.968307
20
2.30591
11
1.02382
21
2.30591
0
LINE
8
BLACK
6
CONTINUOUS
10
1.02382
20
2.30591
11
1.02382
21
2.42047
0
LINE
8
BLACK
6
CONTINUOUS
10
1.02382
20
2.42047
11
0.968307
21
2.42047
0
LINE
8
BLACK
6
CONTINUOUS
10
0.0878867
20
2.47962
11
0.0875984
21
2.48031
0
LINE
8
BLACK
6
CONTINUOUS
10
0.0875984
20
2.48031
11
0.0875984
21
2.57874
0
LINE
8
BLACK
6
CONTINUOUS
10
0.0875984
20
2.57874
11
0.0878867
21
2.57944
0
LINE
8
BLACK
6
CONTINUOUS
10
0.0878867
20
2.57944
11
0.0881074
21
2.57953
0
LINE
8
BLACK
6
CONTINUOUS
10
0.0881074
20
2.57953
11
0.0878867
21
2.57962
0
LINE
8
BLACK
6
CONTINUOUS
10
0.0878867
20
2.57962
11
0.0875984
21
2.58031
0
LINE
8
BLACK
6
CONTINUOUS
10
0.0875984
20
2.58031
11
0.0875984
21
2.67874
0
LINE
8
BLACK
6
CONTINUOUS
10
0.0875984
20
2.67874
11
0.0878867
21
2.67944
0
LINE
8
BLACK
6
CONTINUOUS
10
0.0878867
20
2.67944
11
0.0885827
21
2.67972
0
LINE
8
BLACK
6
CONTINUOUS
10
0.0885827
20
2.67972
11
0.187008
21
2.67972
0
LINE
8
BLACK
6
CONTINUOUS
10
0.187008
20
2.67972
11
0.187704
21
2.67944
0
LINE
8
BLACK
6
CONTINUOUS
10
0.187704
20
2.67944
11
0.187992
21
2.67874
0
LINE
8
BLACK
6
CONTINUOUS
10
0.187992
20
2.67874
11
0.187992
21
2.58031
0
LINE
8
BLACK
6
CONTINUOUS
10
0.187992
20
2.58031
11
0.187704
21
2.57962
0
LINE
8
BLACK
6
CONTINUOUS
10
0.187704
20
2.57962
11
0.187483
21
2.57953
0
LINE
8
BLACK
6
CONTINUOUS
10
0.187483
20
2.57953
11
0.187704
21
2.57944
0
LINE
8
BLACK
6
CONTINUOUS
10
0.187704
20
2.57944
11
0.187992
21
2.57874
0
LINE
8
BLACK
6
CONTINUOUS
10
0.187992
20
2.57874
11
0.187992
21
2.48031
0
LINE
8
BLACK
6
CONTINUOUS
10
0.187992
20
2.48031
11
0.187704
21
2.47962
0
LINE
8
BLACK
6
CONTINUOUS
10
0.187704
20
2.47962
11
0.187008
21
2.47933
0
LINE
8
BLACK
6
CONTINUOUS
10
0.187008
20
2.47933
11
0.0885827
21
2.47933
0
LINE
8
BLACK
6
CONTINUOUS
10
0.0885827
20
2.47933
11
0.0878867
21
2.47962
0
LINE
8
BLACK
6
CONTINUOUS
10
0.0895669
20
2.57776
11
0.0895669
21
2.4813
0
LINE
8
BLACK
6
CONTINUOUS
10
0.0895669
20
2.4813
11
0.186024
21
2.4813
0
LINE
8
BLACK
6
CONTINUOUS
10
0.186024
20
2.4813
11
0.186024
21
2.57776
0
LINE
8
BLACK
6
CONTINUOUS
10
0.186024
20
2.57776
11
0.0895669
21
2.57776
0
LINE
8
BLACK
6
CONTINUOUS
10
0.0895669
20
2.67776
11
0.0895669
21
2.5813
0
LINE
8
BLACK
6
CONTINUOUS
10
0.0895669
20
2.5813
11
0.186024
21
2.5813
0
LINE
8
BLACK
6
CONTINUOUS
10
0.186024
20
2.5813
11
0.186024
21
2.67776
0
LINE
8
BLACK
6
CONTINUOUS
10
0.186024
20
2.67776
11
0.0895669
21
2.67776
0
LINE
8
BLACK
6
CONTINUOUS
10
1.73419
20
2.78909
11
1.7339
21
2.78978
0
LINE
8
BLACK
6
CONTINUOUS
10
1.7339
20
2.78978
11
1.7339
21
2.90632
0
LINE
8
BLACK
6
CONTINUOUS
10
1.7339
20
2.90632
11
1.73419
21
2.90701
0
LINE
8
BLACK
6
CONTINUOUS
10
1.73419
20
2.90701
11
1.73488
21
2.9073
0
LINE
8
BLACK
6
CONTINUOUS
10
1.73488
20
2.9073
11
1.79236
21
2.9073
0
LINE
8
BLACK
6
CONTINUOUS
10
1.79236
20
2.9073
11
1.79306
21
2.90701
0
LINE
8
BLACK
6
CONTINUOUS
10
1.79306
20
2.90701
11
1.79335
21
2.90632
0
LINE
8
BLACK
6
CONTINUOUS
10
1.79335
20
2.90632
11
1.79335
21
2.78978
0
LINE
8
BLACK
6
CONTINUOUS
10
1.79335
20
2.78978
11
1.79306
21
2.78909
0
LINE
8
BLACK
6
CONTINUOUS
10
1.79306
20
2.78909
11
1.79236
21
2.7888
0
LINE
8
BLACK
6
CONTINUOUS
10
1.79236
20
2.7888
11
1.73488
21
2.7888
0
LINE
8
BLACK
6
CONTINUOUS
10
1.73488
20
2.7888
11
1.73419
21
2.78909
0
LINE
8
BLACK
6
CONTINUOUS
10
1.73587
20
2.90533
11
1.73587
21
2.79077
0
LINE
8
BLACK
6
CONTINUOUS
10
1.73587
20
2.79077
11
1.79138
21
2.79077
0
LINE
8
BLACK
6
CONTINUOUS
10
1.79138
20
2.79077
11
1.79138
21
2.90533
0
LINE
8
BLACK
6
CONTINUOUS
10
1.79138
20
2.90533
11
1.73587
21
2.90533
0
LINE
8
BLACK
6
CONTINUOUS
10
0.254186
20
2.80909
11
0.253898
21
2.80978
0
LINE
8
BLACK
6
CONTINUOUS
10
0.253898
20
2.80978
11
0.253898
21
2.92632
0
LINE
8
BLACK
6
CONTINUOUS
10
0.253898
20
2.92632
11
0.254186
21
2.92701
0
LINE
8
BLACK
6
CONTINUOUS
10
0.254186
20
2.92701
11
0.254882
21
2.9273
0
LINE
8
BLACK
6
CONTINUOUS
10
0.254882
20
2.9273
11
0.312362
21
2.9273
0
LINE
8
BLACK
6
CONTINUOUS
10
0.312362
20
2.9273
11
0.313058
21
2.92701
0
LINE
8
BLACK
6
CONTINUOUS
10
0.313058
20
2.92701
11
0.313346
21
2.92632
0
LINE
8
BLACK
6
CONTINUOUS
10
0.313346
20
2.92632
11
0.313346
21
2.80978
0
LINE
8
BLACK
6
CONTINUOUS
10
0.313346
20
2.80978
11
0.313058
21
2.80909
0
LINE
8
BLACK
6
CONTINUOUS
10
0.313058
20
2.80909
11
0.312362
21
2.8088
0
LINE
8
BLACK
6
CONTINUOUS
10
0.312362
20
2.8088
11
0.254882
21
2.8088
0
LINE
8
BLACK
6
CONTINUOUS
10
0.254882
20
2.8088
11
0.254186
21
2.80909
0
LINE
8
BLACK
6
CONTINUOUS
10
0.255866
20
2.92533
11
0.255866
21
2.81077
0
LINE
8
BLACK
6
CONTINUOUS
10
0.255866
20
2.81077
11
0.311378
21
2.81077
0
LINE
8
BLACK
6
CONTINUOUS
10
0.311378
20
2.81077
11
0.311378
21
2.92533
0
LINE
8
BLACK
6
CONTINUOUS
10
0.311378
20
2.92533
11
0.255866
21
2.92533
0
LINE
8
BLACK
6
CONTINUOUS
10
0.877257
20
2.84064
11
0.876969
21
2.84134
0
LINE
8
BLACK
6
CONTINUOUS
10
0.876969
20
2.84134
11
0.876969
21
3.20197
0
LINE
8
BLACK
6
CONTINUOUS
10
0.876969
20
3.20197
11
0.877257
21
3.20266
0
LINE
8
BLACK
6
CONTINUOUS
10
0.877257
20
3.20266
11
0.877953
21
3.20295
0
LINE
8
BLACK
6
CONTINUOUS
10
0.877953
20
3.20295
11
1.16929
21
3.20295
0
LINE
8
BLACK
6
CONTINUOUS
10
1.16929
20
3.20295
11
1.16999
21
3.20266
0
LINE
8
BLACK
6
CONTINUOUS
10
1.16999
20
3.20266
11
1.17028
21
3.20197
0
LINE
8
BLACK
6
CONTINUOUS
10
1.17028
20
3.20197
11
1.17028
21
2.84134
0
LINE
8
BLACK
6
CONTINUOUS
10
1.17028
20
2.84134
11
1.16999
21
2.84064
0
LINE
8
BLACK
6
CONTINUOUS
10
1.16999
20
2.84064
11
1.16929
21
2.84035
0
LINE
8
BLACK
6
CONTINUOUS
10
1.16929
20
2.84035
11
0.877953
21
2.84035
0
LINE
8
BLACK
6
CONTINUOUS
10
0.877953
20
2.84035
11
0.877257
21
2.84064
0
LINE
8
BLACK
6
CONTINUOUS
10
0.878937
20
3.20098
11
0.878937
21
2.84232
0
LINE
8
BLACK
6
CONTINUOUS
10
0.878937
20
2.84232
11
1.16831
21
2.84232
0
LINE
8
BLACK
6
CONTINUOUS
10
1.16831
20
2.84232
11
1.16831
21
3.20098
0
LINE
8
BLACK
6
CONTINUOUS
10
1.16831
20
3.20098
11
0.878937
21
3.20098
0
LINE
8
BLACK
6
CONTINUOUS
10
1.43537
20
2.87923
11
1.43508
21
2.87992
0
LINE
8
BLACK
6
CONTINUOUS
10
1.43508
20
2.87992
11
1.43508
21
3.00591
0
LINE
8
BLACK
6
CONTINUOUS
10
1.43508
20
3.00591
11
1.43537
21
3.0066
0
LINE
8
BLACK
6
CONTINUOUS
10
1.43537
20
3.0066
11
1.43606
21
3.00689
0
LINE
8
BLACK
6
CONTINUOUS
10
1.43606
20
3.00689
11
1.56598
21
3.00689
0
LINE
8
BLACK
6
CONTINUOUS
10
1.56598
20
3.00689
11
1.56668
21
3.0066
0
LINE
8
BLACK
6
CONTINUOUS
10
1.56668
20
3.0066
11
1.56697
21
3.00591
0
LINE
8
BLACK
6
CONTINUOUS
10
1.56697
20
3.00591
11
1.56697
21
2.87992
0
LINE
8
BLACK
6
CONTINUOUS
10
1.56697
20
2.87992
11
1.56668
21
2.87923
0
LINE
8
BLACK
6
CONTINUOUS
10
1.56668
20
2.87923
11
1.56598
21
2.87894
0
LINE
8
BLACK
6
CONTINUOUS
10
1.56598
20
2.87894
11
1.43606
21
2.87894
0
LINE
8
BLACK
6
CONTINUOUS
10
1.43606
20
2.87894
11
1.43537
21
2.87923
0
LINE
8
BLACK
6
CONTINUOUS
10
1.43705
20
3.00492
11
1.43705
21
2.88091
0
LINE
8
BLACK
6
CONTINUOUS
10
1.43705
20
2.88091
11
1.565
21
2.88091
0
LINE
8
BLACK
6
CONTINUOUS
10
1.565
20
2.88091
11
1.565
21
3.00492
0
LINE
8
BLACK
6
CONTINUOUS
10
1.565
20
3.00492
11
1.43705
21
3.00492
0
LINE
8
BLACK
6
CONTINUOUS
10
1.29966
20
2.87962
11
1.29937
21
2.88031
0
LINE
8
BLACK
6
CONTINUOUS
10
1.29937
20
2.88031
11
1.29937
21
2.9378
0
LINE
8
BLACK
6
CONTINUOUS
10
1.29937
20
2.9378
11
1.29966
21
2.93849
0
LINE
8
BLACK
6
CONTINUOUS
10
1.29966
20
2.93849
11
1.30035
21
2.93878
0
LINE
8
BLACK
6
CONTINUOUS
10
1.30035
20
2.93878
11
1.41689
21
2.93878
0
LINE
8
BLACK
6
CONTINUOUS
10
1.41689
20
2.93878
11
1.41759
21
2.93849
0
LINE
8
BLACK
6
CONTINUOUS
10
1.41759
20
2.93849
11
1.41787
21
2.9378
0
LINE
8
BLACK
6
CONTINUOUS
10
1.41787
20
2.9378
11
1.41787
21
2.88031
0
LINE
8
BLACK
6
CONTINUOUS
10
1.41787
20
2.88031
11
1.41759
21
2.87962
0
LINE
8
BLACK
6
CONTINUOUS
10
1.41759
20
2.87962
11
1.41689
21
2.87933
0
LINE
8
BLACK
6
CONTINUOUS
10
1.41689
20
2.87933
11
1.30035
21
2.87933
0
LINE
8
BLACK
6
CONTINUOUS
10
1.30035
20
2.87933
11
1.29966
21
2.87962
0
LINE
8
BLACK
6
CONTINUOUS
10
1.30134
20
2.93681
11
1.30134
21
2.8813
0
LINE
8
BLACK
6
CONTINUOUS
10
1.30134
20
2.8813
11
1.41591
21
2.8813
0
LINE
8
BLACK
6
CONTINUOUS
10
1.41591
20
2.8813
11
1.41591
21
2.93681
0
LINE
8
BLACK
6
CONTINUOUS
10
1.41591
20
2.93681
11
1.30134
21
2.93681
0
LINE
8
BLACK
6
CONTINUOUS
10
0.628654
20
2.87962
11
0.628366
21
2.88031
0
LINE
8
BLACK
6
CONTINUOUS
10
0.628366
20
2.88031
11
0.628366
21
2.9378
0
LINE
8
BLACK
6
CONTINUOUS
10
0.628366
20
2.9378
11
0.628654
21
2.93849
0
LINE
8
BLACK
6
CONTINUOUS
10
0.628654
20
2.93849
11
0.62935
21
2.93878
0
LINE
8
BLACK
6
CONTINUOUS
10
0.62935
20
2.93878
11
0.745886
21
2.93878
0
LINE
8
BLACK
6
CONTINUOUS
10
0.745886
20
2.93878
11
0.746582
21
2.93849
0
LINE
8
BLACK
6
CONTINUOUS
10
0.746582
20
2.93849
11
0.74687
21
2.9378
0
LINE
8
BLACK
6
CONTINUOUS
10
0.74687
20
2.9378
11
0.74687
21
2.88031
0
LINE
8
BLACK
6
CONTINUOUS
10
0.74687
20
2.88031
11
0.746582
21
2.87962
0
LINE
8
BLACK
6
CONTINUOUS
10
0.746582
20
2.87962
11
0.745886
21
2.87933
0
LINE
8
BLACK
6
CONTINUOUS
10
0.745886
20
2.87933
11
0.62935
21
2.87933
0
LINE
8
BLACK
6
CONTINUOUS
10
0.62935
20
2.87933
11
0.628654
21
2.87962
0
LINE
8
BLACK
6
CONTINUOUS
10
0.630335
20
2.93681
11
0.630335
21
2.8813
0
LINE
8
BLACK
6
CONTINUOUS
10
0.630335
20
2.8813
11
0.744902
21
2.8813
0
LINE
8
BLACK
6
CONTINUOUS
10
0.744902
20
2.8813
11
0.744902
21
2.93681
0
LINE
8
BLACK
6
CONTINUOUS
10
0.744902
20
2.93681
11
0.630335
21
2.93681
0
LINE
8
BLACK
6
CONTINUOUS
10
0.480564
20
2.87977
11
0.480276
21
2.88046
0
LINE
8
BLACK
6
CONTINUOUS
10
0.480276
20
2.88046
11
0.480276
21
3.00645
0
LINE
8
BLACK
6
CONTINUOUS
10
0.480276
20
3.00645
11
0.480564
21
3.00714
0
LINE
8
BLACK
6
CONTINUOUS
10
0.480564
20
3.00714
11
0.48126
21
3.00743
0
LINE
8
BLACK
6
CONTINUOUS
10
0.48126
20
3.00743
11
0.611181
21
3.00743
0
LINE
8
BLACK
6
CONTINUOUS
10
0.611181
20
3.00743
11
0.611877
21
3.00714
0
LINE
8
BLACK
6
CONTINUOUS
10
0.611877
20
3.00714
11
0.612165
21
3.00645
0
LINE
8
BLACK
6
CONTINUOUS
10
0.612165
20
3.00645
11
0.612165
21
2.88046
0
LINE
8
BLACK
6
CONTINUOUS
10
0.612165
20
2.88046
11
0.611877
21
2.87977
0
LINE
8
BLACK
6
CONTINUOUS
10
0.611877
20
2.87977
11
0.611181
21
2.87948
0
LINE
8
BLACK
6
CONTINUOUS
10
0.611181
20
2.87948
11
0.48126
21
2.87948
0
LINE
8
BLACK
6
CONTINUOUS
10
0.48126
20
2.87948
11
0.480564
21
2.87977
0
LINE
8
BLACK
6
CONTINUOUS
10
0.482244
20
3.00546
11
0.482244
21
2.88145
0
LINE
8
BLACK
6
CONTINUOUS
10
0.482244
20
2.88145
11
0.610197
21
2.88145
0
LINE
8
BLACK
6
CONTINUOUS
10
0.610197
20
2.88145
11
0.610197
21
3.00546
0
LINE
8
BLACK
6
CONTINUOUS
10
0.610197
20
3.00546
11
0.482244
21
3.00546
0
LINE
8
BLACK
6
CONTINUOUS
10
1.58419
20
2.88009
11
1.5839
21
2.88079
0
LINE
8
BLACK
6
CONTINUOUS
10
1.5839
20
2.88079
11
1.5839
21
2.99732
0
LINE
8
BLACK
6
CONTINUOUS
10
1.5839
20
2.99732
11
1.58419
21
2.99802
0
LINE
8
BLACK
6
CONTINUOUS
10
1.58419
20
2.99802
11
1.58488
21
2.99831
0
LINE
8
BLACK
6
CONTINUOUS
10
1.58488
20
2.99831
11
1.64236
21
2.99831
0
LINE
8
BLACK
6
CONTINUOUS
10
1.64236
20
2.99831
11
1.64306
21
2.99802
0
LINE
8
BLACK
6
CONTINUOUS
10
1.64306
20
2.99802
11
1.64335
21
2.99732
0
LINE
8
BLACK
6
CONTINUOUS
10
1.64335
20
2.99732
11
1.64335
21
2.88079
0
LINE
8
BLACK
6
CONTINUOUS
10
1.64335
20
2.88079
11
1.64306
21
2.88009
0
LINE
8
BLACK
6
CONTINUOUS
10
1.64306
20
2.88009
11
1.64236
21
2.8798
0
LINE
8
BLACK
6
CONTINUOUS
10
1.64236
20
2.8798
11
1.58488
21
2.8798
0
LINE
8
BLACK
6
CONTINUOUS
10
1.58488
20
2.8798
11
1.58419
21
2.88009
0
LINE
8
BLACK
6
CONTINUOUS
10
1.58587
20
2.99634
11
1.58587
21
2.88177
0
LINE
8
BLACK
6
CONTINUOUS
10
1.58587
20
2.88177
11
1.64138
21
2.88177
0
LINE
8
BLACK
6
CONTINUOUS
10
1.64138
20
2.88177
11
1.64138
21
2.99634
0
LINE
8
BLACK
6
CONTINUOUS
10
1.64138
20
2.99634
11
1.58587
21
2.99634
0
LINE
8
BLACK
6
CONTINUOUS
10
1.65919
20
2.88009
11
1.6589
21
2.88079
0
LINE
8
BLACK
6
CONTINUOUS
10
1.6589
20
2.88079
11
1.6589
21
2.99732
0
LINE
8
BLACK
6
CONTINUOUS
10
1.6589
20
2.99732
11
1.65919
21
2.99802
0
LINE
8
BLACK
6
CONTINUOUS
10
1.65919
20
2.99802
11
1.65988
21
2.99831
0
LINE
8
BLACK
6
CONTINUOUS
10
1.65988
20
2.99831
11
1.71736
21
2.99831
0
LINE
8
BLACK
6
CONTINUOUS
10
1.71736
20
2.99831
11
1.71806
21
2.99802
0
LINE
8
BLACK
6
CONTINUOUS
10
1.71806
20
2.99802
11
1.71835
21
2.99732
0
LINE
8
BLACK
6
CONTINUOUS
10
1.71835
20
2.99732
11
1.71835
21
2.88079
0
LINE
8
BLACK
6
CONTINUOUS
10
1.71835
20
2.88079
11
1.71806
21
2.88009
0
LINE
8
BLACK
6
CONTINUOUS
10
1.71806
20
2.88009
11
1.71736
21
2.8798
0
LINE
8
BLACK
6
CONTINUOUS
10
1.71736
20
2.8798
11
1.65988
21
2.8798
0
LINE
8
BLACK
6
CONTINUOUS
10
1.65988
20
2.8798
11
1.65919
21
2.88009
0
LINE
8
BLACK
6
CONTINUOUS
10
1.66087
20
2.99634
11
1.66087
21
2.88177
0
LINE
8
BLACK
6
CONTINUOUS
10
1.66087
20
2.88177
11
1.71638
21
2.88177
0
LINE
8
BLACK
6
CONTINUOUS
10
1.71638
20
2.88177
11
1.71638
21
2.99634
0
LINE
8
BLACK
6
CONTINUOUS
10
1.71638
20
2.99634
11
1.66087
21
2.99634
0
LINE
8
BLACK
6
CONTINUOUS
10
0.404186
20
2.8811
11
0.403898
21
2.88179
0
LINE
8
BLACK
6
CONTINUOUS
10
0.403898
20
2.88179
11
0.403898
21
2.99833
0
LINE
8
BLACK
6
CONTINUOUS
10
0.403898
20
2.99833
11
0.404186
21
2.99902
0
LINE
8
BLACK
6
CONTINUOUS
10
0.404186
20
2.99902
11
0.404882
21
2.99931
0
LINE
8
BLACK
6
CONTINUOUS
10
0.404882
20
2.99931
11
0.462362
21
2.99931
0
LINE
8
BLACK
6
CONTINUOUS
10
0.462362
20
2.99931
11
0.463058
21
2.99902
0
LINE
8
BLACK
6
CONTINUOUS
10
0.463058
20
2.99902
11
0.463346
21
2.99833
0
LINE
8
BLACK
6
CONTINUOUS
10
0.463346
20
2.99833
11
0.463346
21
2.88179
0
LINE
8
BLACK
6
CONTINUOUS
10
0.463346
20
2.88179
11
0.463058
21
2.8811
0
LINE
8
BLACK
6
CONTINUOUS
10
0.463058
20
2.8811
11
0.462362
21
2.88081
0
LINE
8
BLACK
6
CONTINUOUS
10
0.462362
20
2.88081
11
0.404882
21
2.88081
0
LINE
8
BLACK
6
CONTINUOUS
10
0.404882
20
2.88081
11
0.404186
21
2.8811
0
LINE
8
BLACK
6
CONTINUOUS
10
0.405866
20
2.99734
11
0.405866
21
2.88278
0
LINE
8
BLACK
6
CONTINUOUS
10
0.405866
20
2.88278
11
0.461378
21
2.88278
0
LINE
8
BLACK
6
CONTINUOUS
10
0.461378
20
2.88278
11
0.461378
21
2.99734
0
LINE
8
BLACK
6
CONTINUOUS
10
0.461378
20
2.99734
11
0.405866
21
2.99734
0
LINE
8
BLACK
6
CONTINUOUS
10
0.764186
20
2.8811
11
0.763898
21
2.88179
0
LINE
8
BLACK
6
CONTINUOUS
10
0.763898
20
2.88179
11
0.763898
21
2.99833
0
LINE
8
BLACK
6
CONTINUOUS
10
0.763898
20
2.99833
11
0.764186
21
2.99902
0
LINE
8
BLACK
6
CONTINUOUS
10
0.764186
20
2.99902
11
0.764882
21
2.99931
0
LINE
8
BLACK
6
CONTINUOUS
10
0.764882
20
2.99931
11
0.822362
21
2.99931
0
LINE
8
BLACK
6
CONTINUOUS
10
0.822362
20
2.99931
11
0.823058
21
2.99902
0
LINE
8
BLACK
6
CONTINUOUS
10
0.823058
20
2.99902
11
0.823346
21
2.99833
0
LINE
8
BLACK
6
CONTINUOUS
10
0.823346
20
2.99833
11
0.823346
21
2.88179
0
LINE
8
BLACK
6
CONTINUOUS
10
0.823346
20
2.88179
11
0.823058
21
2.8811
0
LINE
8
BLACK
6
CONTINUOUS
10
0.823058
20
2.8811
11
0.822362
21
2.88081
0
LINE
8
BLACK
6
CONTINUOUS
10
0.822362
20
2.88081
11
0.764882
21
2.88081
0
LINE
8
BLACK
6
CONTINUOUS
10
0.764882
20
2.88081
11
0.764186
21
2.8811
0
LINE
8
BLACK
6
CONTINUOUS
10
0.765866
20
2.99734
11
0.765866
21
2.88278
0
LINE
8
BLACK
6
CONTINUOUS
10
0.765866
20
2.88278
11
0.821378
21
2.88278
0
LINE
8
BLACK
6
CONTINUOUS
10
0.821378
20
2.88278
11
0.821378
21
2.99734
0
LINE
8
BLACK
6
CONTINUOUS
10
0.821378
20
2.99734
11
0.765866
21
2.99734
0
LINE
8
BLACK
6
CONTINUOUS
10
0.329186
20
2.8811
11
0.328898
21
2.88179
0
LINE
8
BLACK
6
CONTINUOUS
10
0.328898
20
2.88179
11
0.328898
21
2.99833
0
LINE
8
BLACK
6
CONTINUOUS
10
0.328898
20
2.99833
11
0.329186
21
2.99902
0
LINE
8
BLACK
6
CONTINUOUS
10
0.329186
20
2.99902
11
0.329882
21
2.99931
0
LINE
8
BLACK
6
CONTINUOUS
10
0.329882
20
2.99931
11
0.387362
21
2.99931
0
LINE
8
BLACK
6
CONTINUOUS
10
0.387362
20
2.99931
11
0.388058
21
2.99902
0
LINE
8
BLACK
6
CONTINUOUS
10
0.388058
20
2.99902
11
0.388346
21
2.99833
0
LINE
8
BLACK
6
CONTINUOUS
10
0.388346
20
2.99833
11
0.388346
21
2.88179
0
LINE
8
BLACK
6
CONTINUOUS
10
0.388346
20
2.88179
11
0.388058
21
2.8811
0
LINE
8
BLACK
6
CONTINUOUS
10
0.388058
20
2.8811
11
0.387362
21
2.88081
0
LINE
8
BLACK
6
CONTINUOUS
10
0.387362
20
2.88081
11
0.329882
21
2.88081
0
LINE
8
BLACK
6
CONTINUOUS
10
0.329882
20
2.88081
11
0.329186
21
2.8811
0
LINE
8
BLACK
6
CONTINUOUS
10
0.330866
20
2.99734
11
0.330866
21
2.88278
0
LINE
8
BLACK
6
CONTINUOUS
10
0.330866
20
2.88278
11
0.386378
21
2.88278
0
LINE
8
BLACK
6
CONTINUOUS
10
0.386378
20
2.88278
11
0.386378
21
2.99734
0
LINE
8
BLACK
6
CONTINUOUS
10
0.386378
20
2.99734
11
0.330866
21
2.99734
0
LINE
8
BLACK
6
CONTINUOUS
10
1.22419
20
2.88198
11
1.2239
21
2.88268
0
LINE
8
BLACK
6
CONTINUOUS
10
1.2239
20
2.88268
11
1.2239
21
2.99921
0
LINE
8
BLACK
6
CONTINUOUS
10
1.2239
20
2.99921
11
1.22419
21
2.99991
0
LINE
8
BLACK
6
CONTINUOUS
10
1.22419
20
2.99991
11
1.22488
21
3.0002
0
LINE
8
BLACK
6
CONTINUOUS
10
1.22488
20
3.0002
11
1.28236
21
3.0002
0
LINE
8
BLACK
6
CONTINUOUS
10
1.28236
20
3.0002
11
1.28306
21
2.99991
0
LINE
8
BLACK
6
CONTINUOUS
10
1.28306
20
2.99991
11
1.28335
21
2.99921
0
LINE
8
BLACK
6
CONTINUOUS
10
1.28335
20
2.99921
11
1.28335
21
2.88268
0
LINE
8
BLACK
6
CONTINUOUS
10
1.28335
20
2.88268
11
1.28306
21
2.88198
0
LINE
8
BLACK
6
CONTINUOUS
10
1.28306
20
2.88198
11
1.28236
21
2.88169
0
LINE
8
BLACK
6
CONTINUOUS
10
1.28236
20
2.88169
11
1.22488
21
2.88169
0
LINE
8
BLACK
6
CONTINUOUS
10
1.22488
20
2.88169
11
1.22419
21
2.88198
0
LINE
8
BLACK
6
CONTINUOUS
10
1.22587
20
2.99823
11
1.22587
21
2.88366
0
LINE
8
BLACK
6
CONTINUOUS
10
1.22587
20
2.88366
11
1.28138
21
2.88366
0
LINE
8
BLACK
6
CONTINUOUS
10
1.28138
20
2.88366
11
1.28138
21
2.99823
0
LINE
8
BLACK
6
CONTINUOUS
10
1.28138
20
2.99823
11
1.22587
21
2.99823
0
LINE
8
BLACK
6
CONTINUOUS
10
1.73419
20
2.9111
11
1.7339
21
2.91179
0
LINE
8
BLACK
6
CONTINUOUS
10
1.7339
20
2.91179
11
1.7339
21
3.02833
0
LINE
8
BLACK
6
CONTINUOUS
10
1.7339
20
3.02833
11
1.73419
21
3.02902
0
LINE
8
BLACK
6
CONTINUOUS
10
1.73419
20
3.02902
11
1.73488
21
3.02931
0
LINE
8
BLACK
6
CONTINUOUS
10
1.73488
20
3.02931
11
1.79236
21
3.02931
0
LINE
8
BLACK
6
CONTINUOUS
10
1.79236
20
3.02931
11
1.79306
21
3.02902
0
LINE
8
BLACK
6
CONTINUOUS
10
1.79306
20
3.02902
11
1.79335
21
3.02833
0
LINE
8
BLACK
6
CONTINUOUS
10
1.79335
20
3.02833
11
1.79335
21
2.91179
0
LINE
8
BLACK
6
CONTINUOUS
10
1.79335
20
2.91179
11
1.79306
21
2.9111
0
LINE
8
BLACK
6
CONTINUOUS
10
1.79306
20
2.9111
11
1.79236
21
2.91081
0
LINE
8
BLACK
6
CONTINUOUS
10
1.79236
20
2.91081
11
1.73488
21
2.91081
0
LINE
8
BLACK
6
CONTINUOUS
10
1.73488
20
2.91081
11
1.73419
21
2.9111
0
LINE
8
BLACK
6
CONTINUOUS
10
1.73587
20
3.02734
11
1.73587
21
2.91278
0
LINE
8
BLACK
6
CONTINUOUS
10
1.73587
20
2.91278
11
1.79138
21
2.91278
0
LINE
8
BLACK
6
CONTINUOUS
10
1.79138
20
2.91278
11
1.79138
21
3.02734
0
LINE
8
BLACK
6
CONTINUOUS
10
1.79138
20
3.02734
11
1.73587
21
3.02734
0
LINE
8
BLACK
6
CONTINUOUS
10
0.254186
20
2.93509
11
0.253898
21
2.93579
0
LINE
8
BLACK
6
CONTINUOUS
10
0.253898
20
2.93579
11
0.253898
21
3.05232
0
LINE
8
BLACK
6
CONTINUOUS
10
0.253898
20
3.05232
11
0.254186
21
3.05302
0
LINE
8
BLACK
6
CONTINUOUS
10
0.254186
20
3.05302
11
0.254882
21
3.05331
0
LINE
8
BLACK
6
CONTINUOUS
10
0.254882
20
3.05331
11
0.312362
21
3.05331
0
LINE
8
BLACK
6
CONTINUOUS
10
0.312362
20
3.05331
11
0.313058
21
3.05302
0
LINE
8
BLACK
6
CONTINUOUS
10
0.313058
20
3.05302
11
0.313346
21
3.05232
0
LINE
8
BLACK
6
CONTINUOUS
10
0.313346
20
3.05232
11
0.313346
21
2.93579
0
LINE
8
BLACK
6
CONTINUOUS
10
0.313346
20
2.93579
11
0.313058
21
2.93509
0
LINE
8
BLACK
6
CONTINUOUS
10
0.313058
20
2.93509
11
0.312362
21
2.9348
0
LINE
8
BLACK
6
CONTINUOUS
10
0.312362
20
2.9348
11
0.254882
21
2.9348
0
LINE
8
BLACK
6
CONTINUOUS
10
0.254882
20
2.9348
11
0.254186
21
2.93509
0
LINE
8
BLACK
6
CONTINUOUS
10
0.255866
20
3.05134
11
0.255866
21
2.93677
0
LINE
8
BLACK
6
CONTINUOUS
10
0.255866
20
2.93677
11
0.311378
21
2.93677
0
LINE
8
BLACK
6
CONTINUOUS
10
0.311378
20
2.93677
11
0.311378
21
3.05134
0
LINE
8
BLACK
6
CONTINUOUS
10
0.311378
20
3.05134
11
0.255866
21
3.05134
0
LINE
8
BLACK
6
CONTINUOUS
10
1.29966
20
2.94962
11
1.29937
21
2.95031
0
LINE
8
BLACK
6
CONTINUOUS
10
1.29937
20
2.95031
11
1.29937
21
3.0078
0
LINE
8
BLACK
6
CONTINUOUS
10
1.29937
20
3.0078
11
1.29966
21
3.00849
0
LINE
8
BLACK
6
CONTINUOUS
10
1.29966
20
3.00849
11
1.30035
21
3.00878
0
LINE
8
BLACK
6
CONTINUOUS
10
1.30035
20
3.00878
11
1.41689
21
3.00878
0
LINE
8
BLACK
6
CONTINUOUS
10
1.41689
20
3.00878
11
1.41759
21
3.00849
0
LINE
8
BLACK
6
CONTINUOUS
10
1.41759
20
3.00849
11
1.41787
21
3.0078
0
LINE
8
BLACK
6
CONTINUOUS
10
1.41787
20
3.0078
11
1.41787
21
2.95031
0
LINE
8
BLACK
6
CONTINUOUS
10
1.41787
20
2.95031
11
1.41759
21
2.94962
0
LINE
8
BLACK
6
CONTINUOUS
10
1.41759
20
2.94962
11
1.41689
21
2.94933
0
LINE
8
BLACK
6
CONTINUOUS
10
1.41689
20
2.94933
11
1.30035
21
2.94933
0
LINE
8
BLACK
6
CONTINUOUS
10
1.30035
20
2.94933
11
1.29966
21
2.94962
0
LINE
8
BLACK
6
CONTINUOUS
10
1.30134
20
3.00681
11
1.30134
21
2.9513
0
LINE
8
BLACK
6
CONTINUOUS
10
1.30134
20
2.9513
11
1.41591
21
2.9513
0
LINE
8
BLACK
6
CONTINUOUS
10
1.41591
20
2.9513
11
1.41591
21
3.00681
0
LINE
8
BLACK
6
CONTINUOUS
10
1.41591
20
3.00681
11
1.30134
21
3.00681
0
LINE
8
BLACK
6
CONTINUOUS
10
0.628654
20
2.94962
11
0.628366
21
2.95031
0
LINE
8
BLACK
6
CONTINUOUS
10
0.628366
20
2.95031
11
0.628366
21
3.0078
0
LINE
8
BLACK
6
CONTINUOUS
10
0.628366
20
3.0078
11
0.628654
21
3.00849
0
LINE
8
BLACK
6
CONTINUOUS
10
0.628654
20
3.00849
11
0.62935
21
3.00878
0
LINE
8
BLACK
6
CONTINUOUS
10
0.62935
20
3.00878
11
0.745886
21
3.00878
0
LINE
8
BLACK
6
CONTINUOUS
10
0.745886
20
3.00878
11
0.746582
21
3.00849
0
LINE
8
BLACK
6
CONTINUOUS
10
0.746582
20
3.00849
11
0.74687
21
3.0078
0
LINE
8
BLACK
6
CONTINUOUS
10
0.74687
20
3.0078
11
0.74687
21
2.95031
0
LINE
8
BLACK
6
CONTINUOUS
10
0.74687
20
2.95031
11
0.746582
21
2.94962
0
LINE
8
BLACK
6
CONTINUOUS
10
0.746582
20
2.94962
11
0.745886
21
2.94933
0
LINE
8
BLACK
6
CONTINUOUS
10
0.745886
20
2.94933
11
0.62935
21
2.94933
0
LINE
8
BLACK
6
CONTINUOUS
10
0.62935
20
2.94933
11
0.628654
21
2.94962
0
LINE
8
BLACK
6
CONTINUOUS
10
0.630335
20
3.00681
11
0.630335
21
2.9513
0
LINE
8
BLACK
6
CONTINUOUS
10
0.630335
20
2.9513
11
0.744902
21
2.9513
0
LINE
8
BLACK
6
CONTINUOUS
10
0.744902
20
2.9513
11
0.744902
21
3.00681
0
LINE
8
BLACK
6
CONTINUOUS
10
0.744902
20
3.00681
11
0.630335
21
3.00681
0
LINE
8
BLACK
6
CONTINUOUS
10
1.30966
20
3.04462
11
1.30937
21
3.04531
0
LINE
8
BLACK
6
CONTINUOUS
10
1.30937
20
3.04531
11
1.30937
21
3.1028
0
LINE
8
BLACK
6
CONTINUOUS
10
1.30937
20
3.1028
11
1.30966
21
3.10349
0
LINE
8
BLACK
6
CONTINUOUS
10
1.30966
20
3.10349
11
1.31035
21
3.10378
0
LINE
8
BLACK
6
CONTINUOUS
10
1.31035
20
3.10378
11
1.42689
21
3.10378
0
LINE
8
BLACK
6
CONTINUOUS
10
1.42689
20
3.10378
11
1.42759
21
3.10349
0
LINE
8
BLACK
6
CONTINUOUS
10
1.42759
20
3.10349
11
1.42787
21
3.1028
0
LINE
8
BLACK
6
CONTINUOUS
10
1.42787
20
3.1028
11
1.42787
21
3.04531
0
LINE
8
BLACK
6
CONTINUOUS
10
1.42787
20
3.04531
11
1.42759
21
3.04462
0
LINE
8
BLACK
6
CONTINUOUS
10
1.42759
20
3.04462
11
1.42689
21
3.04433
0
LINE
8
BLACK
6
CONTINUOUS
10
1.42689
20
3.04433
11
1.31035
21
3.04433
0
LINE
8
BLACK
6
CONTINUOUS
10
1.31035
20
3.04433
11
1.30966
21
3.04462
0
LINE
8
BLACK
6
CONTINUOUS
10
1.31134
20
3.10181
11
1.31134
21
3.0463
0
LINE
8
BLACK
6
CONTINUOUS
10
1.31134
20
3.0463
11
1.42591
21
3.0463
0
LINE
8
BLACK
6
CONTINUOUS
10
1.42591
20
3.0463
11
1.42591
21
3.10181
0
LINE
8
BLACK
6
CONTINUOUS
10
1.42591
20
3.10181
11
1.31134
21
3.10181
0
LINE
8
BLACK
6
CONTINUOUS
10
0.628654
20
3.04462
11
0.628366
21
3.04531
0
LINE
8
BLACK
6
CONTINUOUS
10
0.628366
20
3.04531
11
0.628366
21
3.1028
0
LINE
8
BLACK
6
CONTINUOUS
10
0.628366
20
3.1028
11
0.628654
21
3.10349
0
LINE
8
BLACK
6
CONTINUOUS
10
0.628654
20
3.10349
11
0.62935
21
3.10378
0
LINE
8
BLACK
6
CONTINUOUS
10
0.62935
20
3.10378
11
0.745886
21
3.10378
0
LINE
8
BLACK
6
CONTINUOUS
10
0.745886
20
3.10378
11
0.746582
21
3.10349
0
LINE
8
BLACK
6
CONTINUOUS
10
0.746582
20
3.10349
11
0.74687
21
3.1028
0
LINE
8
BLACK
6
CONTINUOUS
10
0.74687
20
3.1028
11
0.74687
21
3.04531
0
LINE
8
BLACK
6
CONTINUOUS
10
0.74687
20
3.04531
11
0.746582
21
3.04462
0
LINE
8
BLACK
6
CONTINUOUS
10
0.746582
20
3.04462
11
0.745886
21
3.04433
0
LINE
8
BLACK
6
CONTINUOUS
10
0.745886
20
3.04433
11
0.62935
21
3.04433
0
LINE
8
BLACK
6
CONTINUOUS
10
0.62935
20
3.04433
11
0.628654
21
3.04462
0
LINE
8
BLACK
6
CONTINUOUS
10
0.630335
20
3.10181
11
0.630335
21
3.0463
0
LINE
8
BLACK
6
CONTINUOUS
10
0.630335
20
3.0463
11
0.744902
21
3.0463
0
LINE
8
BLACK
6
CONTINUOUS
10
0.744902
20
3.0463
11
0.744902
21
3.10181
0
LINE
8
BLACK
6
CONTINUOUS
10
0.744902
20
3.10181
11
0.630335
21
3.10181
0
LINE
8
BLACK
6
CONTINUOUS
10
1.72568
20
3.04606
11
1.72539
21
3.04675
0
LINE
8
BLACK
6
CONTINUOUS
10
1.72539
20
3.04675
11
1.72539
21
3.27904
0
LINE
8
BLACK
6
CONTINUOUS
10
1.72539
20
3.27904
11
1.72568
21
3.27973
0
LINE
8
BLACK
6
CONTINUOUS
10
1.72568
20
3.27973
11
1.72638
21
3.28002
0
LINE
8
BLACK
6
CONTINUOUS
10
1.72638
20
3.28002
11
1.87992
21
3.28002
0
LINE
8
BLACK
6
CONTINUOUS
10
1.87992
20
3.28002
11
1.88062
21
3.27973
0
LINE
8
BLACK
6
CONTINUOUS
10
1.88062
20
3.27973
11
1.88091
21
3.27904
0
LINE
8
BLACK
6
CONTINUOUS
10
1.88091
20
3.27904
11
1.88091
21
3.04675
0
LINE
8
BLACK
6
CONTINUOUS
10
1.88091
20
3.04675
11
1.88062
21
3.04606
0
LINE
8
BLACK
6
CONTINUOUS
10
1.88062
20
3.04606
11
1.87992
21
3.04577
0
LINE
8
BLACK
6
CONTINUOUS
10
1.87992
20
3.04577
11
1.72638
21
3.04577
0
LINE
8
BLACK
6
CONTINUOUS
10
1.72638
20
3.04577
11
1.72568
21
3.04606
0
LINE
8
BLACK
6
CONTINUOUS
10
1.72736
20
3.27805
11
1.72736
21
3.04774
0
LINE
8
BLACK
6
CONTINUOUS
10
1.72736
20
3.04774
11
1.87894
21
3.04774
0
LINE
8
BLACK
6
CONTINUOUS
10
1.87894
20
3.04774
11
1.87894
21
3.27805
0
LINE
8
BLACK
6
CONTINUOUS
10
1.87894
20
3.27805
11
1.72736
21
3.27805
0
LINE
8
BLACK
6
CONTINUOUS
10
0.334186
20
3.0461
11
0.333898
21
3.04679
0
LINE
8
BLACK
6
CONTINUOUS
10
0.333898
20
3.04679
11
0.333898
21
3.16333
0
LINE
8
BLACK
6
CONTINUOUS
10
0.333898
20
3.16333
11
0.334186
21
3.16402
0
LINE
8
BLACK
6
CONTINUOUS
10
0.334186
20
3.16402
11
0.334882
21
3.16431
0
LINE
8
BLACK
6
CONTINUOUS
10
0.334882
20
3.16431
11
0.392362
21
3.16431
0
LINE
8
BLACK
6
CONTINUOUS
10
0.392362
20
3.16431
11
0.393058
21
3.16402
0
LINE
8
BLACK
6
CONTINUOUS
10
0.393058
20
3.16402
11
0.393346
21
3.16333
0
LINE
8
BLACK
6
CONTINUOUS
10
0.393346
20
3.16333
11
0.393346
21
3.04679
0
LINE
8
BLACK
6
CONTINUOUS
10
0.393346
20
3.04679
11
0.393058
21
3.0461
0
LINE
8
BLACK
6
CONTINUOUS
10
0.393058
20
3.0461
11
0.392362
21
3.04581
0
LINE
8
BLACK
6
CONTINUOUS
10
0.392362
20
3.04581
11
0.334882
21
3.04581
0
LINE
8
BLACK
6
CONTINUOUS
10
0.334882
20
3.04581
11
0.334186
21
3.0461
0
LINE
8
BLACK
6
CONTINUOUS
10
0.335866
20
3.16234
11
0.335866
21
3.04778
0
LINE
8
BLACK
6
CONTINUOUS
10
0.335866
20
3.04778
11
0.391378
21
3.04778
0
LINE
8
BLACK
6
CONTINUOUS
10
0.391378
20
3.04778
11
0.391378
21
3.16234
0
LINE
8
BLACK
6
CONTINUOUS
10
0.391378
20
3.16234
11
0.335866
21
3.16234
0
LINE
8
BLACK
6
CONTINUOUS
10
1.22419
20
3.0461
11
1.2239
21
3.04679
0
LINE
8
BLACK
6
CONTINUOUS
10
1.2239
20
3.04679
11
1.2239
21
3.16333
0
LINE
8
BLACK
6
CONTINUOUS
10
1.2239
20
3.16333
11
1.22419
21
3.16402
0
LINE
8
BLACK
6
CONTINUOUS
10
1.22419
20
3.16402
11
1.22488
21
3.16431
0
LINE
8
BLACK
6
CONTINUOUS
10
1.22488
20
3.16431
11
1.28236
21
3.16431
0
LINE
8
BLACK
6
CONTINUOUS
10
1.28236
20
3.16431
11
1.28306
21
3.16402
0
LINE
8
BLACK
6
CONTINUOUS
10
1.28306
20
3.16402
11
1.28335
21
3.16333
0
LINE
8
BLACK
6
CONTINUOUS
10
1.28335
20
3.16333
11
1.28335
21
3.04679
0
LINE
8
BLACK
6
CONTINUOUS
10
1.28335
20
3.04679
11
1.28306
21
3.0461
0
LINE
8
BLACK
6
CONTINUOUS
10
1.28306
20
3.0461
11
1.28236
21
3.04581
0
LINE
8
BLACK
6
CONTINUOUS
10
1.28236
20
3.04581
11
1.22488
21
3.04581
0
LINE
8
BLACK
6
CONTINUOUS
10
1.22488
20
3.04581
11
1.22419
21
3.0461
0
LINE
8
BLACK
6
CONTINUOUS
10
1.22587
20
3.16234
11
1.22587
21
3.04778
0
LINE
8
BLACK
6
CONTINUOUS
10
1.22587
20
3.04778
11
1.28138
21
3.04778
0
LINE
8
BLACK
6
CONTINUOUS
10
1.28138
20
3.04778
11
1.28138
21
3.16234
0
LINE
8
BLACK
6
CONTINUOUS
10
1.28138
20
3.16234
11
1.22587
21
3.16234
0
LINE
8
BLACK
6
CONTINUOUS
10
0.404186
20
3.0461
11
0.403898
21
3.04679
0
LINE
8
BLACK
6
CONTINUOUS
10
0.403898
20
3.04679
11
0.403898
21
3.16333
0
LINE
8
BLACK
6
CONTINUOUS
10
0.403898
20
3.16333
11
0.404186
21
3.16402
0
LINE
8
BLACK
6
CONTINUOUS
10
0.404186
20
3.16402
11
0.404882
21
3.16431
0
LINE
8
BLACK
6
CONTINUOUS
10
0.404882
20
3.16431
11
0.462362
21
3.16431
0
LINE
8
BLACK
6
CONTINUOUS
10
0.462362
20
3.16431
11
0.463058
21
3.16402
0
LINE
8
BLACK
6
CONTINUOUS
10
0.463058
20
3.16402
11
0.463346
21
3.16333
0
LINE
8
BLACK
6
CONTINUOUS
10
0.463346
20
3.16333
11
0.463346
21
3.04679
0
LINE
8
BLACK
6
CONTINUOUS
10
0.463346
20
3.04679
11
0.463058
21
3.0461
0
LINE
8
BLACK
6
CONTINUOUS
10
0.463058
20
3.0461
11
0.462362
21
3.04581
0
LINE
8
BLACK
6
CONTINUOUS
10
0.462362
20
3.04581
11
0.404882
21
3.04581
0
LINE
8
BLACK
6
CONTINUOUS
10
0.404882
20
3.04581
11
0.404186
21
3.0461
0
LINE
8
BLACK
6
CONTINUOUS
10
0.405866
20
3.16234
11
0.405866
21
3.04778
0
LINE
8
BLACK
6
CONTINUOUS
10
0.405866
20
3.04778
11
0.461378
21
3.04778
0
LINE
8
BLACK
6
CONTINUOUS
10
0.461378
20
3.04778
11
0.461378
21
3.16234
0
LINE
8
BLACK
6
CONTINUOUS
10
0.461378
20
3.16234
11
0.405866
21
3.16234
0
LINE
8
BLACK
6
CONTINUOUS
10
1.65919
20
3.0461
11
1.6589
21
3.04679
0
LINE
8
BLACK
6
CONTINUOUS
10
1.6589
20
3.04679
11
1.6589
21
3.16333
0
LINE
8
BLACK
6
CONTINUOUS
10
1.6589
20
3.16333
11
1.65919
21
3.16402
0
LINE
8
BLACK
6
CONTINUOUS
10
1.65919
20
3.16402
11
1.65988
21
3.16431
0
LINE
8
BLACK
6
CONTINUOUS
10
1.65988
20
3.16431
11
1.71736
21
3.16431
0
LINE
8
BLACK
6
CONTINUOUS
10
1.71736
20
3.16431
11
1.71806
21
3.16402
0
LINE
8
BLACK
6
CONTINUOUS
10
1.71806
20
3.16402
11
1.71835
21
3.16333
0
LINE
8
BLACK
6
CONTINUOUS
10
1.71835
20
3.16333
11
1.71835
21
3.04679
0
LINE
8
BLACK
6
CONTINUOUS
10
1.71835
20
3.04679
11
1.71806
21
3.0461
0
LINE
8
BLACK
6
CONTINUOUS
10
1.71806
20
3.0461
11
1.71736
21
3.04581
0
LINE
8
BLACK
6
CONTINUOUS
10
1.71736
20
3.04581
11
1.65988
21
3.04581
0
LINE
8
BLACK
6
CONTINUOUS
10
1.65988
20
3.04581
11
1.65919
21
3.0461
0
LINE
8
BLACK
6
CONTINUOUS
10
1.66087
20
3.16234
11
1.66087
21
3.04778
0
LINE
8
BLACK
6
CONTINUOUS
10
1.66087
20
3.04778
11
1.71638
21
3.04778
0
LINE
8
BLACK
6
CONTINUOUS
10
1.71638
20
3.04778
11
1.71638
21
3.16234
0
LINE
8
BLACK
6
CONTINUOUS
10
1.71638
20
3.16234
11
1.66087
21
3.16234
0
LINE
8
BLACK
6
CONTINUOUS
10
1.58419
20
3.0461
11
1.5839
21
3.04679
0
LINE
8
BLACK
6
CONTINUOUS
10
1.5839
20
3.04679
11
1.5839
21
3.16333
0
LINE
8
BLACK
6
CONTINUOUS
10
1.5839
20
3.16333
11
1.58419
21
3.16402
0
LINE
8
BLACK
6
CONTINUOUS
10
1.58419
20
3.16402
11
1.58488
21
3.16431
0
LINE
8
BLACK
6
CONTINUOUS
10
1.58488
20
3.16431
11
1.64236
21
3.16431
0
LINE
8
BLACK
6
CONTINUOUS
10
1.64236
20
3.16431
11
1.64306
21
3.16402
0
LINE
8
BLACK
6
CONTINUOUS
10
1.64306
20
3.16402
11
1.64335
21
3.16333
0
LINE
8
BLACK
6
CONTINUOUS
10
1.64335
20
3.16333
11
1.64335
21
3.04679
0
LINE
8
BLACK
6
CONTINUOUS
10
1.64335
20
3.04679
11
1.64306
21
3.0461
0
LINE
8
BLACK
6
CONTINUOUS
10
1.64306
20
3.0461
11
1.64236
21
3.04581
0
LINE
8
BLACK
6
CONTINUOUS
10
1.64236
20
3.04581
11
1.58488
21
3.04581
0
LINE
8
BLACK
6
CONTINUOUS
10
1.58488
20
3.04581
11
1.58419
21
3.0461
0
LINE
8
BLACK
6
CONTINUOUS
10
1.58587
20
3.16234
11
1.58587
21
3.04778
0
LINE
8
BLACK
6
CONTINUOUS
10
1.58587
20
3.04778
11
1.64138
21
3.04778
0
LINE
8
BLACK
6
CONTINUOUS
10
1.64138
20
3.04778
11
1.64138
21
3.16234
0
LINE
8
BLACK
6
CONTINUOUS
10
1.64138
20
3.16234
11
1.58587
21
3.16234
0
LINE
8
BLACK
6
CONTINUOUS
10
0.764186
20
3.0461
11
0.763898
21
3.04679
0
LINE
8
BLACK
6
CONTINUOUS
10
0.763898
20
3.04679
11
0.763898
21
3.16333
0
LINE
8
BLACK
6
CONTINUOUS
10
0.763898
20
3.16333
11
0.764186
21
3.16402
0
LINE
8
BLACK
6
CONTINUOUS
10
0.764186
20
3.16402
11
0.764882
21
3.16431
0
LINE
8
BLACK
6
CONTINUOUS
10
0.764882
20
3.16431
11
0.822362
21
3.16431
0
LINE
8
BLACK
6
CONTINUOUS
10
0.822362
20
3.16431
11
0.823058
21
3.16402
0
LINE
8
BLACK
6
CONTINUOUS
10
0.823058
20
3.16402
11
0.823346
21
3.16333
0
LINE
8
BLACK
6
CONTINUOUS
10
0.823346
20
3.16333
11
0.823346
21
3.04679
0
LINE
8
BLACK
6
CONTINUOUS
10
0.823346
20
3.04679
11
0.823058
21
3.0461
0
LINE
8
BLACK
6
CONTINUOUS
10
0.823058
20
3.0461
11
0.822362
21
3.04581
0
LINE
8
BLACK
6
CONTINUOUS
10
0.822362
20
3.04581
11
0.764882
21
3.04581
0
LINE
8
BLACK
6
CONTINUOUS
10
0.764882
20
3.04581
11
0.764186
21
3.0461
0
LINE
8
BLACK
6
CONTINUOUS
10
0.765866
20
3.16234
11
0.765866
21
3.04778
0
LINE
8
BLACK
6
CONTINUOUS
10
0.765866
20
3.04778
11
0.821378
21
3.04778
0
LINE
8
BLACK
6
CONTINUOUS
10
0.821378
20
3.04778
11
0.821378
21
3.16234
0
LINE
8
BLACK
6
CONTINUOUS
10
0.821378
20
3.16234
11
0.765866
21
3.16234
0
LINE
8
BLACK
6
CONTINUOUS
10
0.166627
20
3.05393
11
0.166339
21
3.05463
0
LINE
8
BLACK
6
CONTINUOUS
10
0.166339
20
3.05463
11
0.166339
21
3.28691
0
LINE
8
BLACK
6
CONTINUOUS
10
0.166339
20
3.28691
11
0.166627
21
3.28761
0
LINE
8
BLACK
6
CONTINUOUS
10
0.166627
20
3.28761
11
0.167323
21
3.28789
0
LINE
8
BLACK
6
CONTINUOUS
10
0.167323
20
3.28789
11
0.320866
21
3.28789
0
LINE
8
BLACK
6
CONTINUOUS
10
0.320866
20
3.28789
11
0.321562
21
3.28761
0
LINE
8
BLACK
6
CONTINUOUS
10
0.321562
20
3.28761
11
0.32185
21
3.28691
0
LINE
8
BLACK
6
CONTINUOUS
10
0.32185
20
3.28691
11
0.32185
21
3.05463
0
LINE
8
BLACK
6
CONTINUOUS
10
0.32185
20
3.05463
11
0.321562
21
3.05393
0
LINE
8
BLACK
6
CONTINUOUS
10
0.321562
20
3.05393
11
0.320866
21
3.05364
0
LINE
8
BLACK
6
CONTINUOUS
10
0.320866
20
3.05364
11
0.167323
21
3.05364
0
LINE
8
BLACK
6
CONTINUOUS
10
0.167323
20
3.05364
11
0.166627
21
3.05393
0
LINE
8
BLACK
6
CONTINUOUS
10
0.168307
20
3.28593
11
0.168307
21
3.05561
0
LINE
8
BLACK
6
CONTINUOUS
10
0.168307
20
3.05561
11
0.319882
21
3.05561
0
LINE
8
BLACK
6
CONTINUOUS
10
0.319882
20
3.05561
11
0.319882
21
3.28593
0
LINE
8
BLACK
6
CONTINUOUS
10
0.319882
20
3.28593
11
0.168307
21
3.28593
0
LINE
8
BLACK
6
CONTINUOUS
10
0.963654
20
3.21962
11
0.963366
21
3.22031
0
LINE
8
BLACK
6
CONTINUOUS
10
0.963366
20
3.22031
11
0.963366
21
3.2778
0
LINE
8
BLACK
6
CONTINUOUS
10
0.963366
20
3.2778
11
0.963654
21
3.27849
0
LINE
8
BLACK
6
CONTINUOUS
10
0.963654
20
3.27849
11
0.96435
21
3.27878
0
LINE
8
BLACK
6
CONTINUOUS
10
0.96435
20
3.27878
11
1.08089
21
3.27878
0
LINE
8
BLACK
6
CONTINUOUS
10
1.08089
20
3.27878
11
1.08158
21
3.27849
0
LINE
8
BLACK
6
CONTINUOUS
10
1.08158
20
3.27849
11
1.08187
21
3.2778
0
LINE
8
BLACK
6
CONTINUOUS
10
1.08187
20
3.2778
11
1.08187
21
3.22031
0
LINE
8
BLACK
6
CONTINUOUS
10
1.08187
20
3.22031
11
1.08158
21
3.21962
0
LINE
8
BLACK
6
CONTINUOUS
10
1.08158
20
3.21962
11
1.08089
21
3.21933
0
LINE
8
BLACK
6
CONTINUOUS
10
1.08089
20
3.21933
11
0.96435
21
3.21933
0
LINE
8
BLACK
6
CONTINUOUS
10
0.96435
20
3.21933
11
0.963654
21
3.21962
0
LINE
8
BLACK
6
CONTINUOUS
10
0.965335
20
3.27681
11
0.965335
21
3.2213
0
LINE
8
BLACK
6
CONTINUOUS
10
0.965335
20
3.2213
11
1.0799
21
3.2213
0
LINE
8
BLACK
6
CONTINUOUS
10
1.0799
20
3.2213
11
1.0799
21
3.27681
0
LINE
8
BLACK
6
CONTINUOUS
10
1.0799
20
3.27681
11
0.965335
21
3.27681
0
LINE
8
BLACK
6
CONTINUOUS
10
0.110311
20
0.410869
11
0.114009
21
0.418799
0
LINE
8
BLACK
6
CONTINUOUS
10
0.114009
20
0.418799
11
0.119027
21
0.425967
0
LINE
8
BLACK
6
CONTINUOUS
10
0.119027
20
0.425967
11
0.125214
21
0.432154
0
LINE
8
BLACK
6
CONTINUOUS
10
0.125214
20
0.432154
11
0.132382
21
0.437173
0
LINE
8
BLACK
6
CONTINUOUS
10
0.132382
20
0.437173
11
0.140312
21
0.44087
0
LINE
8
BLACK
6
CONTINUOUS
10
0.140312
20
0.44087
11
0.148764
21
0.443135
0
LINE
8
BLACK
6
CONTINUOUS
10
0.148764
20
0.443135
11
0.15748
21
0.443898
0
LINE
8
BLACK
6
CONTINUOUS
10
0.15748
20
0.443898
11
0.166197
21
0.443135
0
LINE
8
BLACK
6
CONTINUOUS
10
0.166197
20
0.443135
11
0.174649
21
0.44087
0
LINE
8
BLACK
6
CONTINUOUS
10
0.174649
20
0.44087
11
0.182579
21
0.437173
0
LINE
8
BLACK
6
CONTINUOUS
10
0.182579
20
0.437173
11
0.189746
21
0.432154
0
LINE
8
BLACK
6
CONTINUOUS
10
0.189746
20
0.432154
11
0.195933
21
0.425967
0
LINE
8
BLACK
6
CONTINUOUS
10
0.195933
20
0.425967
11
0.200952
21
0.418799
0
LINE
8
BLACK
6
CONTINUOUS
10
0.200952
20
0.418799
11
0.20465
21
0.410869
0
LINE
8
BLACK
6
CONTINUOUS
10
0.20465
20
0.410869
11
0.206915
21
0.402417
0
LINE
8
BLACK
6
CONTINUOUS
10
0.206915
20
0.402417
11
0.207677
21
0.393701
0
LINE
8
BLACK
6
CONTINUOUS
10
0.207677
20
0.393701
11
0.206915
21
0.384984
0
LINE
8
BLACK
6
CONTINUOUS
10
0.206915
20
0.384984
11
0.20465
21
0.376532
0
LINE
8
BLACK
6
CONTINUOUS
10
0.20465
20
0.376532
11
0.200952
21
0.368602
0
LINE
8
BLACK
6
CONTINUOUS
10
0.200952
20
0.368602
11
0.195933
21
0.361435
0
LINE
8
BLACK
6
CONTINUOUS
10
0.195933
20
0.361435
11
0.189746
21
0.355248
0
LINE
8
BLACK
6
CONTINUOUS
10
0.189746
20
0.355248
11
0.182579
21
0.350229
0
LINE
8
BLACK
6
CONTINUOUS
10
0.182579
20
0.350229
11
0.174649
21
0.346531
0
LINE
8
BLACK
6
CONTINUOUS
10
0.174649
20
0.346531
11
0.166197
21
0.344267
0
LINE
8
BLACK
6
CONTINUOUS
10
0.166197
20
0.344267
11
0.15748
21
0.343504
0
LINE
8
BLACK
6
CONTINUOUS
10
0.15748
20
0.343504
11
0.148764
21
0.344267
0
LINE
8
BLACK
6
CONTINUOUS
10
0.148764
20
0.344267
11
0.140312
21
0.346531
0
LINE
8
BLACK
6
CONTINUOUS
10
0.140312
20
0.346531
11
0.132382
21
0.350229
0
LINE
8
BLACK
6
CONTINUOUS
10
0.132382
20
0.350229
11
0.125214
21
0.355248
0
LINE
8
BLACK
6
CONTINUOUS
10
0.125214
20
0.355248
11
0.119027
21
0.361435
0
LINE
8
BLACK
6
CONTINUOUS
10
0.119027
20
0.361435
11
0.114009
21
0.368602
0
LINE
8
BLACK
6
CONTINUOUS
10
0.114009
20
0.368602
11
0.110311
21
0.376532
0
LINE
8
BLACK
6
CONTINUOUS
10
0.110311
20
0.376532
11
0.108046
21
0.384984
0
LINE
8
BLACK
6
CONTINUOUS
10
0.108046
20
0.384984
11
0.107283
21
0.393701
0
LINE
8
BLACK
6
CONTINUOUS
10
0.107283
20
0.393701
11
0.108046
21
0.402417
0
LINE
8
BLACK
6
CONTINUOUS
10
0.108046
20
0.402417
11
0.110311
21
0.410869
0
LINE
8
BLACK
6
CONTINUOUS
10
0.111987
20
0.377143
11
0.115554
21
0.369495
0
LINE
8
BLACK
6
CONTINUOUS
10
0.115554
20
0.369495
11
0.120394
21
0.362582
0
LINE
8
BLACK
6
CONTINUOUS
10
0.120394
20
0.362582
11
0.126361
21
0.356615
0
LINE
8
BLACK
6
CONTINUOUS
10
0.126361
20
0.356615
11
0.133274
21
0.351774
0
LINE
8
BLACK
6
CONTINUOUS
10
0.133274
20
0.351774
11
0.140922
21
0.348208
0
LINE
8
BLACK
6
CONTINUOUS
10
0.140922
20
0.348208
11
0.149074
21
0.346024
0
LINE
8
BLACK
6
CONTINUOUS
10
0.149074
20
0.346024
11
0.15748
21
0.345288
0
LINE
8
BLACK
6
CONTINUOUS
10
0.15748
20
0.345288
11
0.165887
21
0.346024
0
LINE
8
BLACK
6
CONTINUOUS
10
0.165887
20
0.346024
11
0.174038
21
0.348208
0
LINE
8
BLACK
6
CONTINUOUS
10
0.174038
20
0.348208
11
0.181687
21
0.351774
0
LINE
8
BLACK
6
CONTINUOUS
10
0.181687
20
0.351774
11
0.188599
21
0.356615
0
LINE
8
BLACK
6
CONTINUOUS
10
0.188599
20
0.356615
11
0.194566
21
0.362582
0
LINE
8
BLACK
6
CONTINUOUS
10
0.194566
20
0.362582
11
0.199407
21
0.369495
0
LINE
8
BLACK
6
CONTINUOUS
10
0.199407
20
0.369495
11
0.202973
21
0.377143
0
LINE
8
BLACK
6
CONTINUOUS
10
0.202973
20
0.377143
11
0.205157
21
0.385294
0
LINE
8
BLACK
6
CONTINUOUS
10
0.205157
20
0.385294
11
0.205893
21
0.393701
0
LINE
8
BLACK
6
CONTINUOUS
10
0.205893
20
0.393701
11
0.205157
21
0.402108
0
LINE
8
BLACK
6
CONTINUOUS
10
0.205157
20
0.402108
11
0.202973
21
0.410259
0
LINE
8
BLACK
6
CONTINUOUS
10
0.202973
20
0.410259
11
0.199407
21
0.417907
0
LINE
8
BLACK
6
CONTINUOUS
10
0.199407
20
0.417907
11
0.194566
21
0.42482
0
LINE
8
BLACK
6
CONTINUOUS
10
0.194566
20
0.42482
11
0.188599
21
0.430787
0
LINE
8
BLACK
6
CONTINUOUS
10
0.188599
20
0.430787
11
0.181687
21
0.435627
0
LINE
8
BLACK
6
CONTINUOUS
10
0.181687
20
0.435627
11
0.174038
21
0.439194
0
LINE
8
BLACK
6
CONTINUOUS
10
0.174038
20
0.439194
11
0.165887
21
0.441378
0
LINE
8
BLACK
6
CONTINUOUS
10
0.165887
20
0.441378
11
0.15748
21
0.442113
0
LINE
8
BLACK
6
CONTINUOUS
10
0.15748
20
0.442113
11
0.149074
21
0.441378
0
LINE
8
BLACK
6
CONTINUOUS
10
0.149074
20
0.441378
11
0.140922
21
0.439194
0
LINE
8
BLACK
6
CONTINUOUS
10
0.140922
20
0.439194
11
0.133274
21
0.435627
0
LINE
8
BLACK
6
CONTINUOUS
10
0.133274
20
0.435627
11
0.126361
21
0.430787
0
LINE
8
BLACK
6
CONTINUOUS
10
0.126361
20
0.430787
11
0.120394
21
0.42482
0
LINE
8
BLACK
6
CONTINUOUS
10
0.120394
20
0.42482
11
0.115554
21
0.417907
0
LINE
8
BLACK
6
CONTINUOUS
10
0.115554
20
0.417907
11
0.111987
21
0.410259
0
LINE
8
BLACK
6
CONTINUOUS
10
0.111987
20
0.410259
11
0.109803
21
0.402108
0
LINE
8
BLACK
6
CONTINUOUS
10
0.109803
20
0.402108
11
0.109068
21
0.393701
0
LINE
8
BLACK
6
CONTINUOUS
10
0.109068
20
0.393701
11
0.109803
21
0.385294
0
LINE
8
BLACK
6
CONTINUOUS
10
0.109803
20
0.385294
11
0.111987
21
0.377143
0
LINE
8
BLACK
6
CONTINUOUS
10
1.84259
20
3.75733
11
1.84629
21
3.76526
0
LINE
8
BLACK
6
CONTINUOUS
10
1.84629
20
3.76526
11
1.85131
21
3.77242
0
LINE
8
BLACK
6
CONTINUOUS
10
1.85131
20
3.77242
11
1.8575
21
3.77861
0
LINE
8
BLACK
6
CONTINUOUS
10
1.8575
20
3.77861
11
1.86467
21
3.78363
0
LINE
8
BLACK
6
CONTINUOUS
10
1.86467
20
3.78363
11
1.8726
21
3.78733
0
LINE
8
BLACK
6
CONTINUOUS
10
1.8726
20
3.78733
11
1.88105
21
3.78959
0
LINE
8
BLACK
6
CONTINUOUS
10
1.88105
20
3.78959
11
1.88976
21
3.79035
0
LINE
8
BLACK
6
CONTINUOUS
10
1.88976
20
3.79035
11
1.89848
21
3.78959
0
LINE
8
BLACK
6
CONTINUOUS
10
1.89848
20
3.78959
11
1.90693
21
3.78733
0
LINE
8
BLACK
6
CONTINUOUS
10
1.90693
20
3.78733
11
1.91486
21
3.78363
0
LINE
8
BLACK
6
CONTINUOUS
10
1.91486
20
3.78363
11
1.92203
21
3.77861
0
LINE
8
BLACK
6
CONTINUOUS
10
1.92203
20
3.77861
11
1.92822
21
3.77242
0
LINE
8
BLACK
6
CONTINUOUS
10
1.92822
20
3.77242
11
1.93324
21
3.76526
0
LINE
8
BLACK
6
CONTINUOUS
10
1.93324
20
3.76526
11
1.93693
21
3.75733
0
LINE
8
BLACK
6
CONTINUOUS
10
1.93693
20
3.75733
11
1.9392
21
3.74887
0
LINE
8
BLACK
6
CONTINUOUS
10
1.9392
20
3.74887
11
1.93996
21
3.74016
0
LINE
8
BLACK
6
CONTINUOUS
10
1.93996
20
3.74016
11
1.9392
21
3.73144
0
LINE
8
BLACK
6
CONTINUOUS
10
1.9392
20
3.73144
11
1.93693
21
3.72299
0
LINE
8
BLACK
6
CONTINUOUS
10
1.93693
20
3.72299
11
1.93324
21
3.71506
0
LINE
8
BLACK
6
CONTINUOUS
10
1.93324
20
3.71506
11
1.92822
21
3.70789
0
LINE
8
BLACK
6
CONTINUOUS
10
1.92822
20
3.70789
11
1.92203
21
3.7017
0
LINE
8
BLACK
6
CONTINUOUS
10
1.92203
20
3.7017
11
1.91486
21
3.69669
0
LINE
8
BLACK
6
CONTINUOUS
10
1.91486
20
3.69669
11
1.90693
21
3.69299
0
LINE
8
BLACK
6
CONTINUOUS
10
1.90693
20
3.69299
11
1.89848
21
3.69072
0
LINE
8
BLACK
6
CONTINUOUS
10
1.89848
20
3.69072
11
1.88976
21
3.68996
0
LINE
8
BLACK
6
CONTINUOUS
10
1.88976
20
3.68996
11
1.88105
21
3.69072
0
LINE
8
BLACK
6
CONTINUOUS
10
1.88105
20
3.69072
11
1.8726
21
3.69299
0
LINE
8
BLACK
6
CONTINUOUS
10
1.8726
20
3.69299
11
1.86467
21
3.69669
0
LINE
8
BLACK
6
CONTINUOUS
10
1.86467
20
3.69669
11
1.8575
21
3.7017
0
LINE
8
BLACK
6
CONTINUOUS
10
1.8575
20
3.7017
11
1.85131
21
3.70789
0
LINE
8
BLACK
6
CONTINUOUS
10
1.85131
20
3.70789
11
1.84629
21
3.71506
0
LINE
8
BLACK
6
CONTINUOUS
10
1.84629
20
3.71506
11
1.84259
21
3.72299
0
LINE
8
BLACK
6
CONTINUOUS
10
1.84259
20
3.72299
11
1.84033
21
3.73144
0
LINE
8
BLACK
6
CONTINUOUS
10
1.84033
20
3.73144
11
1.83957
21
3.74016
0
LINE
8
BLACK
6
CONTINUOUS
10
1.83957
20
3.74016
11
1.84033
21
3.74887
0
LINE
8
BLACK
6
CONTINUOUS
10
1.84033
20
3.74887
11
1.84259
21
3.75733
0
LINE
8
BLACK
6
CONTINUOUS
10
1.84427
20
3.7236
11
1.84784
21
3.71595
0
LINE
8
BLACK
6
CONTINUOUS
10
1.84784
20
3.71595
11
1.85268
21
3.70904
0
LINE
8
BLACK
6
CONTINUOUS
10
1.85268
20
3.70904
11
1.85864
21
3.70307
0
LINE
8
BLACK
6
CONTINUOUS
10
1.85864
20
3.70307
11
1.86556
21
3.69823
0
LINE
8
BLACK
6
CONTINUOUS
10
1.86556
20
3.69823
11
1.87321
21
3.69466
0
LINE
8
BLACK
6
CONTINUOUS
10
1.87321
20
3.69466
11
1.88136
21
3.69248
0
LINE
8
BLACK
6
CONTINUOUS
10
1.88136
20
3.69248
11
1.88976
21
3.69174
0
LINE
8
BLACK
6
CONTINUOUS
10
1.88976
20
3.69174
11
1.89817
21
3.69248
0
LINE
8
BLACK
6
CONTINUOUS
10
1.89817
20
3.69248
11
1.90632
21
3.69466
0
LINE
8
BLACK
6
CONTINUOUS
10
1.90632
20
3.69466
11
1.91397
21
3.69823
0
LINE
8
BLACK
6
CONTINUOUS
10
1.91397
20
3.69823
11
1.92088
21
3.70307
0
LINE
8
BLACK
6
CONTINUOUS
10
1.92088
20
3.70307
11
1.92685
21
3.70904
0
LINE
8
BLACK
6
CONTINUOUS
10
1.92685
20
3.70904
11
1.93169
21
3.71595
0
LINE
8
BLACK
6
CONTINUOUS
10
1.93169
20
3.71595
11
1.93526
21
3.7236
0
LINE
8
BLACK
6
CONTINUOUS
10
1.93526
20
3.7236
11
1.93744
21
3.73175
0
LINE
8
BLACK
6
CONTINUOUS
10
1.93744
20
3.73175
11
1.93818
21
3.74016
0
LINE
8
BLACK
6
CONTINUOUS
10
1.93818
20
3.74016
11
1.93744
21
3.74856
0
LINE
8
BLACK
6
CONTINUOUS
10
1.93744
20
3.74856
11
1.93526
21
3.75672
0
LINE
8
BLACK
6
CONTINUOUS
10
1.93526
20
3.75672
11
1.93169
21
3.76436
0
LINE
8
BLACK
6
CONTINUOUS
10
1.93169
20
3.76436
11
1.92685
21
3.77128
0
LINE
8
BLACK
6
CONTINUOUS
10
1.92685
20
3.77128
11
1.92088
21
3.77724
0
LINE
8
BLACK
6
CONTINUOUS
10
1.92088
20
3.77724
11
1.91397
21
3.78208
0
LINE
8
BLACK
6
CONTINUOUS
10
1.91397
20
3.78208
11
1.90632
21
3.78565
0
LINE
8
BLACK
6
CONTINUOUS
10
1.90632
20
3.78565
11
1.89817
21
3.78783
0
LINE
8
BLACK
6
CONTINUOUS
10
1.89817
20
3.78783
11
1.88976
21
3.78857
0
LINE
8
BLACK
6
CONTINUOUS
10
1.88976
20
3.78857
11
1.88136
21
3.78783
0
LINE
8
BLACK
6
CONTINUOUS
10
1.88136
20
3.78783
11
1.87321
21
3.78565
0
LINE
8
BLACK
6
CONTINUOUS
10
1.87321
20
3.78565
11
1.86556
21
3.78208
0
LINE
8
BLACK
6
CONTINUOUS
10
1.86556
20
3.78208
11
1.85864
21
3.77724
0
LINE
8
BLACK
6
CONTINUOUS
10
1.85864
20
3.77724
11
1.85268
21
3.77128
0
LINE
8
BLACK
6
CONTINUOUS
10
1.85268
20
3.77128
11
1.84784
21
3.76436
0
LINE
8
BLACK
6
CONTINUOUS
10
1.84784
20
3.76436
11
1.84427
21
3.75672
0
LINE
8
BLACK
6
CONTINUOUS
10
1.84427
20
3.75672
11
1.84209
21
3.74856
0
LINE
8
BLACK
6
CONTINUOUS
10
1.84209
20
3.74856
11
1.84135
21
3.74016
0
LINE
8
BLACK
6
CONTINUOUS
10
1.84135
20
3.74016
11
1.84209
21
3.73175
0
LINE
8
BLACK
6
CONTINUOUS
10
1.84209
20
3.73175
11
1.84427
21
3.7236
  0
ENDSEC
  0
EOF
