  0
SECTION
  2
HEADER
  9
$ANGBASE
  50
0.0
  9
$ANGDIR
  70
1
  9
$MEASUREMENT
  70
0
  0
ENDSEC
  0
SECTION
  2
TABLES
  0
TABLE
  2
LTYPE
  70
4
  0
LTYPE
  5
40F
  2
CONTINUOUS
  70
0
  3
Solid line
  72
65
  73
0
  40
0.0
  0
LTYPE
  5
410
  2
DASHDOT
 70
0
  3
Dash Dot ____ _ ____ _
 72
65
 73
4
 40
2.0
 49
1.25
 49
-0.25
 49
0.25
 49
-0.25
  0
LTYPE
  5
411
  2
DASHED
 70
0
  3
Dashed __ __ __ __ __
 72
65
 73
2
 40
0.75
 49
0.5
 49
-0.25
  0
LTYPE
  5
43B
  2
DOTTED
 70
0
  3
Dotted .  .  .  .
 72
65
 73
2
 40
0.2
 49
0.0
 49
-0.2
  0
ENDTAB
  0
TABLE
  2
STYLE
  70
4
  0
STYLE
  2
KICAD
  70
0
  40
0
  41
1
  42
1
  50
0
  71
0
  3
isocp.shx
  0
STYLE
  2
KICADB
  70
0
  40
0
  41
1
  42
1
  50
0
  71
0
  3
isocp.shx
  0
STYLE
  2
KICADI
  70
0
  40
0
  41
1
  42
1
  50
15
  71
0
  3
isocp.shx
  0
STYLE
  2
KICADBI
  70
0
  40
0
  41
1
  42
1
  50
15
  71
0
  3
isocp.shx
  0
ENDTAB
  0
TABLE
  2
LAYER
  70
1
  0
LAYER
  2
BLACK
  70
0
  62
7
  6
CONTINUOUS
  0
ENDTAB
  0
ENDSEC
  0
SECTION
  2
ENTITIES
0
LINE
8
BLACK
6
CONTINUOUS
10
3.15952
20
-6.01682
11
3.16107
21
-6.01811
0
LINE
8
BLACK
6
CONTINUOUS
10
3.16107
20
-6.01811
11
3.16142
21
-6.0201
0
LINE
8
BLACK
6
CONTINUOUS
10
3.16142
20
-6.0201
11
3.16041
21
-6.02185
0
LINE
8
BLACK
6
CONTINUOUS
10
3.16041
20
-6.02185
11
3.15851
21
-6.02254
0
LINE
8
BLACK
6
CONTINUOUS
10
3.15851
20
-6.02254
11
3.12852
21
-6.02254
0
LINE
8
BLACK
6
CONTINUOUS
10
3.12852
20
-6.02254
11
3.12751
21
-6.02237
0
LINE
8
BLACK
6
CONTINUOUS
10
3.12751
20
-6.02237
11
3.12596
21
-6.02107
0
LINE
8
BLACK
6
CONTINUOUS
10
3.12596
20
-6.02107
11
3.12561
21
-6.01908
0
LINE
8
BLACK
6
CONTINUOUS
10
3.12561
20
-6.01908
11
3.12662
21
-6.01733
0
LINE
8
BLACK
6
CONTINUOUS
10
3.12662
20
-6.01733
11
3.12852
21
-6.01664
0
LINE
8
BLACK
6
CONTINUOUS
10
3.12852
20
-6.01664
11
3.15851
21
-6.01664
0
LINE
8
BLACK
6
CONTINUOUS
10
3.15851
20
-6.01664
11
3.15952
21
-6.01682
0
LINE
8
BLACK
6
CONTINUOUS
10
3.03579
20
-5.9737
11
3.03592
21
-5.97381
0
LINE
8
BLACK
6
CONTINUOUS
10
3.03592
20
-5.97381
11
3.0361
21
-5.97383
0
LINE
8
BLACK
6
CONTINUOUS
10
3.0361
20
-5.97383
11
3.03985
21
-5.97571
0
LINE
8
BLACK
6
CONTINUOUS
10
3.03985
20
-5.97571
11
3.04067
21
-5.97632
0
LINE
8
BLACK
6
CONTINUOUS
10
3.04067
20
-5.97632
11
3.04147
21
-5.97817
0
LINE
8
BLACK
6
CONTINUOUS
10
3.04147
20
-5.97817
11
3.0409
21
-5.98011
0
LINE
8
BLACK
6
CONTINUOUS
10
3.0409
20
-5.98011
11
3.03921
21
-5.98122
0
LINE
8
BLACK
6
CONTINUOUS
10
3.03921
20
-5.98122
11
3.03721
21
-5.98099
0
LINE
8
BLACK
6
CONTINUOUS
10
3.03721
20
-5.98099
11
3.03408
21
-5.97942
0
LINE
8
BLACK
6
CONTINUOUS
10
3.03408
20
-5.97942
11
3.02963
21
-5.97942
0
LINE
8
BLACK
6
CONTINUOUS
10
3.02963
20
-5.97942
11
3.02512
21
-5.98093
0
LINE
8
BLACK
6
CONTINUOUS
10
3.02512
20
-5.98093
11
3.02221
21
-5.98385
0
LINE
8
BLACK
6
CONTINUOUS
10
3.02221
20
-5.98385
11
3.02069
21
-5.98688
0
LINE
8
BLACK
6
CONTINUOUS
10
3.02069
20
-5.98688
11
3.01898
21
-5.99371
0
LINE
8
BLACK
6
CONTINUOUS
10
3.01898
20
-5.99371
11
3.01898
21
-5.99861
0
LINE
8
BLACK
6
CONTINUOUS
10
3.01898
20
-5.99861
11
3.02069
21
-6.00544
0
LINE
8
BLACK
6
CONTINUOUS
10
3.02069
20
-6.00544
11
3.02221
21
-6.00847
0
LINE
8
BLACK
6
CONTINUOUS
10
3.02221
20
-6.00847
11
3.02512
21
-6.01139
0
LINE
8
BLACK
6
CONTINUOUS
10
3.02512
20
-6.01139
11
3.02963
21
-6.01289
0
LINE
8
BLACK
6
CONTINUOUS
10
3.02963
20
-6.01289
11
3.03242
21
-6.01289
0
LINE
8
BLACK
6
CONTINUOUS
10
3.03242
20
-6.01289
11
3.03693
21
-6.01139
0
LINE
8
BLACK
6
CONTINUOUS
10
3.03693
20
-6.01139
11
3.03745
21
-6.01087
0
LINE
8
BLACK
6
CONTINUOUS
10
3.03745
20
-6.01087
11
3.03745
21
-6.00192
0
LINE
8
BLACK
6
CONTINUOUS
10
3.03745
20
-6.00192
11
3.0329
21
-6.00192
0
LINE
8
BLACK
6
CONTINUOUS
10
3.0329
20
-6.00192
11
3.03189
21
-6.00174
0
LINE
8
BLACK
6
CONTINUOUS
10
3.03189
20
-6.00174
11
3.03034
21
-6.00045
0
LINE
8
BLACK
6
CONTINUOUS
10
3.03034
20
-6.00045
11
3.02999
21
-5.99846
0
LINE
8
BLACK
6
CONTINUOUS
10
3.02999
20
-5.99846
11
3.031
21
-5.99671
0
LINE
8
BLACK
6
CONTINUOUS
10
3.031
20
-5.99671
11
3.0329
21
-5.99602
0
LINE
8
BLACK
6
CONTINUOUS
10
3.0329
20
-5.99602
11
3.0404
21
-5.99602
0
LINE
8
BLACK
6
CONTINUOUS
10
3.0404
20
-5.99602
11
3.04078
21
-5.99608
0
LINE
8
BLACK
6
CONTINUOUS
10
3.04078
20
-5.99608
11
3.04091
21
-5.99606
0
LINE
8
BLACK
6
CONTINUOUS
10
3.04091
20
-5.99606
11
3.04103
21
-5.99613
0
LINE
8
BLACK
6
CONTINUOUS
10
3.04103
20
-5.99613
11
3.04141
21
-5.99619
0
LINE
8
BLACK
6
CONTINUOUS
10
3.04141
20
-5.99619
11
3.042
21
-5.99669
0
LINE
8
BLACK
6
CONTINUOUS
10
3.042
20
-5.99669
11
3.04266
21
-5.99707
0
LINE
8
BLACK
6
CONTINUOUS
10
3.04266
20
-5.99707
11
3.04275
21
-5.99732
0
LINE
8
BLACK
6
CONTINUOUS
10
3.04275
20
-5.99732
11
3.04296
21
-5.99749
0
LINE
8
BLACK
6
CONTINUOUS
10
3.04296
20
-5.99749
11
3.04309
21
-5.99825
0
LINE
8
BLACK
6
CONTINUOUS
10
3.04309
20
-5.99825
11
3.04335
21
-5.99897
0
LINE
8
BLACK
6
CONTINUOUS
10
3.04335
20
-5.99897
11
3.04335
21
-6.01209
0
LINE
8
BLACK
6
CONTINUOUS
10
3.04335
20
-6.01209
11
3.04332
21
-6.01227
0
LINE
8
BLACK
6
CONTINUOUS
10
3.04332
20
-6.01227
11
3.04334
21
-6.01235
0
LINE
8
BLACK
6
CONTINUOUS
10
3.04334
20
-6.01235
11
3.04329
21
-6.01247
0
LINE
8
BLACK
6
CONTINUOUS
10
3.04329
20
-6.01247
11
3.04318
21
-6.0131
0
LINE
8
BLACK
6
CONTINUOUS
10
3.04318
20
-6.0131
11
3.04276
21
-6.0136
0
LINE
8
BLACK
6
CONTINUOUS
10
3.04276
20
-6.0136
11
3.04249
21
-6.01418
0
LINE
8
BLACK
6
CONTINUOUS
10
3.04249
20
-6.01418
11
3.04061
21
-6.01605
0
LINE
8
BLACK
6
CONTINUOUS
10
3.04061
20
-6.01605
11
3.03977
21
-6.01664
0
LINE
8
BLACK
6
CONTINUOUS
10
3.03977
20
-6.01664
11
3.0396
21
-6.01666
0
LINE
8
BLACK
6
CONTINUOUS
10
3.0396
20
-6.01666
11
3.03946
21
-6.01677
0
LINE
8
BLACK
6
CONTINUOUS
10
3.03946
20
-6.01677
11
3.03384
21
-6.01864
0
LINE
8
BLACK
6
CONTINUOUS
10
3.03384
20
-6.01864
11
3.03296
21
-6.01877
0
LINE
8
BLACK
6
CONTINUOUS
10
3.03296
20
-6.01877
11
3.0329
21
-6.01879
0
LINE
8
BLACK
6
CONTINUOUS
10
3.0329
20
-6.01879
11
3.02915
21
-6.01879
0
LINE
8
BLACK
6
CONTINUOUS
10
3.02915
20
-6.01879
11
3.02828
21
-6.01864
0
LINE
8
BLACK
6
CONTINUOUS
10
3.02828
20
-6.01864
11
3.02822
21
-6.01864
0
LINE
8
BLACK
6
CONTINUOUS
10
3.02822
20
-6.01864
11
3.02259
21
-6.01677
0
LINE
8
BLACK
6
CONTINUOUS
10
3.02259
20
-6.01677
11
3.02169
21
-6.01628
0
LINE
8
BLACK
6
CONTINUOUS
10
3.02169
20
-6.01628
11
3.0216
21
-6.01613
0
LINE
8
BLACK
6
CONTINUOUS
10
3.0216
20
-6.01613
11
3.02144
21
-6.01605
0
LINE
8
BLACK
6
CONTINUOUS
10
3.02144
20
-6.01605
11
3.01769
21
-6.01231
0
LINE
8
BLACK
6
CONTINUOUS
10
3.01769
20
-6.01231
11
3.01718
21
-6.01158
0
LINE
8
BLACK
6
CONTINUOUS
10
3.01718
20
-6.01158
11
3.01714
21
-6.01154
0
LINE
8
BLACK
6
CONTINUOUS
10
3.01714
20
-6.01154
11
3.01526
21
-6.00779
0
LINE
8
BLACK
6
CONTINUOUS
10
3.01526
20
-6.00779
11
3.01512
21
-6.0073
0
LINE
8
BLACK
6
CONTINUOUS
10
3.01512
20
-6.0073
11
3.01504
21
-6.00718
0
LINE
8
BLACK
6
CONTINUOUS
10
3.01504
20
-6.00718
11
3.01316
21
-5.99968
0
LINE
8
BLACK
6
CONTINUOUS
10
3.01316
20
-5.99968
11
3.01312
21
-5.9991
0
LINE
8
BLACK
6
CONTINUOUS
10
3.01312
20
-5.9991
11
3.01308
21
-5.99897
0
LINE
8
BLACK
6
CONTINUOUS
10
3.01308
20
-5.99897
11
3.01308
21
-5.99334
0
LINE
8
BLACK
6
CONTINUOUS
10
3.01308
20
-5.99334
11
3.01318
21
-5.99276
0
LINE
8
BLACK
6
CONTINUOUS
10
3.01318
20
-5.99276
11
3.01316
21
-5.99263
0
LINE
8
BLACK
6
CONTINUOUS
10
3.01316
20
-5.99263
11
3.01504
21
-5.98513
0
LINE
8
BLACK
6
CONTINUOUS
10
3.01504
20
-5.98513
11
3.01525
21
-5.98466
0
LINE
8
BLACK
6
CONTINUOUS
10
3.01525
20
-5.98466
11
3.01526
21
-5.98452
0
LINE
8
BLACK
6
CONTINUOUS
10
3.01526
20
-5.98452
11
3.01714
21
-5.98078
0
LINE
8
BLACK
6
CONTINUOUS
10
3.01714
20
-5.98078
11
3.01766
21
-5.98007
0
LINE
8
BLACK
6
CONTINUOUS
10
3.01766
20
-5.98007
11
3.01769
21
-5.98001
0
LINE
8
BLACK
6
CONTINUOUS
10
3.01769
20
-5.98001
11
3.02144
21
-5.97626
0
LINE
8
BLACK
6
CONTINUOUS
10
3.02144
20
-5.97626
11
3.02228
21
-5.97567
0
LINE
8
BLACK
6
CONTINUOUS
10
3.02228
20
-5.97567
11
3.02246
21
-5.97565
0
LINE
8
BLACK
6
CONTINUOUS
10
3.02246
20
-5.97565
11
3.02259
21
-5.97555
0
LINE
8
BLACK
6
CONTINUOUS
10
3.02259
20
-5.97555
11
3.02822
21
-5.97367
0
LINE
8
BLACK
6
CONTINUOUS
10
3.02822
20
-5.97367
11
3.02909
21
-5.97354
0
LINE
8
BLACK
6
CONTINUOUS
10
3.02909
20
-5.97354
11
3.02915
21
-5.97352
0
LINE
8
BLACK
6
CONTINUOUS
10
3.02915
20
-5.97352
11
3.03478
21
-5.97352
0
LINE
8
BLACK
6
CONTINUOUS
10
3.03478
20
-5.97352
11
3.03579
21
-5.9737
0
LINE
8
BLACK
6
CONTINUOUS
10
3.25124
20
-5.97367
11
3.25131
21
-5.97367
0
LINE
8
BLACK
6
CONTINUOUS
10
3.25131
20
-5.97367
11
3.25693
21
-5.97555
0
LINE
8
BLACK
6
CONTINUOUS
10
3.25693
20
-5.97555
11
3.25783
21
-5.97603
0
LINE
8
BLACK
6
CONTINUOUS
10
3.25783
20
-5.97603
11
3.25793
21
-5.97618
0
LINE
8
BLACK
6
CONTINUOUS
10
3.25793
20
-5.97618
11
3.25809
21
-5.97626
0
LINE
8
BLACK
6
CONTINUOUS
10
3.25809
20
-5.97626
11
3.26184
21
-5.98001
0
LINE
8
BLACK
6
CONTINUOUS
10
3.26184
20
-5.98001
11
3.26234
21
-5.98073
0
LINE
8
BLACK
6
CONTINUOUS
10
3.26234
20
-5.98073
11
3.26239
21
-5.98078
0
LINE
8
BLACK
6
CONTINUOUS
10
3.26239
20
-5.98078
11
3.26426
21
-5.98452
0
LINE
8
BLACK
6
CONTINUOUS
10
3.26426
20
-5.98452
11
3.26441
21
-5.98501
0
LINE
8
BLACK
6
CONTINUOUS
10
3.26441
20
-5.98501
11
3.26449
21
-5.98513
0
LINE
8
BLACK
6
CONTINUOUS
10
3.26449
20
-5.98513
11
3.26636
21
-5.99263
0
LINE
8
BLACK
6
CONTINUOUS
10
3.26636
20
-5.99263
11
3.2664
21
-5.99322
0
LINE
8
BLACK
6
CONTINUOUS
10
3.2664
20
-5.99322
11
3.26645
21
-5.99334
0
LINE
8
BLACK
6
CONTINUOUS
10
3.26645
20
-5.99334
11
3.26645
21
-5.99897
0
LINE
8
BLACK
6
CONTINUOUS
10
3.26645
20
-5.99897
11
3.26635
21
-5.99955
0
LINE
8
BLACK
6
CONTINUOUS
10
3.26635
20
-5.99955
11
3.26636
21
-5.99968
0
LINE
8
BLACK
6
CONTINUOUS
10
3.26636
20
-5.99968
11
3.26449
21
-6.00718
0
LINE
8
BLACK
6
CONTINUOUS
10
3.26449
20
-6.00718
11
3.26428
21
-6.00765
0
LINE
8
BLACK
6
CONTINUOUS
10
3.26428
20
-6.00765
11
3.26426
21
-6.00779
0
LINE
8
BLACK
6
CONTINUOUS
10
3.26426
20
-6.00779
11
3.26239
21
-6.01154
0
LINE
8
BLACK
6
CONTINUOUS
10
3.26239
20
-6.01154
11
3.26186
21
-6.01225
0
LINE
8
BLACK
6
CONTINUOUS
10
3.26186
20
-6.01225
11
3.26184
21
-6.01231
0
LINE
8
BLACK
6
CONTINUOUS
10
3.26184
20
-6.01231
11
3.25809
21
-6.01605
0
LINE
8
BLACK
6
CONTINUOUS
10
3.25809
20
-6.01605
11
3.25725
21
-6.01664
0
LINE
8
BLACK
6
CONTINUOUS
10
3.25725
20
-6.01664
11
3.25707
21
-6.01666
0
LINE
8
BLACK
6
CONTINUOUS
10
3.25707
20
-6.01666
11
3.25693
21
-6.01677
0
LINE
8
BLACK
6
CONTINUOUS
10
3.25693
20
-6.01677
11
3.25131
21
-6.01864
0
LINE
8
BLACK
6
CONTINUOUS
10
3.25131
20
-6.01864
11
3.25044
21
-6.01877
0
LINE
8
BLACK
6
CONTINUOUS
10
3.25044
20
-6.01877
11
3.25037
21
-6.01879
0
LINE
8
BLACK
6
CONTINUOUS
10
3.25037
20
-6.01879
11
3.241
21
-6.01879
0
LINE
8
BLACK
6
CONTINUOUS
10
3.241
20
-6.01879
11
3.24062
21
-6.01873
0
LINE
8
BLACK
6
CONTINUOUS
10
3.24062
20
-6.01873
11
3.24049
21
-6.01875
0
LINE
8
BLACK
6
CONTINUOUS
10
3.24049
20
-6.01875
11
3.24037
21
-6.01868
0
LINE
8
BLACK
6
CONTINUOUS
10
3.24037
20
-6.01868
11
3.23999
21
-6.01862
0
LINE
8
BLACK
6
CONTINUOUS
10
3.23999
20
-6.01862
11
3.2394
21
-6.01812
0
LINE
8
BLACK
6
CONTINUOUS
10
3.2394
20
-6.01812
11
3.23874
21
-6.01774
0
LINE
8
BLACK
6
CONTINUOUS
10
3.23874
20
-6.01774
11
3.23865
21
-6.01749
0
LINE
8
BLACK
6
CONTINUOUS
10
3.23865
20
-6.01749
11
3.23844
21
-6.01732
0
LINE
8
BLACK
6
CONTINUOUS
10
3.23844
20
-6.01732
11
3.23831
21
-6.01656
0
LINE
8
BLACK
6
CONTINUOUS
10
3.23831
20
-6.01656
11
3.23805
21
-6.01584
0
LINE
8
BLACK
6
CONTINUOUS
10
3.23805
20
-6.01584
11
3.23805
21
-5.97647
0
LINE
8
BLACK
6
CONTINUOUS
10
3.23805
20
-5.97647
11
3.23812
21
-5.97609
0
LINE
8
BLACK
6
CONTINUOUS
10
3.23812
20
-5.97609
11
3.23809
21
-5.97596
0
LINE
8
BLACK
6
CONTINUOUS
10
3.23809
20
-5.97596
11
3.23816
21
-5.97585
0
LINE
8
BLACK
6
CONTINUOUS
10
3.23816
20
-5.97585
11
3.23823
21
-5.97546
0
LINE
8
BLACK
6
CONTINUOUS
10
3.23823
20
-5.97546
11
3.23872
21
-5.97487
0
LINE
8
BLACK
6
CONTINUOUS
10
3.23872
20
-5.97487
11
3.2391
21
-5.97421
0
LINE
8
BLACK
6
CONTINUOUS
10
3.2391
20
-5.97421
11
3.23935
21
-5.97412
0
LINE
8
BLACK
6
CONTINUOUS
10
3.23935
20
-5.97412
11
3.23952
21
-5.97391
0
LINE
8
BLACK
6
CONTINUOUS
10
3.23952
20
-5.97391
11
3.24028
21
-5.97378
0
LINE
8
BLACK
6
CONTINUOUS
10
3.24028
20
-5.97378
11
3.241
21
-5.97352
0
LINE
8
BLACK
6
CONTINUOUS
10
3.241
20
-5.97352
11
3.25037
21
-5.97352
0
LINE
8
BLACK
6
CONTINUOUS
10
3.25037
20
-5.97352
11
3.25124
21
-5.97367
0
LINE
8
BLACK
6
CONTINUOUS
10
3.24395
20
-5.97942
11
3.24395
21
-6.01289
0
LINE
8
BLACK
6
CONTINUOUS
10
3.24395
20
-6.01289
11
3.2499
21
-6.01289
0
LINE
8
BLACK
6
CONTINUOUS
10
3.2499
20
-6.01289
11
3.2544
21
-6.01139
0
LINE
8
BLACK
6
CONTINUOUS
10
3.2544
20
-6.01139
11
3.25732
21
-6.00847
0
LINE
8
BLACK
6
CONTINUOUS
10
3.25732
20
-6.00847
11
3.25884
21
-6.00544
0
LINE
8
BLACK
6
CONTINUOUS
10
3.25884
20
-6.00544
11
3.26055
21
-5.99861
0
LINE
8
BLACK
6
CONTINUOUS
10
3.26055
20
-5.99861
11
3.26055
21
-5.99371
0
LINE
8
BLACK
6
CONTINUOUS
10
3.26055
20
-5.99371
11
3.25884
21
-5.98688
0
LINE
8
BLACK
6
CONTINUOUS
10
3.25884
20
-5.98688
11
3.25732
21
-5.98385
0
LINE
8
BLACK
6
CONTINUOUS
10
3.25732
20
-5.98385
11
3.2544
21
-5.98093
0
LINE
8
BLACK
6
CONTINUOUS
10
3.2544
20
-5.98093
11
3.2499
21
-5.97942
0
LINE
8
BLACK
6
CONTINUOUS
10
3.2499
20
-5.97942
11
3.24395
21
-5.97942
0
LINE
8
BLACK
6
CONTINUOUS
10
3.10876
20
-5.97367
11
3.10883
21
-5.97367
0
LINE
8
BLACK
6
CONTINUOUS
10
3.10883
20
-5.97367
11
3.11445
21
-5.97555
0
LINE
8
BLACK
6
CONTINUOUS
10
3.11445
20
-5.97555
11
3.11535
21
-5.97603
0
LINE
8
BLACK
6
CONTINUOUS
10
3.11535
20
-5.97603
11
3.11544
21
-5.97618
0
LINE
8
BLACK
6
CONTINUOUS
10
3.11544
20
-5.97618
11
3.1156
21
-5.97626
0
LINE
8
BLACK
6
CONTINUOUS
10
3.1156
20
-5.97626
11
3.11935
21
-5.98001
0
LINE
8
BLACK
6
CONTINUOUS
10
3.11935
20
-5.98001
11
3.11986
21
-5.98073
0
LINE
8
BLACK
6
CONTINUOUS
10
3.11986
20
-5.98073
11
3.11991
21
-5.98078
0
LINE
8
BLACK
6
CONTINUOUS
10
3.11991
20
-5.98078
11
3.12178
21
-5.98452
0
LINE
8
BLACK
6
CONTINUOUS
10
3.12178
20
-5.98452
11
3.12193
21
-5.98501
0
LINE
8
BLACK
6
CONTINUOUS
10
3.12193
20
-5.98501
11
3.12201
21
-5.98513
0
LINE
8
BLACK
6
CONTINUOUS
10
3.12201
20
-5.98513
11
3.12388
21
-5.99263
0
LINE
8
BLACK
6
CONTINUOUS
10
3.12388
20
-5.99263
11
3.12392
21
-5.99322
0
LINE
8
BLACK
6
CONTINUOUS
10
3.12392
20
-5.99322
11
3.12397
21
-5.99334
0
LINE
8
BLACK
6
CONTINUOUS
10
3.12397
20
-5.99334
11
3.12397
21
-5.99897
0
LINE
8
BLACK
6
CONTINUOUS
10
3.12397
20
-5.99897
11
3.12387
21
-5.99955
0
LINE
8
BLACK
6
CONTINUOUS
10
3.12387
20
-5.99955
11
3.12388
21
-5.99968
0
LINE
8
BLACK
6
CONTINUOUS
10
3.12388
20
-5.99968
11
3.12201
21
-6.00718
0
LINE
8
BLACK
6
CONTINUOUS
10
3.12201
20
-6.00718
11
3.1218
21
-6.00765
0
LINE
8
BLACK
6
CONTINUOUS
10
3.1218
20
-6.00765
11
3.12178
21
-6.00779
0
LINE
8
BLACK
6
CONTINUOUS
10
3.12178
20
-6.00779
11
3.11991
21
-6.01154
0
LINE
8
BLACK
6
CONTINUOUS
10
3.11991
20
-6.01154
11
3.11938
21
-6.01225
0
LINE
8
BLACK
6
CONTINUOUS
10
3.11938
20
-6.01225
11
3.11935
21
-6.01231
0
LINE
8
BLACK
6
CONTINUOUS
10
3.11935
20
-6.01231
11
3.1156
21
-6.01605
0
LINE
8
BLACK
6
CONTINUOUS
10
3.1156
20
-6.01605
11
3.11476
21
-6.01664
0
LINE
8
BLACK
6
CONTINUOUS
10
3.11476
20
-6.01664
11
3.11459
21
-6.01666
0
LINE
8
BLACK
6
CONTINUOUS
10
3.11459
20
-6.01666
11
3.11445
21
-6.01677
0
LINE
8
BLACK
6
CONTINUOUS
10
3.11445
20
-6.01677
11
3.10883
21
-6.01864
0
LINE
8
BLACK
6
CONTINUOUS
10
3.10883
20
-6.01864
11
3.10795
21
-6.01877
0
LINE
8
BLACK
6
CONTINUOUS
10
3.10795
20
-6.01877
11
3.10789
21
-6.01879
0
LINE
8
BLACK
6
CONTINUOUS
10
3.10789
20
-6.01879
11
3.09852
21
-6.01879
0
LINE
8
BLACK
6
CONTINUOUS
10
3.09852
20
-6.01879
11
3.09814
21
-6.01873
0
LINE
8
BLACK
6
CONTINUOUS
10
3.09814
20
-6.01873
11
3.09801
21
-6.01875
0
LINE
8
BLACK
6
CONTINUOUS
10
3.09801
20
-6.01875
11
3.09789
21
-6.01868
0
LINE
8
BLACK
6
CONTINUOUS
10
3.09789
20
-6.01868
11
3.09751
21
-6.01862
0
LINE
8
BLACK
6
CONTINUOUS
10
3.09751
20
-6.01862
11
3.09692
21
-6.01812
0
LINE
8
BLACK
6
CONTINUOUS
10
3.09692
20
-6.01812
11
3.09626
21
-6.01774
0
LINE
8
BLACK
6
CONTINUOUS
10
3.09626
20
-6.01774
11
3.09617
21
-6.01749
0
LINE
8
BLACK
6
CONTINUOUS
10
3.09617
20
-6.01749
11
3.09596
21
-6.01732
0
LINE
8
BLACK
6
CONTINUOUS
10
3.09596
20
-6.01732
11
3.09583
21
-6.01656
0
LINE
8
BLACK
6
CONTINUOUS
10
3.09583
20
-6.01656
11
3.09557
21
-6.01584
0
LINE
8
BLACK
6
CONTINUOUS
10
3.09557
20
-6.01584
11
3.09557
21
-5.97647
0
LINE
8
BLACK
6
CONTINUOUS
10
3.09557
20
-5.97647
11
3.09563
21
-5.97609
0
LINE
8
BLACK
6
CONTINUOUS
10
3.09563
20
-5.97609
11
3.09561
21
-5.97596
0
LINE
8
BLACK
6
CONTINUOUS
10
3.09561
20
-5.97596
11
3.09568
21
-5.97585
0
LINE
8
BLACK
6
CONTINUOUS
10
3.09568
20
-5.97585
11
3.09574
21
-5.97546
0
LINE
8
BLACK
6
CONTINUOUS
10
3.09574
20
-5.97546
11
3.09624
21
-5.97487
0
LINE
8
BLACK
6
CONTINUOUS
10
3.09624
20
-5.97487
11
3.09662
21
-5.97421
0
LINE
8
BLACK
6
CONTINUOUS
10
3.09662
20
-5.97421
11
3.09687
21
-5.97412
0
LINE
8
BLACK
6
CONTINUOUS
10
3.09687
20
-5.97412
11
3.09704
21
-5.97391
0
LINE
8
BLACK
6
CONTINUOUS
10
3.09704
20
-5.97391
11
3.0978
21
-5.97378
0
LINE
8
BLACK
6
CONTINUOUS
10
3.0978
20
-5.97378
11
3.09852
21
-5.97352
0
LINE
8
BLACK
6
CONTINUOUS
10
3.09852
20
-5.97352
11
3.10789
21
-5.97352
0
LINE
8
BLACK
6
CONTINUOUS
10
3.10789
20
-5.97352
11
3.10876
21
-5.97367
0
LINE
8
BLACK
6
CONTINUOUS
10
3.10147
20
-5.97942
11
3.10147
21
-6.01289
0
LINE
8
BLACK
6
CONTINUOUS
10
3.10147
20
-6.01289
11
3.10741
21
-6.01289
0
LINE
8
BLACK
6
CONTINUOUS
10
3.10741
20
-6.01289
11
3.11192
21
-6.01139
0
LINE
8
BLACK
6
CONTINUOUS
10
3.11192
20
-6.01139
11
3.11484
21
-6.00847
0
LINE
8
BLACK
6
CONTINUOUS
10
3.11484
20
-6.00847
11
3.11636
21
-6.00544
0
LINE
8
BLACK
6
CONTINUOUS
10
3.11636
20
-6.00544
11
3.11806
21
-5.99861
0
LINE
8
BLACK
6
CONTINUOUS
10
3.11806
20
-5.99861
11
3.11806
21
-5.99371
0
LINE
8
BLACK
6
CONTINUOUS
10
3.11806
20
-5.99371
11
3.11636
21
-5.98688
0
LINE
8
BLACK
6
CONTINUOUS
10
3.11636
20
-5.98688
11
3.11484
21
-5.98385
0
LINE
8
BLACK
6
CONTINUOUS
10
3.11484
20
-5.98385
11
3.11192
21
-5.98093
0
LINE
8
BLACK
6
CONTINUOUS
10
3.11192
20
-5.98093
11
3.10741
21
-5.97942
0
LINE
8
BLACK
6
CONTINUOUS
10
3.10741
20
-5.97942
11
3.10147
21
-5.97942
0
LINE
8
BLACK
6
CONTINUOUS
10
3.21524
20
-5.97374
11
3.21616
21
-5.97388
0
LINE
8
BLACK
6
CONTINUOUS
10
3.21616
20
-5.97388
11
3.21622
21
-5.97394
0
LINE
8
BLACK
6
CONTINUOUS
10
3.21622
20
-5.97394
11
3.2163
21
-5.97396
0
LINE
8
BLACK
6
CONTINUOUS
10
3.2163
20
-5.97396
11
3.21688
21
-5.97469
0
LINE
8
BLACK
6
CONTINUOUS
10
3.21688
20
-5.97469
11
3.2175
21
-5.97539
0
LINE
8
BLACK
6
CONTINUOUS
10
3.2175
20
-5.97539
11
3.2175
21
-5.97547
0
LINE
8
BLACK
6
CONTINUOUS
10
3.2175
20
-5.97547
11
3.21756
21
-5.97554
0
LINE
8
BLACK
6
CONTINUOUS
10
3.21756
20
-5.97554
11
3.23068
21
-6.01491
0
LINE
8
BLACK
6
CONTINUOUS
10
3.23068
20
-6.01491
11
3.23083
21
-6.01592
0
LINE
8
BLACK
6
CONTINUOUS
10
3.23083
20
-6.01592
11
3.23009
21
-6.0178
0
LINE
8
BLACK
6
CONTINUOUS
10
3.23009
20
-6.0178
11
3.22831
21
-6.01876
0
LINE
8
BLACK
6
CONTINUOUS
10
3.22831
20
-6.01876
11
3.22633
21
-6.01836
0
LINE
8
BLACK
6
CONTINUOUS
10
3.22633
20
-6.01836
11
3.22508
21
-6.01678
0
LINE
8
BLACK
6
CONTINUOUS
10
3.22508
20
-6.01678
11
3.222
21
-6.00755
0
LINE
8
BLACK
6
CONTINUOUS
10
3.222
20
-6.00755
11
3.20751
21
-6.00755
0
LINE
8
BLACK
6
CONTINUOUS
10
3.20751
20
-6.00755
11
3.20443
21
-6.01678
0
LINE
8
BLACK
6
CONTINUOUS
10
3.20443
20
-6.01678
11
3.20394
21
-6.01768
0
LINE
8
BLACK
6
CONTINUOUS
10
3.20394
20
-6.01768
11
3.20222
21
-6.01873
0
LINE
8
BLACK
6
CONTINUOUS
10
3.20222
20
-6.01873
11
3.20023
21
-6.01844
0
LINE
8
BLACK
6
CONTINUOUS
10
3.20023
20
-6.01844
11
3.19888
21
-6.01693
0
LINE
8
BLACK
6
CONTINUOUS
10
3.19888
20
-6.01693
11
3.19883
21
-6.01491
0
LINE
8
BLACK
6
CONTINUOUS
10
3.19883
20
-6.01491
11
3.21195
21
-5.97554
0
LINE
8
BLACK
6
CONTINUOUS
10
3.21195
20
-5.97554
11
3.21244
21
-5.97464
0
LINE
8
BLACK
6
CONTINUOUS
10
3.21244
20
-5.97464
11
3.21251
21
-5.97459
0
LINE
8
BLACK
6
CONTINUOUS
10
3.21251
20
-5.97459
11
3.21255
21
-5.97451
0
LINE
8
BLACK
6
CONTINUOUS
10
3.21255
20
-5.97451
11
3.21337
21
-5.97407
0
LINE
8
BLACK
6
CONTINUOUS
10
3.21337
20
-5.97407
11
3.21416
21
-5.97358
0
LINE
8
BLACK
6
CONTINUOUS
10
3.21416
20
-5.97358
11
3.21425
21
-5.97359
0
LINE
8
BLACK
6
CONTINUOUS
10
3.21425
20
-5.97359
11
3.21432
21
-5.97355
0
LINE
8
BLACK
6
CONTINUOUS
10
3.21432
20
-5.97355
11
3.21524
21
-5.97374
0
LINE
8
BLACK
6
CONTINUOUS
10
3.20948
20
-6.00164
11
3.22003
21
-6.00164
0
LINE
8
BLACK
6
CONTINUOUS
10
3.22003
20
-6.00164
11
3.21475
21
-5.98581
0
LINE
8
BLACK
6
CONTINUOUS
10
3.21475
20
-5.98581
11
3.20948
21
-6.00164
0
LINE
8
BLACK
6
CONTINUOUS
10
3.18389
20
-5.9737
11
3.18403
21
-5.97381
0
LINE
8
BLACK
6
CONTINUOUS
10
3.18403
20
-5.97381
11
3.1842
21
-5.97383
0
LINE
8
BLACK
6
CONTINUOUS
10
3.1842
20
-5.97383
11
3.18795
21
-5.97571
0
LINE
8
BLACK
6
CONTINUOUS
10
3.18795
20
-5.97571
11
3.18866
21
-5.97623
0
LINE
8
BLACK
6
CONTINUOUS
10
3.18866
20
-5.97623
11
3.18872
21
-5.97626
0
LINE
8
BLACK
6
CONTINUOUS
10
3.18872
20
-5.97626
11
3.1906
21
-5.97813
0
LINE
8
BLACK
6
CONTINUOUS
10
3.1906
20
-5.97813
11
3.1911
21
-5.97886
0
LINE
8
BLACK
6
CONTINUOUS
10
3.1911
20
-5.97886
11
3.19115
21
-5.9789
0
LINE
8
BLACK
6
CONTINUOUS
10
3.19115
20
-5.9789
11
3.19302
21
-5.98265
0
LINE
8
BLACK
6
CONTINUOUS
10
3.19302
20
-5.98265
11
3.19332
21
-5.98363
0
LINE
8
BLACK
6
CONTINUOUS
10
3.19332
20
-5.98363
11
3.19327
21
-5.9838
0
LINE
8
BLACK
6
CONTINUOUS
10
3.19327
20
-5.9838
11
3.19334
21
-5.98397
0
LINE
8
BLACK
6
CONTINUOUS
10
3.19334
20
-5.98397
11
3.19334
21
-5.9896
0
LINE
8
BLACK
6
CONTINUOUS
10
3.19334
20
-5.9896
11
3.19316
21
-5.9906
0
LINE
8
BLACK
6
CONTINUOUS
10
3.19316
20
-5.9906
11
3.19304
21
-5.99074
0
LINE
8
BLACK
6
CONTINUOUS
10
3.19304
20
-5.99074
11
3.19302
21
-5.99092
0
LINE
8
BLACK
6
CONTINUOUS
10
3.19302
20
-5.99092
11
3.19115
21
-5.99467
0
LINE
8
BLACK
6
CONTINUOUS
10
3.19115
20
-5.99467
11
3.19062
21
-5.99537
0
LINE
8
BLACK
6
CONTINUOUS
10
3.19062
20
-5.99537
11
3.1906
21
-5.99543
0
LINE
8
BLACK
6
CONTINUOUS
10
3.1906
20
-5.99543
11
3.18872
21
-5.99731
0
LINE
8
BLACK
6
CONTINUOUS
10
3.18872
20
-5.99731
11
3.188
21
-5.99781
0
LINE
8
BLACK
6
CONTINUOUS
10
3.188
20
-5.99781
11
3.18795
21
-5.99786
0
LINE
8
BLACK
6
CONTINUOUS
10
3.18795
20
-5.99786
11
3.1842
21
-5.99974
0
LINE
8
BLACK
6
CONTINUOUS
10
3.1842
20
-5.99974
11
3.18322
21
-6.00003
0
LINE
8
BLACK
6
CONTINUOUS
10
3.18322
20
-6.00003
11
3.18305
21
-5.99999
0
LINE
8
BLACK
6
CONTINUOUS
10
3.18305
20
-5.99999
11
3.18288
21
-6.00005
0
LINE
8
BLACK
6
CONTINUOUS
10
3.18288
20
-6.00005
11
3.17084
21
-6.00005
0
LINE
8
BLACK
6
CONTINUOUS
10
3.17084
20
-6.00005
11
3.17084
21
-6.01584
0
LINE
8
BLACK
6
CONTINUOUS
10
3.17084
20
-6.01584
11
3.17066
21
-6.01685
0
LINE
8
BLACK
6
CONTINUOUS
10
3.17066
20
-6.01685
11
3.16936
21
-6.0184
0
LINE
8
BLACK
6
CONTINUOUS
10
3.16936
20
-6.0184
11
3.16737
21
-6.01875
0
LINE
8
BLACK
6
CONTINUOUS
10
3.16737
20
-6.01875
11
3.16562
21
-6.01774
0
LINE
8
BLACK
6
CONTINUOUS
10
3.16562
20
-6.01774
11
3.16493
21
-6.01584
0
LINE
8
BLACK
6
CONTINUOUS
10
3.16493
20
-6.01584
11
3.16493
21
-5.97647
0
LINE
8
BLACK
6
CONTINUOUS
10
3.16493
20
-5.97647
11
3.165
21
-5.97609
0
LINE
8
BLACK
6
CONTINUOUS
10
3.165
20
-5.97609
11
3.16498
21
-5.97596
0
LINE
8
BLACK
6
CONTINUOUS
10
3.16498
20
-5.97596
11
3.16504
21
-5.97585
0
LINE
8
BLACK
6
CONTINUOUS
10
3.16504
20
-5.97585
11
3.16511
21
-5.97546
0
LINE
8
BLACK
6
CONTINUOUS
10
3.16511
20
-5.97546
11
3.1656
21
-5.97487
0
LINE
8
BLACK
6
CONTINUOUS
10
3.1656
20
-5.97487
11
3.16599
21
-5.97421
0
LINE
8
BLACK
6
CONTINUOUS
10
3.16599
20
-5.97421
11
3.16624
21
-5.97412
0
LINE
8
BLACK
6
CONTINUOUS
10
3.16624
20
-5.97412
11
3.16641
21
-5.97391
0
LINE
8
BLACK
6
CONTINUOUS
10
3.16641
20
-5.97391
11
3.16716
21
-5.97378
0
LINE
8
BLACK
6
CONTINUOUS
10
3.16716
20
-5.97378
11
3.16789
21
-5.97352
0
LINE
8
BLACK
6
CONTINUOUS
10
3.16789
20
-5.97352
11
3.18288
21
-5.97352
0
LINE
8
BLACK
6
CONTINUOUS
10
3.18288
20
-5.97352
11
3.18389
21
-5.9737
0
LINE
8
BLACK
6
CONTINUOUS
10
3.17084
20
-5.97942
11
3.17084
21
-5.99414
0
LINE
8
BLACK
6
CONTINUOUS
10
3.17084
20
-5.99414
11
3.18219
21
-5.99414
0
LINE
8
BLACK
6
CONTINUOUS
10
3.18219
20
-5.99414
11
3.18488
21
-5.99279
0
LINE
8
BLACK
6
CONTINUOUS
10
3.18488
20
-5.99279
11
3.18608
21
-5.9916
0
LINE
8
BLACK
6
CONTINUOUS
10
3.18608
20
-5.9916
11
3.18743
21
-5.9889
0
LINE
8
BLACK
6
CONTINUOUS
10
3.18743
20
-5.9889
11
3.18743
21
-5.98467
0
LINE
8
BLACK
6
CONTINUOUS
10
3.18743
20
-5.98467
11
3.18608
21
-5.98197
0
LINE
8
BLACK
6
CONTINUOUS
10
3.18608
20
-5.98197
11
3.18488
21
-5.98077
0
LINE
8
BLACK
6
CONTINUOUS
10
3.18488
20
-5.98077
11
3.18219
21
-5.97942
0
LINE
8
BLACK
6
CONTINUOUS
10
3.18219
20
-5.97942
11
3.17084
21
-5.97942
0
LINE
8
BLACK
6
CONTINUOUS
10
3.08203
20
-5.97457
11
3.08272
21
-5.97647
0
LINE
8
BLACK
6
CONTINUOUS
10
3.08272
20
-5.97647
11
3.08272
21
-6.01584
0
LINE
8
BLACK
6
CONTINUOUS
10
3.08272
20
-6.01584
11
3.08255
21
-6.01685
0
LINE
8
BLACK
6
CONTINUOUS
10
3.08255
20
-6.01685
11
3.08237
21
-6.01706
0
LINE
8
BLACK
6
CONTINUOUS
10
3.08237
20
-6.01706
11
3.08232
21
-6.01733
0
LINE
8
BLACK
6
CONTINUOUS
10
3.08232
20
-6.01733
11
3.08174
21
-6.01782
0
LINE
8
BLACK
6
CONTINUOUS
10
3.08174
20
-6.01782
11
3.08125
21
-6.0184
0
LINE
8
BLACK
6
CONTINUOUS
10
3.08125
20
-6.0184
11
3.08098
21
-6.01845
0
LINE
8
BLACK
6
CONTINUOUS
10
3.08098
20
-6.01845
11
3.08077
21
-6.01862
0
LINE
8
BLACK
6
CONTINUOUS
10
3.08077
20
-6.01862
11
3.08001
21
-6.01862
0
LINE
8
BLACK
6
CONTINUOUS
10
3.08001
20
-6.01862
11
3.07926
21
-6.01875
0
LINE
8
BLACK
6
CONTINUOUS
10
3.07926
20
-6.01875
11
3.07902
21
-6.01861
0
LINE
8
BLACK
6
CONTINUOUS
10
3.07902
20
-6.01861
11
3.07875
21
-6.01861
0
LINE
8
BLACK
6
CONTINUOUS
10
3.07875
20
-6.01861
11
3.07817
21
-6.01812
0
LINE
8
BLACK
6
CONTINUOUS
10
3.07817
20
-6.01812
11
3.07751
21
-6.01774
0
LINE
8
BLACK
6
CONTINUOUS
10
3.07751
20
-6.01774
11
3.07742
21
-6.01748
0
LINE
8
BLACK
6
CONTINUOUS
10
3.07742
20
-6.01748
11
3.07721
21
-6.01731
0
LINE
8
BLACK
6
CONTINUOUS
10
3.07721
20
-6.01731
11
3.06023
21
-5.98759
0
LINE
8
BLACK
6
CONTINUOUS
10
3.06023
20
-5.98759
11
3.06023
21
-6.01584
0
LINE
8
BLACK
6
CONTINUOUS
10
3.06023
20
-6.01584
11
3.06005
21
-6.01685
0
LINE
8
BLACK
6
CONTINUOUS
10
3.06005
20
-6.01685
11
3.05875
21
-6.0184
0
LINE
8
BLACK
6
CONTINUOUS
10
3.05875
20
-6.0184
11
3.05676
21
-6.01875
0
LINE
8
BLACK
6
CONTINUOUS
10
3.05676
20
-6.01875
11
3.05501
21
-6.01774
0
LINE
8
BLACK
6
CONTINUOUS
10
3.05501
20
-6.01774
11
3.05432
21
-6.01584
0
LINE
8
BLACK
6
CONTINUOUS
10
3.05432
20
-6.01584
11
3.05432
21
-5.97647
0
LINE
8
BLACK
6
CONTINUOUS
10
3.05432
20
-5.97647
11
3.0545
21
-5.97546
0
LINE
8
BLACK
6
CONTINUOUS
10
3.0545
20
-5.97546
11
3.05467
21
-5.97525
0
LINE
8
BLACK
6
CONTINUOUS
10
3.05467
20
-5.97525
11
3.05472
21
-5.97498
0
LINE
8
BLACK
6
CONTINUOUS
10
3.05472
20
-5.97498
11
3.05531
21
-5.9745
0
LINE
8
BLACK
6
CONTINUOUS
10
3.05531
20
-5.9745
11
3.0558
21
-5.97391
0
LINE
8
BLACK
6
CONTINUOUS
10
3.0558
20
-5.97391
11
3.05607
21
-5.97387
0
LINE
8
BLACK
6
CONTINUOUS
10
3.05607
20
-5.97387
11
3.05628
21
-5.97369
0
LINE
8
BLACK
6
CONTINUOUS
10
3.05628
20
-5.97369
11
3.05704
21
-5.9737
0
LINE
8
BLACK
6
CONTINUOUS
10
3.05704
20
-5.9737
11
3.05779
21
-5.97356
0
LINE
8
BLACK
6
CONTINUOUS
10
3.05779
20
-5.97356
11
3.05802
21
-5.9737
0
LINE
8
BLACK
6
CONTINUOUS
10
3.05802
20
-5.9737
11
3.0583
21
-5.9737
0
LINE
8
BLACK
6
CONTINUOUS
10
3.0583
20
-5.9737
11
3.05888
21
-5.97419
0
LINE
8
BLACK
6
CONTINUOUS
10
3.05888
20
-5.97419
11
3.05954
21
-5.97457
0
LINE
8
BLACK
6
CONTINUOUS
10
3.05954
20
-5.97457
11
3.05963
21
-5.97483
0
LINE
8
BLACK
6
CONTINUOUS
10
3.05963
20
-5.97483
11
3.05984
21
-5.97501
0
LINE
8
BLACK
6
CONTINUOUS
10
3.05984
20
-5.97501
11
3.07682
21
-6.00472
0
LINE
8
BLACK
6
CONTINUOUS
10
3.07682
20
-6.00472
11
3.07682
21
-5.97647
0
LINE
8
BLACK
6
CONTINUOUS
10
3.07682
20
-5.97647
11
3.077
21
-5.97546
0
LINE
8
BLACK
6
CONTINUOUS
10
3.077
20
-5.97546
11
3.07829
21
-5.97391
0
LINE
8
BLACK
6
CONTINUOUS
10
3.07829
20
-5.97391
11
3.08028
21
-5.97356
0
LINE
8
BLACK
6
CONTINUOUS
10
3.08028
20
-5.97356
11
3.08203
21
-5.97457
0
LINE
8
BLACK
6
CONTINUOUS
10
3.08828
20
-5.81622
11
3.08842
21
-5.81633
0
LINE
8
BLACK
6
CONTINUOUS
10
3.08842
20
-5.81633
11
3.08859
21
-5.81635
0
LINE
8
BLACK
6
CONTINUOUS
10
3.08859
20
-5.81635
11
3.09234
21
-5.81823
0
LINE
8
BLACK
6
CONTINUOUS
10
3.09234
20
-5.81823
11
3.09316
21
-5.81884
0
LINE
8
BLACK
6
CONTINUOUS
10
3.09316
20
-5.81884
11
3.09397
21
-5.82069
0
LINE
8
BLACK
6
CONTINUOUS
10
3.09397
20
-5.82069
11
3.09339
21
-5.82263
0
LINE
8
BLACK
6
CONTINUOUS
10
3.09339
20
-5.82263
11
3.09171
21
-5.82374
0
LINE
8
BLACK
6
CONTINUOUS
10
3.09171
20
-5.82374
11
3.0897
21
-5.82351
0
LINE
8
BLACK
6
CONTINUOUS
10
3.0897
20
-5.82351
11
3.08657
21
-5.82194
0
LINE
8
BLACK
6
CONTINUOUS
10
3.08657
20
-5.82194
11
3.08213
21
-5.82194
0
LINE
8
BLACK
6
CONTINUOUS
10
3.08213
20
-5.82194
11
3.07762
21
-5.82345
0
LINE
8
BLACK
6
CONTINUOUS
10
3.07762
20
-5.82345
11
3.0747
21
-5.82636
0
LINE
8
BLACK
6
CONTINUOUS
10
3.0747
20
-5.82636
11
3.07318
21
-5.8294
0
LINE
8
BLACK
6
CONTINUOUS
10
3.07318
20
-5.8294
11
3.07148
21
-5.83623
0
LINE
8
BLACK
6
CONTINUOUS
10
3.07148
20
-5.83623
11
3.07148
21
-5.84112
0
LINE
8
BLACK
6
CONTINUOUS
10
3.07148
20
-5.84112
11
3.07318
21
-5.84796
0
LINE
8
BLACK
6
CONTINUOUS
10
3.07318
20
-5.84796
11
3.0747
21
-5.85099
0
LINE
8
BLACK
6
CONTINUOUS
10
3.0747
20
-5.85099
11
3.07762
21
-5.85391
0
LINE
8
BLACK
6
CONTINUOUS
10
3.07762
20
-5.85391
11
3.08213
21
-5.85541
0
LINE
8
BLACK
6
CONTINUOUS
10
3.08213
20
-5.85541
11
3.08492
21
-5.85541
0
LINE
8
BLACK
6
CONTINUOUS
10
3.08492
20
-5.85541
11
3.08942
21
-5.85391
0
LINE
8
BLACK
6
CONTINUOUS
10
3.08942
20
-5.85391
11
3.08994
21
-5.85339
0
LINE
8
BLACK
6
CONTINUOUS
10
3.08994
20
-5.85339
11
3.08994
21
-5.84444
0
LINE
8
BLACK
6
CONTINUOUS
10
3.08994
20
-5.84444
11
3.0854
21
-5.84444
0
LINE
8
BLACK
6
CONTINUOUS
10
3.0854
20
-5.84444
11
3.08439
21
-5.84426
0
LINE
8
BLACK
6
CONTINUOUS
10
3.08439
20
-5.84426
11
3.08284
21
-5.84296
0
LINE
8
BLACK
6
CONTINUOUS
10
3.08284
20
-5.84296
11
3.08249
21
-5.84098
0
LINE
8
BLACK
6
CONTINUOUS
10
3.08249
20
-5.84098
11
3.0835
21
-5.83923
0
LINE
8
BLACK
6
CONTINUOUS
10
3.0835
20
-5.83923
11
3.0854
21
-5.83854
0
LINE
8
BLACK
6
CONTINUOUS
10
3.0854
20
-5.83854
11
3.09289
21
-5.83854
0
LINE
8
BLACK
6
CONTINUOUS
10
3.09289
20
-5.83854
11
3.09328
21
-5.8386
0
LINE
8
BLACK
6
CONTINUOUS
10
3.09328
20
-5.8386
11
3.09341
21
-5.83858
0
LINE
8
BLACK
6
CONTINUOUS
10
3.09341
20
-5.83858
11
3.09352
21
-5.83865
0
LINE
8
BLACK
6
CONTINUOUS
10
3.09352
20
-5.83865
11
3.0939
21
-5.83871
0
LINE
8
BLACK
6
CONTINUOUS
10
3.0939
20
-5.83871
11
3.09449
21
-5.83921
0
LINE
8
BLACK
6
CONTINUOUS
10
3.09449
20
-5.83921
11
3.09516
21
-5.83959
0
LINE
8
BLACK
6
CONTINUOUS
10
3.09516
20
-5.83959
11
3.09525
21
-5.83984
0
LINE
8
BLACK
6
CONTINUOUS
10
3.09525
20
-5.83984
11
3.09545
21
-5.84001
0
LINE
8
BLACK
6
CONTINUOUS
10
3.09545
20
-5.84001
11
3.09558
21
-5.84077
0
LINE
8
BLACK
6
CONTINUOUS
10
3.09558
20
-5.84077
11
3.09585
21
-5.84149
0
LINE
8
BLACK
6
CONTINUOUS
10
3.09585
20
-5.84149
11
3.09585
21
-5.85461
0
LINE
8
BLACK
6
CONTINUOUS
10
3.09585
20
-5.85461
11
3.09582
21
-5.85479
0
LINE
8
BLACK
6
CONTINUOUS
10
3.09582
20
-5.85479
11
3.09584
21
-5.85487
0
LINE
8
BLACK
6
CONTINUOUS
10
3.09584
20
-5.85487
11
3.09578
21
-5.85499
0
LINE
8
BLACK
6
CONTINUOUS
10
3.09578
20
-5.85499
11
3.09567
21
-5.85562
0
LINE
8
BLACK
6
CONTINUOUS
10
3.09567
20
-5.85562
11
3.09525
21
-5.85612
0
LINE
8
BLACK
6
CONTINUOUS
10
3.09525
20
-5.85612
11
3.09498
21
-5.8567
0
LINE
8
BLACK
6
CONTINUOUS
10
3.09498
20
-5.8567
11
3.09311
21
-5.85857
0
LINE
8
BLACK
6
CONTINUOUS
10
3.09311
20
-5.85857
11
3.09227
21
-5.85916
0
LINE
8
BLACK
6
CONTINUOUS
10
3.09227
20
-5.85916
11
3.09209
21
-5.85918
0
LINE
8
BLACK
6
CONTINUOUS
10
3.09209
20
-5.85918
11
3.09195
21
-5.85929
0
LINE
8
BLACK
6
CONTINUOUS
10
3.09195
20
-5.85929
11
3.08633
21
-5.86116
0
LINE
8
BLACK
6
CONTINUOUS
10
3.08633
20
-5.86116
11
3.08546
21
-5.86129
0
LINE
8
BLACK
6
CONTINUOUS
10
3.08546
20
-5.86129
11
3.0854
21
-5.86131
0
LINE
8
BLACK
6
CONTINUOUS
10
3.0854
20
-5.86131
11
3.08165
21
-5.86131
0
LINE
8
BLACK
6
CONTINUOUS
10
3.08165
20
-5.86131
11
3.08078
21
-5.86116
0
LINE
8
BLACK
6
CONTINUOUS
10
3.08078
20
-5.86116
11
3.08071
21
-5.86116
0
LINE
8
BLACK
6
CONTINUOUS
10
3.08071
20
-5.86116
11
3.07509
21
-5.85929
0
LINE
8
BLACK
6
CONTINUOUS
10
3.07509
20
-5.85929
11
3.07419
21
-5.8588
0
LINE
8
BLACK
6
CONTINUOUS
10
3.07419
20
-5.8588
11
3.07409
21
-5.85865
0
LINE
8
BLACK
6
CONTINUOUS
10
3.07409
20
-5.85865
11
3.07393
21
-5.85857
0
LINE
8
BLACK
6
CONTINUOUS
10
3.07393
20
-5.85857
11
3.07018
21
-5.85483
0
LINE
8
BLACK
6
CONTINUOUS
10
3.07018
20
-5.85483
11
3.06968
21
-5.8541
0
LINE
8
BLACK
6
CONTINUOUS
10
3.06968
20
-5.8541
11
3.06963
21
-5.85406
0
LINE
8
BLACK
6
CONTINUOUS
10
3.06963
20
-5.85406
11
3.06776
21
-5.85031
0
LINE
8
BLACK
6
CONTINUOUS
10
3.06776
20
-5.85031
11
3.06761
21
-5.84982
0
LINE
8
BLACK
6
CONTINUOUS
10
3.06761
20
-5.84982
11
3.06753
21
-5.8497
0
LINE
8
BLACK
6
CONTINUOUS
10
3.06753
20
-5.8497
11
3.06566
21
-5.8422
0
LINE
8
BLACK
6
CONTINUOUS
10
3.06566
20
-5.8422
11
3.06562
21
-5.84162
0
LINE
8
BLACK
6
CONTINUOUS
10
3.06562
20
-5.84162
11
3.06557
21
-5.84149
0
LINE
8
BLACK
6
CONTINUOUS
10
3.06557
20
-5.84149
11
3.06557
21
-5.83586
0
LINE
8
BLACK
6
CONTINUOUS
10
3.06557
20
-5.83586
11
3.06567
21
-5.83528
0
LINE
8
BLACK
6
CONTINUOUS
10
3.06567
20
-5.83528
11
3.06566
21
-5.83515
0
LINE
8
BLACK
6
CONTINUOUS
10
3.06566
20
-5.83515
11
3.06753
21
-5.82765
0
LINE
8
BLACK
6
CONTINUOUS
10
3.06753
20
-5.82765
11
3.06774
21
-5.82718
0
LINE
8
BLACK
6
CONTINUOUS
10
3.06774
20
-5.82718
11
3.06776
21
-5.82704
0
LINE
8
BLACK
6
CONTINUOUS
10
3.06776
20
-5.82704
11
3.06963
21
-5.8233
0
LINE
8
BLACK
6
CONTINUOUS
10
3.06963
20
-5.8233
11
3.07016
21
-5.82259
0
LINE
8
BLACK
6
CONTINUOUS
10
3.07016
20
-5.82259
11
3.07018
21
-5.82253
0
LINE
8
BLACK
6
CONTINUOUS
10
3.07018
20
-5.82253
11
3.07393
21
-5.81878
0
LINE
8
BLACK
6
CONTINUOUS
10
3.07393
20
-5.81878
11
3.07477
21
-5.81819
0
LINE
8
BLACK
6
CONTINUOUS
10
3.07477
20
-5.81819
11
3.07495
21
-5.81817
0
LINE
8
BLACK
6
CONTINUOUS
10
3.07495
20
-5.81817
11
3.07509
21
-5.81806
0
LINE
8
BLACK
6
CONTINUOUS
10
3.07509
20
-5.81806
11
3.08071
21
-5.81619
0
LINE
8
BLACK
6
CONTINUOUS
10
3.08071
20
-5.81619
11
3.08159
21
-5.81606
0
LINE
8
BLACK
6
CONTINUOUS
10
3.08159
20
-5.81606
11
3.08165
21
-5.81604
0
LINE
8
BLACK
6
CONTINUOUS
10
3.08165
20
-5.81604
11
3.08727
21
-5.81604
0
LINE
8
BLACK
6
CONTINUOUS
10
3.08727
20
-5.81604
11
3.08828
21
-5.81622
0
LINE
8
BLACK
6
CONTINUOUS
10
3.16126
20
-5.81619
11
3.16132
21
-5.81619
0
LINE
8
BLACK
6
CONTINUOUS
10
3.16132
20
-5.81619
11
3.16694
21
-5.81806
0
LINE
8
BLACK
6
CONTINUOUS
10
3.16694
20
-5.81806
11
3.16785
21
-5.81855
0
LINE
8
BLACK
6
CONTINUOUS
10
3.16785
20
-5.81855
11
3.16794
21
-5.8187
0
LINE
8
BLACK
6
CONTINUOUS
10
3.16794
20
-5.8187
11
3.1681
21
-5.81878
0
LINE
8
BLACK
6
CONTINUOUS
10
3.1681
20
-5.81878
11
3.17185
21
-5.82253
0
LINE
8
BLACK
6
CONTINUOUS
10
3.17185
20
-5.82253
11
3.17235
21
-5.82325
0
LINE
8
BLACK
6
CONTINUOUS
10
3.17235
20
-5.82325
11
3.1724
21
-5.8233
0
LINE
8
BLACK
6
CONTINUOUS
10
3.1724
20
-5.8233
11
3.17428
21
-5.82704
0
LINE
8
BLACK
6
CONTINUOUS
10
3.17428
20
-5.82704
11
3.17442
21
-5.82753
0
LINE
8
BLACK
6
CONTINUOUS
10
3.17442
20
-5.82753
11
3.1745
21
-5.82765
0
LINE
8
BLACK
6
CONTINUOUS
10
3.1745
20
-5.82765
11
3.17637
21
-5.83515
0
LINE
8
BLACK
6
CONTINUOUS
10
3.17637
20
-5.83515
11
3.17642
21
-5.83574
0
LINE
8
BLACK
6
CONTINUOUS
10
3.17642
20
-5.83574
11
3.17646
21
-5.83586
0
LINE
8
BLACK
6
CONTINUOUS
10
3.17646
20
-5.83586
11
3.17646
21
-5.84149
0
LINE
8
BLACK
6
CONTINUOUS
10
3.17646
20
-5.84149
11
3.17636
21
-5.84207
0
LINE
8
BLACK
6
CONTINUOUS
10
3.17636
20
-5.84207
11
3.17637
21
-5.8422
0
LINE
8
BLACK
6
CONTINUOUS
10
3.17637
20
-5.8422
11
3.1745
21
-5.8497
0
LINE
8
BLACK
6
CONTINUOUS
10
3.1745
20
-5.8497
11
3.17429
21
-5.85017
0
LINE
8
BLACK
6
CONTINUOUS
10
3.17429
20
-5.85017
11
3.17428
21
-5.85031
0
LINE
8
BLACK
6
CONTINUOUS
10
3.17428
20
-5.85031
11
3.1724
21
-5.85406
0
LINE
8
BLACK
6
CONTINUOUS
10
3.1724
20
-5.85406
11
3.17188
21
-5.85477
0
LINE
8
BLACK
6
CONTINUOUS
10
3.17188
20
-5.85477
11
3.17185
21
-5.85483
0
LINE
8
BLACK
6
CONTINUOUS
10
3.17185
20
-5.85483
11
3.1681
21
-5.85857
0
LINE
8
BLACK
6
CONTINUOUS
10
3.1681
20
-5.85857
11
3.16726
21
-5.85916
0
LINE
8
BLACK
6
CONTINUOUS
10
3.16726
20
-5.85916
11
3.16708
21
-5.85918
0
LINE
8
BLACK
6
CONTINUOUS
10
3.16708
20
-5.85918
11
3.16694
21
-5.85929
0
LINE
8
BLACK
6
CONTINUOUS
10
3.16694
20
-5.85929
11
3.16132
21
-5.86116
0
LINE
8
BLACK
6
CONTINUOUS
10
3.16132
20
-5.86116
11
3.16045
21
-5.86129
0
LINE
8
BLACK
6
CONTINUOUS
10
3.16045
20
-5.86129
11
3.16039
21
-5.86131
0
LINE
8
BLACK
6
CONTINUOUS
10
3.16039
20
-5.86131
11
3.15101
21
-5.86131
0
LINE
8
BLACK
6
CONTINUOUS
10
3.15101
20
-5.86131
11
3.15063
21
-5.86125
0
LINE
8
BLACK
6
CONTINUOUS
10
3.15063
20
-5.86125
11
3.1505
21
-5.86127
0
LINE
8
BLACK
6
CONTINUOUS
10
3.1505
20
-5.86127
11
3.15039
21
-5.8612
0
LINE
8
BLACK
6
CONTINUOUS
10
3.15039
20
-5.8612
11
3.15
21
-5.86114
0
LINE
8
BLACK
6
CONTINUOUS
10
3.15
20
-5.86114
11
3.14941
21
-5.86064
0
LINE
8
BLACK
6
CONTINUOUS
10
3.14941
20
-5.86064
11
3.14875
21
-5.86026
0
LINE
8
BLACK
6
CONTINUOUS
10
3.14875
20
-5.86026
11
3.14866
21
-5.86001
0
LINE
8
BLACK
6
CONTINUOUS
10
3.14866
20
-5.86001
11
3.14846
21
-5.85984
0
LINE
8
BLACK
6
CONTINUOUS
10
3.14846
20
-5.85984
11
3.14832
21
-5.85908
0
LINE
8
BLACK
6
CONTINUOUS
10
3.14832
20
-5.85908
11
3.14806
21
-5.85836
0
LINE
8
BLACK
6
CONTINUOUS
10
3.14806
20
-5.85836
11
3.14806
21
-5.81899
0
LINE
8
BLACK
6
CONTINUOUS
10
3.14806
20
-5.81899
11
3.14813
21
-5.81861
0
LINE
8
BLACK
6
CONTINUOUS
10
3.14813
20
-5.81861
11
3.1481
21
-5.81848
0
LINE
8
BLACK
6
CONTINUOUS
10
3.1481
20
-5.81848
11
3.14817
21
-5.81836
0
LINE
8
BLACK
6
CONTINUOUS
10
3.14817
20
-5.81836
11
3.14824
21
-5.81798
0
LINE
8
BLACK
6
CONTINUOUS
10
3.14824
20
-5.81798
11
3.14873
21
-5.81739
0
LINE
8
BLACK
6
CONTINUOUS
10
3.14873
20
-5.81739
11
3.14911
21
-5.81673
0
LINE
8
BLACK
6
CONTINUOUS
10
3.14911
20
-5.81673
11
3.14936
21
-5.81664
0
LINE
8
BLACK
6
CONTINUOUS
10
3.14936
20
-5.81664
11
3.14954
21
-5.81643
0
LINE
8
BLACK
6
CONTINUOUS
10
3.14954
20
-5.81643
11
3.15029
21
-5.8163
0
LINE
8
BLACK
6
CONTINUOUS
10
3.15029
20
-5.8163
11
3.15101
21
-5.81604
0
LINE
8
BLACK
6
CONTINUOUS
10
3.15101
20
-5.81604
11
3.16039
21
-5.81604
0
LINE
8
BLACK
6
CONTINUOUS
10
3.16039
20
-5.81604
11
3.16126
21
-5.81619
0
LINE
8
BLACK
6
CONTINUOUS
10
3.15397
20
-5.82194
11
3.15397
21
-5.85541
0
LINE
8
BLACK
6
CONTINUOUS
10
3.15397
20
-5.85541
11
3.15991
21
-5.85541
0
LINE
8
BLACK
6
CONTINUOUS
10
3.15991
20
-5.85541
11
3.16442
21
-5.85391
0
LINE
8
BLACK
6
CONTINUOUS
10
3.16442
20
-5.85391
11
3.16733
21
-5.85099
0
LINE
8
BLACK
6
CONTINUOUS
10
3.16733
20
-5.85099
11
3.16885
21
-5.84796
0
LINE
8
BLACK
6
CONTINUOUS
10
3.16885
20
-5.84796
11
3.17056
21
-5.84112
0
LINE
8
BLACK
6
CONTINUOUS
10
3.17056
20
-5.84112
11
3.17056
21
-5.83623
0
LINE
8
BLACK
6
CONTINUOUS
10
3.17056
20
-5.83623
11
3.16885
21
-5.8294
0
LINE
8
BLACK
6
CONTINUOUS
10
3.16885
20
-5.8294
11
3.16733
21
-5.82636
0
LINE
8
BLACK
6
CONTINUOUS
10
3.16733
20
-5.82636
11
3.16442
21
-5.82345
0
LINE
8
BLACK
6
CONTINUOUS
10
3.16442
20
-5.82345
11
3.15991
21
-5.82194
0
LINE
8
BLACK
6
CONTINUOUS
10
3.15991
20
-5.82194
11
3.15397
21
-5.82194
0
LINE
8
BLACK
6
CONTINUOUS
10
3.2001
20
-5.81611
11
3.20027
21
-5.81608
0
LINE
8
BLACK
6
CONTINUOUS
10
3.20027
20
-5.81608
11
3.20101
21
-5.81651
0
LINE
8
BLACK
6
CONTINUOUS
10
3.20101
20
-5.81651
11
3.2018
21
-5.81686
0
LINE
8
BLACK
6
CONTINUOUS
10
3.2018
20
-5.81686
11
3.20187
21
-5.81701
0
LINE
8
BLACK
6
CONTINUOUS
10
3.20187
20
-5.81701
11
3.20202
21
-5.81709
0
LINE
8
BLACK
6
CONTINUOUS
10
3.20202
20
-5.81709
11
3.20231
21
-5.8179
0
LINE
8
BLACK
6
CONTINUOUS
10
3.20231
20
-5.8179
11
3.20269
21
-5.81867
0
LINE
8
BLACK
6
CONTINUOUS
10
3.20269
20
-5.81867
11
3.20265
21
-5.81883
0
LINE
8
BLACK
6
CONTINUOUS
10
3.20265
20
-5.81883
11
3.20271
21
-5.81899
0
LINE
8
BLACK
6
CONTINUOUS
10
3.20271
20
-5.81899
11
3.20271
21
-5.85541
0
LINE
8
BLACK
6
CONTINUOUS
10
3.20271
20
-5.85541
11
3.211
21
-5.85541
0
LINE
8
BLACK
6
CONTINUOUS
10
3.211
20
-5.85541
11
3.21201
21
-5.85559
0
LINE
8
BLACK
6
CONTINUOUS
10
3.21201
20
-5.85559
11
3.21356
21
-5.85689
0
LINE
8
BLACK
6
CONTINUOUS
10
3.21356
20
-5.85689
11
3.21391
21
-5.85887
0
LINE
8
BLACK
6
CONTINUOUS
10
3.21391
20
-5.85887
11
3.2129
21
-5.86062
0
LINE
8
BLACK
6
CONTINUOUS
10
3.2129
20
-5.86062
11
3.211
21
-5.86131
0
LINE
8
BLACK
6
CONTINUOUS
10
3.211
20
-5.86131
11
3.18851
21
-5.86131
0
LINE
8
BLACK
6
CONTINUOUS
10
3.18851
20
-5.86131
11
3.1875
21
-5.86114
0
LINE
8
BLACK
6
CONTINUOUS
10
3.1875
20
-5.86114
11
3.18595
21
-5.85984
0
LINE
8
BLACK
6
CONTINUOUS
10
3.18595
20
-5.85984
11
3.1856
21
-5.85785
0
LINE
8
BLACK
6
CONTINUOUS
10
3.1856
20
-5.85785
11
3.18661
21
-5.8561
0
LINE
8
BLACK
6
CONTINUOUS
10
3.18661
20
-5.8561
11
3.18851
21
-5.85541
0
LINE
8
BLACK
6
CONTINUOUS
10
3.18851
20
-5.85541
11
3.1968
21
-5.85541
0
LINE
8
BLACK
6
CONTINUOUS
10
3.1968
20
-5.85541
11
3.1968
21
-5.82799
0
LINE
8
BLACK
6
CONTINUOUS
10
3.1968
20
-5.82799
11
3.19435
21
-5.83045
0
LINE
8
BLACK
6
CONTINUOUS
10
3.19435
20
-5.83045
11
3.19362
21
-5.83096
0
LINE
8
BLACK
6
CONTINUOUS
10
3.19362
20
-5.83096
11
3.19358
21
-5.83101
0
LINE
8
BLACK
6
CONTINUOUS
10
3.19358
20
-5.83101
11
3.18983
21
-5.83288
0
LINE
8
BLACK
6
CONTINUOUS
10
3.18983
20
-5.83288
11
3.18885
21
-5.83317
0
LINE
8
BLACK
6
CONTINUOUS
10
3.18885
20
-5.83317
11
3.18688
21
-5.8327
0
LINE
8
BLACK
6
CONTINUOUS
10
3.18688
20
-5.8327
11
3.18568
21
-5.83108
0
LINE
8
BLACK
6
CONTINUOUS
10
3.18568
20
-5.83108
11
3.1858
21
-5.82907
0
LINE
8
BLACK
6
CONTINUOUS
10
3.1858
20
-5.82907
11
3.18719
21
-5.8276
0
LINE
8
BLACK
6
CONTINUOUS
10
3.18719
20
-5.8276
11
3.19051
21
-5.82594
0
LINE
8
BLACK
6
CONTINUOUS
10
3.19051
20
-5.82594
11
3.19371
21
-5.82273
0
LINE
8
BLACK
6
CONTINUOUS
10
3.19371
20
-5.82273
11
3.1973
21
-5.81735
0
LINE
8
BLACK
6
CONTINUOUS
10
3.1973
20
-5.81735
11
3.19801
21
-5.81661
0
LINE
8
BLACK
6
CONTINUOUS
10
3.19801
20
-5.81661
11
3.19817
21
-5.81656
0
LINE
8
BLACK
6
CONTINUOUS
10
3.19817
20
-5.81656
11
3.19828
21
-5.81643
0
LINE
8
BLACK
6
CONTINUOUS
10
3.19828
20
-5.81643
11
3.19912
21
-5.81629
0
LINE
8
BLACK
6
CONTINUOUS
10
3.19912
20
-5.81629
11
3.19995
21
-5.81604
0
LINE
8
BLACK
6
CONTINUOUS
10
3.19995
20
-5.81604
11
3.2001
21
-5.81611
0
LINE
8
BLACK
6
CONTINUOUS
10
3.13453
20
-5.81709
11
3.13522
21
-5.81899
0
LINE
8
BLACK
6
CONTINUOUS
10
3.13522
20
-5.81899
11
3.13522
21
-5.85836
0
LINE
8
BLACK
6
CONTINUOUS
10
3.13522
20
-5.85836
11
3.13504
21
-5.85937
0
LINE
8
BLACK
6
CONTINUOUS
10
3.13504
20
-5.85937
11
3.13486
21
-5.85958
0
LINE
8
BLACK
6
CONTINUOUS
10
3.13486
20
-5.85958
11
3.13482
21
-5.85985
0
LINE
8
BLACK
6
CONTINUOUS
10
3.13482
20
-5.85985
11
3.13423
21
-5.86034
0
LINE
8
BLACK
6
CONTINUOUS
10
3.13423
20
-5.86034
11
3.13374
21
-5.86092
0
LINE
8
BLACK
6
CONTINUOUS
10
3.13374
20
-5.86092
11
3.13347
21
-5.86097
0
LINE
8
BLACK
6
CONTINUOUS
10
3.13347
20
-5.86097
11
3.13326
21
-5.86114
0
LINE
8
BLACK
6
CONTINUOUS
10
3.13326
20
-5.86114
11
3.1325
21
-5.86114
0
LINE
8
BLACK
6
CONTINUOUS
10
3.1325
20
-5.86114
11
3.13175
21
-5.86127
0
LINE
8
BLACK
6
CONTINUOUS
10
3.13175
20
-5.86127
11
3.13152
21
-5.86113
0
LINE
8
BLACK
6
CONTINUOUS
10
3.13152
20
-5.86113
11
3.13124
21
-5.86113
0
LINE
8
BLACK
6
CONTINUOUS
10
3.13124
20
-5.86113
11
3.13066
21
-5.86064
0
LINE
8
BLACK
6
CONTINUOUS
10
3.13066
20
-5.86064
11
3.13
21
-5.86026
0
LINE
8
BLACK
6
CONTINUOUS
10
3.13
20
-5.86026
11
3.12991
21
-5.86
0
LINE
8
BLACK
6
CONTINUOUS
10
3.12991
20
-5.86
11
3.1297
21
-5.85983
0
LINE
8
BLACK
6
CONTINUOUS
10
3.1297
20
-5.85983
11
3.11272
21
-5.83011
0
LINE
8
BLACK
6
CONTINUOUS
10
3.11272
20
-5.83011
11
3.11272
21
-5.85836
0
LINE
8
BLACK
6
CONTINUOUS
10
3.11272
20
-5.85836
11
3.11254
21
-5.85937
0
LINE
8
BLACK
6
CONTINUOUS
10
3.11254
20
-5.85937
11
3.11124
21
-5.86092
0
LINE
8
BLACK
6
CONTINUOUS
10
3.11124
20
-5.86092
11
3.10925
21
-5.86127
0
LINE
8
BLACK
6
CONTINUOUS
10
3.10925
20
-5.86127
11
3.10751
21
-5.86026
0
LINE
8
BLACK
6
CONTINUOUS
10
3.10751
20
-5.86026
11
3.10681
21
-5.85836
0
LINE
8
BLACK
6
CONTINUOUS
10
3.10681
20
-5.85836
11
3.10681
21
-5.81899
0
LINE
8
BLACK
6
CONTINUOUS
10
3.10681
20
-5.81899
11
3.10699
21
-5.81798
0
LINE
8
BLACK
6
CONTINUOUS
10
3.10699
20
-5.81798
11
3.10717
21
-5.81777
0
LINE
8
BLACK
6
CONTINUOUS
10
3.10717
20
-5.81777
11
3.10722
21
-5.8175
0
LINE
8
BLACK
6
CONTINUOUS
10
3.10722
20
-5.8175
11
3.1078
21
-5.81702
0
LINE
8
BLACK
6
CONTINUOUS
10
3.1078
20
-5.81702
11
3.10829
21
-5.81643
0
LINE
8
BLACK
6
CONTINUOUS
10
3.10829
20
-5.81643
11
3.10856
21
-5.81639
0
LINE
8
BLACK
6
CONTINUOUS
10
3.10856
20
-5.81639
11
3.10877
21
-5.81621
0
LINE
8
BLACK
6
CONTINUOUS
10
3.10877
20
-5.81621
11
3.10953
21
-5.81622
0
LINE
8
BLACK
6
CONTINUOUS
10
3.10953
20
-5.81622
11
3.11028
21
-5.81608
0
LINE
8
BLACK
6
CONTINUOUS
10
3.11028
20
-5.81608
11
3.11052
21
-5.81622
0
LINE
8
BLACK
6
CONTINUOUS
10
3.11052
20
-5.81622
11
3.11079
21
-5.81622
0
LINE
8
BLACK
6
CONTINUOUS
10
3.11079
20
-5.81622
11
3.11137
21
-5.81671
0
LINE
8
BLACK
6
CONTINUOUS
10
3.11137
20
-5.81671
11
3.11203
21
-5.81709
0
LINE
8
BLACK
6
CONTINUOUS
10
3.11203
20
-5.81709
11
3.11212
21
-5.81735
0
LINE
8
BLACK
6
CONTINUOUS
10
3.11212
20
-5.81735
11
3.11233
21
-5.81753
0
LINE
8
BLACK
6
CONTINUOUS
10
3.11233
20
-5.81753
11
3.12931
21
-5.84724
0
LINE
8
BLACK
6
CONTINUOUS
10
3.12931
20
-5.84724
11
3.12931
21
-5.81899
0
LINE
8
BLACK
6
CONTINUOUS
10
3.12931
20
-5.81899
11
3.12949
21
-5.81798
0
LINE
8
BLACK
6
CONTINUOUS
10
3.12949
20
-5.81798
11
3.13079
21
-5.81643
0
LINE
8
BLACK
6
CONTINUOUS
10
3.13079
20
-5.81643
11
3.13278
21
-5.81608
0
LINE
8
BLACK
6
CONTINUOUS
10
3.13278
20
-5.81608
11
3.13453
21
-5.81709
0
LINE
8
BLACK
6
CONTINUOUS
10
3.36915
20
-1.9877
11
3.36984
21
-1.9896
0
LINE
8
BLACK
6
CONTINUOUS
10
3.36984
20
-1.9896
11
3.36984
21
-2.01584
0
LINE
8
BLACK
6
CONTINUOUS
10
3.36984
20
-2.01584
11
3.36967
21
-2.01685
0
LINE
8
BLACK
6
CONTINUOUS
10
3.36967
20
-2.01685
11
3.36837
21
-2.0184
0
LINE
8
BLACK
6
CONTINUOUS
10
3.36837
20
-2.0184
11
3.36638
21
-2.01875
0
LINE
8
BLACK
6
CONTINUOUS
10
3.36638
20
-2.01875
11
3.36463
21
-2.01774
0
LINE
8
BLACK
6
CONTINUOUS
10
3.36463
20
-2.01774
11
3.36454
21
-2.0175
0
LINE
8
BLACK
6
CONTINUOUS
10
3.36454
20
-2.0175
11
3.36259
21
-2.01848
0
LINE
8
BLACK
6
CONTINUOUS
10
3.36259
20
-2.01848
11
3.3616
21
-2.01878
0
LINE
8
BLACK
6
CONTINUOUS
10
3.3616
20
-2.01878
11
3.36143
21
-2.01873
0
LINE
8
BLACK
6
CONTINUOUS
10
3.36143
20
-2.01873
11
3.36127
21
-2.01879
0
LINE
8
BLACK
6
CONTINUOUS
10
3.36127
20
-2.01879
11
3.35564
21
-2.01879
0
LINE
8
BLACK
6
CONTINUOUS
10
3.35564
20
-2.01879
11
3.35463
21
-2.01862
0
LINE
8
BLACK
6
CONTINUOUS
10
3.35463
20
-2.01862
11
3.3545
21
-2.0185
0
LINE
8
BLACK
6
CONTINUOUS
10
3.3545
20
-2.0185
11
3.35432
21
-2.01848
0
LINE
8
BLACK
6
CONTINUOUS
10
3.35432
20
-2.01848
11
3.35057
21
-2.01661
0
LINE
8
BLACK
6
CONTINUOUS
10
3.35057
20
-2.01661
11
3.34975
21
-2.016
0
LINE
8
BLACK
6
CONTINUOUS
10
3.34975
20
-2.016
11
3.34957
21
-2.01559
0
LINE
8
BLACK
6
CONTINUOUS
10
3.34957
20
-2.01559
11
3.34925
21
-2.01529
0
LINE
8
BLACK
6
CONTINUOUS
10
3.34925
20
-2.01529
11
3.34738
21
-2.01154
0
LINE
8
BLACK
6
CONTINUOUS
10
3.34738
20
-2.01154
11
3.34709
21
-2.01056
0
LINE
8
BLACK
6
CONTINUOUS
10
3.34709
20
-2.01056
11
3.34713
21
-2.01038
0
LINE
8
BLACK
6
CONTINUOUS
10
3.34713
20
-2.01038
11
3.34707
21
-2.01022
0
LINE
8
BLACK
6
CONTINUOUS
10
3.34707
20
-2.01022
11
3.34707
21
-1.9896
0
LINE
8
BLACK
6
CONTINUOUS
10
3.34707
20
-1.9896
11
3.34724
21
-1.98859
0
LINE
8
BLACK
6
CONTINUOUS
10
3.34724
20
-1.98859
11
3.34854
21
-1.98704
0
LINE
8
BLACK
6
CONTINUOUS
10
3.34854
20
-1.98704
11
3.35053
21
-1.98669
0
LINE
8
BLACK
6
CONTINUOUS
10
3.35053
20
-1.98669
11
3.35228
21
-1.9877
0
LINE
8
BLACK
6
CONTINUOUS
10
3.35228
20
-1.9877
11
3.35297
21
-1.9896
0
LINE
8
BLACK
6
CONTINUOUS
10
3.35297
20
-1.9896
11
3.35297
21
-2.00952
0
LINE
8
BLACK
6
CONTINUOUS
10
3.35297
20
-2.00952
11
3.35409
21
-2.01177
0
LINE
8
BLACK
6
CONTINUOUS
10
3.35409
20
-2.01177
11
3.35634
21
-2.01289
0
LINE
8
BLACK
6
CONTINUOUS
10
3.35634
20
-2.01289
11
3.36057
21
-2.01289
0
LINE
8
BLACK
6
CONTINUOUS
10
3.36057
20
-2.01289
11
3.36327
21
-2.01154
0
LINE
8
BLACK
6
CONTINUOUS
10
3.36327
20
-2.01154
11
3.36394
21
-2.01087
0
LINE
8
BLACK
6
CONTINUOUS
10
3.36394
20
-2.01087
11
3.36394
21
-1.9896
0
LINE
8
BLACK
6
CONTINUOUS
10
3.36394
20
-1.9896
11
3.36412
21
-1.98859
0
LINE
8
BLACK
6
CONTINUOUS
10
3.36412
20
-1.98859
11
3.36542
21
-1.98704
0
LINE
8
BLACK
6
CONTINUOUS
10
3.36542
20
-1.98704
11
3.3674
21
-1.98669
0
LINE
8
BLACK
6
CONTINUOUS
10
3.3674
20
-1.98669
11
3.36915
21
-1.9877
0
LINE
8
BLACK
6
CONTINUOUS
10
3.42352
20
-1.97457
11
3.42421
21
-1.97647
0
LINE
8
BLACK
6
CONTINUOUS
10
3.42421
20
-1.97647
11
3.42421
21
-1.98664
0
LINE
8
BLACK
6
CONTINUOUS
10
3.42421
20
-1.98664
11
3.43063
21
-1.98664
0
LINE
8
BLACK
6
CONTINUOUS
10
3.43063
20
-1.98664
11
3.43164
21
-1.98682
0
LINE
8
BLACK
6
CONTINUOUS
10
3.43164
20
-1.98682
11
3.43319
21
-1.98812
0
LINE
8
BLACK
6
CONTINUOUS
10
3.43319
20
-1.98812
11
3.43354
21
-1.99011
0
LINE
8
BLACK
6
CONTINUOUS
10
3.43354
20
-1.99011
11
3.43253
21
-1.99186
0
LINE
8
BLACK
6
CONTINUOUS
10
3.43253
20
-1.99186
11
3.43063
21
-1.99255
0
LINE
8
BLACK
6
CONTINUOUS
10
3.43063
20
-1.99255
11
3.42421
21
-1.99255
0
LINE
8
BLACK
6
CONTINUOUS
10
3.42421
20
-1.99255
11
3.42421
21
-2.00952
0
LINE
8
BLACK
6
CONTINUOUS
10
3.42421
20
-2.00952
11
3.42534
21
-2.01177
0
LINE
8
BLACK
6
CONTINUOUS
10
3.42534
20
-2.01177
11
3.42758
21
-2.01289
0
LINE
8
BLACK
6
CONTINUOUS
10
3.42758
20
-2.01289
11
3.43063
21
-2.01289
0
LINE
8
BLACK
6
CONTINUOUS
10
3.43063
20
-2.01289
11
3.43164
21
-2.01307
0
LINE
8
BLACK
6
CONTINUOUS
10
3.43164
20
-2.01307
11
3.43319
21
-2.01437
0
LINE
8
BLACK
6
CONTINUOUS
10
3.43319
20
-2.01437
11
3.43354
21
-2.01635
0
LINE
8
BLACK
6
CONTINUOUS
10
3.43354
20
-2.01635
11
3.43253
21
-2.0181
0
LINE
8
BLACK
6
CONTINUOUS
10
3.43253
20
-2.0181
11
3.43063
21
-2.01879
0
LINE
8
BLACK
6
CONTINUOUS
10
3.43063
20
-2.01879
11
3.42688
21
-2.01879
0
LINE
8
BLACK
6
CONTINUOUS
10
3.42688
20
-2.01879
11
3.42587
21
-2.01862
0
LINE
8
BLACK
6
CONTINUOUS
10
3.42587
20
-2.01862
11
3.42574
21
-2.0185
0
LINE
8
BLACK
6
CONTINUOUS
10
3.42574
20
-2.0185
11
3.42556
21
-2.01848
0
LINE
8
BLACK
6
CONTINUOUS
10
3.42556
20
-2.01848
11
3.42181
21
-2.01661
0
LINE
8
BLACK
6
CONTINUOUS
10
3.42181
20
-2.01661
11
3.42099
21
-2.016
0
LINE
8
BLACK
6
CONTINUOUS
10
3.42099
20
-2.016
11
3.42081
21
-2.01559
0
LINE
8
BLACK
6
CONTINUOUS
10
3.42081
20
-2.01559
11
3.42049
21
-2.01529
0
LINE
8
BLACK
6
CONTINUOUS
10
3.42049
20
-2.01529
11
3.41862
21
-2.01154
0
LINE
8
BLACK
6
CONTINUOUS
10
3.41862
20
-2.01154
11
3.41833
21
-2.01056
0
LINE
8
BLACK
6
CONTINUOUS
10
3.41833
20
-2.01056
11
3.41837
21
-2.01038
0
LINE
8
BLACK
6
CONTINUOUS
10
3.41837
20
-2.01038
11
3.41831
21
-2.01022
0
LINE
8
BLACK
6
CONTINUOUS
10
3.41831
20
-2.01022
11
3.41831
21
-1.99255
0
LINE
8
BLACK
6
CONTINUOUS
10
3.41831
20
-1.99255
11
3.41564
21
-1.99255
0
LINE
8
BLACK
6
CONTINUOUS
10
3.41564
20
-1.99255
11
3.41463
21
-1.99237
0
LINE
8
BLACK
6
CONTINUOUS
10
3.41463
20
-1.99237
11
3.41308
21
-1.99107
0
LINE
8
BLACK
6
CONTINUOUS
10
3.41308
20
-1.99107
11
3.41273
21
-1.98908
0
LINE
8
BLACK
6
CONTINUOUS
10
3.41273
20
-1.98908
11
3.41374
21
-1.98733
0
LINE
8
BLACK
6
CONTINUOUS
10
3.41374
20
-1.98733
11
3.41564
21
-1.98664
0
LINE
8
BLACK
6
CONTINUOUS
10
3.41564
20
-1.98664
11
3.41831
21
-1.98664
0
LINE
8
BLACK
6
CONTINUOUS
10
3.41831
20
-1.98664
11
3.41831
21
-1.97647
0
LINE
8
BLACK
6
CONTINUOUS
10
3.41831
20
-1.97647
11
3.41849
21
-1.97546
0
LINE
8
BLACK
6
CONTINUOUS
10
3.41849
20
-1.97546
11
3.41978
21
-1.97391
0
LINE
8
BLACK
6
CONTINUOUS
10
3.41978
20
-1.97391
11
3.42177
21
-1.97356
0
LINE
8
BLACK
6
CONTINUOUS
10
3.42177
20
-1.97356
11
3.42352
21
-1.97457
0
LINE
8
BLACK
6
CONTINUOUS
10
4.40777
20
-1.97457
11
4.40846
21
-1.97647
0
LINE
8
BLACK
6
CONTINUOUS
10
4.40846
20
-1.97647
11
4.40846
21
-1.98664
0
LINE
8
BLACK
6
CONTINUOUS
10
4.40846
20
-1.98664
11
4.41489
21
-1.98664
0
LINE
8
BLACK
6
CONTINUOUS
10
4.41489
20
-1.98664
11
4.4159
21
-1.98682
0
LINE
8
BLACK
6
CONTINUOUS
10
4.4159
20
-1.98682
11
4.41744
21
-1.98812
0
LINE
8
BLACK
6
CONTINUOUS
10
4.41744
20
-1.98812
11
4.41779
21
-1.99011
0
LINE
8
BLACK
6
CONTINUOUS
10
4.41779
20
-1.99011
11
4.41678
21
-1.99186
0
LINE
8
BLACK
6
CONTINUOUS
10
4.41678
20
-1.99186
11
4.41489
21
-1.99255
0
LINE
8
BLACK
6
CONTINUOUS
10
4.41489
20
-1.99255
11
4.40846
21
-1.99255
0
LINE
8
BLACK
6
CONTINUOUS
10
4.40846
20
-1.99255
11
4.40846
21
-2.00952
0
LINE
8
BLACK
6
CONTINUOUS
10
4.40846
20
-2.00952
11
4.40959
21
-2.01177
0
LINE
8
BLACK
6
CONTINUOUS
10
4.40959
20
-2.01177
11
4.41183
21
-2.01289
0
LINE
8
BLACK
6
CONTINUOUS
10
4.41183
20
-2.01289
11
4.41489
21
-2.01289
0
LINE
8
BLACK
6
CONTINUOUS
10
4.41489
20
-2.01289
11
4.4159
21
-2.01307
0
LINE
8
BLACK
6
CONTINUOUS
10
4.4159
20
-2.01307
11
4.41744
21
-2.01437
0
LINE
8
BLACK
6
CONTINUOUS
10
4.41744
20
-2.01437
11
4.41779
21
-2.01635
0
LINE
8
BLACK
6
CONTINUOUS
10
4.41779
20
-2.01635
11
4.41678
21
-2.0181
0
LINE
8
BLACK
6
CONTINUOUS
10
4.41678
20
-2.0181
11
4.41489
21
-2.01879
0
LINE
8
BLACK
6
CONTINUOUS
10
4.41489
20
-2.01879
11
4.41114
21
-2.01879
0
LINE
8
BLACK
6
CONTINUOUS
10
4.41114
20
-2.01879
11
4.41013
21
-2.01862
0
LINE
8
BLACK
6
CONTINUOUS
10
4.41013
20
-2.01862
11
4.40999
21
-2.0185
0
LINE
8
BLACK
6
CONTINUOUS
10
4.40999
20
-2.0185
11
4.40982
21
-2.01848
0
LINE
8
BLACK
6
CONTINUOUS
10
4.40982
20
-2.01848
11
4.40607
21
-2.01661
0
LINE
8
BLACK
6
CONTINUOUS
10
4.40607
20
-2.01661
11
4.40524
21
-2.016
0
LINE
8
BLACK
6
CONTINUOUS
10
4.40524
20
-2.016
11
4.40507
21
-2.01559
0
LINE
8
BLACK
6
CONTINUOUS
10
4.40507
20
-2.01559
11
4.40475
21
-2.01529
0
LINE
8
BLACK
6
CONTINUOUS
10
4.40475
20
-2.01529
11
4.40287
21
-2.01154
0
LINE
8
BLACK
6
CONTINUOUS
10
4.40287
20
-2.01154
11
4.40258
21
-2.01056
0
LINE
8
BLACK
6
CONTINUOUS
10
4.40258
20
-2.01056
11
4.40262
21
-2.01038
0
LINE
8
BLACK
6
CONTINUOUS
10
4.40262
20
-2.01038
11
4.40256
21
-2.01022
0
LINE
8
BLACK
6
CONTINUOUS
10
4.40256
20
-2.01022
11
4.40256
21
-1.99255
0
LINE
8
BLACK
6
CONTINUOUS
10
4.40256
20
-1.99255
11
4.39989
21
-1.99255
0
LINE
8
BLACK
6
CONTINUOUS
10
4.39989
20
-1.99255
11
4.39888
21
-1.99237
0
LINE
8
BLACK
6
CONTINUOUS
10
4.39888
20
-1.99237
11
4.39733
21
-1.99107
0
LINE
8
BLACK
6
CONTINUOUS
10
4.39733
20
-1.99107
11
4.39698
21
-1.98908
0
LINE
8
BLACK
6
CONTINUOUS
10
4.39698
20
-1.98908
11
4.39799
21
-1.98733
0
LINE
8
BLACK
6
CONTINUOUS
10
4.39799
20
-1.98733
11
4.39989
21
-1.98664
0
LINE
8
BLACK
6
CONTINUOUS
10
4.39989
20
-1.98664
11
4.40256
21
-1.98664
0
LINE
8
BLACK
6
CONTINUOUS
10
4.40256
20
-1.98664
11
4.40256
21
-1.97647
0
LINE
8
BLACK
6
CONTINUOUS
10
4.40256
20
-1.97647
11
4.40274
21
-1.97546
0
LINE
8
BLACK
6
CONTINUOUS
10
4.40274
20
-1.97546
11
4.40404
21
-1.97391
0
LINE
8
BLACK
6
CONTINUOUS
10
4.40404
20
-1.97391
11
4.40602
21
-1.97356
0
LINE
8
BLACK
6
CONTINUOUS
10
4.40602
20
-1.97356
11
4.40777
21
-1.97457
0
LINE
8
BLACK
6
CONTINUOUS
10
3.32666
20
-1.98682
11
3.32679
21
-1.98693
0
LINE
8
BLACK
6
CONTINUOUS
10
3.32679
20
-1.98693
11
3.32697
21
-1.98695
0
LINE
8
BLACK
6
CONTINUOUS
10
3.32697
20
-1.98695
11
3.33072
21
-1.98883
0
LINE
8
BLACK
6
CONTINUOUS
10
3.33072
20
-1.98883
11
3.33143
21
-1.98935
0
LINE
8
BLACK
6
CONTINUOUS
10
3.33143
20
-1.98935
11
3.33148
21
-1.98938
0
LINE
8
BLACK
6
CONTINUOUS
10
3.33148
20
-1.98938
11
3.33336
21
-1.99126
0
LINE
8
BLACK
6
CONTINUOUS
10
3.33336
20
-1.99126
11
3.33387
21
-1.99198
0
LINE
8
BLACK
6
CONTINUOUS
10
3.33387
20
-1.99198
11
3.33391
21
-1.99202
0
LINE
8
BLACK
6
CONTINUOUS
10
3.33391
20
-1.99202
11
3.33579
21
-1.99577
0
LINE
8
BLACK
6
CONTINUOUS
10
3.33579
20
-1.99577
11
3.33608
21
-1.99676
0
LINE
8
BLACK
6
CONTINUOUS
10
3.33608
20
-1.99676
11
3.33604
21
-1.99693
0
LINE
8
BLACK
6
CONTINUOUS
10
3.33604
20
-1.99693
11
3.3361
21
-1.99709
0
LINE
8
BLACK
6
CONTINUOUS
10
3.3361
20
-1.99709
11
3.3361
21
-2.00834
0
LINE
8
BLACK
6
CONTINUOUS
10
3.3361
20
-2.00834
11
3.33592
21
-2.00935
0
LINE
8
BLACK
6
CONTINUOUS
10
3.33592
20
-2.00935
11
3.33581
21
-2.00949
0
LINE
8
BLACK
6
CONTINUOUS
10
3.33581
20
-2.00949
11
3.33579
21
-2.00966
0
LINE
8
BLACK
6
CONTINUOUS
10
3.33579
20
-2.00966
11
3.33391
21
-2.01341
0
LINE
8
BLACK
6
CONTINUOUS
10
3.33391
20
-2.01341
11
3.33339
21
-2.01412
0
LINE
8
BLACK
6
CONTINUOUS
10
3.33339
20
-2.01412
11
3.33336
21
-2.01418
0
LINE
8
BLACK
6
CONTINUOUS
10
3.33336
20
-2.01418
11
3.33148
21
-2.01605
0
LINE
8
BLACK
6
CONTINUOUS
10
3.33148
20
-2.01605
11
3.33076
21
-2.01656
0
LINE
8
BLACK
6
CONTINUOUS
10
3.33076
20
-2.01656
11
3.33072
21
-2.01661
0
LINE
8
BLACK
6
CONTINUOUS
10
3.33072
20
-2.01661
11
3.32697
21
-2.01848
0
LINE
8
BLACK
6
CONTINUOUS
10
3.32697
20
-2.01848
11
3.32598
21
-2.01878
0
LINE
8
BLACK
6
CONTINUOUS
10
3.32598
20
-2.01878
11
3.32581
21
-2.01873
0
LINE
8
BLACK
6
CONTINUOUS
10
3.32581
20
-2.01873
11
3.32565
21
-2.01879
0
LINE
8
BLACK
6
CONTINUOUS
10
3.32565
20
-2.01879
11
3.32002
21
-2.01879
0
LINE
8
BLACK
6
CONTINUOUS
10
3.32002
20
-2.01879
11
3.31901
21
-2.01862
0
LINE
8
BLACK
6
CONTINUOUS
10
3.31901
20
-2.01862
11
3.31888
21
-2.0185
0
LINE
8
BLACK
6
CONTINUOUS
10
3.31888
20
-2.0185
11
3.3187
21
-2.01848
0
LINE
8
BLACK
6
CONTINUOUS
10
3.3187
20
-2.01848
11
3.31495
21
-2.01661
0
LINE
8
BLACK
6
CONTINUOUS
10
3.31495
20
-2.01661
11
3.31424
21
-2.01608
0
LINE
8
BLACK
6
CONTINUOUS
10
3.31424
20
-2.01608
11
3.31419
21
-2.01605
0
LINE
8
BLACK
6
CONTINUOUS
10
3.31419
20
-2.01605
11
3.31231
21
-2.01418
0
LINE
8
BLACK
6
CONTINUOUS
10
3.31231
20
-2.01418
11
3.3118
21
-2.01346
0
LINE
8
BLACK
6
CONTINUOUS
10
3.3118
20
-2.01346
11
3.31176
21
-2.01341
0
LINE
8
BLACK
6
CONTINUOUS
10
3.31176
20
-2.01341
11
3.30988
21
-2.00966
0
LINE
8
BLACK
6
CONTINUOUS
10
3.30988
20
-2.00966
11
3.30959
21
-2.00868
0
LINE
8
BLACK
6
CONTINUOUS
10
3.30959
20
-2.00868
11
3.30963
21
-2.00851
0
LINE
8
BLACK
6
CONTINUOUS
10
3.30963
20
-2.00851
11
3.30957
21
-2.00834
0
LINE
8
BLACK
6
CONTINUOUS
10
3.30957
20
-2.00834
11
3.30957
21
-1.99709
0
LINE
8
BLACK
6
CONTINUOUS
10
3.30957
20
-1.99709
11
3.30975
21
-1.99608
0
LINE
8
BLACK
6
CONTINUOUS
10
3.30975
20
-1.99608
11
3.30986
21
-1.99595
0
LINE
8
BLACK
6
CONTINUOUS
10
3.30986
20
-1.99595
11
3.30988
21
-1.99577
0
LINE
8
BLACK
6
CONTINUOUS
10
3.30988
20
-1.99577
11
3.31176
21
-1.99202
0
LINE
8
BLACK
6
CONTINUOUS
10
3.31176
20
-1.99202
11
3.31228
21
-1.99131
0
LINE
8
BLACK
6
CONTINUOUS
10
3.31228
20
-1.99131
11
3.31231
21
-1.99126
0
LINE
8
BLACK
6
CONTINUOUS
10
3.31231
20
-1.99126
11
3.31419
21
-1.98938
0
LINE
8
BLACK
6
CONTINUOUS
10
3.31419
20
-1.98938
11
3.31491
21
-1.98888
0
LINE
8
BLACK
6
CONTINUOUS
10
3.31491
20
-1.98888
11
3.31495
21
-1.98883
0
LINE
8
BLACK
6
CONTINUOUS
10
3.31495
20
-1.98883
11
3.3187
21
-1.98695
0
LINE
8
BLACK
6
CONTINUOUS
10
3.3187
20
-1.98695
11
3.31968
21
-1.98666
0
LINE
8
BLACK
6
CONTINUOUS
10
3.31968
20
-1.98666
11
3.31986
21
-1.9867
0
LINE
8
BLACK
6
CONTINUOUS
10
3.31986
20
-1.9867
11
3.32002
21
-1.98664
0
LINE
8
BLACK
6
CONTINUOUS
10
3.32002
20
-1.98664
11
3.32565
21
-1.98664
0
LINE
8
BLACK
6
CONTINUOUS
10
3.32565
20
-1.98664
11
3.32666
21
-1.98682
0
LINE
8
BLACK
6
CONTINUOUS
10
3.32072
20
-1.99255
11
3.31802
21
-1.9939
0
LINE
8
BLACK
6
CONTINUOUS
10
3.31802
20
-1.9939
11
3.31682
21
-1.99509
0
LINE
8
BLACK
6
CONTINUOUS
10
3.31682
20
-1.99509
11
3.31548
21
-1.99779
0
LINE
8
BLACK
6
CONTINUOUS
10
3.31548
20
-1.99779
11
3.31548
21
-2.00765
0
LINE
8
BLACK
6
CONTINUOUS
10
3.31548
20
-2.00765
11
3.31682
21
-2.01034
0
LINE
8
BLACK
6
CONTINUOUS
10
3.31682
20
-2.01034
11
3.31802
21
-2.01154
0
LINE
8
BLACK
6
CONTINUOUS
10
3.31802
20
-2.01154
11
3.32072
21
-2.01289
0
LINE
8
BLACK
6
CONTINUOUS
10
3.32072
20
-2.01289
11
3.32495
21
-2.01289
0
LINE
8
BLACK
6
CONTINUOUS
10
3.32495
20
-2.01289
11
3.32765
21
-2.01154
0
LINE
8
BLACK
6
CONTINUOUS
10
3.32765
20
-2.01154
11
3.32884
21
-2.01034
0
LINE
8
BLACK
6
CONTINUOUS
10
3.32884
20
-2.01034
11
3.33019
21
-2.00765
0
LINE
8
BLACK
6
CONTINUOUS
10
3.33019
20
-2.00765
11
3.33019
21
-1.99779
0
LINE
8
BLACK
6
CONTINUOUS
10
3.33019
20
-1.99779
11
3.32884
21
-1.99509
0
LINE
8
BLACK
6
CONTINUOUS
10
3.32884
20
-1.99509
11
3.32765
21
-1.9939
0
LINE
8
BLACK
6
CONTINUOUS
10
3.32765
20
-1.9939
11
3.32495
21
-1.99255
0
LINE
8
BLACK
6
CONTINUOUS
10
3.32495
20
-1.99255
11
3.32072
21
-1.99255
0
LINE
8
BLACK
6
CONTINUOUS
10
4.55968
20
-1.9736
11
4.55982
21
-1.97357
0
LINE
8
BLACK
6
CONTINUOUS
10
4.55982
20
-1.97357
11
4.55992
21
-1.97364
0
LINE
8
BLACK
6
CONTINUOUS
10
4.55992
20
-1.97364
11
4.56025
21
-1.9737
0
LINE
8
BLACK
6
CONTINUOUS
10
4.56025
20
-1.9737
11
4.56086
21
-1.97421
0
LINE
8
BLACK
6
CONTINUOUS
10
4.56086
20
-1.97421
11
4.56154
21
-1.97462
0
LINE
8
BLACK
6
CONTINUOUS
10
4.56154
20
-1.97462
11
4.56162
21
-1.97484
0
LINE
8
BLACK
6
CONTINUOUS
10
4.56162
20
-1.97484
11
4.5618
21
-1.975
0
LINE
8
BLACK
6
CONTINUOUS
10
4.5618
20
-1.975
11
4.56194
21
-1.97578
0
LINE
8
BLACK
6
CONTINUOUS
10
4.56194
20
-1.97578
11
4.56219
21
-1.97653
0
LINE
8
BLACK
6
CONTINUOUS
10
4.56219
20
-1.97653
11
4.56211
21
-1.97675
0
LINE
8
BLACK
6
CONTINUOUS
10
4.56211
20
-1.97675
11
4.56215
21
-1.97698
0
LINE
8
BLACK
6
CONTINUOUS
10
4.56215
20
-1.97698
11
4.56175
21
-1.97767
0
LINE
8
BLACK
6
CONTINUOUS
10
4.56175
20
-1.97767
11
4.56146
21
-1.97842
0
LINE
8
BLACK
6
CONTINUOUS
10
4.56146
20
-1.97842
11
4.55251
21
-1.98865
0
LINE
8
BLACK
6
CONTINUOUS
10
4.55251
20
-1.98865
11
4.55275
21
-1.9887
0
LINE
8
BLACK
6
CONTINUOUS
10
4.55275
20
-1.9887
11
4.55289
21
-1.98881
0
LINE
8
BLACK
6
CONTINUOUS
10
4.55289
20
-1.98881
11
4.55306
21
-1.98883
0
LINE
8
BLACK
6
CONTINUOUS
10
4.55306
20
-1.98883
11
4.55681
21
-1.9907
0
LINE
8
BLACK
6
CONTINUOUS
10
4.55681
20
-1.9907
11
4.55752
21
-1.99123
0
LINE
8
BLACK
6
CONTINUOUS
10
4.55752
20
-1.99123
11
4.55758
21
-1.99126
0
LINE
8
BLACK
6
CONTINUOUS
10
4.55758
20
-1.99126
11
4.55946
21
-1.99313
0
LINE
8
BLACK
6
CONTINUOUS
10
4.55946
20
-1.99313
11
4.55996
21
-1.99385
0
LINE
8
BLACK
6
CONTINUOUS
10
4.55996
20
-1.99385
11
4.56001
21
-1.9939
0
LINE
8
BLACK
6
CONTINUOUS
10
4.56001
20
-1.9939
11
4.56188
21
-1.99765
0
LINE
8
BLACK
6
CONTINUOUS
10
4.56188
20
-1.99765
11
4.56218
21
-1.99863
0
LINE
8
BLACK
6
CONTINUOUS
10
4.56218
20
-1.99863
11
4.56213
21
-1.9988
0
LINE
8
BLACK
6
CONTINUOUS
10
4.56213
20
-1.9988
11
4.5622
21
-1.99897
0
LINE
8
BLACK
6
CONTINUOUS
10
4.5622
20
-1.99897
11
4.5622
21
-2.00834
0
LINE
8
BLACK
6
CONTINUOUS
10
4.5622
20
-2.00834
11
4.56202
21
-2.00935
0
LINE
8
BLACK
6
CONTINUOUS
10
4.56202
20
-2.00935
11
4.5619
21
-2.00949
0
LINE
8
BLACK
6
CONTINUOUS
10
4.5619
20
-2.00949
11
4.56188
21
-2.00966
0
LINE
8
BLACK
6
CONTINUOUS
10
4.56188
20
-2.00966
11
4.56001
21
-2.01341
0
LINE
8
BLACK
6
CONTINUOUS
10
4.56001
20
-2.01341
11
4.55948
21
-2.01412
0
LINE
8
BLACK
6
CONTINUOUS
10
4.55948
20
-2.01412
11
4.55946
21
-2.01418
0
LINE
8
BLACK
6
CONTINUOUS
10
4.55946
20
-2.01418
11
4.55758
21
-2.01605
0
LINE
8
BLACK
6
CONTINUOUS
10
4.55758
20
-2.01605
11
4.55686
21
-2.01656
0
LINE
8
BLACK
6
CONTINUOUS
10
4.55686
20
-2.01656
11
4.55681
21
-2.01661
0
LINE
8
BLACK
6
CONTINUOUS
10
4.55681
20
-2.01661
11
4.55306
21
-2.01848
0
LINE
8
BLACK
6
CONTINUOUS
10
4.55306
20
-2.01848
11
4.55208
21
-2.01878
0
LINE
8
BLACK
6
CONTINUOUS
10
4.55208
20
-2.01878
11
4.55191
21
-2.01873
0
LINE
8
BLACK
6
CONTINUOUS
10
4.55191
20
-2.01873
11
4.55174
21
-2.01879
0
LINE
8
BLACK
6
CONTINUOUS
10
4.55174
20
-2.01879
11
4.54049
21
-2.01879
0
LINE
8
BLACK
6
CONTINUOUS
10
4.54049
20
-2.01879
11
4.53948
21
-2.01862
0
LINE
8
BLACK
6
CONTINUOUS
10
4.53948
20
-2.01862
11
4.53935
21
-2.0185
0
LINE
8
BLACK
6
CONTINUOUS
10
4.53935
20
-2.0185
11
4.53917
21
-2.01848
0
LINE
8
BLACK
6
CONTINUOUS
10
4.53917
20
-2.01848
11
4.53542
21
-2.01661
0
LINE
8
BLACK
6
CONTINUOUS
10
4.53542
20
-2.01661
11
4.53472
21
-2.01608
0
LINE
8
BLACK
6
CONTINUOUS
10
4.53472
20
-2.01608
11
4.53466
21
-2.01605
0
LINE
8
BLACK
6
CONTINUOUS
10
4.53466
20
-2.01605
11
4.53278
21
-2.01418
0
LINE
8
BLACK
6
CONTINUOUS
10
4.53278
20
-2.01418
11
4.53219
21
-2.01334
0
LINE
8
BLACK
6
CONTINUOUS
10
4.53219
20
-2.01334
11
4.53202
21
-2.01133
0
LINE
8
BLACK
6
CONTINUOUS
10
4.53202
20
-2.01133
11
4.53318
21
-2.00967
0
LINE
8
BLACK
6
CONTINUOUS
10
4.53318
20
-2.00967
11
4.53513
21
-2.00915
0
LINE
8
BLACK
6
CONTINUOUS
10
4.53513
20
-2.00915
11
4.53696
21
-2.01
0
LINE
8
BLACK
6
CONTINUOUS
10
4.53696
20
-2.01
11
4.53849
21
-2.01154
0
LINE
8
BLACK
6
CONTINUOUS
10
4.53849
20
-2.01154
11
4.54119
21
-2.01289
0
LINE
8
BLACK
6
CONTINUOUS
10
4.54119
20
-2.01289
11
4.55105
21
-2.01289
0
LINE
8
BLACK
6
CONTINUOUS
10
4.55105
20
-2.01289
11
4.55374
21
-2.01154
0
LINE
8
BLACK
6
CONTINUOUS
10
4.55374
20
-2.01154
11
4.55494
21
-2.01034
0
LINE
8
BLACK
6
CONTINUOUS
10
4.55494
20
-2.01034
11
4.55629
21
-2.00765
0
LINE
8
BLACK
6
CONTINUOUS
10
4.55629
20
-2.00765
11
4.55629
21
-1.99967
0
LINE
8
BLACK
6
CONTINUOUS
10
4.55629
20
-1.99967
11
4.55494
21
-1.99697
0
LINE
8
BLACK
6
CONTINUOUS
10
4.55494
20
-1.99697
11
4.55374
21
-1.99577
0
LINE
8
BLACK
6
CONTINUOUS
10
4.55374
20
-1.99577
11
4.55105
21
-1.99442
0
LINE
8
BLACK
6
CONTINUOUS
10
4.55105
20
-1.99442
11
4.54612
21
-1.99442
0
LINE
8
BLACK
6
CONTINUOUS
10
4.54612
20
-1.99442
11
4.54568
21
-1.99435
0
LINE
8
BLACK
6
CONTINUOUS
10
4.54568
20
-1.99435
11
4.54555
21
-1.99437
0
LINE
8
BLACK
6
CONTINUOUS
10
4.54555
20
-1.99437
11
4.54544
21
-1.9943
0
LINE
8
BLACK
6
CONTINUOUS
10
4.54544
20
-1.9943
11
4.54511
21
-1.99424
0
LINE
8
BLACK
6
CONTINUOUS
10
4.54511
20
-1.99424
11
4.5445
21
-1.99373
0
LINE
8
BLACK
6
CONTINUOUS
10
4.5445
20
-1.99373
11
4.54382
21
-1.99332
0
LINE
8
BLACK
6
CONTINUOUS
10
4.54382
20
-1.99332
11
4.54374
21
-1.9931
0
LINE
8
BLACK
6
CONTINUOUS
10
4.54374
20
-1.9931
11
4.54356
21
-1.99295
0
LINE
8
BLACK
6
CONTINUOUS
10
4.54356
20
-1.99295
11
4.54342
21
-1.99216
0
LINE
8
BLACK
6
CONTINUOUS
10
4.54342
20
-1.99216
11
4.54317
21
-1.99141
0
LINE
8
BLACK
6
CONTINUOUS
10
4.54317
20
-1.99141
11
4.54325
21
-1.99119
0
LINE
8
BLACK
6
CONTINUOUS
10
4.54325
20
-1.99119
11
4.54321
21
-1.99096
0
LINE
8
BLACK
6
CONTINUOUS
10
4.54321
20
-1.99096
11
4.54361
21
-1.99027
0
LINE
8
BLACK
6
CONTINUOUS
10
4.54361
20
-1.99027
11
4.5439
21
-1.98953
0
LINE
8
BLACK
6
CONTINUOUS
10
4.5439
20
-1.98953
11
4.55274
21
-1.97942
0
LINE
8
BLACK
6
CONTINUOUS
10
4.55274
20
-1.97942
11
4.53487
21
-1.97942
0
LINE
8
BLACK
6
CONTINUOUS
10
4.53487
20
-1.97942
11
4.53386
21
-1.97925
0
LINE
8
BLACK
6
CONTINUOUS
10
4.53386
20
-1.97925
11
4.53231
21
-1.97795
0
LINE
8
BLACK
6
CONTINUOUS
10
4.53231
20
-1.97795
11
4.53196
21
-1.97596
0
LINE
8
BLACK
6
CONTINUOUS
10
4.53196
20
-1.97596
11
4.53297
21
-1.97421
0
LINE
8
BLACK
6
CONTINUOUS
10
4.53297
20
-1.97421
11
4.53487
21
-1.97352
0
LINE
8
BLACK
6
CONTINUOUS
10
4.53487
20
-1.97352
11
4.55924
21
-1.97352
0
LINE
8
BLACK
6
CONTINUOUS
10
4.55924
20
-1.97352
11
4.55968
21
-1.9736
0
LINE
8
BLACK
6
CONTINUOUS
10
4.47964
20
-1.98682
11
4.47977
21
-1.98693
0
LINE
8
BLACK
6
CONTINUOUS
10
4.47977
20
-1.98693
11
4.47995
21
-1.98695
0
LINE
8
BLACK
6
CONTINUOUS
10
4.47995
20
-1.98695
11
4.4837
21
-1.98883
0
LINE
8
BLACK
6
CONTINUOUS
10
4.4837
20
-1.98883
11
4.48452
21
-1.98944
0
LINE
8
BLACK
6
CONTINUOUS
10
4.48452
20
-1.98944
11
4.4847
21
-1.98985
0
LINE
8
BLACK
6
CONTINUOUS
10
4.4847
20
-1.98985
11
4.48502
21
-1.99015
0
LINE
8
BLACK
6
CONTINUOUS
10
4.48502
20
-1.99015
11
4.48689
21
-1.9939
0
LINE
8
BLACK
6
CONTINUOUS
10
4.48689
20
-1.9939
11
4.48719
21
-1.99488
0
LINE
8
BLACK
6
CONTINUOUS
10
4.48719
20
-1.99488
11
4.48714
21
-1.99505
0
LINE
8
BLACK
6
CONTINUOUS
10
4.48714
20
-1.99505
11
4.4872
21
-1.99522
0
LINE
8
BLACK
6
CONTINUOUS
10
4.4872
20
-1.99522
11
4.4872
21
-2.01584
0
LINE
8
BLACK
6
CONTINUOUS
10
4.4872
20
-2.01584
11
4.48703
21
-2.01685
0
LINE
8
BLACK
6
CONTINUOUS
10
4.48703
20
-2.01685
11
4.48573
21
-2.0184
0
LINE
8
BLACK
6
CONTINUOUS
10
4.48573
20
-2.0184
11
4.48374
21
-2.01875
0
LINE
8
BLACK
6
CONTINUOUS
10
4.48374
20
-2.01875
11
4.4826
21
-2.01809
0
LINE
8
BLACK
6
CONTINUOUS
10
4.4826
20
-2.01809
11
4.48182
21
-2.01848
0
LINE
8
BLACK
6
CONTINUOUS
10
4.48182
20
-2.01848
11
4.48084
21
-2.01878
0
LINE
8
BLACK
6
CONTINUOUS
10
4.48084
20
-2.01878
11
4.48067
21
-2.01873
0
LINE
8
BLACK
6
CONTINUOUS
10
4.48067
20
-2.01873
11
4.4805
21
-2.01879
0
LINE
8
BLACK
6
CONTINUOUS
10
4.4805
20
-2.01879
11
4.47113
21
-2.01879
0
LINE
8
BLACK
6
CONTINUOUS
10
4.47113
20
-2.01879
11
4.47012
21
-2.01862
0
LINE
8
BLACK
6
CONTINUOUS
10
4.47012
20
-2.01862
11
4.46998
21
-2.0185
0
LINE
8
BLACK
6
CONTINUOUS
10
4.46998
20
-2.0185
11
4.46981
21
-2.01848
0
LINE
8
BLACK
6
CONTINUOUS
10
4.46981
20
-2.01848
11
4.46606
21
-2.01661
0
LINE
8
BLACK
6
CONTINUOUS
10
4.46606
20
-2.01661
11
4.46523
21
-2.016
0
LINE
8
BLACK
6
CONTINUOUS
10
4.46523
20
-2.016
11
4.46506
21
-2.01559
0
LINE
8
BLACK
6
CONTINUOUS
10
4.46506
20
-2.01559
11
4.46474
21
-2.01529
0
LINE
8
BLACK
6
CONTINUOUS
10
4.46474
20
-2.01529
11
4.46286
21
-2.01154
0
LINE
8
BLACK
6
CONTINUOUS
10
4.46286
20
-2.01154
11
4.46257
21
-2.01056
0
LINE
8
BLACK
6
CONTINUOUS
10
4.46257
20
-2.01056
11
4.46261
21
-2.01038
0
LINE
8
BLACK
6
CONTINUOUS
10
4.46261
20
-2.01038
11
4.46255
21
-2.01022
0
LINE
8
BLACK
6
CONTINUOUS
10
4.46255
20
-2.01022
11
4.46255
21
-2.00647
0
LINE
8
BLACK
6
CONTINUOUS
10
4.46255
20
-2.00647
11
4.46273
21
-2.00546
0
LINE
8
BLACK
6
CONTINUOUS
10
4.46273
20
-2.00546
11
4.46284
21
-2.00532
0
LINE
8
BLACK
6
CONTINUOUS
10
4.46284
20
-2.00532
11
4.46286
21
-2.00515
0
LINE
8
BLACK
6
CONTINUOUS
10
4.46286
20
-2.00515
11
4.46474
21
-2.0014
0
LINE
8
BLACK
6
CONTINUOUS
10
4.46474
20
-2.0014
11
4.46535
21
-2.00057
0
LINE
8
BLACK
6
CONTINUOUS
10
4.46535
20
-2.00057
11
4.46575
21
-2.0004
0
LINE
8
BLACK
6
CONTINUOUS
10
4.46575
20
-2.0004
11
4.46606
21
-2.00008
0
LINE
8
BLACK
6
CONTINUOUS
10
4.46606
20
-2.00008
11
4.46981
21
-1.9982
0
LINE
8
BLACK
6
CONTINUOUS
10
4.46981
20
-1.9982
11
4.47079
21
-1.99791
0
LINE
8
BLACK
6
CONTINUOUS
10
4.47079
20
-1.99791
11
4.47096
21
-1.99795
0
LINE
8
BLACK
6
CONTINUOUS
10
4.47096
20
-1.99795
11
4.47113
21
-1.99789
0
LINE
8
BLACK
6
CONTINUOUS
10
4.47113
20
-1.99789
11
4.47981
21
-1.99789
0
LINE
8
BLACK
6
CONTINUOUS
10
4.47981
20
-1.99789
11
4.4813
21
-1.99714
0
LINE
8
BLACK
6
CONTINUOUS
10
4.4813
20
-1.99714
11
4.4813
21
-1.99592
0
LINE
8
BLACK
6
CONTINUOUS
10
4.4813
20
-1.99592
11
4.48018
21
-1.99367
0
LINE
8
BLACK
6
CONTINUOUS
10
4.48018
20
-1.99367
11
4.47793
21
-1.99255
0
LINE
8
BLACK
6
CONTINUOUS
10
4.47793
20
-1.99255
11
4.47183
21
-1.99255
0
LINE
8
BLACK
6
CONTINUOUS
10
4.47183
20
-1.99255
11
4.4687
21
-1.99411
0
LINE
8
BLACK
6
CONTINUOUS
10
4.4687
20
-1.99411
11
4.46772
21
-1.9944
0
LINE
8
BLACK
6
CONTINUOUS
10
4.46772
20
-1.9944
11
4.46575
21
-1.99393
0
LINE
8
BLACK
6
CONTINUOUS
10
4.46575
20
-1.99393
11
4.46455
21
-1.99231
0
LINE
8
BLACK
6
CONTINUOUS
10
4.46455
20
-1.99231
11
4.46467
21
-1.9903
0
LINE
8
BLACK
6
CONTINUOUS
10
4.46467
20
-1.9903
11
4.46606
21
-1.98883
0
LINE
8
BLACK
6
CONTINUOUS
10
4.46606
20
-1.98883
11
4.46981
21
-1.98695
0
LINE
8
BLACK
6
CONTINUOUS
10
4.46981
20
-1.98695
11
4.47079
21
-1.98666
0
LINE
8
BLACK
6
CONTINUOUS
10
4.47079
20
-1.98666
11
4.47096
21
-1.9867
0
LINE
8
BLACK
6
CONTINUOUS
10
4.47096
20
-1.9867
11
4.47113
21
-1.98664
0
LINE
8
BLACK
6
CONTINUOUS
10
4.47113
20
-1.98664
11
4.47863
21
-1.98664
0
LINE
8
BLACK
6
CONTINUOUS
10
4.47863
20
-1.98664
11
4.47964
21
-1.98682
0
LINE
8
BLACK
6
CONTINUOUS
10
4.48084
20
-2.00378
11
4.48067
21
-2.00374
0
LINE
8
BLACK
6
CONTINUOUS
10
4.48067
20
-2.00374
11
4.4805
21
-2.0038
0
LINE
8
BLACK
6
CONTINUOUS
10
4.4805
20
-2.0038
11
4.47183
21
-2.0038
0
LINE
8
BLACK
6
CONTINUOUS
10
4.47183
20
-2.0038
11
4.46958
21
-2.00492
0
LINE
8
BLACK
6
CONTINUOUS
10
4.46958
20
-2.00492
11
4.46846
21
-2.00716
0
LINE
8
BLACK
6
CONTINUOUS
10
4.46846
20
-2.00716
11
4.46846
21
-2.00952
0
LINE
8
BLACK
6
CONTINUOUS
10
4.46846
20
-2.00952
11
4.46958
21
-2.01177
0
LINE
8
BLACK
6
CONTINUOUS
10
4.46958
20
-2.01177
11
4.47183
21
-2.01289
0
LINE
8
BLACK
6
CONTINUOUS
10
4.47183
20
-2.01289
11
4.47981
21
-2.01289
0
LINE
8
BLACK
6
CONTINUOUS
10
4.47981
20
-2.01289
11
4.4813
21
-2.01214
0
LINE
8
BLACK
6
CONTINUOUS
10
4.4813
20
-2.01214
11
4.4813
21
-2.00364
0
LINE
8
BLACK
6
CONTINUOUS
10
4.4813
20
-2.00364
11
4.48084
21
-2.00378
0
LINE
8
BLACK
6
CONTINUOUS
10
3.49539
20
-1.98682
11
3.49552
21
-1.98693
0
LINE
8
BLACK
6
CONTINUOUS
10
3.49552
20
-1.98693
11
3.4957
21
-1.98695
0
LINE
8
BLACK
6
CONTINUOUS
10
3.4957
20
-1.98695
11
3.49945
21
-1.98883
0
LINE
8
BLACK
6
CONTINUOUS
10
3.49945
20
-1.98883
11
3.50027
21
-1.98944
0
LINE
8
BLACK
6
CONTINUOUS
10
3.50027
20
-1.98944
11
3.50045
21
-1.98985
0
LINE
8
BLACK
6
CONTINUOUS
10
3.50045
20
-1.98985
11
3.50077
21
-1.99015
0
LINE
8
BLACK
6
CONTINUOUS
10
3.50077
20
-1.99015
11
3.50264
21
-1.9939
0
LINE
8
BLACK
6
CONTINUOUS
10
3.50264
20
-1.9939
11
3.50293
21
-1.99488
0
LINE
8
BLACK
6
CONTINUOUS
10
3.50293
20
-1.99488
11
3.50289
21
-1.99505
0
LINE
8
BLACK
6
CONTINUOUS
10
3.50289
20
-1.99505
11
3.50295
21
-1.99522
0
LINE
8
BLACK
6
CONTINUOUS
10
3.50295
20
-1.99522
11
3.50295
21
-2.01584
0
LINE
8
BLACK
6
CONTINUOUS
10
3.50295
20
-2.01584
11
3.50277
21
-2.01685
0
LINE
8
BLACK
6
CONTINUOUS
10
3.50277
20
-2.01685
11
3.50148
21
-2.0184
0
LINE
8
BLACK
6
CONTINUOUS
10
3.50148
20
-2.0184
11
3.49949
21
-2.01875
0
LINE
8
BLACK
6
CONTINUOUS
10
3.49949
20
-2.01875
11
3.49835
21
-2.01809
0
LINE
8
BLACK
6
CONTINUOUS
10
3.49835
20
-2.01809
11
3.49757
21
-2.01848
0
LINE
8
BLACK
6
CONTINUOUS
10
3.49757
20
-2.01848
11
3.49659
21
-2.01878
0
LINE
8
BLACK
6
CONTINUOUS
10
3.49659
20
-2.01878
11
3.49642
21
-2.01873
0
LINE
8
BLACK
6
CONTINUOUS
10
3.49642
20
-2.01873
11
3.49625
21
-2.01879
0
LINE
8
BLACK
6
CONTINUOUS
10
3.49625
20
-2.01879
11
3.48688
21
-2.01879
0
LINE
8
BLACK
6
CONTINUOUS
10
3.48688
20
-2.01879
11
3.48587
21
-2.01862
0
LINE
8
BLACK
6
CONTINUOUS
10
3.48587
20
-2.01862
11
3.48573
21
-2.0185
0
LINE
8
BLACK
6
CONTINUOUS
10
3.48573
20
-2.0185
11
3.48556
21
-2.01848
0
LINE
8
BLACK
6
CONTINUOUS
10
3.48556
20
-2.01848
11
3.48181
21
-2.01661
0
LINE
8
BLACK
6
CONTINUOUS
10
3.48181
20
-2.01661
11
3.48098
21
-2.016
0
LINE
8
BLACK
6
CONTINUOUS
10
3.48098
20
-2.016
11
3.48081
21
-2.01559
0
LINE
8
BLACK
6
CONTINUOUS
10
3.48081
20
-2.01559
11
3.48049
21
-2.01529
0
LINE
8
BLACK
6
CONTINUOUS
10
3.48049
20
-2.01529
11
3.47861
21
-2.01154
0
LINE
8
BLACK
6
CONTINUOUS
10
3.47861
20
-2.01154
11
3.47832
21
-2.01056
0
LINE
8
BLACK
6
CONTINUOUS
10
3.47832
20
-2.01056
11
3.47836
21
-2.01038
0
LINE
8
BLACK
6
CONTINUOUS
10
3.47836
20
-2.01038
11
3.4783
21
-2.01022
0
LINE
8
BLACK
6
CONTINUOUS
10
3.4783
20
-2.01022
11
3.4783
21
-2.00647
0
LINE
8
BLACK
6
CONTINUOUS
10
3.4783
20
-2.00647
11
3.47848
21
-2.00546
0
LINE
8
BLACK
6
CONTINUOUS
10
3.47848
20
-2.00546
11
3.47859
21
-2.00532
0
LINE
8
BLACK
6
CONTINUOUS
10
3.47859
20
-2.00532
11
3.47861
21
-2.00515
0
LINE
8
BLACK
6
CONTINUOUS
10
3.47861
20
-2.00515
11
3.48049
21
-2.0014
0
LINE
8
BLACK
6
CONTINUOUS
10
3.48049
20
-2.0014
11
3.4811
21
-2.00057
0
LINE
8
BLACK
6
CONTINUOUS
10
3.4811
20
-2.00057
11
3.4815
21
-2.0004
0
LINE
8
BLACK
6
CONTINUOUS
10
3.4815
20
-2.0004
11
3.48181
21
-2.00008
0
LINE
8
BLACK
6
CONTINUOUS
10
3.48181
20
-2.00008
11
3.48556
21
-1.9982
0
LINE
8
BLACK
6
CONTINUOUS
10
3.48556
20
-1.9982
11
3.48654
21
-1.99791
0
LINE
8
BLACK
6
CONTINUOUS
10
3.48654
20
-1.99791
11
3.48671
21
-1.99795
0
LINE
8
BLACK
6
CONTINUOUS
10
3.48671
20
-1.99795
11
3.48688
21
-1.99789
0
LINE
8
BLACK
6
CONTINUOUS
10
3.48688
20
-1.99789
11
3.49555
21
-1.99789
0
LINE
8
BLACK
6
CONTINUOUS
10
3.49555
20
-1.99789
11
3.49705
21
-1.99714
0
LINE
8
BLACK
6
CONTINUOUS
10
3.49705
20
-1.99714
11
3.49705
21
-1.99592
0
LINE
8
BLACK
6
CONTINUOUS
10
3.49705
20
-1.99592
11
3.49592
21
-1.99367
0
LINE
8
BLACK
6
CONTINUOUS
10
3.49592
20
-1.99367
11
3.49368
21
-1.99255
0
LINE
8
BLACK
6
CONTINUOUS
10
3.49368
20
-1.99255
11
3.48757
21
-1.99255
0
LINE
8
BLACK
6
CONTINUOUS
10
3.48757
20
-1.99255
11
3.48445
21
-1.99411
0
LINE
8
BLACK
6
CONTINUOUS
10
3.48445
20
-1.99411
11
3.48346
21
-1.9944
0
LINE
8
BLACK
6
CONTINUOUS
10
3.48346
20
-1.9944
11
3.4815
21
-1.99393
0
LINE
8
BLACK
6
CONTINUOUS
10
3.4815
20
-1.99393
11
3.4803
21
-1.99231
0
LINE
8
BLACK
6
CONTINUOUS
10
3.4803
20
-1.99231
11
3.48042
21
-1.9903
0
LINE
8
BLACK
6
CONTINUOUS
10
3.48042
20
-1.9903
11
3.48181
21
-1.98883
0
LINE
8
BLACK
6
CONTINUOUS
10
3.48181
20
-1.98883
11
3.48556
21
-1.98695
0
LINE
8
BLACK
6
CONTINUOUS
10
3.48556
20
-1.98695
11
3.48654
21
-1.98666
0
LINE
8
BLACK
6
CONTINUOUS
10
3.48654
20
-1.98666
11
3.48671
21
-1.9867
0
LINE
8
BLACK
6
CONTINUOUS
10
3.48671
20
-1.9867
11
3.48688
21
-1.98664
0
LINE
8
BLACK
6
CONTINUOUS
10
3.48688
20
-1.98664
11
3.49438
21
-1.98664
0
LINE
8
BLACK
6
CONTINUOUS
10
3.49438
20
-1.98664
11
3.49539
21
-1.98682
0
LINE
8
BLACK
6
CONTINUOUS
10
3.49659
20
-2.00378
11
3.49642
21
-2.00374
0
LINE
8
BLACK
6
CONTINUOUS
10
3.49642
20
-2.00374
11
3.49625
21
-2.0038
0
LINE
8
BLACK
6
CONTINUOUS
10
3.49625
20
-2.0038
11
3.48757
21
-2.0038
0
LINE
8
BLACK
6
CONTINUOUS
10
3.48757
20
-2.0038
11
3.48533
21
-2.00492
0
LINE
8
BLACK
6
CONTINUOUS
10
3.48533
20
-2.00492
11
3.48421
21
-2.00716
0
LINE
8
BLACK
6
CONTINUOUS
10
3.48421
20
-2.00716
11
3.48421
21
-2.00952
0
LINE
8
BLACK
6
CONTINUOUS
10
3.48421
20
-2.00952
11
3.48533
21
-2.01177
0
LINE
8
BLACK
6
CONTINUOUS
10
3.48533
20
-2.01177
11
3.48757
21
-2.01289
0
LINE
8
BLACK
6
CONTINUOUS
10
3.48757
20
-2.01289
11
3.49555
21
-2.01289
0
LINE
8
BLACK
6
CONTINUOUS
10
3.49555
20
-2.01289
11
3.49705
21
-2.01214
0
LINE
8
BLACK
6
CONTINUOUS
10
3.49705
20
-2.01214
11
3.49705
21
-2.00364
0
LINE
8
BLACK
6
CONTINUOUS
10
3.49705
20
-2.00364
11
3.49659
21
-2.00378
0
LINE
8
BLACK
6
CONTINUOUS
10
4.31091
20
-1.98682
11
4.31104
21
-1.98693
0
LINE
8
BLACK
6
CONTINUOUS
10
4.31104
20
-1.98693
11
4.31122
21
-1.98695
0
LINE
8
BLACK
6
CONTINUOUS
10
4.31122
20
-1.98695
11
4.31497
21
-1.98883
0
LINE
8
BLACK
6
CONTINUOUS
10
4.31497
20
-1.98883
11
4.31568
21
-1.98935
0
LINE
8
BLACK
6
CONTINUOUS
10
4.31568
20
-1.98935
11
4.31574
21
-1.98938
0
LINE
8
BLACK
6
CONTINUOUS
10
4.31574
20
-1.98938
11
4.31761
21
-1.99126
0
LINE
8
BLACK
6
CONTINUOUS
10
4.31761
20
-1.99126
11
4.31812
21
-1.99198
0
LINE
8
BLACK
6
CONTINUOUS
10
4.31812
20
-1.99198
11
4.31816
21
-1.99202
0
LINE
8
BLACK
6
CONTINUOUS
10
4.31816
20
-1.99202
11
4.32004
21
-1.99577
0
LINE
8
BLACK
6
CONTINUOUS
10
4.32004
20
-1.99577
11
4.32033
21
-1.99676
0
LINE
8
BLACK
6
CONTINUOUS
10
4.32033
20
-1.99676
11
4.32029
21
-1.99693
0
LINE
8
BLACK
6
CONTINUOUS
10
4.32029
20
-1.99693
11
4.32035
21
-1.99709
0
LINE
8
BLACK
6
CONTINUOUS
10
4.32035
20
-1.99709
11
4.32035
21
-2.00834
0
LINE
8
BLACK
6
CONTINUOUS
10
4.32035
20
-2.00834
11
4.32017
21
-2.00935
0
LINE
8
BLACK
6
CONTINUOUS
10
4.32017
20
-2.00935
11
4.32006
21
-2.00949
0
LINE
8
BLACK
6
CONTINUOUS
10
4.32006
20
-2.00949
11
4.32004
21
-2.00966
0
LINE
8
BLACK
6
CONTINUOUS
10
4.32004
20
-2.00966
11
4.31816
21
-2.01341
0
LINE
8
BLACK
6
CONTINUOUS
10
4.31816
20
-2.01341
11
4.31764
21
-2.01412
0
LINE
8
BLACK
6
CONTINUOUS
10
4.31764
20
-2.01412
11
4.31761
21
-2.01418
0
LINE
8
BLACK
6
CONTINUOUS
10
4.31761
20
-2.01418
11
4.31574
21
-2.01605
0
LINE
8
BLACK
6
CONTINUOUS
10
4.31574
20
-2.01605
11
4.31501
21
-2.01656
0
LINE
8
BLACK
6
CONTINUOUS
10
4.31501
20
-2.01656
11
4.31497
21
-2.01661
0
LINE
8
BLACK
6
CONTINUOUS
10
4.31497
20
-2.01661
11
4.31122
21
-2.01848
0
LINE
8
BLACK
6
CONTINUOUS
10
4.31122
20
-2.01848
11
4.31024
21
-2.01878
0
LINE
8
BLACK
6
CONTINUOUS
10
4.31024
20
-2.01878
11
4.31006
21
-2.01873
0
LINE
8
BLACK
6
CONTINUOUS
10
4.31006
20
-2.01873
11
4.3099
21
-2.01879
0
LINE
8
BLACK
6
CONTINUOUS
10
4.3099
20
-2.01879
11
4.30427
21
-2.01879
0
LINE
8
BLACK
6
CONTINUOUS
10
4.30427
20
-2.01879
11
4.30326
21
-2.01862
0
LINE
8
BLACK
6
CONTINUOUS
10
4.30326
20
-2.01862
11
4.30313
21
-2.0185
0
LINE
8
BLACK
6
CONTINUOUS
10
4.30313
20
-2.0185
11
4.30295
21
-2.01848
0
LINE
8
BLACK
6
CONTINUOUS
10
4.30295
20
-2.01848
11
4.2992
21
-2.01661
0
LINE
8
BLACK
6
CONTINUOUS
10
4.2992
20
-2.01661
11
4.2985
21
-2.01608
0
LINE
8
BLACK
6
CONTINUOUS
10
4.2985
20
-2.01608
11
4.29844
21
-2.01605
0
LINE
8
BLACK
6
CONTINUOUS
10
4.29844
20
-2.01605
11
4.29656
21
-2.01418
0
LINE
8
BLACK
6
CONTINUOUS
10
4.29656
20
-2.01418
11
4.29606
21
-2.01346
0
LINE
8
BLACK
6
CONTINUOUS
10
4.29606
20
-2.01346
11
4.29601
21
-2.01341
0
LINE
8
BLACK
6
CONTINUOUS
10
4.29601
20
-2.01341
11
4.29413
21
-2.00966
0
LINE
8
BLACK
6
CONTINUOUS
10
4.29413
20
-2.00966
11
4.29384
21
-2.00868
0
LINE
8
BLACK
6
CONTINUOUS
10
4.29384
20
-2.00868
11
4.29388
21
-2.00851
0
LINE
8
BLACK
6
CONTINUOUS
10
4.29388
20
-2.00851
11
4.29382
21
-2.00834
0
LINE
8
BLACK
6
CONTINUOUS
10
4.29382
20
-2.00834
11
4.29382
21
-1.99709
0
LINE
8
BLACK
6
CONTINUOUS
10
4.29382
20
-1.99709
11
4.294
21
-1.99608
0
LINE
8
BLACK
6
CONTINUOUS
10
4.294
20
-1.99608
11
4.29411
21
-1.99595
0
LINE
8
BLACK
6
CONTINUOUS
10
4.29411
20
-1.99595
11
4.29413
21
-1.99577
0
LINE
8
BLACK
6
CONTINUOUS
10
4.29413
20
-1.99577
11
4.29601
21
-1.99202
0
LINE
8
BLACK
6
CONTINUOUS
10
4.29601
20
-1.99202
11
4.29654
21
-1.99131
0
LINE
8
BLACK
6
CONTINUOUS
10
4.29654
20
-1.99131
11
4.29656
21
-1.99126
0
LINE
8
BLACK
6
CONTINUOUS
10
4.29656
20
-1.99126
11
4.29844
21
-1.98938
0
LINE
8
BLACK
6
CONTINUOUS
10
4.29844
20
-1.98938
11
4.29916
21
-1.98888
0
LINE
8
BLACK
6
CONTINUOUS
10
4.29916
20
-1.98888
11
4.2992
21
-1.98883
0
LINE
8
BLACK
6
CONTINUOUS
10
4.2992
20
-1.98883
11
4.30295
21
-1.98695
0
LINE
8
BLACK
6
CONTINUOUS
10
4.30295
20
-1.98695
11
4.30394
21
-1.98666
0
LINE
8
BLACK
6
CONTINUOUS
10
4.30394
20
-1.98666
11
4.30411
21
-1.9867
0
LINE
8
BLACK
6
CONTINUOUS
10
4.30411
20
-1.9867
11
4.30427
21
-1.98664
0
LINE
8
BLACK
6
CONTINUOUS
10
4.30427
20
-1.98664
11
4.3099
21
-1.98664
0
LINE
8
BLACK
6
CONTINUOUS
10
4.3099
20
-1.98664
11
4.31091
21
-1.98682
0
LINE
8
BLACK
6
CONTINUOUS
10
4.30497
20
-1.99255
11
4.30227
21
-1.9939
0
LINE
8
BLACK
6
CONTINUOUS
10
4.30227
20
-1.9939
11
4.30108
21
-1.99509
0
LINE
8
BLACK
6
CONTINUOUS
10
4.30108
20
-1.99509
11
4.29973
21
-1.99779
0
LINE
8
BLACK
6
CONTINUOUS
10
4.29973
20
-1.99779
11
4.29973
21
-2.00765
0
LINE
8
BLACK
6
CONTINUOUS
10
4.29973
20
-2.00765
11
4.30108
21
-2.01034
0
LINE
8
BLACK
6
CONTINUOUS
10
4.30108
20
-2.01034
11
4.30227
21
-2.01154
0
LINE
8
BLACK
6
CONTINUOUS
10
4.30227
20
-2.01154
11
4.30497
21
-2.01289
0
LINE
8
BLACK
6
CONTINUOUS
10
4.30497
20
-2.01289
11
4.3092
21
-2.01289
0
LINE
8
BLACK
6
CONTINUOUS
10
4.3092
20
-2.01289
11
4.3119
21
-2.01154
0
LINE
8
BLACK
6
CONTINUOUS
10
4.3119
20
-2.01154
11
4.3131
21
-2.01034
0
LINE
8
BLACK
6
CONTINUOUS
10
4.3131
20
-2.01034
11
4.31445
21
-2.00765
0
LINE
8
BLACK
6
CONTINUOUS
10
4.31445
20
-2.00765
11
4.31445
21
-1.99779
0
LINE
8
BLACK
6
CONTINUOUS
10
4.31445
20
-1.99779
11
4.3131
21
-1.99509
0
LINE
8
BLACK
6
CONTINUOUS
10
4.3131
20
-1.99509
11
4.3119
21
-1.9939
0
LINE
8
BLACK
6
CONTINUOUS
10
4.3119
20
-1.9939
11
4.3092
21
-1.99255
0
LINE
8
BLACK
6
CONTINUOUS
10
4.3092
20
-1.99255
11
4.30497
21
-1.99255
0
LINE
8
BLACK
6
CONTINUOUS
10
3.57543
20
-1.9736
11
3.57556
21
-1.97357
0
LINE
8
BLACK
6
CONTINUOUS
10
3.57556
20
-1.97357
11
3.57567
21
-1.97364
0
LINE
8
BLACK
6
CONTINUOUS
10
3.57567
20
-1.97364
11
3.576
21
-1.9737
0
LINE
8
BLACK
6
CONTINUOUS
10
3.576
20
-1.9737
11
3.57661
21
-1.97421
0
LINE
8
BLACK
6
CONTINUOUS
10
3.57661
20
-1.97421
11
3.57729
21
-1.97462
0
LINE
8
BLACK
6
CONTINUOUS
10
3.57729
20
-1.97462
11
3.57737
21
-1.97484
0
LINE
8
BLACK
6
CONTINUOUS
10
3.57737
20
-1.97484
11
3.57755
21
-1.975
0
LINE
8
BLACK
6
CONTINUOUS
10
3.57755
20
-1.975
11
3.57769
21
-1.97578
0
LINE
8
BLACK
6
CONTINUOUS
10
3.57769
20
-1.97578
11
3.57794
21
-1.97653
0
LINE
8
BLACK
6
CONTINUOUS
10
3.57794
20
-1.97653
11
3.57786
21
-1.97675
0
LINE
8
BLACK
6
CONTINUOUS
10
3.57786
20
-1.97675
11
3.5779
21
-1.97698
0
LINE
8
BLACK
6
CONTINUOUS
10
3.5779
20
-1.97698
11
3.5775
21
-1.97767
0
LINE
8
BLACK
6
CONTINUOUS
10
3.5775
20
-1.97767
11
3.57721
21
-1.97842
0
LINE
8
BLACK
6
CONTINUOUS
10
3.57721
20
-1.97842
11
3.56826
21
-1.98865
0
LINE
8
BLACK
6
CONTINUOUS
10
3.56826
20
-1.98865
11
3.5685
21
-1.9887
0
LINE
8
BLACK
6
CONTINUOUS
10
3.5685
20
-1.9887
11
3.56864
21
-1.98881
0
LINE
8
BLACK
6
CONTINUOUS
10
3.56864
20
-1.98881
11
3.56881
21
-1.98883
0
LINE
8
BLACK
6
CONTINUOUS
10
3.56881
20
-1.98883
11
3.57256
21
-1.9907
0
LINE
8
BLACK
6
CONTINUOUS
10
3.57256
20
-1.9907
11
3.57327
21
-1.99123
0
LINE
8
BLACK
6
CONTINUOUS
10
3.57327
20
-1.99123
11
3.57333
21
-1.99126
0
LINE
8
BLACK
6
CONTINUOUS
10
3.57333
20
-1.99126
11
3.5752
21
-1.99313
0
LINE
8
BLACK
6
CONTINUOUS
10
3.5752
20
-1.99313
11
3.57571
21
-1.99385
0
LINE
8
BLACK
6
CONTINUOUS
10
3.57571
20
-1.99385
11
3.57576
21
-1.9939
0
LINE
8
BLACK
6
CONTINUOUS
10
3.57576
20
-1.9939
11
3.57763
21
-1.99765
0
LINE
8
BLACK
6
CONTINUOUS
10
3.57763
20
-1.99765
11
3.57792
21
-1.99863
0
LINE
8
BLACK
6
CONTINUOUS
10
3.57792
20
-1.99863
11
3.57788
21
-1.9988
0
LINE
8
BLACK
6
CONTINUOUS
10
3.57788
20
-1.9988
11
3.57794
21
-1.99897
0
LINE
8
BLACK
6
CONTINUOUS
10
3.57794
20
-1.99897
11
3.57794
21
-2.00834
0
LINE
8
BLACK
6
CONTINUOUS
10
3.57794
20
-2.00834
11
3.57777
21
-2.00935
0
LINE
8
BLACK
6
CONTINUOUS
10
3.57777
20
-2.00935
11
3.57765
21
-2.00949
0
LINE
8
BLACK
6
CONTINUOUS
10
3.57765
20
-2.00949
11
3.57763
21
-2.00966
0
LINE
8
BLACK
6
CONTINUOUS
10
3.57763
20
-2.00966
11
3.57576
21
-2.01341
0
LINE
8
BLACK
6
CONTINUOUS
10
3.57576
20
-2.01341
11
3.57523
21
-2.01412
0
LINE
8
BLACK
6
CONTINUOUS
10
3.57523
20
-2.01412
11
3.5752
21
-2.01418
0
LINE
8
BLACK
6
CONTINUOUS
10
3.5752
20
-2.01418
11
3.57333
21
-2.01605
0
LINE
8
BLACK
6
CONTINUOUS
10
3.57333
20
-2.01605
11
3.57261
21
-2.01656
0
LINE
8
BLACK
6
CONTINUOUS
10
3.57261
20
-2.01656
11
3.57256
21
-2.01661
0
LINE
8
BLACK
6
CONTINUOUS
10
3.57256
20
-2.01661
11
3.56881
21
-2.01848
0
LINE
8
BLACK
6
CONTINUOUS
10
3.56881
20
-2.01848
11
3.56783
21
-2.01878
0
LINE
8
BLACK
6
CONTINUOUS
10
3.56783
20
-2.01878
11
3.56766
21
-2.01873
0
LINE
8
BLACK
6
CONTINUOUS
10
3.56766
20
-2.01873
11
3.56749
21
-2.01879
0
LINE
8
BLACK
6
CONTINUOUS
10
3.56749
20
-2.01879
11
3.55624
21
-2.01879
0
LINE
8
BLACK
6
CONTINUOUS
10
3.55624
20
-2.01879
11
3.55523
21
-2.01862
0
LINE
8
BLACK
6
CONTINUOUS
10
3.55523
20
-2.01862
11
3.5551
21
-2.0185
0
LINE
8
BLACK
6
CONTINUOUS
10
3.5551
20
-2.0185
11
3.55492
21
-2.01848
0
LINE
8
BLACK
6
CONTINUOUS
10
3.55492
20
-2.01848
11
3.55117
21
-2.01661
0
LINE
8
BLACK
6
CONTINUOUS
10
3.55117
20
-2.01661
11
3.55046
21
-2.01608
0
LINE
8
BLACK
6
CONTINUOUS
10
3.55046
20
-2.01608
11
3.55041
21
-2.01605
0
LINE
8
BLACK
6
CONTINUOUS
10
3.55041
20
-2.01605
11
3.54853
21
-2.01418
0
LINE
8
BLACK
6
CONTINUOUS
10
3.54853
20
-2.01418
11
3.54794
21
-2.01334
0
LINE
8
BLACK
6
CONTINUOUS
10
3.54794
20
-2.01334
11
3.54777
21
-2.01133
0
LINE
8
BLACK
6
CONTINUOUS
10
3.54777
20
-2.01133
11
3.54893
21
-2.00967
0
LINE
8
BLACK
6
CONTINUOUS
10
3.54893
20
-2.00967
11
3.55088
21
-2.00915
0
LINE
8
BLACK
6
CONTINUOUS
10
3.55088
20
-2.00915
11
3.55271
21
-2.01
0
LINE
8
BLACK
6
CONTINUOUS
10
3.55271
20
-2.01
11
3.55424
21
-2.01154
0
LINE
8
BLACK
6
CONTINUOUS
10
3.55424
20
-2.01154
11
3.55694
21
-2.01289
0
LINE
8
BLACK
6
CONTINUOUS
10
3.55694
20
-2.01289
11
3.56679
21
-2.01289
0
LINE
8
BLACK
6
CONTINUOUS
10
3.56679
20
-2.01289
11
3.56949
21
-2.01154
0
LINE
8
BLACK
6
CONTINUOUS
10
3.56949
20
-2.01154
11
3.57069
21
-2.01034
0
LINE
8
BLACK
6
CONTINUOUS
10
3.57069
20
-2.01034
11
3.57204
21
-2.00765
0
LINE
8
BLACK
6
CONTINUOUS
10
3.57204
20
-2.00765
11
3.57204
21
-1.99967
0
LINE
8
BLACK
6
CONTINUOUS
10
3.57204
20
-1.99967
11
3.57069
21
-1.99697
0
LINE
8
BLACK
6
CONTINUOUS
10
3.57069
20
-1.99697
11
3.56949
21
-1.99577
0
LINE
8
BLACK
6
CONTINUOUS
10
3.56949
20
-1.99577
11
3.56679
21
-1.99442
0
LINE
8
BLACK
6
CONTINUOUS
10
3.56679
20
-1.99442
11
3.56187
21
-1.99442
0
LINE
8
BLACK
6
CONTINUOUS
10
3.56187
20
-1.99442
11
3.56143
21
-1.99435
0
LINE
8
BLACK
6
CONTINUOUS
10
3.56143
20
-1.99435
11
3.56129
21
-1.99437
0
LINE
8
BLACK
6
CONTINUOUS
10
3.56129
20
-1.99437
11
3.56119
21
-1.9943
0
LINE
8
BLACK
6
CONTINUOUS
10
3.56119
20
-1.9943
11
3.56086
21
-1.99424
0
LINE
8
BLACK
6
CONTINUOUS
10
3.56086
20
-1.99424
11
3.56025
21
-1.99373
0
LINE
8
BLACK
6
CONTINUOUS
10
3.56025
20
-1.99373
11
3.55957
21
-1.99332
0
LINE
8
BLACK
6
CONTINUOUS
10
3.55957
20
-1.99332
11
3.55949
21
-1.9931
0
LINE
8
BLACK
6
CONTINUOUS
10
3.55949
20
-1.9931
11
3.55931
21
-1.99295
0
LINE
8
BLACK
6
CONTINUOUS
10
3.55931
20
-1.99295
11
3.55917
21
-1.99216
0
LINE
8
BLACK
6
CONTINUOUS
10
3.55917
20
-1.99216
11
3.55892
21
-1.99141
0
LINE
8
BLACK
6
CONTINUOUS
10
3.55892
20
-1.99141
11
3.559
21
-1.99119
0
LINE
8
BLACK
6
CONTINUOUS
10
3.559
20
-1.99119
11
3.55896
21
-1.99096
0
LINE
8
BLACK
6
CONTINUOUS
10
3.55896
20
-1.99096
11
3.55936
21
-1.99027
0
LINE
8
BLACK
6
CONTINUOUS
10
3.55936
20
-1.99027
11
3.55965
21
-1.98953
0
LINE
8
BLACK
6
CONTINUOUS
10
3.55965
20
-1.98953
11
3.56848
21
-1.97942
0
LINE
8
BLACK
6
CONTINUOUS
10
3.56848
20
-1.97942
11
3.55062
21
-1.97942
0
LINE
8
BLACK
6
CONTINUOUS
10
3.55062
20
-1.97942
11
3.54961
21
-1.97925
0
LINE
8
BLACK
6
CONTINUOUS
10
3.54961
20
-1.97925
11
3.54806
21
-1.97795
0
LINE
8
BLACK
6
CONTINUOUS
10
3.54806
20
-1.97795
11
3.54771
21
-1.97596
0
LINE
8
BLACK
6
CONTINUOUS
10
3.54771
20
-1.97596
11
3.54872
21
-1.97421
0
LINE
8
BLACK
6
CONTINUOUS
10
3.54872
20
-1.97421
11
3.55062
21
-1.97352
0
LINE
8
BLACK
6
CONTINUOUS
10
3.55062
20
-1.97352
11
3.57499
21
-1.97352
0
LINE
8
BLACK
6
CONTINUOUS
10
3.57499
20
-1.97352
11
3.57543
21
-1.9736
0
LINE
8
BLACK
6
CONTINUOUS
10
3.53788
20
-1.97457
11
3.53857
21
-1.97647
0
LINE
8
BLACK
6
CONTINUOUS
10
3.53857
20
-1.97647
11
3.53857
21
-2.01584
0
LINE
8
BLACK
6
CONTINUOUS
10
3.53857
20
-2.01584
11
3.5384
21
-2.01685
0
LINE
8
BLACK
6
CONTINUOUS
10
3.5384
20
-2.01685
11
3.5371
21
-2.0184
0
LINE
8
BLACK
6
CONTINUOUS
10
3.5371
20
-2.0184
11
3.53511
21
-2.01875
0
LINE
8
BLACK
6
CONTINUOUS
10
3.53511
20
-2.01875
11
3.53397
21
-2.01809
0
LINE
8
BLACK
6
CONTINUOUS
10
3.53397
20
-2.01809
11
3.53319
21
-2.01848
0
LINE
8
BLACK
6
CONTINUOUS
10
3.53319
20
-2.01848
11
3.53221
21
-2.01878
0
LINE
8
BLACK
6
CONTINUOUS
10
3.53221
20
-2.01878
11
3.53204
21
-2.01873
0
LINE
8
BLACK
6
CONTINUOUS
10
3.53204
20
-2.01873
11
3.53187
21
-2.01879
0
LINE
8
BLACK
6
CONTINUOUS
10
3.53187
20
-2.01879
11
3.52437
21
-2.01879
0
LINE
8
BLACK
6
CONTINUOUS
10
3.52437
20
-2.01879
11
3.52336
21
-2.01862
0
LINE
8
BLACK
6
CONTINUOUS
10
3.52336
20
-2.01862
11
3.52323
21
-2.0185
0
LINE
8
BLACK
6
CONTINUOUS
10
3.52323
20
-2.0185
11
3.52305
21
-2.01848
0
LINE
8
BLACK
6
CONTINUOUS
10
3.52305
20
-2.01848
11
3.5193
21
-2.01661
0
LINE
8
BLACK
6
CONTINUOUS
10
3.5193
20
-2.01661
11
3.51859
21
-2.01608
0
LINE
8
BLACK
6
CONTINUOUS
10
3.51859
20
-2.01608
11
3.51853
21
-2.01605
0
LINE
8
BLACK
6
CONTINUOUS
10
3.51853
20
-2.01605
11
3.51666
21
-2.01418
0
LINE
8
BLACK
6
CONTINUOUS
10
3.51666
20
-2.01418
11
3.51615
21
-2.01346
0
LINE
8
BLACK
6
CONTINUOUS
10
3.51615
20
-2.01346
11
3.51611
21
-2.01341
0
LINE
8
BLACK
6
CONTINUOUS
10
3.51611
20
-2.01341
11
3.51423
21
-2.00966
0
LINE
8
BLACK
6
CONTINUOUS
10
3.51423
20
-2.00966
11
3.51394
21
-2.00868
0
LINE
8
BLACK
6
CONTINUOUS
10
3.51394
20
-2.00868
11
3.51398
21
-2.00851
0
LINE
8
BLACK
6
CONTINUOUS
10
3.51398
20
-2.00851
11
3.51392
21
-2.00834
0
LINE
8
BLACK
6
CONTINUOUS
10
3.51392
20
-2.00834
11
3.51392
21
-1.99709
0
LINE
8
BLACK
6
CONTINUOUS
10
3.51392
20
-1.99709
11
3.5141
21
-1.99608
0
LINE
8
BLACK
6
CONTINUOUS
10
3.5141
20
-1.99608
11
3.51421
21
-1.99595
0
LINE
8
BLACK
6
CONTINUOUS
10
3.51421
20
-1.99595
11
3.51423
21
-1.99577
0
LINE
8
BLACK
6
CONTINUOUS
10
3.51423
20
-1.99577
11
3.51611
21
-1.99202
0
LINE
8
BLACK
6
CONTINUOUS
10
3.51611
20
-1.99202
11
3.51663
21
-1.99131
0
LINE
8
BLACK
6
CONTINUOUS
10
3.51663
20
-1.99131
11
3.51666
21
-1.99126
0
LINE
8
BLACK
6
CONTINUOUS
10
3.51666
20
-1.99126
11
3.51853
21
-1.98938
0
LINE
8
BLACK
6
CONTINUOUS
10
3.51853
20
-1.98938
11
3.51926
21
-1.98888
0
LINE
8
BLACK
6
CONTINUOUS
10
3.51926
20
-1.98888
11
3.5193
21
-1.98883
0
LINE
8
BLACK
6
CONTINUOUS
10
3.5193
20
-1.98883
11
3.52305
21
-1.98695
0
LINE
8
BLACK
6
CONTINUOUS
10
3.52305
20
-1.98695
11
3.52403
21
-1.98666
0
LINE
8
BLACK
6
CONTINUOUS
10
3.52403
20
-1.98666
11
3.52421
21
-1.9867
0
LINE
8
BLACK
6
CONTINUOUS
10
3.52421
20
-1.9867
11
3.52437
21
-1.98664
0
LINE
8
BLACK
6
CONTINUOUS
10
3.52437
20
-1.98664
11
3.53187
21
-1.98664
0
LINE
8
BLACK
6
CONTINUOUS
10
3.53187
20
-1.98664
11
3.53267
21
-1.98678
0
LINE
8
BLACK
6
CONTINUOUS
10
3.53267
20
-1.98678
11
3.53267
21
-1.97647
0
LINE
8
BLACK
6
CONTINUOUS
10
3.53267
20
-1.97647
11
3.53285
21
-1.97546
0
LINE
8
BLACK
6
CONTINUOUS
10
3.53285
20
-1.97546
11
3.53414
21
-1.97391
0
LINE
8
BLACK
6
CONTINUOUS
10
3.53414
20
-1.97391
11
3.53613
21
-1.97356
0
LINE
8
BLACK
6
CONTINUOUS
10
3.53613
20
-1.97356
11
3.53788
21
-1.97457
0
LINE
8
BLACK
6
CONTINUOUS
10
3.52507
20
-1.99255
11
3.52237
21
-1.9939
0
LINE
8
BLACK
6
CONTINUOUS
10
3.52237
20
-1.9939
11
3.52117
21
-1.99509
0
LINE
8
BLACK
6
CONTINUOUS
10
3.52117
20
-1.99509
11
3.51983
21
-1.99779
0
LINE
8
BLACK
6
CONTINUOUS
10
3.51983
20
-1.99779
11
3.51983
21
-2.00765
0
LINE
8
BLACK
6
CONTINUOUS
10
3.51983
20
-2.00765
11
3.52117
21
-2.01034
0
LINE
8
BLACK
6
CONTINUOUS
10
3.52117
20
-2.01034
11
3.52237
21
-2.01154
0
LINE
8
BLACK
6
CONTINUOUS
10
3.52237
20
-2.01154
11
3.52507
21
-2.01289
0
LINE
8
BLACK
6
CONTINUOUS
10
3.52507
20
-2.01289
11
3.53117
21
-2.01289
0
LINE
8
BLACK
6
CONTINUOUS
10
3.53117
20
-2.01289
11
3.53267
21
-2.01214
0
LINE
8
BLACK
6
CONTINUOUS
10
3.53267
20
-2.01214
11
3.53267
21
-1.99329
0
LINE
8
BLACK
6
CONTINUOUS
10
3.53267
20
-1.99329
11
3.53117
21
-1.99255
0
LINE
8
BLACK
6
CONTINUOUS
10
3.53117
20
-1.99255
11
3.52507
21
-1.99255
0
LINE
8
BLACK
6
CONTINUOUS
10
4.35341
20
-1.9877
11
4.3541
21
-1.9896
0
LINE
8
BLACK
6
CONTINUOUS
10
4.3541
20
-1.9896
11
4.3541
21
-2.01584
0
LINE
8
BLACK
6
CONTINUOUS
10
4.3541
20
-2.01584
11
4.35392
21
-2.01685
0
LINE
8
BLACK
6
CONTINUOUS
10
4.35392
20
-2.01685
11
4.35262
21
-2.0184
0
LINE
8
BLACK
6
CONTINUOUS
10
4.35262
20
-2.0184
11
4.35063
21
-2.01875
0
LINE
8
BLACK
6
CONTINUOUS
10
4.35063
20
-2.01875
11
4.34888
21
-2.01774
0
LINE
8
BLACK
6
CONTINUOUS
10
4.34888
20
-2.01774
11
4.3488
21
-2.0175
0
LINE
8
BLACK
6
CONTINUOUS
10
4.3488
20
-2.0175
11
4.34684
21
-2.01848
0
LINE
8
BLACK
6
CONTINUOUS
10
4.34684
20
-2.01848
11
4.34586
21
-2.01878
0
LINE
8
BLACK
6
CONTINUOUS
10
4.34586
20
-2.01878
11
4.34569
21
-2.01873
0
LINE
8
BLACK
6
CONTINUOUS
10
4.34569
20
-2.01873
11
4.34552
21
-2.01879
0
LINE
8
BLACK
6
CONTINUOUS
10
4.34552
20
-2.01879
11
4.3399
21
-2.01879
0
LINE
8
BLACK
6
CONTINUOUS
10
4.3399
20
-2.01879
11
4.33889
21
-2.01862
0
LINE
8
BLACK
6
CONTINUOUS
10
4.33889
20
-2.01862
11
4.33875
21
-2.0185
0
LINE
8
BLACK
6
CONTINUOUS
10
4.33875
20
-2.0185
11
4.33857
21
-2.01848
0
LINE
8
BLACK
6
CONTINUOUS
10
4.33857
20
-2.01848
11
4.33482
21
-2.01661
0
LINE
8
BLACK
6
CONTINUOUS
10
4.33482
20
-2.01661
11
4.334
21
-2.016
0
LINE
8
BLACK
6
CONTINUOUS
10
4.334
20
-2.016
11
4.33383
21
-2.01559
0
LINE
8
BLACK
6
CONTINUOUS
10
4.33383
20
-2.01559
11
4.3335
21
-2.01529
0
LINE
8
BLACK
6
CONTINUOUS
10
4.3335
20
-2.01529
11
4.33163
21
-2.01154
0
LINE
8
BLACK
6
CONTINUOUS
10
4.33163
20
-2.01154
11
4.33134
21
-2.01056
0
LINE
8
BLACK
6
CONTINUOUS
10
4.33134
20
-2.01056
11
4.33138
21
-2.01038
0
LINE
8
BLACK
6
CONTINUOUS
10
4.33138
20
-2.01038
11
4.33132
21
-2.01022
0
LINE
8
BLACK
6
CONTINUOUS
10
4.33132
20
-2.01022
11
4.33132
21
-1.9896
0
LINE
8
BLACK
6
CONTINUOUS
10
4.33132
20
-1.9896
11
4.3315
21
-1.98859
0
LINE
8
BLACK
6
CONTINUOUS
10
4.3315
20
-1.98859
11
4.33279
21
-1.98704
0
LINE
8
BLACK
6
CONTINUOUS
10
4.33279
20
-1.98704
11
4.33478
21
-1.98669
0
LINE
8
BLACK
6
CONTINUOUS
10
4.33478
20
-1.98669
11
4.33653
21
-1.9877
0
LINE
8
BLACK
6
CONTINUOUS
10
4.33653
20
-1.9877
11
4.33722
21
-1.9896
0
LINE
8
BLACK
6
CONTINUOUS
10
4.33722
20
-1.9896
11
4.33722
21
-2.00952
0
LINE
8
BLACK
6
CONTINUOUS
10
4.33722
20
-2.00952
11
4.33835
21
-2.01177
0
LINE
8
BLACK
6
CONTINUOUS
10
4.33835
20
-2.01177
11
4.34059
21
-2.01289
0
LINE
8
BLACK
6
CONTINUOUS
10
4.34059
20
-2.01289
11
4.34482
21
-2.01289
0
LINE
8
BLACK
6
CONTINUOUS
10
4.34482
20
-2.01289
11
4.34752
21
-2.01154
0
LINE
8
BLACK
6
CONTINUOUS
10
4.34752
20
-2.01154
11
4.34819
21
-2.01087
0
LINE
8
BLACK
6
CONTINUOUS
10
4.34819
20
-2.01087
11
4.34819
21
-1.9896
0
LINE
8
BLACK
6
CONTINUOUS
10
4.34819
20
-1.9896
11
4.34837
21
-1.98859
0
LINE
8
BLACK
6
CONTINUOUS
10
4.34837
20
-1.98859
11
4.34967
21
-1.98704
0
LINE
8
BLACK
6
CONTINUOUS
10
4.34967
20
-1.98704
11
4.35166
21
-1.98669
0
LINE
8
BLACK
6
CONTINUOUS
10
4.35166
20
-1.98669
11
4.35341
21
-1.9877
0
LINE
8
BLACK
6
CONTINUOUS
10
4.52213
20
-1.97457
11
4.52283
21
-1.97647
0
LINE
8
BLACK
6
CONTINUOUS
10
4.52283
20
-1.97647
11
4.52283
21
-2.01584
0
LINE
8
BLACK
6
CONTINUOUS
10
4.52283
20
-2.01584
11
4.52265
21
-2.01685
0
LINE
8
BLACK
6
CONTINUOUS
10
4.52265
20
-2.01685
11
4.52135
21
-2.0184
0
LINE
8
BLACK
6
CONTINUOUS
10
4.52135
20
-2.0184
11
4.51936
21
-2.01875
0
LINE
8
BLACK
6
CONTINUOUS
10
4.51936
20
-2.01875
11
4.51822
21
-2.01809
0
LINE
8
BLACK
6
CONTINUOUS
10
4.51822
20
-2.01809
11
4.51744
21
-2.01848
0
LINE
8
BLACK
6
CONTINUOUS
10
4.51744
20
-2.01848
11
4.51646
21
-2.01878
0
LINE
8
BLACK
6
CONTINUOUS
10
4.51646
20
-2.01878
11
4.51629
21
-2.01873
0
LINE
8
BLACK
6
CONTINUOUS
10
4.51629
20
-2.01873
11
4.51612
21
-2.01879
0
LINE
8
BLACK
6
CONTINUOUS
10
4.51612
20
-2.01879
11
4.50862
21
-2.01879
0
LINE
8
BLACK
6
CONTINUOUS
10
4.50862
20
-2.01879
11
4.50761
21
-2.01862
0
LINE
8
BLACK
6
CONTINUOUS
10
4.50761
20
-2.01862
11
4.50748
21
-2.0185
0
LINE
8
BLACK
6
CONTINUOUS
10
4.50748
20
-2.0185
11
4.5073
21
-2.01848
0
LINE
8
BLACK
6
CONTINUOUS
10
4.5073
20
-2.01848
11
4.50355
21
-2.01661
0
LINE
8
BLACK
6
CONTINUOUS
10
4.50355
20
-2.01661
11
4.50284
21
-2.01608
0
LINE
8
BLACK
6
CONTINUOUS
10
4.50284
20
-2.01608
11
4.50279
21
-2.01605
0
LINE
8
BLACK
6
CONTINUOUS
10
4.50279
20
-2.01605
11
4.50091
21
-2.01418
0
LINE
8
BLACK
6
CONTINUOUS
10
4.50091
20
-2.01418
11
4.50041
21
-2.01346
0
LINE
8
BLACK
6
CONTINUOUS
10
4.50041
20
-2.01346
11
4.50036
21
-2.01341
0
LINE
8
BLACK
6
CONTINUOUS
10
4.50036
20
-2.01341
11
4.49848
21
-2.00966
0
LINE
8
BLACK
6
CONTINUOUS
10
4.49848
20
-2.00966
11
4.49819
21
-2.00868
0
LINE
8
BLACK
6
CONTINUOUS
10
4.49819
20
-2.00868
11
4.49823
21
-2.00851
0
LINE
8
BLACK
6
CONTINUOUS
10
4.49823
20
-2.00851
11
4.49817
21
-2.00834
0
LINE
8
BLACK
6
CONTINUOUS
10
4.49817
20
-2.00834
11
4.49817
21
-1.99709
0
LINE
8
BLACK
6
CONTINUOUS
10
4.49817
20
-1.99709
11
4.49835
21
-1.99608
0
LINE
8
BLACK
6
CONTINUOUS
10
4.49835
20
-1.99608
11
4.49846
21
-1.99595
0
LINE
8
BLACK
6
CONTINUOUS
10
4.49846
20
-1.99595
11
4.49848
21
-1.99577
0
LINE
8
BLACK
6
CONTINUOUS
10
4.49848
20
-1.99577
11
4.50036
21
-1.99202
0
LINE
8
BLACK
6
CONTINUOUS
10
4.50036
20
-1.99202
11
4.50088
21
-1.99131
0
LINE
8
BLACK
6
CONTINUOUS
10
4.50088
20
-1.99131
11
4.50091
21
-1.99126
0
LINE
8
BLACK
6
CONTINUOUS
10
4.50091
20
-1.99126
11
4.50279
21
-1.98938
0
LINE
8
BLACK
6
CONTINUOUS
10
4.50279
20
-1.98938
11
4.50351
21
-1.98888
0
LINE
8
BLACK
6
CONTINUOUS
10
4.50351
20
-1.98888
11
4.50355
21
-1.98883
0
LINE
8
BLACK
6
CONTINUOUS
10
4.50355
20
-1.98883
11
4.5073
21
-1.98695
0
LINE
8
BLACK
6
CONTINUOUS
10
4.5073
20
-1.98695
11
4.50829
21
-1.98666
0
LINE
8
BLACK
6
CONTINUOUS
10
4.50829
20
-1.98666
11
4.50846
21
-1.9867
0
LINE
8
BLACK
6
CONTINUOUS
10
4.50846
20
-1.9867
11
4.50862
21
-1.98664
0
LINE
8
BLACK
6
CONTINUOUS
10
4.50862
20
-1.98664
11
4.51612
21
-1.98664
0
LINE
8
BLACK
6
CONTINUOUS
10
4.51612
20
-1.98664
11
4.51692
21
-1.98678
0
LINE
8
BLACK
6
CONTINUOUS
10
4.51692
20
-1.98678
11
4.51692
21
-1.97647
0
LINE
8
BLACK
6
CONTINUOUS
10
4.51692
20
-1.97647
11
4.5171
21
-1.97546
0
LINE
8
BLACK
6
CONTINUOUS
10
4.5171
20
-1.97546
11
4.5184
21
-1.97391
0
LINE
8
BLACK
6
CONTINUOUS
10
4.5184
20
-1.97391
11
4.52039
21
-1.97356
0
LINE
8
BLACK
6
CONTINUOUS
10
4.52039
20
-1.97356
11
4.52213
21
-1.97457
0
LINE
8
BLACK
6
CONTINUOUS
10
4.50932
20
-1.99255
11
4.50662
21
-1.9939
0
LINE
8
BLACK
6
CONTINUOUS
10
4.50662
20
-1.9939
11
4.50543
21
-1.99509
0
LINE
8
BLACK
6
CONTINUOUS
10
4.50543
20
-1.99509
11
4.50408
21
-1.99779
0
LINE
8
BLACK
6
CONTINUOUS
10
4.50408
20
-1.99779
11
4.50408
21
-2.00765
0
LINE
8
BLACK
6
CONTINUOUS
10
4.50408
20
-2.00765
11
4.50543
21
-2.01034
0
LINE
8
BLACK
6
CONTINUOUS
10
4.50543
20
-2.01034
11
4.50662
21
-2.01154
0
LINE
8
BLACK
6
CONTINUOUS
10
4.50662
20
-2.01154
11
4.50932
21
-2.01289
0
LINE
8
BLACK
6
CONTINUOUS
10
4.50932
20
-2.01289
11
4.51543
21
-2.01289
0
LINE
8
BLACK
6
CONTINUOUS
10
4.51543
20
-2.01289
11
4.51692
21
-2.01214
0
LINE
8
BLACK
6
CONTINUOUS
10
4.51692
20
-2.01214
11
4.51692
21
-1.99329
0
LINE
8
BLACK
6
CONTINUOUS
10
4.51692
20
-1.99329
11
4.51543
21
-1.99255
0
LINE
8
BLACK
6
CONTINUOUS
10
4.51543
20
-1.99255
11
4.50932
21
-1.99255
0
LINE
8
BLACK
6
CONTINUOUS
10
3.45977
20
-1.9737
11
3.4599
21
-1.97381
0
LINE
8
BLACK
6
CONTINUOUS
10
3.4599
20
-1.97381
11
3.46008
21
-1.97383
0
LINE
8
BLACK
6
CONTINUOUS
10
3.46008
20
-1.97383
11
3.46383
21
-1.97571
0
LINE
8
BLACK
6
CONTINUOUS
10
3.46383
20
-1.97571
11
3.46453
21
-1.97623
0
LINE
8
BLACK
6
CONTINUOUS
10
3.46453
20
-1.97623
11
3.46459
21
-1.97626
0
LINE
8
BLACK
6
CONTINUOUS
10
3.46459
20
-1.97626
11
3.46647
21
-1.97813
0
LINE
8
BLACK
6
CONTINUOUS
10
3.46647
20
-1.97813
11
3.46697
21
-1.97886
0
LINE
8
BLACK
6
CONTINUOUS
10
3.46697
20
-1.97886
11
3.46702
21
-1.9789
0
LINE
8
BLACK
6
CONTINUOUS
10
3.46702
20
-1.9789
11
3.4689
21
-1.98265
0
LINE
8
BLACK
6
CONTINUOUS
10
3.4689
20
-1.98265
11
3.46919
21
-1.98363
0
LINE
8
BLACK
6
CONTINUOUS
10
3.46919
20
-1.98363
11
3.46915
21
-1.9838
0
LINE
8
BLACK
6
CONTINUOUS
10
3.46915
20
-1.9838
11
3.46921
21
-1.98397
0
LINE
8
BLACK
6
CONTINUOUS
10
3.46921
20
-1.98397
11
3.46921
21
-1.9896
0
LINE
8
BLACK
6
CONTINUOUS
10
3.46921
20
-1.9896
11
3.46903
21
-1.9906
0
LINE
8
BLACK
6
CONTINUOUS
10
3.46903
20
-1.9906
11
3.46892
21
-1.99074
0
LINE
8
BLACK
6
CONTINUOUS
10
3.46892
20
-1.99074
11
3.4689
21
-1.99092
0
LINE
8
BLACK
6
CONTINUOUS
10
3.4689
20
-1.99092
11
3.46702
21
-1.99467
0
LINE
8
BLACK
6
CONTINUOUS
10
3.46702
20
-1.99467
11
3.46649
21
-1.99537
0
LINE
8
BLACK
6
CONTINUOUS
10
3.46649
20
-1.99537
11
3.46647
21
-1.99543
0
LINE
8
BLACK
6
CONTINUOUS
10
3.46647
20
-1.99543
11
3.46459
21
-1.99731
0
LINE
8
BLACK
6
CONTINUOUS
10
3.46459
20
-1.99731
11
3.46387
21
-1.99781
0
LINE
8
BLACK
6
CONTINUOUS
10
3.46387
20
-1.99781
11
3.46383
21
-1.99786
0
LINE
8
BLACK
6
CONTINUOUS
10
3.46383
20
-1.99786
11
3.46008
21
-1.99974
0
LINE
8
BLACK
6
CONTINUOUS
10
3.46008
20
-1.99974
11
3.45909
21
-2.00003
0
LINE
8
BLACK
6
CONTINUOUS
10
3.45909
20
-2.00003
11
3.45892
21
-1.99999
0
LINE
8
BLACK
6
CONTINUOUS
10
3.45892
20
-1.99999
11
3.45876
21
-2.00005
0
LINE
8
BLACK
6
CONTINUOUS
10
3.45876
20
-2.00005
11
3.44671
21
-2.00005
0
LINE
8
BLACK
6
CONTINUOUS
10
3.44671
20
-2.00005
11
3.44671
21
-2.01584
0
LINE
8
BLACK
6
CONTINUOUS
10
3.44671
20
-2.01584
11
3.44653
21
-2.01685
0
LINE
8
BLACK
6
CONTINUOUS
10
3.44653
20
-2.01685
11
3.44523
21
-2.0184
0
LINE
8
BLACK
6
CONTINUOUS
10
3.44523
20
-2.0184
11
3.44324
21
-2.01875
0
LINE
8
BLACK
6
CONTINUOUS
10
3.44324
20
-2.01875
11
3.4415
21
-2.01774
0
LINE
8
BLACK
6
CONTINUOUS
10
3.4415
20
-2.01774
11
3.4408
21
-2.01584
0
LINE
8
BLACK
6
CONTINUOUS
10
3.4408
20
-2.01584
11
3.4408
21
-1.97647
0
LINE
8
BLACK
6
CONTINUOUS
10
3.4408
20
-1.97647
11
3.44087
21
-1.97609
0
LINE
8
BLACK
6
CONTINUOUS
10
3.44087
20
-1.97609
11
3.44085
21
-1.97596
0
LINE
8
BLACK
6
CONTINUOUS
10
3.44085
20
-1.97596
11
3.44091
21
-1.97585
0
LINE
8
BLACK
6
CONTINUOUS
10
3.44091
20
-1.97585
11
3.44098
21
-1.97546
0
LINE
8
BLACK
6
CONTINUOUS
10
3.44098
20
-1.97546
11
3.44148
21
-1.97487
0
LINE
8
BLACK
6
CONTINUOUS
10
3.44148
20
-1.97487
11
3.44186
21
-1.97421
0
LINE
8
BLACK
6
CONTINUOUS
10
3.44186
20
-1.97421
11
3.44211
21
-1.97412
0
LINE
8
BLACK
6
CONTINUOUS
10
3.44211
20
-1.97412
11
3.44228
21
-1.97391
0
LINE
8
BLACK
6
CONTINUOUS
10
3.44228
20
-1.97391
11
3.44304
21
-1.97378
0
LINE
8
BLACK
6
CONTINUOUS
10
3.44304
20
-1.97378
11
3.44376
21
-1.97352
0
LINE
8
BLACK
6
CONTINUOUS
10
3.44376
20
-1.97352
11
3.45876
21
-1.97352
0
LINE
8
BLACK
6
CONTINUOUS
10
3.45876
20
-1.97352
11
3.45977
21
-1.9737
0
LINE
8
BLACK
6
CONTINUOUS
10
3.44671
20
-1.97942
11
3.44671
21
-1.99414
0
LINE
8
BLACK
6
CONTINUOUS
10
3.44671
20
-1.99414
11
3.45806
21
-1.99414
0
LINE
8
BLACK
6
CONTINUOUS
10
3.45806
20
-1.99414
11
3.46076
21
-1.99279
0
LINE
8
BLACK
6
CONTINUOUS
10
3.46076
20
-1.99279
11
3.46195
21
-1.9916
0
LINE
8
BLACK
6
CONTINUOUS
10
3.46195
20
-1.9916
11
3.4633
21
-1.9889
0
LINE
8
BLACK
6
CONTINUOUS
10
3.4633
20
-1.9889
11
3.4633
21
-1.98467
0
LINE
8
BLACK
6
CONTINUOUS
10
3.4633
20
-1.98467
11
3.46195
21
-1.98197
0
LINE
8
BLACK
6
CONTINUOUS
10
3.46195
20
-1.98197
11
3.46076
21
-1.98077
0
LINE
8
BLACK
6
CONTINUOUS
10
3.46076
20
-1.98077
11
3.45806
21
-1.97942
0
LINE
8
BLACK
6
CONTINUOUS
10
3.45806
20
-1.97942
11
3.44671
21
-1.97942
0
LINE
8
BLACK
6
CONTINUOUS
10
3.3979
20
-1.98682
11
3.39803
21
-1.98693
0
LINE
8
BLACK
6
CONTINUOUS
10
3.39803
20
-1.98693
11
3.39821
21
-1.98695
0
LINE
8
BLACK
6
CONTINUOUS
10
3.39821
20
-1.98695
11
3.40196
21
-1.98883
0
LINE
8
BLACK
6
CONTINUOUS
10
3.40196
20
-1.98883
11
3.40278
21
-1.98944
0
LINE
8
BLACK
6
CONTINUOUS
10
3.40278
20
-1.98944
11
3.40296
21
-1.98985
0
LINE
8
BLACK
6
CONTINUOUS
10
3.40296
20
-1.98985
11
3.40328
21
-1.99015
0
LINE
8
BLACK
6
CONTINUOUS
10
3.40328
20
-1.99015
11
3.40515
21
-1.9939
0
LINE
8
BLACK
6
CONTINUOUS
10
3.40515
20
-1.9939
11
3.40545
21
-1.99488
0
LINE
8
BLACK
6
CONTINUOUS
10
3.40545
20
-1.99488
11
3.4054
21
-1.99505
0
LINE
8
BLACK
6
CONTINUOUS
10
3.4054
20
-1.99505
11
3.40546
21
-1.99522
0
LINE
8
BLACK
6
CONTINUOUS
10
3.40546
20
-1.99522
11
3.40546
21
-2.01584
0
LINE
8
BLACK
6
CONTINUOUS
10
3.40546
20
-2.01584
11
3.40529
21
-2.01685
0
LINE
8
BLACK
6
CONTINUOUS
10
3.40529
20
-2.01685
11
3.40399
21
-2.0184
0
LINE
8
BLACK
6
CONTINUOUS
10
3.40399
20
-2.0184
11
3.402
21
-2.01875
0
LINE
8
BLACK
6
CONTINUOUS
10
3.402
20
-2.01875
11
3.40025
21
-2.01774
0
LINE
8
BLACK
6
CONTINUOUS
10
3.40025
20
-2.01774
11
3.39956
21
-2.01584
0
LINE
8
BLACK
6
CONTINUOUS
10
3.39956
20
-2.01584
11
3.39956
21
-1.99592
0
LINE
8
BLACK
6
CONTINUOUS
10
3.39956
20
-1.99592
11
3.39844
21
-1.99367
0
LINE
8
BLACK
6
CONTINUOUS
10
3.39844
20
-1.99367
11
3.39619
21
-1.99255
0
LINE
8
BLACK
6
CONTINUOUS
10
3.39619
20
-1.99255
11
3.39196
21
-1.99255
0
LINE
8
BLACK
6
CONTINUOUS
10
3.39196
20
-1.99255
11
3.38926
21
-1.9939
0
LINE
8
BLACK
6
CONTINUOUS
10
3.38926
20
-1.9939
11
3.38859
21
-1.99457
0
LINE
8
BLACK
6
CONTINUOUS
10
3.38859
20
-1.99457
11
3.38859
21
-2.01584
0
LINE
8
BLACK
6
CONTINUOUS
10
3.38859
20
-2.01584
11
3.38841
21
-2.01685
0
LINE
8
BLACK
6
CONTINUOUS
10
3.38841
20
-2.01685
11
3.38712
21
-2.0184
0
LINE
8
BLACK
6
CONTINUOUS
10
3.38712
20
-2.0184
11
3.38513
21
-2.01875
0
LINE
8
BLACK
6
CONTINUOUS
10
3.38513
20
-2.01875
11
3.38338
21
-2.01774
0
LINE
8
BLACK
6
CONTINUOUS
10
3.38338
20
-2.01774
11
3.38269
21
-2.01584
0
LINE
8
BLACK
6
CONTINUOUS
10
3.38269
20
-2.01584
11
3.38269
21
-1.9896
0
LINE
8
BLACK
6
CONTINUOUS
10
3.38269
20
-1.9896
11
3.38286
21
-1.98859
0
LINE
8
BLACK
6
CONTINUOUS
10
3.38286
20
-1.98859
11
3.38416
21
-1.98704
0
LINE
8
BLACK
6
CONTINUOUS
10
3.38416
20
-1.98704
11
3.38615
21
-1.98669
0
LINE
8
BLACK
6
CONTINUOUS
10
3.38615
20
-1.98669
11
3.3879
21
-1.9877
0
LINE
8
BLACK
6
CONTINUOUS
10
3.3879
20
-1.9877
11
3.38799
21
-1.98793
0
LINE
8
BLACK
6
CONTINUOUS
10
3.38799
20
-1.98793
11
3.38994
21
-1.98695
0
LINE
8
BLACK
6
CONTINUOUS
10
3.38994
20
-1.98695
11
3.39093
21
-1.98666
0
LINE
8
BLACK
6
CONTINUOUS
10
3.39093
20
-1.98666
11
3.3911
21
-1.9867
0
LINE
8
BLACK
6
CONTINUOUS
10
3.3911
20
-1.9867
11
3.39126
21
-1.98664
0
LINE
8
BLACK
6
CONTINUOUS
10
3.39126
20
-1.98664
11
3.39689
21
-1.98664
0
LINE
8
BLACK
6
CONTINUOUS
10
3.39689
20
-1.98664
11
3.3979
21
-1.98682
0
LINE
8
BLACK
6
CONTINUOUS
10
4.28003
20
-1.97363
11
4.28042
21
-1.97356
0
LINE
8
BLACK
6
CONTINUOUS
10
4.28042
20
-1.97356
11
4.28097
21
-1.97389
0
LINE
8
BLACK
6
CONTINUOUS
10
4.28097
20
-1.97389
11
4.2816
21
-1.97405
0
LINE
8
BLACK
6
CONTINUOUS
10
4.2816
20
-1.97405
11
4.28182
21
-1.97438
0
LINE
8
BLACK
6
CONTINUOUS
10
4.28182
20
-1.97438
11
4.28216
21
-1.97457
0
LINE
8
BLACK
6
CONTINUOUS
10
4.28216
20
-1.97457
11
4.28238
21
-1.97518
0
LINE
8
BLACK
6
CONTINUOUS
10
4.28238
20
-1.97518
11
4.28275
21
-1.97571
0
LINE
8
BLACK
6
CONTINUOUS
10
4.28275
20
-1.97571
11
4.28272
21
-1.9761
0
LINE
8
BLACK
6
CONTINUOUS
10
4.28272
20
-1.9761
11
4.28286
21
-1.97647
0
LINE
8
BLACK
6
CONTINUOUS
10
4.28286
20
-1.97647
11
4.28286
21
-2.01584
0
LINE
8
BLACK
6
CONTINUOUS
10
4.28286
20
-2.01584
11
4.28268
21
-2.01685
0
LINE
8
BLACK
6
CONTINUOUS
10
4.28268
20
-2.01685
11
4.28138
21
-2.0184
0
LINE
8
BLACK
6
CONTINUOUS
10
4.28138
20
-2.0184
11
4.27939
21
-2.01875
0
LINE
8
BLACK
6
CONTINUOUS
10
4.27939
20
-2.01875
11
4.27764
21
-2.01774
0
LINE
8
BLACK
6
CONTINUOUS
10
4.27764
20
-2.01774
11
4.27695
21
-2.01584
0
LINE
8
BLACK
6
CONTINUOUS
10
4.27695
20
-2.01584
11
4.27695
21
-1.98978
0
LINE
8
BLACK
6
CONTINUOUS
10
4.27695
20
-1.98978
11
4.26945
21
-2.00584
0
LINE
8
BLACK
6
CONTINUOUS
10
4.26945
20
-2.00584
11
4.26923
21
-2.00616
0
LINE
8
BLACK
6
CONTINUOUS
10
4.26923
20
-2.00616
11
4.2692
21
-2.00629
0
LINE
8
BLACK
6
CONTINUOUS
10
4.2692
20
-2.00629
11
4.26909
21
-2.00636
0
LINE
8
BLACK
6
CONTINUOUS
10
4.26909
20
-2.00636
11
4.26887
21
-2.00668
0
LINE
8
BLACK
6
CONTINUOUS
10
4.26887
20
-2.00668
11
4.26817
21
-2.00701
0
LINE
8
BLACK
6
CONTINUOUS
10
4.26817
20
-2.00701
11
4.26754
21
-2.00745
0
LINE
8
BLACK
6
CONTINUOUS
10
4.26754
20
-2.00745
11
4.26728
21
-2.00742
0
LINE
8
BLACK
6
CONTINUOUS
10
4.26728
20
-2.00742
11
4.26704
21
-2.00753
0
LINE
8
BLACK
6
CONTINUOUS
10
4.26704
20
-2.00753
11
4.2663
21
-2.00734
0
LINE
8
BLACK
6
CONTINUOUS
10
4.2663
20
-2.00734
11
4.26553
21
-2.00727
0
LINE
8
BLACK
6
CONTINUOUS
10
4.26553
20
-2.00727
11
4.26534
21
-2.00708
0
LINE
8
BLACK
6
CONTINUOUS
10
4.26534
20
-2.00708
11
4.26508
21
-2.00701
0
LINE
8
BLACK
6
CONTINUOUS
10
4.26508
20
-2.00701
11
4.26465
21
-2.00638
0
LINE
8
BLACK
6
CONTINUOUS
10
4.26465
20
-2.00638
11
4.2641
21
-2.00584
0
LINE
8
BLACK
6
CONTINUOUS
10
4.2641
20
-2.00584
11
4.25661
21
-1.98978
0
LINE
8
BLACK
6
CONTINUOUS
10
4.25661
20
-1.98978
11
4.25661
21
-2.01584
0
LINE
8
BLACK
6
CONTINUOUS
10
4.25661
20
-2.01584
11
4.25643
21
-2.01685
0
LINE
8
BLACK
6
CONTINUOUS
10
4.25643
20
-2.01685
11
4.25513
21
-2.0184
0
LINE
8
BLACK
6
CONTINUOUS
10
4.25513
20
-2.0184
11
4.25314
21
-2.01875
0
LINE
8
BLACK
6
CONTINUOUS
10
4.25314
20
-2.01875
11
4.25139
21
-2.01774
0
LINE
8
BLACK
6
CONTINUOUS
10
4.25139
20
-2.01774
11
4.2507
21
-2.01584
0
LINE
8
BLACK
6
CONTINUOUS
10
4.2507
20
-2.01584
11
4.2507
21
-1.97647
0
LINE
8
BLACK
6
CONTINUOUS
10
4.2507
20
-1.97647
11
4.25088
21
-1.97546
0
LINE
8
BLACK
6
CONTINUOUS
10
4.25088
20
-1.97546
11
4.25113
21
-1.97516
0
LINE
8
BLACK
6
CONTINUOUS
10
4.25113
20
-1.97516
11
4.25124
21
-1.97478
0
LINE
8
BLACK
6
CONTINUOUS
10
4.25124
20
-1.97478
11
4.25176
21
-1.97441
0
LINE
8
BLACK
6
CONTINUOUS
10
4.25176
20
-1.97441
11
4.25218
21
-1.97391
0
LINE
8
BLACK
6
CONTINUOUS
10
4.25218
20
-1.97391
11
4.25257
21
-1.97385
0
LINE
8
BLACK
6
CONTINUOUS
10
4.25257
20
-1.97385
11
4.25289
21
-1.97362
0
LINE
8
BLACK
6
CONTINUOUS
10
4.25289
20
-1.97362
11
4.25353
21
-1.97368
0
LINE
8
BLACK
6
CONTINUOUS
10
4.25353
20
-1.97368
11
4.25417
21
-1.97356
0
LINE
8
BLACK
6
CONTINUOUS
10
4.25417
20
-1.97356
11
4.25451
21
-1.97376
0
LINE
8
BLACK
6
CONTINUOUS
10
4.25451
20
-1.97376
11
4.2549
21
-1.9738
0
LINE
8
BLACK
6
CONTINUOUS
10
4.2549
20
-1.9738
11
4.25536
21
-1.97425
0
LINE
8
BLACK
6
CONTINUOUS
10
4.25536
20
-1.97425
11
4.25592
21
-1.97457
0
LINE
8
BLACK
6
CONTINUOUS
10
4.25592
20
-1.97457
11
4.25605
21
-1.97494
0
LINE
8
BLACK
6
CONTINUOUS
10
4.25605
20
-1.97494
11
4.25633
21
-1.97522
0
LINE
8
BLACK
6
CONTINUOUS
10
4.25633
20
-1.97522
11
4.26678
21
-1.99761
0
LINE
8
BLACK
6
CONTINUOUS
10
4.26678
20
-1.99761
11
4.27723
21
-1.97522
0
LINE
8
BLACK
6
CONTINUOUS
10
4.27723
20
-1.97522
11
4.27782
21
-1.97438
0
LINE
8
BLACK
6
CONTINUOUS
10
4.27782
20
-1.97438
11
4.27817
21
-1.97422
0
LINE
8
BLACK
6
CONTINUOUS
10
4.27817
20
-1.97422
11
4.27843
21
-1.97391
0
LINE
8
BLACK
6
CONTINUOUS
10
4.27843
20
-1.97391
11
4.27906
21
-1.9738
0
LINE
8
BLACK
6
CONTINUOUS
10
4.27906
20
-1.9738
11
4.27965
21
-1.97353
0
LINE
8
BLACK
6
CONTINUOUS
10
4.27965
20
-1.97353
11
4.28003
21
-1.97363
0
LINE
8
BLACK
6
CONTINUOUS
10
3.29577
20
-1.97363
11
3.29616
21
-1.97356
0
LINE
8
BLACK
6
CONTINUOUS
10
3.29616
20
-1.97356
11
3.29672
21
-1.97389
0
LINE
8
BLACK
6
CONTINUOUS
10
3.29672
20
-1.97389
11
3.29734
21
-1.97405
0
LINE
8
BLACK
6
CONTINUOUS
10
3.29734
20
-1.97405
11
3.29757
21
-1.97438
0
LINE
8
BLACK
6
CONTINUOUS
10
3.29757
20
-1.97438
11
3.29791
21
-1.97457
0
LINE
8
BLACK
6
CONTINUOUS
10
3.29791
20
-1.97457
11
3.29813
21
-1.97518
0
LINE
8
BLACK
6
CONTINUOUS
10
3.29813
20
-1.97518
11
3.2985
21
-1.97571
0
LINE
8
BLACK
6
CONTINUOUS
10
3.2985
20
-1.97571
11
3.29847
21
-1.9761
0
LINE
8
BLACK
6
CONTINUOUS
10
3.29847
20
-1.9761
11
3.2986
21
-1.97647
0
LINE
8
BLACK
6
CONTINUOUS
10
3.2986
20
-1.97647
11
3.2986
21
-2.01584
0
LINE
8
BLACK
6
CONTINUOUS
10
3.2986
20
-2.01584
11
3.29843
21
-2.01685
0
LINE
8
BLACK
6
CONTINUOUS
10
3.29843
20
-2.01685
11
3.29713
21
-2.0184
0
LINE
8
BLACK
6
CONTINUOUS
10
3.29713
20
-2.0184
11
3.29514
21
-2.01875
0
LINE
8
BLACK
6
CONTINUOUS
10
3.29514
20
-2.01875
11
3.29339
21
-2.01774
0
LINE
8
BLACK
6
CONTINUOUS
10
3.29339
20
-2.01774
11
3.2927
21
-2.01584
0
LINE
8
BLACK
6
CONTINUOUS
10
3.2927
20
-2.01584
11
3.2927
21
-1.98978
0
LINE
8
BLACK
6
CONTINUOUS
10
3.2927
20
-1.98978
11
3.2852
21
-2.00584
0
LINE
8
BLACK
6
CONTINUOUS
10
3.2852
20
-2.00584
11
3.28498
21
-2.00616
0
LINE
8
BLACK
6
CONTINUOUS
10
3.28498
20
-2.00616
11
3.28495
21
-2.00629
0
LINE
8
BLACK
6
CONTINUOUS
10
3.28495
20
-2.00629
11
3.28484
21
-2.00636
0
LINE
8
BLACK
6
CONTINUOUS
10
3.28484
20
-2.00636
11
3.28461
21
-2.00668
0
LINE
8
BLACK
6
CONTINUOUS
10
3.28461
20
-2.00668
11
3.28392
21
-2.00701
0
LINE
8
BLACK
6
CONTINUOUS
10
3.28392
20
-2.00701
11
3.28329
21
-2.00745
0
LINE
8
BLACK
6
CONTINUOUS
10
3.28329
20
-2.00745
11
3.28303
21
-2.00742
0
LINE
8
BLACK
6
CONTINUOUS
10
3.28303
20
-2.00742
11
3.28278
21
-2.00753
0
LINE
8
BLACK
6
CONTINUOUS
10
3.28278
20
-2.00753
11
3.28204
21
-2.00734
0
LINE
8
BLACK
6
CONTINUOUS
10
3.28204
20
-2.00734
11
3.28128
21
-2.00727
0
LINE
8
BLACK
6
CONTINUOUS
10
3.28128
20
-2.00727
11
3.28109
21
-2.00708
0
LINE
8
BLACK
6
CONTINUOUS
10
3.28109
20
-2.00708
11
3.28083
21
-2.00701
0
LINE
8
BLACK
6
CONTINUOUS
10
3.28083
20
-2.00701
11
3.28039
21
-2.00638
0
LINE
8
BLACK
6
CONTINUOUS
10
3.28039
20
-2.00638
11
3.27985
21
-2.00584
0
LINE
8
BLACK
6
CONTINUOUS
10
3.27985
20
-2.00584
11
3.27236
21
-1.98978
0
LINE
8
BLACK
6
CONTINUOUS
10
3.27236
20
-1.98978
11
3.27236
21
-2.01584
0
LINE
8
BLACK
6
CONTINUOUS
10
3.27236
20
-2.01584
11
3.27218
21
-2.01685
0
LINE
8
BLACK
6
CONTINUOUS
10
3.27218
20
-2.01685
11
3.27088
21
-2.0184
0
LINE
8
BLACK
6
CONTINUOUS
10
3.27088
20
-2.0184
11
3.26889
21
-2.01875
0
LINE
8
BLACK
6
CONTINUOUS
10
3.26889
20
-2.01875
11
3.26714
21
-2.01774
0
LINE
8
BLACK
6
CONTINUOUS
10
3.26714
20
-2.01774
11
3.26645
21
-2.01584
0
LINE
8
BLACK
6
CONTINUOUS
10
3.26645
20
-2.01584
11
3.26645
21
-1.97647
0
LINE
8
BLACK
6
CONTINUOUS
10
3.26645
20
-1.97647
11
3.26663
21
-1.97546
0
LINE
8
BLACK
6
CONTINUOUS
10
3.26663
20
-1.97546
11
3.26688
21
-1.97516
0
LINE
8
BLACK
6
CONTINUOUS
10
3.26688
20
-1.97516
11
3.26698
21
-1.97478
0
LINE
8
BLACK
6
CONTINUOUS
10
3.26698
20
-1.97478
11
3.26751
21
-1.97441
0
LINE
8
BLACK
6
CONTINUOUS
10
3.26751
20
-1.97441
11
3.26793
21
-1.97391
0
LINE
8
BLACK
6
CONTINUOUS
10
3.26793
20
-1.97391
11
3.26832
21
-1.97385
0
LINE
8
BLACK
6
CONTINUOUS
10
3.26832
20
-1.97385
11
3.26864
21
-1.97362
0
LINE
8
BLACK
6
CONTINUOUS
10
3.26864
20
-1.97362
11
3.26928
21
-1.97368
0
LINE
8
BLACK
6
CONTINUOUS
10
3.26928
20
-1.97368
11
3.26992
21
-1.97356
0
LINE
8
BLACK
6
CONTINUOUS
10
3.26992
20
-1.97356
11
3.27026
21
-1.97376
0
LINE
8
BLACK
6
CONTINUOUS
10
3.27026
20
-1.97376
11
3.27065
21
-1.9738
0
LINE
8
BLACK
6
CONTINUOUS
10
3.27065
20
-1.9738
11
3.27111
21
-1.97425
0
LINE
8
BLACK
6
CONTINUOUS
10
3.27111
20
-1.97425
11
3.27167
21
-1.97457
0
LINE
8
BLACK
6
CONTINUOUS
10
3.27167
20
-1.97457
11
3.2718
21
-1.97494
0
LINE
8
BLACK
6
CONTINUOUS
10
3.2718
20
-1.97494
11
3.27208
21
-1.97522
0
LINE
8
BLACK
6
CONTINUOUS
10
3.27208
20
-1.97522
11
3.28253
21
-1.99761
0
LINE
8
BLACK
6
CONTINUOUS
10
3.28253
20
-1.99761
11
3.29297
21
-1.97522
0
LINE
8
BLACK
6
CONTINUOUS
10
3.29297
20
-1.97522
11
3.29356
21
-1.97438
0
LINE
8
BLACK
6
CONTINUOUS
10
3.29356
20
-1.97438
11
3.29392
21
-1.97422
0
LINE
8
BLACK
6
CONTINUOUS
10
3.29392
20
-1.97422
11
3.29417
21
-1.97391
0
LINE
8
BLACK
6
CONTINUOUS
10
3.29417
20
-1.97391
11
3.29481
21
-1.9738
0
LINE
8
BLACK
6
CONTINUOUS
10
3.29481
20
-1.9738
11
3.29539
21
-1.97353
0
LINE
8
BLACK
6
CONTINUOUS
10
3.29539
20
-1.97353
11
3.29577
21
-1.97363
0
LINE
8
BLACK
6
CONTINUOUS
10
4.44402
20
-1.9737
11
4.44415
21
-1.97381
0
LINE
8
BLACK
6
CONTINUOUS
10
4.44415
20
-1.97381
11
4.44433
21
-1.97383
0
LINE
8
BLACK
6
CONTINUOUS
10
4.44433
20
-1.97383
11
4.44808
21
-1.97571
0
LINE
8
BLACK
6
CONTINUOUS
10
4.44808
20
-1.97571
11
4.44879
21
-1.97623
0
LINE
8
BLACK
6
CONTINUOUS
10
4.44879
20
-1.97623
11
4.44884
21
-1.97626
0
LINE
8
BLACK
6
CONTINUOUS
10
4.44884
20
-1.97626
11
4.45072
21
-1.97813
0
LINE
8
BLACK
6
CONTINUOUS
10
4.45072
20
-1.97813
11
4.45123
21
-1.97886
0
LINE
8
BLACK
6
CONTINUOUS
10
4.45123
20
-1.97886
11
4.45127
21
-1.9789
0
LINE
8
BLACK
6
CONTINUOUS
10
4.45127
20
-1.9789
11
4.45315
21
-1.98265
0
LINE
8
BLACK
6
CONTINUOUS
10
4.45315
20
-1.98265
11
4.45344
21
-1.98363
0
LINE
8
BLACK
6
CONTINUOUS
10
4.45344
20
-1.98363
11
4.4534
21
-1.9838
0
LINE
8
BLACK
6
CONTINUOUS
10
4.4534
20
-1.9838
11
4.45346
21
-1.98397
0
LINE
8
BLACK
6
CONTINUOUS
10
4.45346
20
-1.98397
11
4.45346
21
-1.9896
0
LINE
8
BLACK
6
CONTINUOUS
10
4.45346
20
-1.9896
11
4.45328
21
-1.9906
0
LINE
8
BLACK
6
CONTINUOUS
10
4.45328
20
-1.9906
11
4.45317
21
-1.99074
0
LINE
8
BLACK
6
CONTINUOUS
10
4.45317
20
-1.99074
11
4.45315
21
-1.99092
0
LINE
8
BLACK
6
CONTINUOUS
10
4.45315
20
-1.99092
11
4.45127
21
-1.99467
0
LINE
8
BLACK
6
CONTINUOUS
10
4.45127
20
-1.99467
11
4.45075
21
-1.99537
0
LINE
8
BLACK
6
CONTINUOUS
10
4.45075
20
-1.99537
11
4.45072
21
-1.99543
0
LINE
8
BLACK
6
CONTINUOUS
10
4.45072
20
-1.99543
11
4.44884
21
-1.99731
0
LINE
8
BLACK
6
CONTINUOUS
10
4.44884
20
-1.99731
11
4.44812
21
-1.99781
0
LINE
8
BLACK
6
CONTINUOUS
10
4.44812
20
-1.99781
11
4.44808
21
-1.99786
0
LINE
8
BLACK
6
CONTINUOUS
10
4.44808
20
-1.99786
11
4.44433
21
-1.99974
0
LINE
8
BLACK
6
CONTINUOUS
10
4.44433
20
-1.99974
11
4.44334
21
-2.00003
0
LINE
8
BLACK
6
CONTINUOUS
10
4.44334
20
-2.00003
11
4.44317
21
-1.99999
0
LINE
8
BLACK
6
CONTINUOUS
10
4.44317
20
-1.99999
11
4.44301
21
-2.00005
0
LINE
8
BLACK
6
CONTINUOUS
10
4.44301
20
-2.00005
11
4.43096
21
-2.00005
0
LINE
8
BLACK
6
CONTINUOUS
10
4.43096
20
-2.00005
11
4.43096
21
-2.01584
0
LINE
8
BLACK
6
CONTINUOUS
10
4.43096
20
-2.01584
11
4.43078
21
-2.01685
0
LINE
8
BLACK
6
CONTINUOUS
10
4.43078
20
-2.01685
11
4.42949
21
-2.0184
0
LINE
8
BLACK
6
CONTINUOUS
10
4.42949
20
-2.0184
11
4.4275
21
-2.01875
0
LINE
8
BLACK
6
CONTINUOUS
10
4.4275
20
-2.01875
11
4.42575
21
-2.01774
0
LINE
8
BLACK
6
CONTINUOUS
10
4.42575
20
-2.01774
11
4.42506
21
-2.01584
0
LINE
8
BLACK
6
CONTINUOUS
10
4.42506
20
-2.01584
11
4.42506
21
-1.97647
0
LINE
8
BLACK
6
CONTINUOUS
10
4.42506
20
-1.97647
11
4.42512
21
-1.97609
0
LINE
8
BLACK
6
CONTINUOUS
10
4.42512
20
-1.97609
11
4.4251
21
-1.97596
0
LINE
8
BLACK
6
CONTINUOUS
10
4.4251
20
-1.97596
11
4.42517
21
-1.97585
0
LINE
8
BLACK
6
CONTINUOUS
10
4.42517
20
-1.97585
11
4.42523
21
-1.97546
0
LINE
8
BLACK
6
CONTINUOUS
10
4.42523
20
-1.97546
11
4.42573
21
-1.97487
0
LINE
8
BLACK
6
CONTINUOUS
10
4.42573
20
-1.97487
11
4.42611
21
-1.97421
0
LINE
8
BLACK
6
CONTINUOUS
10
4.42611
20
-1.97421
11
4.42636
21
-1.97412
0
LINE
8
BLACK
6
CONTINUOUS
10
4.42636
20
-1.97412
11
4.42653
21
-1.97391
0
LINE
8
BLACK
6
CONTINUOUS
10
4.42653
20
-1.97391
11
4.42729
21
-1.97378
0
LINE
8
BLACK
6
CONTINUOUS
10
4.42729
20
-1.97378
11
4.42801
21
-1.97352
0
LINE
8
BLACK
6
CONTINUOUS
10
4.42801
20
-1.97352
11
4.44301
21
-1.97352
0
LINE
8
BLACK
6
CONTINUOUS
10
4.44301
20
-1.97352
11
4.44402
21
-1.9737
0
LINE
8
BLACK
6
CONTINUOUS
10
4.43096
20
-1.97942
11
4.43096
21
-1.99414
0
LINE
8
BLACK
6
CONTINUOUS
10
4.43096
20
-1.99414
11
4.44231
21
-1.99414
0
LINE
8
BLACK
6
CONTINUOUS
10
4.44231
20
-1.99414
11
4.44501
21
-1.99279
0
LINE
8
BLACK
6
CONTINUOUS
10
4.44501
20
-1.99279
11
4.4462
21
-1.9916
0
LINE
8
BLACK
6
CONTINUOUS
10
4.4462
20
-1.9916
11
4.44755
21
-1.9889
0
LINE
8
BLACK
6
CONTINUOUS
10
4.44755
20
-1.9889
11
4.44755
21
-1.98467
0
LINE
8
BLACK
6
CONTINUOUS
10
4.44755
20
-1.98467
11
4.4462
21
-1.98197
0
LINE
8
BLACK
6
CONTINUOUS
10
4.4462
20
-1.98197
11
4.44501
21
-1.98077
0
LINE
8
BLACK
6
CONTINUOUS
10
4.44501
20
-1.98077
11
4.44231
21
-1.97942
0
LINE
8
BLACK
6
CONTINUOUS
10
4.44231
20
-1.97942
11
4.43096
21
-1.97942
0
LINE
8
BLACK
6
CONTINUOUS
10
4.38215
20
-1.98682
11
4.38228
21
-1.98693
0
LINE
8
BLACK
6
CONTINUOUS
10
4.38228
20
-1.98693
11
4.38246
21
-1.98695
0
LINE
8
BLACK
6
CONTINUOUS
10
4.38246
20
-1.98695
11
4.38621
21
-1.98883
0
LINE
8
BLACK
6
CONTINUOUS
10
4.38621
20
-1.98883
11
4.38703
21
-1.98944
0
LINE
8
BLACK
6
CONTINUOUS
10
4.38703
20
-1.98944
11
4.38721
21
-1.98985
0
LINE
8
BLACK
6
CONTINUOUS
10
4.38721
20
-1.98985
11
4.38753
21
-1.99015
0
LINE
8
BLACK
6
CONTINUOUS
10
4.38753
20
-1.99015
11
4.38941
21
-1.9939
0
LINE
8
BLACK
6
CONTINUOUS
10
4.38941
20
-1.9939
11
4.3897
21
-1.99488
0
LINE
8
BLACK
6
CONTINUOUS
10
4.3897
20
-1.99488
11
4.38966
21
-1.99505
0
LINE
8
BLACK
6
CONTINUOUS
10
4.38966
20
-1.99505
11
4.38972
21
-1.99522
0
LINE
8
BLACK
6
CONTINUOUS
10
4.38972
20
-1.99522
11
4.38972
21
-2.01584
0
LINE
8
BLACK
6
CONTINUOUS
10
4.38972
20
-2.01584
11
4.38954
21
-2.01685
0
LINE
8
BLACK
6
CONTINUOUS
10
4.38954
20
-2.01685
11
4.38824
21
-2.0184
0
LINE
8
BLACK
6
CONTINUOUS
10
4.38824
20
-2.0184
11
4.38625
21
-2.01875
0
LINE
8
BLACK
6
CONTINUOUS
10
4.38625
20
-2.01875
11
4.3845
21
-2.01774
0
LINE
8
BLACK
6
CONTINUOUS
10
4.3845
20
-2.01774
11
4.38381
21
-2.01584
0
LINE
8
BLACK
6
CONTINUOUS
10
4.38381
20
-2.01584
11
4.38381
21
-1.99592
0
LINE
8
BLACK
6
CONTINUOUS
10
4.38381
20
-1.99592
11
4.38269
21
-1.99367
0
LINE
8
BLACK
6
CONTINUOUS
10
4.38269
20
-1.99367
11
4.38044
21
-1.99255
0
LINE
8
BLACK
6
CONTINUOUS
10
4.38044
20
-1.99255
11
4.37621
21
-1.99255
0
LINE
8
BLACK
6
CONTINUOUS
10
4.37621
20
-1.99255
11
4.37352
21
-1.9939
0
LINE
8
BLACK
6
CONTINUOUS
10
4.37352
20
-1.9939
11
4.37284
21
-1.99457
0
LINE
8
BLACK
6
CONTINUOUS
10
4.37284
20
-1.99457
11
4.37284
21
-2.01584
0
LINE
8
BLACK
6
CONTINUOUS
10
4.37284
20
-2.01584
11
4.37267
21
-2.01685
0
LINE
8
BLACK
6
CONTINUOUS
10
4.37267
20
-2.01685
11
4.37137
21
-2.0184
0
LINE
8
BLACK
6
CONTINUOUS
10
4.37137
20
-2.0184
11
4.36938
21
-2.01875
0
LINE
8
BLACK
6
CONTINUOUS
10
4.36938
20
-2.01875
11
4.36763
21
-2.01774
0
LINE
8
BLACK
6
CONTINUOUS
10
4.36763
20
-2.01774
11
4.36694
21
-2.01584
0
LINE
8
BLACK
6
CONTINUOUS
10
4.36694
20
-2.01584
11
4.36694
21
-1.9896
0
LINE
8
BLACK
6
CONTINUOUS
10
4.36694
20
-1.9896
11
4.36712
21
-1.98859
0
LINE
8
BLACK
6
CONTINUOUS
10
4.36712
20
-1.98859
11
4.36841
21
-1.98704
0
LINE
8
BLACK
6
CONTINUOUS
10
4.36841
20
-1.98704
11
4.3704
21
-1.98669
0
LINE
8
BLACK
6
CONTINUOUS
10
4.3704
20
-1.98669
11
4.37215
21
-1.9877
0
LINE
8
BLACK
6
CONTINUOUS
10
4.37215
20
-1.9877
11
4.37224
21
-1.98793
0
LINE
8
BLACK
6
CONTINUOUS
10
4.37224
20
-1.98793
11
4.3742
21
-1.98695
0
LINE
8
BLACK
6
CONTINUOUS
10
4.3742
20
-1.98695
11
4.37518
21
-1.98666
0
LINE
8
BLACK
6
CONTINUOUS
10
4.37518
20
-1.98666
11
4.37535
21
-1.9867
0
LINE
8
BLACK
6
CONTINUOUS
10
4.37535
20
-1.9867
11
4.37552
21
-1.98664
0
LINE
8
BLACK
6
CONTINUOUS
10
4.37552
20
-1.98664
11
4.38114
21
-1.98664
0
LINE
8
BLACK
6
CONTINUOUS
10
4.38114
20
-1.98664
11
4.38215
21
-1.98682
  0
ENDSEC
  0
EOF
