  0
SECTION
  2
HEADER
  9
$ANGBASE
  50
0.0
  9
$ANGDIR
  70
1
  9
$MEASUREMENT
  70
0
  0
ENDSEC
  0
SECTION
  2
TABLES
  0
TABLE
  2
LTYPE
  70
4
  0
LTYPE
  5
40F
  2
CONTINUOUS
  70
0
  3
Solid line
  72
65
  73
0
  40
0.0
  0
LTYPE
  5
410
  2
DASHDOT
 70
0
  3
Dash Dot ____ _ ____ _
 72
65
 73
4
 40
2.0
 49
1.25
 49
-0.25
 49
0.25
 49
-0.25
  0
LTYPE
  5
411
  2
DASHED
 70
0
  3
Dashed __ __ __ __ __
 72
65
 73
2
 40
0.75
 49
0.5
 49
-0.25
  0
LTYPE
  5
43B
  2
DOTTED
 70
0
  3
Dotted .  .  .  .
 72
65
 73
2
 40
0.2
 49
0.0
 49
-0.2
  0
ENDTAB
  0
TABLE
  2
STYLE
  70
4
  0
STYLE
  2
KICAD
  70
0
  40
0
  41
1
  42
1
  50
0
  71
0
  3
isocp.shx
  0
STYLE
  2
KICADB
  70
0
  40
0
  41
1
  42
1
  50
0
  71
0
  3
isocp.shx
  0
STYLE
  2
KICADI
  70
0
  40
0
  41
1
  42
1
  50
15
  71
0
  3
isocp.shx
  0
STYLE
  2
KICADBI
  70
0
  40
0
  41
1
  42
1
  50
15
  71
0
  3
isocp.shx
  0
ENDTAB
  0
TABLE
  2
LAYER
  70
1
  0
LAYER
  2
BLACK
  70
0
  62
7
  6
CONTINUOUS
  0
ENDTAB
  0
ENDSEC
  0
SECTION
  2
ENTITIES
0
LINE
8
BLACK
6
CONTINUOUS
10
3.20627
20
-6.20507
11
3.20598
21
-6.20437
0
LINE
8
BLACK
6
CONTINUOUS
10
3.20598
20
-6.20437
11
3.20598
21
-5.99965
0
LINE
8
BLACK
6
CONTINUOUS
10
3.20598
20
-5.99965
11
3.20627
21
-5.99895
0
LINE
8
BLACK
6
CONTINUOUS
10
3.20627
20
-5.99895
11
3.20697
21
-5.99866
0
LINE
8
BLACK
6
CONTINUOUS
10
3.20697
20
-5.99866
11
3.7424
21
-5.99866
0
LINE
8
BLACK
6
CONTINUOUS
10
3.7424
20
-5.99866
11
3.7431
21
-5.99895
0
LINE
8
BLACK
6
CONTINUOUS
10
3.7431
20
-5.99895
11
3.74339
21
-5.99965
0
LINE
8
BLACK
6
CONTINUOUS
10
3.74339
20
-5.99965
11
3.74339
21
-6.20437
0
LINE
8
BLACK
6
CONTINUOUS
10
3.74339
20
-6.20437
11
3.7431
21
-6.20507
0
LINE
8
BLACK
6
CONTINUOUS
10
3.7431
20
-6.20507
11
3.7424
21
-6.20535
0
LINE
8
BLACK
6
CONTINUOUS
10
3.7424
20
-6.20535
11
3.20697
21
-6.20535
0
LINE
8
BLACK
6
CONTINUOUS
10
3.20697
20
-6.20535
11
3.20627
21
-6.20507
0
LINE
8
BLACK
6
CONTINUOUS
10
3.20795
20
-6.00063
11
3.20795
21
-6.20339
0
LINE
8
BLACK
6
CONTINUOUS
10
3.20795
20
-6.20339
11
3.74142
21
-6.20339
0
LINE
8
BLACK
6
CONTINUOUS
10
3.74142
20
-6.20339
11
3.74142
21
-6.00063
0
LINE
8
BLACK
6
CONTINUOUS
10
3.74142
20
-6.00063
11
3.20795
21
-6.00063
0
LINE
8
BLACK
6
CONTINUOUS
10
4.13092
20
-6.20507
11
4.13063
21
-6.20437
0
LINE
8
BLACK
6
CONTINUOUS
10
4.13063
20
-6.20437
11
4.13063
21
-5.99965
0
LINE
8
BLACK
6
CONTINUOUS
10
4.13063
20
-5.99965
11
4.13092
21
-5.99895
0
LINE
8
BLACK
6
CONTINUOUS
10
4.13092
20
-5.99895
11
4.13161
21
-5.99866
0
LINE
8
BLACK
6
CONTINUOUS
10
4.13161
20
-5.99866
11
4.66705
21
-5.99866
0
LINE
8
BLACK
6
CONTINUOUS
10
4.66705
20
-5.99866
11
4.66774
21
-5.99895
0
LINE
8
BLACK
6
CONTINUOUS
10
4.66774
20
-5.99895
11
4.66803
21
-5.99965
0
LINE
8
BLACK
6
CONTINUOUS
10
4.66803
20
-5.99965
11
4.66803
21
-6.20437
0
LINE
8
BLACK
6
CONTINUOUS
10
4.66803
20
-6.20437
11
4.66774
21
-6.20507
0
LINE
8
BLACK
6
CONTINUOUS
10
4.66774
20
-6.20507
11
4.66705
21
-6.20535
0
LINE
8
BLACK
6
CONTINUOUS
10
4.66705
20
-6.20535
11
4.13161
21
-6.20535
0
LINE
8
BLACK
6
CONTINUOUS
10
4.13161
20
-6.20535
11
4.13092
21
-6.20507
0
LINE
8
BLACK
6
CONTINUOUS
10
4.1326
20
-6.00063
11
4.1326
21
-6.20339
0
LINE
8
BLACK
6
CONTINUOUS
10
4.1326
20
-6.20339
11
4.66606
21
-6.20339
0
LINE
8
BLACK
6
CONTINUOUS
10
4.66606
20
-6.20339
11
4.66606
21
-6.00063
0
LINE
8
BLACK
6
CONTINUOUS
10
4.66606
20
-6.00063
11
4.1326
21
-6.00063
0
LINE
8
BLACK
6
CONTINUOUS
10
4.05915
20
-6.14509
11
4.05886
21
-6.14439
0
LINE
8
BLACK
6
CONTINUOUS
10
4.05886
20
-6.14439
11
4.05886
21
-6.02785
0
LINE
8
BLACK
6
CONTINUOUS
10
4.05886
20
-6.02785
11
4.05915
21
-6.02716
0
LINE
8
BLACK
6
CONTINUOUS
10
4.05915
20
-6.02716
11
4.05984
21
-6.02687
0
LINE
8
BLACK
6
CONTINUOUS
10
4.05984
20
-6.02687
11
4.11732
21
-6.02687
0
LINE
8
BLACK
6
CONTINUOUS
10
4.11732
20
-6.02687
11
4.11802
21
-6.02716
0
LINE
8
BLACK
6
CONTINUOUS
10
4.11802
20
-6.02716
11
4.11831
21
-6.02785
0
LINE
8
BLACK
6
CONTINUOUS
10
4.11831
20
-6.02785
11
4.11831
21
-6.14439
0
LINE
8
BLACK
6
CONTINUOUS
10
4.11831
20
-6.14439
11
4.11802
21
-6.14509
0
LINE
8
BLACK
6
CONTINUOUS
10
4.11802
20
-6.14509
11
4.11732
21
-6.14537
0
LINE
8
BLACK
6
CONTINUOUS
10
4.11732
20
-6.14537
11
4.05984
21
-6.14537
0
LINE
8
BLACK
6
CONTINUOUS
10
4.05984
20
-6.14537
11
4.05915
21
-6.14509
0
LINE
8
BLACK
6
CONTINUOUS
10
4.06083
20
-6.02884
11
4.06083
21
-6.14341
0
LINE
8
BLACK
6
CONTINUOUS
10
4.06083
20
-6.14341
11
4.11634
21
-6.14341
0
LINE
8
BLACK
6
CONTINUOUS
10
4.11634
20
-6.14341
11
4.11634
21
-6.02884
0
LINE
8
BLACK
6
CONTINUOUS
10
4.11634
20
-6.02884
11
4.06083
21
-6.02884
0
LINE
8
BLACK
6
CONTINUOUS
10
4.4307
20
-5.99597
11
4.43041
21
-5.99528
0
LINE
8
BLACK
6
CONTINUOUS
10
4.43041
20
-5.99528
11
4.43041
21
-5.9378
0
LINE
8
BLACK
6
CONTINUOUS
10
4.43041
20
-5.9378
11
4.4307
21
-5.9371
0
LINE
8
BLACK
6
CONTINUOUS
10
4.4307
20
-5.9371
11
4.4314
21
-5.93681
0
LINE
8
BLACK
6
CONTINUOUS
10
4.4314
20
-5.93681
11
4.54793
21
-5.93681
0
LINE
8
BLACK
6
CONTINUOUS
10
4.54793
20
-5.93681
11
4.54863
21
-5.9371
0
LINE
8
BLACK
6
CONTINUOUS
10
4.54863
20
-5.9371
11
4.54892
21
-5.9378
0
LINE
8
BLACK
6
CONTINUOUS
10
4.54892
20
-5.9378
11
4.54892
21
-5.99528
0
LINE
8
BLACK
6
CONTINUOUS
10
4.54892
20
-5.99528
11
4.54863
21
-5.99597
0
LINE
8
BLACK
6
CONTINUOUS
10
4.54863
20
-5.99597
11
4.54793
21
-5.99626
0
LINE
8
BLACK
6
CONTINUOUS
10
4.54793
20
-5.99626
11
4.4314
21
-5.99626
0
LINE
8
BLACK
6
CONTINUOUS
10
4.4314
20
-5.99626
11
4.4307
21
-5.99597
0
LINE
8
BLACK
6
CONTINUOUS
10
4.43238
20
-5.93878
11
4.43238
21
-5.99429
0
LINE
8
BLACK
6
CONTINUOUS
10
4.43238
20
-5.99429
11
4.54695
21
-5.99429
0
LINE
8
BLACK
6
CONTINUOUS
10
4.54695
20
-5.99429
11
4.54695
21
-5.93878
0
LINE
8
BLACK
6
CONTINUOUS
10
4.54695
20
-5.93878
11
4.43238
21
-5.93878
0
LINE
8
BLACK
6
CONTINUOUS
10
3.711
20
-5.96337
11
3.71071
21
-5.96268
0
LINE
8
BLACK
6
CONTINUOUS
10
3.71071
20
-5.96268
11
3.71071
21
-5.80658
0
LINE
8
BLACK
6
CONTINUOUS
10
3.71071
20
-5.80658
11
3.71054
21
-5.807
0
LINE
8
BLACK
6
CONTINUOUS
10
3.71054
20
-5.807
11
3.70984
21
-5.80728
0
LINE
8
BLACK
6
CONTINUOUS
10
3.70984
20
-5.80728
11
3.65236
21
-5.80728
0
LINE
8
BLACK
6
CONTINUOUS
10
3.65236
20
-5.80728
11
3.65167
21
-5.807
0
LINE
8
BLACK
6
CONTINUOUS
10
3.65167
20
-5.807
11
3.65138
21
-5.8063
0
LINE
8
BLACK
6
CONTINUOUS
10
3.65138
20
-5.8063
11
3.65138
21
-5.68976
0
LINE
8
BLACK
6
CONTINUOUS
10
3.65138
20
-5.68976
11
3.65167
21
-5.68907
0
LINE
8
BLACK
6
CONTINUOUS
10
3.65167
20
-5.68907
11
3.65236
21
-5.68878
0
LINE
8
BLACK
6
CONTINUOUS
10
3.65236
20
-5.68878
11
3.70984
21
-5.68878
0
LINE
8
BLACK
6
CONTINUOUS
10
3.70984
20
-5.68878
11
3.71054
21
-5.68907
0
LINE
8
BLACK
6
CONTINUOUS
10
3.71054
20
-5.68907
11
3.71071
21
-5.68948
0
LINE
8
BLACK
6
CONTINUOUS
10
3.71071
20
-5.68948
11
3.71071
21
-5.67134
0
LINE
8
BLACK
6
CONTINUOUS
10
3.71071
20
-5.67134
11
3.711
21
-5.67064
0
LINE
8
BLACK
6
CONTINUOUS
10
3.711
20
-5.67064
11
3.71169
21
-5.67035
0
LINE
8
BLACK
6
CONTINUOUS
10
3.71169
20
-5.67035
11
4.07232
21
-5.67035
0
LINE
8
BLACK
6
CONTINUOUS
10
4.07232
20
-5.67035
11
4.07302
21
-5.67064
0
LINE
8
BLACK
6
CONTINUOUS
10
4.07302
20
-5.67064
11
4.07331
21
-5.67134
0
LINE
8
BLACK
6
CONTINUOUS
10
4.07331
20
-5.67134
11
4.07331
21
-5.96268
0
LINE
8
BLACK
6
CONTINUOUS
10
4.07331
20
-5.96268
11
4.07302
21
-5.96337
0
LINE
8
BLACK
6
CONTINUOUS
10
4.07302
20
-5.96337
11
4.07232
21
-5.96366
0
LINE
8
BLACK
6
CONTINUOUS
10
4.07232
20
-5.96366
11
3.71169
21
-5.96366
0
LINE
8
BLACK
6
CONTINUOUS
10
3.71169
20
-5.96366
11
3.711
21
-5.96337
0
LINE
8
BLACK
6
CONTINUOUS
10
3.71268
20
-5.67232
11
3.71268
21
-5.96169
0
LINE
8
BLACK
6
CONTINUOUS
10
3.71268
20
-5.96169
11
4.07134
21
-5.96169
0
LINE
8
BLACK
6
CONTINUOUS
10
4.07134
20
-5.96169
11
4.07134
21
-5.67232
0
LINE
8
BLACK
6
CONTINUOUS
10
4.07134
20
-5.67232
11
3.71268
21
-5.67232
0
LINE
8
BLACK
6
CONTINUOUS
10
3.65335
20
-5.69075
11
3.65335
21
-5.80531
0
LINE
8
BLACK
6
CONTINUOUS
10
3.65335
20
-5.80531
11
3.70886
21
-5.80531
0
LINE
8
BLACK
6
CONTINUOUS
10
3.70886
20
-5.80531
11
3.70886
21
-5.69075
0
LINE
8
BLACK
6
CONTINUOUS
10
3.70886
20
-5.69075
11
3.65335
21
-5.69075
0
LINE
8
BLACK
6
CONTINUOUS
10
3.38257
20
-5.93692
11
3.38228
21
-5.93622
0
LINE
8
BLACK
6
CONTINUOUS
10
3.38228
20
-5.93622
11
3.38228
21
-5.81969
0
LINE
8
BLACK
6
CONTINUOUS
10
3.38228
20
-5.81969
11
3.38257
21
-5.81899
0
LINE
8
BLACK
6
CONTINUOUS
10
3.38257
20
-5.81899
11
3.38327
21
-5.8187
0
LINE
8
BLACK
6
CONTINUOUS
10
3.38327
20
-5.8187
11
3.44075
21
-5.8187
0
LINE
8
BLACK
6
CONTINUOUS
10
3.44075
20
-5.8187
11
3.44144
21
-5.81899
0
LINE
8
BLACK
6
CONTINUOUS
10
3.44144
20
-5.81899
11
3.44173
21
-5.81969
0
LINE
8
BLACK
6
CONTINUOUS
10
3.44173
20
-5.81969
11
3.44173
21
-5.93622
0
LINE
8
BLACK
6
CONTINUOUS
10
3.44173
20
-5.93622
11
3.44144
21
-5.93692
0
LINE
8
BLACK
6
CONTINUOUS
10
3.44144
20
-5.93692
11
3.44075
21
-5.9372
0
LINE
8
BLACK
6
CONTINUOUS
10
3.44075
20
-5.9372
11
3.38327
21
-5.9372
0
LINE
8
BLACK
6
CONTINUOUS
10
3.38327
20
-5.9372
11
3.38257
21
-5.93692
0
LINE
8
BLACK
6
CONTINUOUS
10
3.38425
20
-5.82067
11
3.38425
21
-5.93524
0
LINE
8
BLACK
6
CONTINUOUS
10
3.38425
20
-5.93524
11
3.43976
21
-5.93524
0
LINE
8
BLACK
6
CONTINUOUS
10
3.43976
20
-5.93524
11
3.43976
21
-5.82067
0
LINE
8
BLACK
6
CONTINUOUS
10
3.43976
20
-5.82067
11
3.38425
21
-5.82067
0
LINE
8
BLACK
6
CONTINUOUS
10
3.46257
20
-5.93597
11
3.46228
21
-5.93528
0
LINE
8
BLACK
6
CONTINUOUS
10
3.46228
20
-5.93528
11
3.46228
21
-5.81874
0
LINE
8
BLACK
6
CONTINUOUS
10
3.46228
20
-5.81874
11
3.46257
21
-5.81804
0
LINE
8
BLACK
6
CONTINUOUS
10
3.46257
20
-5.81804
11
3.46327
21
-5.81776
0
LINE
8
BLACK
6
CONTINUOUS
10
3.46327
20
-5.81776
11
3.52075
21
-5.81776
0
LINE
8
BLACK
6
CONTINUOUS
10
3.52075
20
-5.81776
11
3.52144
21
-5.81804
0
LINE
8
BLACK
6
CONTINUOUS
10
3.52144
20
-5.81804
11
3.52173
21
-5.81874
0
LINE
8
BLACK
6
CONTINUOUS
10
3.52173
20
-5.81874
11
3.52173
21
-5.93528
0
LINE
8
BLACK
6
CONTINUOUS
10
3.52173
20
-5.93528
11
3.52144
21
-5.93597
0
LINE
8
BLACK
6
CONTINUOUS
10
3.52144
20
-5.93597
11
3.52075
21
-5.93626
0
LINE
8
BLACK
6
CONTINUOUS
10
3.52075
20
-5.93626
11
3.46327
21
-5.93626
0
LINE
8
BLACK
6
CONTINUOUS
10
3.46327
20
-5.93626
11
3.46257
21
-5.93597
0
LINE
8
BLACK
6
CONTINUOUS
10
3.46425
20
-5.81972
11
3.46425
21
-5.93429
0
LINE
8
BLACK
6
CONTINUOUS
10
3.46425
20
-5.93429
11
3.51976
21
-5.93429
0
LINE
8
BLACK
6
CONTINUOUS
10
3.51976
20
-5.93429
11
3.51976
21
-5.81972
0
LINE
8
BLACK
6
CONTINUOUS
10
3.51976
20
-5.81972
11
3.46425
21
-5.81972
0
LINE
8
BLACK
6
CONTINUOUS
10
3.5119
20
-5.81644
11
3.51161
21
-5.81575
0
LINE
8
BLACK
6
CONTINUOUS
10
3.51161
20
-5.81575
11
3.51161
21
-5.75827
0
LINE
8
BLACK
6
CONTINUOUS
10
3.51161
20
-5.75827
11
3.5119
21
-5.75757
0
LINE
8
BLACK
6
CONTINUOUS
10
3.5119
20
-5.75757
11
3.5126
21
-5.75728
0
LINE
8
BLACK
6
CONTINUOUS
10
3.5126
20
-5.75728
11
3.62913
21
-5.75728
0
LINE
8
BLACK
6
CONTINUOUS
10
3.62913
20
-5.75728
11
3.62983
21
-5.75757
0
LINE
8
BLACK
6
CONTINUOUS
10
3.62983
20
-5.75757
11
3.63012
21
-5.75827
0
LINE
8
BLACK
6
CONTINUOUS
10
3.63012
20
-5.75827
11
3.63012
21
-5.81575
0
LINE
8
BLACK
6
CONTINUOUS
10
3.63012
20
-5.81575
11
3.62983
21
-5.81644
0
LINE
8
BLACK
6
CONTINUOUS
10
3.62983
20
-5.81644
11
3.62913
21
-5.81673
0
LINE
8
BLACK
6
CONTINUOUS
10
3.62913
20
-5.81673
11
3.5126
21
-5.81673
0
LINE
8
BLACK
6
CONTINUOUS
10
3.5126
20
-5.81673
11
3.5119
21
-5.81644
0
LINE
8
BLACK
6
CONTINUOUS
10
3.51358
20
-5.75925
11
3.51358
21
-5.81476
0
LINE
8
BLACK
6
CONTINUOUS
10
3.51358
20
-5.81476
11
3.62815
21
-5.81476
0
LINE
8
BLACK
6
CONTINUOUS
10
3.62815
20
-5.81476
11
3.62815
21
-5.75925
0
LINE
8
BLACK
6
CONTINUOUS
10
3.62815
20
-5.75925
11
3.51358
21
-5.75925
0
LINE
8
BLACK
6
CONTINUOUS
10
3.38304
20
-5.81644
11
3.38276
21
-5.81575
0
LINE
8
BLACK
6
CONTINUOUS
10
3.38276
20
-5.81575
11
3.38276
21
-5.75827
0
LINE
8
BLACK
6
CONTINUOUS
10
3.38276
20
-5.75827
11
3.38304
21
-5.75757
0
LINE
8
BLACK
6
CONTINUOUS
10
3.38304
20
-5.75757
11
3.38374
21
-5.75728
0
LINE
8
BLACK
6
CONTINUOUS
10
3.38374
20
-5.75728
11
3.50028
21
-5.75728
0
LINE
8
BLACK
6
CONTINUOUS
10
3.50028
20
-5.75728
11
3.50097
21
-5.75757
0
LINE
8
BLACK
6
CONTINUOUS
10
3.50097
20
-5.75757
11
3.50126
21
-5.75827
0
LINE
8
BLACK
6
CONTINUOUS
10
3.50126
20
-5.75827
11
3.50126
21
-5.81575
0
LINE
8
BLACK
6
CONTINUOUS
10
3.50126
20
-5.81575
11
3.50097
21
-5.81644
0
LINE
8
BLACK
6
CONTINUOUS
10
3.50097
20
-5.81644
11
3.50028
21
-5.81673
0
LINE
8
BLACK
6
CONTINUOUS
10
3.50028
20
-5.81673
11
3.38374
21
-5.81673
0
LINE
8
BLACK
6
CONTINUOUS
10
3.38374
20
-5.81673
11
3.38304
21
-5.81644
0
LINE
8
BLACK
6
CONTINUOUS
10
3.38472
20
-5.75925
11
3.38472
21
-5.81476
0
LINE
8
BLACK
6
CONTINUOUS
10
3.38472
20
-5.81476
11
3.49929
21
-5.81476
0
LINE
8
BLACK
6
CONTINUOUS
10
3.49929
20
-5.81476
11
3.49929
21
-5.75925
0
LINE
8
BLACK
6
CONTINUOUS
10
3.49929
20
-5.75925
11
3.38472
21
-5.75925
0
LINE
8
BLACK
6
CONTINUOUS
10
3.5119
20
-5.75644
11
3.51161
21
-5.75575
0
LINE
8
BLACK
6
CONTINUOUS
10
3.51161
20
-5.75575
11
3.51161
21
-5.69827
0
LINE
8
BLACK
6
CONTINUOUS
10
3.51161
20
-5.69827
11
3.5119
21
-5.69757
0
LINE
8
BLACK
6
CONTINUOUS
10
3.5119
20
-5.69757
11
3.5126
21
-5.69728
0
LINE
8
BLACK
6
CONTINUOUS
10
3.5126
20
-5.69728
11
3.62913
21
-5.69728
0
LINE
8
BLACK
6
CONTINUOUS
10
3.62913
20
-5.69728
11
3.62983
21
-5.69757
0
LINE
8
BLACK
6
CONTINUOUS
10
3.62983
20
-5.69757
11
3.63012
21
-5.69827
0
LINE
8
BLACK
6
CONTINUOUS
10
3.63012
20
-5.69827
11
3.63012
21
-5.75575
0
LINE
8
BLACK
6
CONTINUOUS
10
3.63012
20
-5.75575
11
3.62983
21
-5.75644
0
LINE
8
BLACK
6
CONTINUOUS
10
3.62983
20
-5.75644
11
3.62913
21
-5.75673
0
LINE
8
BLACK
6
CONTINUOUS
10
3.62913
20
-5.75673
11
3.5126
21
-5.75673
0
LINE
8
BLACK
6
CONTINUOUS
10
3.5126
20
-5.75673
11
3.5119
21
-5.75644
0
LINE
8
BLACK
6
CONTINUOUS
10
3.51358
20
-5.69925
11
3.51358
21
-5.75476
0
LINE
8
BLACK
6
CONTINUOUS
10
3.51358
20
-5.75476
11
3.62815
21
-5.75476
0
LINE
8
BLACK
6
CONTINUOUS
10
3.62815
20
-5.75476
11
3.62815
21
-5.69925
0
LINE
8
BLACK
6
CONTINUOUS
10
3.62815
20
-5.69925
11
3.51358
21
-5.69925
0
LINE
8
BLACK
6
CONTINUOUS
10
3.38304
20
-5.75644
11
3.38276
21
-5.75575
0
LINE
8
BLACK
6
CONTINUOUS
10
3.38276
20
-5.75575
11
3.38276
21
-5.69827
0
LINE
8
BLACK
6
CONTINUOUS
10
3.38276
20
-5.69827
11
3.38304
21
-5.69757
0
LINE
8
BLACK
6
CONTINUOUS
10
3.38304
20
-5.69757
11
3.38374
21
-5.69728
0
LINE
8
BLACK
6
CONTINUOUS
10
3.38374
20
-5.69728
11
3.50028
21
-5.69728
0
LINE
8
BLACK
6
CONTINUOUS
10
3.50028
20
-5.69728
11
3.50097
21
-5.69757
0
LINE
8
BLACK
6
CONTINUOUS
10
3.50097
20
-5.69757
11
3.50126
21
-5.69827
0
LINE
8
BLACK
6
CONTINUOUS
10
3.50126
20
-5.69827
11
3.50126
21
-5.75575
0
LINE
8
BLACK
6
CONTINUOUS
10
3.50126
20
-5.75575
11
3.50097
21
-5.75644
0
LINE
8
BLACK
6
CONTINUOUS
10
3.50097
20
-5.75644
11
3.50028
21
-5.75673
0
LINE
8
BLACK
6
CONTINUOUS
10
3.50028
20
-5.75673
11
3.38374
21
-5.75673
0
LINE
8
BLACK
6
CONTINUOUS
10
3.38374
20
-5.75673
11
3.38304
21
-5.75644
0
LINE
8
BLACK
6
CONTINUOUS
10
3.38472
20
-5.69925
11
3.38472
21
-5.75476
0
LINE
8
BLACK
6
CONTINUOUS
10
3.38472
20
-5.75476
11
3.49929
21
-5.75476
0
LINE
8
BLACK
6
CONTINUOUS
10
3.49929
20
-5.75476
11
3.49929
21
-5.69925
0
LINE
8
BLACK
6
CONTINUOUS
10
3.49929
20
-5.69925
11
3.38472
21
-5.69925
0
LINE
8
BLACK
6
CONTINUOUS
10
3.32608
20
-5.67743
11
3.32579
21
-5.67673
0
LINE
8
BLACK
6
CONTINUOUS
10
3.32579
20
-5.67673
11
3.32579
21
-5.26728
0
LINE
8
BLACK
6
CONTINUOUS
10
3.32579
20
-5.26728
11
3.32608
21
-5.26659
0
LINE
8
BLACK
6
CONTINUOUS
10
3.32608
20
-5.26659
11
3.32677
21
-5.2663
0
LINE
8
BLACK
6
CONTINUOUS
10
3.32677
20
-5.2663
11
3.61811
21
-5.2663
0
LINE
8
BLACK
6
CONTINUOUS
10
3.61811
20
-5.2663
11
3.61881
21
-5.26659
0
LINE
8
BLACK
6
CONTINUOUS
10
3.61881
20
-5.26659
11
3.61909
21
-5.26728
0
LINE
8
BLACK
6
CONTINUOUS
10
3.61909
20
-5.26728
11
3.61909
21
-5.67673
0
LINE
8
BLACK
6
CONTINUOUS
10
3.61909
20
-5.67673
11
3.61881
21
-5.67743
0
LINE
8
BLACK
6
CONTINUOUS
10
3.61881
20
-5.67743
11
3.61811
21
-5.67772
0
LINE
8
BLACK
6
CONTINUOUS
10
3.61811
20
-5.67772
11
3.32677
21
-5.67772
0
LINE
8
BLACK
6
CONTINUOUS
10
3.32677
20
-5.67772
11
3.32608
21
-5.67743
0
LINE
8
BLACK
6
CONTINUOUS
10
3.32776
20
-5.26827
11
3.32776
21
-5.67575
0
LINE
8
BLACK
6
CONTINUOUS
10
3.32776
20
-5.67575
11
3.61713
21
-5.67575
0
LINE
8
BLACK
6
CONTINUOUS
10
3.61713
20
-5.67575
11
3.61713
21
-5.26827
0
LINE
8
BLACK
6
CONTINUOUS
10
3.61713
20
-5.26827
11
3.32776
21
-5.26827
0
LINE
8
BLACK
6
CONTINUOUS
10
3.82697
20
-5.60512
11
3.82697
21
-5.6626
0
LINE
8
BLACK
6
CONTINUOUS
10
3.82697
20
-5.6626
11
3.82668
21
-5.66329
0
LINE
8
BLACK
6
CONTINUOUS
10
3.82668
20
-5.66329
11
3.82598
21
-5.66358
0
LINE
8
BLACK
6
CONTINUOUS
10
3.82598
20
-5.66358
11
3.70945
21
-5.66358
0
LINE
8
BLACK
6
CONTINUOUS
10
3.70945
20
-5.66358
11
3.70875
21
-5.66329
0
LINE
8
BLACK
6
CONTINUOUS
10
3.70875
20
-5.66329
11
3.70846
21
-5.6626
0
LINE
8
BLACK
6
CONTINUOUS
10
3.70846
20
-5.6626
11
3.70846
21
-5.60512
0
LINE
8
BLACK
6
CONTINUOUS
10
3.70846
20
-5.60512
11
3.70871
21
-5.60453
0
LINE
8
BLACK
6
CONTINUOUS
10
3.70871
20
-5.60453
11
3.67402
21
-5.60453
0
LINE
8
BLACK
6
CONTINUOUS
10
3.67402
20
-5.60453
11
3.67332
21
-5.60424
0
LINE
8
BLACK
6
CONTINUOUS
10
3.67332
20
-5.60424
11
3.67303
21
-5.60354
0
LINE
8
BLACK
6
CONTINUOUS
10
3.67303
20
-5.60354
11
3.67303
21
-5.54606
0
LINE
8
BLACK
6
CONTINUOUS
10
3.67303
20
-5.54606
11
3.67332
21
-5.54537
0
LINE
8
BLACK
6
CONTINUOUS
10
3.67332
20
-5.54537
11
3.67402
21
-5.54508
0
LINE
8
BLACK
6
CONTINUOUS
10
3.67402
20
-5.54508
11
3.79055
21
-5.54508
0
LINE
8
BLACK
6
CONTINUOUS
10
3.79055
20
-5.54508
11
3.79125
21
-5.54537
0
LINE
8
BLACK
6
CONTINUOUS
10
3.79125
20
-5.54537
11
3.79154
21
-5.54606
0
LINE
8
BLACK
6
CONTINUOUS
10
3.79154
20
-5.54606
11
3.79154
21
-5.60354
0
LINE
8
BLACK
6
CONTINUOUS
10
3.79154
20
-5.60354
11
3.79129
21
-5.60413
0
LINE
8
BLACK
6
CONTINUOUS
10
3.79129
20
-5.60413
11
3.82598
21
-5.60413
0
LINE
8
BLACK
6
CONTINUOUS
10
3.82598
20
-5.60413
11
3.82668
21
-5.60442
0
LINE
8
BLACK
6
CONTINUOUS
10
3.82668
20
-5.60442
11
3.82697
21
-5.60512
0
LINE
8
BLACK
6
CONTINUOUS
10
3.71043
20
-5.6061
11
3.71043
21
-5.66161
0
LINE
8
BLACK
6
CONTINUOUS
10
3.71043
20
-5.66161
11
3.825
21
-5.66161
0
LINE
8
BLACK
6
CONTINUOUS
10
3.825
20
-5.66161
11
3.825
21
-5.6061
0
LINE
8
BLACK
6
CONTINUOUS
10
3.825
20
-5.6061
11
3.71043
21
-5.6061
0
LINE
8
BLACK
6
CONTINUOUS
10
3.675
20
-5.54705
11
3.675
21
-5.60256
0
LINE
8
BLACK
6
CONTINUOUS
10
3.675
20
-5.60256
11
3.78957
21
-5.60256
0
LINE
8
BLACK
6
CONTINUOUS
10
3.78957
20
-5.60256
11
3.78957
21
-5.54705
0
LINE
8
BLACK
6
CONTINUOUS
10
3.78957
20
-5.54705
11
3.675
21
-5.54705
0
LINE
8
BLACK
6
CONTINUOUS
10
3.01505
20
-5.64743
11
3.01476
21
-5.64673
0
LINE
8
BLACK
6
CONTINUOUS
10
3.01476
20
-5.64673
11
3.01476
21
-5.23728
0
LINE
8
BLACK
6
CONTINUOUS
10
3.01476
20
-5.23728
11
3.01505
21
-5.23659
0
LINE
8
BLACK
6
CONTINUOUS
10
3.01505
20
-5.23659
11
3.01575
21
-5.2363
0
LINE
8
BLACK
6
CONTINUOUS
10
3.01575
20
-5.2363
11
3.30709
21
-5.2363
0
LINE
8
BLACK
6
CONTINUOUS
10
3.30709
20
-5.2363
11
3.30778
21
-5.23659
0
LINE
8
BLACK
6
CONTINUOUS
10
3.30778
20
-5.23659
11
3.30807
21
-5.23728
0
LINE
8
BLACK
6
CONTINUOUS
10
3.30807
20
-5.23728
11
3.30807
21
-5.64673
0
LINE
8
BLACK
6
CONTINUOUS
10
3.30807
20
-5.64673
11
3.30778
21
-5.64743
0
LINE
8
BLACK
6
CONTINUOUS
10
3.30778
20
-5.64743
11
3.30709
21
-5.64772
0
LINE
8
BLACK
6
CONTINUOUS
10
3.30709
20
-5.64772
11
3.01575
21
-5.64772
0
LINE
8
BLACK
6
CONTINUOUS
10
3.01575
20
-5.64772
11
3.01505
21
-5.64743
0
LINE
8
BLACK
6
CONTINUOUS
10
3.01673
20
-5.23827
11
3.01673
21
-5.64575
0
LINE
8
BLACK
6
CONTINUOUS
10
3.01673
20
-5.64575
11
3.3061
21
-5.64575
0
LINE
8
BLACK
6
CONTINUOUS
10
3.3061
20
-5.64575
11
3.3061
21
-5.23827
0
LINE
8
BLACK
6
CONTINUOUS
10
3.3061
20
-5.23827
11
3.01673
21
-5.23827
0
LINE
8
BLACK
6
CONTINUOUS
10
4.00903
20
-5.61312
11
4.00874
21
-5.61242
0
LINE
8
BLACK
6
CONTINUOUS
10
4.00874
20
-5.61242
11
4.00874
21
-5.32108
0
LINE
8
BLACK
6
CONTINUOUS
10
4.00874
20
-5.32108
11
4.00903
21
-5.32039
0
LINE
8
BLACK
6
CONTINUOUS
10
4.00903
20
-5.32039
11
4.00972
21
-5.3201
0
LINE
8
BLACK
6
CONTINUOUS
10
4.00972
20
-5.3201
11
4.22232
21
-5.3201
0
LINE
8
BLACK
6
CONTINUOUS
10
4.22232
20
-5.3201
11
4.22302
21
-5.32039
0
LINE
8
BLACK
6
CONTINUOUS
10
4.22302
20
-5.32039
11
4.22331
21
-5.32108
0
LINE
8
BLACK
6
CONTINUOUS
10
4.22331
20
-5.32108
11
4.22331
21
-5.61242
0
LINE
8
BLACK
6
CONTINUOUS
10
4.22331
20
-5.61242
11
4.22302
21
-5.61312
0
LINE
8
BLACK
6
CONTINUOUS
10
4.22302
20
-5.61312
11
4.22232
21
-5.61341
0
LINE
8
BLACK
6
CONTINUOUS
10
4.22232
20
-5.61341
11
4.00972
21
-5.61341
0
LINE
8
BLACK
6
CONTINUOUS
10
4.00972
20
-5.61341
11
4.00903
21
-5.61312
0
LINE
8
BLACK
6
CONTINUOUS
10
4.01071
20
-5.32207
11
4.01071
21
-5.61144
0
LINE
8
BLACK
6
CONTINUOUS
10
4.01071
20
-5.61144
11
4.22134
21
-5.61144
0
LINE
8
BLACK
6
CONTINUOUS
10
4.22134
20
-5.61144
11
4.22134
21
-5.32207
0
LINE
8
BLACK
6
CONTINUOUS
10
4.22134
20
-5.32207
11
4.01071
21
-5.32207
0
LINE
8
BLACK
6
CONTINUOUS
10
4.36623
20
-5.59282
11
4.36594
21
-5.59213
0
LINE
8
BLACK
6
CONTINUOUS
10
4.36594
20
-5.59213
11
4.36594
21
-5.53465
0
LINE
8
BLACK
6
CONTINUOUS
10
4.36594
20
-5.53465
11
4.36623
21
-5.53395
0
LINE
8
BLACK
6
CONTINUOUS
10
4.36623
20
-5.53395
11
4.36693
21
-5.53366
0
LINE
8
BLACK
6
CONTINUOUS
10
4.36693
20
-5.53366
11
4.48346
21
-5.53366
0
LINE
8
BLACK
6
CONTINUOUS
10
4.48346
20
-5.53366
11
4.48416
21
-5.53395
0
LINE
8
BLACK
6
CONTINUOUS
10
4.48416
20
-5.53395
11
4.48445
21
-5.53465
0
LINE
8
BLACK
6
CONTINUOUS
10
4.48445
20
-5.53465
11
4.48445
21
-5.59213
0
LINE
8
BLACK
6
CONTINUOUS
10
4.48445
20
-5.59213
11
4.48416
21
-5.59282
0
LINE
8
BLACK
6
CONTINUOUS
10
4.48416
20
-5.59282
11
4.48346
21
-5.59311
0
LINE
8
BLACK
6
CONTINUOUS
10
4.48346
20
-5.59311
11
4.36693
21
-5.59311
0
LINE
8
BLACK
6
CONTINUOUS
10
4.36693
20
-5.59311
11
4.36623
21
-5.59282
0
LINE
8
BLACK
6
CONTINUOUS
10
4.36791
20
-5.53563
11
4.36791
21
-5.59114
0
LINE
8
BLACK
6
CONTINUOUS
10
4.36791
20
-5.59114
11
4.48248
21
-5.59114
0
LINE
8
BLACK
6
CONTINUOUS
10
4.48248
20
-5.59114
11
4.48248
21
-5.53563
0
LINE
8
BLACK
6
CONTINUOUS
10
4.48248
20
-5.53563
11
4.36791
21
-5.53563
0
LINE
8
BLACK
6
CONTINUOUS
10
4.22962
20
-5.59203
11
4.22933
21
-5.59134
0
LINE
8
BLACK
6
CONTINUOUS
10
4.22933
20
-5.59134
11
4.22933
21
-5.53386
0
LINE
8
BLACK
6
CONTINUOUS
10
4.22933
20
-5.53386
11
4.22962
21
-5.53316
0
LINE
8
BLACK
6
CONTINUOUS
10
4.22962
20
-5.53316
11
4.23031
21
-5.53287
0
LINE
8
BLACK
6
CONTINUOUS
10
4.23031
20
-5.53287
11
4.34685
21
-5.53287
0
LINE
8
BLACK
6
CONTINUOUS
10
4.34685
20
-5.53287
11
4.34755
21
-5.53316
0
LINE
8
BLACK
6
CONTINUOUS
10
4.34755
20
-5.53316
11
4.34783
21
-5.53386
0
LINE
8
BLACK
6
CONTINUOUS
10
4.34783
20
-5.53386
11
4.34783
21
-5.59134
0
LINE
8
BLACK
6
CONTINUOUS
10
4.34783
20
-5.59134
11
4.34755
21
-5.59203
0
LINE
8
BLACK
6
CONTINUOUS
10
4.34755
20
-5.59203
11
4.34685
21
-5.59232
0
LINE
8
BLACK
6
CONTINUOUS
10
4.34685
20
-5.59232
11
4.23031
21
-5.59232
0
LINE
8
BLACK
6
CONTINUOUS
10
4.23031
20
-5.59232
11
4.22962
21
-5.59203
0
LINE
8
BLACK
6
CONTINUOUS
10
4.2313
20
-5.53484
11
4.2313
21
-5.59035
0
LINE
8
BLACK
6
CONTINUOUS
10
4.2313
20
-5.59035
11
4.34587
21
-5.59035
0
LINE
8
BLACK
6
CONTINUOUS
10
4.34587
20
-5.59035
11
4.34587
21
-5.53484
0
LINE
8
BLACK
6
CONTINUOUS
10
4.34587
20
-5.53484
11
4.2313
21
-5.53484
0
LINE
8
BLACK
6
CONTINUOUS
10
3.70403
20
-5.53888
11
3.70374
21
-5.53819
0
LINE
8
BLACK
6
CONTINUOUS
10
3.70374
20
-5.53819
11
3.70374
21
-5.17756
0
LINE
8
BLACK
6
CONTINUOUS
10
3.70374
20
-5.17756
11
3.70403
21
-5.17686
0
LINE
8
BLACK
6
CONTINUOUS
10
3.70403
20
-5.17686
11
3.70472
21
-5.17657
0
LINE
8
BLACK
6
CONTINUOUS
10
3.70472
20
-5.17657
11
3.99606
21
-5.17657
0
LINE
8
BLACK
6
CONTINUOUS
10
3.99606
20
-5.17657
11
3.99676
21
-5.17686
0
LINE
8
BLACK
6
CONTINUOUS
10
3.99676
20
-5.17686
11
3.99705
21
-5.17756
0
LINE
8
BLACK
6
CONTINUOUS
10
3.99705
20
-5.17756
11
3.99705
21
-5.53819
0
LINE
8
BLACK
6
CONTINUOUS
10
3.99705
20
-5.53819
11
3.99676
21
-5.53888
0
LINE
8
BLACK
6
CONTINUOUS
10
3.99676
20
-5.53888
11
3.99606
21
-5.53917
0
LINE
8
BLACK
6
CONTINUOUS
10
3.99606
20
-5.53917
11
3.70472
21
-5.53917
0
LINE
8
BLACK
6
CONTINUOUS
10
3.70472
20
-5.53917
11
3.70403
21
-5.53888
0
LINE
8
BLACK
6
CONTINUOUS
10
3.70571
20
-5.17854
11
3.70571
21
-5.5372
0
LINE
8
BLACK
6
CONTINUOUS
10
3.70571
20
-5.5372
11
3.99508
21
-5.5372
0
LINE
8
BLACK
6
CONTINUOUS
10
3.99508
20
-5.5372
11
3.99508
21
-5.17854
0
LINE
8
BLACK
6
CONTINUOUS
10
3.99508
20
-5.17854
11
3.70571
21
-5.17854
0
LINE
8
BLACK
6
CONTINUOUS
10
4.48767
20
-5.4904
11
4.48738
21
-5.4897
0
LINE
8
BLACK
6
CONTINUOUS
10
4.48738
20
-5.4897
11
4.48738
21
-5.4149
0
LINE
8
BLACK
6
CONTINUOUS
10
4.48738
20
-5.4149
11
4.48767
21
-5.41421
0
LINE
8
BLACK
6
CONTINUOUS
10
4.48767
20
-5.41421
11
4.48837
21
-5.41392
0
LINE
8
BLACK
6
CONTINUOUS
10
4.48837
20
-5.41392
11
4.62065
21
-5.41392
0
LINE
8
BLACK
6
CONTINUOUS
10
4.62065
20
-5.41392
11
4.62135
21
-5.41421
0
LINE
8
BLACK
6
CONTINUOUS
10
4.62135
20
-5.41421
11
4.62163
21
-5.4149
0
LINE
8
BLACK
6
CONTINUOUS
10
4.62163
20
-5.4149
11
4.62163
21
-5.4897
0
LINE
8
BLACK
6
CONTINUOUS
10
4.62163
20
-5.4897
11
4.62135
21
-5.4904
0
LINE
8
BLACK
6
CONTINUOUS
10
4.62135
20
-5.4904
11
4.62065
21
-5.49069
0
LINE
8
BLACK
6
CONTINUOUS
10
4.62065
20
-5.49069
11
4.48837
21
-5.49069
0
LINE
8
BLACK
6
CONTINUOUS
10
4.48837
20
-5.49069
11
4.48767
21
-5.4904
0
LINE
8
BLACK
6
CONTINUOUS
10
4.48935
20
-5.41589
11
4.48935
21
-5.48872
0
LINE
8
BLACK
6
CONTINUOUS
10
4.48935
20
-5.48872
11
4.61967
21
-5.48872
0
LINE
8
BLACK
6
CONTINUOUS
10
4.61967
20
-5.48872
11
4.61967
21
-5.41589
0
LINE
8
BLACK
6
CONTINUOUS
10
4.61967
20
-5.41589
11
4.48935
21
-5.41589
0
LINE
8
BLACK
6
CONTINUOUS
10
3.03804
20
-5.22144
11
3.03776
21
-5.22075
0
LINE
8
BLACK
6
CONTINUOUS
10
3.03776
20
-5.22075
11
3.03776
21
-5.16327
0
LINE
8
BLACK
6
CONTINUOUS
10
3.03776
20
-5.16327
11
3.03804
21
-5.16257
0
LINE
8
BLACK
6
CONTINUOUS
10
3.03804
20
-5.16257
11
3.03874
21
-5.16228
0
LINE
8
BLACK
6
CONTINUOUS
10
3.03874
20
-5.16228
11
3.15528
21
-5.16228
0
LINE
8
BLACK
6
CONTINUOUS
10
3.15528
20
-5.16228
11
3.15597
21
-5.16257
0
LINE
8
BLACK
6
CONTINUOUS
10
3.15597
20
-5.16257
11
3.15626
21
-5.16327
0
LINE
8
BLACK
6
CONTINUOUS
10
3.15626
20
-5.16327
11
3.15626
21
-5.22075
0
LINE
8
BLACK
6
CONTINUOUS
10
3.15626
20
-5.22075
11
3.15597
21
-5.22144
0
LINE
8
BLACK
6
CONTINUOUS
10
3.15597
20
-5.22144
11
3.15528
21
-5.22173
0
LINE
8
BLACK
6
CONTINUOUS
10
3.15528
20
-5.22173
11
3.03874
21
-5.22173
0
LINE
8
BLACK
6
CONTINUOUS
10
3.03874
20
-5.22173
11
3.03804
21
-5.22144
0
LINE
8
BLACK
6
CONTINUOUS
10
3.03972
20
-5.16425
11
3.03972
21
-5.21976
0
LINE
8
BLACK
6
CONTINUOUS
10
3.03972
20
-5.21976
11
3.15429
21
-5.21976
0
LINE
8
BLACK
6
CONTINUOUS
10
3.15429
20
-5.21976
11
3.15429
21
-5.16425
0
LINE
8
BLACK
6
CONTINUOUS
10
3.15429
20
-5.16425
11
3.03972
21
-5.16425
0
LINE
8
BLACK
6
CONTINUOUS
10
4.43173
20
-4.71858
11
4.43173
21
-4.99417
0
LINE
8
BLACK
6
CONTINUOUS
10
4.43173
20
-4.99417
11
4.43144
21
-4.99487
0
LINE
8
BLACK
6
CONTINUOUS
10
4.43144
20
-4.99487
11
4.43075
21
-4.99516
0
LINE
8
BLACK
6
CONTINUOUS
10
4.43075
20
-4.99516
11
4.27327
21
-4.99516
0
LINE
8
BLACK
6
CONTINUOUS
10
4.27327
20
-4.99516
11
4.27257
21
-4.99487
0
LINE
8
BLACK
6
CONTINUOUS
10
4.27257
20
-4.99487
11
4.27228
21
-4.99417
0
LINE
8
BLACK
6
CONTINUOUS
10
4.27228
20
-4.99417
11
4.27228
21
-4.89959
0
LINE
8
BLACK
6
CONTINUOUS
10
4.27228
20
-4.89959
11
3.99652
21
-5.17535
0
LINE
8
BLACK
6
CONTINUOUS
10
3.99652
20
-5.17535
11
3.99583
21
-5.17563
0
LINE
8
BLACK
6
CONTINUOUS
10
3.99583
20
-5.17563
11
3.99513
21
-5.17535
0
LINE
8
BLACK
6
CONTINUOUS
10
3.99513
20
-5.17535
11
3.70004
21
-4.88025
0
LINE
8
BLACK
6
CONTINUOUS
10
3.70004
20
-4.88025
11
3.69975
21
-4.87956
0
LINE
8
BLACK
6
CONTINUOUS
10
3.69975
20
-4.87956
11
3.70004
21
-4.87886
0
LINE
8
BLACK
6
CONTINUOUS
10
3.70004
20
-4.87886
11
3.99513
21
-4.58377
0
LINE
8
BLACK
6
CONTINUOUS
10
3.99513
20
-4.58377
11
3.99583
21
-4.58348
0
LINE
8
BLACK
6
CONTINUOUS
10
3.99583
20
-4.58348
11
3.99652
21
-4.58377
0
LINE
8
BLACK
6
CONTINUOUS
10
3.99652
20
-4.58377
11
4.27228
21
-4.85953
0
LINE
8
BLACK
6
CONTINUOUS
10
4.27228
20
-4.85953
11
4.27228
21
-4.71858
0
LINE
8
BLACK
6
CONTINUOUS
10
4.27228
20
-4.71858
11
4.27257
21
-4.71789
0
LINE
8
BLACK
6
CONTINUOUS
10
4.27257
20
-4.71789
11
4.27327
21
-4.7176
0
LINE
8
BLACK
6
CONTINUOUS
10
4.27327
20
-4.7176
11
4.43075
21
-4.7176
0
LINE
8
BLACK
6
CONTINUOUS
10
4.43075
20
-4.7176
11
4.43144
21
-4.71789
0
LINE
8
BLACK
6
CONTINUOUS
10
4.43144
20
-4.71789
11
4.43173
21
-4.71858
0
LINE
8
BLACK
6
CONTINUOUS
10
3.70213
20
-4.87956
11
3.99583
21
-5.17326
0
LINE
8
BLACK
6
CONTINUOUS
10
3.99583
20
-5.17326
11
4.27228
21
-4.8968
0
LINE
8
BLACK
6
CONTINUOUS
10
4.27228
20
-4.8968
11
4.27228
21
-4.86231
0
LINE
8
BLACK
6
CONTINUOUS
10
4.27228
20
-4.86231
11
3.99583
21
-4.58586
0
LINE
8
BLACK
6
CONTINUOUS
10
3.99583
20
-4.58586
11
3.70213
21
-4.87956
0
LINE
8
BLACK
6
CONTINUOUS
10
4.27425
20
-4.71957
11
4.27425
21
-4.8615
0
LINE
8
BLACK
6
CONTINUOUS
10
4.27425
20
-4.8615
11
4.29162
21
-4.87886
0
LINE
8
BLACK
6
CONTINUOUS
10
4.29162
20
-4.87886
11
4.2919
21
-4.87956
0
LINE
8
BLACK
6
CONTINUOUS
10
4.2919
20
-4.87956
11
4.29162
21
-4.88025
0
LINE
8
BLACK
6
CONTINUOUS
10
4.29162
20
-4.88025
11
4.27425
21
-4.89762
0
LINE
8
BLACK
6
CONTINUOUS
10
4.27425
20
-4.89762
11
4.27425
21
-4.99319
0
LINE
8
BLACK
6
CONTINUOUS
10
4.27425
20
-4.99319
11
4.42976
21
-4.99319
0
LINE
8
BLACK
6
CONTINUOUS
10
4.42976
20
-4.99319
11
4.42976
21
-4.71957
0
LINE
8
BLACK
6
CONTINUOUS
10
4.42976
20
-4.71957
11
4.27425
21
-4.71957
0
LINE
8
BLACK
6
CONTINUOUS
10
4.27425
20
-4.89483
11
4.28953
21
-4.87956
0
LINE
8
BLACK
6
CONTINUOUS
10
4.28953
20
-4.87956
11
4.27425
21
-4.86428
0
LINE
8
BLACK
6
CONTINUOUS
10
4.27425
20
-4.86428
11
4.27425
21
-4.89483
0
LINE
8
BLACK
6
CONTINUOUS
10
4.81007
20
-5.13627
11
4.80978
21
-5.13557
0
LINE
8
BLACK
6
CONTINUOUS
10
4.80978
20
-5.13557
11
4.80978
21
-5.01904
0
LINE
8
BLACK
6
CONTINUOUS
10
4.80978
20
-5.01904
11
4.81007
21
-5.01834
0
LINE
8
BLACK
6
CONTINUOUS
10
4.81007
20
-5.01834
11
4.81077
21
-5.01805
0
LINE
8
BLACK
6
CONTINUOUS
10
4.81077
20
-5.01805
11
4.86825
21
-5.01805
0
LINE
8
BLACK
6
CONTINUOUS
10
4.86825
20
-5.01805
11
4.86894
21
-5.01834
0
LINE
8
BLACK
6
CONTINUOUS
10
4.86894
20
-5.01834
11
4.86923
21
-5.01904
0
LINE
8
BLACK
6
CONTINUOUS
10
4.86923
20
-5.01904
11
4.86923
21
-5.13557
0
LINE
8
BLACK
6
CONTINUOUS
10
4.86923
20
-5.13557
11
4.86894
21
-5.13627
0
LINE
8
BLACK
6
CONTINUOUS
10
4.86894
20
-5.13627
11
4.86825
21
-5.13656
0
LINE
8
BLACK
6
CONTINUOUS
10
4.86825
20
-5.13656
11
4.81077
21
-5.13656
0
LINE
8
BLACK
6
CONTINUOUS
10
4.81077
20
-5.13656
11
4.81007
21
-5.13627
0
LINE
8
BLACK
6
CONTINUOUS
10
4.81175
20
-5.02002
11
4.81175
21
-5.13459
0
LINE
8
BLACK
6
CONTINUOUS
10
4.81175
20
-5.13459
11
4.86726
21
-5.13459
0
LINE
8
BLACK
6
CONTINUOUS
10
4.86726
20
-5.13459
11
4.86726
21
-5.02002
0
LINE
8
BLACK
6
CONTINUOUS
10
4.86726
20
-5.02002
11
4.81175
21
-5.02002
0
LINE
8
BLACK
6
CONTINUOUS
10
4.75007
20
-5.13627
11
4.74978
21
-5.13557
0
LINE
8
BLACK
6
CONTINUOUS
10
4.74978
20
-5.13557
11
4.74978
21
-5.01904
0
LINE
8
BLACK
6
CONTINUOUS
10
4.74978
20
-5.01904
11
4.75007
21
-5.01834
0
LINE
8
BLACK
6
CONTINUOUS
10
4.75007
20
-5.01834
11
4.75077
21
-5.01805
0
LINE
8
BLACK
6
CONTINUOUS
10
4.75077
20
-5.01805
11
4.80825
21
-5.01805
0
LINE
8
BLACK
6
CONTINUOUS
10
4.80825
20
-5.01805
11
4.80894
21
-5.01834
0
LINE
8
BLACK
6
CONTINUOUS
10
4.80894
20
-5.01834
11
4.80923
21
-5.01904
0
LINE
8
BLACK
6
CONTINUOUS
10
4.80923
20
-5.01904
11
4.80923
21
-5.13557
0
LINE
8
BLACK
6
CONTINUOUS
10
4.80923
20
-5.13557
11
4.80894
21
-5.13627
0
LINE
8
BLACK
6
CONTINUOUS
10
4.80894
20
-5.13627
11
4.80825
21
-5.13656
0
LINE
8
BLACK
6
CONTINUOUS
10
4.80825
20
-5.13656
11
4.75077
21
-5.13656
0
LINE
8
BLACK
6
CONTINUOUS
10
4.75077
20
-5.13656
11
4.75007
21
-5.13627
0
LINE
8
BLACK
6
CONTINUOUS
10
4.75175
20
-5.02002
11
4.75175
21
-5.13459
0
LINE
8
BLACK
6
CONTINUOUS
10
4.75175
20
-5.13459
11
4.80726
21
-5.13459
0
LINE
8
BLACK
6
CONTINUOUS
10
4.80726
20
-5.13459
11
4.80726
21
-5.02002
0
LINE
8
BLACK
6
CONTINUOUS
10
4.80726
20
-5.02002
11
4.75175
21
-5.02002
0
LINE
8
BLACK
6
CONTINUOUS
10
4.45865
20
-5.10148
11
4.45837
21
-5.10079
0
LINE
8
BLACK
6
CONTINUOUS
10
4.45837
20
-5.10079
11
4.45837
21
-5.04331
0
LINE
8
BLACK
6
CONTINUOUS
10
4.45837
20
-5.04331
11
4.45865
21
-5.04261
0
LINE
8
BLACK
6
CONTINUOUS
10
4.45865
20
-5.04261
11
4.45935
21
-5.04232
0
LINE
8
BLACK
6
CONTINUOUS
10
4.45935
20
-5.04232
11
4.57589
21
-5.04232
0
LINE
8
BLACK
6
CONTINUOUS
10
4.57589
20
-5.04232
11
4.57658
21
-5.04261
0
LINE
8
BLACK
6
CONTINUOUS
10
4.57658
20
-5.04261
11
4.57687
21
-5.04331
0
LINE
8
BLACK
6
CONTINUOUS
10
4.57687
20
-5.04331
11
4.57687
21
-5.10079
0
LINE
8
BLACK
6
CONTINUOUS
10
4.57687
20
-5.10079
11
4.57658
21
-5.10148
0
LINE
8
BLACK
6
CONTINUOUS
10
4.57658
20
-5.10148
11
4.57589
21
-5.10177
0
LINE
8
BLACK
6
CONTINUOUS
10
4.57589
20
-5.10177
11
4.45935
21
-5.10177
0
LINE
8
BLACK
6
CONTINUOUS
10
4.45935
20
-5.10177
11
4.45865
21
-5.10148
0
LINE
8
BLACK
6
CONTINUOUS
10
4.46033
20
-5.04429
11
4.46033
21
-5.0998
0
LINE
8
BLACK
6
CONTINUOUS
10
4.46033
20
-5.0998
11
4.5749
21
-5.0998
0
LINE
8
BLACK
6
CONTINUOUS
10
4.5749
20
-5.0998
11
4.5749
21
-5.04429
0
LINE
8
BLACK
6
CONTINUOUS
10
4.5749
20
-5.04429
11
4.46033
21
-5.04429
0
LINE
8
BLACK
6
CONTINUOUS
10
4.49458
20
-5.00621
11
4.49429
21
-5.00551
0
LINE
8
BLACK
6
CONTINUOUS
10
4.49429
20
-5.00551
11
4.49429
21
-4.5811
0
LINE
8
BLACK
6
CONTINUOUS
10
4.49429
20
-4.5811
11
4.49458
21
-4.58041
0
LINE
8
BLACK
6
CONTINUOUS
10
4.49458
20
-4.58041
11
4.49528
21
-4.58012
0
LINE
8
BLACK
6
CONTINUOUS
10
4.49528
20
-4.58012
11
4.95197
21
-4.58012
0
LINE
8
BLACK
6
CONTINUOUS
10
4.95197
20
-4.58012
11
4.95266
21
-4.58041
0
LINE
8
BLACK
6
CONTINUOUS
10
4.95266
20
-4.58041
11
4.95295
21
-4.5811
0
LINE
8
BLACK
6
CONTINUOUS
10
4.95295
20
-4.5811
11
4.95295
21
-5.00551
0
LINE
8
BLACK
6
CONTINUOUS
10
4.95295
20
-5.00551
11
4.95266
21
-5.00621
0
LINE
8
BLACK
6
CONTINUOUS
10
4.95266
20
-5.00621
11
4.95197
21
-5.0065
0
LINE
8
BLACK
6
CONTINUOUS
10
4.95197
20
-5.0065
11
4.49528
21
-5.0065
0
LINE
8
BLACK
6
CONTINUOUS
10
4.49528
20
-5.0065
11
4.49458
21
-5.00621
0
LINE
8
BLACK
6
CONTINUOUS
10
4.49626
20
-4.58209
11
4.49626
21
-5.00453
0
LINE
8
BLACK
6
CONTINUOUS
10
4.49626
20
-5.00453
11
4.95098
21
-5.00453
0
LINE
8
BLACK
6
CONTINUOUS
10
4.95098
20
-5.00453
11
4.95098
21
-4.58209
0
LINE
8
BLACK
6
CONTINUOUS
10
4.95098
20
-4.58209
11
4.49626
21
-4.58209
0
LINE
8
BLACK
6
CONTINUOUS
10
3.02757
20
-4.96597
11
3.02728
21
-4.96528
0
LINE
8
BLACK
6
CONTINUOUS
10
3.02728
20
-4.96528
11
3.02728
21
-4.84874
0
LINE
8
BLACK
6
CONTINUOUS
10
3.02728
20
-4.84874
11
3.02757
21
-4.84804
0
LINE
8
BLACK
6
CONTINUOUS
10
3.02757
20
-4.84804
11
3.02827
21
-4.84776
0
LINE
8
BLACK
6
CONTINUOUS
10
3.02827
20
-4.84776
11
3.08575
21
-4.84776
0
LINE
8
BLACK
6
CONTINUOUS
10
3.08575
20
-4.84776
11
3.08644
21
-4.84804
0
LINE
8
BLACK
6
CONTINUOUS
10
3.08644
20
-4.84804
11
3.08673
21
-4.84874
0
LINE
8
BLACK
6
CONTINUOUS
10
3.08673
20
-4.84874
11
3.08673
21
-4.96528
0
LINE
8
BLACK
6
CONTINUOUS
10
3.08673
20
-4.96528
11
3.08644
21
-4.96597
0
LINE
8
BLACK
6
CONTINUOUS
10
3.08644
20
-4.96597
11
3.08575
21
-4.96626
0
LINE
8
BLACK
6
CONTINUOUS
10
3.08575
20
-4.96626
11
3.02827
21
-4.96626
0
LINE
8
BLACK
6
CONTINUOUS
10
3.02827
20
-4.96626
11
3.02757
21
-4.96597
0
LINE
8
BLACK
6
CONTINUOUS
10
3.02925
20
-4.84972
11
3.02925
21
-4.96429
0
LINE
8
BLACK
6
CONTINUOUS
10
3.02925
20
-4.96429
11
3.08476
21
-4.96429
0
LINE
8
BLACK
6
CONTINUOUS
10
3.08476
20
-4.96429
11
3.08476
21
-4.84972
0
LINE
8
BLACK
6
CONTINUOUS
10
3.08476
20
-4.84972
11
3.02925
21
-4.84972
0
LINE
8
BLACK
6
CONTINUOUS
10
3.02804
20
-4.83644
11
3.02776
21
-4.83575
0
LINE
8
BLACK
6
CONTINUOUS
10
3.02776
20
-4.83575
11
3.02776
21
-4.77827
0
LINE
8
BLACK
6
CONTINUOUS
10
3.02776
20
-4.77827
11
3.02804
21
-4.77757
0
LINE
8
BLACK
6
CONTINUOUS
10
3.02804
20
-4.77757
11
3.02874
21
-4.77728
0
LINE
8
BLACK
6
CONTINUOUS
10
3.02874
20
-4.77728
11
3.14528
21
-4.77728
0
LINE
8
BLACK
6
CONTINUOUS
10
3.14528
20
-4.77728
11
3.14597
21
-4.77757
0
LINE
8
BLACK
6
CONTINUOUS
10
3.14597
20
-4.77757
11
3.14626
21
-4.77827
0
LINE
8
BLACK
6
CONTINUOUS
10
3.14626
20
-4.77827
11
3.14626
21
-4.83575
0
LINE
8
BLACK
6
CONTINUOUS
10
3.14626
20
-4.83575
11
3.14597
21
-4.83644
0
LINE
8
BLACK
6
CONTINUOUS
10
3.14597
20
-4.83644
11
3.14528
21
-4.83673
0
LINE
8
BLACK
6
CONTINUOUS
10
3.14528
20
-4.83673
11
3.02874
21
-4.83673
0
LINE
8
BLACK
6
CONTINUOUS
10
3.02874
20
-4.83673
11
3.02804
21
-4.83644
0
LINE
8
BLACK
6
CONTINUOUS
10
3.02972
20
-4.77925
11
3.02972
21
-4.83476
0
LINE
8
BLACK
6
CONTINUOUS
10
3.02972
20
-4.83476
11
3.14429
21
-4.83476
0
LINE
8
BLACK
6
CONTINUOUS
10
3.14429
20
-4.83476
11
3.14429
21
-4.77925
0
LINE
8
BLACK
6
CONTINUOUS
10
3.14429
20
-4.77925
11
3.02972
21
-4.77925
0
LINE
8
BLACK
6
CONTINUOUS
10
3.0282
20
-4.75857
11
3.02791
21
-4.75787
0
LINE
8
BLACK
6
CONTINUOUS
10
3.02791
20
-4.75787
11
3.02791
21
-4.61614
0
LINE
8
BLACK
6
CONTINUOUS
10
3.02791
20
-4.61614
11
3.0282
21
-4.61545
0
LINE
8
BLACK
6
CONTINUOUS
10
3.0282
20
-4.61545
11
3.0289
21
-4.61516
0
LINE
8
BLACK
6
CONTINUOUS
10
3.0289
20
-4.61516
11
3.1785
21
-4.61516
0
LINE
8
BLACK
6
CONTINUOUS
10
3.1785
20
-4.61516
11
3.1792
21
-4.61545
0
LINE
8
BLACK
6
CONTINUOUS
10
3.1792
20
-4.61545
11
3.17949
21
-4.61614
0
LINE
8
BLACK
6
CONTINUOUS
10
3.17949
20
-4.61614
11
3.17949
21
-4.75787
0
LINE
8
BLACK
6
CONTINUOUS
10
3.17949
20
-4.75787
11
3.1792
21
-4.75857
0
LINE
8
BLACK
6
CONTINUOUS
10
3.1792
20
-4.75857
11
3.1785
21
-4.75886
0
LINE
8
BLACK
6
CONTINUOUS
10
3.1785
20
-4.75886
11
3.0289
21
-4.75886
0
LINE
8
BLACK
6
CONTINUOUS
10
3.0289
20
-4.75886
11
3.0282
21
-4.75857
0
LINE
8
BLACK
6
CONTINUOUS
10
3.02988
20
-4.61713
11
3.02988
21
-4.75689
0
LINE
8
BLACK
6
CONTINUOUS
10
3.02988
20
-4.75689
11
3.17752
21
-4.75689
0
LINE
8
BLACK
6
CONTINUOUS
10
3.17752
20
-4.75689
11
3.17752
21
-4.61713
0
LINE
8
BLACK
6
CONTINUOUS
10
3.17752
20
-4.61713
11
3.02988
21
-4.61713
0
LINE
8
BLACK
6
CONTINUOUS
10
4.12804
20
-4.69144
11
4.12776
21
-4.69075
0
LINE
8
BLACK
6
CONTINUOUS
10
4.12776
20
-4.69075
11
4.12776
21
-4.63327
0
LINE
8
BLACK
6
CONTINUOUS
10
4.12776
20
-4.63327
11
4.12804
21
-4.63257
0
LINE
8
BLACK
6
CONTINUOUS
10
4.12804
20
-4.63257
11
4.12874
21
-4.63228
0
LINE
8
BLACK
6
CONTINUOUS
10
4.12874
20
-4.63228
11
4.24528
21
-4.63228
0
LINE
8
BLACK
6
CONTINUOUS
10
4.24528
20
-4.63228
11
4.24597
21
-4.63257
0
LINE
8
BLACK
6
CONTINUOUS
10
4.24597
20
-4.63257
11
4.24626
21
-4.63327
0
LINE
8
BLACK
6
CONTINUOUS
10
4.24626
20
-4.63327
11
4.24626
21
-4.69075
0
LINE
8
BLACK
6
CONTINUOUS
10
4.24626
20
-4.69075
11
4.24597
21
-4.69144
0
LINE
8
BLACK
6
CONTINUOUS
10
4.24597
20
-4.69144
11
4.24528
21
-4.69173
0
LINE
8
BLACK
6
CONTINUOUS
10
4.24528
20
-4.69173
11
4.12874
21
-4.69173
0
LINE
8
BLACK
6
CONTINUOUS
10
4.12874
20
-4.69173
11
4.12804
21
-4.69144
0
LINE
8
BLACK
6
CONTINUOUS
10
4.12972
20
-4.63425
11
4.12972
21
-4.68976
0
LINE
8
BLACK
6
CONTINUOUS
10
4.12972
20
-4.68976
11
4.24429
21
-4.68976
0
LINE
8
BLACK
6
CONTINUOUS
10
4.24429
20
-4.68976
11
4.24429
21
-4.63425
0
LINE
8
BLACK
6
CONTINUOUS
10
4.24429
20
-4.63425
11
4.12972
21
-4.63425
0
LINE
8
BLACK
6
CONTINUOUS
10
4.27704
20
-4.66844
11
4.27676
21
-4.66775
0
LINE
8
BLACK
6
CONTINUOUS
10
4.27676
20
-4.66775
11
4.27676
21
-4.61027
0
LINE
8
BLACK
6
CONTINUOUS
10
4.27676
20
-4.61027
11
4.27704
21
-4.60957
0
LINE
8
BLACK
6
CONTINUOUS
10
4.27704
20
-4.60957
11
4.27774
21
-4.60928
0
LINE
8
BLACK
6
CONTINUOUS
10
4.27774
20
-4.60928
11
4.39428
21
-4.60928
0
LINE
8
BLACK
6
CONTINUOUS
10
4.39428
20
-4.60928
11
4.39497
21
-4.60957
0
LINE
8
BLACK
6
CONTINUOUS
10
4.39497
20
-4.60957
11
4.39526
21
-4.61027
0
LINE
8
BLACK
6
CONTINUOUS
10
4.39526
20
-4.61027
11
4.39526
21
-4.66775
0
LINE
8
BLACK
6
CONTINUOUS
10
4.39526
20
-4.66775
11
4.39497
21
-4.66844
0
LINE
8
BLACK
6
CONTINUOUS
10
4.39497
20
-4.66844
11
4.39428
21
-4.66873
0
LINE
8
BLACK
6
CONTINUOUS
10
4.39428
20
-4.66873
11
4.27774
21
-4.66873
0
LINE
8
BLACK
6
CONTINUOUS
10
4.27774
20
-4.66873
11
4.27704
21
-4.66844
0
LINE
8
BLACK
6
CONTINUOUS
10
4.27872
20
-4.61125
11
4.27872
21
-4.66676
0
LINE
8
BLACK
6
CONTINUOUS
10
4.27872
20
-4.66676
11
4.39329
21
-4.66676
0
LINE
8
BLACK
6
CONTINUOUS
10
4.39329
20
-4.66676
11
4.39329
21
-4.61125
0
LINE
8
BLACK
6
CONTINUOUS
10
4.39329
20
-4.61125
11
4.27872
21
-4.61125
0
LINE
8
BLACK
6
CONTINUOUS
10
3.75155
20
-4.66144
11
3.75126
21
-4.66075
0
LINE
8
BLACK
6
CONTINUOUS
10
3.75126
20
-4.66075
11
3.75126
21
-4.60327
0
LINE
8
BLACK
6
CONTINUOUS
10
3.75126
20
-4.60327
11
3.75155
21
-4.60257
0
LINE
8
BLACK
6
CONTINUOUS
10
3.75155
20
-4.60257
11
3.75224
21
-4.60228
0
LINE
8
BLACK
6
CONTINUOUS
10
3.75224
20
-4.60228
11
3.86878
21
-4.60228
0
LINE
8
BLACK
6
CONTINUOUS
10
3.86878
20
-4.60228
11
3.86948
21
-4.60257
0
LINE
8
BLACK
6
CONTINUOUS
10
3.86948
20
-4.60257
11
3.86976
21
-4.60327
0
LINE
8
BLACK
6
CONTINUOUS
10
3.86976
20
-4.60327
11
3.86976
21
-4.66075
0
LINE
8
BLACK
6
CONTINUOUS
10
3.86976
20
-4.66075
11
3.86948
21
-4.66144
0
LINE
8
BLACK
6
CONTINUOUS
10
3.86948
20
-4.66144
11
3.86878
21
-4.66173
0
LINE
8
BLACK
6
CONTINUOUS
10
3.86878
20
-4.66173
11
3.75224
21
-4.66173
0
LINE
8
BLACK
6
CONTINUOUS
10
3.75224
20
-4.66173
11
3.75155
21
-4.66144
0
LINE
8
BLACK
6
CONTINUOUS
10
3.75323
20
-4.60425
11
3.75323
21
-4.65976
0
LINE
8
BLACK
6
CONTINUOUS
10
3.75323
20
-4.65976
11
3.8678
21
-4.65976
0
LINE
8
BLACK
6
CONTINUOUS
10
3.8678
20
-4.65976
11
3.8678
21
-4.60425
0
LINE
8
BLACK
6
CONTINUOUS
10
3.8678
20
-4.60425
11
3.75323
21
-4.60425
0
LINE
8
BLACK
6
CONTINUOUS
10
3.50054
20
-4.64144
11
3.50026
21
-4.64075
0
LINE
8
BLACK
6
CONTINUOUS
10
3.50026
20
-4.64075
11
3.50026
21
-4.58327
0
LINE
8
BLACK
6
CONTINUOUS
10
3.50026
20
-4.58327
11
3.50054
21
-4.58257
0
LINE
8
BLACK
6
CONTINUOUS
10
3.50054
20
-4.58257
11
3.50124
21
-4.58228
0
LINE
8
BLACK
6
CONTINUOUS
10
3.50124
20
-4.58228
11
3.61778
21
-4.58228
0
LINE
8
BLACK
6
CONTINUOUS
10
3.61778
20
-4.58228
11
3.61847
21
-4.58257
0
LINE
8
BLACK
6
CONTINUOUS
10
3.61847
20
-4.58257
11
3.61876
21
-4.58327
0
LINE
8
BLACK
6
CONTINUOUS
10
3.61876
20
-4.58327
11
3.61876
21
-4.64075
0
LINE
8
BLACK
6
CONTINUOUS
10
3.61876
20
-4.64075
11
3.61847
21
-4.64144
0
LINE
8
BLACK
6
CONTINUOUS
10
3.61847
20
-4.64144
11
3.61778
21
-4.64173
0
LINE
8
BLACK
6
CONTINUOUS
10
3.61778
20
-4.64173
11
3.50124
21
-4.64173
0
LINE
8
BLACK
6
CONTINUOUS
10
3.50124
20
-4.64173
11
3.50054
21
-4.64144
0
LINE
8
BLACK
6
CONTINUOUS
10
3.50222
20
-4.58425
11
3.50222
21
-4.63976
0
LINE
8
BLACK
6
CONTINUOUS
10
3.50222
20
-4.63976
11
3.61679
21
-4.63976
0
LINE
8
BLACK
6
CONTINUOUS
10
3.61679
20
-4.63976
11
3.61679
21
-4.58425
0
LINE
8
BLACK
6
CONTINUOUS
10
3.61679
20
-4.58425
11
3.50222
21
-4.58425
0
LINE
8
BLACK
6
CONTINUOUS
10
3.106
20
-4.58337
11
3.10571
21
-4.58268
0
LINE
8
BLACK
6
CONTINUOUS
10
3.10571
20
-4.58268
11
3.10571
21
-4.29134
0
LINE
8
BLACK
6
CONTINUOUS
10
3.10571
20
-4.29134
11
3.106
21
-4.29064
0
LINE
8
BLACK
6
CONTINUOUS
10
3.106
20
-4.29064
11
3.10669
21
-4.29035
0
LINE
8
BLACK
6
CONTINUOUS
10
3.10669
20
-4.29035
11
3.46732
21
-4.29035
0
LINE
8
BLACK
6
CONTINUOUS
10
3.46732
20
-4.29035
11
3.46802
21
-4.29064
0
LINE
8
BLACK
6
CONTINUOUS
10
3.46802
20
-4.29064
11
3.46831
21
-4.29134
0
LINE
8
BLACK
6
CONTINUOUS
10
3.46831
20
-4.29134
11
3.46831
21
-4.58268
0
LINE
8
BLACK
6
CONTINUOUS
10
3.46831
20
-4.58268
11
3.46802
21
-4.58337
0
LINE
8
BLACK
6
CONTINUOUS
10
3.46802
20
-4.58337
11
3.46732
21
-4.58366
0
LINE
8
BLACK
6
CONTINUOUS
10
3.46732
20
-4.58366
11
3.10669
21
-4.58366
0
LINE
8
BLACK
6
CONTINUOUS
10
3.10669
20
-4.58366
11
3.106
21
-4.58337
0
LINE
8
BLACK
6
CONTINUOUS
10
3.10768
20
-4.29232
11
3.10768
21
-4.58169
0
LINE
8
BLACK
6
CONTINUOUS
10
3.10768
20
-4.58169
11
3.46634
21
-4.58169
0
LINE
8
BLACK
6
CONTINUOUS
10
3.46634
20
-4.58169
11
3.46634
21
-4.29232
0
LINE
8
BLACK
6
CONTINUOUS
10
3.46634
20
-4.29232
11
3.10768
21
-4.29232
0
LINE
8
BLACK
6
CONTINUOUS
10
3.576
20
-4.58081
11
3.57571
21
-4.58012
0
LINE
8
BLACK
6
CONTINUOUS
10
3.57571
20
-4.58012
11
3.57571
21
-4.28878
0
LINE
8
BLACK
6
CONTINUOUS
10
3.57571
20
-4.28878
11
3.576
21
-4.28808
0
LINE
8
BLACK
6
CONTINUOUS
10
3.576
20
-4.28808
11
3.57669
21
-4.2878
0
LINE
8
BLACK
6
CONTINUOUS
10
3.57669
20
-4.2878
11
3.93732
21
-4.2878
0
LINE
8
BLACK
6
CONTINUOUS
10
3.93732
20
-4.2878
11
3.93802
21
-4.28808
0
LINE
8
BLACK
6
CONTINUOUS
10
3.93802
20
-4.28808
11
3.93831
21
-4.28878
0
LINE
8
BLACK
6
CONTINUOUS
10
3.93831
20
-4.28878
11
3.93831
21
-4.58012
0
LINE
8
BLACK
6
CONTINUOUS
10
3.93831
20
-4.58012
11
3.93802
21
-4.58081
0
LINE
8
BLACK
6
CONTINUOUS
10
3.93802
20
-4.58081
11
3.93732
21
-4.5811
0
LINE
8
BLACK
6
CONTINUOUS
10
3.93732
20
-4.5811
11
3.57669
21
-4.5811
0
LINE
8
BLACK
6
CONTINUOUS
10
3.57669
20
-4.5811
11
3.576
21
-4.58081
0
LINE
8
BLACK
6
CONTINUOUS
10
3.57768
20
-4.28976
11
3.57768
21
-4.57913
0
LINE
8
BLACK
6
CONTINUOUS
10
3.57768
20
-4.57913
11
3.93634
21
-4.57913
0
LINE
8
BLACK
6
CONTINUOUS
10
3.93634
20
-4.57913
11
3.93634
21
-4.28976
0
LINE
8
BLACK
6
CONTINUOUS
10
3.93634
20
-4.28976
11
3.57768
21
-4.28976
0
LINE
8
BLACK
6
CONTINUOUS
10
4.01659
20
-4.58081
11
4.0163
21
-4.58012
0
LINE
8
BLACK
6
CONTINUOUS
10
4.0163
20
-4.58012
11
4.0163
21
-4.28878
0
LINE
8
BLACK
6
CONTINUOUS
10
4.0163
20
-4.28878
11
4.01659
21
-4.28808
0
LINE
8
BLACK
6
CONTINUOUS
10
4.01659
20
-4.28808
11
4.01728
21
-4.2878
0
LINE
8
BLACK
6
CONTINUOUS
10
4.01728
20
-4.2878
11
4.42673
21
-4.2878
0
LINE
8
BLACK
6
CONTINUOUS
10
4.42673
20
-4.2878
11
4.42743
21
-4.28808
0
LINE
8
BLACK
6
CONTINUOUS
10
4.42743
20
-4.28808
11
4.42772
21
-4.28878
0
LINE
8
BLACK
6
CONTINUOUS
10
4.42772
20
-4.28878
11
4.42772
21
-4.58012
0
LINE
8
BLACK
6
CONTINUOUS
10
4.42772
20
-4.58012
11
4.42743
21
-4.58081
0
LINE
8
BLACK
6
CONTINUOUS
10
4.42743
20
-4.58081
11
4.42673
21
-4.5811
0
LINE
8
BLACK
6
CONTINUOUS
10
4.42673
20
-4.5811
11
4.01728
21
-4.5811
0
LINE
8
BLACK
6
CONTINUOUS
10
4.01728
20
-4.5811
11
4.01659
21
-4.58081
0
LINE
8
BLACK
6
CONTINUOUS
10
4.01827
20
-4.28976
11
4.01827
21
-4.57913
0
LINE
8
BLACK
6
CONTINUOUS
10
4.01827
20
-4.57913
11
4.42575
21
-4.57913
0
LINE
8
BLACK
6
CONTINUOUS
10
4.42575
20
-4.57913
11
4.42575
21
-4.28976
0
LINE
8
BLACK
6
CONTINUOUS
10
4.42575
20
-4.28976
11
4.01827
21
-4.28976
0
LINE
8
BLACK
6
CONTINUOUS
10
3.49757
20
-4.56597
11
3.49728
21
-4.56528
0
LINE
8
BLACK
6
CONTINUOUS
10
3.49728
20
-4.56528
11
3.49728
21
-4.44874
0
LINE
8
BLACK
6
CONTINUOUS
10
3.49728
20
-4.44874
11
3.49757
21
-4.44804
0
LINE
8
BLACK
6
CONTINUOUS
10
3.49757
20
-4.44804
11
3.49827
21
-4.44776
0
LINE
8
BLACK
6
CONTINUOUS
10
3.49827
20
-4.44776
11
3.55575
21
-4.44776
0
LINE
8
BLACK
6
CONTINUOUS
10
3.55575
20
-4.44776
11
3.55644
21
-4.44804
0
LINE
8
BLACK
6
CONTINUOUS
10
3.55644
20
-4.44804
11
3.55673
21
-4.44874
0
LINE
8
BLACK
6
CONTINUOUS
10
3.55673
20
-4.44874
11
3.55673
21
-4.56528
0
LINE
8
BLACK
6
CONTINUOUS
10
3.55673
20
-4.56528
11
3.55644
21
-4.56597
0
LINE
8
BLACK
6
CONTINUOUS
10
3.55644
20
-4.56597
11
3.55575
21
-4.56626
0
LINE
8
BLACK
6
CONTINUOUS
10
3.55575
20
-4.56626
11
3.49827
21
-4.56626
0
LINE
8
BLACK
6
CONTINUOUS
10
3.49827
20
-4.56626
11
3.49757
21
-4.56597
0
LINE
8
BLACK
6
CONTINUOUS
10
3.49925
20
-4.44972
11
3.49925
21
-4.56429
0
LINE
8
BLACK
6
CONTINUOUS
10
3.49925
20
-4.56429
11
3.55476
21
-4.56429
0
LINE
8
BLACK
6
CONTINUOUS
10
3.55476
20
-4.56429
11
3.55476
21
-4.44972
0
LINE
8
BLACK
6
CONTINUOUS
10
3.55476
20
-4.44972
11
3.49925
21
-4.44972
0
LINE
8
BLACK
6
CONTINUOUS
10
4.50915
20
-4.54164
11
4.50886
21
-4.54094
0
LINE
8
BLACK
6
CONTINUOUS
10
4.50886
20
-4.54094
11
4.50886
21
-4.45276
0
LINE
8
BLACK
6
CONTINUOUS
10
4.50886
20
-4.45276
11
4.50915
21
-4.45206
0
LINE
8
BLACK
6
CONTINUOUS
10
4.50915
20
-4.45206
11
4.50984
21
-4.45177
0
LINE
8
BLACK
6
CONTINUOUS
10
4.50984
20
-4.45177
11
4.68937
21
-4.45177
0
LINE
8
BLACK
6
CONTINUOUS
10
4.68937
20
-4.45177
11
4.69007
21
-4.45206
0
LINE
8
BLACK
6
CONTINUOUS
10
4.69007
20
-4.45206
11
4.69035
21
-4.45276
0
LINE
8
BLACK
6
CONTINUOUS
10
4.69035
20
-4.45276
11
4.69035
21
-4.54094
0
LINE
8
BLACK
6
CONTINUOUS
10
4.69035
20
-4.54094
11
4.69007
21
-4.54164
0
LINE
8
BLACK
6
CONTINUOUS
10
4.69007
20
-4.54164
11
4.68937
21
-4.54193
0
LINE
8
BLACK
6
CONTINUOUS
10
4.68937
20
-4.54193
11
4.50984
21
-4.54193
0
LINE
8
BLACK
6
CONTINUOUS
10
4.50984
20
-4.54193
11
4.50915
21
-4.54164
0
LINE
8
BLACK
6
CONTINUOUS
10
4.51083
20
-4.45374
11
4.51083
21
-4.53996
0
LINE
8
BLACK
6
CONTINUOUS
10
4.51083
20
-4.53996
11
4.68839
21
-4.53996
0
LINE
8
BLACK
6
CONTINUOUS
10
4.68839
20
-4.53996
11
4.68839
21
-4.45374
0
LINE
8
BLACK
6
CONTINUOUS
10
4.68839
20
-4.45374
11
4.51083
21
-4.45374
0
LINE
8
BLACK
6
CONTINUOUS
10
4.70482
20
-4.54085
11
4.70453
21
-4.54016
0
LINE
8
BLACK
6
CONTINUOUS
10
4.70453
20
-4.54016
11
4.70453
21
-4.39843
0
LINE
8
BLACK
6
CONTINUOUS
10
4.70453
20
-4.39843
11
4.70482
21
-4.39773
0
LINE
8
BLACK
6
CONTINUOUS
10
4.70482
20
-4.39773
11
4.70551
21
-4.39744
0
LINE
8
BLACK
6
CONTINUOUS
10
4.70551
20
-4.39744
11
4.85512
21
-4.39744
0
LINE
8
BLACK
6
CONTINUOUS
10
4.85512
20
-4.39744
11
4.85581
21
-4.39773
0
LINE
8
BLACK
6
CONTINUOUS
10
4.85581
20
-4.39773
11
4.8561
21
-4.39843
0
LINE
8
BLACK
6
CONTINUOUS
10
4.8561
20
-4.39843
11
4.8561
21
-4.54016
0
LINE
8
BLACK
6
CONTINUOUS
10
4.8561
20
-4.54016
11
4.85581
21
-4.54085
0
LINE
8
BLACK
6
CONTINUOUS
10
4.85581
20
-4.54085
11
4.85512
21
-4.54114
0
LINE
8
BLACK
6
CONTINUOUS
10
4.85512
20
-4.54114
11
4.70551
21
-4.54114
0
LINE
8
BLACK
6
CONTINUOUS
10
4.70551
20
-4.54114
11
4.70482
21
-4.54085
0
LINE
8
BLACK
6
CONTINUOUS
10
4.7065
20
-4.39941
11
4.7065
21
-4.53917
0
LINE
8
BLACK
6
CONTINUOUS
10
4.7065
20
-4.53917
11
4.85413
21
-4.53917
0
LINE
8
BLACK
6
CONTINUOUS
10
4.85413
20
-4.53917
11
4.85413
21
-4.39941
0
LINE
8
BLACK
6
CONTINUOUS
10
4.85413
20
-4.39941
11
4.7065
21
-4.39941
0
LINE
8
BLACK
6
CONTINUOUS
10
3.95088
20
-4.5314
11
3.95059
21
-4.53071
0
LINE
8
BLACK
6
CONTINUOUS
10
3.95059
20
-4.53071
11
3.95059
21
-4.41417
0
LINE
8
BLACK
6
CONTINUOUS
10
3.95059
20
-4.41417
11
3.95088
21
-4.41348
0
LINE
8
BLACK
6
CONTINUOUS
10
3.95088
20
-4.41348
11
3.95157
21
-4.41319
0
LINE
8
BLACK
6
CONTINUOUS
10
3.95157
20
-4.41319
11
4.00906
21
-4.41319
0
LINE
8
BLACK
6
CONTINUOUS
10
4.00906
20
-4.41319
11
4.00975
21
-4.41348
0
LINE
8
BLACK
6
CONTINUOUS
10
4.00975
20
-4.41348
11
4.01004
21
-4.41417
0
LINE
8
BLACK
6
CONTINUOUS
10
4.01004
20
-4.41417
11
4.01004
21
-4.53071
0
LINE
8
BLACK
6
CONTINUOUS
10
4.01004
20
-4.53071
11
4.00975
21
-4.5314
0
LINE
8
BLACK
6
CONTINUOUS
10
4.00975
20
-4.5314
11
4.00906
21
-4.53169
0
LINE
8
BLACK
6
CONTINUOUS
10
4.00906
20
-4.53169
11
3.95157
21
-4.53169
0
LINE
8
BLACK
6
CONTINUOUS
10
3.95157
20
-4.53169
11
3.95088
21
-4.5314
0
LINE
8
BLACK
6
CONTINUOUS
10
3.95256
20
-4.41516
11
3.95256
21
-4.52972
0
LINE
8
BLACK
6
CONTINUOUS
10
3.95256
20
-4.52972
11
4.00807
21
-4.52972
0
LINE
8
BLACK
6
CONTINUOUS
10
4.00807
20
-4.52972
11
4.00807
21
-4.41516
0
LINE
8
BLACK
6
CONTINUOUS
10
4.00807
20
-4.41516
11
3.95256
21
-4.41516
0
LINE
8
BLACK
6
CONTINUOUS
10
3.02757
20
-4.49597
11
3.02728
21
-4.49528
0
LINE
8
BLACK
6
CONTINUOUS
10
3.02728
20
-4.49528
11
3.02728
21
-4.37874
0
LINE
8
BLACK
6
CONTINUOUS
10
3.02728
20
-4.37874
11
3.02757
21
-4.37804
0
LINE
8
BLACK
6
CONTINUOUS
10
3.02757
20
-4.37804
11
3.02827
21
-4.37776
0
LINE
8
BLACK
6
CONTINUOUS
10
3.02827
20
-4.37776
11
3.08575
21
-4.37776
0
LINE
8
BLACK
6
CONTINUOUS
10
3.08575
20
-4.37776
11
3.08644
21
-4.37804
0
LINE
8
BLACK
6
CONTINUOUS
10
3.08644
20
-4.37804
11
3.08673
21
-4.37874
0
LINE
8
BLACK
6
CONTINUOUS
10
3.08673
20
-4.37874
11
3.08673
21
-4.49528
0
LINE
8
BLACK
6
CONTINUOUS
10
3.08673
20
-4.49528
11
3.08644
21
-4.49597
0
LINE
8
BLACK
6
CONTINUOUS
10
3.08644
20
-4.49597
11
3.08575
21
-4.49626
0
LINE
8
BLACK
6
CONTINUOUS
10
3.08575
20
-4.49626
11
3.02827
21
-4.49626
0
LINE
8
BLACK
6
CONTINUOUS
10
3.02827
20
-4.49626
11
3.02757
21
-4.49597
0
LINE
8
BLACK
6
CONTINUOUS
10
3.02925
20
-4.37972
11
3.02925
21
-4.49429
0
LINE
8
BLACK
6
CONTINUOUS
10
3.02925
20
-4.49429
11
3.08476
21
-4.49429
0
LINE
8
BLACK
6
CONTINUOUS
10
3.08476
20
-4.49429
11
3.08476
21
-4.37972
0
LINE
8
BLACK
6
CONTINUOUS
10
3.08476
20
-4.37972
11
3.02925
21
-4.37972
0
LINE
8
BLACK
6
CONTINUOUS
10
4.45804
20
-4.42644
11
4.45776
21
-4.42575
0
LINE
8
BLACK
6
CONTINUOUS
10
4.45776
20
-4.42575
11
4.45776
21
-4.36827
0
LINE
8
BLACK
6
CONTINUOUS
10
4.45776
20
-4.36827
11
4.45804
21
-4.36757
0
LINE
8
BLACK
6
CONTINUOUS
10
4.45804
20
-4.36757
11
4.45874
21
-4.36728
0
LINE
8
BLACK
6
CONTINUOUS
10
4.45874
20
-4.36728
11
4.57528
21
-4.36728
0
LINE
8
BLACK
6
CONTINUOUS
10
4.57528
20
-4.36728
11
4.57597
21
-4.36757
0
LINE
8
BLACK
6
CONTINUOUS
10
4.57597
20
-4.36757
11
4.57626
21
-4.36827
0
LINE
8
BLACK
6
CONTINUOUS
10
4.57626
20
-4.36827
11
4.57626
21
-4.42575
0
LINE
8
BLACK
6
CONTINUOUS
10
4.57626
20
-4.42575
11
4.57597
21
-4.42644
0
LINE
8
BLACK
6
CONTINUOUS
10
4.57597
20
-4.42644
11
4.57528
21
-4.42673
0
LINE
8
BLACK
6
CONTINUOUS
10
4.57528
20
-4.42673
11
4.45874
21
-4.42673
0
LINE
8
BLACK
6
CONTINUOUS
10
4.45874
20
-4.42673
11
4.45804
21
-4.42644
0
LINE
8
BLACK
6
CONTINUOUS
10
4.45972
20
-4.36925
11
4.45972
21
-4.42476
0
LINE
8
BLACK
6
CONTINUOUS
10
4.45972
20
-4.42476
11
4.57429
21
-4.42476
0
LINE
8
BLACK
6
CONTINUOUS
10
4.57429
20
-4.42476
11
4.57429
21
-4.36925
0
LINE
8
BLACK
6
CONTINUOUS
10
4.57429
20
-4.36925
11
4.45972
21
-4.36925
0
LINE
8
BLACK
6
CONTINUOUS
10
3.49757
20
-4.42597
11
3.49728
21
-4.42528
0
LINE
8
BLACK
6
CONTINUOUS
10
3.49728
20
-4.42528
11
3.49728
21
-4.30874
0
LINE
8
BLACK
6
CONTINUOUS
10
3.49728
20
-4.30874
11
3.49757
21
-4.30804
0
LINE
8
BLACK
6
CONTINUOUS
10
3.49757
20
-4.30804
11
3.49827
21
-4.30776
0
LINE
8
BLACK
6
CONTINUOUS
10
3.49827
20
-4.30776
11
3.55575
21
-4.30776
0
LINE
8
BLACK
6
CONTINUOUS
10
3.55575
20
-4.30776
11
3.55644
21
-4.30804
0
LINE
8
BLACK
6
CONTINUOUS
10
3.55644
20
-4.30804
11
3.55673
21
-4.30874
0
LINE
8
BLACK
6
CONTINUOUS
10
3.55673
20
-4.30874
11
3.55673
21
-4.42528
0
LINE
8
BLACK
6
CONTINUOUS
10
3.55673
20
-4.42528
11
3.55644
21
-4.42597
0
LINE
8
BLACK
6
CONTINUOUS
10
3.55644
20
-4.42597
11
3.55575
21
-4.42626
0
LINE
8
BLACK
6
CONTINUOUS
10
3.55575
20
-4.42626
11
3.49827
21
-4.42626
0
LINE
8
BLACK
6
CONTINUOUS
10
3.49827
20
-4.42626
11
3.49757
21
-4.42597
0
LINE
8
BLACK
6
CONTINUOUS
10
3.49925
20
-4.30972
11
3.49925
21
-4.42429
0
LINE
8
BLACK
6
CONTINUOUS
10
3.49925
20
-4.42429
11
3.55476
21
-4.42429
0
LINE
8
BLACK
6
CONTINUOUS
10
3.55476
20
-4.42429
11
3.55476
21
-4.30972
0
LINE
8
BLACK
6
CONTINUOUS
10
3.55476
20
-4.30972
11
3.49925
21
-4.30972
0
LINE
8
BLACK
6
CONTINUOUS
10
4.58757
20
-4.41597
11
4.58728
21
-4.41528
0
LINE
8
BLACK
6
CONTINUOUS
10
4.58728
20
-4.41528
11
4.58728
21
-4.29874
0
LINE
8
BLACK
6
CONTINUOUS
10
4.58728
20
-4.29874
11
4.58757
21
-4.29804
0
LINE
8
BLACK
6
CONTINUOUS
10
4.58757
20
-4.29804
11
4.58827
21
-4.29776
0
LINE
8
BLACK
6
CONTINUOUS
10
4.58827
20
-4.29776
11
4.64575
21
-4.29776
0
LINE
8
BLACK
6
CONTINUOUS
10
4.64575
20
-4.29776
11
4.64644
21
-4.29804
0
LINE
8
BLACK
6
CONTINUOUS
10
4.64644
20
-4.29804
11
4.64673
21
-4.29874
0
LINE
8
BLACK
6
CONTINUOUS
10
4.64673
20
-4.29874
11
4.64673
21
-4.41528
0
LINE
8
BLACK
6
CONTINUOUS
10
4.64673
20
-4.41528
11
4.64644
21
-4.41597
0
LINE
8
BLACK
6
CONTINUOUS
10
4.64644
20
-4.41597
11
4.64575
21
-4.41626
0
LINE
8
BLACK
6
CONTINUOUS
10
4.64575
20
-4.41626
11
4.58827
21
-4.41626
0
LINE
8
BLACK
6
CONTINUOUS
10
4.58827
20
-4.41626
11
4.58757
21
-4.41597
0
LINE
8
BLACK
6
CONTINUOUS
10
4.58925
20
-4.29972
11
4.58925
21
-4.41429
0
LINE
8
BLACK
6
CONTINUOUS
10
4.58925
20
-4.41429
11
4.64476
21
-4.41429
0
LINE
8
BLACK
6
CONTINUOUS
10
4.64476
20
-4.41429
11
4.64476
21
-4.29972
0
LINE
8
BLACK
6
CONTINUOUS
10
4.64476
20
-4.29972
11
4.58925
21
-4.29972
0
LINE
8
BLACK
6
CONTINUOUS
10
3.95007
20
-4.40847
11
3.94978
21
-4.40778
0
LINE
8
BLACK
6
CONTINUOUS
10
3.94978
20
-4.40778
11
3.94978
21
-4.29124
0
LINE
8
BLACK
6
CONTINUOUS
10
3.94978
20
-4.29124
11
3.95007
21
-4.29054
0
LINE
8
BLACK
6
CONTINUOUS
10
3.95007
20
-4.29054
11
3.95077
21
-4.29026
0
LINE
8
BLACK
6
CONTINUOUS
10
3.95077
20
-4.29026
11
4.00825
21
-4.29026
0
LINE
8
BLACK
6
CONTINUOUS
10
4.00825
20
-4.29026
11
4.00894
21
-4.29054
0
LINE
8
BLACK
6
CONTINUOUS
10
4.00894
20
-4.29054
11
4.00923
21
-4.29124
0
LINE
8
BLACK
6
CONTINUOUS
10
4.00923
20
-4.29124
11
4.00923
21
-4.40778
0
LINE
8
BLACK
6
CONTINUOUS
10
4.00923
20
-4.40778
11
4.00894
21
-4.40847
0
LINE
8
BLACK
6
CONTINUOUS
10
4.00894
20
-4.40847
11
4.00825
21
-4.40876
0
LINE
8
BLACK
6
CONTINUOUS
10
4.00825
20
-4.40876
11
3.95077
21
-4.40876
0
LINE
8
BLACK
6
CONTINUOUS
10
3.95077
20
-4.40876
11
3.95007
21
-4.40847
0
LINE
8
BLACK
6
CONTINUOUS
10
3.95175
20
-4.29222
11
3.95175
21
-4.40679
0
LINE
8
BLACK
6
CONTINUOUS
10
3.95175
20
-4.40679
11
4.00726
21
-4.40679
0
LINE
8
BLACK
6
CONTINUOUS
10
4.00726
20
-4.40679
11
4.00726
21
-4.29222
0
LINE
8
BLACK
6
CONTINUOUS
10
4.00726
20
-4.29222
11
3.95175
21
-4.29222
0
LINE
8
BLACK
6
CONTINUOUS
10
4.71304
20
-4.38944
11
4.71275
21
-4.38875
0
LINE
8
BLACK
6
CONTINUOUS
10
4.71275
20
-4.38875
11
4.71275
21
-4.33127
0
LINE
8
BLACK
6
CONTINUOUS
10
4.71275
20
-4.33127
11
4.71304
21
-4.33057
0
LINE
8
BLACK
6
CONTINUOUS
10
4.71304
20
-4.33057
11
4.71374
21
-4.33028
0
LINE
8
BLACK
6
CONTINUOUS
10
4.71374
20
-4.33028
11
4.83027
21
-4.33028
0
LINE
8
BLACK
6
CONTINUOUS
10
4.83027
20
-4.33028
11
4.83097
21
-4.33057
0
LINE
8
BLACK
6
CONTINUOUS
10
4.83097
20
-4.33057
11
4.83126
21
-4.33127
0
LINE
8
BLACK
6
CONTINUOUS
10
4.83126
20
-4.33127
11
4.83126
21
-4.38875
0
LINE
8
BLACK
6
CONTINUOUS
10
4.83126
20
-4.38875
11
4.83097
21
-4.38944
0
LINE
8
BLACK
6
CONTINUOUS
10
4.83097
20
-4.38944
11
4.83027
21
-4.38973
0
LINE
8
BLACK
6
CONTINUOUS
10
4.83027
20
-4.38973
11
4.71374
21
-4.38973
0
LINE
8
BLACK
6
CONTINUOUS
10
4.71374
20
-4.38973
11
4.71304
21
-4.38944
0
LINE
8
BLACK
6
CONTINUOUS
10
4.71472
20
-4.33225
11
4.71472
21
-4.38776
0
LINE
8
BLACK
6
CONTINUOUS
10
4.71472
20
-4.38776
11
4.82929
21
-4.38776
0
LINE
8
BLACK
6
CONTINUOUS
10
4.82929
20
-4.38776
11
4.82929
21
-4.33225
0
LINE
8
BLACK
6
CONTINUOUS
10
4.82929
20
-4.33225
11
4.71472
21
-4.33225
0
LINE
8
BLACK
6
CONTINUOUS
10
4.45804
20
-4.35644
11
4.45776
21
-4.35575
0
LINE
8
BLACK
6
CONTINUOUS
10
4.45776
20
-4.35575
11
4.45776
21
-4.29827
0
LINE
8
BLACK
6
CONTINUOUS
10
4.45776
20
-4.29827
11
4.45804
21
-4.29757
0
LINE
8
BLACK
6
CONTINUOUS
10
4.45804
20
-4.29757
11
4.45874
21
-4.29728
0
LINE
8
BLACK
6
CONTINUOUS
10
4.45874
20
-4.29728
11
4.57528
21
-4.29728
0
LINE
8
BLACK
6
CONTINUOUS
10
4.57528
20
-4.29728
11
4.57597
21
-4.29757
0
LINE
8
BLACK
6
CONTINUOUS
10
4.57597
20
-4.29757
11
4.57626
21
-4.29827
0
LINE
8
BLACK
6
CONTINUOUS
10
4.57626
20
-4.29827
11
4.57626
21
-4.35575
0
LINE
8
BLACK
6
CONTINUOUS
10
4.57626
20
-4.35575
11
4.57597
21
-4.35644
0
LINE
8
BLACK
6
CONTINUOUS
10
4.57597
20
-4.35644
11
4.57528
21
-4.35673
0
LINE
8
BLACK
6
CONTINUOUS
10
4.57528
20
-4.35673
11
4.45874
21
-4.35673
0
LINE
8
BLACK
6
CONTINUOUS
10
4.45874
20
-4.35673
11
4.45804
21
-4.35644
0
LINE
8
BLACK
6
CONTINUOUS
10
4.45972
20
-4.29925
11
4.45972
21
-4.35476
0
LINE
8
BLACK
6
CONTINUOUS
10
4.45972
20
-4.35476
11
4.57429
21
-4.35476
0
LINE
8
BLACK
6
CONTINUOUS
10
4.57429
20
-4.35476
11
4.57429
21
-4.29925
0
LINE
8
BLACK
6
CONTINUOUS
10
4.57429
20
-4.29925
11
4.45972
21
-4.29925
0
LINE
8
BLACK
6
CONTINUOUS
10
3.83395
20
-4.23542
11
3.83366
21
-4.23472
0
LINE
8
BLACK
6
CONTINUOUS
10
3.83366
20
-4.23472
11
3.83366
21
-3.69929
0
LINE
8
BLACK
6
CONTINUOUS
10
3.83366
20
-3.69929
11
3.83395
21
-3.6986
0
LINE
8
BLACK
6
CONTINUOUS
10
3.83395
20
-3.6986
11
3.83465
21
-3.69831
0
LINE
8
BLACK
6
CONTINUOUS
10
3.83465
20
-3.69831
11
4.03937
21
-3.69831
0
LINE
8
BLACK
6
CONTINUOUS
10
4.03937
20
-3.69831
11
4.04007
21
-3.6986
0
LINE
8
BLACK
6
CONTINUOUS
10
4.04007
20
-3.6986
11
4.04035
21
-3.69929
0
LINE
8
BLACK
6
CONTINUOUS
10
4.04035
20
-3.69929
11
4.04035
21
-4.23472
0
LINE
8
BLACK
6
CONTINUOUS
10
4.04035
20
-4.23472
11
4.04007
21
-4.23542
0
LINE
8
BLACK
6
CONTINUOUS
10
4.04007
20
-4.23542
11
4.03937
21
-4.23571
0
LINE
8
BLACK
6
CONTINUOUS
10
4.03937
20
-4.23571
11
3.83465
21
-4.23571
0
LINE
8
BLACK
6
CONTINUOUS
10
3.83465
20
-4.23571
11
3.83395
21
-4.23542
0
LINE
8
BLACK
6
CONTINUOUS
10
3.83563
20
-3.70028
11
3.83563
21
-4.23374
0
LINE
8
BLACK
6
CONTINUOUS
10
3.83563
20
-4.23374
11
4.03839
21
-4.23374
0
LINE
8
BLACK
6
CONTINUOUS
10
4.03839
20
-4.23374
11
4.03839
21
-3.70028
0
LINE
8
BLACK
6
CONTINUOUS
10
4.03839
20
-3.70028
11
3.83563
21
-3.70028
0
LINE
8
BLACK
6
CONTINUOUS
10
3.76757
20
-4.02597
11
3.76728
21
-4.02528
0
LINE
8
BLACK
6
CONTINUOUS
10
3.76728
20
-4.02528
11
3.76728
21
-3.90874
0
LINE
8
BLACK
6
CONTINUOUS
10
3.76728
20
-3.90874
11
3.76757
21
-3.90804
0
LINE
8
BLACK
6
CONTINUOUS
10
3.76757
20
-3.90804
11
3.76827
21
-3.90776
0
LINE
8
BLACK
6
CONTINUOUS
10
3.76827
20
-3.90776
11
3.82575
21
-3.90776
0
LINE
8
BLACK
6
CONTINUOUS
10
3.82575
20
-3.90776
11
3.82644
21
-3.90804
0
LINE
8
BLACK
6
CONTINUOUS
10
3.82644
20
-3.90804
11
3.82673
21
-3.90874
0
LINE
8
BLACK
6
CONTINUOUS
10
3.82673
20
-3.90874
11
3.82673
21
-4.02528
0
LINE
8
BLACK
6
CONTINUOUS
10
3.82673
20
-4.02528
11
3.82644
21
-4.02597
0
LINE
8
BLACK
6
CONTINUOUS
10
3.82644
20
-4.02597
11
3.82575
21
-4.02626
0
LINE
8
BLACK
6
CONTINUOUS
10
3.82575
20
-4.02626
11
3.76827
21
-4.02626
0
LINE
8
BLACK
6
CONTINUOUS
10
3.76827
20
-4.02626
11
3.76757
21
-4.02597
0
LINE
8
BLACK
6
CONTINUOUS
10
3.76925
20
-3.90972
11
3.76925
21
-4.02429
0
LINE
8
BLACK
6
CONTINUOUS
10
3.76925
20
-4.02429
11
3.82476
21
-4.02429
0
LINE
8
BLACK
6
CONTINUOUS
10
3.82476
20
-4.02429
11
3.82476
21
-3.90972
0
LINE
8
BLACK
6
CONTINUOUS
10
3.82476
20
-3.90972
11
3.76925
21
-3.90972
0
LINE
8
BLACK
6
CONTINUOUS
10
4.04757
20
-4.02597
11
4.04728
21
-4.02528
0
LINE
8
BLACK
6
CONTINUOUS
10
4.04728
20
-4.02528
11
4.04728
21
-3.90874
0
LINE
8
BLACK
6
CONTINUOUS
10
4.04728
20
-3.90874
11
4.04757
21
-3.90804
0
LINE
8
BLACK
6
CONTINUOUS
10
4.04757
20
-3.90804
11
4.04827
21
-3.90776
0
LINE
8
BLACK
6
CONTINUOUS
10
4.04827
20
-3.90776
11
4.10575
21
-3.90776
0
LINE
8
BLACK
6
CONTINUOUS
10
4.10575
20
-3.90776
11
4.10644
21
-3.90804
0
LINE
8
BLACK
6
CONTINUOUS
10
4.10644
20
-3.90804
11
4.10673
21
-3.90874
0
LINE
8
BLACK
6
CONTINUOUS
10
4.10673
20
-3.90874
11
4.10673
21
-4.02528
0
LINE
8
BLACK
6
CONTINUOUS
10
4.10673
20
-4.02528
11
4.10644
21
-4.02597
0
LINE
8
BLACK
6
CONTINUOUS
10
4.10644
20
-4.02597
11
4.10575
21
-4.02626
0
LINE
8
BLACK
6
CONTINUOUS
10
4.10575
20
-4.02626
11
4.04827
21
-4.02626
0
LINE
8
BLACK
6
CONTINUOUS
10
4.04827
20
-4.02626
11
4.04757
21
-4.02597
0
LINE
8
BLACK
6
CONTINUOUS
10
4.04925
20
-3.90972
11
4.04925
21
-4.02429
0
LINE
8
BLACK
6
CONTINUOUS
10
4.04925
20
-4.02429
11
4.10476
21
-4.02429
0
LINE
8
BLACK
6
CONTINUOUS
10
4.10476
20
-4.02429
11
4.10476
21
-3.90972
0
LINE
8
BLACK
6
CONTINUOUS
10
4.10476
20
-3.90972
11
4.04925
21
-3.90972
0
LINE
8
BLACK
6
CONTINUOUS
10
4.64757
20
-3.70698
11
4.64728
21
-3.70628
0
LINE
8
BLACK
6
CONTINUOUS
10
4.64728
20
-3.70628
11
4.64728
21
-3.58974
0
LINE
8
BLACK
6
CONTINUOUS
10
4.64728
20
-3.58974
11
4.64757
21
-3.58905
0
LINE
8
BLACK
6
CONTINUOUS
10
4.64757
20
-3.58905
11
4.64827
21
-3.58876
0
LINE
8
BLACK
6
CONTINUOUS
10
4.64827
20
-3.58876
11
4.70575
21
-3.58876
0
LINE
8
BLACK
6
CONTINUOUS
10
4.70575
20
-3.58876
11
4.70644
21
-3.58905
0
LINE
8
BLACK
6
CONTINUOUS
10
4.70644
20
-3.58905
11
4.70673
21
-3.58974
0
LINE
8
BLACK
6
CONTINUOUS
10
4.70673
20
-3.58974
11
4.70673
21
-3.70628
0
LINE
8
BLACK
6
CONTINUOUS
10
4.70673
20
-3.70628
11
4.70644
21
-3.70698
0
LINE
8
BLACK
6
CONTINUOUS
10
4.70644
20
-3.70698
11
4.70575
21
-3.70726
0
LINE
8
BLACK
6
CONTINUOUS
10
4.70575
20
-3.70726
11
4.64827
21
-3.70726
0
LINE
8
BLACK
6
CONTINUOUS
10
4.64827
20
-3.70726
11
4.64757
21
-3.70698
0
LINE
8
BLACK
6
CONTINUOUS
10
4.64925
20
-3.59073
11
4.64925
21
-3.7053
0
LINE
8
BLACK
6
CONTINUOUS
10
4.64925
20
-3.7053
11
4.70476
21
-3.7053
0
LINE
8
BLACK
6
CONTINUOUS
10
4.70476
20
-3.7053
11
4.70476
21
-3.59073
0
LINE
8
BLACK
6
CONTINUOUS
10
4.70476
20
-3.59073
11
4.64925
21
-3.59073
0
LINE
8
BLACK
6
CONTINUOUS
10
3.16757
20
-3.68698
11
3.16728
21
-3.68628
0
LINE
8
BLACK
6
CONTINUOUS
10
3.16728
20
-3.68628
11
3.16728
21
-3.56974
0
LINE
8
BLACK
6
CONTINUOUS
10
3.16728
20
-3.56974
11
3.16757
21
-3.56905
0
LINE
8
BLACK
6
CONTINUOUS
10
3.16757
20
-3.56905
11
3.16827
21
-3.56876
0
LINE
8
BLACK
6
CONTINUOUS
10
3.16827
20
-3.56876
11
3.22575
21
-3.56876
0
LINE
8
BLACK
6
CONTINUOUS
10
3.22575
20
-3.56876
11
3.22644
21
-3.56905
0
LINE
8
BLACK
6
CONTINUOUS
10
3.22644
20
-3.56905
11
3.22673
21
-3.56974
0
LINE
8
BLACK
6
CONTINUOUS
10
3.22673
20
-3.56974
11
3.22673
21
-3.68628
0
LINE
8
BLACK
6
CONTINUOUS
10
3.22673
20
-3.68628
11
3.22644
21
-3.68698
0
LINE
8
BLACK
6
CONTINUOUS
10
3.22644
20
-3.68698
11
3.22575
21
-3.68726
0
LINE
8
BLACK
6
CONTINUOUS
10
3.22575
20
-3.68726
11
3.16827
21
-3.68726
0
LINE
8
BLACK
6
CONTINUOUS
10
3.16827
20
-3.68726
11
3.16757
21
-3.68698
0
LINE
8
BLACK
6
CONTINUOUS
10
3.16925
20
-3.57073
11
3.16925
21
-3.6853
0
LINE
8
BLACK
6
CONTINUOUS
10
3.16925
20
-3.6853
11
3.22476
21
-3.6853
0
LINE
8
BLACK
6
CONTINUOUS
10
3.22476
20
-3.6853
11
3.22476
21
-3.57073
0
LINE
8
BLACK
6
CONTINUOUS
10
3.22476
20
-3.57073
11
3.16925
21
-3.57073
0
LINE
8
BLACK
6
CONTINUOUS
10
3.79064
20
-3.65542
11
3.79035
21
-3.65472
0
LINE
8
BLACK
6
CONTINUOUS
10
3.79035
20
-3.65472
11
3.79035
21
-3.29409
0
LINE
8
BLACK
6
CONTINUOUS
10
3.79035
20
-3.29409
11
3.79064
21
-3.2934
0
LINE
8
BLACK
6
CONTINUOUS
10
3.79064
20
-3.2934
11
3.79134
21
-3.29311
0
LINE
8
BLACK
6
CONTINUOUS
10
3.79134
20
-3.29311
11
4.08268
21
-3.29311
0
LINE
8
BLACK
6
CONTINUOUS
10
4.08268
20
-3.29311
11
4.08337
21
-3.2934
0
LINE
8
BLACK
6
CONTINUOUS
10
4.08337
20
-3.2934
11
4.08366
21
-3.29409
0
LINE
8
BLACK
6
CONTINUOUS
10
4.08366
20
-3.29409
11
4.08366
21
-3.65472
0
LINE
8
BLACK
6
CONTINUOUS
10
4.08366
20
-3.65472
11
4.08337
21
-3.65542
0
LINE
8
BLACK
6
CONTINUOUS
10
4.08337
20
-3.65542
11
4.08268
21
-3.65571
0
LINE
8
BLACK
6
CONTINUOUS
10
4.08268
20
-3.65571
11
3.79134
21
-3.65571
0
LINE
8
BLACK
6
CONTINUOUS
10
3.79134
20
-3.65571
11
3.79064
21
-3.65542
0
LINE
8
BLACK
6
CONTINUOUS
10
3.79232
20
-3.29508
11
3.79232
21
-3.65374
0
LINE
8
BLACK
6
CONTINUOUS
10
3.79232
20
-3.65374
11
4.08169
21
-3.65374
0
LINE
8
BLACK
6
CONTINUOUS
10
4.08169
20
-3.65374
11
4.08169
21
-3.29508
0
LINE
8
BLACK
6
CONTINUOUS
10
4.08169
20
-3.29508
11
3.79232
21
-3.29508
0
LINE
8
BLACK
6
CONTINUOUS
10
4.34875
20
-3.61684
11
4.34846
21
-3.61614
0
LINE
8
BLACK
6
CONTINUOUS
10
4.34846
20
-3.61614
11
4.34846
21
-3.49016
0
LINE
8
BLACK
6
CONTINUOUS
10
4.34846
20
-3.49016
11
4.34875
21
-3.48946
0
LINE
8
BLACK
6
CONTINUOUS
10
4.34875
20
-3.48946
11
4.34945
21
-3.48917
0
LINE
8
BLACK
6
CONTINUOUS
10
4.34945
20
-3.48917
11
4.47937
21
-3.48917
0
LINE
8
BLACK
6
CONTINUOUS
10
4.47937
20
-3.48917
11
4.48007
21
-3.48946
0
LINE
8
BLACK
6
CONTINUOUS
10
4.48007
20
-3.48946
11
4.48035
21
-3.49016
0
LINE
8
BLACK
6
CONTINUOUS
10
4.48035
20
-3.49016
11
4.48035
21
-3.61614
0
LINE
8
BLACK
6
CONTINUOUS
10
4.48035
20
-3.61614
11
4.48007
21
-3.61684
0
LINE
8
BLACK
6
CONTINUOUS
10
4.48007
20
-3.61684
11
4.47937
21
-3.61713
0
LINE
8
BLACK
6
CONTINUOUS
10
4.47937
20
-3.61713
11
4.34945
21
-3.61713
0
LINE
8
BLACK
6
CONTINUOUS
10
4.34945
20
-3.61713
11
4.34875
21
-3.61684
0
LINE
8
BLACK
6
CONTINUOUS
10
4.35043
20
-3.49114
11
4.35043
21
-3.61516
0
LINE
8
BLACK
6
CONTINUOUS
10
4.35043
20
-3.61516
11
4.47839
21
-3.61516
0
LINE
8
BLACK
6
CONTINUOUS
10
4.47839
20
-3.61516
11
4.47839
21
-3.49114
0
LINE
8
BLACK
6
CONTINUOUS
10
4.47839
20
-3.49114
11
4.35043
21
-3.49114
0
LINE
8
BLACK
6
CONTINUOUS
10
3.54204
20
-3.61644
11
3.54175
21
-3.61575
0
LINE
8
BLACK
6
CONTINUOUS
10
3.54175
20
-3.61575
11
3.54175
21
-3.55827
0
LINE
8
BLACK
6
CONTINUOUS
10
3.54175
20
-3.55827
11
3.54204
21
-3.55757
0
LINE
8
BLACK
6
CONTINUOUS
10
3.54204
20
-3.55757
11
3.54274
21
-3.55728
0
LINE
8
BLACK
6
CONTINUOUS
10
3.54274
20
-3.55728
11
3.65927
21
-3.55728
0
LINE
8
BLACK
6
CONTINUOUS
10
3.65927
20
-3.55728
11
3.65997
21
-3.55757
0
LINE
8
BLACK
6
CONTINUOUS
10
3.65997
20
-3.55757
11
3.66026
21
-3.55827
0
LINE
8
BLACK
6
CONTINUOUS
10
3.66026
20
-3.55827
11
3.66026
21
-3.61575
0
LINE
8
BLACK
6
CONTINUOUS
10
3.66026
20
-3.61575
11
3.65997
21
-3.61644
0
LINE
8
BLACK
6
CONTINUOUS
10
3.65997
20
-3.61644
11
3.65927
21
-3.61673
0
LINE
8
BLACK
6
CONTINUOUS
10
3.65927
20
-3.61673
11
3.54274
21
-3.61673
0
LINE
8
BLACK
6
CONTINUOUS
10
3.54274
20
-3.61673
11
3.54204
21
-3.61644
0
LINE
8
BLACK
6
CONTINUOUS
10
3.54372
20
-3.55925
11
3.54372
21
-3.61476
0
LINE
8
BLACK
6
CONTINUOUS
10
3.54372
20
-3.61476
11
3.65829
21
-3.61476
0
LINE
8
BLACK
6
CONTINUOUS
10
3.65829
20
-3.61476
11
3.65829
21
-3.55925
0
LINE
8
BLACK
6
CONTINUOUS
10
3.65829
20
-3.55925
11
3.54372
21
-3.55925
0
LINE
8
BLACK
6
CONTINUOUS
10
4.21304
20
-3.61644
11
4.21276
21
-3.61575
0
LINE
8
BLACK
6
CONTINUOUS
10
4.21276
20
-3.61575
11
4.21276
21
-3.55827
0
LINE
8
BLACK
6
CONTINUOUS
10
4.21276
20
-3.55827
11
4.21304
21
-3.55757
0
LINE
8
BLACK
6
CONTINUOUS
10
4.21304
20
-3.55757
11
4.21374
21
-3.55728
0
LINE
8
BLACK
6
CONTINUOUS
10
4.21374
20
-3.55728
11
4.33028
21
-3.55728
0
LINE
8
BLACK
6
CONTINUOUS
10
4.33028
20
-3.55728
11
4.33097
21
-3.55757
0
LINE
8
BLACK
6
CONTINUOUS
10
4.33097
20
-3.55757
11
4.33126
21
-3.55827
0
LINE
8
BLACK
6
CONTINUOUS
10
4.33126
20
-3.55827
11
4.33126
21
-3.61575
0
LINE
8
BLACK
6
CONTINUOUS
10
4.33126
20
-3.61575
11
4.33097
21
-3.61644
0
LINE
8
BLACK
6
CONTINUOUS
10
4.33097
20
-3.61644
11
4.33028
21
-3.61673
0
LINE
8
BLACK
6
CONTINUOUS
10
4.33028
20
-3.61673
11
4.21374
21
-3.61673
0
LINE
8
BLACK
6
CONTINUOUS
10
4.21374
20
-3.61673
11
4.21304
21
-3.61644
0
LINE
8
BLACK
6
CONTINUOUS
10
4.21472
20
-3.55925
11
4.21472
21
-3.61476
0
LINE
8
BLACK
6
CONTINUOUS
10
4.21472
20
-3.61476
11
4.32929
21
-3.61476
0
LINE
8
BLACK
6
CONTINUOUS
10
4.32929
20
-3.61476
11
4.32929
21
-3.55925
0
LINE
8
BLACK
6
CONTINUOUS
10
4.32929
20
-3.55925
11
4.21472
21
-3.55925
0
LINE
8
BLACK
6
CONTINUOUS
10
3.39395
20
-3.6163
11
3.39366
21
-3.6156
0
LINE
8
BLACK
6
CONTINUOUS
10
3.39366
20
-3.6156
11
3.39366
21
-3.48962
0
LINE
8
BLACK
6
CONTINUOUS
10
3.39366
20
-3.48962
11
3.39395
21
-3.48892
0
LINE
8
BLACK
6
CONTINUOUS
10
3.39395
20
-3.48892
11
3.39465
21
-3.48863
0
LINE
8
BLACK
6
CONTINUOUS
10
3.39465
20
-3.48863
11
3.52457
21
-3.48863
0
LINE
8
BLACK
6
CONTINUOUS
10
3.52457
20
-3.48863
11
3.52526
21
-3.48892
0
LINE
8
BLACK
6
CONTINUOUS
10
3.52526
20
-3.48892
11
3.52555
21
-3.48962
0
LINE
8
BLACK
6
CONTINUOUS
10
3.52555
20
-3.48962
11
3.52555
21
-3.6156
0
LINE
8
BLACK
6
CONTINUOUS
10
3.52555
20
-3.6156
11
3.52526
21
-3.6163
0
LINE
8
BLACK
6
CONTINUOUS
10
3.52526
20
-3.6163
11
3.52457
21
-3.61658
0
LINE
8
BLACK
6
CONTINUOUS
10
3.52457
20
-3.61658
11
3.39465
21
-3.61658
0
LINE
8
BLACK
6
CONTINUOUS
10
3.39465
20
-3.61658
11
3.39395
21
-3.6163
0
LINE
8
BLACK
6
CONTINUOUS
10
3.39563
20
-3.4906
11
3.39563
21
-3.61462
0
LINE
8
BLACK
6
CONTINUOUS
10
3.39563
20
-3.61462
11
3.52358
21
-3.61462
0
LINE
8
BLACK
6
CONTINUOUS
10
3.52358
20
-3.61462
11
3.52358
21
-3.4906
0
LINE
8
BLACK
6
CONTINUOUS
10
3.52358
20
-3.4906
11
3.39563
21
-3.4906
0
LINE
8
BLACK
6
CONTINUOUS
10
4.57257
20
-3.61597
11
4.57228
21
-3.61528
0
LINE
8
BLACK
6
CONTINUOUS
10
4.57228
20
-3.61528
11
4.57228
21
-3.49874
0
LINE
8
BLACK
6
CONTINUOUS
10
4.57228
20
-3.49874
11
4.57257
21
-3.49804
0
LINE
8
BLACK
6
CONTINUOUS
10
4.57257
20
-3.49804
11
4.57327
21
-3.49776
0
LINE
8
BLACK
6
CONTINUOUS
10
4.57327
20
-3.49776
11
4.63075
21
-3.49776
0
LINE
8
BLACK
6
CONTINUOUS
10
4.63075
20
-3.49776
11
4.63144
21
-3.49804
0
LINE
8
BLACK
6
CONTINUOUS
10
4.63144
20
-3.49804
11
4.63173
21
-3.49874
0
LINE
8
BLACK
6
CONTINUOUS
10
4.63173
20
-3.49874
11
4.63173
21
-3.61528
0
LINE
8
BLACK
6
CONTINUOUS
10
4.63173
20
-3.61528
11
4.63144
21
-3.61597
0
LINE
8
BLACK
6
CONTINUOUS
10
4.63144
20
-3.61597
11
4.63075
21
-3.61626
0
LINE
8
BLACK
6
CONTINUOUS
10
4.63075
20
-3.61626
11
4.57327
21
-3.61626
0
LINE
8
BLACK
6
CONTINUOUS
10
4.57327
20
-3.61626
11
4.57257
21
-3.61597
0
LINE
8
BLACK
6
CONTINUOUS
10
4.57425
20
-3.49972
11
4.57425
21
-3.61429
0
LINE
8
BLACK
6
CONTINUOUS
10
4.57425
20
-3.61429
11
4.62976
21
-3.61429
0
LINE
8
BLACK
6
CONTINUOUS
10
4.62976
20
-3.61429
11
4.62976
21
-3.49972
0
LINE
8
BLACK
6
CONTINUOUS
10
4.62976
20
-3.49972
11
4.57425
21
-3.49972
0
LINE
8
BLACK
6
CONTINUOUS
10
4.49757
20
-3.61597
11
4.49728
21
-3.61528
0
LINE
8
BLACK
6
CONTINUOUS
10
4.49728
20
-3.61528
11
4.49728
21
-3.49874
0
LINE
8
BLACK
6
CONTINUOUS
10
4.49728
20
-3.49874
11
4.49757
21
-3.49804
0
LINE
8
BLACK
6
CONTINUOUS
10
4.49757
20
-3.49804
11
4.49827
21
-3.49776
0
LINE
8
BLACK
6
CONTINUOUS
10
4.49827
20
-3.49776
11
4.55575
21
-3.49776
0
LINE
8
BLACK
6
CONTINUOUS
10
4.55575
20
-3.49776
11
4.55644
21
-3.49804
0
LINE
8
BLACK
6
CONTINUOUS
10
4.55644
20
-3.49804
11
4.55673
21
-3.49874
0
LINE
8
BLACK
6
CONTINUOUS
10
4.55673
20
-3.49874
11
4.55673
21
-3.61528
0
LINE
8
BLACK
6
CONTINUOUS
10
4.55673
20
-3.61528
11
4.55644
21
-3.61597
0
LINE
8
BLACK
6
CONTINUOUS
10
4.55644
20
-3.61597
11
4.55575
21
-3.61626
0
LINE
8
BLACK
6
CONTINUOUS
10
4.55575
20
-3.61626
11
4.49827
21
-3.61626
0
LINE
8
BLACK
6
CONTINUOUS
10
4.49827
20
-3.61626
11
4.49757
21
-3.61597
0
LINE
8
BLACK
6
CONTINUOUS
10
4.49925
20
-3.49972
11
4.49925
21
-3.61429
0
LINE
8
BLACK
6
CONTINUOUS
10
4.49925
20
-3.61429
11
4.55476
21
-3.61429
0
LINE
8
BLACK
6
CONTINUOUS
10
4.55476
20
-3.61429
11
4.55476
21
-3.49972
0
LINE
8
BLACK
6
CONTINUOUS
10
4.55476
20
-3.49972
11
4.49925
21
-3.49972
0
LINE
8
BLACK
6
CONTINUOUS
10
3.67757
20
-3.61497
11
3.67728
21
-3.61427
0
LINE
8
BLACK
6
CONTINUOUS
10
3.67728
20
-3.61427
11
3.67728
21
-3.49774
0
LINE
8
BLACK
6
CONTINUOUS
10
3.67728
20
-3.49774
11
3.67757
21
-3.49704
0
LINE
8
BLACK
6
CONTINUOUS
10
3.67757
20
-3.49704
11
3.67827
21
-3.49675
0
LINE
8
BLACK
6
CONTINUOUS
10
3.67827
20
-3.49675
11
3.73575
21
-3.49675
0
LINE
8
BLACK
6
CONTINUOUS
10
3.73575
20
-3.49675
11
3.73644
21
-3.49704
0
LINE
8
BLACK
6
CONTINUOUS
10
3.73644
20
-3.49704
11
3.73673
21
-3.49774
0
LINE
8
BLACK
6
CONTINUOUS
10
3.73673
20
-3.49774
11
3.73673
21
-3.61427
0
LINE
8
BLACK
6
CONTINUOUS
10
3.73673
20
-3.61427
11
3.73644
21
-3.61497
0
LINE
8
BLACK
6
CONTINUOUS
10
3.73644
20
-3.61497
11
3.73575
21
-3.61526
0
LINE
8
BLACK
6
CONTINUOUS
10
3.73575
20
-3.61526
11
3.67827
21
-3.61526
0
LINE
8
BLACK
6
CONTINUOUS
10
3.67827
20
-3.61526
11
3.67757
21
-3.61497
0
LINE
8
BLACK
6
CONTINUOUS
10
3.67925
20
-3.49872
11
3.67925
21
-3.61329
0
LINE
8
BLACK
6
CONTINUOUS
10
3.67925
20
-3.61329
11
3.73476
21
-3.61329
0
LINE
8
BLACK
6
CONTINUOUS
10
3.73476
20
-3.61329
11
3.73476
21
-3.49872
0
LINE
8
BLACK
6
CONTINUOUS
10
3.73476
20
-3.49872
11
3.67925
21
-3.49872
0
LINE
8
BLACK
6
CONTINUOUS
10
3.31757
20
-3.61497
11
3.31728
21
-3.61427
0
LINE
8
BLACK
6
CONTINUOUS
10
3.31728
20
-3.61427
11
3.31728
21
-3.49774
0
LINE
8
BLACK
6
CONTINUOUS
10
3.31728
20
-3.49774
11
3.31757
21
-3.49704
0
LINE
8
BLACK
6
CONTINUOUS
10
3.31757
20
-3.49704
11
3.31827
21
-3.49675
0
LINE
8
BLACK
6
CONTINUOUS
10
3.31827
20
-3.49675
11
3.37575
21
-3.49675
0
LINE
8
BLACK
6
CONTINUOUS
10
3.37575
20
-3.49675
11
3.37644
21
-3.49704
0
LINE
8
BLACK
6
CONTINUOUS
10
3.37644
20
-3.49704
11
3.37673
21
-3.49774
0
LINE
8
BLACK
6
CONTINUOUS
10
3.37673
20
-3.49774
11
3.37673
21
-3.61427
0
LINE
8
BLACK
6
CONTINUOUS
10
3.37673
20
-3.61427
11
3.37644
21
-3.61497
0
LINE
8
BLACK
6
CONTINUOUS
10
3.37644
20
-3.61497
11
3.37575
21
-3.61526
0
LINE
8
BLACK
6
CONTINUOUS
10
3.37575
20
-3.61526
11
3.31827
21
-3.61526
0
LINE
8
BLACK
6
CONTINUOUS
10
3.31827
20
-3.61526
11
3.31757
21
-3.61497
0
LINE
8
BLACK
6
CONTINUOUS
10
3.31925
20
-3.49872
11
3.31925
21
-3.61329
0
LINE
8
BLACK
6
CONTINUOUS
10
3.31925
20
-3.61329
11
3.37476
21
-3.61329
0
LINE
8
BLACK
6
CONTINUOUS
10
3.37476
20
-3.61329
11
3.37476
21
-3.49872
0
LINE
8
BLACK
6
CONTINUOUS
10
3.37476
20
-3.49872
11
3.31925
21
-3.49872
0
LINE
8
BLACK
6
CONTINUOUS
10
3.24257
20
-3.61497
11
3.24228
21
-3.61427
0
LINE
8
BLACK
6
CONTINUOUS
10
3.24228
20
-3.61427
11
3.24228
21
-3.49774
0
LINE
8
BLACK
6
CONTINUOUS
10
3.24228
20
-3.49774
11
3.24257
21
-3.49704
0
LINE
8
BLACK
6
CONTINUOUS
10
3.24257
20
-3.49704
11
3.24327
21
-3.49675
0
LINE
8
BLACK
6
CONTINUOUS
10
3.24327
20
-3.49675
11
3.30075
21
-3.49675
0
LINE
8
BLACK
6
CONTINUOUS
10
3.30075
20
-3.49675
11
3.30144
21
-3.49704
0
LINE
8
BLACK
6
CONTINUOUS
10
3.30144
20
-3.49704
11
3.30173
21
-3.49774
0
LINE
8
BLACK
6
CONTINUOUS
10
3.30173
20
-3.49774
11
3.30173
21
-3.61427
0
LINE
8
BLACK
6
CONTINUOUS
10
3.30173
20
-3.61427
11
3.30144
21
-3.61497
0
LINE
8
BLACK
6
CONTINUOUS
10
3.30144
20
-3.61497
11
3.30075
21
-3.61526
0
LINE
8
BLACK
6
CONTINUOUS
10
3.30075
20
-3.61526
11
3.24327
21
-3.61526
0
LINE
8
BLACK
6
CONTINUOUS
10
3.24327
20
-3.61526
11
3.24257
21
-3.61497
0
LINE
8
BLACK
6
CONTINUOUS
10
3.24425
20
-3.49872
11
3.24425
21
-3.61329
0
LINE
8
BLACK
6
CONTINUOUS
10
3.24425
20
-3.61329
11
3.29976
21
-3.61329
0
LINE
8
BLACK
6
CONTINUOUS
10
3.29976
20
-3.61329
11
3.29976
21
-3.49872
0
LINE
8
BLACK
6
CONTINUOUS
10
3.29976
20
-3.49872
11
3.24425
21
-3.49872
0
LINE
8
BLACK
6
CONTINUOUS
10
4.13757
20
-3.61408
11
4.13728
21
-3.61339
0
LINE
8
BLACK
6
CONTINUOUS
10
4.13728
20
-3.61339
11
4.13728
21
-3.49685
0
LINE
8
BLACK
6
CONTINUOUS
10
4.13728
20
-3.49685
11
4.13757
21
-3.49615
0
LINE
8
BLACK
6
CONTINUOUS
10
4.13757
20
-3.49615
11
4.13827
21
-3.49587
0
LINE
8
BLACK
6
CONTINUOUS
10
4.13827
20
-3.49587
11
4.19575
21
-3.49587
0
LINE
8
BLACK
6
CONTINUOUS
10
4.19575
20
-3.49587
11
4.19644
21
-3.49615
0
LINE
8
BLACK
6
CONTINUOUS
10
4.19644
20
-3.49615
11
4.19673
21
-3.49685
0
LINE
8
BLACK
6
CONTINUOUS
10
4.19673
20
-3.49685
11
4.19673
21
-3.61339
0
LINE
8
BLACK
6
CONTINUOUS
10
4.19673
20
-3.61339
11
4.19644
21
-3.61408
0
LINE
8
BLACK
6
CONTINUOUS
10
4.19644
20
-3.61408
11
4.19575
21
-3.61437
0
LINE
8
BLACK
6
CONTINUOUS
10
4.19575
20
-3.61437
11
4.13827
21
-3.61437
0
LINE
8
BLACK
6
CONTINUOUS
10
4.13827
20
-3.61437
11
4.13757
21
-3.61408
0
LINE
8
BLACK
6
CONTINUOUS
10
4.13925
20
-3.49783
11
4.13925
21
-3.6124
0
LINE
8
BLACK
6
CONTINUOUS
10
4.13925
20
-3.6124
11
4.19476
21
-3.6124
0
LINE
8
BLACK
6
CONTINUOUS
10
4.19476
20
-3.6124
11
4.19476
21
-3.49783
0
LINE
8
BLACK
6
CONTINUOUS
10
4.19476
20
-3.49783
11
4.13925
21
-3.49783
0
LINE
8
BLACK
6
CONTINUOUS
10
4.64757
20
-3.58497
11
4.64728
21
-3.58427
0
LINE
8
BLACK
6
CONTINUOUS
10
4.64728
20
-3.58427
11
4.64728
21
-3.46774
0
LINE
8
BLACK
6
CONTINUOUS
10
4.64728
20
-3.46774
11
4.64757
21
-3.46704
0
LINE
8
BLACK
6
CONTINUOUS
10
4.64757
20
-3.46704
11
4.64827
21
-3.46675
0
LINE
8
BLACK
6
CONTINUOUS
10
4.64827
20
-3.46675
11
4.70575
21
-3.46675
0
LINE
8
BLACK
6
CONTINUOUS
10
4.70575
20
-3.46675
11
4.70644
21
-3.46704
0
LINE
8
BLACK
6
CONTINUOUS
10
4.70644
20
-3.46704
11
4.70673
21
-3.46774
0
LINE
8
BLACK
6
CONTINUOUS
10
4.70673
20
-3.46774
11
4.70673
21
-3.58427
0
LINE
8
BLACK
6
CONTINUOUS
10
4.70673
20
-3.58427
11
4.70644
21
-3.58497
0
LINE
8
BLACK
6
CONTINUOUS
10
4.70644
20
-3.58497
11
4.70575
21
-3.58526
0
LINE
8
BLACK
6
CONTINUOUS
10
4.70575
20
-3.58526
11
4.64827
21
-3.58526
0
LINE
8
BLACK
6
CONTINUOUS
10
4.64827
20
-3.58526
11
4.64757
21
-3.58497
0
LINE
8
BLACK
6
CONTINUOUS
10
4.64925
20
-3.46872
11
4.64925
21
-3.58329
0
LINE
8
BLACK
6
CONTINUOUS
10
4.64925
20
-3.58329
11
4.70476
21
-3.58329
0
LINE
8
BLACK
6
CONTINUOUS
10
4.70476
20
-3.58329
11
4.70476
21
-3.46872
0
LINE
8
BLACK
6
CONTINUOUS
10
4.70476
20
-3.46872
11
4.64925
21
-3.46872
0
LINE
8
BLACK
6
CONTINUOUS
10
3.16757
20
-3.56097
11
3.16728
21
-3.56028
0
LINE
8
BLACK
6
CONTINUOUS
10
3.16728
20
-3.56028
11
3.16728
21
-3.44374
0
LINE
8
BLACK
6
CONTINUOUS
10
3.16728
20
-3.44374
11
3.16757
21
-3.44304
0
LINE
8
BLACK
6
CONTINUOUS
10
3.16757
20
-3.44304
11
3.16827
21
-3.44276
0
LINE
8
BLACK
6
CONTINUOUS
10
3.16827
20
-3.44276
11
3.22575
21
-3.44276
0
LINE
8
BLACK
6
CONTINUOUS
10
3.22575
20
-3.44276
11
3.22644
21
-3.44304
0
LINE
8
BLACK
6
CONTINUOUS
10
3.22644
20
-3.44304
11
3.22673
21
-3.44374
0
LINE
8
BLACK
6
CONTINUOUS
10
3.22673
20
-3.44374
11
3.22673
21
-3.56028
0
LINE
8
BLACK
6
CONTINUOUS
10
3.22673
20
-3.56028
11
3.22644
21
-3.56097
0
LINE
8
BLACK
6
CONTINUOUS
10
3.22644
20
-3.56097
11
3.22575
21
-3.56126
0
LINE
8
BLACK
6
CONTINUOUS
10
3.22575
20
-3.56126
11
3.16827
21
-3.56126
0
LINE
8
BLACK
6
CONTINUOUS
10
3.16827
20
-3.56126
11
3.16757
21
-3.56097
0
LINE
8
BLACK
6
CONTINUOUS
10
3.16925
20
-3.44472
11
3.16925
21
-3.55929
0
LINE
8
BLACK
6
CONTINUOUS
10
3.16925
20
-3.55929
11
3.22476
21
-3.55929
0
LINE
8
BLACK
6
CONTINUOUS
10
3.22476
20
-3.55929
11
3.22476
21
-3.44472
0
LINE
8
BLACK
6
CONTINUOUS
10
3.22476
20
-3.44472
11
3.16925
21
-3.44472
0
LINE
8
BLACK
6
CONTINUOUS
10
3.54204
20
-3.54644
11
3.54175
21
-3.54575
0
LINE
8
BLACK
6
CONTINUOUS
10
3.54175
20
-3.54575
11
3.54175
21
-3.48827
0
LINE
8
BLACK
6
CONTINUOUS
10
3.54175
20
-3.48827
11
3.54204
21
-3.48757
0
LINE
8
BLACK
6
CONTINUOUS
10
3.54204
20
-3.48757
11
3.54274
21
-3.48728
0
LINE
8
BLACK
6
CONTINUOUS
10
3.54274
20
-3.48728
11
3.65927
21
-3.48728
0
LINE
8
BLACK
6
CONTINUOUS
10
3.65927
20
-3.48728
11
3.65997
21
-3.48757
0
LINE
8
BLACK
6
CONTINUOUS
10
3.65997
20
-3.48757
11
3.66026
21
-3.48827
0
LINE
8
BLACK
6
CONTINUOUS
10
3.66026
20
-3.48827
11
3.66026
21
-3.54575
0
LINE
8
BLACK
6
CONTINUOUS
10
3.66026
20
-3.54575
11
3.65997
21
-3.54644
0
LINE
8
BLACK
6
CONTINUOUS
10
3.65997
20
-3.54644
11
3.65927
21
-3.54673
0
LINE
8
BLACK
6
CONTINUOUS
10
3.65927
20
-3.54673
11
3.54274
21
-3.54673
0
LINE
8
BLACK
6
CONTINUOUS
10
3.54274
20
-3.54673
11
3.54204
21
-3.54644
0
LINE
8
BLACK
6
CONTINUOUS
10
3.54372
20
-3.48925
11
3.54372
21
-3.54476
0
LINE
8
BLACK
6
CONTINUOUS
10
3.54372
20
-3.54476
11
3.65829
21
-3.54476
0
LINE
8
BLACK
6
CONTINUOUS
10
3.65829
20
-3.54476
11
3.65829
21
-3.48925
0
LINE
8
BLACK
6
CONTINUOUS
10
3.65829
20
-3.48925
11
3.54372
21
-3.48925
0
LINE
8
BLACK
6
CONTINUOUS
10
4.21304
20
-3.54644
11
4.21276
21
-3.54575
0
LINE
8
BLACK
6
CONTINUOUS
10
4.21276
20
-3.54575
11
4.21276
21
-3.48827
0
LINE
8
BLACK
6
CONTINUOUS
10
4.21276
20
-3.48827
11
4.21304
21
-3.48757
0
LINE
8
BLACK
6
CONTINUOUS
10
4.21304
20
-3.48757
11
4.21374
21
-3.48728
0
LINE
8
BLACK
6
CONTINUOUS
10
4.21374
20
-3.48728
11
4.33028
21
-3.48728
0
LINE
8
BLACK
6
CONTINUOUS
10
4.33028
20
-3.48728
11
4.33097
21
-3.48757
0
LINE
8
BLACK
6
CONTINUOUS
10
4.33097
20
-3.48757
11
4.33126
21
-3.48827
0
LINE
8
BLACK
6
CONTINUOUS
10
4.33126
20
-3.48827
11
4.33126
21
-3.54575
0
LINE
8
BLACK
6
CONTINUOUS
10
4.33126
20
-3.54575
11
4.33097
21
-3.54644
0
LINE
8
BLACK
6
CONTINUOUS
10
4.33097
20
-3.54644
11
4.33028
21
-3.54673
0
LINE
8
BLACK
6
CONTINUOUS
10
4.33028
20
-3.54673
11
4.21374
21
-3.54673
0
LINE
8
BLACK
6
CONTINUOUS
10
4.21374
20
-3.54673
11
4.21304
21
-3.54644
0
LINE
8
BLACK
6
CONTINUOUS
10
4.21472
20
-3.48925
11
4.21472
21
-3.54476
0
LINE
8
BLACK
6
CONTINUOUS
10
4.21472
20
-3.54476
11
4.32929
21
-3.54476
0
LINE
8
BLACK
6
CONTINUOUS
10
4.32929
20
-3.54476
11
4.32929
21
-3.48925
0
LINE
8
BLACK
6
CONTINUOUS
10
4.32929
20
-3.48925
11
4.21472
21
-3.48925
0
LINE
8
BLACK
6
CONTINUOUS
10
3.54204
20
-3.45144
11
3.54175
21
-3.45075
0
LINE
8
BLACK
6
CONTINUOUS
10
3.54175
20
-3.45075
11
3.54175
21
-3.39327
0
LINE
8
BLACK
6
CONTINUOUS
10
3.54175
20
-3.39327
11
3.54204
21
-3.39257
0
LINE
8
BLACK
6
CONTINUOUS
10
3.54204
20
-3.39257
11
3.54274
21
-3.39228
0
LINE
8
BLACK
6
CONTINUOUS
10
3.54274
20
-3.39228
11
3.65927
21
-3.39228
0
LINE
8
BLACK
6
CONTINUOUS
10
3.65927
20
-3.39228
11
3.65997
21
-3.39257
0
LINE
8
BLACK
6
CONTINUOUS
10
3.65997
20
-3.39257
11
3.66026
21
-3.39327
0
LINE
8
BLACK
6
CONTINUOUS
10
3.66026
20
-3.39327
11
3.66026
21
-3.45075
0
LINE
8
BLACK
6
CONTINUOUS
10
3.66026
20
-3.45075
11
3.65997
21
-3.45144
0
LINE
8
BLACK
6
CONTINUOUS
10
3.65997
20
-3.45144
11
3.65927
21
-3.45173
0
LINE
8
BLACK
6
CONTINUOUS
10
3.65927
20
-3.45173
11
3.54274
21
-3.45173
0
LINE
8
BLACK
6
CONTINUOUS
10
3.54274
20
-3.45173
11
3.54204
21
-3.45144
0
LINE
8
BLACK
6
CONTINUOUS
10
3.54372
20
-3.39425
11
3.54372
21
-3.44976
0
LINE
8
BLACK
6
CONTINUOUS
10
3.54372
20
-3.44976
11
3.65829
21
-3.44976
0
LINE
8
BLACK
6
CONTINUOUS
10
3.65829
20
-3.44976
11
3.65829
21
-3.39425
0
LINE
8
BLACK
6
CONTINUOUS
10
3.65829
20
-3.39425
11
3.54372
21
-3.39425
0
LINE
8
BLACK
6
CONTINUOUS
10
4.22304
20
-3.45144
11
4.22276
21
-3.45075
0
LINE
8
BLACK
6
CONTINUOUS
10
4.22276
20
-3.45075
11
4.22276
21
-3.39327
0
LINE
8
BLACK
6
CONTINUOUS
10
4.22276
20
-3.39327
11
4.22304
21
-3.39257
0
LINE
8
BLACK
6
CONTINUOUS
10
4.22304
20
-3.39257
11
4.22374
21
-3.39228
0
LINE
8
BLACK
6
CONTINUOUS
10
4.22374
20
-3.39228
11
4.34028
21
-3.39228
0
LINE
8
BLACK
6
CONTINUOUS
10
4.34028
20
-3.39228
11
4.34097
21
-3.39257
0
LINE
8
BLACK
6
CONTINUOUS
10
4.34097
20
-3.39257
11
4.34126
21
-3.39327
0
LINE
8
BLACK
6
CONTINUOUS
10
4.34126
20
-3.39327
11
4.34126
21
-3.45075
0
LINE
8
BLACK
6
CONTINUOUS
10
4.34126
20
-3.45075
11
4.34097
21
-3.45144
0
LINE
8
BLACK
6
CONTINUOUS
10
4.34097
20
-3.45144
11
4.34028
21
-3.45173
0
LINE
8
BLACK
6
CONTINUOUS
10
4.34028
20
-3.45173
11
4.22374
21
-3.45173
0
LINE
8
BLACK
6
CONTINUOUS
10
4.22374
20
-3.45173
11
4.22304
21
-3.45144
0
LINE
8
BLACK
6
CONTINUOUS
10
4.22472
20
-3.39425
11
4.22472
21
-3.44976
0
LINE
8
BLACK
6
CONTINUOUS
10
4.22472
20
-3.44976
11
4.33929
21
-3.44976
0
LINE
8
BLACK
6
CONTINUOUS
10
4.33929
20
-3.44976
11
4.33929
21
-3.39425
0
LINE
8
BLACK
6
CONTINUOUS
10
4.33929
20
-3.39425
11
4.22472
21
-3.39425
0
LINE
8
BLACK
6
CONTINUOUS
10
3.24757
20
-3.44997
11
3.24728
21
-3.44927
0
LINE
8
BLACK
6
CONTINUOUS
10
3.24728
20
-3.44927
11
3.24728
21
-3.33274
0
LINE
8
BLACK
6
CONTINUOUS
10
3.24728
20
-3.33274
11
3.24757
21
-3.33204
0
LINE
8
BLACK
6
CONTINUOUS
10
3.24757
20
-3.33204
11
3.24827
21
-3.33175
0
LINE
8
BLACK
6
CONTINUOUS
10
3.24827
20
-3.33175
11
3.30575
21
-3.33175
0
LINE
8
BLACK
6
CONTINUOUS
10
3.30575
20
-3.33175
11
3.30644
21
-3.33204
0
LINE
8
BLACK
6
CONTINUOUS
10
3.30644
20
-3.33204
11
3.30673
21
-3.33274
0
LINE
8
BLACK
6
CONTINUOUS
10
3.30673
20
-3.33274
11
3.30673
21
-3.44927
0
LINE
8
BLACK
6
CONTINUOUS
10
3.30673
20
-3.44927
11
3.30644
21
-3.44997
0
LINE
8
BLACK
6
CONTINUOUS
10
3.30644
20
-3.44997
11
3.30575
21
-3.45026
0
LINE
8
BLACK
6
CONTINUOUS
10
3.30575
20
-3.45026
11
3.24827
21
-3.45026
0
LINE
8
BLACK
6
CONTINUOUS
10
3.24827
20
-3.45026
11
3.24757
21
-3.44997
0
LINE
8
BLACK
6
CONTINUOUS
10
3.24925
20
-3.33372
11
3.24925
21
-3.44829
0
LINE
8
BLACK
6
CONTINUOUS
10
3.24925
20
-3.44829
11
3.30476
21
-3.44829
0
LINE
8
BLACK
6
CONTINUOUS
10
3.30476
20
-3.44829
11
3.30476
21
-3.33372
0
LINE
8
BLACK
6
CONTINUOUS
10
3.30476
20
-3.33372
11
3.24925
21
-3.33372
0
LINE
8
BLACK
6
CONTINUOUS
10
4.57257
20
-3.44997
11
4.57228
21
-3.44927
0
LINE
8
BLACK
6
CONTINUOUS
10
4.57228
20
-3.44927
11
4.57228
21
-3.33274
0
LINE
8
BLACK
6
CONTINUOUS
10
4.57228
20
-3.33274
11
4.57257
21
-3.33204
0
LINE
8
BLACK
6
CONTINUOUS
10
4.57257
20
-3.33204
11
4.57327
21
-3.33175
0
LINE
8
BLACK
6
CONTINUOUS
10
4.57327
20
-3.33175
11
4.63075
21
-3.33175
0
LINE
8
BLACK
6
CONTINUOUS
10
4.63075
20
-3.33175
11
4.63144
21
-3.33204
0
LINE
8
BLACK
6
CONTINUOUS
10
4.63144
20
-3.33204
11
4.63173
21
-3.33274
0
LINE
8
BLACK
6
CONTINUOUS
10
4.63173
20
-3.33274
11
4.63173
21
-3.44927
0
LINE
8
BLACK
6
CONTINUOUS
10
4.63173
20
-3.44927
11
4.63144
21
-3.44997
0
LINE
8
BLACK
6
CONTINUOUS
10
4.63144
20
-3.44997
11
4.63075
21
-3.45026
0
LINE
8
BLACK
6
CONTINUOUS
10
4.63075
20
-3.45026
11
4.57327
21
-3.45026
0
LINE
8
BLACK
6
CONTINUOUS
10
4.57327
20
-3.45026
11
4.57257
21
-3.44997
0
LINE
8
BLACK
6
CONTINUOUS
10
4.57425
20
-3.33372
11
4.57425
21
-3.44829
0
LINE
8
BLACK
6
CONTINUOUS
10
4.57425
20
-3.44829
11
4.62976
21
-3.44829
0
LINE
8
BLACK
6
CONTINUOUS
10
4.62976
20
-3.44829
11
4.62976
21
-3.33372
0
LINE
8
BLACK
6
CONTINUOUS
10
4.62976
20
-3.33372
11
4.57425
21
-3.33372
0
LINE
8
BLACK
6
CONTINUOUS
10
4.49757
20
-3.44997
11
4.49728
21
-3.44927
0
LINE
8
BLACK
6
CONTINUOUS
10
4.49728
20
-3.44927
11
4.49728
21
-3.33274
0
LINE
8
BLACK
6
CONTINUOUS
10
4.49728
20
-3.33274
11
4.49757
21
-3.33204
0
LINE
8
BLACK
6
CONTINUOUS
10
4.49757
20
-3.33204
11
4.49827
21
-3.33175
0
LINE
8
BLACK
6
CONTINUOUS
10
4.49827
20
-3.33175
11
4.55575
21
-3.33175
0
LINE
8
BLACK
6
CONTINUOUS
10
4.55575
20
-3.33175
11
4.55644
21
-3.33204
0
LINE
8
BLACK
6
CONTINUOUS
10
4.55644
20
-3.33204
11
4.55673
21
-3.33274
0
LINE
8
BLACK
6
CONTINUOUS
10
4.55673
20
-3.33274
11
4.55673
21
-3.44927
0
LINE
8
BLACK
6
CONTINUOUS
10
4.55673
20
-3.44927
11
4.55644
21
-3.44997
0
LINE
8
BLACK
6
CONTINUOUS
10
4.55644
20
-3.44997
11
4.55575
21
-3.45026
0
LINE
8
BLACK
6
CONTINUOUS
10
4.55575
20
-3.45026
11
4.49827
21
-3.45026
0
LINE
8
BLACK
6
CONTINUOUS
10
4.49827
20
-3.45026
11
4.49757
21
-3.44997
0
LINE
8
BLACK
6
CONTINUOUS
10
4.49925
20
-3.33372
11
4.49925
21
-3.44829
0
LINE
8
BLACK
6
CONTINUOUS
10
4.49925
20
-3.44829
11
4.55476
21
-3.44829
0
LINE
8
BLACK
6
CONTINUOUS
10
4.55476
20
-3.44829
11
4.55476
21
-3.33372
0
LINE
8
BLACK
6
CONTINUOUS
10
4.55476
20
-3.33372
11
4.49925
21
-3.33372
0
LINE
8
BLACK
6
CONTINUOUS
10
3.31757
20
-3.44997
11
3.31728
21
-3.44927
0
LINE
8
BLACK
6
CONTINUOUS
10
3.31728
20
-3.44927
11
3.31728
21
-3.33274
0
LINE
8
BLACK
6
CONTINUOUS
10
3.31728
20
-3.33274
11
3.31757
21
-3.33204
0
LINE
8
BLACK
6
CONTINUOUS
10
3.31757
20
-3.33204
11
3.31827
21
-3.33175
0
LINE
8
BLACK
6
CONTINUOUS
10
3.31827
20
-3.33175
11
3.37575
21
-3.33175
0
LINE
8
BLACK
6
CONTINUOUS
10
3.37575
20
-3.33175
11
3.37644
21
-3.33204
0
LINE
8
BLACK
6
CONTINUOUS
10
3.37644
20
-3.33204
11
3.37673
21
-3.33274
0
LINE
8
BLACK
6
CONTINUOUS
10
3.37673
20
-3.33274
11
3.37673
21
-3.44927
0
LINE
8
BLACK
6
CONTINUOUS
10
3.37673
20
-3.44927
11
3.37644
21
-3.44997
0
LINE
8
BLACK
6
CONTINUOUS
10
3.37644
20
-3.44997
11
3.37575
21
-3.45026
0
LINE
8
BLACK
6
CONTINUOUS
10
3.37575
20
-3.45026
11
3.31827
21
-3.45026
0
LINE
8
BLACK
6
CONTINUOUS
10
3.31827
20
-3.45026
11
3.31757
21
-3.44997
0
LINE
8
BLACK
6
CONTINUOUS
10
3.31925
20
-3.33372
11
3.31925
21
-3.44829
0
LINE
8
BLACK
6
CONTINUOUS
10
3.31925
20
-3.44829
11
3.37476
21
-3.44829
0
LINE
8
BLACK
6
CONTINUOUS
10
3.37476
20
-3.44829
11
3.37476
21
-3.33372
0
LINE
8
BLACK
6
CONTINUOUS
10
3.37476
20
-3.33372
11
3.31925
21
-3.33372
0
LINE
8
BLACK
6
CONTINUOUS
10
4.13757
20
-3.44997
11
4.13728
21
-3.44927
0
LINE
8
BLACK
6
CONTINUOUS
10
4.13728
20
-3.44927
11
4.13728
21
-3.33274
0
LINE
8
BLACK
6
CONTINUOUS
10
4.13728
20
-3.33274
11
4.13757
21
-3.33204
0
LINE
8
BLACK
6
CONTINUOUS
10
4.13757
20
-3.33204
11
4.13827
21
-3.33175
0
LINE
8
BLACK
6
CONTINUOUS
10
4.13827
20
-3.33175
11
4.19575
21
-3.33175
0
LINE
8
BLACK
6
CONTINUOUS
10
4.19575
20
-3.33175
11
4.19644
21
-3.33204
0
LINE
8
BLACK
6
CONTINUOUS
10
4.19644
20
-3.33204
11
4.19673
21
-3.33274
0
LINE
8
BLACK
6
CONTINUOUS
10
4.19673
20
-3.33274
11
4.19673
21
-3.44927
0
LINE
8
BLACK
6
CONTINUOUS
10
4.19673
20
-3.44927
11
4.19644
21
-3.44997
0
LINE
8
BLACK
6
CONTINUOUS
10
4.19644
20
-3.44997
11
4.19575
21
-3.45026
0
LINE
8
BLACK
6
CONTINUOUS
10
4.19575
20
-3.45026
11
4.13827
21
-3.45026
0
LINE
8
BLACK
6
CONTINUOUS
10
4.13827
20
-3.45026
11
4.13757
21
-3.44997
0
LINE
8
BLACK
6
CONTINUOUS
10
4.13925
20
-3.33372
11
4.13925
21
-3.44829
0
LINE
8
BLACK
6
CONTINUOUS
10
4.13925
20
-3.44829
11
4.19476
21
-3.44829
0
LINE
8
BLACK
6
CONTINUOUS
10
4.19476
20
-3.44829
11
4.19476
21
-3.33372
0
LINE
8
BLACK
6
CONTINUOUS
10
4.19476
20
-3.33372
11
4.13925
21
-3.33372
0
LINE
8
BLACK
6
CONTINUOUS
10
3.67757
20
-3.44997
11
3.67728
21
-3.44927
0
LINE
8
BLACK
6
CONTINUOUS
10
3.67728
20
-3.44927
11
3.67728
21
-3.33274
0
LINE
8
BLACK
6
CONTINUOUS
10
3.67728
20
-3.33274
11
3.67757
21
-3.33204
0
LINE
8
BLACK
6
CONTINUOUS
10
3.67757
20
-3.33204
11
3.67827
21
-3.33175
0
LINE
8
BLACK
6
CONTINUOUS
10
3.67827
20
-3.33175
11
3.73575
21
-3.33175
0
LINE
8
BLACK
6
CONTINUOUS
10
3.73575
20
-3.33175
11
3.73644
21
-3.33204
0
LINE
8
BLACK
6
CONTINUOUS
10
3.73644
20
-3.33204
11
3.73673
21
-3.33274
0
LINE
8
BLACK
6
CONTINUOUS
10
3.73673
20
-3.33274
11
3.73673
21
-3.44927
0
LINE
8
BLACK
6
CONTINUOUS
10
3.73673
20
-3.44927
11
3.73644
21
-3.44997
0
LINE
8
BLACK
6
CONTINUOUS
10
3.73644
20
-3.44997
11
3.73575
21
-3.45026
0
LINE
8
BLACK
6
CONTINUOUS
10
3.73575
20
-3.45026
11
3.67827
21
-3.45026
0
LINE
8
BLACK
6
CONTINUOUS
10
3.67827
20
-3.45026
11
3.67757
21
-3.44997
0
LINE
8
BLACK
6
CONTINUOUS
10
3.67925
20
-3.33372
11
3.67925
21
-3.44829
0
LINE
8
BLACK
6
CONTINUOUS
10
3.67925
20
-3.44829
11
3.73476
21
-3.44829
0
LINE
8
BLACK
6
CONTINUOUS
10
3.73476
20
-3.44829
11
3.73476
21
-3.33372
0
LINE
8
BLACK
6
CONTINUOUS
10
3.73476
20
-3.33372
11
3.67925
21
-3.33372
0
LINE
8
BLACK
6
CONTINUOUS
10
4.64954
20
-3.42085
11
4.64925
21
-3.42016
0
LINE
8
BLACK
6
CONTINUOUS
10
4.64925
20
-3.42016
11
4.64925
21
-3.31386
0
LINE
8
BLACK
6
CONTINUOUS
10
4.64925
20
-3.31386
11
4.64954
21
-3.31316
0
LINE
8
BLACK
6
CONTINUOUS
10
4.64954
20
-3.31316
11
4.65024
21
-3.31287
0
LINE
8
BLACK
6
CONTINUOUS
10
4.65024
20
-3.31287
11
4.80378
21
-3.31287
0
LINE
8
BLACK
6
CONTINUOUS
10
4.80378
20
-3.31287
11
4.80448
21
-3.31316
0
LINE
8
BLACK
6
CONTINUOUS
10
4.80448
20
-3.31316
11
4.80476
21
-3.31386
0
LINE
8
BLACK
6
CONTINUOUS
10
4.80476
20
-3.31386
11
4.80476
21
-3.42016
0
LINE
8
BLACK
6
CONTINUOUS
10
4.80476
20
-3.42016
11
4.80448
21
-3.42085
0
LINE
8
BLACK
6
CONTINUOUS
10
4.80448
20
-3.42085
11
4.80378
21
-3.42114
0
LINE
8
BLACK
6
CONTINUOUS
10
4.80378
20
-3.42114
11
4.65024
21
-3.42114
0
LINE
8
BLACK
6
CONTINUOUS
10
4.65024
20
-3.42114
11
4.64954
21
-3.42085
0
LINE
8
BLACK
6
CONTINUOUS
10
4.65122
20
-3.31484
11
4.65122
21
-3.41917
0
LINE
8
BLACK
6
CONTINUOUS
10
4.65122
20
-3.41917
11
4.8028
21
-3.41917
0
LINE
8
BLACK
6
CONTINUOUS
10
4.8028
20
-3.41917
11
4.8028
21
-3.31484
0
LINE
8
BLACK
6
CONTINUOUS
10
4.8028
20
-3.31484
11
4.65122
21
-3.31484
0
LINE
8
BLACK
6
CONTINUOUS
10
3.87704
20
-3.27644
11
3.87675
21
-3.27575
0
LINE
8
BLACK
6
CONTINUOUS
10
3.87675
20
-3.27575
11
3.87675
21
-3.21827
0
LINE
8
BLACK
6
CONTINUOUS
10
3.87675
20
-3.21827
11
3.87704
21
-3.21757
0
LINE
8
BLACK
6
CONTINUOUS
10
3.87704
20
-3.21757
11
3.87774
21
-3.21728
0
LINE
8
BLACK
6
CONTINUOUS
10
3.87774
20
-3.21728
11
3.99427
21
-3.21728
0
LINE
8
BLACK
6
CONTINUOUS
10
3.99427
20
-3.21728
11
3.99497
21
-3.21757
0
LINE
8
BLACK
6
CONTINUOUS
10
3.99497
20
-3.21757
11
3.99526
21
-3.21827
0
LINE
8
BLACK
6
CONTINUOUS
10
3.99526
20
-3.21827
11
3.99526
21
-3.27575
0
LINE
8
BLACK
6
CONTINUOUS
10
3.99526
20
-3.27575
11
3.99497
21
-3.27644
0
LINE
8
BLACK
6
CONTINUOUS
10
3.99497
20
-3.27644
11
3.99427
21
-3.27673
0
LINE
8
BLACK
6
CONTINUOUS
10
3.99427
20
-3.27673
11
3.87774
21
-3.27673
0
LINE
8
BLACK
6
CONTINUOUS
10
3.87774
20
-3.27673
11
3.87704
21
-3.27644
0
LINE
8
BLACK
6
CONTINUOUS
10
3.87872
20
-3.21925
11
3.87872
21
-3.27476
0
LINE
8
BLACK
6
CONTINUOUS
10
3.87872
20
-3.27476
11
3.99329
21
-3.27476
0
LINE
8
BLACK
6
CONTINUOUS
10
3.99329
20
-3.27476
11
3.99329
21
-3.21925
0
LINE
8
BLACK
6
CONTINUOUS
10
3.99329
20
-3.21925
11
3.87872
21
-3.21925
0
LINE
8
BLACK
6
CONTINUOUS
10
3.0237
20
-6.08519
11
3.02739
21
-6.07726
0
LINE
8
BLACK
6
CONTINUOUS
10
3.02739
20
-6.07726
11
3.03241
21
-6.0701
0
LINE
8
BLACK
6
CONTINUOUS
10
3.03241
20
-6.0701
11
3.0386
21
-6.06391
0
LINE
8
BLACK
6
CONTINUOUS
10
3.0386
20
-6.06391
11
3.04577
21
-6.05889
0
LINE
8
BLACK
6
CONTINUOUS
10
3.04577
20
-6.05889
11
3.0537
21
-6.05519
0
LINE
8
BLACK
6
CONTINUOUS
10
3.0537
20
-6.05519
11
3.06215
21
-6.05293
0
LINE
8
BLACK
6
CONTINUOUS
10
3.06215
20
-6.05293
11
3.07087
21
-6.05217
0
LINE
8
BLACK
6
CONTINUOUS
10
3.07087
20
-6.05217
11
3.07958
21
-6.05293
0
LINE
8
BLACK
6
CONTINUOUS
10
3.07958
20
-6.05293
11
3.08803
21
-6.05519
0
LINE
8
BLACK
6
CONTINUOUS
10
3.08803
20
-6.05519
11
3.09596
21
-6.05889
0
LINE
8
BLACK
6
CONTINUOUS
10
3.09596
20
-6.05889
11
3.10313
21
-6.06391
0
LINE
8
BLACK
6
CONTINUOUS
10
3.10313
20
-6.06391
11
3.10932
21
-6.0701
0
LINE
8
BLACK
6
CONTINUOUS
10
3.10932
20
-6.0701
11
3.11434
21
-6.07726
0
LINE
8
BLACK
6
CONTINUOUS
10
3.11434
20
-6.07726
11
3.11804
21
-6.08519
0
LINE
8
BLACK
6
CONTINUOUS
10
3.11804
20
-6.08519
11
3.1203
21
-6.09365
0
LINE
8
BLACK
6
CONTINUOUS
10
3.1203
20
-6.09365
11
3.12106
21
-6.10236
0
LINE
8
BLACK
6
CONTINUOUS
10
3.12106
20
-6.10236
11
3.1203
21
-6.11108
0
LINE
8
BLACK
6
CONTINUOUS
10
3.1203
20
-6.11108
11
3.11804
21
-6.11953
0
LINE
8
BLACK
6
CONTINUOUS
10
3.11804
20
-6.11953
11
3.11434
21
-6.12746
0
LINE
8
BLACK
6
CONTINUOUS
10
3.11434
20
-6.12746
11
3.10932
21
-6.13463
0
LINE
8
BLACK
6
CONTINUOUS
10
3.10932
20
-6.13463
11
3.10313
21
-6.14082
0
LINE
8
BLACK
6
CONTINUOUS
10
3.10313
20
-6.14082
11
3.09596
21
-6.14583
0
LINE
8
BLACK
6
CONTINUOUS
10
3.09596
20
-6.14583
11
3.08803
21
-6.14953
0
LINE
8
BLACK
6
CONTINUOUS
10
3.08803
20
-6.14953
11
3.07958
21
-6.1518
0
LINE
8
BLACK
6
CONTINUOUS
10
3.07958
20
-6.1518
11
3.07087
21
-6.15256
0
LINE
8
BLACK
6
CONTINUOUS
10
3.07087
20
-6.15256
11
3.06215
21
-6.1518
0
LINE
8
BLACK
6
CONTINUOUS
10
3.06215
20
-6.1518
11
3.0537
21
-6.14953
0
LINE
8
BLACK
6
CONTINUOUS
10
3.0537
20
-6.14953
11
3.04577
21
-6.14583
0
LINE
8
BLACK
6
CONTINUOUS
10
3.04577
20
-6.14583
11
3.0386
21
-6.14082
0
LINE
8
BLACK
6
CONTINUOUS
10
3.0386
20
-6.14082
11
3.03241
21
-6.13463
0
LINE
8
BLACK
6
CONTINUOUS
10
3.03241
20
-6.13463
11
3.02739
21
-6.12746
0
LINE
8
BLACK
6
CONTINUOUS
10
3.02739
20
-6.12746
11
3.0237
21
-6.11953
0
LINE
8
BLACK
6
CONTINUOUS
10
3.0237
20
-6.11953
11
3.02143
21
-6.11108
0
LINE
8
BLACK
6
CONTINUOUS
10
3.02143
20
-6.11108
11
3.02067
21
-6.10236
0
LINE
8
BLACK
6
CONTINUOUS
10
3.02067
20
-6.10236
11
3.02143
21
-6.09365
0
LINE
8
BLACK
6
CONTINUOUS
10
3.02143
20
-6.09365
11
3.0237
21
-6.08519
0
LINE
8
BLACK
6
CONTINUOUS
10
3.02537
20
-6.11892
11
3.02894
21
-6.12657
0
LINE
8
BLACK
6
CONTINUOUS
10
3.02894
20
-6.12657
11
3.03378
21
-6.13348
0
LINE
8
BLACK
6
CONTINUOUS
10
3.03378
20
-6.13348
11
3.03975
21
-6.13945
0
LINE
8
BLACK
6
CONTINUOUS
10
3.03975
20
-6.13945
11
3.04666
21
-6.14429
0
LINE
8
BLACK
6
CONTINUOUS
10
3.04666
20
-6.14429
11
3.05431
21
-6.14786
0
LINE
8
BLACK
6
CONTINUOUS
10
3.05431
20
-6.14786
11
3.06246
21
-6.15004
0
LINE
8
BLACK
6
CONTINUOUS
10
3.06246
20
-6.15004
11
3.07087
21
-6.15077
0
LINE
8
BLACK
6
CONTINUOUS
10
3.07087
20
-6.15077
11
3.07927
21
-6.15004
0
LINE
8
BLACK
6
CONTINUOUS
10
3.07927
20
-6.15004
11
3.08742
21
-6.14786
0
LINE
8
BLACK
6
CONTINUOUS
10
3.08742
20
-6.14786
11
3.09507
21
-6.14429
0
LINE
8
BLACK
6
CONTINUOUS
10
3.09507
20
-6.14429
11
3.10199
21
-6.13945
0
LINE
8
BLACK
6
CONTINUOUS
10
3.10199
20
-6.13945
11
3.10795
21
-6.13348
0
LINE
8
BLACK
6
CONTINUOUS
10
3.10795
20
-6.13348
11
3.11279
21
-6.12657
0
LINE
8
BLACK
6
CONTINUOUS
10
3.11279
20
-6.12657
11
3.11636
21
-6.11892
0
LINE
8
BLACK
6
CONTINUOUS
10
3.11636
20
-6.11892
11
3.11854
21
-6.11077
0
LINE
8
BLACK
6
CONTINUOUS
10
3.11854
20
-6.11077
11
3.11928
21
-6.10236
0
LINE
8
BLACK
6
CONTINUOUS
10
3.11928
20
-6.10236
11
3.11854
21
-6.09396
0
LINE
8
BLACK
6
CONTINUOUS
10
3.11854
20
-6.09396
11
3.11636
21
-6.0858
0
LINE
8
BLACK
6
CONTINUOUS
10
3.11636
20
-6.0858
11
3.11279
21
-6.07816
0
LINE
8
BLACK
6
CONTINUOUS
10
3.11279
20
-6.07816
11
3.10795
21
-6.07124
0
LINE
8
BLACK
6
CONTINUOUS
10
3.10795
20
-6.07124
11
3.10199
21
-6.06528
0
LINE
8
BLACK
6
CONTINUOUS
10
3.10199
20
-6.06528
11
3.09507
21
-6.06044
0
LINE
8
BLACK
6
CONTINUOUS
10
3.09507
20
-6.06044
11
3.08742
21
-6.05687
0
LINE
8
BLACK
6
CONTINUOUS
10
3.08742
20
-6.05687
11
3.07927
21
-6.05469
0
LINE
8
BLACK
6
CONTINUOUS
10
3.07927
20
-6.05469
11
3.07087
21
-6.05395
0
LINE
8
BLACK
6
CONTINUOUS
10
3.07087
20
-6.05395
11
3.06246
21
-6.05469
0
LINE
8
BLACK
6
CONTINUOUS
10
3.06246
20
-6.05469
11
3.05431
21
-6.05687
0
LINE
8
BLACK
6
CONTINUOUS
10
3.05431
20
-6.05687
11
3.04666
21
-6.06044
0
LINE
8
BLACK
6
CONTINUOUS
10
3.04666
20
-6.06044
11
3.03975
21
-6.06528
0
LINE
8
BLACK
6
CONTINUOUS
10
3.03975
20
-6.06528
11
3.03378
21
-6.07124
0
LINE
8
BLACK
6
CONTINUOUS
10
3.03378
20
-6.07124
11
3.02894
21
-6.07816
0
LINE
8
BLACK
6
CONTINUOUS
10
3.02894
20
-6.07816
11
3.02537
21
-6.0858
0
LINE
8
BLACK
6
CONTINUOUS
10
3.02537
20
-6.0858
11
3.02319
21
-6.09396
0
LINE
8
BLACK
6
CONTINUOUS
10
3.02319
20
-6.09396
11
3.02245
21
-6.10236
0
LINE
8
BLACK
6
CONTINUOUS
10
3.02245
20
-6.10236
11
3.02319
21
-6.11077
0
LINE
8
BLACK
6
CONTINUOUS
10
3.02319
20
-6.11077
11
3.02537
21
-6.11892
0
LINE
8
BLACK
6
CONTINUOUS
10
4.75598
20
-2.73874
11
4.75968
21
-2.73081
0
LINE
8
BLACK
6
CONTINUOUS
10
4.75968
20
-2.73081
11
4.7647
21
-2.72364
0
LINE
8
BLACK
6
CONTINUOUS
10
4.7647
20
-2.72364
11
4.77088
21
-2.71745
0
LINE
8
BLACK
6
CONTINUOUS
10
4.77088
20
-2.71745
11
4.77805
21
-2.71243
0
LINE
8
BLACK
6
CONTINUOUS
10
4.77805
20
-2.71243
11
4.78598
21
-2.70874
0
LINE
8
BLACK
6
CONTINUOUS
10
4.78598
20
-2.70874
11
4.79443
21
-2.70647
0
LINE
8
BLACK
6
CONTINUOUS
10
4.79443
20
-2.70647
11
4.80315
21
-2.70571
0
LINE
8
BLACK
6
CONTINUOUS
10
4.80315
20
-2.70571
11
4.81187
21
-2.70647
0
LINE
8
BLACK
6
CONTINUOUS
10
4.81187
20
-2.70647
11
4.82032
21
-2.70874
0
LINE
8
BLACK
6
CONTINUOUS
10
4.82032
20
-2.70874
11
4.82825
21
-2.71243
0
LINE
8
BLACK
6
CONTINUOUS
10
4.82825
20
-2.71243
11
4.83542
21
-2.71745
0
LINE
8
BLACK
6
CONTINUOUS
10
4.83542
20
-2.71745
11
4.8416
21
-2.72364
0
LINE
8
BLACK
6
CONTINUOUS
10
4.8416
20
-2.72364
11
4.84662
21
-2.73081
0
LINE
8
BLACK
6
CONTINUOUS
10
4.84662
20
-2.73081
11
4.85032
21
-2.73874
0
LINE
8
BLACK
6
CONTINUOUS
10
4.85032
20
-2.73874
11
4.85258
21
-2.74719
0
LINE
8
BLACK
6
CONTINUOUS
10
4.85258
20
-2.74719
11
4.85335
21
-2.75591
0
LINE
8
BLACK
6
CONTINUOUS
10
4.85335
20
-2.75591
11
4.85258
21
-2.76462
0
LINE
8
BLACK
6
CONTINUOUS
10
4.85258
20
-2.76462
11
4.85032
21
-2.77307
0
LINE
8
BLACK
6
CONTINUOUS
10
4.85032
20
-2.77307
11
4.84662
21
-2.781
0
LINE
8
BLACK
6
CONTINUOUS
10
4.84662
20
-2.781
11
4.8416
21
-2.78817
0
LINE
8
BLACK
6
CONTINUOUS
10
4.8416
20
-2.78817
11
4.83542
21
-2.79436
0
LINE
8
BLACK
6
CONTINUOUS
10
4.83542
20
-2.79436
11
4.82825
21
-2.79938
0
LINE
8
BLACK
6
CONTINUOUS
10
4.82825
20
-2.79938
11
4.82032
21
-2.80308
0
LINE
8
BLACK
6
CONTINUOUS
10
4.82032
20
-2.80308
11
4.81187
21
-2.80534
0
LINE
8
BLACK
6
CONTINUOUS
10
4.81187
20
-2.80534
11
4.80315
21
-2.8061
0
LINE
8
BLACK
6
CONTINUOUS
10
4.80315
20
-2.8061
11
4.79443
21
-2.80534
0
LINE
8
BLACK
6
CONTINUOUS
10
4.79443
20
-2.80534
11
4.78598
21
-2.80308
0
LINE
8
BLACK
6
CONTINUOUS
10
4.78598
20
-2.80308
11
4.77805
21
-2.79938
0
LINE
8
BLACK
6
CONTINUOUS
10
4.77805
20
-2.79938
11
4.77088
21
-2.79436
0
LINE
8
BLACK
6
CONTINUOUS
10
4.77088
20
-2.79436
11
4.7647
21
-2.78817
0
LINE
8
BLACK
6
CONTINUOUS
10
4.7647
20
-2.78817
11
4.75968
21
-2.781
0
LINE
8
BLACK
6
CONTINUOUS
10
4.75968
20
-2.781
11
4.75598
21
-2.77307
0
LINE
8
BLACK
6
CONTINUOUS
10
4.75598
20
-2.77307
11
4.75372
21
-2.76462
0
LINE
8
BLACK
6
CONTINUOUS
10
4.75372
20
-2.76462
11
4.75295
21
-2.75591
0
LINE
8
BLACK
6
CONTINUOUS
10
4.75295
20
-2.75591
11
4.75372
21
-2.74719
0
LINE
8
BLACK
6
CONTINUOUS
10
4.75372
20
-2.74719
11
4.75598
21
-2.73874
0
LINE
8
BLACK
6
CONTINUOUS
10
4.75766
20
-2.77246
11
4.76122
21
-2.78011
0
LINE
8
BLACK
6
CONTINUOUS
10
4.76122
20
-2.78011
11
4.76606
21
-2.78702
0
LINE
8
BLACK
6
CONTINUOUS
10
4.76606
20
-2.78702
11
4.77203
21
-2.79299
0
LINE
8
BLACK
6
CONTINUOUS
10
4.77203
20
-2.79299
11
4.77894
21
-2.79783
0
LINE
8
BLACK
6
CONTINUOUS
10
4.77894
20
-2.79783
11
4.78659
21
-2.8014
0
LINE
8
BLACK
6
CONTINUOUS
10
4.78659
20
-2.8014
11
4.79474
21
-2.80358
0
LINE
8
BLACK
6
CONTINUOUS
10
4.79474
20
-2.80358
11
4.80315
21
-2.80432
0
LINE
8
BLACK
6
CONTINUOUS
10
4.80315
20
-2.80432
11
4.81156
21
-2.80358
0
LINE
8
BLACK
6
CONTINUOUS
10
4.81156
20
-2.80358
11
4.81971
21
-2.8014
0
LINE
8
BLACK
6
CONTINUOUS
10
4.81971
20
-2.8014
11
4.82736
21
-2.79783
0
LINE
8
BLACK
6
CONTINUOUS
10
4.82736
20
-2.79783
11
4.83427
21
-2.79299
0
LINE
8
BLACK
6
CONTINUOUS
10
4.83427
20
-2.79299
11
4.84024
21
-2.78702
0
LINE
8
BLACK
6
CONTINUOUS
10
4.84024
20
-2.78702
11
4.84508
21
-2.78011
0
LINE
8
BLACK
6
CONTINUOUS
10
4.84508
20
-2.78011
11
4.84864
21
-2.77246
0
LINE
8
BLACK
6
CONTINUOUS
10
4.84864
20
-2.77246
11
4.85083
21
-2.76431
0
LINE
8
BLACK
6
CONTINUOUS
10
4.85083
20
-2.76431
11
4.85156
21
-2.75591
0
LINE
8
BLACK
6
CONTINUOUS
10
4.85156
20
-2.75591
11
4.85083
21
-2.7475
0
LINE
8
BLACK
6
CONTINUOUS
10
4.85083
20
-2.7475
11
4.84864
21
-2.73935
0
LINE
8
BLACK
6
CONTINUOUS
10
4.84864
20
-2.73935
11
4.84508
21
-2.7317
0
LINE
8
BLACK
6
CONTINUOUS
10
4.84508
20
-2.7317
11
4.84024
21
-2.72479
0
LINE
8
BLACK
6
CONTINUOUS
10
4.84024
20
-2.72479
11
4.83427
21
-2.71882
0
LINE
8
BLACK
6
CONTINUOUS
10
4.83427
20
-2.71882
11
4.82736
21
-2.71398
0
LINE
8
BLACK
6
CONTINUOUS
10
4.82736
20
-2.71398
11
4.81971
21
-2.71041
0
LINE
8
BLACK
6
CONTINUOUS
10
4.81971
20
-2.71041
11
4.81156
21
-2.70823
0
LINE
8
BLACK
6
CONTINUOUS
10
4.81156
20
-2.70823
11
4.80315
21
-2.70749
0
LINE
8
BLACK
6
CONTINUOUS
10
4.80315
20
-2.70749
11
4.79474
21
-2.70823
0
LINE
8
BLACK
6
CONTINUOUS
10
4.79474
20
-2.70823
11
4.78659
21
-2.71041
0
LINE
8
BLACK
6
CONTINUOUS
10
4.78659
20
-2.71041
11
4.77894
21
-2.71398
0
LINE
8
BLACK
6
CONTINUOUS
10
4.77894
20
-2.71398
11
4.77203
21
-2.71882
0
LINE
8
BLACK
6
CONTINUOUS
10
4.77203
20
-2.71882
11
4.76606
21
-2.72479
0
LINE
8
BLACK
6
CONTINUOUS
10
4.76606
20
-2.72479
11
4.76122
21
-2.7317
0
LINE
8
BLACK
6
CONTINUOUS
10
4.76122
20
-2.7317
11
4.75766
21
-2.73935
0
LINE
8
BLACK
6
CONTINUOUS
10
4.75766
20
-2.73935
11
4.75547
21
-2.7475
0
LINE
8
BLACK
6
CONTINUOUS
10
4.75547
20
-2.7475
11
4.75474
21
-2.75591
0
LINE
8
BLACK
6
CONTINUOUS
10
4.75474
20
-2.75591
11
4.75547
21
-2.76431
0
LINE
8
BLACK
6
CONTINUOUS
10
4.75547
20
-2.76431
11
4.75766
21
-2.77246
  0
ENDSEC
  0
EOF
