  0
SECTION
  2
HEADER
  9
$ANGBASE
  50
0.0
  9
$ANGDIR
  70
1
  9
$MEASUREMENT
  70
0
  0
ENDSEC
  0
SECTION
  2
TABLES
  0
TABLE
  2
LTYPE
  70
4
  0
LTYPE
  5
40F
  2
CONTINUOUS
  70
0
  3
Solid line
  72
65
  73
0
  40
0.0
  0
LTYPE
  5
410
  2
DASHDOT
 70
0
  3
Dash Dot ____ _ ____ _
 72
65
 73
4
 40
2.0
 49
1.25
 49
-0.25
 49
0.25
 49
-0.25
  0
LTYPE
  5
411
  2
DASHED
 70
0
  3
Dashed __ __ __ __ __
 72
65
 73
2
 40
0.75
 49
0.5
 49
-0.25
  0
LTYPE
  5
43B
  2
DOTTED
 70
0
  3
Dotted .  .  .  .
 72
65
 73
2
 40
0.2
 49
0.0
 49
-0.2
  0
ENDTAB
  0
TABLE
  2
STYLE
  70
4
  0
STYLE
  2
KICAD
  70
0
  40
0
  41
1
  42
1
  50
0
  71
0
  3
isocp.shx
  0
STYLE
  2
KICADB
  70
0
  40
0
  41
1
  42
1
  50
0
  71
0
  3
isocp.shx
  0
STYLE
  2
KICADI
  70
0
  40
0
  41
1
  42
1
  50
15
  71
0
  3
isocp.shx
  0
STYLE
  2
KICADBI
  70
0
  40
0
  41
1
  42
1
  50
15
  71
0
  3
isocp.shx
  0
ENDTAB
  0
TABLE
  2
LAYER
  70
1
  0
LAYER
  2
BLACK
  70
0
  62
7
  6
CONTINUOUS
  0
ENDTAB
  0
ENDSEC
  0
SECTION
  2
ENTITIES
0
LINE
8
BLACK
6
CONTINUOUS
10
0.246136
20
0.479246
11
0.247683
21
0.477948
0
LINE
8
BLACK
6
CONTINUOUS
10
0.247683
20
0.477948
11
0.248034
21
0.475959
0
LINE
8
BLACK
6
CONTINUOUS
10
0.248034
20
0.475959
11
0.247024
21
0.47421
0
LINE
8
BLACK
6
CONTINUOUS
10
0.247024
20
0.47421
11
0.245126
21
0.473519
0
LINE
8
BLACK
6
CONTINUOUS
10
0.245126
20
0.473519
11
0.215129
21
0.473519
0
LINE
8
BLACK
6
CONTINUOUS
10
0.215129
20
0.473519
11
0.214119
21
0.473697
0
LINE
8
BLACK
6
CONTINUOUS
10
0.214119
20
0.473697
11
0.212572
21
0.474995
0
LINE
8
BLACK
6
CONTINUOUS
10
0.212572
20
0.474995
11
0.212221
21
0.476984
0
LINE
8
BLACK
6
CONTINUOUS
10
0.212221
20
0.476984
11
0.213231
21
0.478734
0
LINE
8
BLACK
6
CONTINUOUS
10
0.213231
20
0.478734
11
0.215129
21
0.479424
0
LINE
8
BLACK
6
CONTINUOUS
10
0.215129
20
0.479424
11
0.245126
21
0.479424
0
LINE
8
BLACK
6
CONTINUOUS
10
0.245126
20
0.479424
11
0.246136
21
0.479246
0
LINE
8
BLACK
6
CONTINUOUS
10
0.122401
20
0.522366
11
0.122536
21
0.522253
0
LINE
8
BLACK
6
CONTINUOUS
10
0.122536
20
0.522253
11
0.122712
21
0.522232
0
LINE
8
BLACK
6
CONTINUOUS
10
0.122712
20
0.522232
11
0.126461
21
0.520358
0
LINE
8
BLACK
6
CONTINUOUS
10
0.126461
20
0.520358
11
0.127285
21
0.519747
0
LINE
8
BLACK
6
CONTINUOUS
10
0.127285
20
0.519747
11
0.128088
21
0.517893
0
LINE
8
BLACK
6
CONTINUOUS
10
0.128088
20
0.517893
11
0.127512
21
0.515957
0
LINE
8
BLACK
6
CONTINUOUS
10
0.127512
20
0.515957
11
0.125827
21
0.514845
0
LINE
8
BLACK
6
CONTINUOUS
10
0.125827
20
0.514845
11
0.12382
21
0.515076
0
LINE
8
BLACK
6
CONTINUOUS
10
0.12382
20
0.515076
11
0.120694
21
0.516639
0
LINE
8
BLACK
6
CONTINUOUS
10
0.120694
20
0.516639
11
0.116246
21
0.516639
0
LINE
8
BLACK
6
CONTINUOUS
10
0.116246
20
0.516639
11
0.111737
21
0.515136
0
LINE
8
BLACK
6
CONTINUOUS
10
0.111737
20
0.515136
11
0.10882
21
0.512218
0
LINE
8
BLACK
6
CONTINUOUS
10
0.10882
20
0.512218
11
0.107304
21
0.509187
0
LINE
8
BLACK
6
CONTINUOUS
10
0.107304
20
0.509187
11
0.105596
21
0.502355
0
LINE
8
BLACK
6
CONTINUOUS
10
0.105596
20
0.502355
11
0.105596
21
0.497458
0
LINE
8
BLACK
6
CONTINUOUS
10
0.105596
20
0.497458
11
0.107304
21
0.490626
0
LINE
8
BLACK
6
CONTINUOUS
10
0.107304
20
0.490626
11
0.10882
21
0.487595
0
LINE
8
BLACK
6
CONTINUOUS
10
0.10882
20
0.487595
11
0.111738
21
0.484677
0
LINE
8
BLACK
6
CONTINUOUS
10
0.111738
20
0.484677
11
0.116246
21
0.483174
0
LINE
8
BLACK
6
CONTINUOUS
10
0.116246
20
0.483174
11
0.119037
21
0.483174
0
LINE
8
BLACK
6
CONTINUOUS
10
0.119037
20
0.483174
11
0.123546
21
0.484677
0
LINE
8
BLACK
6
CONTINUOUS
10
0.123546
20
0.484677
11
0.124063
21
0.485194
0
LINE
8
BLACK
6
CONTINUOUS
10
0.124063
20
0.485194
11
0.124063
21
0.494141
0
LINE
8
BLACK
6
CONTINUOUS
10
0.124063
20
0.494141
11
0.119516
21
0.494141
0
LINE
8
BLACK
6
CONTINUOUS
10
0.119516
20
0.494141
11
0.118506
21
0.494319
0
LINE
8
BLACK
6
CONTINUOUS
10
0.118506
20
0.494319
11
0.116959
21
0.495618
0
LINE
8
BLACK
6
CONTINUOUS
10
0.116959
20
0.495618
11
0.116608
21
0.497607
0
LINE
8
BLACK
6
CONTINUOUS
10
0.116608
20
0.497607
11
0.117618
21
0.499356
0
LINE
8
BLACK
6
CONTINUOUS
10
0.117618
20
0.499356
11
0.119516
21
0.500047
0
LINE
8
BLACK
6
CONTINUOUS
10
0.119516
20
0.500047
11
0.127015
21
0.500047
0
LINE
8
BLACK
6
CONTINUOUS
10
0.127015
20
0.500047
11
0.127399
21
0.499979
0
LINE
8
BLACK
6
CONTINUOUS
10
0.127399
20
0.499979
11
0.127528
21
0.500002
0
LINE
8
BLACK
6
CONTINUOUS
10
0.127528
20
0.500002
11
0.127642
21
0.499936
0
LINE
8
BLACK
6
CONTINUOUS
10
0.127642
20
0.499936
11
0.128025
21
0.499869
0
LINE
8
BLACK
6
CONTINUOUS
10
0.128025
20
0.499869
11
0.128613
21
0.499376
0
LINE
8
BLACK
6
CONTINUOUS
10
0.128613
20
0.499376
11
0.129277
21
0.498992
0
LINE
8
BLACK
6
CONTINUOUS
10
0.129277
20
0.498992
11
0.129368
21
0.498742
0
LINE
8
BLACK
6
CONTINUOUS
10
0.129368
20
0.498742
11
0.129573
21
0.498571
0
LINE
8
BLACK
6
CONTINUOUS
10
0.129573
20
0.498571
11
0.129706
21
0.497815
0
LINE
8
BLACK
6
CONTINUOUS
10
0.129706
20
0.497815
11
0.129968
21
0.497094
0
LINE
8
BLACK
6
CONTINUOUS
10
0.129968
20
0.497094
11
0.129968
21
0.483971
0
LINE
8
BLACK
6
CONTINUOUS
10
0.129968
20
0.483971
11
0.129936
21
0.48379
0
LINE
8
BLACK
6
CONTINUOUS
10
0.129936
20
0.48379
11
0.129957
21
0.483713
0
LINE
8
BLACK
6
CONTINUOUS
10
0.129957
20
0.483713
11
0.129902
21
0.483596
0
LINE
8
BLACK
6
CONTINUOUS
10
0.129902
20
0.483596
11
0.12979
21
0.482961
0
LINE
8
BLACK
6
CONTINUOUS
10
0.12979
20
0.482961
11
0.129376
21
0.482467
0
LINE
8
BLACK
6
CONTINUOUS
10
0.129376
20
0.482467
11
0.129103
21
0.481883
0
LINE
8
BLACK
6
CONTINUOUS
10
0.129103
20
0.481883
11
0.127229
21
0.480008
0
LINE
8
BLACK
6
CONTINUOUS
10
0.127229
20
0.480008
11
0.126388
21
0.47942
0
LINE
8
BLACK
6
CONTINUOUS
10
0.126388
20
0.47942
11
0.126213
21
0.479405
0
LINE
8
BLACK
6
CONTINUOUS
10
0.126213
20
0.479405
11
0.126074
21
0.479295
0
LINE
8
BLACK
6
CONTINUOUS
10
0.126074
20
0.479295
11
0.12045
21
0.47742
0
LINE
8
BLACK
6
CONTINUOUS
10
0.12045
20
0.47742
11
0.119577
21
0.477291
0
LINE
8
BLACK
6
CONTINUOUS
10
0.119577
20
0.477291
11
0.119516
21
0.477269
0
LINE
8
BLACK
6
CONTINUOUS
10
0.119516
20
0.477269
11
0.115767
21
0.477269
0
LINE
8
BLACK
6
CONTINUOUS
10
0.115767
20
0.477269
11
0.114897
21
0.477422
0
LINE
8
BLACK
6
CONTINUOUS
10
0.114897
20
0.477422
11
0.114833
21
0.47742
0
LINE
8
BLACK
6
CONTINUOUS
10
0.114833
20
0.47742
11
0.109209
21
0.479295
0
LINE
8
BLACK
6
CONTINUOUS
10
0.109209
20
0.479295
11
0.108307
21
0.479783
0
LINE
8
BLACK
6
CONTINUOUS
10
0.108307
20
0.479783
11
0.108215
21
0.479933
0
LINE
8
BLACK
6
CONTINUOUS
10
0.108215
20
0.479933
11
0.108055
21
0.480008
0
LINE
8
BLACK
6
CONTINUOUS
10
0.108055
20
0.480008
11
0.104305
21
0.483758
0
LINE
8
BLACK
6
CONTINUOUS
10
0.104305
20
0.483758
11
0.103799
21
0.484481
0
LINE
8
BLACK
6
CONTINUOUS
10
0.103799
20
0.484481
11
0.103752
21
0.484525
0
LINE
8
BLACK
6
CONTINUOUS
10
0.103752
20
0.484525
11
0.101877
21
0.488275
0
LINE
8
BLACK
6
CONTINUOUS
10
0.101877
20
0.488275
11
0.101732
21
0.488763
0
LINE
8
BLACK
6
CONTINUOUS
10
0.101732
20
0.488763
11
0.101654
21
0.488879
0
LINE
8
BLACK
6
CONTINUOUS
10
0.101654
20
0.488879
11
0.0997788
21
0.496378
0
LINE
8
BLACK
6
CONTINUOUS
10
0.0997788
20
0.496378
11
0.0997373
21
0.496966
0
LINE
8
BLACK
6
CONTINUOUS
10
0.0997373
20
0.496966
11
0.0996906
21
0.497094
0
LINE
8
BLACK
6
CONTINUOUS
10
0.0996906
20
0.497094
11
0.0996906
21
0.502718
0
LINE
8
BLACK
6
CONTINUOUS
10
0.0996906
20
0.502718
11
0.099793
21
0.503299
0
LINE
8
BLACK
6
CONTINUOUS
10
0.099793
20
0.503299
11
0.0997788
21
0.503435
0
LINE
8
BLACK
6
CONTINUOUS
10
0.0997788
20
0.503435
11
0.101654
21
0.510934
0
LINE
8
BLACK
6
CONTINUOUS
10
0.101654
20
0.510934
11
0.101861
21
0.511399
0
LINE
8
BLACK
6
CONTINUOUS
10
0.101861
20
0.511399
11
0.101877
21
0.511538
0
LINE
8
BLACK
6
CONTINUOUS
10
0.101877
20
0.511538
11
0.103752
21
0.515288
0
LINE
8
BLACK
6
CONTINUOUS
10
0.103752
20
0.515288
11
0.104278
21
0.515997
0
LINE
8
BLACK
6
CONTINUOUS
10
0.104278
20
0.515997
11
0.104305
21
0.516055
0
LINE
8
BLACK
6
CONTINUOUS
10
0.104305
20
0.516055
11
0.108055
21
0.519804
0
LINE
8
BLACK
6
CONTINUOUS
10
0.108055
20
0.519804
11
0.108895
21
0.520393
0
LINE
8
BLACK
6
CONTINUOUS
10
0.108895
20
0.520393
11
0.10907
21
0.520408
0
LINE
8
BLACK
6
CONTINUOUS
10
0.10907
20
0.520408
11
0.109209
21
0.520518
0
LINE
8
BLACK
6
CONTINUOUS
10
0.109209
20
0.520518
11
0.114833
21
0.522393
0
LINE
8
BLACK
6
CONTINUOUS
10
0.114833
20
0.522393
11
0.115706
21
0.522522
0
LINE
8
BLACK
6
CONTINUOUS
10
0.115706
20
0.522522
11
0.115767
21
0.522544
0
LINE
8
BLACK
6
CONTINUOUS
10
0.115767
20
0.522544
11
0.121391
21
0.522544
0
LINE
8
BLACK
6
CONTINUOUS
10
0.121391
20
0.522544
11
0.122401
21
0.522366
0
LINE
8
BLACK
6
CONTINUOUS
10
0.337859
20
0.522391
11
0.337923
21
0.522393
0
LINE
8
BLACK
6
CONTINUOUS
10
0.337923
20
0.522393
11
0.343547
21
0.520518
0
LINE
8
BLACK
6
CONTINUOUS
10
0.343547
20
0.520518
11
0.344449
21
0.520029
0
LINE
8
BLACK
6
CONTINUOUS
10
0.344449
20
0.520029
11
0.344541
21
0.519879
0
LINE
8
BLACK
6
CONTINUOUS
10
0.344541
20
0.519879
11
0.344701
21
0.519804
0
LINE
8
BLACK
6
CONTINUOUS
10
0.344701
20
0.519804
11
0.348451
21
0.516055
0
LINE
8
BLACK
6
CONTINUOUS
10
0.348451
20
0.516055
11
0.348957
21
0.515332
0
LINE
8
BLACK
6
CONTINUOUS
10
0.348957
20
0.515332
11
0.349004
21
0.515288
0
LINE
8
BLACK
6
CONTINUOUS
10
0.349004
20
0.515288
11
0.350879
21
0.511538
0
LINE
8
BLACK
6
CONTINUOUS
10
0.350879
20
0.511538
11
0.351024
21
0.51105
0
LINE
8
BLACK
6
CONTINUOUS
10
0.351024
20
0.51105
11
0.351102
21
0.510934
0
LINE
8
BLACK
6
CONTINUOUS
10
0.351102
20
0.510934
11
0.352977
21
0.503435
0
LINE
8
BLACK
6
CONTINUOUS
10
0.352977
20
0.503435
11
0.353019
21
0.502847
0
LINE
8
BLACK
6
CONTINUOUS
10
0.353019
20
0.502847
11
0.353065
21
0.502718
0
LINE
8
BLACK
6
CONTINUOUS
10
0.353065
20
0.502718
11
0.353065
21
0.497094
0
LINE
8
BLACK
6
CONTINUOUS
10
0.353065
20
0.497094
11
0.352963
21
0.496514
0
LINE
8
BLACK
6
CONTINUOUS
10
0.352963
20
0.496514
11
0.352977
21
0.496378
0
LINE
8
BLACK
6
CONTINUOUS
10
0.352977
20
0.496378
11
0.351102
21
0.488879
0
LINE
8
BLACK
6
CONTINUOUS
10
0.351102
20
0.488879
11
0.350895
21
0.488413
0
LINE
8
BLACK
6
CONTINUOUS
10
0.350895
20
0.488413
11
0.350879
21
0.488275
0
LINE
8
BLACK
6
CONTINUOUS
10
0.350879
20
0.488275
11
0.349004
21
0.484525
0
LINE
8
BLACK
6
CONTINUOUS
10
0.349004
20
0.484525
11
0.348478
21
0.483816
0
LINE
8
BLACK
6
CONTINUOUS
10
0.348478
20
0.483816
11
0.348451
21
0.483758
0
LINE
8
BLACK
6
CONTINUOUS
10
0.348451
20
0.483758
11
0.344701
21
0.480008
0
LINE
8
BLACK
6
CONTINUOUS
10
0.344701
20
0.480008
11
0.343861
21
0.47942
0
LINE
8
BLACK
6
CONTINUOUS
10
0.343861
20
0.47942
11
0.343685
21
0.479404
0
LINE
8
BLACK
6
CONTINUOUS
10
0.343685
20
0.479404
11
0.343547
21
0.479295
0
LINE
8
BLACK
6
CONTINUOUS
10
0.343547
20
0.479295
11
0.337923
21
0.47742
0
LINE
8
BLACK
6
CONTINUOUS
10
0.337923
20
0.47742
11
0.33705
21
0.477291
0
LINE
8
BLACK
6
CONTINUOUS
10
0.33705
20
0.477291
11
0.336989
21
0.477269
0
LINE
8
BLACK
6
CONTINUOUS
10
0.336989
20
0.477269
11
0.327615
21
0.477269
0
LINE
8
BLACK
6
CONTINUOUS
10
0.327615
20
0.477269
11
0.327232
21
0.477336
0
LINE
8
BLACK
6
CONTINUOUS
10
0.327232
20
0.477336
11
0.327103
21
0.477313
0
LINE
8
BLACK
6
CONTINUOUS
10
0.327103
20
0.477313
11
0.326989
21
0.477379
0
LINE
8
BLACK
6
CONTINUOUS
10
0.326989
20
0.477379
11
0.326605
21
0.477447
0
LINE
8
BLACK
6
CONTINUOUS
10
0.326605
20
0.477447
11
0.326018
21
0.47794
0
LINE
8
BLACK
6
CONTINUOUS
10
0.326018
20
0.47794
11
0.325353
21
0.478323
0
LINE
8
BLACK
6
CONTINUOUS
10
0.325353
20
0.478323
11
0.325262
21
0.478574
0
LINE
8
BLACK
6
CONTINUOUS
10
0.325262
20
0.478574
11
0.325058
21
0.478745
0
LINE
8
BLACK
6
CONTINUOUS
10
0.325058
20
0.478745
11
0.324925
21
0.4795
0
LINE
8
BLACK
6
CONTINUOUS
10
0.324925
20
0.4795
11
0.324663
21
0.480221
0
LINE
8
BLACK
6
CONTINUOUS
10
0.324663
20
0.480221
11
0.324663
21
0.519591
0
LINE
8
BLACK
6
CONTINUOUS
10
0.324663
20
0.519591
11
0.32473
21
0.519975
0
LINE
8
BLACK
6
CONTINUOUS
10
0.32473
20
0.519975
11
0.324707
21
0.520104
0
LINE
8
BLACK
6
CONTINUOUS
10
0.324707
20
0.520104
11
0.324773
21
0.520218
0
LINE
8
BLACK
6
CONTINUOUS
10
0.324773
20
0.520218
11
0.324841
21
0.520601
0
LINE
8
BLACK
6
CONTINUOUS
10
0.324841
20
0.520601
11
0.325334
21
0.521189
0
LINE
8
BLACK
6
CONTINUOUS
10
0.325334
20
0.521189
11
0.325717
21
0.521853
0
LINE
8
BLACK
6
CONTINUOUS
10
0.325717
20
0.521853
11
0.325968
21
0.521944
0
LINE
8
BLACK
6
CONTINUOUS
10
0.325968
20
0.521944
11
0.326139
21
0.522149
0
LINE
8
BLACK
6
CONTINUOUS
10
0.326139
20
0.522149
11
0.326894
21
0.522282
0
LINE
8
BLACK
6
CONTINUOUS
10
0.326894
20
0.522282
11
0.327615
21
0.522544
0
LINE
8
BLACK
6
CONTINUOUS
10
0.327615
20
0.522544
11
0.336989
21
0.522544
0
LINE
8
BLACK
6
CONTINUOUS
10
0.336989
20
0.522544
11
0.337859
21
0.522391
0
LINE
8
BLACK
6
CONTINUOUS
10
0.330568
20
0.516639
11
0.330568
21
0.483174
0
LINE
8
BLACK
6
CONTINUOUS
10
0.330568
20
0.483174
11
0.33651
21
0.483174
0
LINE
8
BLACK
6
CONTINUOUS
10
0.33651
20
0.483174
11
0.341018
21
0.484677
0
LINE
8
BLACK
6
CONTINUOUS
10
0.341018
20
0.484677
11
0.343936
21
0.487595
0
LINE
8
BLACK
6
CONTINUOUS
10
0.343936
20
0.487595
11
0.345452
21
0.490626
0
LINE
8
BLACK
6
CONTINUOUS
10
0.345452
20
0.490626
11
0.34716
21
0.497458
0
LINE
8
BLACK
6
CONTINUOUS
10
0.34716
20
0.497458
11
0.34716
21
0.502355
0
LINE
8
BLACK
6
CONTINUOUS
10
0.34716
20
0.502355
11
0.345452
21
0.509187
0
LINE
8
BLACK
6
CONTINUOUS
10
0.345452
20
0.509187
11
0.343936
21
0.512218
0
LINE
8
BLACK
6
CONTINUOUS
10
0.343936
20
0.512218
11
0.341018
21
0.515136
0
LINE
8
BLACK
6
CONTINUOUS
10
0.341018
20
0.515136
11
0.33651
21
0.516639
0
LINE
8
BLACK
6
CONTINUOUS
10
0.33651
20
0.516639
11
0.330568
21
0.516639
0
LINE
8
BLACK
6
CONTINUOUS
10
0.195376
20
0.522391
11
0.195441
21
0.522393
0
LINE
8
BLACK
6
CONTINUOUS
10
0.195441
20
0.522393
11
0.201065
21
0.520518
0
LINE
8
BLACK
6
CONTINUOUS
10
0.201065
20
0.520518
11
0.201967
21
0.520029
0
LINE
8
BLACK
6
CONTINUOUS
10
0.201967
20
0.520029
11
0.202059
21
0.519879
0
LINE
8
BLACK
6
CONTINUOUS
10
0.202059
20
0.519879
11
0.202219
21
0.519804
0
LINE
8
BLACK
6
CONTINUOUS
10
0.202219
20
0.519804
11
0.205969
21
0.516055
0
LINE
8
BLACK
6
CONTINUOUS
10
0.205969
20
0.516055
11
0.206475
21
0.515332
0
LINE
8
BLACK
6
CONTINUOUS
10
0.206475
20
0.515332
11
0.206522
21
0.515288
0
LINE
8
BLACK
6
CONTINUOUS
10
0.206522
20
0.515288
11
0.208397
21
0.511538
0
LINE
8
BLACK
6
CONTINUOUS
10
0.208397
20
0.511538
11
0.208542
21
0.51105
0
LINE
8
BLACK
6
CONTINUOUS
10
0.208542
20
0.51105
11
0.20862
21
0.510934
0
LINE
8
BLACK
6
CONTINUOUS
10
0.20862
20
0.510934
11
0.210495
21
0.503435
0
LINE
8
BLACK
6
CONTINUOUS
10
0.210495
20
0.503435
11
0.210536
21
0.502847
0
LINE
8
BLACK
6
CONTINUOUS
10
0.210536
20
0.502847
11
0.210583
21
0.502718
0
LINE
8
BLACK
6
CONTINUOUS
10
0.210583
20
0.502718
11
0.210583
21
0.497094
0
LINE
8
BLACK
6
CONTINUOUS
10
0.210583
20
0.497094
11
0.210481
21
0.496514
0
LINE
8
BLACK
6
CONTINUOUS
10
0.210481
20
0.496514
11
0.210495
21
0.496378
0
LINE
8
BLACK
6
CONTINUOUS
10
0.210495
20
0.496378
11
0.20862
21
0.488879
0
LINE
8
BLACK
6
CONTINUOUS
10
0.20862
20
0.488879
11
0.208413
21
0.488413
0
LINE
8
BLACK
6
CONTINUOUS
10
0.208413
20
0.488413
11
0.208397
21
0.488275
0
LINE
8
BLACK
6
CONTINUOUS
10
0.208397
20
0.488275
11
0.206522
21
0.484525
0
LINE
8
BLACK
6
CONTINUOUS
10
0.206522
20
0.484525
11
0.205996
21
0.483816
0
LINE
8
BLACK
6
CONTINUOUS
10
0.205996
20
0.483816
11
0.205969
21
0.483758
0
LINE
8
BLACK
6
CONTINUOUS
10
0.205969
20
0.483758
11
0.202219
21
0.480008
0
LINE
8
BLACK
6
CONTINUOUS
10
0.202219
20
0.480008
11
0.201379
21
0.47942
0
LINE
8
BLACK
6
CONTINUOUS
10
0.201379
20
0.47942
11
0.201203
21
0.479405
0
LINE
8
BLACK
6
CONTINUOUS
10
0.201203
20
0.479405
11
0.201065
21
0.479295
0
LINE
8
BLACK
6
CONTINUOUS
10
0.201065
20
0.479295
11
0.195441
21
0.47742
0
LINE
8
BLACK
6
CONTINUOUS
10
0.195441
20
0.47742
11
0.194568
21
0.477291
0
LINE
8
BLACK
6
CONTINUOUS
10
0.194568
20
0.477291
11
0.194507
21
0.477269
0
LINE
8
BLACK
6
CONTINUOUS
10
0.194507
20
0.477269
11
0.185133
21
0.477269
0
LINE
8
BLACK
6
CONTINUOUS
10
0.185133
20
0.477269
11
0.18475
21
0.477336
0
LINE
8
BLACK
6
CONTINUOUS
10
0.18475
20
0.477336
11
0.18462
21
0.477313
0
LINE
8
BLACK
6
CONTINUOUS
10
0.18462
20
0.477313
11
0.184507
21
0.477379
0
LINE
8
BLACK
6
CONTINUOUS
10
0.184507
20
0.477379
11
0.184123
21
0.477447
0
LINE
8
BLACK
6
CONTINUOUS
10
0.184123
20
0.477447
11
0.183535
21
0.47794
0
LINE
8
BLACK
6
CONTINUOUS
10
0.183535
20
0.47794
11
0.182871
21
0.478323
0
LINE
8
BLACK
6
CONTINUOUS
10
0.182871
20
0.478323
11
0.18278
21
0.478574
0
LINE
8
BLACK
6
CONTINUOUS
10
0.18278
20
0.478574
11
0.182576
21
0.478745
0
LINE
8
BLACK
6
CONTINUOUS
10
0.182576
20
0.478745
11
0.182443
21
0.4795
0
LINE
8
BLACK
6
CONTINUOUS
10
0.182443
20
0.4795
11
0.18218
21
0.480221
0
LINE
8
BLACK
6
CONTINUOUS
10
0.18218
20
0.480221
11
0.18218
21
0.519591
0
LINE
8
BLACK
6
CONTINUOUS
10
0.18218
20
0.519591
11
0.182248
21
0.519975
0
LINE
8
BLACK
6
CONTINUOUS
10
0.182248
20
0.519975
11
0.182225
21
0.520104
0
LINE
8
BLACK
6
CONTINUOUS
10
0.182225
20
0.520104
11
0.182291
21
0.520218
0
LINE
8
BLACK
6
CONTINUOUS
10
0.182291
20
0.520218
11
0.182358
21
0.520601
0
LINE
8
BLACK
6
CONTINUOUS
10
0.182358
20
0.520601
11
0.182852
21
0.521189
0
LINE
8
BLACK
6
CONTINUOUS
10
0.182852
20
0.521189
11
0.183235
21
0.521853
0
LINE
8
BLACK
6
CONTINUOUS
10
0.183235
20
0.521853
11
0.183485
21
0.521944
0
LINE
8
BLACK
6
CONTINUOUS
10
0.183485
20
0.521944
11
0.183657
21
0.522149
0
LINE
8
BLACK
6
CONTINUOUS
10
0.183657
20
0.522149
11
0.184412
21
0.522282
0
LINE
8
BLACK
6
CONTINUOUS
10
0.184412
20
0.522282
11
0.185133
21
0.522544
0
LINE
8
BLACK
6
CONTINUOUS
10
0.185133
20
0.522544
11
0.194507
21
0.522544
0
LINE
8
BLACK
6
CONTINUOUS
10
0.194507
20
0.522544
11
0.195376
21
0.522391
0
LINE
8
BLACK
6
CONTINUOUS
10
0.188086
20
0.516639
11
0.188086
21
0.483174
0
LINE
8
BLACK
6
CONTINUOUS
10
0.188086
20
0.483174
11
0.194028
21
0.483174
0
LINE
8
BLACK
6
CONTINUOUS
10
0.194028
20
0.483174
11
0.198536
21
0.484677
0
LINE
8
BLACK
6
CONTINUOUS
10
0.198536
20
0.484677
11
0.201454
21
0.487595
0
LINE
8
BLACK
6
CONTINUOUS
10
0.201454
20
0.487595
11
0.20297
21
0.490626
0
LINE
8
BLACK
6
CONTINUOUS
10
0.20297
20
0.490626
11
0.204678
21
0.497458
0
LINE
8
BLACK
6
CONTINUOUS
10
0.204678
20
0.497458
11
0.204678
21
0.502355
0
LINE
8
BLACK
6
CONTINUOUS
10
0.204678
20
0.502355
11
0.20297
21
0.509187
0
LINE
8
BLACK
6
CONTINUOUS
10
0.20297
20
0.509187
11
0.201454
21
0.512218
0
LINE
8
BLACK
6
CONTINUOUS
10
0.201454
20
0.512218
11
0.198536
21
0.515136
0
LINE
8
BLACK
6
CONTINUOUS
10
0.198536
20
0.515136
11
0.194028
21
0.516639
0
LINE
8
BLACK
6
CONTINUOUS
10
0.194028
20
0.516639
11
0.188086
21
0.516639
0
LINE
8
BLACK
6
CONTINUOUS
10
0.301851
20
0.522325
11
0.302775
21
0.522188
0
LINE
8
BLACK
6
CONTINUOUS
10
0.302775
20
0.522188
11
0.302831
21
0.522124
0
LINE
8
BLACK
6
CONTINUOUS
10
0.302831
20
0.522124
11
0.302914
21
0.522107
0
LINE
8
BLACK
6
CONTINUOUS
10
0.302914
20
0.522107
11
0.303495
21
0.521376
0
LINE
8
BLACK
6
CONTINUOUS
10
0.303495
20
0.521376
11
0.304115
21
0.520677
0
LINE
8
BLACK
6
CONTINUOUS
10
0.304115
20
0.520677
11
0.304117
21
0.520592
0
LINE
8
BLACK
6
CONTINUOUS
10
0.304117
20
0.520592
11
0.30417
21
0.520525
0
LINE
8
BLACK
6
CONTINUOUS
10
0.30417
20
0.520525
11
0.317293
21
0.481155
0
LINE
8
BLACK
6
CONTINUOUS
10
0.317293
20
0.481155
11
0.317444
21
0.480141
0
LINE
8
BLACK
6
CONTINUOUS
10
0.317444
20
0.480141
11
0.316701
21
0.478262
0
LINE
8
BLACK
6
CONTINUOUS
10
0.316701
20
0.478262
11
0.314925
21
0.4773
0
LINE
8
BLACK
6
CONTINUOUS
10
0.314925
20
0.4773
11
0.312946
21
0.477705
0
LINE
8
BLACK
6
CONTINUOUS
10
0.312946
20
0.477705
11
0.311691
21
0.479288
0
LINE
8
BLACK
6
CONTINUOUS
10
0.311691
20
0.479288
11
0.308614
21
0.488517
0
LINE
8
BLACK
6
CONTINUOUS
10
0.308614
20
0.488517
11
0.294123
21
0.488517
0
LINE
8
BLACK
6
CONTINUOUS
10
0.294123
20
0.488517
11
0.291046
21
0.479288
0
LINE
8
BLACK
6
CONTINUOUS
10
0.291046
20
0.479288
11
0.290558
21
0.478386
0
LINE
8
BLACK
6
CONTINUOUS
10
0.290558
20
0.478386
11
0.288837
21
0.477328
0
LINE
8
BLACK
6
CONTINUOUS
10
0.288837
20
0.477328
11
0.286839
21
0.477625
0
LINE
8
BLACK
6
CONTINUOUS
10
0.286839
20
0.477625
11
0.285499
21
0.479136
0
LINE
8
BLACK
6
CONTINUOUS
10
0.285499
20
0.479136
11
0.285444
21
0.481155
0
LINE
8
BLACK
6
CONTINUOUS
10
0.285444
20
0.481155
11
0.298567
21
0.520525
0
LINE
8
BLACK
6
CONTINUOUS
10
0.298567
20
0.520525
11
0.299056
21
0.521427
0
LINE
8
BLACK
6
CONTINUOUS
10
0.299056
20
0.521427
11
0.299128
21
0.521471
0
LINE
8
BLACK
6
CONTINUOUS
10
0.299128
20
0.521471
11
0.299159
21
0.52155
0
LINE
8
BLACK
6
CONTINUOUS
10
0.299159
20
0.52155
11
0.299981
21
0.521995
0
LINE
8
BLACK
6
CONTINUOUS
10
0.299981
20
0.521995
11
0.300777
21
0.522484
0
LINE
8
BLACK
6
CONTINUOUS
10
0.300777
20
0.522484
11
0.300861
21
0.522472
0
LINE
8
BLACK
6
CONTINUOUS
10
0.300861
20
0.522472
11
0.300935
21
0.522512
0
LINE
8
BLACK
6
CONTINUOUS
10
0.300935
20
0.522512
11
0.301851
21
0.522325
0
LINE
8
BLACK
6
CONTINUOUS
10
0.296091
20
0.494423
11
0.306646
21
0.494423
0
LINE
8
BLACK
6
CONTINUOUS
10
0.306646
20
0.494423
11
0.301369
21
0.510254
0
LINE
8
BLACK
6
CONTINUOUS
10
0.301369
20
0.510254
11
0.296091
21
0.494423
0
LINE
8
BLACK
6
CONTINUOUS
10
0.270507
20
0.522366
11
0.270643
21
0.522253
0
LINE
8
BLACK
6
CONTINUOUS
10
0.270643
20
0.522253
11
0.270818
21
0.522232
0
LINE
8
BLACK
6
CONTINUOUS
10
0.270818
20
0.522232
11
0.274568
21
0.520358
0
LINE
8
BLACK
6
CONTINUOUS
10
0.274568
20
0.520358
11
0.275277
21
0.519832
0
LINE
8
BLACK
6
CONTINUOUS
10
0.275277
20
0.519832
11
0.275335
21
0.519804
0
LINE
8
BLACK
6
CONTINUOUS
10
0.275335
20
0.519804
11
0.27721
21
0.51793
0
LINE
8
BLACK
6
CONTINUOUS
10
0.27721
20
0.51793
11
0.277716
21
0.517207
0
LINE
8
BLACK
6
CONTINUOUS
10
0.277716
20
0.517207
11
0.277763
21
0.517162
0
LINE
8
BLACK
6
CONTINUOUS
10
0.277763
20
0.517162
11
0.279638
21
0.513413
0
LINE
8
BLACK
6
CONTINUOUS
10
0.279638
20
0.513413
11
0.27993
21
0.51243
0
LINE
8
BLACK
6
CONTINUOUS
10
0.27993
20
0.51243
11
0.279889
21
0.512258
0
LINE
8
BLACK
6
CONTINUOUS
10
0.279889
20
0.512258
11
0.279949
21
0.512092
0
LINE
8
BLACK
6
CONTINUOUS
10
0.279949
20
0.512092
11
0.279949
21
0.506468
0
LINE
8
BLACK
6
CONTINUOUS
10
0.279949
20
0.506468
11
0.279771
21
0.505458
0
LINE
8
BLACK
6
CONTINUOUS
10
0.279771
20
0.505458
11
0.279658
21
0.505323
0
LINE
8
BLACK
6
CONTINUOUS
10
0.279658
20
0.505323
11
0.279638
21
0.505147
0
LINE
8
BLACK
6
CONTINUOUS
10
0.279638
20
0.505147
11
0.277763
21
0.501398
0
LINE
8
BLACK
6
CONTINUOUS
10
0.277763
20
0.501398
11
0.277237
21
0.500689
0
LINE
8
BLACK
6
CONTINUOUS
10
0.277237
20
0.500689
11
0.27721
21
0.500631
0
LINE
8
BLACK
6
CONTINUOUS
10
0.27721
20
0.500631
11
0.275335
21
0.498756
0
LINE
8
BLACK
6
CONTINUOUS
10
0.275335
20
0.498756
11
0.274612
21
0.498249
0
LINE
8
BLACK
6
CONTINUOUS
10
0.274612
20
0.498249
11
0.274568
21
0.498203
0
LINE
8
BLACK
6
CONTINUOUS
10
0.274568
20
0.498203
11
0.270818
21
0.496328
0
LINE
8
BLACK
6
CONTINUOUS
10
0.270818
20
0.496328
11
0.269835
21
0.496036
0
LINE
8
BLACK
6
CONTINUOUS
10
0.269835
20
0.496036
11
0.269663
21
0.496077
0
LINE
8
BLACK
6
CONTINUOUS
10
0.269663
20
0.496077
11
0.269498
21
0.496016
0
LINE
8
BLACK
6
CONTINUOUS
10
0.269498
20
0.496016
11
0.257452
21
0.496016
0
LINE
8
BLACK
6
CONTINUOUS
10
0.257452
20
0.496016
11
0.257452
21
0.480221
0
LINE
8
BLACK
6
CONTINUOUS
10
0.257452
20
0.480221
11
0.257274
21
0.479211
0
LINE
8
BLACK
6
CONTINUOUS
10
0.257274
20
0.479211
11
0.255976
21
0.477664
0
LINE
8
BLACK
6
CONTINUOUS
10
0.255976
20
0.477664
11
0.253987
21
0.477313
0
LINE
8
BLACK
6
CONTINUOUS
10
0.253987
20
0.477313
11
0.252237
21
0.478323
0
LINE
8
BLACK
6
CONTINUOUS
10
0.252237
20
0.478323
11
0.251547
21
0.480221
0
LINE
8
BLACK
6
CONTINUOUS
10
0.251547
20
0.480221
11
0.251547
21
0.519591
0
LINE
8
BLACK
6
CONTINUOUS
10
0.251547
20
0.519591
11
0.251614
21
0.519975
0
LINE
8
BLACK
6
CONTINUOUS
10
0.251614
20
0.519975
11
0.251591
21
0.520104
0
LINE
8
BLACK
6
CONTINUOUS
10
0.251591
20
0.520104
11
0.251657
21
0.520218
0
LINE
8
BLACK
6
CONTINUOUS
10
0.251657
20
0.520218
11
0.251725
21
0.520601
0
LINE
8
BLACK
6
CONTINUOUS
10
0.251725
20
0.520601
11
0.252218
21
0.521189
0
LINE
8
BLACK
6
CONTINUOUS
10
0.252218
20
0.521189
11
0.252601
21
0.521853
0
LINE
8
BLACK
6
CONTINUOUS
10
0.252601
20
0.521853
11
0.252852
21
0.521944
0
LINE
8
BLACK
6
CONTINUOUS
10
0.252852
20
0.521944
11
0.253023
21
0.522149
0
LINE
8
BLACK
6
CONTINUOUS
10
0.253023
20
0.522149
11
0.253779
21
0.522282
0
LINE
8
BLACK
6
CONTINUOUS
10
0.253779
20
0.522282
11
0.254499
21
0.522544
0
LINE
8
BLACK
6
CONTINUOUS
10
0.254499
20
0.522544
11
0.269498
21
0.522544
0
LINE
8
BLACK
6
CONTINUOUS
10
0.269498
20
0.522544
11
0.270507
21
0.522366
0
LINE
8
BLACK
6
CONTINUOUS
10
0.257452
20
0.516639
11
0.257452
21
0.501922
0
LINE
8
BLACK
6
CONTINUOUS
10
0.257452
20
0.501922
11
0.268801
21
0.501922
0
LINE
8
BLACK
6
CONTINUOUS
10
0.268801
20
0.501922
11
0.271498
21
0.50327
0
LINE
8
BLACK
6
CONTINUOUS
10
0.271498
20
0.50327
11
0.272695
21
0.504468
0
LINE
8
BLACK
6
CONTINUOUS
10
0.272695
20
0.504468
11
0.274044
21
0.507165
0
LINE
8
BLACK
6
CONTINUOUS
10
0.274044
20
0.507165
11
0.274044
21
0.511395
0
LINE
8
BLACK
6
CONTINUOUS
10
0.274044
20
0.511395
11
0.272695
21
0.514093
0
LINE
8
BLACK
6
CONTINUOUS
10
0.272695
20
0.514093
11
0.271498
21
0.51529
0
LINE
8
BLACK
6
CONTINUOUS
10
0.271498
20
0.51529
11
0.2688
21
0.516639
0
LINE
8
BLACK
6
CONTINUOUS
10
0.2688
20
0.516639
11
0.257452
21
0.516639
0
LINE
8
BLACK
6
CONTINUOUS
10
0.168647
20
0.521489
11
0.169338
21
0.519591
0
LINE
8
BLACK
6
CONTINUOUS
10
0.169338
20
0.519591
11
0.169338
21
0.480221
0
LINE
8
BLACK
6
CONTINUOUS
10
0.169338
20
0.480221
11
0.16916
21
0.479211
0
LINE
8
BLACK
6
CONTINUOUS
10
0.16916
20
0.479211
11
0.168985
21
0.479002
0
LINE
8
BLACK
6
CONTINUOUS
10
0.168985
20
0.479002
11
0.168936
21
0.478734
0
LINE
8
BLACK
6
CONTINUOUS
10
0.168936
20
0.478734
11
0.168351
21
0.478247
0
LINE
8
BLACK
6
CONTINUOUS
10
0.168351
20
0.478247
11
0.167862
21
0.477664
0
LINE
8
BLACK
6
CONTINUOUS
10
0.167862
20
0.477664
11
0.167593
21
0.477617
0
LINE
8
BLACK
6
CONTINUOUS
10
0.167593
20
0.477617
11
0.167383
21
0.477442
0
LINE
8
BLACK
6
CONTINUOUS
10
0.167383
20
0.477442
11
0.166622
21
0.477445
0
LINE
8
BLACK
6
CONTINUOUS
10
0.166622
20
0.477445
11
0.165873
21
0.477313
0
LINE
8
BLACK
6
CONTINUOUS
10
0.165873
20
0.477313
11
0.165636
21
0.47745
0
LINE
8
BLACK
6
CONTINUOUS
10
0.165636
20
0.47745
11
0.165363
21
0.477451
0
LINE
8
BLACK
6
CONTINUOUS
10
0.165363
20
0.477451
11
0.164783
21
0.477943
0
LINE
8
BLACK
6
CONTINUOUS
10
0.164783
20
0.477943
11
0.164124
21
0.478323
0
LINE
8
BLACK
6
CONTINUOUS
10
0.164124
20
0.478323
11
0.16403
21
0.47858
0
LINE
8
BLACK
6
CONTINUOUS
10
0.16403
20
0.47858
11
0.163822
21
0.478756
0
LINE
8
BLACK
6
CONTINUOUS
10
0.163822
20
0.478756
11
0.146841
21
0.508473
0
LINE
8
BLACK
6
CONTINUOUS
10
0.146841
20
0.508473
11
0.146841
21
0.480221
0
LINE
8
BLACK
6
CONTINUOUS
10
0.146841
20
0.480221
11
0.146663
21
0.479211
0
LINE
8
BLACK
6
CONTINUOUS
10
0.146663
20
0.479211
11
0.145365
21
0.477664
0
LINE
8
BLACK
6
CONTINUOUS
10
0.145365
20
0.477664
11
0.143375
21
0.477313
0
LINE
8
BLACK
6
CONTINUOUS
10
0.143375
20
0.477313
11
0.141626
21
0.478323
0
LINE
8
BLACK
6
CONTINUOUS
10
0.141626
20
0.478323
11
0.140935
21
0.480221
0
LINE
8
BLACK
6
CONTINUOUS
10
0.140935
20
0.480221
11
0.140935
21
0.519591
0
LINE
8
BLACK
6
CONTINUOUS
10
0.140935
20
0.519591
11
0.141114
21
0.520601
0
LINE
8
BLACK
6
CONTINUOUS
10
0.141114
20
0.520601
11
0.141289
21
0.52081
0
LINE
8
BLACK
6
CONTINUOUS
10
0.141289
20
0.52081
11
0.141338
21
0.521079
0
LINE
8
BLACK
6
CONTINUOUS
10
0.141338
20
0.521079
11
0.141923
21
0.521566
0
LINE
8
BLACK
6
CONTINUOUS
10
0.141923
20
0.521566
11
0.142412
21
0.522149
0
LINE
8
BLACK
6
CONTINUOUS
10
0.142412
20
0.522149
11
0.142681
21
0.522196
0
LINE
8
BLACK
6
CONTINUOUS
10
0.142681
20
0.522196
11
0.142891
21
0.522371
0
LINE
8
BLACK
6
CONTINUOUS
10
0.142891
20
0.522371
11
0.143652
21
0.522367
0
LINE
8
BLACK
6
CONTINUOUS
10
0.143652
20
0.522367
11
0.144401
21
0.522499
0
LINE
8
BLACK
6
CONTINUOUS
10
0.144401
20
0.522499
11
0.144637
21
0.522363
0
LINE
8
BLACK
6
CONTINUOUS
10
0.144637
20
0.522363
11
0.14491
21
0.522361
0
LINE
8
BLACK
6
CONTINUOUS
10
0.14491
20
0.522361
11
0.145491
21
0.52187
0
LINE
8
BLACK
6
CONTINUOUS
10
0.145491
20
0.52187
11
0.14615
21
0.521489
0
LINE
8
BLACK
6
CONTINUOUS
10
0.14615
20
0.521489
11
0.146244
21
0.521233
0
LINE
8
BLACK
6
CONTINUOUS
10
0.146244
20
0.521233
11
0.146452
21
0.521056
0
LINE
8
BLACK
6
CONTINUOUS
10
0.146452
20
0.521056
11
0.163433
21
0.49134
0
LINE
8
BLACK
6
CONTINUOUS
10
0.163433
20
0.49134
11
0.163433
21
0.519591
0
LINE
8
BLACK
6
CONTINUOUS
10
0.163433
20
0.519591
11
0.163611
21
0.520601
0
LINE
8
BLACK
6
CONTINUOUS
10
0.163611
20
0.520601
11
0.164909
21
0.522149
0
LINE
8
BLACK
6
CONTINUOUS
10
0.164909
20
0.522149
11
0.166898
21
0.522499
0
LINE
8
BLACK
6
CONTINUOUS
10
0.166898
20
0.522499
11
0.168647
21
0.521489
0
LINE
8
BLACK
6
CONTINUOUS
10
0.174894
20
0.679846
11
0.17503
21
0.679733
0
LINE
8
BLACK
6
CONTINUOUS
10
0.17503
20
0.679733
11
0.175205
21
0.679713
0
LINE
8
BLACK
6
CONTINUOUS
10
0.175205
20
0.679713
11
0.178955
21
0.677838
0
LINE
8
BLACK
6
CONTINUOUS
10
0.178955
20
0.677838
11
0.179778
21
0.677227
0
LINE
8
BLACK
6
CONTINUOUS
10
0.179778
20
0.677227
11
0.180581
21
0.675374
0
LINE
8
BLACK
6
CONTINUOUS
10
0.180581
20
0.675374
11
0.180006
21
0.673438
0
LINE
8
BLACK
6
CONTINUOUS
10
0.180006
20
0.673438
11
0.17832
21
0.672325
0
LINE
8
BLACK
6
CONTINUOUS
10
0.17832
20
0.672325
11
0.176314
21
0.672556
0
LINE
8
BLACK
6
CONTINUOUS
10
0.176314
20
0.672556
11
0.173187
21
0.674119
0
LINE
8
BLACK
6
CONTINUOUS
10
0.173187
20
0.674119
11
0.168739
21
0.674119
0
LINE
8
BLACK
6
CONTINUOUS
10
0.168739
20
0.674119
11
0.164231
21
0.672616
0
LINE
8
BLACK
6
CONTINUOUS
10
0.164231
20
0.672616
11
0.161313
21
0.669698
0
LINE
8
BLACK
6
CONTINUOUS
10
0.161313
20
0.669698
11
0.159798
21
0.666667
0
LINE
8
BLACK
6
CONTINUOUS
10
0.159798
20
0.666667
11
0.15809
21
0.659835
0
LINE
8
BLACK
6
CONTINUOUS
10
0.15809
20
0.659835
11
0.15809
21
0.654938
0
LINE
8
BLACK
6
CONTINUOUS
10
0.15809
20
0.654938
11
0.159798
21
0.648106
0
LINE
8
BLACK
6
CONTINUOUS
10
0.159798
20
0.648106
11
0.161313
21
0.645075
0
LINE
8
BLACK
6
CONTINUOUS
10
0.161313
20
0.645075
11
0.164231
21
0.642157
0
LINE
8
BLACK
6
CONTINUOUS
10
0.164231
20
0.642157
11
0.168739
21
0.640654
0
LINE
8
BLACK
6
CONTINUOUS
10
0.168739
20
0.640654
11
0.171531
21
0.640654
0
LINE
8
BLACK
6
CONTINUOUS
10
0.171531
20
0.640654
11
0.176039
21
0.642157
0
LINE
8
BLACK
6
CONTINUOUS
10
0.176039
20
0.642157
11
0.176556
21
0.642674
0
LINE
8
BLACK
6
CONTINUOUS
10
0.176556
20
0.642674
11
0.176556
21
0.651622
0
LINE
8
BLACK
6
CONTINUOUS
10
0.176556
20
0.651622
11
0.17201
21
0.651622
0
LINE
8
BLACK
6
CONTINUOUS
10
0.17201
20
0.651622
11
0.171
21
0.6518
0
LINE
8
BLACK
6
CONTINUOUS
10
0.171
20
0.6518
11
0.169453
21
0.653098
0
LINE
8
BLACK
6
CONTINUOUS
10
0.169453
20
0.653098
11
0.169102
21
0.655087
0
LINE
8
BLACK
6
CONTINUOUS
10
0.169102
20
0.655087
11
0.170112
21
0.656836
0
LINE
8
BLACK
6
CONTINUOUS
10
0.170112
20
0.656836
11
0.17201
21
0.657527
0
LINE
8
BLACK
6
CONTINUOUS
10
0.17201
20
0.657527
11
0.179509
21
0.657527
0
LINE
8
BLACK
6
CONTINUOUS
10
0.179509
20
0.657527
11
0.179892
21
0.65746
0
LINE
8
BLACK
6
CONTINUOUS
10
0.179892
20
0.65746
11
0.180022
21
0.657482
0
LINE
8
BLACK
6
CONTINUOUS
10
0.180022
20
0.657482
11
0.180135
21
0.657417
0
LINE
8
BLACK
6
CONTINUOUS
10
0.180135
20
0.657417
11
0.180519
21
0.657349
0
LINE
8
BLACK
6
CONTINUOUS
10
0.180519
20
0.657349
11
0.181106
21
0.656856
0
LINE
8
BLACK
6
CONTINUOUS
10
0.181106
20
0.656856
11
0.181771
21
0.656472
0
LINE
8
BLACK
6
CONTINUOUS
10
0.181771
20
0.656472
11
0.181862
21
0.656222
0
LINE
8
BLACK
6
CONTINUOUS
10
0.181862
20
0.656222
11
0.182066
21
0.656051
0
LINE
8
BLACK
6
CONTINUOUS
10
0.182066
20
0.656051
11
0.182199
21
0.655295
0
LINE
8
BLACK
6
CONTINUOUS
10
0.182199
20
0.655295
11
0.182462
21
0.654574
0
LINE
8
BLACK
6
CONTINUOUS
10
0.182462
20
0.654574
11
0.182462
21
0.641451
0
LINE
8
BLACK
6
CONTINUOUS
10
0.182462
20
0.641451
11
0.18243
21
0.641271
0
LINE
8
BLACK
6
CONTINUOUS
10
0.18243
20
0.641271
11
0.18245
21
0.641194
0
LINE
8
BLACK
6
CONTINUOUS
10
0.18245
20
0.641194
11
0.182395
21
0.641076
0
LINE
8
BLACK
6
CONTINUOUS
10
0.182395
20
0.641076
11
0.182283
21
0.640441
0
LINE
8
BLACK
6
CONTINUOUS
10
0.182283
20
0.640441
11
0.181869
21
0.639947
0
LINE
8
BLACK
6
CONTINUOUS
10
0.181869
20
0.639947
11
0.181597
21
0.639363
0
LINE
8
BLACK
6
CONTINUOUS
10
0.181597
20
0.639363
11
0.179722
21
0.637488
0
LINE
8
BLACK
6
CONTINUOUS
10
0.179722
20
0.637488
11
0.178882
21
0.6369
0
LINE
8
BLACK
6
CONTINUOUS
10
0.178882
20
0.6369
11
0.178706
21
0.636885
0
LINE
8
BLACK
6
CONTINUOUS
10
0.178706
20
0.636885
11
0.178568
21
0.636775
0
LINE
8
BLACK
6
CONTINUOUS
10
0.178568
20
0.636775
11
0.172943
21
0.6349
0
LINE
8
BLACK
6
CONTINUOUS
10
0.172943
20
0.6349
11
0.17207
21
0.634771
0
LINE
8
BLACK
6
CONTINUOUS
10
0.17207
20
0.634771
11
0.17201
21
0.634749
0
LINE
8
BLACK
6
CONTINUOUS
10
0.17201
20
0.634749
11
0.16826
21
0.634749
0
LINE
8
BLACK
6
CONTINUOUS
10
0.16826
20
0.634749
11
0.167391
21
0.634902
0
LINE
8
BLACK
6
CONTINUOUS
10
0.167391
20
0.634902
11
0.167326
21
0.6349
0
LINE
8
BLACK
6
CONTINUOUS
10
0.167326
20
0.6349
11
0.161702
21
0.636775
0
LINE
8
BLACK
6
CONTINUOUS
10
0.161702
20
0.636775
11
0.1608
21
0.637263
0
LINE
8
BLACK
6
CONTINUOUS
10
0.1608
20
0.637263
11
0.160708
21
0.637414
0
LINE
8
BLACK
6
CONTINUOUS
10
0.160708
20
0.637414
11
0.160548
21
0.637488
0
LINE
8
BLACK
6
CONTINUOUS
10
0.160548
20
0.637488
11
0.156798
21
0.641238
0
LINE
8
BLACK
6
CONTINUOUS
10
0.156798
20
0.641238
11
0.156292
21
0.641961
0
LINE
8
BLACK
6
CONTINUOUS
10
0.156292
20
0.641961
11
0.156245
21
0.642005
0
LINE
8
BLACK
6
CONTINUOUS
10
0.156245
20
0.642005
11
0.154371
21
0.645755
0
LINE
8
BLACK
6
CONTINUOUS
10
0.154371
20
0.645755
11
0.154225
21
0.646243
0
LINE
8
BLACK
6
CONTINUOUS
10
0.154225
20
0.646243
11
0.154147
21
0.646359
0
LINE
8
BLACK
6
CONTINUOUS
10
0.154147
20
0.646359
11
0.152272
21
0.653858
0
LINE
8
BLACK
6
CONTINUOUS
10
0.152272
20
0.653858
11
0.152231
21
0.654446
0
LINE
8
BLACK
6
CONTINUOUS
10
0.152231
20
0.654446
11
0.152184
21
0.654574
0
LINE
8
BLACK
6
CONTINUOUS
10
0.152184
20
0.654574
11
0.152184
21
0.660199
0
LINE
8
BLACK
6
CONTINUOUS
10
0.152184
20
0.660199
11
0.152286
21
0.660779
0
LINE
8
BLACK
6
CONTINUOUS
10
0.152286
20
0.660779
11
0.152272
21
0.660915
0
LINE
8
BLACK
6
CONTINUOUS
10
0.152272
20
0.660915
11
0.154147
21
0.668414
0
LINE
8
BLACK
6
CONTINUOUS
10
0.154147
20
0.668414
11
0.154355
21
0.668879
0
LINE
8
BLACK
6
CONTINUOUS
10
0.154355
20
0.668879
11
0.154371
21
0.669018
0
LINE
8
BLACK
6
CONTINUOUS
10
0.154371
20
0.669018
11
0.156245
21
0.672768
0
LINE
8
BLACK
6
CONTINUOUS
10
0.156245
20
0.672768
11
0.156771
21
0.673477
0
LINE
8
BLACK
6
CONTINUOUS
10
0.156771
20
0.673477
11
0.156798
21
0.673535
0
LINE
8
BLACK
6
CONTINUOUS
10
0.156798
20
0.673535
11
0.160548
21
0.677285
0
LINE
8
BLACK
6
CONTINUOUS
10
0.160548
20
0.677285
11
0.161388
21
0.677873
0
LINE
8
BLACK
6
CONTINUOUS
10
0.161388
20
0.677873
11
0.161564
21
0.677888
0
LINE
8
BLACK
6
CONTINUOUS
10
0.161564
20
0.677888
11
0.161702
21
0.677998
0
LINE
8
BLACK
6
CONTINUOUS
10
0.161702
20
0.677998
11
0.167326
21
0.679873
0
LINE
8
BLACK
6
CONTINUOUS
10
0.167326
20
0.679873
11
0.1682
21
0.680002
0
LINE
8
BLACK
6
CONTINUOUS
10
0.1682
20
0.680002
11
0.16826
21
0.680024
0
LINE
8
BLACK
6
CONTINUOUS
10
0.16826
20
0.680024
11
0.173884
21
0.680024
0
LINE
8
BLACK
6
CONTINUOUS
10
0.173884
20
0.680024
11
0.174894
21
0.679846
0
LINE
8
BLACK
6
CONTINUOUS
10
0.24787
20
0.679871
11
0.247934
21
0.679873
0
LINE
8
BLACK
6
CONTINUOUS
10
0.247934
20
0.679873
11
0.253558
21
0.677998
0
LINE
8
BLACK
6
CONTINUOUS
10
0.253558
20
0.677998
11
0.25446
21
0.67751
0
LINE
8
BLACK
6
CONTINUOUS
10
0.25446
20
0.67751
11
0.254553
21
0.677359
0
LINE
8
BLACK
6
CONTINUOUS
10
0.254553
20
0.677359
11
0.254713
21
0.677285
0
LINE
8
BLACK
6
CONTINUOUS
10
0.254713
20
0.677285
11
0.258462
21
0.673535
0
LINE
8
BLACK
6
CONTINUOUS
10
0.258462
20
0.673535
11
0.258968
21
0.672812
0
LINE
8
BLACK
6
CONTINUOUS
10
0.258968
20
0.672812
11
0.259015
21
0.672768
0
LINE
8
BLACK
6
CONTINUOUS
10
0.259015
20
0.672768
11
0.26089
21
0.669018
0
LINE
8
BLACK
6
CONTINUOUS
10
0.26089
20
0.669018
11
0.261035
21
0.66853
0
LINE
8
BLACK
6
CONTINUOUS
10
0.261035
20
0.66853
11
0.261114
21
0.668414
0
LINE
8
BLACK
6
CONTINUOUS
10
0.261114
20
0.668414
11
0.262988
21
0.660915
0
LINE
8
BLACK
6
CONTINUOUS
10
0.262988
20
0.660915
11
0.26303
21
0.660327
0
LINE
8
BLACK
6
CONTINUOUS
10
0.26303
20
0.660327
11
0.263076
21
0.660199
0
LINE
8
BLACK
6
CONTINUOUS
10
0.263076
20
0.660199
11
0.263076
21
0.654574
0
LINE
8
BLACK
6
CONTINUOUS
10
0.263076
20
0.654574
11
0.262974
21
0.653994
0
LINE
8
BLACK
6
CONTINUOUS
10
0.262974
20
0.653994
11
0.262988
21
0.653858
0
LINE
8
BLACK
6
CONTINUOUS
10
0.262988
20
0.653858
11
0.261114
21
0.646359
0
LINE
8
BLACK
6
CONTINUOUS
10
0.261114
20
0.646359
11
0.260906
21
0.645894
0
LINE
8
BLACK
6
CONTINUOUS
10
0.260906
20
0.645894
11
0.26089
21
0.645755
0
LINE
8
BLACK
6
CONTINUOUS
10
0.26089
20
0.645755
11
0.259015
21
0.642005
0
LINE
8
BLACK
6
CONTINUOUS
10
0.259015
20
0.642005
11
0.258489
21
0.641296
0
LINE
8
BLACK
6
CONTINUOUS
10
0.258489
20
0.641296
11
0.258462
21
0.641238
0
LINE
8
BLACK
6
CONTINUOUS
10
0.258462
20
0.641238
11
0.254713
21
0.637488
0
LINE
8
BLACK
6
CONTINUOUS
10
0.254713
20
0.637488
11
0.253873
21
0.6369
0
LINE
8
BLACK
6
CONTINUOUS
10
0.253873
20
0.6369
11
0.253697
21
0.636885
0
LINE
8
BLACK
6
CONTINUOUS
10
0.253697
20
0.636885
11
0.253558
21
0.636775
0
LINE
8
BLACK
6
CONTINUOUS
10
0.253558
20
0.636775
11
0.247934
21
0.6349
0
LINE
8
BLACK
6
CONTINUOUS
10
0.247934
20
0.6349
11
0.247061
21
0.634771
0
LINE
8
BLACK
6
CONTINUOUS
10
0.247061
20
0.634771
11
0.247
21
0.634749
0
LINE
8
BLACK
6
CONTINUOUS
10
0.247
20
0.634749
11
0.237627
21
0.634749
0
LINE
8
BLACK
6
CONTINUOUS
10
0.237627
20
0.634749
11
0.237243
21
0.634816
0
LINE
8
BLACK
6
CONTINUOUS
10
0.237243
20
0.634816
11
0.237114
21
0.634794
0
LINE
8
BLACK
6
CONTINUOUS
10
0.237114
20
0.634794
11
0.237
21
0.634859
0
LINE
8
BLACK
6
CONTINUOUS
10
0.237
20
0.634859
11
0.236617
21
0.634927
0
LINE
8
BLACK
6
CONTINUOUS
10
0.236617
20
0.634927
11
0.236029
21
0.63542
0
LINE
8
BLACK
6
CONTINUOUS
10
0.236029
20
0.63542
11
0.235365
21
0.635804
0
LINE
8
BLACK
6
CONTINUOUS
10
0.235365
20
0.635804
11
0.235274
21
0.636054
0
LINE
8
BLACK
6
CONTINUOUS
10
0.235274
20
0.636054
11
0.235069
21
0.636225
0
LINE
8
BLACK
6
CONTINUOUS
10
0.235069
20
0.636225
11
0.234936
21
0.636981
0
LINE
8
BLACK
6
CONTINUOUS
10
0.234936
20
0.636981
11
0.234674
21
0.637702
0
LINE
8
BLACK
6
CONTINUOUS
10
0.234674
20
0.637702
11
0.234674
21
0.677072
0
LINE
8
BLACK
6
CONTINUOUS
10
0.234674
20
0.677072
11
0.234741
21
0.677455
0
LINE
8
BLACK
6
CONTINUOUS
10
0.234741
20
0.677455
11
0.234719
21
0.677584
0
LINE
8
BLACK
6
CONTINUOUS
10
0.234719
20
0.677584
11
0.234784
21
0.677698
0
LINE
8
BLACK
6
CONTINUOUS
10
0.234784
20
0.677698
11
0.234852
21
0.678082
0
LINE
8
BLACK
6
CONTINUOUS
10
0.234852
20
0.678082
11
0.235345
21
0.678669
0
LINE
8
BLACK
6
CONTINUOUS
10
0.235345
20
0.678669
11
0.235729
21
0.679334
0
LINE
8
BLACK
6
CONTINUOUS
10
0.235729
20
0.679334
11
0.235979
21
0.679425
0
LINE
8
BLACK
6
CONTINUOUS
10
0.235979
20
0.679425
11
0.23615
21
0.679629
0
LINE
8
BLACK
6
CONTINUOUS
10
0.23615
20
0.679629
11
0.236906
21
0.679762
0
LINE
8
BLACK
6
CONTINUOUS
10
0.236906
20
0.679762
11
0.237627
21
0.680024
0
LINE
8
BLACK
6
CONTINUOUS
10
0.237627
20
0.680024
11
0.247
21
0.680024
0
LINE
8
BLACK
6
CONTINUOUS
10
0.247
20
0.680024
11
0.24787
21
0.679871
0
LINE
8
BLACK
6
CONTINUOUS
10
0.240579
20
0.674119
11
0.240579
21
0.640654
0
LINE
8
BLACK
6
CONTINUOUS
10
0.240579
20
0.640654
11
0.246521
21
0.640654
0
LINE
8
BLACK
6
CONTINUOUS
10
0.246521
20
0.640654
11
0.25103
21
0.642157
0
LINE
8
BLACK
6
CONTINUOUS
10
0.25103
20
0.642157
11
0.253947
21
0.645075
0
LINE
8
BLACK
6
CONTINUOUS
10
0.253947
20
0.645075
11
0.255463
21
0.648106
0
LINE
8
BLACK
6
CONTINUOUS
10
0.255463
20
0.648106
11
0.257171
21
0.654938
0
LINE
8
BLACK
6
CONTINUOUS
10
0.257171
20
0.654938
11
0.257171
21
0.659835
0
LINE
8
BLACK
6
CONTINUOUS
10
0.257171
20
0.659835
11
0.255463
21
0.666667
0
LINE
8
BLACK
6
CONTINUOUS
10
0.255463
20
0.666667
11
0.253947
21
0.669698
0
LINE
8
BLACK
6
CONTINUOUS
10
0.253947
20
0.669698
11
0.25103
21
0.672616
0
LINE
8
BLACK
6
CONTINUOUS
10
0.25103
20
0.672616
11
0.246521
21
0.674119
0
LINE
8
BLACK
6
CONTINUOUS
10
0.246521
20
0.674119
11
0.240579
21
0.674119
0
LINE
8
BLACK
6
CONTINUOUS
10
0.286716
20
0.67995
11
0.286883
21
0.67998
0
LINE
8
BLACK
6
CONTINUOUS
10
0.286883
20
0.67998
11
0.287625
21
0.679551
0
LINE
8
BLACK
6
CONTINUOUS
10
0.287625
20
0.679551
11
0.28841
21
0.679207
0
LINE
8
BLACK
6
CONTINUOUS
10
0.28841
20
0.679207
11
0.288485
21
0.679055
0
LINE
8
BLACK
6
CONTINUOUS
10
0.288485
20
0.679055
11
0.288632
21
0.67897
0
LINE
8
BLACK
6
CONTINUOUS
10
0.288632
20
0.67897
11
0.288925
21
0.678165
0
LINE
8
BLACK
6
CONTINUOUS
10
0.288925
20
0.678165
11
0.289305
21
0.677396
0
LINE
8
BLACK
6
CONTINUOUS
10
0.289305
20
0.677396
11
0.289265
21
0.677231
0
LINE
8
BLACK
6
CONTINUOUS
10
0.289265
20
0.677231
11
0.289323
21
0.677072
0
LINE
8
BLACK
6
CONTINUOUS
10
0.289323
20
0.677072
11
0.289323
21
0.640654
0
LINE
8
BLACK
6
CONTINUOUS
10
0.289323
20
0.640654
11
0.297619
21
0.640654
0
LINE
8
BLACK
6
CONTINUOUS
10
0.297619
20
0.640654
11
0.298629
21
0.640476
0
LINE
8
BLACK
6
CONTINUOUS
10
0.298629
20
0.640476
11
0.300176
21
0.639178
0
LINE
8
BLACK
6
CONTINUOUS
10
0.300176
20
0.639178
11
0.300527
21
0.637189
0
LINE
8
BLACK
6
CONTINUOUS
10
0.300527
20
0.637189
11
0.299517
21
0.63544
0
LINE
8
BLACK
6
CONTINUOUS
10
0.299517
20
0.63544
11
0.297619
21
0.634749
0
LINE
8
BLACK
6
CONTINUOUS
10
0.297619
20
0.634749
11
0.275122
21
0.634749
0
LINE
8
BLACK
6
CONTINUOUS
10
0.275122
20
0.634749
11
0.274112
21
0.634927
0
LINE
8
BLACK
6
CONTINUOUS
10
0.274112
20
0.634927
11
0.272565
21
0.636225
0
LINE
8
BLACK
6
CONTINUOUS
10
0.272565
20
0.636225
11
0.272214
21
0.638214
0
LINE
8
BLACK
6
CONTINUOUS
10
0.272214
20
0.638214
11
0.273224
21
0.639964
0
LINE
8
BLACK
6
CONTINUOUS
10
0.273224
20
0.639964
11
0.275122
21
0.640654
0
LINE
8
BLACK
6
CONTINUOUS
10
0.275122
20
0.640654
11
0.283418
21
0.640654
0
LINE
8
BLACK
6
CONTINUOUS
10
0.283418
20
0.640654
11
0.283418
21
0.668068
0
LINE
8
BLACK
6
CONTINUOUS
10
0.283418
20
0.668068
11
0.280959
21
0.66561
0
LINE
8
BLACK
6
CONTINUOUS
10
0.280959
20
0.66561
11
0.280236
21
0.665104
0
LINE
8
BLACK
6
CONTINUOUS
10
0.280236
20
0.665104
11
0.280192
21
0.665057
0
LINE
8
BLACK
6
CONTINUOUS
10
0.280192
20
0.665057
11
0.276442
21
0.663182
0
LINE
8
BLACK
6
CONTINUOUS
10
0.276442
20
0.663182
11
0.275459
21
0.66289
0
LINE
8
BLACK
6
CONTINUOUS
10
0.275459
20
0.66289
11
0.273495
21
0.663359
0
LINE
8
BLACK
6
CONTINUOUS
10
0.273495
20
0.663359
11
0.272292
21
0.664981
0
LINE
8
BLACK
6
CONTINUOUS
10
0.272292
20
0.664981
11
0.272413
21
0.666997
0
LINE
8
BLACK
6
CONTINUOUS
10
0.272413
20
0.666997
11
0.273801
21
0.668464
0
LINE
8
BLACK
6
CONTINUOUS
10
0.273801
20
0.668464
11
0.277122
21
0.670125
0
LINE
8
BLACK
6
CONTINUOUS
10
0.277122
20
0.670125
11
0.280326
21
0.673329
0
LINE
8
BLACK
6
CONTINUOUS
10
0.280326
20
0.673329
11
0.283914
21
0.67871
0
LINE
8
BLACK
6
CONTINUOUS
10
0.283914
20
0.67871
11
0.284622
21
0.679451
0
LINE
8
BLACK
6
CONTINUOUS
10
0.284622
20
0.679451
11
0.284785
21
0.679499
0
LINE
8
BLACK
6
CONTINUOUS
10
0.284785
20
0.679499
11
0.284894
21
0.679629
0
LINE
8
BLACK
6
CONTINUOUS
10
0.284894
20
0.679629
11
0.285738
21
0.679778
0
LINE
8
BLACK
6
CONTINUOUS
10
0.285738
20
0.679778
11
0.28656
21
0.680018
0
LINE
8
BLACK
6
CONTINUOUS
10
0.28656
20
0.680018
11
0.286716
21
0.67995
0
LINE
8
BLACK
6
CONTINUOUS
10
0.221141
20
0.67897
11
0.221832
21
0.677072
0
LINE
8
BLACK
6
CONTINUOUS
10
0.221832
20
0.677072
11
0.221832
21
0.637702
0
LINE
8
BLACK
6
CONTINUOUS
10
0.221832
20
0.637702
11
0.221654
21
0.636692
0
LINE
8
BLACK
6
CONTINUOUS
10
0.221654
20
0.636692
11
0.221478
21
0.636482
0
LINE
8
BLACK
6
CONTINUOUS
10
0.221478
20
0.636482
11
0.221429
21
0.636214
0
LINE
8
BLACK
6
CONTINUOUS
10
0.221429
20
0.636214
11
0.220844
21
0.635727
0
LINE
8
BLACK
6
CONTINUOUS
10
0.220844
20
0.635727
11
0.220355
21
0.635144
0
LINE
8
BLACK
6
CONTINUOUS
10
0.220355
20
0.635144
11
0.220086
21
0.635097
0
LINE
8
BLACK
6
CONTINUOUS
10
0.220086
20
0.635097
11
0.219876
21
0.634922
0
LINE
8
BLACK
6
CONTINUOUS
10
0.219876
20
0.634922
11
0.219115
21
0.634926
0
LINE
8
BLACK
6
CONTINUOUS
10
0.219115
20
0.634926
11
0.218366
21
0.634794
0
LINE
8
BLACK
6
CONTINUOUS
10
0.218366
20
0.634794
11
0.21813
21
0.63493
0
LINE
8
BLACK
6
CONTINUOUS
10
0.21813
20
0.63493
11
0.217857
21
0.634931
0
LINE
8
BLACK
6
CONTINUOUS
10
0.217857
20
0.634931
11
0.217276
21
0.635423
0
LINE
8
BLACK
6
CONTINUOUS
10
0.217276
20
0.635423
11
0.216617
21
0.635804
0
LINE
8
BLACK
6
CONTINUOUS
10
0.216617
20
0.635804
11
0.216524
21
0.63606
0
LINE
8
BLACK
6
CONTINUOUS
10
0.216524
20
0.63606
11
0.216315
21
0.636237
0
LINE
8
BLACK
6
CONTINUOUS
10
0.216315
20
0.636237
11
0.199334
21
0.665953
0
LINE
8
BLACK
6
CONTINUOUS
10
0.199334
20
0.665953
11
0.199334
21
0.637702
0
LINE
8
BLACK
6
CONTINUOUS
10
0.199334
20
0.637702
11
0.199156
21
0.636692
0
LINE
8
BLACK
6
CONTINUOUS
10
0.199156
20
0.636692
11
0.197858
21
0.635144
0
LINE
8
BLACK
6
CONTINUOUS
10
0.197858
20
0.635144
11
0.195869
21
0.634794
0
LINE
8
BLACK
6
CONTINUOUS
10
0.195869
20
0.634794
11
0.19412
21
0.635804
0
LINE
8
BLACK
6
CONTINUOUS
10
0.19412
20
0.635804
11
0.193429
21
0.637702
0
LINE
8
BLACK
6
CONTINUOUS
10
0.193429
20
0.637702
11
0.193429
21
0.677072
0
LINE
8
BLACK
6
CONTINUOUS
10
0.193429
20
0.677072
11
0.193607
21
0.678082
0
LINE
8
BLACK
6
CONTINUOUS
10
0.193607
20
0.678082
11
0.193783
21
0.678291
0
LINE
8
BLACK
6
CONTINUOUS
10
0.193783
20
0.678291
11
0.193831
21
0.678559
0
LINE
8
BLACK
6
CONTINUOUS
10
0.193831
20
0.678559
11
0.194416
21
0.679046
0
LINE
8
BLACK
6
CONTINUOUS
10
0.194416
20
0.679046
11
0.194905
21
0.679629
0
LINE
8
BLACK
6
CONTINUOUS
10
0.194905
20
0.679629
11
0.195174
21
0.679676
0
LINE
8
BLACK
6
CONTINUOUS
10
0.195174
20
0.679676
11
0.195384
21
0.679851
0
LINE
8
BLACK
6
CONTINUOUS
10
0.195384
20
0.679851
11
0.196145
21
0.679847
0
LINE
8
BLACK
6
CONTINUOUS
10
0.196145
20
0.679847
11
0.196894
21
0.67998
0
LINE
8
BLACK
6
CONTINUOUS
10
0.196894
20
0.67998
11
0.197131
21
0.679843
0
LINE
8
BLACK
6
CONTINUOUS
10
0.197131
20
0.679843
11
0.197404
21
0.679842
0
LINE
8
BLACK
6
CONTINUOUS
10
0.197404
20
0.679842
11
0.197985
21
0.67935
0
LINE
8
BLACK
6
CONTINUOUS
10
0.197985
20
0.67935
11
0.198644
21
0.67897
0
LINE
8
BLACK
6
CONTINUOUS
10
0.198644
20
0.67897
11
0.198737
21
0.678713
0
LINE
8
BLACK
6
CONTINUOUS
10
0.198737
20
0.678713
11
0.198945
21
0.678537
0
LINE
8
BLACK
6
CONTINUOUS
10
0.198945
20
0.678537
11
0.215926
21
0.64882
0
LINE
8
BLACK
6
CONTINUOUS
10
0.215926
20
0.64882
11
0.215926
21
0.677072
0
LINE
8
BLACK
6
CONTINUOUS
10
0.215926
20
0.677072
11
0.216104
21
0.678082
0
LINE
8
BLACK
6
CONTINUOUS
10
0.216104
20
0.678082
11
0.217402
21
0.679629
0
LINE
8
BLACK
6
CONTINUOUS
10
0.217402
20
0.679629
11
0.219392
21
0.67998
0
LINE
8
BLACK
6
CONTINUOUS
10
0.219392
20
0.67998
11
0.221141
21
0.67897
0
LINE
8
BLACK
6
CONTINUOUS
10
0.455768
20
4.50837
11
0.456459
21
4.50647
0
LINE
8
BLACK
6
CONTINUOUS
10
0.456459
20
4.50647
11
0.456459
21
4.48022
0
LINE
8
BLACK
6
CONTINUOUS
10
0.456459
20
4.48022
11
0.45628
21
4.47921
0
LINE
8
BLACK
6
CONTINUOUS
10
0.45628
20
4.47921
11
0.454982
21
4.47766
0
LINE
8
BLACK
6
CONTINUOUS
10
0.454982
20
4.47766
11
0.452993
21
4.47731
0
LINE
8
BLACK
6
CONTINUOUS
10
0.452993
20
4.47731
11
0.451244
21
4.47832
0
LINE
8
BLACK
6
CONTINUOUS
10
0.451244
20
4.47832
11
0.451158
21
4.47856
0
LINE
8
BLACK
6
CONTINUOUS
10
0.451158
20
4.47856
11
0.449202
21
4.47758
0
LINE
8
BLACK
6
CONTINUOUS
10
0.449202
20
4.47758
11
0.448219
21
4.47729
0
LINE
8
BLACK
6
CONTINUOUS
10
0.448219
20
4.47729
11
0.448047
21
4.47733
0
LINE
8
BLACK
6
CONTINUOUS
10
0.448047
20
4.47733
11
0.447881
21
4.47727
0
LINE
8
BLACK
6
CONTINUOUS
10
0.447881
20
4.47727
11
0.442257
21
4.47727
0
LINE
8
BLACK
6
CONTINUOUS
10
0.442257
20
4.47727
11
0.441247
21
4.47745
0
LINE
8
BLACK
6
CONTINUOUS
10
0.441247
20
4.47745
11
0.441112
21
4.47756
0
LINE
8
BLACK
6
CONTINUOUS
10
0.441112
20
4.47756
11
0.440937
21
4.47758
0
LINE
8
BLACK
6
CONTINUOUS
10
0.440937
20
4.47758
11
0.437187
21
4.47945
0
LINE
8
BLACK
6
CONTINUOUS
10
0.437187
20
4.47945
11
0.436364
21
4.48007
0
LINE
8
BLACK
6
CONTINUOUS
10
0.436364
20
4.48007
11
0.436188
21
4.48047
0
LINE
8
BLACK
6
CONTINUOUS
10
0.436188
20
4.48047
11
0.435867
21
4.48078
0
LINE
8
BLACK
6
CONTINUOUS
10
0.435867
20
4.48078
11
0.433992
21
4.48453
0
LINE
8
BLACK
6
CONTINUOUS
10
0.433992
20
4.48453
11
0.4337
21
4.48551
0
LINE
8
BLACK
6
CONTINUOUS
10
0.4337
20
4.48551
11
0.433741
21
4.48568
0
LINE
8
BLACK
6
CONTINUOUS
10
0.433741
20
4.48568
11
0.43368
21
4.48585
0
LINE
8
BLACK
6
CONTINUOUS
10
0.43368
20
4.48585
11
0.43368
21
4.50647
0
LINE
8
BLACK
6
CONTINUOUS
10
0.43368
20
4.50647
11
0.433858
21
4.50748
0
LINE
8
BLACK
6
CONTINUOUS
10
0.433858
20
4.50748
11
0.435157
21
4.50903
0
LINE
8
BLACK
6
CONTINUOUS
10
0.435157
20
4.50903
11
0.437146
21
4.50938
0
LINE
8
BLACK
6
CONTINUOUS
10
0.437146
20
4.50938
11
0.438895
21
4.50837
0
LINE
8
BLACK
6
CONTINUOUS
10
0.438895
20
4.50837
11
0.439586
21
4.50647
0
LINE
8
BLACK
6
CONTINUOUS
10
0.439586
20
4.50647
11
0.439586
21
4.48654
0
LINE
8
BLACK
6
CONTINUOUS
10
0.439586
20
4.48654
11
0.440709
21
4.4843
0
LINE
8
BLACK
6
CONTINUOUS
10
0.440709
20
4.4843
11
0.442954
21
4.48317
0
LINE
8
BLACK
6
CONTINUOUS
10
0.442954
20
4.48317
11
0.447184
21
4.48317
0
LINE
8
BLACK
6
CONTINUOUS
10
0.447184
20
4.48317
11
0.449882
21
4.48452
0
LINE
8
BLACK
6
CONTINUOUS
10
0.449882
20
4.48452
11
0.450553
21
4.48519
0
LINE
8
BLACK
6
CONTINUOUS
10
0.450553
20
4.48519
11
0.450553
21
4.50647
0
LINE
8
BLACK
6
CONTINUOUS
10
0.450553
20
4.50647
11
0.450731
21
4.50748
0
LINE
8
BLACK
6
CONTINUOUS
10
0.450731
20
4.50748
11
0.452029
21
4.50903
0
LINE
8
BLACK
6
CONTINUOUS
10
0.452029
20
4.50903
11
0.454019
21
4.50938
0
LINE
8
BLACK
6
CONTINUOUS
10
0.454019
20
4.50938
11
0.455768
21
4.50837
0
LINE
8
BLACK
6
CONTINUOUS
10
0.510136
20
4.52149
11
0.510827
21
4.51959
0
LINE
8
BLACK
6
CONTINUOUS
10
0.510827
20
4.51959
11
0.510827
21
4.50942
0
LINE
8
BLACK
6
CONTINUOUS
10
0.510827
20
4.50942
11
0.517248
21
4.50942
0
LINE
8
BLACK
6
CONTINUOUS
10
0.517248
20
4.50942
11
0.518258
21
4.50924
0
LINE
8
BLACK
6
CONTINUOUS
10
0.518258
20
4.50924
11
0.519805
21
4.50794
0
LINE
8
BLACK
6
CONTINUOUS
10
0.519805
20
4.50794
11
0.520156
21
4.50596
0
LINE
8
BLACK
6
CONTINUOUS
10
0.520156
20
4.50596
11
0.519146
21
4.50421
0
LINE
8
BLACK
6
CONTINUOUS
10
0.519146
20
4.50421
11
0.517248
21
4.50352
0
LINE
8
BLACK
6
CONTINUOUS
10
0.517248
20
4.50352
11
0.510827
21
4.50352
0
LINE
8
BLACK
6
CONTINUOUS
10
0.510827
20
4.50352
11
0.510827
21
4.48654
0
LINE
8
BLACK
6
CONTINUOUS
10
0.510827
20
4.48654
11
0.51195
21
4.4843
0
LINE
8
BLACK
6
CONTINUOUS
10
0.51195
20
4.4843
11
0.514195
21
4.48317
0
LINE
8
BLACK
6
CONTINUOUS
10
0.514195
20
4.48317
11
0.517248
21
4.48317
0
LINE
8
BLACK
6
CONTINUOUS
10
0.517248
20
4.48317
11
0.518258
21
4.483
0
LINE
8
BLACK
6
CONTINUOUS
10
0.518258
20
4.483
11
0.519805
21
4.4817
0
LINE
8
BLACK
6
CONTINUOUS
10
0.519805
20
4.4817
11
0.520156
21
4.47971
0
LINE
8
BLACK
6
CONTINUOUS
10
0.520156
20
4.47971
11
0.519146
21
4.47796
0
LINE
8
BLACK
6
CONTINUOUS
10
0.519146
20
4.47796
11
0.517248
21
4.47727
0
LINE
8
BLACK
6
CONTINUOUS
10
0.517248
20
4.47727
11
0.513498
21
4.47727
0
LINE
8
BLACK
6
CONTINUOUS
10
0.513498
20
4.47727
11
0.512488
21
4.47745
0
LINE
8
BLACK
6
CONTINUOUS
10
0.512488
20
4.47745
11
0.512353
21
4.47756
0
LINE
8
BLACK
6
CONTINUOUS
10
0.512353
20
4.47756
11
0.512178
21
4.47758
0
LINE
8
BLACK
6
CONTINUOUS
10
0.512178
20
4.47758
11
0.508428
21
4.47945
0
LINE
8
BLACK
6
CONTINUOUS
10
0.508428
20
4.47945
11
0.507605
21
4.48007
0
LINE
8
BLACK
6
CONTINUOUS
10
0.507605
20
4.48007
11
0.507429
21
4.48047
0
LINE
8
BLACK
6
CONTINUOUS
10
0.507429
20
4.48047
11
0.507108
21
4.48078
0
LINE
8
BLACK
6
CONTINUOUS
10
0.507108
20
4.48078
11
0.505233
21
4.48453
0
LINE
8
BLACK
6
CONTINUOUS
10
0.505233
20
4.48453
11
0.504941
21
4.48551
0
LINE
8
BLACK
6
CONTINUOUS
10
0.504941
20
4.48551
11
0.504982
21
4.48568
0
LINE
8
BLACK
6
CONTINUOUS
10
0.504982
20
4.48568
11
0.504921
21
4.48585
0
LINE
8
BLACK
6
CONTINUOUS
10
0.504921
20
4.48585
11
0.504921
21
4.50352
0
LINE
8
BLACK
6
CONTINUOUS
10
0.504921
20
4.50352
11
0.50225
21
4.50352
0
LINE
8
BLACK
6
CONTINUOUS
10
0.50225
20
4.50352
11
0.50124
21
4.50369
0
LINE
8
BLACK
6
CONTINUOUS
10
0.50124
20
4.50369
11
0.499693
21
4.50499
0
LINE
8
BLACK
6
CONTINUOUS
10
0.499693
20
4.50499
11
0.499342
21
4.50698
0
LINE
8
BLACK
6
CONTINUOUS
10
0.499342
20
4.50698
11
0.500352
21
4.50873
0
LINE
8
BLACK
6
CONTINUOUS
10
0.500352
20
4.50873
11
0.50225
21
4.50942
0
LINE
8
BLACK
6
CONTINUOUS
10
0.50225
20
4.50942
11
0.504921
21
4.50942
0
LINE
8
BLACK
6
CONTINUOUS
10
0.504921
20
4.50942
11
0.504921
21
4.51959
0
LINE
8
BLACK
6
CONTINUOUS
10
0.504921
20
4.51959
11
0.505099
21
4.5206
0
LINE
8
BLACK
6
CONTINUOUS
10
0.505099
20
4.5206
11
0.506398
21
4.52215
0
LINE
8
BLACK
6
CONTINUOUS
10
0.506398
20
4.52215
11
0.508387
21
4.5225
0
LINE
8
BLACK
6
CONTINUOUS
10
0.508387
20
4.5225
11
0.510136
21
4.52149
0
LINE
8
BLACK
6
CONTINUOUS
10
1.49439
20
4.52149
11
1.49508
21
4.51959
0
LINE
8
BLACK
6
CONTINUOUS
10
1.49508
20
4.51959
11
1.49508
21
4.50942
0
LINE
8
BLACK
6
CONTINUOUS
10
1.49508
20
4.50942
11
1.5015
21
4.50942
0
LINE
8
BLACK
6
CONTINUOUS
10
1.5015
20
4.50942
11
1.50251
21
4.50924
0
LINE
8
BLACK
6
CONTINUOUS
10
1.50251
20
4.50924
11
1.50406
21
4.50794
0
LINE
8
BLACK
6
CONTINUOUS
10
1.50406
20
4.50794
11
1.50441
21
4.50596
0
LINE
8
BLACK
6
CONTINUOUS
10
1.50441
20
4.50596
11
1.5034
21
4.50421
0
LINE
8
BLACK
6
CONTINUOUS
10
1.5034
20
4.50421
11
1.5015
21
4.50352
0
LINE
8
BLACK
6
CONTINUOUS
10
1.5015
20
4.50352
11
1.49508
21
4.50352
0
LINE
8
BLACK
6
CONTINUOUS
10
1.49508
20
4.50352
11
1.49508
21
4.48654
0
LINE
8
BLACK
6
CONTINUOUS
10
1.49508
20
4.48654
11
1.4962
21
4.4843
0
LINE
8
BLACK
6
CONTINUOUS
10
1.4962
20
4.4843
11
1.49845
21
4.48317
0
LINE
8
BLACK
6
CONTINUOUS
10
1.49845
20
4.48317
11
1.5015
21
4.48317
0
LINE
8
BLACK
6
CONTINUOUS
10
1.5015
20
4.48317
11
1.50251
21
4.483
0
LINE
8
BLACK
6
CONTINUOUS
10
1.50251
20
4.483
11
1.50406
21
4.4817
0
LINE
8
BLACK
6
CONTINUOUS
10
1.50406
20
4.4817
11
1.50441
21
4.47971
0
LINE
8
BLACK
6
CONTINUOUS
10
1.50441
20
4.47971
11
1.5034
21
4.47796
0
LINE
8
BLACK
6
CONTINUOUS
10
1.5034
20
4.47796
11
1.5015
21
4.47727
0
LINE
8
BLACK
6
CONTINUOUS
10
1.5015
20
4.47727
11
1.49775
21
4.47727
0
LINE
8
BLACK
6
CONTINUOUS
10
1.49775
20
4.47727
11
1.49674
21
4.47745
0
LINE
8
BLACK
6
CONTINUOUS
10
1.49674
20
4.47745
11
1.49661
21
4.47756
0
LINE
8
BLACK
6
CONTINUOUS
10
1.49661
20
4.47756
11
1.49643
21
4.47758
0
LINE
8
BLACK
6
CONTINUOUS
10
1.49643
20
4.47758
11
1.49268
21
4.47945
0
LINE
8
BLACK
6
CONTINUOUS
10
1.49268
20
4.47945
11
1.49186
21
4.48007
0
LINE
8
BLACK
6
CONTINUOUS
10
1.49186
20
4.48007
11
1.49168
21
4.48047
0
LINE
8
BLACK
6
CONTINUOUS
10
1.49168
20
4.48047
11
1.49136
21
4.48078
0
LINE
8
BLACK
6
CONTINUOUS
10
1.49136
20
4.48078
11
1.48948
21
4.48453
0
LINE
8
BLACK
6
CONTINUOUS
10
1.48948
20
4.48453
11
1.48919
21
4.48551
0
LINE
8
BLACK
6
CONTINUOUS
10
1.48919
20
4.48551
11
1.48923
21
4.48568
0
LINE
8
BLACK
6
CONTINUOUS
10
1.48923
20
4.48568
11
1.48917
21
4.48585
0
LINE
8
BLACK
6
CONTINUOUS
10
1.48917
20
4.48585
11
1.48917
21
4.50352
0
LINE
8
BLACK
6
CONTINUOUS
10
1.48917
20
4.50352
11
1.4865
21
4.50352
0
LINE
8
BLACK
6
CONTINUOUS
10
1.4865
20
4.50352
11
1.48549
21
4.50369
0
LINE
8
BLACK
6
CONTINUOUS
10
1.48549
20
4.50369
11
1.48394
21
4.50499
0
LINE
8
BLACK
6
CONTINUOUS
10
1.48394
20
4.50499
11
1.48359
21
4.50698
0
LINE
8
BLACK
6
CONTINUOUS
10
1.48359
20
4.50698
11
1.4846
21
4.50873
0
LINE
8
BLACK
6
CONTINUOUS
10
1.4846
20
4.50873
11
1.4865
21
4.50942
0
LINE
8
BLACK
6
CONTINUOUS
10
1.4865
20
4.50942
11
1.48917
21
4.50942
0
LINE
8
BLACK
6
CONTINUOUS
10
1.48917
20
4.50942
11
1.48917
21
4.51959
0
LINE
8
BLACK
6
CONTINUOUS
10
1.48917
20
4.51959
11
1.48935
21
4.5206
0
LINE
8
BLACK
6
CONTINUOUS
10
1.48935
20
4.5206
11
1.49065
21
4.52215
0
LINE
8
BLACK
6
CONTINUOUS
10
1.49065
20
4.52215
11
1.49264
21
4.5225
0
LINE
8
BLACK
6
CONTINUOUS
10
1.49264
20
4.5225
11
1.49439
21
4.52149
0
LINE
8
BLACK
6
CONTINUOUS
10
0.413271
20
4.50924
11
0.413406
21
4.50913
0
LINE
8
BLACK
6
CONTINUOUS
10
0.413406
20
4.50913
11
0.413581
21
4.50911
0
LINE
8
BLACK
6
CONTINUOUS
10
0.413581
20
4.50911
11
0.417331
21
4.50723
0
LINE
8
BLACK
6
CONTINUOUS
10
0.417331
20
4.50723
11
0.41804
21
4.50671
0
LINE
8
BLACK
6
CONTINUOUS
10
0.41804
20
4.50671
11
0.418098
21
4.50668
0
LINE
8
BLACK
6
CONTINUOUS
10
0.418098
20
4.50668
11
0.419973
21
4.50481
0
LINE
8
BLACK
6
CONTINUOUS
10
0.419973
20
4.50481
11
0.420479
21
4.50408
0
LINE
8
BLACK
6
CONTINUOUS
10
0.420479
20
4.50408
11
0.420526
21
4.50404
0
LINE
8
BLACK
6
CONTINUOUS
10
0.420526
20
4.50404
11
0.422401
21
4.50029
0
LINE
8
BLACK
6
CONTINUOUS
10
0.422401
20
4.50029
11
0.422693
21
4.49931
0
LINE
8
BLACK
6
CONTINUOUS
10
0.422693
20
4.49931
11
0.422652
21
4.49913
0
LINE
8
BLACK
6
CONTINUOUS
10
0.422652
20
4.49913
11
0.422713
21
4.49897
0
LINE
8
BLACK
6
CONTINUOUS
10
0.422713
20
4.49897
11
0.422713
21
4.48772
0
LINE
8
BLACK
6
CONTINUOUS
10
0.422713
20
4.48772
11
0.422535
21
4.48671
0
LINE
8
BLACK
6
CONTINUOUS
10
0.422535
20
4.48671
11
0.422421
21
4.48658
0
LINE
8
BLACK
6
CONTINUOUS
10
0.422421
20
4.48658
11
0.422401
21
4.4864
0
LINE
8
BLACK
6
CONTINUOUS
10
0.422401
20
4.4864
11
0.420526
21
4.48265
0
LINE
8
BLACK
6
CONTINUOUS
10
0.420526
20
4.48265
11
0.42
21
4.48194
0
LINE
8
BLACK
6
CONTINUOUS
10
0.42
20
4.48194
11
0.419973
21
4.48188
0
LINE
8
BLACK
6
CONTINUOUS
10
0.419973
20
4.48188
11
0.418098
21
4.48001
0
LINE
8
BLACK
6
CONTINUOUS
10
0.418098
20
4.48001
11
0.417375
21
4.4795
0
LINE
8
BLACK
6
CONTINUOUS
10
0.417375
20
4.4795
11
0.417331
21
4.47945
0
LINE
8
BLACK
6
CONTINUOUS
10
0.417331
20
4.47945
11
0.413581
21
4.47758
0
LINE
8
BLACK
6
CONTINUOUS
10
0.413581
20
4.47758
11
0.412599
21
4.47729
0
LINE
8
BLACK
6
CONTINUOUS
10
0.412599
20
4.47729
11
0.412427
21
4.47733
0
LINE
8
BLACK
6
CONTINUOUS
10
0.412427
20
4.47733
11
0.412261
21
4.47727
0
LINE
8
BLACK
6
CONTINUOUS
10
0.412261
20
4.47727
11
0.406637
21
4.47727
0
LINE
8
BLACK
6
CONTINUOUS
10
0.406637
20
4.47727
11
0.405627
21
4.47745
0
LINE
8
BLACK
6
CONTINUOUS
10
0.405627
20
4.47745
11
0.405491
21
4.47756
0
LINE
8
BLACK
6
CONTINUOUS
10
0.405491
20
4.47756
11
0.405316
21
4.47758
0
LINE
8
BLACK
6
CONTINUOUS
10
0.405316
20
4.47758
11
0.401567
21
4.47945
0
LINE
8
BLACK
6
CONTINUOUS
10
0.401567
20
4.47945
11
0.400858
21
4.47998
0
LINE
8
BLACK
6
CONTINUOUS
10
0.400858
20
4.47998
11
0.400799
21
4.48001
0
LINE
8
BLACK
6
CONTINUOUS
10
0.400799
20
4.48001
11
0.398924
21
4.48188
0
LINE
8
BLACK
6
CONTINUOUS
10
0.398924
20
4.48188
11
0.398418
21
4.48261
0
LINE
8
BLACK
6
CONTINUOUS
10
0.398418
20
4.48261
11
0.398371
21
4.48265
0
LINE
8
BLACK
6
CONTINUOUS
10
0.398371
20
4.48265
11
0.396497
21
4.4864
0
LINE
8
BLACK
6
CONTINUOUS
10
0.396497
20
4.4864
11
0.396204
21
4.48738
0
LINE
8
BLACK
6
CONTINUOUS
10
0.396204
20
4.48738
11
0.396245
21
4.48755
0
LINE
8
BLACK
6
CONTINUOUS
10
0.396245
20
4.48755
11
0.396185
21
4.48772
0
LINE
8
BLACK
6
CONTINUOUS
10
0.396185
20
4.48772
11
0.396185
21
4.49897
0
LINE
8
BLACK
6
CONTINUOUS
10
0.396185
20
4.49897
11
0.396363
21
4.49998
0
LINE
8
BLACK
6
CONTINUOUS
10
0.396363
20
4.49998
11
0.396476
21
4.50011
0
LINE
8
BLACK
6
CONTINUOUS
10
0.396476
20
4.50011
11
0.396497
21
4.50029
0
LINE
8
BLACK
6
CONTINUOUS
10
0.396497
20
4.50029
11
0.398371
21
4.50404
0
LINE
8
BLACK
6
CONTINUOUS
10
0.398371
20
4.50404
11
0.398897
21
4.50475
0
LINE
8
BLACK
6
CONTINUOUS
10
0.398897
20
4.50475
11
0.398924
21
4.50481
0
LINE
8
BLACK
6
CONTINUOUS
10
0.398924
20
4.50481
11
0.400799
21
4.50668
0
LINE
8
BLACK
6
CONTINUOUS
10
0.400799
20
4.50668
11
0.401522
21
4.50719
0
LINE
8
BLACK
6
CONTINUOUS
10
0.401522
20
4.50719
11
0.401567
21
4.50723
0
LINE
8
BLACK
6
CONTINUOUS
10
0.401567
20
4.50723
11
0.405316
21
4.50911
0
LINE
8
BLACK
6
CONTINUOUS
10
0.405316
20
4.50911
11
0.406299
21
4.5094
0
LINE
8
BLACK
6
CONTINUOUS
10
0.406299
20
4.5094
11
0.406471
21
4.50936
0
LINE
8
BLACK
6
CONTINUOUS
10
0.406471
20
4.50936
11
0.406637
21
4.50942
0
LINE
8
BLACK
6
CONTINUOUS
10
0.406637
20
4.50942
11
0.412261
21
4.50942
0
LINE
8
BLACK
6
CONTINUOUS
10
0.412261
20
4.50942
11
0.413271
21
4.50924
0
LINE
8
BLACK
6
CONTINUOUS
10
0.407334
20
4.50352
11
0.404636
21
4.50217
0
LINE
8
BLACK
6
CONTINUOUS
10
0.404636
20
4.50217
11
0.403439
21
4.50097
0
LINE
8
BLACK
6
CONTINUOUS
10
0.403439
20
4.50097
11
0.40209
21
4.49827
0
LINE
8
BLACK
6
CONTINUOUS
10
0.40209
20
4.49827
11
0.40209
21
4.48842
0
LINE
8
BLACK
6
CONTINUOUS
10
0.40209
20
4.48842
11
0.403439
21
4.48572
0
LINE
8
BLACK
6
CONTINUOUS
10
0.403439
20
4.48572
11
0.404636
21
4.48452
0
LINE
8
BLACK
6
CONTINUOUS
10
0.404636
20
4.48452
11
0.407334
21
4.48317
0
LINE
8
BLACK
6
CONTINUOUS
10
0.407334
20
4.48317
11
0.411564
21
4.48317
0
LINE
8
BLACK
6
CONTINUOUS
10
0.411564
20
4.48317
11
0.414261
21
4.48452
0
LINE
8
BLACK
6
CONTINUOUS
10
0.414261
20
4.48452
11
0.415459
21
4.48572
0
LINE
8
BLACK
6
CONTINUOUS
10
0.415459
20
4.48572
11
0.416807
21
4.48842
0
LINE
8
BLACK
6
CONTINUOUS
10
0.416807
20
4.48842
11
0.416807
21
4.49827
0
LINE
8
BLACK
6
CONTINUOUS
10
0.416807
20
4.49827
11
0.415459
21
4.50097
0
LINE
8
BLACK
6
CONTINUOUS
10
0.415459
20
4.50097
11
0.414261
21
4.50217
0
LINE
8
BLACK
6
CONTINUOUS
10
0.414261
20
4.50217
11
0.411564
21
4.50352
0
LINE
8
BLACK
6
CONTINUOUS
10
0.411564
20
4.50352
11
0.407334
21
4.50352
0
LINE
8
BLACK
6
CONTINUOUS
10
1.64629
20
4.52247
11
1.64643
21
4.52249
0
LINE
8
BLACK
6
CONTINUOUS
10
1.64643
20
4.52249
11
1.64653
21
4.52242
0
LINE
8
BLACK
6
CONTINUOUS
10
1.64653
20
4.52242
11
1.64687
21
4.52237
0
LINE
8
BLACK
6
CONTINUOUS
10
1.64687
20
4.52237
11
1.64748
21
4.52185
0
LINE
8
BLACK
6
CONTINUOUS
10
1.64748
20
4.52185
11
1.64816
21
4.52144
0
LINE
8
BLACK
6
CONTINUOUS
10
1.64816
20
4.52144
11
1.64823
21
4.52122
0
LINE
8
BLACK
6
CONTINUOUS
10
1.64823
20
4.52122
11
1.64841
21
4.52107
0
LINE
8
BLACK
6
CONTINUOUS
10
1.64841
20
4.52107
11
1.64855
21
4.52028
0
LINE
8
BLACK
6
CONTINUOUS
10
1.64855
20
4.52028
11
1.64881
21
4.51953
0
LINE
8
BLACK
6
CONTINUOUS
10
1.64881
20
4.51953
11
1.64872
21
4.51931
0
LINE
8
BLACK
6
CONTINUOUS
10
1.64872
20
4.51931
11
1.64876
21
4.51908
0
LINE
8
BLACK
6
CONTINUOUS
10
1.64876
20
4.51908
11
1.64837
21
4.51839
0
LINE
8
BLACK
6
CONTINUOUS
10
1.64837
20
4.51839
11
1.64808
21
4.51765
0
LINE
8
BLACK
6
CONTINUOUS
10
1.64808
20
4.51765
11
1.63912
21
4.50741
0
LINE
8
BLACK
6
CONTINUOUS
10
1.63912
20
4.50741
11
1.63937
21
4.50737
0
LINE
8
BLACK
6
CONTINUOUS
10
1.63937
20
4.50737
11
1.6395
21
4.50725
0
LINE
8
BLACK
6
CONTINUOUS
10
1.6395
20
4.50725
11
1.63968
21
4.50723
0
LINE
8
BLACK
6
CONTINUOUS
10
1.63968
20
4.50723
11
1.64343
21
4.50536
0
LINE
8
BLACK
6
CONTINUOUS
10
1.64343
20
4.50536
11
1.64414
21
4.50483
0
LINE
8
BLACK
6
CONTINUOUS
10
1.64414
20
4.50483
11
1.6442
21
4.50481
0
LINE
8
BLACK
6
CONTINUOUS
10
1.6442
20
4.50481
11
1.64607
21
4.50293
0
LINE
8
BLACK
6
CONTINUOUS
10
1.64607
20
4.50293
11
1.64658
21
4.50221
0
LINE
8
BLACK
6
CONTINUOUS
10
1.64658
20
4.50221
11
1.64662
21
4.50216
0
LINE
8
BLACK
6
CONTINUOUS
10
1.64662
20
4.50216
11
1.6485
21
4.49841
0
LINE
8
BLACK
6
CONTINUOUS
10
1.6485
20
4.49841
11
1.64879
21
4.49743
0
LINE
8
BLACK
6
CONTINUOUS
10
1.64879
20
4.49743
11
1.64875
21
4.49726
0
LINE
8
BLACK
6
CONTINUOUS
10
1.64875
20
4.49726
11
1.64881
21
4.49709
0
LINE
8
BLACK
6
CONTINUOUS
10
1.64881
20
4.49709
11
1.64881
21
4.48772
0
LINE
8
BLACK
6
CONTINUOUS
10
1.64881
20
4.48772
11
1.64863
21
4.48671
0
LINE
8
BLACK
6
CONTINUOUS
10
1.64863
20
4.48671
11
1.64852
21
4.48658
0
LINE
8
BLACK
6
CONTINUOUS
10
1.64852
20
4.48658
11
1.6485
21
4.4864
0
LINE
8
BLACK
6
CONTINUOUS
10
1.6485
20
4.4864
11
1.64662
21
4.48265
0
LINE
8
BLACK
6
CONTINUOUS
10
1.64662
20
4.48265
11
1.6461
21
4.48194
0
LINE
8
BLACK
6
CONTINUOUS
10
1.6461
20
4.48194
11
1.64607
21
4.48188
0
LINE
8
BLACK
6
CONTINUOUS
10
1.64607
20
4.48188
11
1.6442
21
4.48001
0
LINE
8
BLACK
6
CONTINUOUS
10
1.6442
20
4.48001
11
1.64347
21
4.4795
0
LINE
8
BLACK
6
CONTINUOUS
10
1.64347
20
4.4795
11
1.64343
21
4.47945
0
LINE
8
BLACK
6
CONTINUOUS
10
1.64343
20
4.47945
11
1.63968
21
4.47758
0
LINE
8
BLACK
6
CONTINUOUS
10
1.63968
20
4.47758
11
1.6387
21
4.47729
0
LINE
8
BLACK
6
CONTINUOUS
10
1.6387
20
4.47729
11
1.63852
21
4.47733
0
LINE
8
BLACK
6
CONTINUOUS
10
1.63852
20
4.47733
11
1.63836
21
4.47727
0
LINE
8
BLACK
6
CONTINUOUS
10
1.63836
20
4.47727
11
1.62711
21
4.47727
0
LINE
8
BLACK
6
CONTINUOUS
10
1.62711
20
4.47727
11
1.6261
21
4.47745
0
LINE
8
BLACK
6
CONTINUOUS
10
1.6261
20
4.47745
11
1.62596
21
4.47756
0
LINE
8
BLACK
6
CONTINUOUS
10
1.62596
20
4.47756
11
1.62579
21
4.47758
0
LINE
8
BLACK
6
CONTINUOUS
10
1.62579
20
4.47758
11
1.62204
21
4.47945
0
LINE
8
BLACK
6
CONTINUOUS
10
1.62204
20
4.47945
11
1.62133
21
4.47998
0
LINE
8
BLACK
6
CONTINUOUS
10
1.62133
20
4.47998
11
1.62127
21
4.48001
0
LINE
8
BLACK
6
CONTINUOUS
10
1.62127
20
4.48001
11
1.6194
21
4.48188
0
LINE
8
BLACK
6
CONTINUOUS
10
1.6194
20
4.48188
11
1.61881
21
4.48272
0
LINE
8
BLACK
6
CONTINUOUS
10
1.61881
20
4.48272
11
1.61863
21
4.48473
0
LINE
8
BLACK
6
CONTINUOUS
10
1.61863
20
4.48473
11
1.61979
21
4.48639
0
LINE
8
BLACK
6
CONTINUOUS
10
1.61979
20
4.48639
11
1.62174
21
4.48691
0
LINE
8
BLACK
6
CONTINUOUS
10
1.62174
20
4.48691
11
1.62357
21
4.48606
0
LINE
8
BLACK
6
CONTINUOUS
10
1.62357
20
4.48606
11
1.62511
21
4.48452
0
LINE
8
BLACK
6
CONTINUOUS
10
1.62511
20
4.48452
11
1.62781
21
4.48317
0
LINE
8
BLACK
6
CONTINUOUS
10
1.62781
20
4.48317
11
1.63766
21
4.48317
0
LINE
8
BLACK
6
CONTINUOUS
10
1.63766
20
4.48317
11
1.64036
21
4.48452
0
LINE
8
BLACK
6
CONTINUOUS
10
1.64036
20
4.48452
11
1.64156
21
4.48572
0
LINE
8
BLACK
6
CONTINUOUS
10
1.64156
20
4.48572
11
1.6429
21
4.48842
0
LINE
8
BLACK
6
CONTINUOUS
10
1.6429
20
4.48842
11
1.6429
21
4.4964
0
LINE
8
BLACK
6
CONTINUOUS
10
1.6429
20
4.4964
11
1.64156
21
4.49909
0
LINE
8
BLACK
6
CONTINUOUS
10
1.64156
20
4.49909
11
1.64036
21
4.50029
0
LINE
8
BLACK
6
CONTINUOUS
10
1.64036
20
4.50029
11
1.63766
21
4.50164
0
LINE
8
BLACK
6
CONTINUOUS
10
1.63766
20
4.50164
11
1.63273
21
4.50164
0
LINE
8
BLACK
6
CONTINUOUS
10
1.63273
20
4.50164
11
1.6323
21
4.50172
0
LINE
8
BLACK
6
CONTINUOUS
10
1.6323
20
4.50172
11
1.63216
21
4.5017
0
LINE
8
BLACK
6
CONTINUOUS
10
1.63216
20
4.5017
11
1.63206
21
4.50176
0
LINE
8
BLACK
6
CONTINUOUS
10
1.63206
20
4.50176
11
1.63172
21
4.50182
0
LINE
8
BLACK
6
CONTINUOUS
10
1.63172
20
4.50182
11
1.63111
21
4.50233
0
LINE
8
BLACK
6
CONTINUOUS
10
1.63111
20
4.50233
11
1.63043
21
4.50274
0
LINE
8
BLACK
6
CONTINUOUS
10
1.63043
20
4.50274
11
1.63036
21
4.50297
0
LINE
8
BLACK
6
CONTINUOUS
10
1.63036
20
4.50297
11
1.63018
21
4.50312
0
LINE
8
BLACK
6
CONTINUOUS
10
1.63018
20
4.50312
11
1.63004
21
4.5039
0
LINE
8
BLACK
6
CONTINUOUS
10
1.63004
20
4.5039
11
1.62978
21
4.50465
0
LINE
8
BLACK
6
CONTINUOUS
10
1.62978
20
4.50465
11
1.62987
21
4.50487
0
LINE
8
BLACK
6
CONTINUOUS
10
1.62987
20
4.50487
11
1.62983
21
4.50511
0
LINE
8
BLACK
6
CONTINUOUS
10
1.62983
20
4.50511
11
1.63022
21
4.5058
0
LINE
8
BLACK
6
CONTINUOUS
10
1.63022
20
4.5058
11
1.63051
21
4.50654
0
LINE
8
BLACK
6
CONTINUOUS
10
1.63051
20
4.50654
11
1.63935
21
4.51664
0
LINE
8
BLACK
6
CONTINUOUS
10
1.63935
20
4.51664
11
1.62148
21
4.51664
0
LINE
8
BLACK
6
CONTINUOUS
10
1.62148
20
4.51664
11
1.62047
21
4.51682
0
LINE
8
BLACK
6
CONTINUOUS
10
1.62047
20
4.51682
11
1.61893
21
4.51811
0
LINE
8
BLACK
6
CONTINUOUS
10
1.61893
20
4.51811
11
1.61858
21
4.5201
0
LINE
8
BLACK
6
CONTINUOUS
10
1.61858
20
4.5201
11
1.61959
21
4.52185
0
LINE
8
BLACK
6
CONTINUOUS
10
1.61959
20
4.52185
11
1.62148
21
4.52254
0
LINE
8
BLACK
6
CONTINUOUS
10
1.62148
20
4.52254
11
1.64586
21
4.52254
0
LINE
8
BLACK
6
CONTINUOUS
10
1.64586
20
4.52254
11
1.64629
21
4.52247
0
LINE
8
BLACK
6
CONTINUOUS
10
1.56625
20
4.50924
11
1.56639
21
4.50913
0
LINE
8
BLACK
6
CONTINUOUS
10
1.56639
20
4.50913
11
1.56656
21
4.50911
0
LINE
8
BLACK
6
CONTINUOUS
10
1.56656
20
4.50911
11
1.57031
21
4.50723
0
LINE
8
BLACK
6
CONTINUOUS
10
1.57031
20
4.50723
11
1.57114
21
4.50662
0
LINE
8
BLACK
6
CONTINUOUS
10
1.57114
20
4.50662
11
1.57131
21
4.50622
0
LINE
8
BLACK
6
CONTINUOUS
10
1.57131
20
4.50622
11
1.57163
21
4.50591
0
LINE
8
BLACK
6
CONTINUOUS
10
1.57163
20
4.50591
11
1.57351
21
4.50216
0
LINE
8
BLACK
6
CONTINUOUS
10
1.57351
20
4.50216
11
1.5738
21
4.50118
0
LINE
8
BLACK
6
CONTINUOUS
10
1.5738
20
4.50118
11
1.57376
21
4.50101
0
LINE
8
BLACK
6
CONTINUOUS
10
1.57376
20
4.50101
11
1.57382
21
4.50084
0
LINE
8
BLACK
6
CONTINUOUS
10
1.57382
20
4.50084
11
1.57382
21
4.48022
0
LINE
8
BLACK
6
CONTINUOUS
10
1.57382
20
4.48022
11
1.57364
21
4.47921
0
LINE
8
BLACK
6
CONTINUOUS
10
1.57364
20
4.47921
11
1.57234
21
4.47766
0
LINE
8
BLACK
6
CONTINUOUS
10
1.57234
20
4.47766
11
1.57035
21
4.47731
0
LINE
8
BLACK
6
CONTINUOUS
10
1.57035
20
4.47731
11
1.56922
21
4.47797
0
LINE
8
BLACK
6
CONTINUOUS
10
1.56922
20
4.47797
11
1.56844
21
4.47758
0
LINE
8
BLACK
6
CONTINUOUS
10
1.56844
20
4.47758
11
1.56745
21
4.47729
0
LINE
8
BLACK
6
CONTINUOUS
10
1.56745
20
4.47729
11
1.56728
21
4.47733
0
LINE
8
BLACK
6
CONTINUOUS
10
1.56728
20
4.47733
11
1.56712
21
4.47727
0
LINE
8
BLACK
6
CONTINUOUS
10
1.56712
20
4.47727
11
1.55774
21
4.47727
0
LINE
8
BLACK
6
CONTINUOUS
10
1.55774
20
4.47727
11
1.55673
21
4.47745
0
LINE
8
BLACK
6
CONTINUOUS
10
1.55673
20
4.47745
11
1.5566
21
4.47756
0
LINE
8
BLACK
6
CONTINUOUS
10
1.5566
20
4.47756
11
1.55642
21
4.47758
0
LINE
8
BLACK
6
CONTINUOUS
10
1.55642
20
4.47758
11
1.55267
21
4.47945
0
LINE
8
BLACK
6
CONTINUOUS
10
1.55267
20
4.47945
11
1.55185
21
4.48007
0
LINE
8
BLACK
6
CONTINUOUS
10
1.55185
20
4.48007
11
1.55167
21
4.48047
0
LINE
8
BLACK
6
CONTINUOUS
10
1.55167
20
4.48047
11
1.55135
21
4.48078
0
LINE
8
BLACK
6
CONTINUOUS
10
1.55135
20
4.48078
11
1.54948
21
4.48453
0
LINE
8
BLACK
6
CONTINUOUS
10
1.54948
20
4.48453
11
1.54919
21
4.48551
0
LINE
8
BLACK
6
CONTINUOUS
10
1.54919
20
4.48551
11
1.54923
21
4.48568
0
LINE
8
BLACK
6
CONTINUOUS
10
1.54923
20
4.48568
11
1.54917
21
4.48585
0
LINE
8
BLACK
6
CONTINUOUS
10
1.54917
20
4.48585
11
1.54917
21
4.4896
0
LINE
8
BLACK
6
CONTINUOUS
10
1.54917
20
4.4896
11
1.54934
21
4.4906
0
LINE
8
BLACK
6
CONTINUOUS
10
1.54934
20
4.4906
11
1.54946
21
4.49074
0
LINE
8
BLACK
6
CONTINUOUS
10
1.54946
20
4.49074
11
1.54948
21
4.49092
0
LINE
8
BLACK
6
CONTINUOUS
10
1.54948
20
4.49092
11
1.55135
21
4.49467
0
LINE
8
BLACK
6
CONTINUOUS
10
1.55135
20
4.49467
11
1.55196
21
4.49549
0
LINE
8
BLACK
6
CONTINUOUS
10
1.55196
20
4.49549
11
1.55237
21
4.49566
0
LINE
8
BLACK
6
CONTINUOUS
10
1.55237
20
4.49566
11
1.55267
21
4.49599
0
LINE
8
BLACK
6
CONTINUOUS
10
1.55267
20
4.49599
11
1.55642
21
4.49786
0
LINE
8
BLACK
6
CONTINUOUS
10
1.55642
20
4.49786
11
1.55741
21
4.49815
0
LINE
8
BLACK
6
CONTINUOUS
10
1.55741
20
4.49815
11
1.55758
21
4.49811
0
LINE
8
BLACK
6
CONTINUOUS
10
1.55758
20
4.49811
11
1.55774
21
4.49817
0
LINE
8
BLACK
6
CONTINUOUS
10
1.55774
20
4.49817
11
1.56642
21
4.49817
0
LINE
8
BLACK
6
CONTINUOUS
10
1.56642
20
4.49817
11
1.56791
21
4.49892
0
LINE
8
BLACK
6
CONTINUOUS
10
1.56791
20
4.49892
11
1.56791
21
4.50015
0
LINE
8
BLACK
6
CONTINUOUS
10
1.56791
20
4.50015
11
1.56679
21
4.50239
0
LINE
8
BLACK
6
CONTINUOUS
10
1.56679
20
4.50239
11
1.56454
21
4.50352
0
LINE
8
BLACK
6
CONTINUOUS
10
1.56454
20
4.50352
11
1.55844
21
4.50352
0
LINE
8
BLACK
6
CONTINUOUS
10
1.55844
20
4.50352
11
1.55531
21
4.50195
0
LINE
8
BLACK
6
CONTINUOUS
10
1.55531
20
4.50195
11
1.55433
21
4.50166
0
LINE
8
BLACK
6
CONTINUOUS
10
1.55433
20
4.50166
11
1.55237
21
4.50213
0
LINE
8
BLACK
6
CONTINUOUS
10
1.55237
20
4.50213
11
1.55116
21
4.50375
0
LINE
8
BLACK
6
CONTINUOUS
10
1.55116
20
4.50375
11
1.55128
21
4.50577
0
LINE
8
BLACK
6
CONTINUOUS
10
1.55128
20
4.50577
11
1.55267
21
4.50723
0
LINE
8
BLACK
6
CONTINUOUS
10
1.55267
20
4.50723
11
1.55642
21
4.50911
0
LINE
8
BLACK
6
CONTINUOUS
10
1.55642
20
4.50911
11
1.55741
21
4.5094
0
LINE
8
BLACK
6
CONTINUOUS
10
1.55741
20
4.5094
11
1.55758
21
4.50936
0
LINE
8
BLACK
6
CONTINUOUS
10
1.55758
20
4.50936
11
1.55774
21
4.50942
0
LINE
8
BLACK
6
CONTINUOUS
10
1.55774
20
4.50942
11
1.56524
21
4.50942
0
LINE
8
BLACK
6
CONTINUOUS
10
1.56524
20
4.50942
11
1.56625
21
4.50924
0
LINE
8
BLACK
6
CONTINUOUS
10
1.56745
20
4.49229
11
1.56728
21
4.49233
0
LINE
8
BLACK
6
CONTINUOUS
10
1.56728
20
4.49233
11
1.56712
21
4.49227
0
LINE
8
BLACK
6
CONTINUOUS
10
1.56712
20
4.49227
11
1.55844
21
4.49227
0
LINE
8
BLACK
6
CONTINUOUS
10
1.55844
20
4.49227
11
1.55619
21
4.49114
0
LINE
8
BLACK
6
CONTINUOUS
10
1.55619
20
4.49114
11
1.55507
21
4.4889
0
LINE
8
BLACK
6
CONTINUOUS
10
1.55507
20
4.4889
11
1.55507
21
4.48654
0
LINE
8
BLACK
6
CONTINUOUS
10
1.55507
20
4.48654
11
1.55619
21
4.4843
0
LINE
8
BLACK
6
CONTINUOUS
10
1.55619
20
4.4843
11
1.55844
21
4.48317
0
LINE
8
BLACK
6
CONTINUOUS
10
1.55844
20
4.48317
11
1.56642
21
4.48317
0
LINE
8
BLACK
6
CONTINUOUS
10
1.56642
20
4.48317
11
1.56791
21
4.48392
0
LINE
8
BLACK
6
CONTINUOUS
10
1.56791
20
4.48392
11
1.56791
21
4.49242
0
LINE
8
BLACK
6
CONTINUOUS
10
1.56791
20
4.49242
11
1.56745
21
4.49229
0
LINE
8
BLACK
6
CONTINUOUS
10
0.582
20
4.50924
11
0.582135
21
4.50913
0
LINE
8
BLACK
6
CONTINUOUS
10
0.582135
20
4.50913
11
0.58231
21
4.50911
0
LINE
8
BLACK
6
CONTINUOUS
10
0.58231
20
4.50911
11
0.58606
21
4.50723
0
LINE
8
BLACK
6
CONTINUOUS
10
0.58606
20
4.50723
11
0.586884
21
4.50662
0
LINE
8
BLACK
6
CONTINUOUS
10
0.586884
20
4.50662
11
0.587059
21
4.50622
0
LINE
8
BLACK
6
CONTINUOUS
10
0.587059
20
4.50622
11
0.58738
21
4.50591
0
LINE
8
BLACK
6
CONTINUOUS
10
0.58738
20
4.50591
11
0.589255
21
4.50216
0
LINE
8
BLACK
6
CONTINUOUS
10
0.589255
20
4.50216
11
0.589548
21
4.50118
0
LINE
8
BLACK
6
CONTINUOUS
10
0.589548
20
4.50118
11
0.589507
21
4.50101
0
LINE
8
BLACK
6
CONTINUOUS
10
0.589507
20
4.50101
11
0.589567
21
4.50084
0
LINE
8
BLACK
6
CONTINUOUS
10
0.589567
20
4.50084
11
0.589567
21
4.48022
0
LINE
8
BLACK
6
CONTINUOUS
10
0.589567
20
4.48022
11
0.589389
21
4.47921
0
LINE
8
BLACK
6
CONTINUOUS
10
0.589389
20
4.47921
11
0.588091
21
4.47766
0
LINE
8
BLACK
6
CONTINUOUS
10
0.588091
20
4.47766
11
0.586101
21
4.47731
0
LINE
8
BLACK
6
CONTINUOUS
10
0.586101
20
4.47731
11
0.584964
21
4.47797
0
LINE
8
BLACK
6
CONTINUOUS
10
0.584964
20
4.47797
11
0.584185
21
4.47758
0
LINE
8
BLACK
6
CONTINUOUS
10
0.584185
20
4.47758
11
0.583202
21
4.47729
0
LINE
8
BLACK
6
CONTINUOUS
10
0.583202
20
4.47729
11
0.58303
21
4.47733
0
LINE
8
BLACK
6
CONTINUOUS
10
0.58303
20
4.47733
11
0.582865
21
4.47727
0
LINE
8
BLACK
6
CONTINUOUS
10
0.582865
20
4.47727
11
0.573491
21
4.47727
0
LINE
8
BLACK
6
CONTINUOUS
10
0.573491
20
4.47727
11
0.572481
21
4.47745
0
LINE
8
BLACK
6
CONTINUOUS
10
0.572481
20
4.47745
11
0.572346
21
4.47756
0
LINE
8
BLACK
6
CONTINUOUS
10
0.572346
20
4.47756
11
0.57217
21
4.47758
0
LINE
8
BLACK
6
CONTINUOUS
10
0.57217
20
4.47758
11
0.568421
21
4.47945
0
LINE
8
BLACK
6
CONTINUOUS
10
0.568421
20
4.47945
11
0.567597
21
4.48007
0
LINE
8
BLACK
6
CONTINUOUS
10
0.567597
20
4.48007
11
0.567421
21
4.48047
0
LINE
8
BLACK
6
CONTINUOUS
10
0.567421
20
4.48047
11
0.5671
21
4.48078
0
LINE
8
BLACK
6
CONTINUOUS
10
0.5671
20
4.48078
11
0.565225
21
4.48453
0
LINE
8
BLACK
6
CONTINUOUS
10
0.565225
20
4.48453
11
0.564933
21
4.48551
0
LINE
8
BLACK
6
CONTINUOUS
10
0.564933
20
4.48551
11
0.564974
21
4.48568
0
LINE
8
BLACK
6
CONTINUOUS
10
0.564974
20
4.48568
11
0.564914
21
4.48585
0
LINE
8
BLACK
6
CONTINUOUS
10
0.564914
20
4.48585
11
0.564914
21
4.4896
0
LINE
8
BLACK
6
CONTINUOUS
10
0.564914
20
4.4896
11
0.565092
21
4.4906
0
LINE
8
BLACK
6
CONTINUOUS
10
0.565092
20
4.4906
11
0.565205
21
4.49074
0
LINE
8
BLACK
6
CONTINUOUS
10
0.565205
20
4.49074
11
0.565225
21
4.49092
0
LINE
8
BLACK
6
CONTINUOUS
10
0.565225
20
4.49092
11
0.5671
21
4.49467
0
LINE
8
BLACK
6
CONTINUOUS
10
0.5671
20
4.49467
11
0.567711
21
4.49549
0
LINE
8
BLACK
6
CONTINUOUS
10
0.567711
20
4.49549
11
0.568117
21
4.49566
0
LINE
8
BLACK
6
CONTINUOUS
10
0.568117
20
4.49566
11
0.568421
21
4.49599
0
LINE
8
BLACK
6
CONTINUOUS
10
0.568421
20
4.49599
11
0.57217
21
4.49786
0
LINE
8
BLACK
6
CONTINUOUS
10
0.57217
20
4.49786
11
0.573153
21
4.49815
0
LINE
8
BLACK
6
CONTINUOUS
10
0.573153
20
4.49815
11
0.573325
21
4.49811
0
LINE
8
BLACK
6
CONTINUOUS
10
0.573325
20
4.49811
11
0.573491
21
4.49817
0
LINE
8
BLACK
6
CONTINUOUS
10
0.573491
20
4.49817
11
0.582168
21
4.49817
0
LINE
8
BLACK
6
CONTINUOUS
10
0.582168
20
4.49817
11
0.583661
21
4.49892
0
LINE
8
BLACK
6
CONTINUOUS
10
0.583661
20
4.49892
11
0.583661
21
4.50015
0
LINE
8
BLACK
6
CONTINUOUS
10
0.583661
20
4.50015
11
0.582539
21
4.50239
0
LINE
8
BLACK
6
CONTINUOUS
10
0.582539
20
4.50239
11
0.580293
21
4.50352
0
LINE
8
BLACK
6
CONTINUOUS
10
0.580293
20
4.50352
11
0.574188
21
4.50352
0
LINE
8
BLACK
6
CONTINUOUS
10
0.574188
20
4.50352
11
0.571062
21
4.50195
0
LINE
8
BLACK
6
CONTINUOUS
10
0.571062
20
4.50195
11
0.570079
21
4.50166
0
LINE
8
BLACK
6
CONTINUOUS
10
0.570079
20
4.50166
11
0.568114
21
4.50213
0
LINE
8
BLACK
6
CONTINUOUS
10
0.568114
20
4.50213
11
0.566911
21
4.50375
0
LINE
8
BLACK
6
CONTINUOUS
10
0.566911
20
4.50375
11
0.567032
21
4.50577
0
LINE
8
BLACK
6
CONTINUOUS
10
0.567032
20
4.50577
11
0.568421
21
4.50723
0
LINE
8
BLACK
6
CONTINUOUS
10
0.568421
20
4.50723
11
0.57217
21
4.50911
0
LINE
8
BLACK
6
CONTINUOUS
10
0.57217
20
4.50911
11
0.573153
21
4.5094
0
LINE
8
BLACK
6
CONTINUOUS
10
0.573153
20
4.5094
11
0.573325
21
4.50936
0
LINE
8
BLACK
6
CONTINUOUS
10
0.573325
20
4.50936
11
0.573491
21
4.50942
0
LINE
8
BLACK
6
CONTINUOUS
10
0.573491
20
4.50942
11
0.58099
21
4.50942
0
LINE
8
BLACK
6
CONTINUOUS
10
0.58099
20
4.50942
11
0.582
21
4.50924
0
LINE
8
BLACK
6
CONTINUOUS
10
0.583202
20
4.49229
11
0.58303
21
4.49233
0
LINE
8
BLACK
6
CONTINUOUS
10
0.58303
20
4.49233
11
0.582865
21
4.49227
0
LINE
8
BLACK
6
CONTINUOUS
10
0.582865
20
4.49227
11
0.574188
21
4.49227
0
LINE
8
BLACK
6
CONTINUOUS
10
0.574188
20
4.49227
11
0.571942
21
4.49114
0
LINE
8
BLACK
6
CONTINUOUS
10
0.571942
20
4.49114
11
0.570819
21
4.4889
0
LINE
8
BLACK
6
CONTINUOUS
10
0.570819
20
4.4889
11
0.570819
21
4.48654
0
LINE
8
BLACK
6
CONTINUOUS
10
0.570819
20
4.48654
11
0.571942
21
4.4843
0
LINE
8
BLACK
6
CONTINUOUS
10
0.571942
20
4.4843
11
0.574188
21
4.48317
0
LINE
8
BLACK
6
CONTINUOUS
10
0.574188
20
4.48317
11
0.582168
21
4.48317
0
LINE
8
BLACK
6
CONTINUOUS
10
0.582168
20
4.48317
11
0.583661
21
4.48392
0
LINE
8
BLACK
6
CONTINUOUS
10
0.583661
20
4.48392
11
0.583661
21
4.49242
0
LINE
8
BLACK
6
CONTINUOUS
10
0.583661
20
4.49242
11
0.583202
21
4.49229
0
LINE
8
BLACK
6
CONTINUOUS
10
1.39752
20
4.50924
11
1.39766
21
4.50913
0
LINE
8
BLACK
6
CONTINUOUS
10
1.39766
20
4.50913
11
1.39783
21
4.50911
0
LINE
8
BLACK
6
CONTINUOUS
10
1.39783
20
4.50911
11
1.40158
21
4.50723
0
LINE
8
BLACK
6
CONTINUOUS
10
1.40158
20
4.50723
11
1.40229
21
4.50671
0
LINE
8
BLACK
6
CONTINUOUS
10
1.40229
20
4.50671
11
1.40235
21
4.50668
0
LINE
8
BLACK
6
CONTINUOUS
10
1.40235
20
4.50668
11
1.40423
21
4.50481
0
LINE
8
BLACK
6
CONTINUOUS
10
1.40423
20
4.50481
11
1.40473
21
4.50408
0
LINE
8
BLACK
6
CONTINUOUS
10
1.40473
20
4.50408
11
1.40478
21
4.50404
0
LINE
8
BLACK
6
CONTINUOUS
10
1.40478
20
4.50404
11
1.40665
21
4.50029
0
LINE
8
BLACK
6
CONTINUOUS
10
1.40665
20
4.50029
11
1.40695
21
4.49931
0
LINE
8
BLACK
6
CONTINUOUS
10
1.40695
20
4.49931
11
1.4069
21
4.49913
0
LINE
8
BLACK
6
CONTINUOUS
10
1.4069
20
4.49913
11
1.40696
21
4.49897
0
LINE
8
BLACK
6
CONTINUOUS
10
1.40696
20
4.49897
11
1.40696
21
4.48772
0
LINE
8
BLACK
6
CONTINUOUS
10
1.40696
20
4.48772
11
1.40679
21
4.48671
0
LINE
8
BLACK
6
CONTINUOUS
10
1.40679
20
4.48671
11
1.40667
21
4.48658
0
LINE
8
BLACK
6
CONTINUOUS
10
1.40667
20
4.48658
11
1.40665
21
4.4864
0
LINE
8
BLACK
6
CONTINUOUS
10
1.40665
20
4.4864
11
1.40478
21
4.48265
0
LINE
8
BLACK
6
CONTINUOUS
10
1.40478
20
4.48265
11
1.40425
21
4.48194
0
LINE
8
BLACK
6
CONTINUOUS
10
1.40425
20
4.48194
11
1.40423
21
4.48188
0
LINE
8
BLACK
6
CONTINUOUS
10
1.40423
20
4.48188
11
1.40235
21
4.48001
0
LINE
8
BLACK
6
CONTINUOUS
10
1.40235
20
4.48001
11
1.40163
21
4.4795
0
LINE
8
BLACK
6
CONTINUOUS
10
1.40163
20
4.4795
11
1.40158
21
4.47945
0
LINE
8
BLACK
6
CONTINUOUS
10
1.40158
20
4.47945
11
1.39783
21
4.47758
0
LINE
8
BLACK
6
CONTINUOUS
10
1.39783
20
4.47758
11
1.39685
21
4.47729
0
LINE
8
BLACK
6
CONTINUOUS
10
1.39685
20
4.47729
11
1.39668
21
4.47733
0
LINE
8
BLACK
6
CONTINUOUS
10
1.39668
20
4.47733
11
1.39651
21
4.47727
0
LINE
8
BLACK
6
CONTINUOUS
10
1.39651
20
4.47727
11
1.39089
21
4.47727
0
LINE
8
BLACK
6
CONTINUOUS
10
1.39089
20
4.47727
11
1.38988
21
4.47745
0
LINE
8
BLACK
6
CONTINUOUS
10
1.38988
20
4.47745
11
1.38974
21
4.47756
0
LINE
8
BLACK
6
CONTINUOUS
10
1.38974
20
4.47756
11
1.38957
21
4.47758
0
LINE
8
BLACK
6
CONTINUOUS
10
1.38957
20
4.47758
11
1.38582
21
4.47945
0
LINE
8
BLACK
6
CONTINUOUS
10
1.38582
20
4.47945
11
1.38511
21
4.47998
0
LINE
8
BLACK
6
CONTINUOUS
10
1.38511
20
4.47998
11
1.38505
21
4.48001
0
LINE
8
BLACK
6
CONTINUOUS
10
1.38505
20
4.48001
11
1.38318
21
4.48188
0
LINE
8
BLACK
6
CONTINUOUS
10
1.38318
20
4.48188
11
1.38267
21
4.48261
0
LINE
8
BLACK
6
CONTINUOUS
10
1.38267
20
4.48261
11
1.38262
21
4.48265
0
LINE
8
BLACK
6
CONTINUOUS
10
1.38262
20
4.48265
11
1.38075
21
4.4864
0
LINE
8
BLACK
6
CONTINUOUS
10
1.38075
20
4.4864
11
1.38046
21
4.48738
0
LINE
8
BLACK
6
CONTINUOUS
10
1.38046
20
4.48738
11
1.3805
21
4.48755
0
LINE
8
BLACK
6
CONTINUOUS
10
1.3805
20
4.48755
11
1.38044
21
4.48772
0
LINE
8
BLACK
6
CONTINUOUS
10
1.38044
20
4.48772
11
1.38044
21
4.49897
0
LINE
8
BLACK
6
CONTINUOUS
10
1.38044
20
4.49897
11
1.38061
21
4.49998
0
LINE
8
BLACK
6
CONTINUOUS
10
1.38061
20
4.49998
11
1.38073
21
4.50011
0
LINE
8
BLACK
6
CONTINUOUS
10
1.38073
20
4.50011
11
1.38075
21
4.50029
0
LINE
8
BLACK
6
CONTINUOUS
10
1.38075
20
4.50029
11
1.38262
21
4.50404
0
LINE
8
BLACK
6
CONTINUOUS
10
1.38262
20
4.50404
11
1.38315
21
4.50475
0
LINE
8
BLACK
6
CONTINUOUS
10
1.38315
20
4.50475
11
1.38318
21
4.50481
0
LINE
8
BLACK
6
CONTINUOUS
10
1.38318
20
4.50481
11
1.38505
21
4.50668
0
LINE
8
BLACK
6
CONTINUOUS
10
1.38505
20
4.50668
11
1.38577
21
4.50719
0
LINE
8
BLACK
6
CONTINUOUS
10
1.38577
20
4.50719
11
1.38582
21
4.50723
0
LINE
8
BLACK
6
CONTINUOUS
10
1.38582
20
4.50723
11
1.38957
21
4.50911
0
LINE
8
BLACK
6
CONTINUOUS
10
1.38957
20
4.50911
11
1.39055
21
4.5094
0
LINE
8
BLACK
6
CONTINUOUS
10
1.39055
20
4.5094
11
1.39072
21
4.50936
0
LINE
8
BLACK
6
CONTINUOUS
10
1.39072
20
4.50936
11
1.39089
21
4.50942
0
LINE
8
BLACK
6
CONTINUOUS
10
1.39089
20
4.50942
11
1.39651
21
4.50942
0
LINE
8
BLACK
6
CONTINUOUS
10
1.39651
20
4.50942
11
1.39752
21
4.50924
0
LINE
8
BLACK
6
CONTINUOUS
10
1.39159
20
4.50352
11
1.38889
21
4.50217
0
LINE
8
BLACK
6
CONTINUOUS
10
1.38889
20
4.50217
11
1.38769
21
4.50097
0
LINE
8
BLACK
6
CONTINUOUS
10
1.38769
20
4.50097
11
1.38634
21
4.49827
0
LINE
8
BLACK
6
CONTINUOUS
10
1.38634
20
4.49827
11
1.38634
21
4.48842
0
LINE
8
BLACK
6
CONTINUOUS
10
1.38634
20
4.48842
11
1.38769
21
4.48572
0
LINE
8
BLACK
6
CONTINUOUS
10
1.38769
20
4.48572
11
1.38889
21
4.48452
0
LINE
8
BLACK
6
CONTINUOUS
10
1.38889
20
4.48452
11
1.39159
21
4.48317
0
LINE
8
BLACK
6
CONTINUOUS
10
1.39159
20
4.48317
11
1.39582
21
4.48317
0
LINE
8
BLACK
6
CONTINUOUS
10
1.39582
20
4.48317
11
1.39851
21
4.48452
0
LINE
8
BLACK
6
CONTINUOUS
10
1.39851
20
4.48452
11
1.39971
21
4.48572
0
LINE
8
BLACK
6
CONTINUOUS
10
1.39971
20
4.48572
11
1.40106
21
4.48842
0
LINE
8
BLACK
6
CONTINUOUS
10
1.40106
20
4.48842
11
1.40106
21
4.49827
0
LINE
8
BLACK
6
CONTINUOUS
10
1.40106
20
4.49827
11
1.39971
21
4.50097
0
LINE
8
BLACK
6
CONTINUOUS
10
1.39971
20
4.50097
11
1.39851
21
4.50217
0
LINE
8
BLACK
6
CONTINUOUS
10
1.39851
20
4.50217
11
1.39582
21
4.50352
0
LINE
8
BLACK
6
CONTINUOUS
10
1.39582
20
4.50352
11
1.39159
21
4.50352
0
LINE
8
BLACK
6
CONTINUOUS
10
0.662042
20
4.52247
11
0.662178
21
4.52249
0
LINE
8
BLACK
6
CONTINUOUS
10
0.662178
20
4.52249
11
0.662282
21
4.52242
0
LINE
8
BLACK
6
CONTINUOUS
10
0.662282
20
4.52242
11
0.662615
21
4.52237
0
LINE
8
BLACK
6
CONTINUOUS
10
0.662615
20
4.52237
11
0.663224
21
4.52185
0
LINE
8
BLACK
6
CONTINUOUS
10
0.663224
20
4.52185
11
0.663906
21
4.52144
0
LINE
8
BLACK
6
CONTINUOUS
10
0.663906
20
4.52144
11
0.663982
21
4.52122
0
LINE
8
BLACK
6
CONTINUOUS
10
0.663982
20
4.52122
11
0.664162
21
4.52107
0
LINE
8
BLACK
6
CONTINUOUS
10
0.664162
20
4.52107
11
0.6643
21
4.52028
0
LINE
8
BLACK
6
CONTINUOUS
10
0.6643
20
4.52028
11
0.664557
21
4.51953
0
LINE
8
BLACK
6
CONTINUOUS
10
0.664557
20
4.51953
11
0.664472
21
4.51931
0
LINE
8
BLACK
6
CONTINUOUS
10
0.664472
20
4.51931
11
0.664513
21
4.51908
0
LINE
8
BLACK
6
CONTINUOUS
10
0.664513
20
4.51908
11
0.664115
21
4.51839
0
LINE
8
BLACK
6
CONTINUOUS
10
0.664115
20
4.51839
11
0.663827
21
4.51765
0
LINE
8
BLACK
6
CONTINUOUS
10
0.663827
20
4.51765
11
0.654871
21
4.50741
0
LINE
8
BLACK
6
CONTINUOUS
10
0.654871
20
4.50741
11
0.655116
21
4.50737
0
LINE
8
BLACK
6
CONTINUOUS
10
0.655116
20
4.50737
11
0.655251
21
4.50725
0
LINE
8
BLACK
6
CONTINUOUS
10
0.655251
20
4.50725
11
0.655426
21
4.50723
0
LINE
8
BLACK
6
CONTINUOUS
10
0.655426
20
4.50723
11
0.659176
21
4.50536
0
LINE
8
BLACK
6
CONTINUOUS
10
0.659176
20
4.50536
11
0.659885
21
4.50483
0
LINE
8
BLACK
6
CONTINUOUS
10
0.659885
20
4.50483
11
0.659943
21
4.50481
0
LINE
8
BLACK
6
CONTINUOUS
10
0.659943
20
4.50481
11
0.661818
21
4.50293
0
LINE
8
BLACK
6
CONTINUOUS
10
0.661818
20
4.50293
11
0.662324
21
4.50221
0
LINE
8
BLACK
6
CONTINUOUS
10
0.662324
20
4.50221
11
0.662371
21
4.50216
0
LINE
8
BLACK
6
CONTINUOUS
10
0.662371
20
4.50216
11
0.664246
21
4.49841
0
LINE
8
BLACK
6
CONTINUOUS
10
0.664246
20
4.49841
11
0.664538
21
4.49743
0
LINE
8
BLACK
6
CONTINUOUS
10
0.664538
20
4.49743
11
0.664497
21
4.49726
0
LINE
8
BLACK
6
CONTINUOUS
10
0.664497
20
4.49726
11
0.664558
21
4.49709
0
LINE
8
BLACK
6
CONTINUOUS
10
0.664558
20
4.49709
11
0.664558
21
4.48772
0
LINE
8
BLACK
6
CONTINUOUS
10
0.664558
20
4.48772
11
0.664379
21
4.48671
0
LINE
8
BLACK
6
CONTINUOUS
10
0.664379
20
4.48671
11
0.664266
21
4.48658
0
LINE
8
BLACK
6
CONTINUOUS
10
0.664266
20
4.48658
11
0.664246
21
4.4864
0
LINE
8
BLACK
6
CONTINUOUS
10
0.664246
20
4.4864
11
0.662371
21
4.48265
0
LINE
8
BLACK
6
CONTINUOUS
10
0.662371
20
4.48265
11
0.661845
21
4.48194
0
LINE
8
BLACK
6
CONTINUOUS
10
0.661845
20
4.48194
11
0.661818
21
4.48188
0
LINE
8
BLACK
6
CONTINUOUS
10
0.661818
20
4.48188
11
0.659943
21
4.48001
0
LINE
8
BLACK
6
CONTINUOUS
10
0.659943
20
4.48001
11
0.65922
21
4.4795
0
LINE
8
BLACK
6
CONTINUOUS
10
0.65922
20
4.4795
11
0.659176
21
4.47945
0
LINE
8
BLACK
6
CONTINUOUS
10
0.659176
20
4.47945
11
0.655426
21
4.47758
0
LINE
8
BLACK
6
CONTINUOUS
10
0.655426
20
4.47758
11
0.654443
21
4.47729
0
LINE
8
BLACK
6
CONTINUOUS
10
0.654443
20
4.47729
11
0.654272
21
4.47733
0
LINE
8
BLACK
6
CONTINUOUS
10
0.654272
20
4.47733
11
0.654106
21
4.47727
0
LINE
8
BLACK
6
CONTINUOUS
10
0.654106
20
4.47727
11
0.642857
21
4.47727
0
LINE
8
BLACK
6
CONTINUOUS
10
0.642857
20
4.47727
11
0.641847
21
4.47745
0
LINE
8
BLACK
6
CONTINUOUS
10
0.641847
20
4.47745
11
0.641712
21
4.47756
0
LINE
8
BLACK
6
CONTINUOUS
10
0.641712
20
4.47756
11
0.641537
21
4.47758
0
LINE
8
BLACK
6
CONTINUOUS
10
0.641537
20
4.47758
11
0.637787
21
4.47945
0
LINE
8
BLACK
6
CONTINUOUS
10
0.637787
20
4.47945
11
0.637078
21
4.47998
0
LINE
8
BLACK
6
CONTINUOUS
10
0.637078
20
4.47998
11
0.63702
21
4.48001
0
LINE
8
BLACK
6
CONTINUOUS
10
0.63702
20
4.48001
11
0.635145
21
4.48188
0
LINE
8
BLACK
6
CONTINUOUS
10
0.635145
20
4.48188
11
0.634557
21
4.48272
0
LINE
8
BLACK
6
CONTINUOUS
10
0.634557
20
4.48272
11
0.634381
21
4.48473
0
LINE
8
BLACK
6
CONTINUOUS
10
0.634381
20
4.48473
11
0.635539
21
4.48639
0
LINE
8
BLACK
6
CONTINUOUS
10
0.635539
20
4.48639
11
0.63749
21
4.48691
0
LINE
8
BLACK
6
CONTINUOUS
10
0.63749
20
4.48691
11
0.639321
21
4.48606
0
LINE
8
BLACK
6
CONTINUOUS
10
0.639321
20
4.48606
11
0.640857
21
4.48452
0
LINE
8
BLACK
6
CONTINUOUS
10
0.640857
20
4.48452
11
0.643554
21
4.48317
0
LINE
8
BLACK
6
CONTINUOUS
10
0.643554
20
4.48317
11
0.653409
21
4.48317
0
LINE
8
BLACK
6
CONTINUOUS
10
0.653409
20
4.48317
11
0.656106
21
4.48452
0
LINE
8
BLACK
6
CONTINUOUS
10
0.656106
20
4.48452
11
0.657303
21
4.48572
0
LINE
8
BLACK
6
CONTINUOUS
10
0.657303
20
4.48572
11
0.658652
21
4.48842
0
LINE
8
BLACK
6
CONTINUOUS
10
0.658652
20
4.48842
11
0.658652
21
4.4964
0
LINE
8
BLACK
6
CONTINUOUS
10
0.658652
20
4.4964
11
0.657303
21
4.49909
0
LINE
8
BLACK
6
CONTINUOUS
10
0.657303
20
4.49909
11
0.656106
21
4.50029
0
LINE
8
BLACK
6
CONTINUOUS
10
0.656106
20
4.50029
11
0.653409
21
4.50164
0
LINE
8
BLACK
6
CONTINUOUS
10
0.653409
20
4.50164
11
0.648481
21
4.50164
0
LINE
8
BLACK
6
CONTINUOUS
10
0.648481
20
4.50164
11
0.648044
21
4.50172
0
LINE
8
BLACK
6
CONTINUOUS
10
0.648044
20
4.50172
11
0.647909
21
4.5017
0
LINE
8
BLACK
6
CONTINUOUS
10
0.647909
20
4.5017
11
0.647804
21
4.50176
0
LINE
8
BLACK
6
CONTINUOUS
10
0.647804
20
4.50176
11
0.647471
21
4.50182
0
LINE
8
BLACK
6
CONTINUOUS
10
0.647471
20
4.50182
11
0.646862
21
4.50233
0
LINE
8
BLACK
6
CONTINUOUS
10
0.646862
20
4.50233
11
0.646181
21
4.50274
0
LINE
8
BLACK
6
CONTINUOUS
10
0.646181
20
4.50274
11
0.646105
21
4.50297
0
LINE
8
BLACK
6
CONTINUOUS
10
0.646105
20
4.50297
11
0.645924
21
4.50312
0
LINE
8
BLACK
6
CONTINUOUS
10
0.645924
20
4.50312
11
0.645786
21
4.5039
0
LINE
8
BLACK
6
CONTINUOUS
10
0.645786
20
4.5039
11
0.645529
21
4.50465
0
LINE
8
BLACK
6
CONTINUOUS
10
0.645529
20
4.50465
11
0.645614
21
4.50487
0
LINE
8
BLACK
6
CONTINUOUS
10
0.645614
20
4.50487
11
0.645574
21
4.50511
0
LINE
8
BLACK
6
CONTINUOUS
10
0.645574
20
4.50511
11
0.645972
21
4.5058
0
LINE
8
BLACK
6
CONTINUOUS
10
0.645972
20
4.5058
11
0.646259
21
4.50654
0
LINE
8
BLACK
6
CONTINUOUS
10
0.646259
20
4.50654
11
0.655098
21
4.51664
0
LINE
8
BLACK
6
CONTINUOUS
10
0.655098
20
4.51664
11
0.637233
21
4.51664
0
LINE
8
BLACK
6
CONTINUOUS
10
0.637233
20
4.51664
11
0.636223
21
4.51682
0
LINE
8
BLACK
6
CONTINUOUS
10
0.636223
20
4.51682
11
0.634676
21
4.51811
0
LINE
8
BLACK
6
CONTINUOUS
10
0.634676
20
4.51811
11
0.634325
21
4.5201
0
LINE
8
BLACK
6
CONTINUOUS
10
0.634325
20
4.5201
11
0.635335
21
4.52185
0
LINE
8
BLACK
6
CONTINUOUS
10
0.635335
20
4.52185
11
0.637233
21
4.52254
0
LINE
8
BLACK
6
CONTINUOUS
10
0.637233
20
4.52254
11
0.661605
21
4.52254
0
LINE
8
BLACK
6
CONTINUOUS
10
0.661605
20
4.52254
11
0.662042
21
4.52247
0
LINE
8
BLACK
6
CONTINUOUS
10
0.624497
20
4.52149
11
0.625187
21
4.51959
0
LINE
8
BLACK
6
CONTINUOUS
10
0.625187
20
4.51959
11
0.625187
21
4.48022
0
LINE
8
BLACK
6
CONTINUOUS
10
0.625187
20
4.48022
11
0.625009
21
4.47921
0
LINE
8
BLACK
6
CONTINUOUS
10
0.625009
20
4.47921
11
0.623711
21
4.47766
0
LINE
8
BLACK
6
CONTINUOUS
10
0.623711
20
4.47766
11
0.621722
21
4.47731
0
LINE
8
BLACK
6
CONTINUOUS
10
0.621722
20
4.47731
11
0.620585
21
4.47797
0
LINE
8
BLACK
6
CONTINUOUS
10
0.620585
20
4.47797
11
0.619806
21
4.47758
0
LINE
8
BLACK
6
CONTINUOUS
10
0.619806
20
4.47758
11
0.618823
21
4.47729
0
LINE
8
BLACK
6
CONTINUOUS
10
0.618823
20
4.47729
11
0.618651
21
4.47733
0
LINE
8
BLACK
6
CONTINUOUS
10
0.618651
20
4.47733
11
0.618485
21
4.47727
0
LINE
8
BLACK
6
CONTINUOUS
10
0.618485
20
4.47727
11
0.610986
21
4.47727
0
LINE
8
BLACK
6
CONTINUOUS
10
0.610986
20
4.47727
11
0.609976
21
4.47745
0
LINE
8
BLACK
6
CONTINUOUS
10
0.609976
20
4.47745
11
0.609841
21
4.47756
0
LINE
8
BLACK
6
CONTINUOUS
10
0.609841
20
4.47756
11
0.609666
21
4.47758
0
LINE
8
BLACK
6
CONTINUOUS
10
0.609666
20
4.47758
11
0.605916
21
4.47945
0
LINE
8
BLACK
6
CONTINUOUS
10
0.605916
20
4.47945
11
0.605207
21
4.47998
0
LINE
8
BLACK
6
CONTINUOUS
10
0.605207
20
4.47998
11
0.605149
21
4.48001
0
LINE
8
BLACK
6
CONTINUOUS
10
0.605149
20
4.48001
11
0.603274
21
4.48188
0
LINE
8
BLACK
6
CONTINUOUS
10
0.603274
20
4.48188
11
0.602768
21
4.48261
0
LINE
8
BLACK
6
CONTINUOUS
10
0.602768
20
4.48261
11
0.602721
21
4.48265
0
LINE
8
BLACK
6
CONTINUOUS
10
0.602721
20
4.48265
11
0.600846
21
4.4864
0
LINE
8
BLACK
6
CONTINUOUS
10
0.600846
20
4.4864
11
0.600554
21
4.48738
0
LINE
8
BLACK
6
CONTINUOUS
10
0.600554
20
4.48738
11
0.600595
21
4.48755
0
LINE
8
BLACK
6
CONTINUOUS
10
0.600595
20
4.48755
11
0.600534
21
4.48772
0
LINE
8
BLACK
6
CONTINUOUS
10
0.600534
20
4.48772
11
0.600534
21
4.49897
0
LINE
8
BLACK
6
CONTINUOUS
10
0.600534
20
4.49897
11
0.600712
21
4.49998
0
LINE
8
BLACK
6
CONTINUOUS
10
0.600712
20
4.49998
11
0.600826
21
4.50011
0
LINE
8
BLACK
6
CONTINUOUS
10
0.600826
20
4.50011
11
0.600846
21
4.50029
0
LINE
8
BLACK
6
CONTINUOUS
10
0.600846
20
4.50029
11
0.602721
21
4.50404
0
LINE
8
BLACK
6
CONTINUOUS
10
0.602721
20
4.50404
11
0.603247
21
4.50475
0
LINE
8
BLACK
6
CONTINUOUS
10
0.603247
20
4.50475
11
0.603274
21
4.50481
0
LINE
8
BLACK
6
CONTINUOUS
10
0.603274
20
4.50481
11
0.605149
21
4.50668
0
LINE
8
BLACK
6
CONTINUOUS
10
0.605149
20
4.50668
11
0.605872
21
4.50719
0
LINE
8
BLACK
6
CONTINUOUS
10
0.605872
20
4.50719
11
0.605916
21
4.50723
0
LINE
8
BLACK
6
CONTINUOUS
10
0.605916
20
4.50723
11
0.609666
21
4.50911
0
LINE
8
BLACK
6
CONTINUOUS
10
0.609666
20
4.50911
11
0.610649
21
4.5094
0
LINE
8
BLACK
6
CONTINUOUS
10
0.610649
20
4.5094
11
0.61082
21
4.50936
0
LINE
8
BLACK
6
CONTINUOUS
10
0.61082
20
4.50936
11
0.610986
21
4.50942
0
LINE
8
BLACK
6
CONTINUOUS
10
0.610986
20
4.50942
11
0.618485
21
4.50942
0
LINE
8
BLACK
6
CONTINUOUS
10
0.618485
20
4.50942
11
0.619282
21
4.50928
0
LINE
8
BLACK
6
CONTINUOUS
10
0.619282
20
4.50928
11
0.619282
21
4.51959
0
LINE
8
BLACK
6
CONTINUOUS
10
0.619282
20
4.51959
11
0.61946
21
4.5206
0
LINE
8
BLACK
6
CONTINUOUS
10
0.61946
20
4.5206
11
0.620758
21
4.52215
0
LINE
8
BLACK
6
CONTINUOUS
10
0.620758
20
4.52215
11
0.622747
21
4.5225
0
LINE
8
BLACK
6
CONTINUOUS
10
0.622747
20
4.5225
11
0.624497
21
4.52149
0
LINE
8
BLACK
6
CONTINUOUS
10
0.611683
20
4.50352
11
0.608986
21
4.50217
0
LINE
8
BLACK
6
CONTINUOUS
10
0.608986
20
4.50217
11
0.607789
21
4.50097
0
LINE
8
BLACK
6
CONTINUOUS
10
0.607789
20
4.50097
11
0.60644
21
4.49827
0
LINE
8
BLACK
6
CONTINUOUS
10
0.60644
20
4.49827
11
0.60644
21
4.48842
0
LINE
8
BLACK
6
CONTINUOUS
10
0.60644
20
4.48842
11
0.607789
21
4.48572
0
LINE
8
BLACK
6
CONTINUOUS
10
0.607789
20
4.48572
11
0.608986
21
4.48452
0
LINE
8
BLACK
6
CONTINUOUS
10
0.608986
20
4.48452
11
0.611683
21
4.48317
0
LINE
8
BLACK
6
CONTINUOUS
10
0.611683
20
4.48317
11
0.617788
21
4.48317
0
LINE
8
BLACK
6
CONTINUOUS
10
0.617788
20
4.48317
11
0.619282
21
4.48392
0
LINE
8
BLACK
6
CONTINUOUS
10
0.619282
20
4.48392
11
0.619282
21
4.50277
0
LINE
8
BLACK
6
CONTINUOUS
10
0.619282
20
4.50277
11
0.617788
21
4.50352
0
LINE
8
BLACK
6
CONTINUOUS
10
0.617788
20
4.50352
11
0.611683
21
4.50352
0
LINE
8
BLACK
6
CONTINUOUS
10
1.44002
20
4.50837
11
1.44071
21
4.50647
0
LINE
8
BLACK
6
CONTINUOUS
10
1.44071
20
4.50647
11
1.44071
21
4.48022
0
LINE
8
BLACK
6
CONTINUOUS
10
1.44071
20
4.48022
11
1.44053
21
4.47921
0
LINE
8
BLACK
6
CONTINUOUS
10
1.44053
20
4.47921
11
1.43923
21
4.47766
0
LINE
8
BLACK
6
CONTINUOUS
10
1.43923
20
4.47766
11
1.43724
21
4.47731
0
LINE
8
BLACK
6
CONTINUOUS
10
1.43724
20
4.47731
11
1.4355
21
4.47832
0
LINE
8
BLACK
6
CONTINUOUS
10
1.4355
20
4.47832
11
1.43541
21
4.47856
0
LINE
8
BLACK
6
CONTINUOUS
10
1.43541
20
4.47856
11
1.43345
21
4.47758
0
LINE
8
BLACK
6
CONTINUOUS
10
1.43345
20
4.47758
11
1.43247
21
4.47729
0
LINE
8
BLACK
6
CONTINUOUS
10
1.43247
20
4.47729
11
1.4323
21
4.47733
0
LINE
8
BLACK
6
CONTINUOUS
10
1.4323
20
4.47733
11
1.43213
21
4.47727
0
LINE
8
BLACK
6
CONTINUOUS
10
1.43213
20
4.47727
11
1.42651
21
4.47727
0
LINE
8
BLACK
6
CONTINUOUS
10
1.42651
20
4.47727
11
1.4255
21
4.47745
0
LINE
8
BLACK
6
CONTINUOUS
10
1.4255
20
4.47745
11
1.42536
21
4.47756
0
LINE
8
BLACK
6
CONTINUOUS
10
1.42536
20
4.47756
11
1.42519
21
4.47758
0
LINE
8
BLACK
6
CONTINUOUS
10
1.42519
20
4.47758
11
1.42144
21
4.47945
0
LINE
8
BLACK
6
CONTINUOUS
10
1.42144
20
4.47945
11
1.42062
21
4.48007
0
LINE
8
BLACK
6
CONTINUOUS
10
1.42062
20
4.48007
11
1.42044
21
4.48047
0
LINE
8
BLACK
6
CONTINUOUS
10
1.42044
20
4.48047
11
1.42012
21
4.48078
0
LINE
8
BLACK
6
CONTINUOUS
10
1.42012
20
4.48078
11
1.41824
21
4.48453
0
LINE
8
BLACK
6
CONTINUOUS
10
1.41824
20
4.48453
11
1.41795
21
4.48551
0
LINE
8
BLACK
6
CONTINUOUS
10
1.41795
20
4.48551
11
1.41799
21
4.48568
0
LINE
8
BLACK
6
CONTINUOUS
10
1.41799
20
4.48568
11
1.41793
21
4.48585
0
LINE
8
BLACK
6
CONTINUOUS
10
1.41793
20
4.48585
11
1.41793
21
4.50647
0
LINE
8
BLACK
6
CONTINUOUS
10
1.41793
20
4.50647
11
1.41811
21
4.50748
0
LINE
8
BLACK
6
CONTINUOUS
10
1.41811
20
4.50748
11
1.41941
21
4.50903
0
LINE
8
BLACK
6
CONTINUOUS
10
1.41941
20
4.50903
11
1.4214
21
4.50938
0
LINE
8
BLACK
6
CONTINUOUS
10
1.4214
20
4.50938
11
1.42315
21
4.50837
0
LINE
8
BLACK
6
CONTINUOUS
10
1.42315
20
4.50837
11
1.42384
21
4.50647
0
LINE
8
BLACK
6
CONTINUOUS
10
1.42384
20
4.50647
11
1.42384
21
4.48654
0
LINE
8
BLACK
6
CONTINUOUS
10
1.42384
20
4.48654
11
1.42496
21
4.4843
0
LINE
8
BLACK
6
CONTINUOUS
10
1.42496
20
4.4843
11
1.42721
21
4.48317
0
LINE
8
BLACK
6
CONTINUOUS
10
1.42721
20
4.48317
11
1.43144
21
4.48317
0
LINE
8
BLACK
6
CONTINUOUS
10
1.43144
20
4.48317
11
1.43413
21
4.48452
0
LINE
8
BLACK
6
CONTINUOUS
10
1.43413
20
4.48452
11
1.4348
21
4.48519
0
LINE
8
BLACK
6
CONTINUOUS
10
1.4348
20
4.48519
11
1.4348
21
4.50647
0
LINE
8
BLACK
6
CONTINUOUS
10
1.4348
20
4.50647
11
1.43498
21
4.50748
0
LINE
8
BLACK
6
CONTINUOUS
10
1.43498
20
4.50748
11
1.43628
21
4.50903
0
LINE
8
BLACK
6
CONTINUOUS
10
1.43628
20
4.50903
11
1.43827
21
4.50938
0
LINE
8
BLACK
6
CONTINUOUS
10
1.43827
20
4.50938
11
1.44002
21
4.50837
0
LINE
8
BLACK
6
CONTINUOUS
10
1.60875
20
4.52149
11
1.60944
21
4.51959
0
LINE
8
BLACK
6
CONTINUOUS
10
1.60944
20
4.51959
11
1.60944
21
4.48022
0
LINE
8
BLACK
6
CONTINUOUS
10
1.60944
20
4.48022
11
1.60926
21
4.47921
0
LINE
8
BLACK
6
CONTINUOUS
10
1.60926
20
4.47921
11
1.60796
21
4.47766
0
LINE
8
BLACK
6
CONTINUOUS
10
1.60796
20
4.47766
11
1.60597
21
4.47731
0
LINE
8
BLACK
6
CONTINUOUS
10
1.60597
20
4.47731
11
1.60484
21
4.47797
0
LINE
8
BLACK
6
CONTINUOUS
10
1.60484
20
4.47797
11
1.60406
21
4.47758
0
LINE
8
BLACK
6
CONTINUOUS
10
1.60406
20
4.47758
11
1.60307
21
4.47729
0
LINE
8
BLACK
6
CONTINUOUS
10
1.60307
20
4.47729
11
1.6029
21
4.47733
0
LINE
8
BLACK
6
CONTINUOUS
10
1.6029
20
4.47733
11
1.60274
21
4.47727
0
LINE
8
BLACK
6
CONTINUOUS
10
1.60274
20
4.47727
11
1.59524
21
4.47727
0
LINE
8
BLACK
6
CONTINUOUS
10
1.59524
20
4.47727
11
1.59423
21
4.47745
0
LINE
8
BLACK
6
CONTINUOUS
10
1.59423
20
4.47745
11
1.59409
21
4.47756
0
LINE
8
BLACK
6
CONTINUOUS
10
1.59409
20
4.47756
11
1.59392
21
4.47758
0
LINE
8
BLACK
6
CONTINUOUS
10
1.59392
20
4.47758
11
1.59017
21
4.47945
0
LINE
8
BLACK
6
CONTINUOUS
10
1.59017
20
4.47945
11
1.58946
21
4.47998
0
LINE
8
BLACK
6
CONTINUOUS
10
1.58946
20
4.47998
11
1.5894
21
4.48001
0
LINE
8
BLACK
6
CONTINUOUS
10
1.5894
20
4.48001
11
1.58753
21
4.48188
0
LINE
8
BLACK
6
CONTINUOUS
10
1.58753
20
4.48188
11
1.58702
21
4.48261
0
LINE
8
BLACK
6
CONTINUOUS
10
1.58702
20
4.48261
11
1.58697
21
4.48265
0
LINE
8
BLACK
6
CONTINUOUS
10
1.58697
20
4.48265
11
1.5851
21
4.4864
0
LINE
8
BLACK
6
CONTINUOUS
10
1.5851
20
4.4864
11
1.58481
21
4.48738
0
LINE
8
BLACK
6
CONTINUOUS
10
1.58481
20
4.48738
11
1.58485
21
4.48755
0
LINE
8
BLACK
6
CONTINUOUS
10
1.58485
20
4.48755
11
1.58479
21
4.48772
0
LINE
8
BLACK
6
CONTINUOUS
10
1.58479
20
4.48772
11
1.58479
21
4.49897
0
LINE
8
BLACK
6
CONTINUOUS
10
1.58479
20
4.49897
11
1.58496
21
4.49998
0
LINE
8
BLACK
6
CONTINUOUS
10
1.58496
20
4.49998
11
1.58508
21
4.50011
0
LINE
8
BLACK
6
CONTINUOUS
10
1.58508
20
4.50011
11
1.5851
21
4.50029
0
LINE
8
BLACK
6
CONTINUOUS
10
1.5851
20
4.50029
11
1.58697
21
4.50404
0
LINE
8
BLACK
6
CONTINUOUS
10
1.58697
20
4.50404
11
1.5875
21
4.50475
0
LINE
8
BLACK
6
CONTINUOUS
10
1.5875
20
4.50475
11
1.58753
21
4.50481
0
LINE
8
BLACK
6
CONTINUOUS
10
1.58753
20
4.50481
11
1.5894
21
4.50668
0
LINE
8
BLACK
6
CONTINUOUS
10
1.5894
20
4.50668
11
1.59012
21
4.50719
0
LINE
8
BLACK
6
CONTINUOUS
10
1.59012
20
4.50719
11
1.59017
21
4.50723
0
LINE
8
BLACK
6
CONTINUOUS
10
1.59017
20
4.50723
11
1.59392
21
4.50911
0
LINE
8
BLACK
6
CONTINUOUS
10
1.59392
20
4.50911
11
1.5949
21
4.5094
0
LINE
8
BLACK
6
CONTINUOUS
10
1.5949
20
4.5094
11
1.59507
21
4.50936
0
LINE
8
BLACK
6
CONTINUOUS
10
1.59507
20
4.50936
11
1.59524
21
4.50942
0
LINE
8
BLACK
6
CONTINUOUS
10
1.59524
20
4.50942
11
1.60274
21
4.50942
0
LINE
8
BLACK
6
CONTINUOUS
10
1.60274
20
4.50942
11
1.60353
21
4.50928
0
LINE
8
BLACK
6
CONTINUOUS
10
1.60353
20
4.50928
11
1.60353
21
4.51959
0
LINE
8
BLACK
6
CONTINUOUS
10
1.60353
20
4.51959
11
1.60371
21
4.5206
0
LINE
8
BLACK
6
CONTINUOUS
10
1.60371
20
4.5206
11
1.60501
21
4.52215
0
LINE
8
BLACK
6
CONTINUOUS
10
1.60501
20
4.52215
11
1.607
21
4.5225
0
LINE
8
BLACK
6
CONTINUOUS
10
1.607
20
4.5225
11
1.60875
21
4.52149
0
LINE
8
BLACK
6
CONTINUOUS
10
1.59594
20
4.50352
11
1.59324
21
4.50217
0
LINE
8
BLACK
6
CONTINUOUS
10
1.59324
20
4.50217
11
1.59204
21
4.50097
0
LINE
8
BLACK
6
CONTINUOUS
10
1.59204
20
4.50097
11
1.59069
21
4.49827
0
LINE
8
BLACK
6
CONTINUOUS
10
1.59069
20
4.49827
11
1.59069
21
4.48842
0
LINE
8
BLACK
6
CONTINUOUS
10
1.59069
20
4.48842
11
1.59204
21
4.48572
0
LINE
8
BLACK
6
CONTINUOUS
10
1.59204
20
4.48572
11
1.59324
21
4.48452
0
LINE
8
BLACK
6
CONTINUOUS
10
1.59324
20
4.48452
11
1.59594
21
4.48317
0
LINE
8
BLACK
6
CONTINUOUS
10
1.59594
20
4.48317
11
1.60204
21
4.48317
0
LINE
8
BLACK
6
CONTINUOUS
10
1.60204
20
4.48317
11
1.60353
21
4.48392
0
LINE
8
BLACK
6
CONTINUOUS
10
1.60353
20
4.48392
11
1.60353
21
4.50277
0
LINE
8
BLACK
6
CONTINUOUS
10
1.60353
20
4.50277
11
1.60204
21
4.50352
0
LINE
8
BLACK
6
CONTINUOUS
10
1.60204
20
4.50352
11
1.59594
21
4.50352
0
LINE
8
BLACK
6
CONTINUOUS
10
0.546379
20
4.52237
11
0.546514
21
4.52225
0
LINE
8
BLACK
6
CONTINUOUS
10
0.546514
20
4.52225
11
0.54669
21
4.52223
0
LINE
8
BLACK
6
CONTINUOUS
10
0.54669
20
4.52223
11
0.550439
21
4.52036
0
LINE
8
BLACK
6
CONTINUOUS
10
0.550439
20
4.52036
11
0.551148
21
4.51983
0
LINE
8
BLACK
6
CONTINUOUS
10
0.551148
20
4.51983
11
0.551207
21
4.5198
0
LINE
8
BLACK
6
CONTINUOUS
10
0.551207
20
4.5198
11
0.553082
21
4.51793
0
LINE
8
BLACK
6
CONTINUOUS
10
0.553082
20
4.51793
11
0.553588
21
4.51721
0
LINE
8
BLACK
6
CONTINUOUS
10
0.553588
20
4.51721
11
0.553635
21
4.51716
0
LINE
8
BLACK
6
CONTINUOUS
10
0.553635
20
4.51716
11
0.555509
21
4.51341
0
LINE
8
BLACK
6
CONTINUOUS
10
0.555509
20
4.51341
11
0.555802
21
4.51243
0
LINE
8
BLACK
6
CONTINUOUS
10
0.555802
20
4.51243
11
0.555761
21
4.51226
0
LINE
8
BLACK
6
CONTINUOUS
10
0.555761
20
4.51226
11
0.555821
21
4.51209
0
LINE
8
BLACK
6
CONTINUOUS
10
0.555821
20
4.51209
11
0.555821
21
4.50647
0
LINE
8
BLACK
6
CONTINUOUS
10
0.555821
20
4.50647
11
0.555643
21
4.50546
0
LINE
8
BLACK
6
CONTINUOUS
10
0.555643
20
4.50546
11
0.55553
21
4.50532
0
LINE
8
BLACK
6
CONTINUOUS
10
0.55553
20
4.50532
11
0.555509
21
4.50515
0
LINE
8
BLACK
6
CONTINUOUS
10
0.555509
20
4.50515
11
0.553635
21
4.5014
0
LINE
8
BLACK
6
CONTINUOUS
10
0.553635
20
4.5014
11
0.553109
21
4.50069
0
LINE
8
BLACK
6
CONTINUOUS
10
0.553109
20
4.50069
11
0.553082
21
4.50063
0
LINE
8
BLACK
6
CONTINUOUS
10
0.553082
20
4.50063
11
0.551207
21
4.49876
0
LINE
8
BLACK
6
CONTINUOUS
10
0.551207
20
4.49876
11
0.550484
21
4.49825
0
LINE
8
BLACK
6
CONTINUOUS
10
0.550484
20
4.49825
11
0.550439
21
4.4982
0
LINE
8
BLACK
6
CONTINUOUS
10
0.550439
20
4.4982
11
0.54669
21
4.49633
0
LINE
8
BLACK
6
CONTINUOUS
10
0.54669
20
4.49633
11
0.545707
21
4.49604
0
LINE
8
BLACK
6
CONTINUOUS
10
0.545707
20
4.49604
11
0.545535
21
4.49608
0
LINE
8
BLACK
6
CONTINUOUS
10
0.545535
20
4.49608
11
0.545369
21
4.49602
0
LINE
8
BLACK
6
CONTINUOUS
10
0.545369
20
4.49602
11
0.533324
21
4.49602
0
LINE
8
BLACK
6
CONTINUOUS
10
0.533324
20
4.49602
11
0.533324
21
4.48022
0
LINE
8
BLACK
6
CONTINUOUS
10
0.533324
20
4.48022
11
0.533146
21
4.47921
0
LINE
8
BLACK
6
CONTINUOUS
10
0.533146
20
4.47921
11
0.531848
21
4.47766
0
LINE
8
BLACK
6
CONTINUOUS
10
0.531848
20
4.47766
11
0.529858
21
4.47731
0
LINE
8
BLACK
6
CONTINUOUS
10
0.529858
20
4.47731
11
0.528109
21
4.47832
0
LINE
8
BLACK
6
CONTINUOUS
10
0.528109
20
4.47832
11
0.527418
21
4.48022
0
LINE
8
BLACK
6
CONTINUOUS
10
0.527418
20
4.48022
11
0.527418
21
4.51959
0
LINE
8
BLACK
6
CONTINUOUS
10
0.527418
20
4.51959
11
0.527486
21
4.51997
0
LINE
8
BLACK
6
CONTINUOUS
10
0.527486
20
4.51997
11
0.527463
21
4.5201
0
LINE
8
BLACK
6
CONTINUOUS
10
0.527463
20
4.5201
11
0.527529
21
4.52022
0
LINE
8
BLACK
6
CONTINUOUS
10
0.527529
20
4.52022
11
0.527596
21
4.5206
0
LINE
8
BLACK
6
CONTINUOUS
10
0.527596
20
4.5206
11
0.52809
21
4.52119
0
LINE
8
BLACK
6
CONTINUOUS
10
0.52809
20
4.52119
11
0.528473
21
4.52185
0
LINE
8
BLACK
6
CONTINUOUS
10
0.528473
20
4.52185
11
0.528724
21
4.52194
0
LINE
8
BLACK
6
CONTINUOUS
10
0.528724
20
4.52194
11
0.528895
21
4.52215
0
LINE
8
BLACK
6
CONTINUOUS
10
0.528895
20
4.52215
11
0.52965
21
4.52228
0
LINE
8
BLACK
6
CONTINUOUS
10
0.52965
20
4.52228
11
0.530371
21
4.52254
0
LINE
8
BLACK
6
CONTINUOUS
10
0.530371
20
4.52254
11
0.545369
21
4.52254
0
LINE
8
BLACK
6
CONTINUOUS
10
0.545369
20
4.52254
11
0.546379
21
4.52237
0
LINE
8
BLACK
6
CONTINUOUS
10
0.533324
20
4.51664
11
0.533324
21
4.50192
0
LINE
8
BLACK
6
CONTINUOUS
10
0.533324
20
4.50192
11
0.544672
21
4.50192
0
LINE
8
BLACK
6
CONTINUOUS
10
0.544672
20
4.50192
11
0.54737
21
4.50327
0
LINE
8
BLACK
6
CONTINUOUS
10
0.54737
20
4.50327
11
0.548567
21
4.50447
0
LINE
8
BLACK
6
CONTINUOUS
10
0.548567
20
4.50447
11
0.549916
21
4.50716
0
LINE
8
BLACK
6
CONTINUOUS
10
0.549916
20
4.50716
11
0.549916
21
4.5114
0
LINE
8
BLACK
6
CONTINUOUS
10
0.549916
20
4.5114
11
0.548567
21
4.51409
0
LINE
8
BLACK
6
CONTINUOUS
10
0.548567
20
4.51409
11
0.54737
21
4.51529
0
LINE
8
BLACK
6
CONTINUOUS
10
0.54737
20
4.51529
11
0.544672
21
4.51664
0
LINE
8
BLACK
6
CONTINUOUS
10
0.544672
20
4.51664
11
0.533324
21
4.51664
0
LINE
8
BLACK
6
CONTINUOUS
10
0.484512
20
4.50924
11
0.484647
21
4.50913
0
LINE
8
BLACK
6
CONTINUOUS
10
0.484647
20
4.50913
11
0.484823
21
4.50911
0
LINE
8
BLACK
6
CONTINUOUS
10
0.484823
20
4.50911
11
0.488572
21
4.50723
0
LINE
8
BLACK
6
CONTINUOUS
10
0.488572
20
4.50723
11
0.489396
21
4.50662
0
LINE
8
BLACK
6
CONTINUOUS
10
0.489396
20
4.50662
11
0.489572
21
4.50622
0
LINE
8
BLACK
6
CONTINUOUS
10
0.489572
20
4.50622
11
0.489893
21
4.50591
0
LINE
8
BLACK
6
CONTINUOUS
10
0.489893
20
4.50591
11
0.491767
21
4.50216
0
LINE
8
BLACK
6
CONTINUOUS
10
0.491767
20
4.50216
11
0.49206
21
4.50118
0
LINE
8
BLACK
6
CONTINUOUS
10
0.49206
20
4.50118
11
0.492019
21
4.50101
0
LINE
8
BLACK
6
CONTINUOUS
10
0.492019
20
4.50101
11
0.492079
21
4.50084
0
LINE
8
BLACK
6
CONTINUOUS
10
0.492079
20
4.50084
11
0.492079
21
4.48022
0
LINE
8
BLACK
6
CONTINUOUS
10
0.492079
20
4.48022
11
0.491901
21
4.47921
0
LINE
8
BLACK
6
CONTINUOUS
10
0.491901
20
4.47921
11
0.490603
21
4.47766
0
LINE
8
BLACK
6
CONTINUOUS
10
0.490603
20
4.47766
11
0.488614
21
4.47731
0
LINE
8
BLACK
6
CONTINUOUS
10
0.488614
20
4.47731
11
0.486864
21
4.47832
0
LINE
8
BLACK
6
CONTINUOUS
10
0.486864
20
4.47832
11
0.486174
21
4.48022
0
LINE
8
BLACK
6
CONTINUOUS
10
0.486174
20
4.48022
11
0.486174
21
4.50015
0
LINE
8
BLACK
6
CONTINUOUS
10
0.486174
20
4.50015
11
0.485051
21
4.50239
0
LINE
8
BLACK
6
CONTINUOUS
10
0.485051
20
4.50239
11
0.482805
21
4.50352
0
LINE
8
BLACK
6
CONTINUOUS
10
0.482805
20
4.50352
11
0.478575
21
4.50352
0
LINE
8
BLACK
6
CONTINUOUS
10
0.478575
20
4.50352
11
0.475877
21
4.50217
0
LINE
8
BLACK
6
CONTINUOUS
10
0.475877
20
4.50217
11
0.475206
21
4.5015
0
LINE
8
BLACK
6
CONTINUOUS
10
0.475206
20
4.5015
11
0.475206
21
4.48022
0
LINE
8
BLACK
6
CONTINUOUS
10
0.475206
20
4.48022
11
0.475028
21
4.47921
0
LINE
8
BLACK
6
CONTINUOUS
10
0.475028
20
4.47921
11
0.47373
21
4.47766
0
LINE
8
BLACK
6
CONTINUOUS
10
0.47373
20
4.47766
11
0.471741
21
4.47731
0
LINE
8
BLACK
6
CONTINUOUS
10
0.471741
20
4.47731
11
0.469992
21
4.47832
0
LINE
8
BLACK
6
CONTINUOUS
10
0.469992
20
4.47832
11
0.469301
21
4.48022
0
LINE
8
BLACK
6
CONTINUOUS
10
0.469301
20
4.48022
11
0.469301
21
4.50647
0
LINE
8
BLACK
6
CONTINUOUS
10
0.469301
20
4.50647
11
0.469479
21
4.50748
0
LINE
8
BLACK
6
CONTINUOUS
10
0.469479
20
4.50748
11
0.470777
21
4.50903
0
LINE
8
BLACK
6
CONTINUOUS
10
0.470777
20
4.50903
11
0.472766
21
4.50938
0
LINE
8
BLACK
6
CONTINUOUS
10
0.472766
20
4.50938
11
0.474515
21
4.50837
0
LINE
8
BLACK
6
CONTINUOUS
10
0.474515
20
4.50837
11
0.474601
21
4.50813
0
LINE
8
BLACK
6
CONTINUOUS
10
0.474601
20
4.50813
11
0.476557
21
4.50911
0
LINE
8
BLACK
6
CONTINUOUS
10
0.476557
20
4.50911
11
0.47754
21
4.5094
0
LINE
8
BLACK
6
CONTINUOUS
10
0.47754
20
4.5094
11
0.477712
21
4.50936
0
LINE
8
BLACK
6
CONTINUOUS
10
0.477712
20
4.50936
11
0.477878
21
4.50942
0
LINE
8
BLACK
6
CONTINUOUS
10
0.477878
20
4.50942
11
0.483502
21
4.50942
0
LINE
8
BLACK
6
CONTINUOUS
10
0.483502
20
4.50942
11
0.484512
21
4.50924
0
LINE
8
BLACK
6
CONTINUOUS
10
1.36664
20
4.52243
11
1.36703
21
4.5225
0
LINE
8
BLACK
6
CONTINUOUS
10
1.36703
20
4.5225
11
1.36759
21
4.52218
0
LINE
8
BLACK
6
CONTINUOUS
10
1.36759
20
4.52218
11
1.36821
21
4.52201
0
LINE
8
BLACK
6
CONTINUOUS
10
1.36821
20
4.52201
11
1.36844
21
4.52169
0
LINE
8
BLACK
6
CONTINUOUS
10
1.36844
20
4.52169
11
1.36878
21
4.52149
0
LINE
8
BLACK
6
CONTINUOUS
10
1.36878
20
4.52149
11
1.369
21
4.52088
0
LINE
8
BLACK
6
CONTINUOUS
10
1.369
20
4.52088
11
1.36937
21
4.52035
0
LINE
8
BLACK
6
CONTINUOUS
10
1.36937
20
4.52035
11
1.36933
21
4.51996
0
LINE
8
BLACK
6
CONTINUOUS
10
1.36933
20
4.51996
11
1.36947
21
4.51959
0
LINE
8
BLACK
6
CONTINUOUS
10
1.36947
20
4.51959
11
1.36947
21
4.48022
0
LINE
8
BLACK
6
CONTINUOUS
10
1.36947
20
4.48022
11
1.36929
21
4.47921
0
LINE
8
BLACK
6
CONTINUOUS
10
1.36929
20
4.47921
11
1.36799
21
4.47766
0
LINE
8
BLACK
6
CONTINUOUS
10
1.36799
20
4.47766
11
1.366
21
4.47731
0
LINE
8
BLACK
6
CONTINUOUS
10
1.366
20
4.47731
11
1.36425
21
4.47832
0
LINE
8
BLACK
6
CONTINUOUS
10
1.36425
20
4.47832
11
1.36356
21
4.48022
0
LINE
8
BLACK
6
CONTINUOUS
10
1.36356
20
4.48022
11
1.36356
21
4.50628
0
LINE
8
BLACK
6
CONTINUOUS
10
1.36356
20
4.50628
11
1.35607
21
4.49022
0
LINE
8
BLACK
6
CONTINUOUS
10
1.35607
20
4.49022
11
1.35585
21
4.4899
0
LINE
8
BLACK
6
CONTINUOUS
10
1.35585
20
4.4899
11
1.35581
21
4.48978
0
LINE
8
BLACK
6
CONTINUOUS
10
1.35581
20
4.48978
11
1.3557
21
4.4897
0
LINE
8
BLACK
6
CONTINUOUS
10
1.3557
20
4.4897
11
1.35548
21
4.48938
0
LINE
8
BLACK
6
CONTINUOUS
10
1.35548
20
4.48938
11
1.35479
21
4.48906
0
LINE
8
BLACK
6
CONTINUOUS
10
1.35479
20
4.48906
11
1.35416
21
4.48862
0
LINE
8
BLACK
6
CONTINUOUS
10
1.35416
20
4.48862
11
1.35389
21
4.48864
0
LINE
8
BLACK
6
CONTINUOUS
10
1.35389
20
4.48864
11
1.35365
21
4.48853
0
LINE
8
BLACK
6
CONTINUOUS
10
1.35365
20
4.48853
11
1.35291
21
4.48873
0
LINE
8
BLACK
6
CONTINUOUS
10
1.35291
20
4.48873
11
1.35215
21
4.48879
0
LINE
8
BLACK
6
CONTINUOUS
10
1.35215
20
4.48879
11
1.35196
21
4.48898
0
LINE
8
BLACK
6
CONTINUOUS
10
1.35196
20
4.48898
11
1.3517
21
4.48905
0
LINE
8
BLACK
6
CONTINUOUS
10
1.3517
20
4.48905
11
1.35126
21
4.48968
0
LINE
8
BLACK
6
CONTINUOUS
10
1.35126
20
4.48968
11
1.35072
21
4.49022
0
LINE
8
BLACK
6
CONTINUOUS
10
1.35072
20
4.49022
11
1.34322
21
4.50628
0
LINE
8
BLACK
6
CONTINUOUS
10
1.34322
20
4.50628
11
1.34322
21
4.48022
0
LINE
8
BLACK
6
CONTINUOUS
10
1.34322
20
4.48022
11
1.34304
21
4.47921
0
LINE
8
BLACK
6
CONTINUOUS
10
1.34304
20
4.47921
11
1.34175
21
4.47766
0
LINE
8
BLACK
6
CONTINUOUS
10
1.34175
20
4.47766
11
1.33976
21
4.47731
0
LINE
8
BLACK
6
CONTINUOUS
10
1.33976
20
4.47731
11
1.33801
21
4.47832
0
LINE
8
BLACK
6
CONTINUOUS
10
1.33801
20
4.47832
11
1.33732
21
4.48022
0
LINE
8
BLACK
6
CONTINUOUS
10
1.33732
20
4.48022
11
1.33732
21
4.51959
0
LINE
8
BLACK
6
CONTINUOUS
10
1.33732
20
4.51959
11
1.3375
21
4.5206
0
LINE
8
BLACK
6
CONTINUOUS
10
1.3375
20
4.5206
11
1.33775
21
4.5209
0
LINE
8
BLACK
6
CONTINUOUS
10
1.33775
20
4.5209
11
1.33785
21
4.52128
0
LINE
8
BLACK
6
CONTINUOUS
10
1.33785
20
4.52128
11
1.33838
21
4.52165
0
LINE
8
BLACK
6
CONTINUOUS
10
1.33838
20
4.52165
11
1.33879
21
4.52215
0
LINE
8
BLACK
6
CONTINUOUS
10
1.33879
20
4.52215
11
1.33918
21
4.52222
0
LINE
8
BLACK
6
CONTINUOUS
10
1.33918
20
4.52222
11
1.3395
21
4.52244
0
LINE
8
BLACK
6
CONTINUOUS
10
1.3395
20
4.52244
11
1.34015
21
4.52239
0
LINE
8
BLACK
6
CONTINUOUS
10
1.34015
20
4.52239
11
1.34078
21
4.5225
0
LINE
8
BLACK
6
CONTINUOUS
10
1.34078
20
4.5225
11
1.34112
21
4.5223
0
LINE
8
BLACK
6
CONTINUOUS
10
1.34112
20
4.5223
11
1.34152
21
4.52227
0
LINE
8
BLACK
6
CONTINUOUS
10
1.34152
20
4.52227
11
1.34197
21
4.52181
0
LINE
8
BLACK
6
CONTINUOUS
10
1.34197
20
4.52181
11
1.34253
21
4.52149
0
LINE
8
BLACK
6
CONTINUOUS
10
1.34253
20
4.52149
11
1.34267
21
4.52112
0
LINE
8
BLACK
6
CONTINUOUS
10
1.34267
20
4.52112
11
1.34295
21
4.52084
0
LINE
8
BLACK
6
CONTINUOUS
10
1.34295
20
4.52084
11
1.35339
21
4.49845
0
LINE
8
BLACK
6
CONTINUOUS
10
1.35339
20
4.49845
11
1.36384
21
4.52084
0
LINE
8
BLACK
6
CONTINUOUS
10
1.36384
20
4.52084
11
1.36443
21
4.52168
0
LINE
8
BLACK
6
CONTINUOUS
10
1.36443
20
4.52168
11
1.36479
21
4.52185
0
LINE
8
BLACK
6
CONTINUOUS
10
1.36479
20
4.52185
11
1.36504
21
4.52215
0
LINE
8
BLACK
6
CONTINUOUS
10
1.36504
20
4.52215
11
1.36568
21
4.52226
0
LINE
8
BLACK
6
CONTINUOUS
10
1.36568
20
4.52226
11
1.36626
21
4.52253
0
LINE
8
BLACK
6
CONTINUOUS
10
1.36626
20
4.52253
11
1.36664
21
4.52243
0
LINE
8
BLACK
6
CONTINUOUS
10
0.382389
20
4.52243
11
0.382777
21
4.5225
0
LINE
8
BLACK
6
CONTINUOUS
10
0.382777
20
4.5225
11
0.383336
21
4.52218
0
LINE
8
BLACK
6
CONTINUOUS
10
0.383336
20
4.52218
11
0.383959
21
4.52201
0
LINE
8
BLACK
6
CONTINUOUS
10
0.383959
20
4.52201
11
0.384185
21
4.52169
0
LINE
8
BLACK
6
CONTINUOUS
10
0.384185
20
4.52169
11
0.384527
21
4.52149
0
LINE
8
BLACK
6
CONTINUOUS
10
0.384527
20
4.52149
11
0.384747
21
4.52088
0
LINE
8
BLACK
6
CONTINUOUS
10
0.384747
20
4.52088
11
0.385117
21
4.52035
0
LINE
8
BLACK
6
CONTINUOUS
10
0.385117
20
4.52035
11
0.385083
21
4.51996
0
LINE
8
BLACK
6
CONTINUOUS
10
0.385083
20
4.51996
11
0.385217
21
4.51959
0
LINE
8
BLACK
6
CONTINUOUS
10
0.385217
20
4.51959
11
0.385217
21
4.48022
0
LINE
8
BLACK
6
CONTINUOUS
10
0.385217
20
4.48022
11
0.385039
21
4.47921
0
LINE
8
BLACK
6
CONTINUOUS
10
0.385039
20
4.47921
11
0.383741
21
4.47766
0
LINE
8
BLACK
6
CONTINUOUS
10
0.383741
20
4.47766
11
0.381752
21
4.47731
0
LINE
8
BLACK
6
CONTINUOUS
10
0.381752
20
4.47731
11
0.380003
21
4.47832
0
LINE
8
BLACK
6
CONTINUOUS
10
0.380003
20
4.47832
11
0.379312
21
4.48022
0
LINE
8
BLACK
6
CONTINUOUS
10
0.379312
20
4.48022
11
0.379312
21
4.50628
0
LINE
8
BLACK
6
CONTINUOUS
10
0.379312
20
4.50628
11
0.371817
21
4.49022
0
LINE
8
BLACK
6
CONTINUOUS
10
0.371817
20
4.49022
11
0.371594
21
4.4899
0
LINE
8
BLACK
6
CONTINUOUS
10
0.371594
20
4.4899
11
0.371561
21
4.48978
0
LINE
8
BLACK
6
CONTINUOUS
10
0.371561
20
4.48978
11
0.371453
21
4.4897
0
LINE
8
BLACK
6
CONTINUOUS
10
0.371453
20
4.4897
11
0.371229
21
4.48938
0
LINE
8
BLACK
6
CONTINUOUS
10
0.371229
20
4.48938
11
0.370534
21
4.48906
0
LINE
8
BLACK
6
CONTINUOUS
10
0.370534
20
4.48906
11
0.369906
21
4.48862
0
LINE
8
BLACK
6
CONTINUOUS
10
0.369906
20
4.48862
11
0.36964
21
4.48864
0
LINE
8
BLACK
6
CONTINUOUS
10
0.36964
20
4.48864
11
0.369398
21
4.48853
0
LINE
8
BLACK
6
CONTINUOUS
10
0.369398
20
4.48853
11
0.368658
21
4.48873
0
LINE
8
BLACK
6
CONTINUOUS
10
0.368658
20
4.48873
11
0.367894
21
4.48879
0
LINE
8
BLACK
6
CONTINUOUS
10
0.367894
20
4.48879
11
0.367705
21
4.48898
0
LINE
8
BLACK
6
CONTINUOUS
10
0.367705
20
4.48898
11
0.367447
21
4.48905
0
LINE
8
BLACK
6
CONTINUOUS
10
0.367447
20
4.48905
11
0.367008
21
4.48968
0
LINE
8
BLACK
6
CONTINUOUS
10
0.367008
20
4.48968
11
0.366466
21
4.49022
0
LINE
8
BLACK
6
CONTINUOUS
10
0.366466
20
4.49022
11
0.358971
21
4.50628
0
LINE
8
BLACK
6
CONTINUOUS
10
0.358971
20
4.50628
11
0.358971
21
4.48022
0
LINE
8
BLACK
6
CONTINUOUS
10
0.358971
20
4.48022
11
0.358793
21
4.47921
0
LINE
8
BLACK
6
CONTINUOUS
10
0.358793
20
4.47921
11
0.357494
21
4.47766
0
LINE
8
BLACK
6
CONTINUOUS
10
0.357494
20
4.47766
11
0.355505
21
4.47731
0
LINE
8
BLACK
6
CONTINUOUS
10
0.355505
20
4.47731
11
0.353756
21
4.47832
0
LINE
8
BLACK
6
CONTINUOUS
10
0.353756
20
4.47832
11
0.353065
21
4.48022
0
LINE
8
BLACK
6
CONTINUOUS
10
0.353065
20
4.48022
11
0.353065
21
4.51959
0
LINE
8
BLACK
6
CONTINUOUS
10
0.353065
20
4.51959
11
0.353243
21
4.5206
0
LINE
8
BLACK
6
CONTINUOUS
10
0.353243
20
4.5206
11
0.353497
21
4.5209
0
LINE
8
BLACK
6
CONTINUOUS
10
0.353497
20
4.5209
11
0.353599
21
4.52128
0
LINE
8
BLACK
6
CONTINUOUS
10
0.353599
20
4.52128
11
0.354127
21
4.52165
0
LINE
8
BLACK
6
CONTINUOUS
10
0.354127
20
4.52165
11
0.354542
21
4.52215
0
LINE
8
BLACK
6
CONTINUOUS
10
0.354542
20
4.52215
11
0.35493
21
4.52222
0
LINE
8
BLACK
6
CONTINUOUS
10
0.35493
20
4.52222
11
0.355253
21
4.52244
0
LINE
8
BLACK
6
CONTINUOUS
10
0.355253
20
4.52244
11
0.355895
21
4.52239
0
LINE
8
BLACK
6
CONTINUOUS
10
0.355895
20
4.52239
11
0.356531
21
4.5225
0
LINE
8
BLACK
6
CONTINUOUS
10
0.356531
20
4.5225
11
0.356872
21
4.5223
0
LINE
8
BLACK
6
CONTINUOUS
10
0.356872
20
4.5223
11
0.357265
21
4.52227
0
LINE
8
BLACK
6
CONTINUOUS
10
0.357265
20
4.52227
11
0.357721
21
4.52181
0
LINE
8
BLACK
6
CONTINUOUS
10
0.357721
20
4.52181
11
0.35828
21
4.52149
0
LINE
8
BLACK
6
CONTINUOUS
10
0.35828
20
4.52149
11
0.358415
21
4.52112
0
LINE
8
BLACK
6
CONTINUOUS
10
0.358415
20
4.52112
11
0.358694
21
4.52084
0
LINE
8
BLACK
6
CONTINUOUS
10
0.358694
20
4.52084
11
0.369141
21
4.49845
0
LINE
8
BLACK
6
CONTINUOUS
10
0.369141
20
4.49845
11
0.379589
21
4.52084
0
LINE
8
BLACK
6
CONTINUOUS
10
0.379589
20
4.52084
11
0.380177
21
4.52168
0
LINE
8
BLACK
6
CONTINUOUS
10
0.380177
20
4.52168
11
0.380535
21
4.52185
0
LINE
8
BLACK
6
CONTINUOUS
10
0.380535
20
4.52185
11
0.380788
21
4.52215
0
LINE
8
BLACK
6
CONTINUOUS
10
0.380788
20
4.52215
11
0.381424
21
4.52226
0
LINE
8
BLACK
6
CONTINUOUS
10
0.381424
20
4.52226
11
0.382008
21
4.52253
0
LINE
8
BLACK
6
CONTINUOUS
10
0.382008
20
4.52253
11
0.382389
21
4.52243
0
LINE
8
BLACK
6
CONTINUOUS
10
1.53063
20
4.52237
11
1.53077
21
4.52225
0
LINE
8
BLACK
6
CONTINUOUS
10
1.53077
20
4.52225
11
1.53094
21
4.52223
0
LINE
8
BLACK
6
CONTINUOUS
10
1.53094
20
4.52223
11
1.53469
21
4.52036
0
LINE
8
BLACK
6
CONTINUOUS
10
1.53469
20
4.52036
11
1.5354
21
4.51983
0
LINE
8
BLACK
6
CONTINUOUS
10
1.5354
20
4.51983
11
1.53546
21
4.5198
0
LINE
8
BLACK
6
CONTINUOUS
10
1.53546
20
4.5198
11
1.53733
21
4.51793
0
LINE
8
BLACK
6
CONTINUOUS
10
1.53733
20
4.51793
11
1.53784
21
4.51721
0
LINE
8
BLACK
6
CONTINUOUS
10
1.53784
20
4.51721
11
1.53789
21
4.51716
0
LINE
8
BLACK
6
CONTINUOUS
10
1.53789
20
4.51716
11
1.53976
21
4.51341
0
LINE
8
BLACK
6
CONTINUOUS
10
1.53976
20
4.51341
11
1.54005
21
4.51243
0
LINE
8
BLACK
6
CONTINUOUS
10
1.54005
20
4.51243
11
1.54001
21
4.51226
0
LINE
8
BLACK
6
CONTINUOUS
10
1.54001
20
4.51226
11
1.54007
21
4.51209
0
LINE
8
BLACK
6
CONTINUOUS
10
1.54007
20
4.51209
11
1.54007
21
4.50647
0
LINE
8
BLACK
6
CONTINUOUS
10
1.54007
20
4.50647
11
1.5399
21
4.50546
0
LINE
8
BLACK
6
CONTINUOUS
10
1.5399
20
4.50546
11
1.53978
21
4.50532
0
LINE
8
BLACK
6
CONTINUOUS
10
1.53978
20
4.50532
11
1.53976
21
4.50515
0
LINE
8
BLACK
6
CONTINUOUS
10
1.53976
20
4.50515
11
1.53789
21
4.5014
0
LINE
8
BLACK
6
CONTINUOUS
10
1.53789
20
4.5014
11
1.53736
21
4.50069
0
LINE
8
BLACK
6
CONTINUOUS
10
1.53736
20
4.50069
11
1.53733
21
4.50063
0
LINE
8
BLACK
6
CONTINUOUS
10
1.53733
20
4.50063
11
1.53546
21
4.49876
0
LINE
8
BLACK
6
CONTINUOUS
10
1.53546
20
4.49876
11
1.53474
21
4.49825
0
LINE
8
BLACK
6
CONTINUOUS
10
1.53474
20
4.49825
11
1.53469
21
4.4982
0
LINE
8
BLACK
6
CONTINUOUS
10
1.53469
20
4.4982
11
1.53094
21
4.49633
0
LINE
8
BLACK
6
CONTINUOUS
10
1.53094
20
4.49633
11
1.52996
21
4.49604
0
LINE
8
BLACK
6
CONTINUOUS
10
1.52996
20
4.49604
11
1.52979
21
4.49608
0
LINE
8
BLACK
6
CONTINUOUS
10
1.52979
20
4.49608
11
1.52962
21
4.49602
0
LINE
8
BLACK
6
CONTINUOUS
10
1.52962
20
4.49602
11
1.51758
21
4.49602
0
LINE
8
BLACK
6
CONTINUOUS
10
1.51758
20
4.49602
11
1.51758
21
4.48022
0
LINE
8
BLACK
6
CONTINUOUS
10
1.51758
20
4.48022
11
1.5174
21
4.47921
0
LINE
8
BLACK
6
CONTINUOUS
10
1.5174
20
4.47921
11
1.5161
21
4.47766
0
LINE
8
BLACK
6
CONTINUOUS
10
1.5161
20
4.47766
11
1.51411
21
4.47731
0
LINE
8
BLACK
6
CONTINUOUS
10
1.51411
20
4.47731
11
1.51236
21
4.47832
0
LINE
8
BLACK
6
CONTINUOUS
10
1.51236
20
4.47832
11
1.51167
21
4.48022
0
LINE
8
BLACK
6
CONTINUOUS
10
1.51167
20
4.48022
11
1.51167
21
4.51959
0
LINE
8
BLACK
6
CONTINUOUS
10
1.51167
20
4.51959
11
1.51174
21
4.51997
0
LINE
8
BLACK
6
CONTINUOUS
10
1.51174
20
4.51997
11
1.51172
21
4.5201
0
LINE
8
BLACK
6
CONTINUOUS
10
1.51172
20
4.5201
11
1.51178
21
4.52022
0
LINE
8
BLACK
6
CONTINUOUS
10
1.51178
20
4.52022
11
1.51185
21
4.5206
0
LINE
8
BLACK
6
CONTINUOUS
10
1.51185
20
4.5206
11
1.51234
21
4.52119
0
LINE
8
BLACK
6
CONTINUOUS
10
1.51234
20
4.52119
11
1.51273
21
4.52185
0
LINE
8
BLACK
6
CONTINUOUS
10
1.51273
20
4.52185
11
1.51298
21
4.52194
0
LINE
8
BLACK
6
CONTINUOUS
10
1.51298
20
4.52194
11
1.51315
21
4.52215
0
LINE
8
BLACK
6
CONTINUOUS
10
1.51315
20
4.52215
11
1.5139
21
4.52228
0
LINE
8
BLACK
6
CONTINUOUS
10
1.5139
20
4.52228
11
1.51462
21
4.52254
0
LINE
8
BLACK
6
CONTINUOUS
10
1.51462
20
4.52254
11
1.52962
21
4.52254
0
LINE
8
BLACK
6
CONTINUOUS
10
1.52962
20
4.52254
11
1.53063
21
4.52237
0
LINE
8
BLACK
6
CONTINUOUS
10
1.51758
20
4.51664
11
1.51758
21
4.50192
0
LINE
8
BLACK
6
CONTINUOUS
10
1.51758
20
4.50192
11
1.52892
21
4.50192
0
LINE
8
BLACK
6
CONTINUOUS
10
1.52892
20
4.50192
11
1.53162
21
4.50327
0
LINE
8
BLACK
6
CONTINUOUS
10
1.53162
20
4.50327
11
1.53282
21
4.50447
0
LINE
8
BLACK
6
CONTINUOUS
10
1.53282
20
4.50447
11
1.53417
21
4.50716
0
LINE
8
BLACK
6
CONTINUOUS
10
1.53417
20
4.50716
11
1.53417
21
4.5114
0
LINE
8
BLACK
6
CONTINUOUS
10
1.53417
20
4.5114
11
1.53282
21
4.51409
0
LINE
8
BLACK
6
CONTINUOUS
10
1.53282
20
4.51409
11
1.53162
21
4.51529
0
LINE
8
BLACK
6
CONTINUOUS
10
1.53162
20
4.51529
11
1.52892
21
4.51664
0
LINE
8
BLACK
6
CONTINUOUS
10
1.52892
20
4.51664
11
1.51758
21
4.51664
0
LINE
8
BLACK
6
CONTINUOUS
10
1.46876
20
4.50924
11
1.4689
21
4.50913
0
LINE
8
BLACK
6
CONTINUOUS
10
1.4689
20
4.50913
11
1.46907
21
4.50911
0
LINE
8
BLACK
6
CONTINUOUS
10
1.46907
20
4.50911
11
1.47282
21
4.50723
0
LINE
8
BLACK
6
CONTINUOUS
10
1.47282
20
4.50723
11
1.47365
21
4.50662
0
LINE
8
BLACK
6
CONTINUOUS
10
1.47365
20
4.50662
11
1.47382
21
4.50622
0
LINE
8
BLACK
6
CONTINUOUS
10
1.47382
20
4.50622
11
1.47414
21
4.50591
0
LINE
8
BLACK
6
CONTINUOUS
10
1.47414
20
4.50591
11
1.47602
21
4.50216
0
LINE
8
BLACK
6
CONTINUOUS
10
1.47602
20
4.50216
11
1.47631
21
4.50118
0
LINE
8
BLACK
6
CONTINUOUS
10
1.47631
20
4.50118
11
1.47627
21
4.50101
0
LINE
8
BLACK
6
CONTINUOUS
10
1.47627
20
4.50101
11
1.47633
21
4.50084
0
LINE
8
BLACK
6
CONTINUOUS
10
1.47633
20
4.50084
11
1.47633
21
4.48022
0
LINE
8
BLACK
6
CONTINUOUS
10
1.47633
20
4.48022
11
1.47615
21
4.47921
0
LINE
8
BLACK
6
CONTINUOUS
10
1.47615
20
4.47921
11
1.47485
21
4.47766
0
LINE
8
BLACK
6
CONTINUOUS
10
1.47485
20
4.47766
11
1.47287
21
4.47731
0
LINE
8
BLACK
6
CONTINUOUS
10
1.47287
20
4.47731
11
1.47112
21
4.47832
0
LINE
8
BLACK
6
CONTINUOUS
10
1.47112
20
4.47832
11
1.47043
21
4.48022
0
LINE
8
BLACK
6
CONTINUOUS
10
1.47043
20
4.48022
11
1.47043
21
4.50015
0
LINE
8
BLACK
6
CONTINUOUS
10
1.47043
20
4.50015
11
1.4693
21
4.50239
0
LINE
8
BLACK
6
CONTINUOUS
10
1.4693
20
4.50239
11
1.46706
21
4.50352
0
LINE
8
BLACK
6
CONTINUOUS
10
1.46706
20
4.50352
11
1.46283
21
4.50352
0
LINE
8
BLACK
6
CONTINUOUS
10
1.46283
20
4.50352
11
1.46013
21
4.50217
0
LINE
8
BLACK
6
CONTINUOUS
10
1.46013
20
4.50217
11
1.45946
21
4.5015
0
LINE
8
BLACK
6
CONTINUOUS
10
1.45946
20
4.5015
11
1.45946
21
4.48022
0
LINE
8
BLACK
6
CONTINUOUS
10
1.45946
20
4.48022
11
1.45928
21
4.47921
0
LINE
8
BLACK
6
CONTINUOUS
10
1.45928
20
4.47921
11
1.45798
21
4.47766
0
LINE
8
BLACK
6
CONTINUOUS
10
1.45798
20
4.47766
11
1.45599
21
4.47731
0
LINE
8
BLACK
6
CONTINUOUS
10
1.45599
20
4.47731
11
1.45424
21
4.47832
0
LINE
8
BLACK
6
CONTINUOUS
10
1.45424
20
4.47832
11
1.45355
21
4.48022
0
LINE
8
BLACK
6
CONTINUOUS
10
1.45355
20
4.48022
11
1.45355
21
4.50647
0
LINE
8
BLACK
6
CONTINUOUS
10
1.45355
20
4.50647
11
1.45373
21
4.50748
0
LINE
8
BLACK
6
CONTINUOUS
10
1.45373
20
4.50748
11
1.45503
21
4.50903
0
LINE
8
BLACK
6
CONTINUOUS
10
1.45503
20
4.50903
11
1.45702
21
4.50938
0
LINE
8
BLACK
6
CONTINUOUS
10
1.45702
20
4.50938
11
1.45877
21
4.50837
0
LINE
8
BLACK
6
CONTINUOUS
10
1.45877
20
4.50837
11
1.45885
21
4.50813
0
LINE
8
BLACK
6
CONTINUOUS
10
1.45885
20
4.50813
11
1.46081
21
4.50911
0
LINE
8
BLACK
6
CONTINUOUS
10
1.46081
20
4.50911
11
1.46179
21
4.5094
0
LINE
8
BLACK
6
CONTINUOUS
10
1.46179
20
4.5094
11
1.46196
21
4.50936
0
LINE
8
BLACK
6
CONTINUOUS
10
1.46196
20
4.50936
11
1.46213
21
4.50942
0
LINE
8
BLACK
6
CONTINUOUS
10
1.46213
20
4.50942
11
1.46775
21
4.50942
0
LINE
8
BLACK
6
CONTINUOUS
10
1.46775
20
4.50942
11
1.46876
21
4.50924
  0
ENDSEC
  0
EOF
