  0
SECTION
  2
HEADER
  9
$ANGBASE
  50
0.0
  9
$ANGDIR
  70
1
  9
$MEASUREMENT
  70
0
  0
ENDSEC
  0
SECTION
  2
TABLES
  0
TABLE
  2
LTYPE
  70
4
  0
LTYPE
  5
40F
  2
CONTINUOUS
  70
0
  3
Solid line
  72
65
  73
0
  40
0.0
  0
LTYPE
  5
410
  2
DASHDOT
 70
0
  3
Dash Dot ____ _ ____ _
 72
65
 73
4
 40
2.0
 49
1.25
 49
-0.25
 49
0.25
 49
-0.25
  0
LTYPE
  5
411
  2
DASHED
 70
0
  3
Dashed __ __ __ __ __
 72
65
 73
2
 40
0.75
 49
0.5
 49
-0.25
  0
LTYPE
  5
43B
  2
DOTTED
 70
0
  3
Dotted .  .  .  .
 72
65
 73
2
 40
0.2
 49
0.0
 49
-0.2
  0
ENDTAB
  0
TABLE
  2
STYLE
  70
4
  0
STYLE
  2
KICAD
  70
0
  40
0
  41
1
  42
1
  50
0
  71
0
  3
isocp.shx
  0
STYLE
  2
KICADB
  70
0
  40
0
  41
1
  42
1
  50
0
  71
0
  3
isocp.shx
  0
STYLE
  2
KICADI
  70
0
  40
0
  41
1
  42
1
  50
15
  71
0
  3
isocp.shx
  0
STYLE
  2
KICADBI
  70
0
  40
0
  41
1
  42
1
  50
15
  71
0
  3
isocp.shx
  0
ENDTAB
  0
TABLE
  2
LAYER
  70
1
  0
LAYER
  2
BLACK
  70
0
  62
7
  6
CONTINUOUS
  0
ENDTAB
  0
ENDSEC
  0
SECTION
  2
ENTITIES
0
LINE
8
BLACK
6
CONTINUOUS
10
4.34241
20
-4.9061
11
4.34201
21
-4.90512
0
LINE
8
BLACK
6
CONTINUOUS
10
4.34201
20
-4.90512
11
4.34241
21
-4.90415
0
LINE
8
BLACK
6
CONTINUOUS
10
4.34241
20
-4.90415
11
4.34338
21
-4.90374
0
LINE
8
BLACK
6
CONTINUOUS
10
4.34338
20
-4.90374
11
4.34906
21
-4.90374
0
LINE
8
BLACK
6
CONTINUOUS
10
4.34906
20
-4.90374
11
4.34241
21
-4.8971
0
LINE
8
BLACK
6
CONTINUOUS
10
4.34241
20
-4.8971
11
4.34201
21
-4.89612
0
LINE
8
BLACK
6
CONTINUOUS
10
4.34201
20
-4.89612
11
4.34241
21
-4.89515
0
LINE
8
BLACK
6
CONTINUOUS
10
4.34241
20
-4.89515
11
4.34338
21
-4.89474
0
LINE
8
BLACK
6
CONTINUOUS
10
4.34338
20
-4.89474
11
4.34436
21
-4.89515
0
LINE
8
BLACK
6
CONTINUOUS
10
4.34436
20
-4.89515
11
4.35026
21
-4.90105
0
LINE
8
BLACK
6
CONTINUOUS
10
4.35026
20
-4.90105
11
4.35831
21
-4.89502
0
LINE
8
BLACK
6
CONTINUOUS
10
4.35831
20
-4.89502
11
4.35933
21
-4.89476
0
LINE
8
BLACK
6
CONTINUOUS
10
4.35933
20
-4.89476
11
4.36023
21
-4.8953
0
LINE
8
BLACK
6
CONTINUOUS
10
4.36023
20
-4.8953
11
4.3605
21
-4.89632
0
LINE
8
BLACK
6
CONTINUOUS
10
4.3605
20
-4.89632
11
4.35996
21
-4.89723
0
LINE
8
BLACK
6
CONTINUOUS
10
4.35996
20
-4.89723
11
4.35223
21
-4.90302
0
LINE
8
BLACK
6
CONTINUOUS
10
4.35223
20
-4.90302
11
4.35295
21
-4.90374
0
LINE
8
BLACK
6
CONTINUOUS
10
4.35295
20
-4.90374
11
4.35913
21
-4.90374
0
LINE
8
BLACK
6
CONTINUOUS
10
4.35913
20
-4.90374
11
4.36011
21
-4.90415
0
LINE
8
BLACK
6
CONTINUOUS
10
4.36011
20
-4.90415
11
4.36051
21
-4.90512
0
LINE
8
BLACK
6
CONTINUOUS
10
4.36051
20
-4.90512
11
4.36011
21
-4.9061
0
LINE
8
BLACK
6
CONTINUOUS
10
4.36011
20
-4.9061
11
4.35913
21
-4.9065
0
LINE
8
BLACK
6
CONTINUOUS
10
4.35913
20
-4.9065
11
4.34338
21
-4.9065
0
LINE
8
BLACK
6
CONTINUOUS
10
4.34338
20
-4.9065
11
4.34241
21
-4.9061
0
LINE
8
BLACK
6
CONTINUOUS
10
4.34241
20
-4.89035
11
4.34201
21
-4.88937
0
LINE
8
BLACK
6
CONTINUOUS
10
4.34201
20
-4.88937
11
4.34201
21
-4.88187
0
LINE
8
BLACK
6
CONTINUOUS
10
4.34201
20
-4.88187
11
4.34241
21
-4.8809
0
LINE
8
BLACK
6
CONTINUOUS
10
4.34241
20
-4.8809
11
4.34338
21
-4.8805
0
LINE
8
BLACK
6
CONTINUOUS
10
4.34338
20
-4.8805
11
4.34436
21
-4.8809
0
LINE
8
BLACK
6
CONTINUOUS
10
4.34436
20
-4.8809
11
4.34476
21
-4.88187
0
LINE
8
BLACK
6
CONTINUOUS
10
4.34476
20
-4.88187
11
4.34476
21
-4.888
0
LINE
8
BLACK
6
CONTINUOUS
10
4.34476
20
-4.888
11
4.34951
21
-4.888
0
LINE
8
BLACK
6
CONTINUOUS
10
4.34951
20
-4.888
11
4.34951
21
-4.88412
0
LINE
8
BLACK
6
CONTINUOUS
10
4.34951
20
-4.88412
11
4.34991
21
-4.88315
0
LINE
8
BLACK
6
CONTINUOUS
10
4.34991
20
-4.88315
11
4.35088
21
-4.88275
0
LINE
8
BLACK
6
CONTINUOUS
10
4.35088
20
-4.88275
11
4.35186
21
-4.88315
0
LINE
8
BLACK
6
CONTINUOUS
10
4.35186
20
-4.88315
11
4.35226
21
-4.88412
0
LINE
8
BLACK
6
CONTINUOUS
10
4.35226
20
-4.88412
11
4.35226
21
-4.888
0
LINE
8
BLACK
6
CONTINUOUS
10
4.35226
20
-4.888
11
4.35775
21
-4.888
0
LINE
8
BLACK
6
CONTINUOUS
10
4.35775
20
-4.888
11
4.35775
21
-4.88187
0
LINE
8
BLACK
6
CONTINUOUS
10
4.35775
20
-4.88187
11
4.35816
21
-4.8809
0
LINE
8
BLACK
6
CONTINUOUS
10
4.35816
20
-4.8809
11
4.35913
21
-4.8805
0
LINE
8
BLACK
6
CONTINUOUS
10
4.35913
20
-4.8805
11
4.36011
21
-4.8809
0
LINE
8
BLACK
6
CONTINUOUS
10
4.36011
20
-4.8809
11
4.36051
21
-4.88187
0
LINE
8
BLACK
6
CONTINUOUS
10
4.36051
20
-4.88187
11
4.36051
21
-4.88937
0
LINE
8
BLACK
6
CONTINUOUS
10
4.36051
20
-4.88937
11
4.36011
21
-4.89035
0
LINE
8
BLACK
6
CONTINUOUS
10
4.36011
20
-4.89035
11
4.35913
21
-4.89075
0
LINE
8
BLACK
6
CONTINUOUS
10
4.35913
20
-4.89075
11
4.34338
21
-4.89075
0
LINE
8
BLACK
6
CONTINUOUS
10
4.34338
20
-4.89075
11
4.34241
21
-4.89035
0
LINE
8
BLACK
6
CONTINUOUS
10
4.34241
20
-4.8761
11
4.34201
21
-4.87513
0
LINE
8
BLACK
6
CONTINUOUS
10
4.34201
20
-4.87513
11
4.34201
21
-4.86763
0
LINE
8
BLACK
6
CONTINUOUS
10
4.34201
20
-4.86763
11
4.34241
21
-4.86665
0
LINE
8
BLACK
6
CONTINUOUS
10
4.34241
20
-4.86665
11
4.34338
21
-4.86625
0
LINE
8
BLACK
6
CONTINUOUS
10
4.34338
20
-4.86625
11
4.34436
21
-4.86665
0
LINE
8
BLACK
6
CONTINUOUS
10
4.34436
20
-4.86665
11
4.34476
21
-4.86763
0
LINE
8
BLACK
6
CONTINUOUS
10
4.34476
20
-4.86763
11
4.34476
21
-4.87375
0
LINE
8
BLACK
6
CONTINUOUS
10
4.34476
20
-4.87375
11
4.34951
21
-4.87375
0
LINE
8
BLACK
6
CONTINUOUS
10
4.34951
20
-4.87375
11
4.34951
21
-4.86988
0
LINE
8
BLACK
6
CONTINUOUS
10
4.34951
20
-4.86988
11
4.34991
21
-4.8689
0
LINE
8
BLACK
6
CONTINUOUS
10
4.34991
20
-4.8689
11
4.35088
21
-4.8685
0
LINE
8
BLACK
6
CONTINUOUS
10
4.35088
20
-4.8685
11
4.35186
21
-4.8689
0
LINE
8
BLACK
6
CONTINUOUS
10
4.35186
20
-4.8689
11
4.35226
21
-4.86988
0
LINE
8
BLACK
6
CONTINUOUS
10
4.35226
20
-4.86988
11
4.35226
21
-4.87375
0
LINE
8
BLACK
6
CONTINUOUS
10
4.35226
20
-4.87375
11
4.35775
21
-4.87375
0
LINE
8
BLACK
6
CONTINUOUS
10
4.35775
20
-4.87375
11
4.35775
21
-4.86763
0
LINE
8
BLACK
6
CONTINUOUS
10
4.35775
20
-4.86763
11
4.35816
21
-4.86665
0
LINE
8
BLACK
6
CONTINUOUS
10
4.35816
20
-4.86665
11
4.35913
21
-4.86625
0
LINE
8
BLACK
6
CONTINUOUS
10
4.35913
20
-4.86625
11
4.36011
21
-4.86665
0
LINE
8
BLACK
6
CONTINUOUS
10
4.36011
20
-4.86665
11
4.36051
21
-4.86763
0
LINE
8
BLACK
6
CONTINUOUS
10
4.36051
20
-4.86763
11
4.36051
21
-4.87513
0
LINE
8
BLACK
6
CONTINUOUS
10
4.36051
20
-4.87513
11
4.36011
21
-4.8761
0
LINE
8
BLACK
6
CONTINUOUS
10
4.36011
20
-4.8761
11
4.35913
21
-4.8765
0
LINE
8
BLACK
6
CONTINUOUS
10
4.35913
20
-4.8765
11
4.34338
21
-4.8765
0
LINE
8
BLACK
6
CONTINUOUS
10
4.34338
20
-4.8765
11
4.34241
21
-4.8761
0
LINE
8
BLACK
6
CONTINUOUS
10
4.34241
20
-4.86185
11
4.34201
21
-4.86088
0
LINE
8
BLACK
6
CONTINUOUS
10
4.34201
20
-4.86088
11
4.34201
21
-4.85488
0
LINE
8
BLACK
6
CONTINUOUS
10
4.34201
20
-4.85488
11
4.34213
21
-4.85458
0
LINE
8
BLACK
6
CONTINUOUS
10
4.34213
20
-4.85458
11
4.34215
21
-4.85426
0
LINE
8
BLACK
6
CONTINUOUS
10
4.34215
20
-4.85426
11
4.3429
21
-4.85276
0
LINE
8
BLACK
6
CONTINUOUS
10
4.3429
20
-4.85276
11
4.34307
21
-4.85261
0
LINE
8
BLACK
6
CONTINUOUS
10
4.34307
20
-4.85261
11
4.34316
21
-4.8524
0
LINE
8
BLACK
6
CONTINUOUS
10
4.34316
20
-4.8524
11
4.34391
21
-4.85165
0
LINE
8
BLACK
6
CONTINUOUS
10
4.34391
20
-4.85165
11
4.34412
21
-4.85157
0
LINE
8
BLACK
6
CONTINUOUS
10
4.34412
20
-4.85157
11
4.34427
21
-4.8514
0
LINE
8
BLACK
6
CONTINUOUS
10
4.34427
20
-4.8514
11
4.34577
21
-4.85065
0
LINE
8
BLACK
6
CONTINUOUS
10
4.34577
20
-4.85065
11
4.34609
21
-4.85062
0
LINE
8
BLACK
6
CONTINUOUS
10
4.34609
20
-4.85062
11
4.34638
21
-4.8505
0
LINE
8
BLACK
6
CONTINUOUS
10
4.34638
20
-4.8505
11
4.34863
21
-4.8505
0
LINE
8
BLACK
6
CONTINUOUS
10
4.34863
20
-4.8505
11
4.34893
21
-4.85062
0
LINE
8
BLACK
6
CONTINUOUS
10
4.34893
20
-4.85062
11
4.34925
21
-4.85065
0
LINE
8
BLACK
6
CONTINUOUS
10
4.34925
20
-4.85065
11
4.35075
21
-4.8514
0
LINE
8
BLACK
6
CONTINUOUS
10
4.35075
20
-4.8514
11
4.3509
21
-4.85157
0
LINE
8
BLACK
6
CONTINUOUS
10
4.3509
20
-4.85157
11
4.35111
21
-4.85165
0
LINE
8
BLACK
6
CONTINUOUS
10
4.35111
20
-4.85165
11
4.35186
21
-4.8524
0
LINE
8
BLACK
6
CONTINUOUS
10
4.35186
20
-4.8524
11
4.35194
21
-4.85261
0
LINE
8
BLACK
6
CONTINUOUS
10
4.35194
20
-4.85261
11
4.35212
21
-4.85276
0
LINE
8
BLACK
6
CONTINUOUS
10
4.35212
20
-4.85276
11
4.35287
21
-4.85426
0
LINE
8
BLACK
6
CONTINUOUS
10
4.35287
20
-4.85426
11
4.35289
21
-4.85458
0
LINE
8
BLACK
6
CONTINUOUS
10
4.35289
20
-4.85458
11
4.35301
21
-4.85488
0
LINE
8
BLACK
6
CONTINUOUS
10
4.35301
20
-4.85488
11
4.35301
21
-4.8595
0
LINE
8
BLACK
6
CONTINUOUS
10
4.35301
20
-4.8595
11
4.35913
21
-4.8595
0
LINE
8
BLACK
6
CONTINUOUS
10
4.35913
20
-4.8595
11
4.36011
21
-4.8599
0
LINE
8
BLACK
6
CONTINUOUS
10
4.36011
20
-4.8599
11
4.36051
21
-4.86088
0
LINE
8
BLACK
6
CONTINUOUS
10
4.36051
20
-4.86088
11
4.36011
21
-4.86185
0
LINE
8
BLACK
6
CONTINUOUS
10
4.36011
20
-4.86185
11
4.35913
21
-4.86226
0
LINE
8
BLACK
6
CONTINUOUS
10
4.35913
20
-4.86226
11
4.34338
21
-4.86226
0
LINE
8
BLACK
6
CONTINUOUS
10
4.34338
20
-4.86226
11
4.34241
21
-4.86185
0
LINE
8
BLACK
6
CONTINUOUS
10
4.34671
20
-4.85326
11
4.3457
21
-4.85376
0
LINE
8
BLACK
6
CONTINUOUS
10
4.3457
20
-4.85376
11
4.34527
21
-4.85419
0
LINE
8
BLACK
6
CONTINUOUS
10
4.34527
20
-4.85419
11
4.34476
21
-4.8552
0
LINE
8
BLACK
6
CONTINUOUS
10
4.34476
20
-4.8552
11
4.34476
21
-4.8595
0
LINE
8
BLACK
6
CONTINUOUS
10
4.34476
20
-4.8595
11
4.35025
21
-4.8595
0
LINE
8
BLACK
6
CONTINUOUS
10
4.35025
20
-4.8595
11
4.35025
21
-4.8552
0
LINE
8
BLACK
6
CONTINUOUS
10
4.35025
20
-4.8552
11
4.34975
21
-4.85419
0
LINE
8
BLACK
6
CONTINUOUS
10
4.34975
20
-4.85419
11
4.34932
21
-4.85376
0
LINE
8
BLACK
6
CONTINUOUS
10
4.34932
20
-4.85376
11
4.34831
21
-4.85326
0
LINE
8
BLACK
6
CONTINUOUS
10
4.34831
20
-4.85326
11
4.34671
21
-4.85326
0
LINE
8
BLACK
6
CONTINUOUS
10
4.35404
20
-4.83407
11
4.35422
21
-4.83404
0
LINE
8
BLACK
6
CONTINUOUS
10
4.35422
20
-4.83404
11
4.35722
21
-4.83479
0
LINE
8
BLACK
6
CONTINUOUS
10
4.35722
20
-4.83479
11
4.35751
21
-4.83501
0
LINE
8
BLACK
6
CONTINUOUS
10
4.35751
20
-4.83501
11
4.35786
21
-4.83516
0
LINE
8
BLACK
6
CONTINUOUS
10
4.35786
20
-4.83516
11
4.35936
21
-4.83666
0
LINE
8
BLACK
6
CONTINUOUS
10
4.35936
20
-4.83666
11
4.35944
21
-4.83687
0
LINE
8
BLACK
6
CONTINUOUS
10
4.35944
20
-4.83687
11
4.35961
21
-4.83701
0
LINE
8
BLACK
6
CONTINUOUS
10
4.35961
20
-4.83701
11
4.36036
21
-4.83851
0
LINE
8
BLACK
6
CONTINUOUS
10
4.36036
20
-4.83851
11
4.36039
21
-4.83883
0
LINE
8
BLACK
6
CONTINUOUS
10
4.36039
20
-4.83883
11
4.36051
21
-4.83913
0
LINE
8
BLACK
6
CONTINUOUS
10
4.36051
20
-4.83913
11
4.36051
21
-4.84213
0
LINE
8
BLACK
6
CONTINUOUS
10
4.36051
20
-4.84213
11
4.36039
21
-4.84243
0
LINE
8
BLACK
6
CONTINUOUS
10
4.36039
20
-4.84243
11
4.36036
21
-4.84275
0
LINE
8
BLACK
6
CONTINUOUS
10
4.36036
20
-4.84275
11
4.35961
21
-4.84425
0
LINE
8
BLACK
6
CONTINUOUS
10
4.35961
20
-4.84425
11
4.35944
21
-4.84439
0
LINE
8
BLACK
6
CONTINUOUS
10
4.35944
20
-4.84439
11
4.35936
21
-4.8446
0
LINE
8
BLACK
6
CONTINUOUS
10
4.35936
20
-4.8446
11
4.35786
21
-4.8461
0
LINE
8
BLACK
6
CONTINUOUS
10
4.35786
20
-4.8461
11
4.35751
21
-4.84625
0
LINE
8
BLACK
6
CONTINUOUS
10
4.35751
20
-4.84625
11
4.35722
21
-4.84647
0
LINE
8
BLACK
6
CONTINUOUS
10
4.35722
20
-4.84647
11
4.35422
21
-4.84722
0
LINE
8
BLACK
6
CONTINUOUS
10
4.35422
20
-4.84722
11
4.35404
21
-4.84719
0
LINE
8
BLACK
6
CONTINUOUS
10
4.35404
20
-4.84719
11
4.35388
21
-4.84726
0
LINE
8
BLACK
6
CONTINUOUS
10
4.35388
20
-4.84726
11
4.34863
21
-4.84726
0
LINE
8
BLACK
6
CONTINUOUS
10
4.34863
20
-4.84726
11
4.34847
21
-4.84719
0
LINE
8
BLACK
6
CONTINUOUS
10
4.34847
20
-4.84719
11
4.3483
21
-4.84722
0
LINE
8
BLACK
6
CONTINUOUS
10
4.3483
20
-4.84722
11
4.3453
21
-4.84647
0
LINE
8
BLACK
6
CONTINUOUS
10
4.3453
20
-4.84647
11
4.345
21
-4.84625
0
LINE
8
BLACK
6
CONTINUOUS
10
4.345
20
-4.84625
11
4.34466
21
-4.8461
0
LINE
8
BLACK
6
CONTINUOUS
10
4.34466
20
-4.8461
11
4.34316
21
-4.8446
0
LINE
8
BLACK
6
CONTINUOUS
10
4.34316
20
-4.8446
11
4.34307
21
-4.84439
0
LINE
8
BLACK
6
CONTINUOUS
10
4.34307
20
-4.84439
11
4.3429
21
-4.84425
0
LINE
8
BLACK
6
CONTINUOUS
10
4.3429
20
-4.84425
11
4.34215
21
-4.84275
0
LINE
8
BLACK
6
CONTINUOUS
10
4.34215
20
-4.84275
11
4.34213
21
-4.84243
0
LINE
8
BLACK
6
CONTINUOUS
10
4.34213
20
-4.84243
11
4.34201
21
-4.84213
0
LINE
8
BLACK
6
CONTINUOUS
10
4.34201
20
-4.84213
11
4.34201
21
-4.83913
0
LINE
8
BLACK
6
CONTINUOUS
10
4.34201
20
-4.83913
11
4.34213
21
-4.83883
0
LINE
8
BLACK
6
CONTINUOUS
10
4.34213
20
-4.83883
11
4.34215
21
-4.83851
0
LINE
8
BLACK
6
CONTINUOUS
10
4.34215
20
-4.83851
11
4.3429
21
-4.83701
0
LINE
8
BLACK
6
CONTINUOUS
10
4.3429
20
-4.83701
11
4.34307
21
-4.83687
0
LINE
8
BLACK
6
CONTINUOUS
10
4.34307
20
-4.83687
11
4.34316
21
-4.83666
0
LINE
8
BLACK
6
CONTINUOUS
10
4.34316
20
-4.83666
11
4.34466
21
-4.83516
0
LINE
8
BLACK
6
CONTINUOUS
10
4.34466
20
-4.83516
11
4.345
21
-4.83501
0
LINE
8
BLACK
6
CONTINUOUS
10
4.345
20
-4.83501
11
4.3453
21
-4.83479
0
LINE
8
BLACK
6
CONTINUOUS
10
4.3453
20
-4.83479
11
4.3483
21
-4.83404
0
LINE
8
BLACK
6
CONTINUOUS
10
4.3483
20
-4.83404
11
4.34847
21
-4.83407
0
LINE
8
BLACK
6
CONTINUOUS
10
4.34847
20
-4.83407
11
4.34863
21
-4.834
0
LINE
8
BLACK
6
CONTINUOUS
10
4.34863
20
-4.834
11
4.35388
21
-4.834
0
LINE
8
BLACK
6
CONTINUOUS
10
4.35388
20
-4.834
11
4.35404
21
-4.83407
0
LINE
8
BLACK
6
CONTINUOUS
10
4.3488
20
-4.83676
11
4.34634
21
-4.83737
0
LINE
8
BLACK
6
CONTINUOUS
10
4.34634
20
-4.83737
11
4.34527
21
-4.83845
0
LINE
8
BLACK
6
CONTINUOUS
10
4.34527
20
-4.83845
11
4.34476
21
-4.83946
0
LINE
8
BLACK
6
CONTINUOUS
10
4.34476
20
-4.83946
11
4.34476
21
-4.8418
0
LINE
8
BLACK
6
CONTINUOUS
10
4.34476
20
-4.8418
11
4.34527
21
-4.84281
0
LINE
8
BLACK
6
CONTINUOUS
10
4.34527
20
-4.84281
11
4.34634
21
-4.84389
0
LINE
8
BLACK
6
CONTINUOUS
10
4.34634
20
-4.84389
11
4.3488
21
-4.8445
0
LINE
8
BLACK
6
CONTINUOUS
10
4.3488
20
-4.8445
11
4.35371
21
-4.8445
0
LINE
8
BLACK
6
CONTINUOUS
10
4.35371
20
-4.8445
11
4.35618
21
-4.84389
0
LINE
8
BLACK
6
CONTINUOUS
10
4.35618
20
-4.84389
11
4.35725
21
-4.84281
0
LINE
8
BLACK
6
CONTINUOUS
10
4.35725
20
-4.84281
11
4.35775
21
-4.8418
0
LINE
8
BLACK
6
CONTINUOUS
10
4.35775
20
-4.8418
11
4.35775
21
-4.83946
0
LINE
8
BLACK
6
CONTINUOUS
10
4.35775
20
-4.83946
11
4.35725
21
-4.83845
0
LINE
8
BLACK
6
CONTINUOUS
10
4.35725
20
-4.83845
11
4.35618
21
-4.83737
0
LINE
8
BLACK
6
CONTINUOUS
10
4.35618
20
-4.83737
11
4.35371
21
-4.83676
0
LINE
8
BLACK
6
CONTINUOUS
10
4.35371
20
-4.83676
11
4.3488
21
-4.83676
0
LINE
8
BLACK
6
CONTINUOUS
10
4.35643
20
-4.81838
11
4.35675
21
-4.8184
0
LINE
8
BLACK
6
CONTINUOUS
10
4.35675
20
-4.8184
11
4.35825
21
-4.81915
0
LINE
8
BLACK
6
CONTINUOUS
10
4.35825
20
-4.81915
11
4.3584
21
-4.81932
0
LINE
8
BLACK
6
CONTINUOUS
10
4.3584
20
-4.81932
11
4.35861
21
-4.81941
0
LINE
8
BLACK
6
CONTINUOUS
10
4.35861
20
-4.81941
11
4.35936
21
-4.82016
0
LINE
8
BLACK
6
CONTINUOUS
10
4.35936
20
-4.82016
11
4.35944
21
-4.82037
0
LINE
8
BLACK
6
CONTINUOUS
10
4.35944
20
-4.82037
11
4.35961
21
-4.82052
0
LINE
8
BLACK
6
CONTINUOUS
10
4.35961
20
-4.82052
11
4.36036
21
-4.82202
0
LINE
8
BLACK
6
CONTINUOUS
10
4.36036
20
-4.82202
11
4.36039
21
-4.82234
0
LINE
8
BLACK
6
CONTINUOUS
10
4.36039
20
-4.82234
11
4.36051
21
-4.82263
0
LINE
8
BLACK
6
CONTINUOUS
10
4.36051
20
-4.82263
11
4.36051
21
-4.82563
0
LINE
8
BLACK
6
CONTINUOUS
10
4.36051
20
-4.82563
11
4.36039
21
-4.82593
0
LINE
8
BLACK
6
CONTINUOUS
10
4.36039
20
-4.82593
11
4.36036
21
-4.82625
0
LINE
8
BLACK
6
CONTINUOUS
10
4.36036
20
-4.82625
11
4.35961
21
-4.82775
0
LINE
8
BLACK
6
CONTINUOUS
10
4.35961
20
-4.82775
11
4.35944
21
-4.8279
0
LINE
8
BLACK
6
CONTINUOUS
10
4.35944
20
-4.8279
11
4.35936
21
-4.82811
0
LINE
8
BLACK
6
CONTINUOUS
10
4.35936
20
-4.82811
11
4.35861
21
-4.82886
0
LINE
8
BLACK
6
CONTINUOUS
10
4.35861
20
-4.82886
11
4.3584
21
-4.82894
0
LINE
8
BLACK
6
CONTINUOUS
10
4.3584
20
-4.82894
11
4.35825
21
-4.82911
0
LINE
8
BLACK
6
CONTINUOUS
10
4.35825
20
-4.82911
11
4.35675
21
-4.82986
0
LINE
8
BLACK
6
CONTINUOUS
10
4.35675
20
-4.82986
11
4.35643
21
-4.82989
0
LINE
8
BLACK
6
CONTINUOUS
10
4.35643
20
-4.82989
11
4.35613
21
-4.83001
0
LINE
8
BLACK
6
CONTINUOUS
10
4.35613
20
-4.83001
11
4.34338
21
-4.83001
0
LINE
8
BLACK
6
CONTINUOUS
10
4.34338
20
-4.83001
11
4.34241
21
-4.82961
0
LINE
8
BLACK
6
CONTINUOUS
10
4.34241
20
-4.82961
11
4.34201
21
-4.82863
0
LINE
8
BLACK
6
CONTINUOUS
10
4.34201
20
-4.82863
11
4.34241
21
-4.82766
0
LINE
8
BLACK
6
CONTINUOUS
10
4.34241
20
-4.82766
11
4.34338
21
-4.82725
0
LINE
8
BLACK
6
CONTINUOUS
10
4.34338
20
-4.82725
11
4.35581
21
-4.82725
0
LINE
8
BLACK
6
CONTINUOUS
10
4.35581
20
-4.82725
11
4.35682
21
-4.82675
0
LINE
8
BLACK
6
CONTINUOUS
10
4.35682
20
-4.82675
11
4.35725
21
-4.82632
0
LINE
8
BLACK
6
CONTINUOUS
10
4.35725
20
-4.82632
11
4.35775
21
-4.82531
0
LINE
8
BLACK
6
CONTINUOUS
10
4.35775
20
-4.82531
11
4.35775
21
-4.82296
0
LINE
8
BLACK
6
CONTINUOUS
10
4.35775
20
-4.82296
11
4.35725
21
-4.82195
0
LINE
8
BLACK
6
CONTINUOUS
10
4.35725
20
-4.82195
11
4.35682
21
-4.82151
0
LINE
8
BLACK
6
CONTINUOUS
10
4.35682
20
-4.82151
11
4.35581
21
-4.82101
0
LINE
8
BLACK
6
CONTINUOUS
10
4.35581
20
-4.82101
11
4.34338
21
-4.82101
0
LINE
8
BLACK
6
CONTINUOUS
10
4.34338
20
-4.82101
11
4.34241
21
-4.82061
0
LINE
8
BLACK
6
CONTINUOUS
10
4.34241
20
-4.82061
11
4.34201
21
-4.81963
0
LINE
8
BLACK
6
CONTINUOUS
10
4.34201
20
-4.81963
11
4.34241
21
-4.81866
0
LINE
8
BLACK
6
CONTINUOUS
10
4.34241
20
-4.81866
11
4.34338
21
-4.81825
0
LINE
8
BLACK
6
CONTINUOUS
10
4.34338
20
-4.81825
11
4.35613
21
-4.81825
0
LINE
8
BLACK
6
CONTINUOUS
10
4.35613
20
-4.81825
11
4.35643
21
-4.81838
0
LINE
8
BLACK
6
CONTINUOUS
10
4.34436
20
-4.80441
11
4.34476
21
-4.80538
0
LINE
8
BLACK
6
CONTINUOUS
10
4.34476
20
-4.80538
11
4.34476
21
-4.80851
0
LINE
8
BLACK
6
CONTINUOUS
10
4.34476
20
-4.80851
11
4.35913
21
-4.80851
0
LINE
8
BLACK
6
CONTINUOUS
10
4.35913
20
-4.80851
11
4.36011
21
-4.80891
0
LINE
8
BLACK
6
CONTINUOUS
10
4.36011
20
-4.80891
11
4.36051
21
-4.80988
0
LINE
8
BLACK
6
CONTINUOUS
10
4.36051
20
-4.80988
11
4.36011
21
-4.81086
0
LINE
8
BLACK
6
CONTINUOUS
10
4.36011
20
-4.81086
11
4.35913
21
-4.81126
0
LINE
8
BLACK
6
CONTINUOUS
10
4.35913
20
-4.81126
11
4.34476
21
-4.81126
0
LINE
8
BLACK
6
CONTINUOUS
10
4.34476
20
-4.81126
11
4.34476
21
-4.81438
0
LINE
8
BLACK
6
CONTINUOUS
10
4.34476
20
-4.81438
11
4.34436
21
-4.81536
0
LINE
8
BLACK
6
CONTINUOUS
10
4.34436
20
-4.81536
11
4.34338
21
-4.81576
0
LINE
8
BLACK
6
CONTINUOUS
10
4.34338
20
-4.81576
11
4.34241
21
-4.81536
0
LINE
8
BLACK
6
CONTINUOUS
10
4.34241
20
-4.81536
11
4.34201
21
-4.81438
0
LINE
8
BLACK
6
CONTINUOUS
10
4.34201
20
-4.81438
11
4.34201
21
-4.80538
0
LINE
8
BLACK
6
CONTINUOUS
10
4.34201
20
-4.80538
11
4.34241
21
-4.80441
0
LINE
8
BLACK
6
CONTINUOUS
10
4.34241
20
-4.80441
11
4.34338
21
-4.80401
0
LINE
8
BLACK
6
CONTINUOUS
10
4.34338
20
-4.80401
11
4.34436
21
-4.80441
0
LINE
8
BLACK
6
CONTINUOUS
10
3.0221
20
-5.81208
11
3.026
21
-5.79915
0
LINE
8
BLACK
6
CONTINUOUS
10
3.026
20
-5.79915
11
3.03133
21
-5.78672
0
LINE
8
BLACK
6
CONTINUOUS
10
3.03133
20
-5.78672
11
3.038
21
-5.77497
0
LINE
8
BLACK
6
CONTINUOUS
10
3.038
20
-5.77497
11
3.04595
21
-5.76404
0
LINE
8
BLACK
6
CONTINUOUS
10
3.04595
20
-5.76404
11
3.05506
21
-5.75406
0
LINE
8
BLACK
6
CONTINUOUS
10
3.05506
20
-5.75406
11
3.06523
21
-5.74515
0
LINE
8
BLACK
6
CONTINUOUS
10
3.06523
20
-5.74515
11
3.07633
21
-5.73744
0
LINE
8
BLACK
6
CONTINUOUS
10
3.07633
20
-5.73744
11
3.08822
21
-5.73101
0
LINE
8
BLACK
6
CONTINUOUS
10
3.08822
20
-5.73101
11
3.10075
21
-5.72595
0
LINE
8
BLACK
6
CONTINUOUS
10
3.10075
20
-5.72595
11
3.11377
21
-5.72231
0
LINE
8
BLACK
6
CONTINUOUS
10
3.11377
20
-5.72231
11
3.12711
21
-5.72015
0
LINE
8
BLACK
6
CONTINUOUS
10
3.12711
20
-5.72015
11
3.14061
21
-5.71949
0
LINE
8
BLACK
6
CONTINUOUS
10
3.14061
20
-5.71949
11
3.1541
21
-5.72034
0
LINE
8
BLACK
6
CONTINUOUS
10
3.1541
20
-5.72034
11
3.16741
21
-5.72269
0
LINE
8
BLACK
6
CONTINUOUS
10
3.16741
20
-5.72269
11
3.18037
21
-5.7265
0
LINE
8
BLACK
6
CONTINUOUS
10
3.18037
20
-5.7265
11
3.19283
21
-5.73174
0
LINE
8
BLACK
6
CONTINUOUS
10
3.19283
20
-5.73174
11
3.20463
21
-5.73833
0
LINE
8
BLACK
6
CONTINUOUS
10
3.20463
20
-5.73833
11
3.21562
21
-5.7462
0
LINE
8
BLACK
6
CONTINUOUS
10
3.21562
20
-5.7462
11
3.22567
21
-5.75525
0
LINE
8
BLACK
6
CONTINUOUS
10
3.22567
20
-5.75525
11
3.23464
21
-5.76535
0
LINE
8
BLACK
6
CONTINUOUS
10
3.23464
20
-5.76535
11
3.24243
21
-5.7764
0
LINE
8
BLACK
6
CONTINUOUS
10
3.24243
20
-5.7764
11
3.24894
21
-5.78824
0
LINE
8
BLACK
6
CONTINUOUS
10
3.24894
20
-5.78824
11
3.25409
21
-5.80074
0
LINE
8
BLACK
6
CONTINUOUS
10
3.25409
20
-5.80074
11
3.25782
21
-5.81373
0
LINE
8
BLACK
6
CONTINUOUS
10
3.25782
20
-5.81373
11
3.26007
21
-5.82706
0
LINE
8
BLACK
6
CONTINUOUS
10
3.26007
20
-5.82706
11
3.26083
21
-5.84055
0
LINE
8
BLACK
6
CONTINUOUS
10
3.26083
20
-5.84055
11
3.26078
21
-5.84393
0
LINE
8
BLACK
6
CONTINUOUS
10
3.26078
20
-5.84393
11
3.25965
21
-5.8574
0
LINE
8
BLACK
6
CONTINUOUS
10
3.25965
20
-5.8574
11
3.25702
21
-5.87066
0
LINE
8
BLACK
6
CONTINUOUS
10
3.25702
20
-5.87066
11
3.25294
21
-5.88354
0
LINE
8
BLACK
6
CONTINUOUS
10
3.25294
20
-5.88354
11
3.24744
21
-5.89589
0
LINE
8
BLACK
6
CONTINUOUS
10
3.24744
20
-5.89589
11
3.2406
21
-5.90755
0
LINE
8
BLACK
6
CONTINUOUS
10
3.2406
20
-5.90755
11
3.2325
21
-5.91837
0
LINE
8
BLACK
6
CONTINUOUS
10
3.2325
20
-5.91837
11
3.22325
21
-5.92822
0
LINE
8
BLACK
6
CONTINUOUS
10
3.22325
20
-5.92822
11
3.21296
21
-5.93698
0
LINE
8
BLACK
6
CONTINUOUS
10
3.21296
20
-5.93698
11
3.20175
21
-5.94454
0
LINE
8
BLACK
6
CONTINUOUS
10
3.20175
20
-5.94454
11
3.18978
21
-5.9508
0
LINE
8
BLACK
6
CONTINUOUS
10
3.18978
20
-5.9508
11
3.17717
21
-5.95569
0
LINE
8
BLACK
6
CONTINUOUS
10
3.17717
20
-5.95569
11
3.16411
21
-5.95914
0
LINE
8
BLACK
6
CONTINUOUS
10
3.16411
20
-5.95914
11
3.15074
21
-5.96112
0
LINE
8
BLACK
6
CONTINUOUS
10
3.15074
20
-5.96112
11
3.13723
21
-5.96159
0
LINE
8
BLACK
6
CONTINUOUS
10
3.13723
20
-5.96159
11
3.12375
21
-5.96055
0
LINE
8
BLACK
6
CONTINUOUS
10
3.12375
20
-5.96055
11
3.11048
21
-5.95802
0
LINE
8
BLACK
6
CONTINUOUS
10
3.11048
20
-5.95802
11
3.09756
21
-5.95402
0
LINE
8
BLACK
6
CONTINUOUS
10
3.09756
20
-5.95402
11
3.08518
21
-5.94861
0
LINE
8
BLACK
6
CONTINUOUS
10
3.08518
20
-5.94861
11
3.07347
21
-5.94185
0
LINE
8
BLACK
6
CONTINUOUS
10
3.07347
20
-5.94185
11
3.0626
21
-5.93383
0
LINE
8
BLACK
6
CONTINUOUS
10
3.0626
20
-5.93383
11
3.05268
21
-5.92465
0
LINE
8
BLACK
6
CONTINUOUS
10
3.05268
20
-5.92465
11
3.04385
21
-5.91442
0
LINE
8
BLACK
6
CONTINUOUS
10
3.04385
20
-5.91442
11
3.03621
21
-5.90327
0
LINE
8
BLACK
6
CONTINUOUS
10
3.03621
20
-5.90327
11
3.02987
21
-5.89133
0
LINE
8
BLACK
6
CONTINUOUS
10
3.02987
20
-5.89133
11
3.02489
21
-5.87876
0
LINE
8
BLACK
6
CONTINUOUS
10
3.02489
20
-5.87876
11
3.02135
21
-5.86572
0
LINE
8
BLACK
6
CONTINUOUS
10
3.02135
20
-5.86572
11
3.01928
21
-5.85236
0
LINE
8
BLACK
6
CONTINUOUS
10
3.01928
20
-5.85236
11
3.01871
21
-5.83886
0
LINE
8
BLACK
6
CONTINUOUS
10
3.01871
20
-5.83886
11
3.01885
21
-5.83693
0
LINE
8
BLACK
6
CONTINUOUS
10
3.01885
20
-5.83693
11
3.01966
21
-5.82538
0
LINE
8
BLACK
6
CONTINUOUS
10
3.01966
20
-5.82538
11
3.0221
21
-5.81208
0
LINE
8
BLACK
6
CONTINUOUS
10
3.02669
20
-5.86335
11
3.03006
21
-5.8762
0
LINE
8
BLACK
6
CONTINUOUS
10
3.03006
20
-5.8762
11
3.03488
21
-5.88857
0
LINE
8
BLACK
6
CONTINUOUS
10
3.03488
20
-5.88857
11
3.0411
21
-5.90031
0
LINE
8
BLACK
6
CONTINUOUS
10
3.0411
20
-5.90031
11
3.04862
21
-5.91125
0
LINE
8
BLACK
6
CONTINUOUS
10
3.04862
20
-5.91125
11
3.05735
21
-5.92126
0
LINE
8
BLACK
6
CONTINUOUS
10
3.05735
20
-5.92126
11
3.06717
21
-5.9302
0
LINE
8
BLACK
6
CONTINUOUS
10
3.06717
20
-5.9302
11
3.07795
21
-5.93795
0
LINE
8
BLACK
6
CONTINUOUS
10
3.07795
20
-5.93795
11
3.08956
21
-5.94441
0
LINE
8
BLACK
6
CONTINUOUS
10
3.08956
20
-5.94441
11
3.10183
21
-5.94949
0
LINE
8
BLACK
6
CONTINUOUS
10
3.10183
20
-5.94949
11
3.1146
21
-5.95313
0
LINE
8
BLACK
6
CONTINUOUS
10
3.1146
20
-5.95313
11
3.12771
21
-5.95527
0
LINE
8
BLACK
6
CONTINUOUS
10
3.12771
20
-5.95527
11
3.14097
21
-5.9559
0
LINE
8
BLACK
6
CONTINUOUS
10
3.14097
20
-5.9559
11
3.15422
21
-5.95499
0
LINE
8
BLACK
6
CONTINUOUS
10
3.15422
20
-5.95499
11
3.16728
21
-5.95257
0
LINE
8
BLACK
6
CONTINUOUS
10
3.16728
20
-5.95257
11
3.17997
21
-5.94867
0
LINE
8
BLACK
6
CONTINUOUS
10
3.17997
20
-5.94867
11
3.19213
21
-5.94333
0
LINE
8
BLACK
6
CONTINUOUS
10
3.19213
20
-5.94333
11
3.2036
21
-5.93663
0
LINE
8
BLACK
6
CONTINUOUS
10
3.2036
20
-5.93663
11
3.21422
21
-5.92866
0
LINE
8
BLACK
6
CONTINUOUS
10
3.21422
20
-5.92866
11
3.22385
21
-5.91952
0
LINE
8
BLACK
6
CONTINUOUS
10
3.22385
20
-5.91952
11
3.23237
21
-5.90933
0
LINE
8
BLACK
6
CONTINUOUS
10
3.23237
20
-5.90933
11
3.23966
21
-5.89823
0
LINE
8
BLACK
6
CONTINUOUS
10
3.23966
20
-5.89823
11
3.24563
21
-5.88636
0
LINE
8
BLACK
6
CONTINUOUS
10
3.24563
20
-5.88636
11
3.25019
21
-5.87389
0
LINE
8
BLACK
6
CONTINUOUS
10
3.25019
20
-5.87389
11
3.25329
21
-5.86098
0
LINE
8
BLACK
6
CONTINUOUS
10
3.25329
20
-5.86098
11
3.25489
21
-5.84779
0
LINE
8
BLACK
6
CONTINUOUS
10
3.25489
20
-5.84779
11
3.25512
21
-5.84055
0
LINE
8
BLACK
6
CONTINUOUS
10
3.25512
20
-5.84055
11
3.25435
21
-5.82729
0
LINE
8
BLACK
6
CONTINUOUS
10
3.25435
20
-5.82729
11
3.25207
21
-5.81421
0
LINE
8
BLACK
6
CONTINUOUS
10
3.25207
20
-5.81421
11
3.2483
21
-5.80148
0
LINE
8
BLACK
6
CONTINUOUS
10
3.2483
20
-5.80148
11
3.24309
21
-5.78926
0
LINE
8
BLACK
6
CONTINUOUS
10
3.24309
20
-5.78926
11
3.23651
21
-5.77773
0
LINE
8
BLACK
6
CONTINUOUS
10
3.23651
20
-5.77773
11
3.22864
21
-5.76702
0
LINE
8
BLACK
6
CONTINUOUS
10
3.22864
20
-5.76702
11
3.2196
21
-5.75729
0
LINE
8
BLACK
6
CONTINUOUS
10
3.2196
20
-5.75729
11
3.20951
21
-5.74867
0
LINE
8
BLACK
6
CONTINUOUS
10
3.20951
20
-5.74867
11
3.19848
21
-5.74126
0
LINE
8
BLACK
6
CONTINUOUS
10
3.19848
20
-5.74126
11
3.18668
21
-5.73517
0
LINE
8
BLACK
6
CONTINUOUS
10
3.18668
20
-5.73517
11
3.17426
21
-5.73048
0
LINE
8
BLACK
6
CONTINUOUS
10
3.17426
20
-5.73048
11
3.16138
21
-5.72724
0
LINE
8
BLACK
6
CONTINUOUS
10
3.16138
20
-5.72724
11
3.14821
21
-5.72551
0
LINE
8
BLACK
6
CONTINUOUS
10
3.14821
20
-5.72551
11
3.13493
21
-5.7253
0
LINE
8
BLACK
6
CONTINUOUS
10
3.13493
20
-5.7253
11
3.12172
21
-5.72662
0
LINE
8
BLACK
6
CONTINUOUS
10
3.12172
20
-5.72662
11
3.10874
21
-5.72945
0
LINE
8
BLACK
6
CONTINUOUS
10
3.10874
20
-5.72945
11
3.09618
21
-5.73375
0
LINE
8
BLACK
6
CONTINUOUS
10
3.09618
20
-5.73375
11
3.08419
21
-5.73947
0
LINE
8
BLACK
6
CONTINUOUS
10
3.08419
20
-5.73947
11
3.07294
21
-5.74652
0
LINE
8
BLACK
6
CONTINUOUS
10
3.07294
20
-5.74652
11
3.06258
21
-5.75483
0
LINE
8
BLACK
6
CONTINUOUS
10
3.06258
20
-5.75483
11
3.05324
21
-5.76427
0
LINE
8
BLACK
6
CONTINUOUS
10
3.05324
20
-5.76427
11
3.04504
21
-5.77472
0
LINE
8
BLACK
6
CONTINUOUS
10
3.04504
20
-5.77472
11
3.0381
21
-5.78604
0
LINE
8
BLACK
6
CONTINUOUS
10
3.0381
20
-5.78604
11
3.03251
21
-5.79809
0
LINE
8
BLACK
6
CONTINUOUS
10
3.03251
20
-5.79809
11
3.02834
21
-5.8107
0
LINE
8
BLACK
6
CONTINUOUS
10
3.02834
20
-5.8107
11
3.02565
21
-5.8237
0
LINE
8
BLACK
6
CONTINUOUS
10
3.02565
20
-5.8237
11
3.02447
21
-5.83693
0
LINE
8
BLACK
6
CONTINUOUS
10
3.02447
20
-5.83693
11
3.02482
21
-5.8502
0
LINE
8
BLACK
6
CONTINUOUS
10
3.02482
20
-5.8502
11
3.02669
21
-5.86335
  0
ENDSEC
  0
EOF
