  0
SECTION
  2
HEADER
  9
$ANGBASE
  50
0.0
  9
$ANGDIR
  70
1
  9
$MEASUREMENT
  70
0
  0
ENDSEC
  0
SECTION
  2
TABLES
  0
TABLE
  2
LTYPE
  70
4
  0
LTYPE
  5
40F
  2
CONTINUOUS
  70
0
  3
Solid line
  72
65
  73
0
  40
0.0
  0
LTYPE
  5
410
  2
DASHDOT
 70
0
  3
Dash Dot ____ _ ____ _
 72
65
 73
4
 40
2.0
 49
1.25
 49
-0.25
 49
0.25
 49
-0.25
  0
LTYPE
  5
411
  2
DASHED
 70
0
  3
Dashed __ __ __ __ __
 72
65
 73
2
 40
0.75
 49
0.5
 49
-0.25
  0
LTYPE
  5
43B
  2
DOTTED
 70
0
  3
Dotted .  .  .  .
 72
65
 73
2
 40
0.2
 49
0.0
 49
-0.2
  0
ENDTAB
  0
TABLE
  2
STYLE
  70
4
  0
STYLE
  2
KICAD
  70
0
  40
0
  41
1
  42
1
  50
0
  71
0
  3
isocp.shx
  0
STYLE
  2
KICADB
  70
0
  40
0
  41
1
  42
1
  50
0
  71
0
  3
isocp.shx
  0
STYLE
  2
KICADI
  70
0
  40
0
  41
1
  42
1
  50
15
  71
0
  3
isocp.shx
  0
STYLE
  2
KICADBI
  70
0
  40
0
  41
1
  42
1
  50
15
  71
0
  3
isocp.shx
  0
ENDTAB
  0
TABLE
  2
LAYER
  70
1
  0
LAYER
  2
BLACK
  70
0
  62
7
  6
CONTINUOUS
  0
ENDTAB
  0
ENDSEC
  0
SECTION
  2
ENTITIES
0
LINE
8
BLACK
6
CONTINUOUS
10
0.0372627
20
0.0261272
11
0.0334646
21
0.0277004
0
LINE
8
BLACK
6
CONTINUOUS
10
0.0334646
20
0.0277004
11
0.030203
21
0.030203
0
LINE
8
BLACK
6
CONTINUOUS
10
0.030203
20
0.030203
11
0.0277004
21
0.0334646
0
LINE
8
BLACK
6
CONTINUOUS
10
0.0277004
20
0.0334646
11
0.0261272
21
0.0372627
0
LINE
8
BLACK
6
CONTINUOUS
10
0.0261272
20
0.0372627
11
0.0255906
21
0.0413386
0
LINE
8
BLACK
6
CONTINUOUS
10
0.0255906
20
0.0413386
11
0.0255906
21
5.0374
0
LINE
8
BLACK
6
CONTINUOUS
10
0.0255906
20
5.0374
11
0.0261272
21
5.04148
0
LINE
8
BLACK
6
CONTINUOUS
10
0.0261272
20
5.04148
11
0.0277004
21
5.04528
0
LINE
8
BLACK
6
CONTINUOUS
10
0.0277004
20
5.04528
11
0.030203
21
5.04854
0
LINE
8
BLACK
6
CONTINUOUS
10
0.030203
20
5.04854
11
0.0334646
21
5.05104
0
LINE
8
BLACK
6
CONTINUOUS
10
0.0334646
20
5.05104
11
0.0372627
21
5.05261
0
LINE
8
BLACK
6
CONTINUOUS
10
0.0372627
20
5.05261
11
0.0413386
21
5.05315
0
LINE
8
BLACK
6
CONTINUOUS
10
0.0413386
20
5.05315
11
2.00591
21
5.05315
0
LINE
8
BLACK
6
CONTINUOUS
10
2.00591
20
5.05315
11
2.00998
21
5.05261
0
LINE
8
BLACK
6
CONTINUOUS
10
2.00998
20
5.05261
11
2.01378
21
5.05104
0
LINE
8
BLACK
6
CONTINUOUS
10
2.01378
20
5.05104
11
2.01704
21
5.04854
0
LINE
8
BLACK
6
CONTINUOUS
10
2.01704
20
5.04854
11
2.01954
21
5.04528
0
LINE
8
BLACK
6
CONTINUOUS
10
2.01954
20
5.04528
11
2.02112
21
5.04148
0
LINE
8
BLACK
6
CONTINUOUS
10
2.02112
20
5.04148
11
2.02165
21
5.0374
0
LINE
8
BLACK
6
CONTINUOUS
10
2.02165
20
5.0374
11
2.02165
21
0.0413386
0
LINE
8
BLACK
6
CONTINUOUS
10
2.02165
20
0.0413386
11
2.02112
21
0.0372627
0
LINE
8
BLACK
6
CONTINUOUS
10
2.02112
20
0.0372627
11
2.01954
21
0.0334646
0
LINE
8
BLACK
6
CONTINUOUS
10
2.01954
20
0.0334646
11
2.01704
21
0.030203
0
LINE
8
BLACK
6
CONTINUOUS
10
2.01704
20
0.030203
11
2.01378
21
0.0277004
0
LINE
8
BLACK
6
CONTINUOUS
10
2.01378
20
0.0277004
11
2.00998
21
0.0261272
0
LINE
8
BLACK
6
CONTINUOUS
10
2.00998
20
0.0261272
11
2.00591
21
0.0255906
0
LINE
8
BLACK
6
CONTINUOUS
10
2.00591
20
0.0255906
11
0.0413386
21
0.0255906
0
LINE
8
BLACK
6
CONTINUOUS
10
0.0413386
20
0.0255906
11
0.0372627
21
0.0261272
0
LINE
8
BLACK
6
CONTINUOUS
10
0.0411355
20
5.04534
11
0.038875
21
5.04498
0
LINE
8
BLACK
6
CONTINUOUS
10
0.038875
20
5.04498
11
0.0366527
21
5.04385
0
LINE
8
BLACK
6
CONTINUOUS
10
0.0366527
20
5.04385
11
0.034889
21
5.04209
0
LINE
8
BLACK
6
CONTINUOUS
10
0.034889
20
5.04209
11
0.0337566
21
5.03987
0
LINE
8
BLACK
6
CONTINUOUS
10
0.0337566
20
5.03987
11
0.0333986
21
5.0376
0
LINE
8
BLACK
6
CONTINUOUS
10
0.0333986
20
5.0376
11
0.0334646
21
5.0374
0
LINE
8
BLACK
6
CONTINUOUS
10
0.0334646
20
5.0374
11
0.0334646
21
0.0413386
0
LINE
8
BLACK
6
CONTINUOUS
10
0.0334646
20
0.0413386
11
0.0333986
21
0.0411355
0
LINE
8
BLACK
6
CONTINUOUS
10
0.0333986
20
0.0411355
11
0.0337566
21
0.038875
0
LINE
8
BLACK
6
CONTINUOUS
10
0.0337566
20
0.038875
11
0.034889
21
0.0366527
0
LINE
8
BLACK
6
CONTINUOUS
10
0.034889
20
0.0366527
11
0.0366527
21
0.034889
0
LINE
8
BLACK
6
CONTINUOUS
10
0.0366527
20
0.034889
11
0.038875
21
0.0337566
0
LINE
8
BLACK
6
CONTINUOUS
10
0.038875
20
0.0337566
11
0.0411355
21
0.0333986
0
LINE
8
BLACK
6
CONTINUOUS
10
0.0411355
20
0.0333986
11
0.0413386
21
0.0334646
0
LINE
8
BLACK
6
CONTINUOUS
10
0.0413386
20
0.0334646
11
2.00591
21
0.0334646
0
LINE
8
BLACK
6
CONTINUOUS
10
2.00591
20
0.0334646
11
2.00611
21
0.0333986
0
LINE
8
BLACK
6
CONTINUOUS
10
2.00611
20
0.0333986
11
2.00837
21
0.0337566
0
LINE
8
BLACK
6
CONTINUOUS
10
2.00837
20
0.0337566
11
2.01059
21
0.034889
0
LINE
8
BLACK
6
CONTINUOUS
10
2.01059
20
0.034889
11
2.01236
21
0.0366527
0
LINE
8
BLACK
6
CONTINUOUS
10
2.01236
20
0.0366527
11
2.01349
21
0.038875
0
LINE
8
BLACK
6
CONTINUOUS
10
2.01349
20
0.038875
11
2.01385
21
0.0411355
0
LINE
8
BLACK
6
CONTINUOUS
10
2.01385
20
0.0411355
11
2.01378
21
0.0413386
0
LINE
8
BLACK
6
CONTINUOUS
10
2.01378
20
0.0413386
11
2.01378
21
5.0374
0
LINE
8
BLACK
6
CONTINUOUS
10
2.01378
20
5.0374
11
2.01385
21
5.0376
0
LINE
8
BLACK
6
CONTINUOUS
10
2.01385
20
5.0376
11
2.01349
21
5.03987
0
LINE
8
BLACK
6
CONTINUOUS
10
2.01349
20
5.03987
11
2.01236
21
5.04209
0
LINE
8
BLACK
6
CONTINUOUS
10
2.01236
20
5.04209
11
2.01059
21
5.04385
0
LINE
8
BLACK
6
CONTINUOUS
10
2.01059
20
5.04385
11
2.00837
21
5.04498
0
LINE
8
BLACK
6
CONTINUOUS
10
2.00837
20
5.04498
11
2.00611
21
5.04534
0
LINE
8
BLACK
6
CONTINUOUS
10
2.00611
20
5.04534
11
2.00591
21
5.04528
0
LINE
8
BLACK
6
CONTINUOUS
10
2.00591
20
5.04528
11
0.0413386
21
5.04528
0
LINE
8
BLACK
6
CONTINUOUS
10
0.0413386
20
5.04528
11
0.0411355
21
5.04534
0
LINE
8
BLACK
6
CONTINUOUS
10
0.160466
20
0.139575
11
0.162907
21
0.14919
0
LINE
8
BLACK
6
CONTINUOUS
10
0.162907
20
0.14919
11
0.166744
21
0.158338
0
LINE
8
BLACK
6
CONTINUOUS
10
0.166744
20
0.158338
11
0.17189
21
0.166819
0
LINE
8
BLACK
6
CONTINUOUS
10
0.17189
20
0.166819
11
0.178233
21
0.174446
0
LINE
8
BLACK
6
CONTINUOUS
10
0.178233
20
0.174446
11
0.185634
21
0.181051
0
LINE
8
BLACK
6
CONTINUOUS
10
0.185634
20
0.181051
11
0.19393
21
0.18649
0
LINE
8
BLACK
6
CONTINUOUS
10
0.19393
20
0.18649
11
0.202939
21
0.190643
0
LINE
8
BLACK
6
CONTINUOUS
10
0.202939
20
0.190643
11
0.212463
21
0.193419
0
LINE
8
BLACK
6
CONTINUOUS
10
0.212463
20
0.193419
11
0.222292
21
0.194757
0
LINE
8
BLACK
6
CONTINUOUS
10
0.222292
20
0.194757
11
0.232211
21
0.194627
0
LINE
8
BLACK
6
CONTINUOUS
10
0.232211
20
0.194627
11
0.242002
21
0.193033
0
LINE
8
BLACK
6
CONTINUOUS
10
0.242002
20
0.193033
11
0.25145
21
0.190008
0
LINE
8
BLACK
6
CONTINUOUS
10
0.25145
20
0.190008
11
0.260347
21
0.185621
0
LINE
8
BLACK
6
CONTINUOUS
10
0.260347
20
0.185621
11
0.268498
21
0.179966
0
LINE
8
BLACK
6
CONTINUOUS
10
0.268498
20
0.179966
11
0.275723
21
0.173169
0
LINE
8
BLACK
6
CONTINUOUS
10
0.275723
20
0.173169
11
0.281865
21
0.165379
0
LINE
8
BLACK
6
CONTINUOUS
10
0.281865
20
0.165379
11
0.286787
21
0.156766
0
LINE
8
BLACK
6
CONTINUOUS
10
0.286787
20
0.156766
11
0.290383
21
0.147521
0
LINE
8
BLACK
6
CONTINUOUS
10
0.290383
20
0.147521
11
0.292572
21
0.137846
0
LINE
8
BLACK
6
CONTINUOUS
10
0.292572
20
0.137846
11
0.293307
21
0.127953
0
LINE
8
BLACK
6
CONTINUOUS
10
0.293307
20
0.127953
11
0.293215
21
0.12445
0
LINE
8
BLACK
6
CONTINUOUS
10
0.293215
20
0.12445
11
0.291963
21
0.114609
0
LINE
8
BLACK
6
CONTINUOUS
10
0.291963
20
0.114609
11
0.289271
21
0.105062
0
LINE
8
BLACK
6
CONTINUOUS
10
0.289271
20
0.105062
11
0.285196
21
0.0960169
0
LINE
8
BLACK
6
CONTINUOUS
10
0.285196
20
0.0960169
11
0.27983
21
0.0876738
0
LINE
8
BLACK
6
CONTINUOUS
10
0.27983
20
0.0876738
11
0.273289
21
0.0802155
0
LINE
8
BLACK
6
CONTINUOUS
10
0.273289
20
0.0802155
11
0.265718
21
0.0738059
0
LINE
8
BLACK
6
CONTINUOUS
10
0.265718
20
0.0738059
11
0.257282
21
0.0685859
0
LINE
8
BLACK
6
CONTINUOUS
10
0.257282
20
0.0685859
11
0.248168
21
0.06467
0
LINE
8
BLACK
6
CONTINUOUS
10
0.248168
20
0.06467
11
0.238575
21
0.0621444
0
LINE
8
BLACK
6
CONTINUOUS
10
0.238575
20
0.0621444
11
0.228714
21
0.0610644
0
LINE
8
BLACK
6
CONTINUOUS
10
0.228714
20
0.0610644
11
0.218801
21
0.0614539
0
LINE
8
BLACK
6
CONTINUOUS
10
0.218801
20
0.0614539
11
0.209055
21
0.0633042
0
LINE
8
BLACK
6
CONTINUOUS
10
0.209055
20
0.0633042
11
0.19969
21
0.0665747
0
LINE
8
BLACK
6
CONTINUOUS
10
0.19969
20
0.0665747
11
0.190911
21
0.0711936
0
LINE
8
BLACK
6
CONTINUOUS
10
0.190911
20
0.0711936
11
0.182911
21
0.0770594
0
LINE
8
BLACK
6
CONTINUOUS
10
0.182911
20
0.0770594
11
0.175866
21
0.0840433
0
LINE
8
BLACK
6
CONTINUOUS
10
0.175866
20
0.0840433
11
0.169931
21
0.0919918
0
LINE
8
BLACK
6
CONTINUOUS
10
0.169931
20
0.0919918
11
0.165235
21
0.10073
0
LINE
8
BLACK
6
CONTINUOUS
10
0.165235
20
0.10073
11
0.161883
21
0.110067
0
LINE
8
BLACK
6
CONTINUOUS
10
0.161883
20
0.110067
11
0.159948
21
0.119796
0
LINE
8
BLACK
6
CONTINUOUS
10
0.159948
20
0.119796
11
0.159486
21
0.129401
0
LINE
8
BLACK
6
CONTINUOUS
10
0.159486
20
0.129401
11
0.159472
21
0.129705
0
LINE
8
BLACK
6
CONTINUOUS
10
0.159472
20
0.129705
11
0.160466
21
0.139575
0
LINE
8
BLACK
6
CONTINUOUS
10
0.169832
20
0.110232
11
0.173486
21
0.101235
0
LINE
8
BLACK
6
CONTINUOUS
10
0.173486
20
0.101235
11
0.178559
21
0.0929549
0
LINE
8
BLACK
6
CONTINUOUS
10
0.178559
20
0.0929549
11
0.184918
21
0.0856149
0
LINE
8
BLACK
6
CONTINUOUS
10
0.184918
20
0.0856149
11
0.192389
21
0.0794119
0
LINE
8
BLACK
6
CONTINUOUS
10
0.192389
20
0.0794119
11
0.200774
21
0.0745124
0
LINE
8
BLACK
6
CONTINUOUS
10
0.200774
20
0.0745124
11
0.209846
21
0.0710481
0
LINE
8
BLACK
6
CONTINUOUS
10
0.209846
20
0.0710481
11
0.219362
21
0.0691121
0
LINE
8
BLACK
6
CONTINUOUS
10
0.219362
20
0.0691121
11
0.229066
21
0.0687562
0
LINE
8
BLACK
6
CONTINUOUS
10
0.229066
20
0.0687562
11
0.238698
21
0.0699902
0
LINE
8
BLACK
6
CONTINUOUS
10
0.238698
20
0.0699902
11
0.248
21
0.0727807
0
LINE
8
BLACK
6
CONTINUOUS
10
0.248
20
0.0727807
11
0.25672
21
0.0770529
0
LINE
8
BLACK
6
CONTINUOUS
10
0.25672
20
0.0770529
11
0.264626
21
0.0826921
0
LINE
8
BLACK
6
CONTINUOUS
10
0.264626
20
0.0826921
11
0.271505
21
0.0895468
0
LINE
8
BLACK
6
CONTINUOUS
10
0.271505
20
0.0895468
11
0.277172
21
0.0974329
0
LINE
8
BLACK
6
CONTINUOUS
10
0.277172
20
0.0974329
11
0.281474
21
0.106139
0
LINE
8
BLACK
6
CONTINUOUS
10
0.281474
20
0.106139
11
0.284297
21
0.11543
0
LINE
8
BLACK
6
CONTINUOUS
10
0.284297
20
0.11543
11
0.285565
21
0.125058
0
LINE
8
BLACK
6
CONTINUOUS
10
0.285565
20
0.125058
11
0.285635
21
0.127953
0
LINE
8
BLACK
6
CONTINUOUS
10
0.285635
20
0.127953
11
0.28484
21
0.137631
0
LINE
8
BLACK
6
CONTINUOUS
10
0.28484
20
0.137631
11
0.282474
21
0.147049
0
LINE
8
BLACK
6
CONTINUOUS
10
0.282474
20
0.147049
11
0.278602
21
0.155955
0
LINE
8
BLACK
6
CONTINUOUS
10
0.278602
20
0.155955
11
0.273327
21
0.164108
0
LINE
8
BLACK
6
CONTINUOUS
10
0.273327
20
0.164108
11
0.266791
21
0.171291
0
LINE
8
BLACK
6
CONTINUOUS
10
0.266791
20
0.171291
11
0.259171
21
0.17731
0
LINE
8
BLACK
6
CONTINUOUS
10
0.259171
20
0.17731
11
0.250669
21
0.182003
0
LINE
8
BLACK
6
CONTINUOUS
10
0.250669
20
0.182003
11
0.241515
21
0.185244
0
LINE
8
BLACK
6
CONTINUOUS
10
0.241515
20
0.185244
11
0.231955
21
0.186947
0
LINE
8
BLACK
6
CONTINUOUS
10
0.231955
20
0.186947
11
0.222244
21
0.187066
0
LINE
8
BLACK
6
CONTINUOUS
10
0.222244
20
0.187066
11
0.212645
21
0.185597
0
LINE
8
BLACK
6
CONTINUOUS
10
0.212645
20
0.185597
11
0.203415
21
0.18258
0
LINE
8
BLACK
6
CONTINUOUS
10
0.203415
20
0.18258
11
0.194801
21
0.178096
0
LINE
8
BLACK
6
CONTINUOUS
10
0.194801
20
0.178096
11
0.187035
21
0.172265
0
LINE
8
BLACK
6
CONTINUOUS
10
0.187035
20
0.172265
11
0.180326
21
0.165245
0
LINE
8
BLACK
6
CONTINUOUS
10
0.180326
20
0.165245
11
0.174854
21
0.157223
0
LINE
8
BLACK
6
CONTINUOUS
10
0.174854
20
0.157223
11
0.170765
21
0.148414
0
LINE
8
BLACK
6
CONTINUOUS
10
0.170765
20
0.148414
11
0.16817
21
0.139056
0
LINE
8
BLACK
6
CONTINUOUS
10
0.16817
20
0.139056
11
0.167138
21
0.129401
0
LINE
8
BLACK
6
CONTINUOUS
10
0.167138
20
0.129401
11
0.167697
21
0.119706
0
LINE
8
BLACK
6
CONTINUOUS
10
0.167697
20
0.119706
11
0.169832
21
0.110232
0
LINE
8
BLACK
6
CONTINUOUS
10
1.75495
20
0.139575
11
1.7574
21
0.14919
0
LINE
8
BLACK
6
CONTINUOUS
10
1.7574
20
0.14919
11
1.76123
21
0.158338
0
LINE
8
BLACK
6
CONTINUOUS
10
1.76123
20
0.158338
11
1.76638
21
0.166819
0
LINE
8
BLACK
6
CONTINUOUS
10
1.76638
20
0.166819
11
1.77272
21
0.174446
0
LINE
8
BLACK
6
CONTINUOUS
10
1.77272
20
0.174446
11
1.78012
21
0.181051
0
LINE
8
BLACK
6
CONTINUOUS
10
1.78012
20
0.181051
11
1.78842
21
0.18649
0
LINE
8
BLACK
6
CONTINUOUS
10
1.78842
20
0.18649
11
1.79743
21
0.190643
0
LINE
8
BLACK
6
CONTINUOUS
10
1.79743
20
0.190643
11
1.80695
21
0.193419
0
LINE
8
BLACK
6
CONTINUOUS
10
1.80695
20
0.193419
11
1.81678
21
0.194757
0
LINE
8
BLACK
6
CONTINUOUS
10
1.81678
20
0.194757
11
1.8267
21
0.194627
0
LINE
8
BLACK
6
CONTINUOUS
10
1.8267
20
0.194627
11
1.83649
21
0.193033
0
LINE
8
BLACK
6
CONTINUOUS
10
1.83649
20
0.193033
11
1.84594
21
0.190008
0
LINE
8
BLACK
6
CONTINUOUS
10
1.84594
20
0.190008
11
1.85484
21
0.185621
0
LINE
8
BLACK
6
CONTINUOUS
10
1.85484
20
0.185621
11
1.86299
21
0.179966
0
LINE
8
BLACK
6
CONTINUOUS
10
1.86299
20
0.179966
11
1.87021
21
0.173169
0
LINE
8
BLACK
6
CONTINUOUS
10
1.87021
20
0.173169
11
1.87635
21
0.165379
0
LINE
8
BLACK
6
CONTINUOUS
10
1.87635
20
0.165379
11
1.88128
21
0.156766
0
LINE
8
BLACK
6
CONTINUOUS
10
1.88128
20
0.156766
11
1.88487
21
0.147521
0
LINE
8
BLACK
6
CONTINUOUS
10
1.88487
20
0.147521
11
1.88706
21
0.137846
0
LINE
8
BLACK
6
CONTINUOUS
10
1.88706
20
0.137846
11
1.8878
21
0.127953
0
LINE
8
BLACK
6
CONTINUOUS
10
1.8878
20
0.127953
11
1.8877
21
0.12445
0
LINE
8
BLACK
6
CONTINUOUS
10
1.8877
20
0.12445
11
1.88645
21
0.114609
0
LINE
8
BLACK
6
CONTINUOUS
10
1.88645
20
0.114609
11
1.88376
21
0.105062
0
LINE
8
BLACK
6
CONTINUOUS
10
1.88376
20
0.105062
11
1.87968
21
0.0960169
0
LINE
8
BLACK
6
CONTINUOUS
10
1.87968
20
0.0960169
11
1.87432
21
0.0876738
0
LINE
8
BLACK
6
CONTINUOUS
10
1.87432
20
0.0876738
11
1.86778
21
0.0802155
0
LINE
8
BLACK
6
CONTINUOUS
10
1.86778
20
0.0802155
11
1.86021
21
0.0738059
0
LINE
8
BLACK
6
CONTINUOUS
10
1.86021
20
0.0738059
11
1.85177
21
0.0685859
0
LINE
8
BLACK
6
CONTINUOUS
10
1.85177
20
0.0685859
11
1.84266
21
0.06467
0
LINE
8
BLACK
6
CONTINUOUS
10
1.84266
20
0.06467
11
1.83306
21
0.0621444
0
LINE
8
BLACK
6
CONTINUOUS
10
1.83306
20
0.0621444
11
1.8232
21
0.0610644
0
LINE
8
BLACK
6
CONTINUOUS
10
1.8232
20
0.0610644
11
1.81329
21
0.0614539
0
LINE
8
BLACK
6
CONTINUOUS
10
1.81329
20
0.0614539
11
1.80354
21
0.0633042
0
LINE
8
BLACK
6
CONTINUOUS
10
1.80354
20
0.0633042
11
1.79418
21
0.0665747
0
LINE
8
BLACK
6
CONTINUOUS
10
1.79418
20
0.0665747
11
1.7854
21
0.0711936
0
LINE
8
BLACK
6
CONTINUOUS
10
1.7854
20
0.0711936
11
1.7774
21
0.0770594
0
LINE
8
BLACK
6
CONTINUOUS
10
1.7774
20
0.0770594
11
1.77035
21
0.0840433
0
LINE
8
BLACK
6
CONTINUOUS
10
1.77035
20
0.0840433
11
1.76442
21
0.0919918
0
LINE
8
BLACK
6
CONTINUOUS
10
1.76442
20
0.0919918
11
1.75972
21
0.10073
0
LINE
8
BLACK
6
CONTINUOUS
10
1.75972
20
0.10073
11
1.75637
21
0.110067
0
LINE
8
BLACK
6
CONTINUOUS
10
1.75637
20
0.110067
11
1.75444
21
0.119796
0
LINE
8
BLACK
6
CONTINUOUS
10
1.75444
20
0.119796
11
1.75397
21
0.129401
0
LINE
8
BLACK
6
CONTINUOUS
10
1.75397
20
0.129401
11
1.75396
21
0.129705
0
LINE
8
BLACK
6
CONTINUOUS
10
1.75396
20
0.129705
11
1.75495
21
0.139575
0
LINE
8
BLACK
6
CONTINUOUS
10
1.76432
20
0.110232
11
1.76797
21
0.101235
0
LINE
8
BLACK
6
CONTINUOUS
10
1.76797
20
0.101235
11
1.77305
21
0.0929549
0
LINE
8
BLACK
6
CONTINUOUS
10
1.77305
20
0.0929549
11
1.77941
21
0.0856149
0
LINE
8
BLACK
6
CONTINUOUS
10
1.77941
20
0.0856149
11
1.78688
21
0.0794119
0
LINE
8
BLACK
6
CONTINUOUS
10
1.78688
20
0.0794119
11
1.79526
21
0.0745124
0
LINE
8
BLACK
6
CONTINUOUS
10
1.79526
20
0.0745124
11
1.80433
21
0.0710481
0
LINE
8
BLACK
6
CONTINUOUS
10
1.80433
20
0.0710481
11
1.81385
21
0.0691121
0
LINE
8
BLACK
6
CONTINUOUS
10
1.81385
20
0.0691121
11
1.82355
21
0.0687562
0
LINE
8
BLACK
6
CONTINUOUS
10
1.82355
20
0.0687562
11
1.83319
21
0.0699902
0
LINE
8
BLACK
6
CONTINUOUS
10
1.83319
20
0.0699902
11
1.84249
21
0.0727807
0
LINE
8
BLACK
6
CONTINUOUS
10
1.84249
20
0.0727807
11
1.85121
21
0.0770529
0
LINE
8
BLACK
6
CONTINUOUS
10
1.85121
20
0.0770529
11
1.85911
21
0.0826921
0
LINE
8
BLACK
6
CONTINUOUS
10
1.85911
20
0.0826921
11
1.86599
21
0.0895468
0
LINE
8
BLACK
6
CONTINUOUS
10
1.86599
20
0.0895468
11
1.87166
21
0.0974329
0
LINE
8
BLACK
6
CONTINUOUS
10
1.87166
20
0.0974329
11
1.87596
21
0.106139
0
LINE
8
BLACK
6
CONTINUOUS
10
1.87596
20
0.106139
11
1.87879
21
0.11543
0
LINE
8
BLACK
6
CONTINUOUS
10
1.87879
20
0.11543
11
1.88005
21
0.125058
0
LINE
8
BLACK
6
CONTINUOUS
10
1.88005
20
0.125058
11
1.88012
21
0.127953
0
LINE
8
BLACK
6
CONTINUOUS
10
1.88012
20
0.127953
11
1.87933
21
0.137631
0
LINE
8
BLACK
6
CONTINUOUS
10
1.87933
20
0.137631
11
1.87696
21
0.147049
0
LINE
8
BLACK
6
CONTINUOUS
10
1.87696
20
0.147049
11
1.87309
21
0.155955
0
LINE
8
BLACK
6
CONTINUOUS
10
1.87309
20
0.155955
11
1.86782
21
0.164108
0
LINE
8
BLACK
6
CONTINUOUS
10
1.86782
20
0.164108
11
1.86128
21
0.171291
0
LINE
8
BLACK
6
CONTINUOUS
10
1.86128
20
0.171291
11
1.85366
21
0.17731
0
LINE
8
BLACK
6
CONTINUOUS
10
1.85366
20
0.17731
11
1.84516
21
0.182003
0
LINE
8
BLACK
6
CONTINUOUS
10
1.84516
20
0.182003
11
1.836
21
0.185244
0
LINE
8
BLACK
6
CONTINUOUS
10
1.836
20
0.185244
11
1.82644
21
0.186947
0
LINE
8
BLACK
6
CONTINUOUS
10
1.82644
20
0.186947
11
1.81673
21
0.187066
0
LINE
8
BLACK
6
CONTINUOUS
10
1.81673
20
0.187066
11
1.80713
21
0.185597
0
LINE
8
BLACK
6
CONTINUOUS
10
1.80713
20
0.185597
11
1.7979
21
0.18258
0
LINE
8
BLACK
6
CONTINUOUS
10
1.7979
20
0.18258
11
1.78929
21
0.178096
0
LINE
8
BLACK
6
CONTINUOUS
10
1.78929
20
0.178096
11
1.78152
21
0.172265
0
LINE
8
BLACK
6
CONTINUOUS
10
1.78152
20
0.172265
11
1.77481
21
0.165245
0
LINE
8
BLACK
6
CONTINUOUS
10
1.77481
20
0.165245
11
1.76934
21
0.157223
0
LINE
8
BLACK
6
CONTINUOUS
10
1.76934
20
0.157223
11
1.76525
21
0.148414
0
LINE
8
BLACK
6
CONTINUOUS
10
1.76525
20
0.148414
11
1.76266
21
0.139056
0
LINE
8
BLACK
6
CONTINUOUS
10
1.76266
20
0.139056
11
1.76163
21
0.129401
0
LINE
8
BLACK
6
CONTINUOUS
10
1.76163
20
0.129401
11
1.76219
21
0.119706
0
LINE
8
BLACK
6
CONTINUOUS
10
1.76219
20
0.119706
11
1.76432
21
0.110232
0
LINE
8
BLACK
6
CONTINUOUS
10
1.75495
20
4.96241
11
1.7574
21
4.97202
0
LINE
8
BLACK
6
CONTINUOUS
10
1.7574
20
4.97202
11
1.76123
21
4.98117
0
LINE
8
BLACK
6
CONTINUOUS
10
1.76123
20
4.98117
11
1.76638
21
4.98965
0
LINE
8
BLACK
6
CONTINUOUS
10
1.76638
20
4.98965
11
1.77272
21
4.99728
0
LINE
8
BLACK
6
CONTINUOUS
10
1.77272
20
4.99728
11
1.78012
21
5.00389
0
LINE
8
BLACK
6
CONTINUOUS
10
1.78012
20
5.00389
11
1.78842
21
5.00932
0
LINE
8
BLACK
6
CONTINUOUS
10
1.78842
20
5.00932
11
1.79743
21
5.01348
0
LINE
8
BLACK
6
CONTINUOUS
10
1.79743
20
5.01348
11
1.80695
21
5.01625
0
LINE
8
BLACK
6
CONTINUOUS
10
1.80695
20
5.01625
11
1.81678
21
5.01759
0
LINE
8
BLACK
6
CONTINUOUS
10
1.81678
20
5.01759
11
1.8267
21
5.01746
0
LINE
8
BLACK
6
CONTINUOUS
10
1.8267
20
5.01746
11
1.83649
21
5.01587
0
LINE
8
BLACK
6
CONTINUOUS
10
1.83649
20
5.01587
11
1.84594
21
5.01284
0
LINE
8
BLACK
6
CONTINUOUS
10
1.84594
20
5.01284
11
1.85484
21
5.00846
0
LINE
8
BLACK
6
CONTINUOUS
10
1.85484
20
5.00846
11
1.86299
21
5.0028
0
LINE
8
BLACK
6
CONTINUOUS
10
1.86299
20
5.0028
11
1.87021
21
4.996
0
LINE
8
BLACK
6
CONTINUOUS
10
1.87021
20
4.996
11
1.87635
21
4.98821
0
LINE
8
BLACK
6
CONTINUOUS
10
1.87635
20
4.98821
11
1.88128
21
4.9796
0
LINE
8
BLACK
6
CONTINUOUS
10
1.88128
20
4.9796
11
1.88487
21
4.97036
0
LINE
8
BLACK
6
CONTINUOUS
10
1.88487
20
4.97036
11
1.88706
21
4.96068
0
LINE
8
BLACK
6
CONTINUOUS
10
1.88706
20
4.96068
11
1.8878
21
4.95079
0
LINE
8
BLACK
6
CONTINUOUS
10
1.8878
20
4.95079
11
1.8877
21
4.94728
0
LINE
8
BLACK
6
CONTINUOUS
10
1.8877
20
4.94728
11
1.88645
21
4.93744
0
LINE
8
BLACK
6
CONTINUOUS
10
1.88645
20
4.93744
11
1.88376
21
4.9279
0
LINE
8
BLACK
6
CONTINUOUS
10
1.88376
20
4.9279
11
1.87968
21
4.91885
0
LINE
8
BLACK
6
CONTINUOUS
10
1.87968
20
4.91885
11
1.87432
21
4.91051
0
LINE
8
BLACK
6
CONTINUOUS
10
1.87432
20
4.91051
11
1.86778
21
4.90305
0
LINE
8
BLACK
6
CONTINUOUS
10
1.86778
20
4.90305
11
1.86021
21
4.89664
0
LINE
8
BLACK
6
CONTINUOUS
10
1.86021
20
4.89664
11
1.85177
21
4.89142
0
LINE
8
BLACK
6
CONTINUOUS
10
1.85177
20
4.89142
11
1.84266
21
4.8875
0
LINE
8
BLACK
6
CONTINUOUS
10
1.84266
20
4.8875
11
1.83306
21
4.88498
0
LINE
8
BLACK
6
CONTINUOUS
10
1.83306
20
4.88498
11
1.8232
21
4.8839
0
LINE
8
BLACK
6
CONTINUOUS
10
1.8232
20
4.8839
11
1.81329
21
4.88429
0
LINE
8
BLACK
6
CONTINUOUS
10
1.81329
20
4.88429
11
1.80354
21
4.88614
0
LINE
8
BLACK
6
CONTINUOUS
10
1.80354
20
4.88614
11
1.79418
21
4.88941
0
LINE
8
BLACK
6
CONTINUOUS
10
1.79418
20
4.88941
11
1.7854
21
4.89403
0
LINE
8
BLACK
6
CONTINUOUS
10
1.7854
20
4.89403
11
1.7774
21
4.89989
0
LINE
8
BLACK
6
CONTINUOUS
10
1.7774
20
4.89989
11
1.77035
21
4.90688
0
LINE
8
BLACK
6
CONTINUOUS
10
1.77035
20
4.90688
11
1.76442
21
4.91483
0
LINE
8
BLACK
6
CONTINUOUS
10
1.76442
20
4.91483
11
1.75972
21
4.92356
0
LINE
8
BLACK
6
CONTINUOUS
10
1.75972
20
4.92356
11
1.75637
21
4.9329
0
LINE
8
BLACK
6
CONTINUOUS
10
1.75637
20
4.9329
11
1.75444
21
4.94263
0
LINE
8
BLACK
6
CONTINUOUS
10
1.75444
20
4.94263
11
1.75397
21
4.95224
0
LINE
8
BLACK
6
CONTINUOUS
10
1.75397
20
4.95224
11
1.75396
21
4.95254
0
LINE
8
BLACK
6
CONTINUOUS
10
1.75396
20
4.95254
11
1.75495
21
4.96241
0
LINE
8
BLACK
6
CONTINUOUS
10
1.76432
20
4.93307
11
1.76797
21
4.92407
0
LINE
8
BLACK
6
CONTINUOUS
10
1.76797
20
4.92407
11
1.77305
21
4.91579
0
LINE
8
BLACK
6
CONTINUOUS
10
1.77305
20
4.91579
11
1.77941
21
4.90845
0
LINE
8
BLACK
6
CONTINUOUS
10
1.77941
20
4.90845
11
1.78688
21
4.90225
0
LINE
8
BLACK
6
CONTINUOUS
10
1.78688
20
4.90225
11
1.79526
21
4.89735
0
LINE
8
BLACK
6
CONTINUOUS
10
1.79526
20
4.89735
11
1.80433
21
4.89388
0
LINE
8
BLACK
6
CONTINUOUS
10
1.80433
20
4.89388
11
1.81385
21
4.89195
0
LINE
8
BLACK
6
CONTINUOUS
10
1.81385
20
4.89195
11
1.82355
21
4.89159
0
LINE
8
BLACK
6
CONTINUOUS
10
1.82355
20
4.89159
11
1.83319
21
4.89282
0
LINE
8
BLACK
6
CONTINUOUS
10
1.83319
20
4.89282
11
1.84249
21
4.89562
0
LINE
8
BLACK
6
CONTINUOUS
10
1.84249
20
4.89562
11
1.85121
21
4.89989
0
LINE
8
BLACK
6
CONTINUOUS
10
1.85121
20
4.89989
11
1.85911
21
4.90553
0
LINE
8
BLACK
6
CONTINUOUS
10
1.85911
20
4.90553
11
1.86599
21
4.91238
0
LINE
8
BLACK
6
CONTINUOUS
10
1.86599
20
4.91238
11
1.87166
21
4.92027
0
LINE
8
BLACK
6
CONTINUOUS
10
1.87166
20
4.92027
11
1.87596
21
4.92897
0
LINE
8
BLACK
6
CONTINUOUS
10
1.87596
20
4.92897
11
1.87879
21
4.93826
0
LINE
8
BLACK
6
CONTINUOUS
10
1.87879
20
4.93826
11
1.88005
21
4.94789
0
LINE
8
BLACK
6
CONTINUOUS
10
1.88005
20
4.94789
11
1.88012
21
4.95079
0
LINE
8
BLACK
6
CONTINUOUS
10
1.88012
20
4.95079
11
1.87933
21
4.96047
0
LINE
8
BLACK
6
CONTINUOUS
10
1.87933
20
4.96047
11
1.87696
21
4.96988
0
LINE
8
BLACK
6
CONTINUOUS
10
1.87696
20
4.96988
11
1.87309
21
4.97879
0
LINE
8
BLACK
6
CONTINUOUS
10
1.87309
20
4.97879
11
1.86782
21
4.98694
0
LINE
8
BLACK
6
CONTINUOUS
10
1.86782
20
4.98694
11
1.86128
21
4.99413
0
LINE
8
BLACK
6
CONTINUOUS
10
1.86128
20
4.99413
11
1.85366
21
5.00014
0
LINE
8
BLACK
6
CONTINUOUS
10
1.85366
20
5.00014
11
1.84516
21
5.00484
0
LINE
8
BLACK
6
CONTINUOUS
10
1.84516
20
5.00484
11
1.836
21
5.00808
0
LINE
8
BLACK
6
CONTINUOUS
10
1.836
20
5.00808
11
1.82644
21
5.00978
0
LINE
8
BLACK
6
CONTINUOUS
10
1.82644
20
5.00978
11
1.81673
21
5.0099
0
LINE
8
BLACK
6
CONTINUOUS
10
1.81673
20
5.0099
11
1.80713
21
5.00843
0
LINE
8
BLACK
6
CONTINUOUS
10
1.80713
20
5.00843
11
1.7979
21
5.00541
0
LINE
8
BLACK
6
CONTINUOUS
10
1.7979
20
5.00541
11
1.78929
21
5.00093
0
LINE
8
BLACK
6
CONTINUOUS
10
1.78929
20
5.00093
11
1.78152
21
4.9951
0
LINE
8
BLACK
6
CONTINUOUS
10
1.78152
20
4.9951
11
1.77481
21
4.98808
0
LINE
8
BLACK
6
CONTINUOUS
10
1.77481
20
4.98808
11
1.76934
21
4.98006
0
LINE
8
BLACK
6
CONTINUOUS
10
1.76934
20
4.98006
11
1.76525
21
4.97125
0
LINE
8
BLACK
6
CONTINUOUS
10
1.76525
20
4.97125
11
1.76266
21
4.96189
0
LINE
8
BLACK
6
CONTINUOUS
10
1.76266
20
4.96189
11
1.76163
21
4.95224
0
LINE
8
BLACK
6
CONTINUOUS
10
1.76163
20
4.95224
11
1.76219
21
4.94254
0
LINE
8
BLACK
6
CONTINUOUS
10
1.76219
20
4.94254
11
1.76432
21
4.93307
0
LINE
8
BLACK
6
CONTINUOUS
10
0.160466
20
4.96241
11
0.162907
21
4.97202
0
LINE
8
BLACK
6
CONTINUOUS
10
0.162907
20
4.97202
11
0.166744
21
4.98117
0
LINE
8
BLACK
6
CONTINUOUS
10
0.166744
20
4.98117
11
0.17189
21
4.98965
0
LINE
8
BLACK
6
CONTINUOUS
10
0.17189
20
4.98965
11
0.178233
21
4.99728
0
LINE
8
BLACK
6
CONTINUOUS
10
0.178233
20
4.99728
11
0.185634
21
5.00389
0
LINE
8
BLACK
6
CONTINUOUS
10
0.185634
20
5.00389
11
0.19393
21
5.00932
0
LINE
8
BLACK
6
CONTINUOUS
10
0.19393
20
5.00932
11
0.202939
21
5.01348
0
LINE
8
BLACK
6
CONTINUOUS
10
0.202939
20
5.01348
11
0.212463
21
5.01625
0
LINE
8
BLACK
6
CONTINUOUS
10
0.212463
20
5.01625
11
0.222292
21
5.01759
0
LINE
8
BLACK
6
CONTINUOUS
10
0.222292
20
5.01759
11
0.232211
21
5.01746
0
LINE
8
BLACK
6
CONTINUOUS
10
0.232211
20
5.01746
11
0.242002
21
5.01587
0
LINE
8
BLACK
6
CONTINUOUS
10
0.242002
20
5.01587
11
0.25145
21
5.01284
0
LINE
8
BLACK
6
CONTINUOUS
10
0.25145
20
5.01284
11
0.260347
21
5.00846
0
LINE
8
BLACK
6
CONTINUOUS
10
0.260347
20
5.00846
11
0.268498
21
5.0028
0
LINE
8
BLACK
6
CONTINUOUS
10
0.268498
20
5.0028
11
0.275723
21
4.996
0
LINE
8
BLACK
6
CONTINUOUS
10
0.275723
20
4.996
11
0.281865
21
4.98821
0
LINE
8
BLACK
6
CONTINUOUS
10
0.281865
20
4.98821
11
0.286787
21
4.9796
0
LINE
8
BLACK
6
CONTINUOUS
10
0.286787
20
4.9796
11
0.290383
21
4.97036
0
LINE
8
BLACK
6
CONTINUOUS
10
0.290383
20
4.97036
11
0.292572
21
4.96068
0
LINE
8
BLACK
6
CONTINUOUS
10
0.292572
20
4.96068
11
0.293307
21
4.95079
0
LINE
8
BLACK
6
CONTINUOUS
10
0.293307
20
4.95079
11
0.293215
21
4.94728
0
LINE
8
BLACK
6
CONTINUOUS
10
0.293215
20
4.94728
11
0.291963
21
4.93744
0
LINE
8
BLACK
6
CONTINUOUS
10
0.291963
20
4.93744
11
0.289271
21
4.9279
0
LINE
8
BLACK
6
CONTINUOUS
10
0.289271
20
4.9279
11
0.285196
21
4.91885
0
LINE
8
BLACK
6
CONTINUOUS
10
0.285196
20
4.91885
11
0.27983
21
4.91051
0
LINE
8
BLACK
6
CONTINUOUS
10
0.27983
20
4.91051
11
0.273289
21
4.90305
0
LINE
8
BLACK
6
CONTINUOUS
10
0.273289
20
4.90305
11
0.265718
21
4.89664
0
LINE
8
BLACK
6
CONTINUOUS
10
0.265718
20
4.89664
11
0.257282
21
4.89142
0
LINE
8
BLACK
6
CONTINUOUS
10
0.257282
20
4.89142
11
0.248168
21
4.8875
0
LINE
8
BLACK
6
CONTINUOUS
10
0.248168
20
4.8875
11
0.238575
21
4.88498
0
LINE
8
BLACK
6
CONTINUOUS
10
0.238575
20
4.88498
11
0.228714
21
4.8839
0
LINE
8
BLACK
6
CONTINUOUS
10
0.228714
20
4.8839
11
0.218801
21
4.88429
0
LINE
8
BLACK
6
CONTINUOUS
10
0.218801
20
4.88429
11
0.209055
21
4.88614
0
LINE
8
BLACK
6
CONTINUOUS
10
0.209055
20
4.88614
11
0.19969
21
4.88941
0
LINE
8
BLACK
6
CONTINUOUS
10
0.19969
20
4.88941
11
0.190911
21
4.89403
0
LINE
8
BLACK
6
CONTINUOUS
10
0.190911
20
4.89403
11
0.182911
21
4.89989
0
LINE
8
BLACK
6
CONTINUOUS
10
0.182911
20
4.89989
11
0.175866
21
4.90688
0
LINE
8
BLACK
6
CONTINUOUS
10
0.175866
20
4.90688
11
0.169931
21
4.91483
0
LINE
8
BLACK
6
CONTINUOUS
10
0.169931
20
4.91483
11
0.165235
21
4.92356
0
LINE
8
BLACK
6
CONTINUOUS
10
0.165235
20
4.92356
11
0.161883
21
4.9329
0
LINE
8
BLACK
6
CONTINUOUS
10
0.161883
20
4.9329
11
0.159948
21
4.94263
0
LINE
8
BLACK
6
CONTINUOUS
10
0.159948
20
4.94263
11
0.159486
21
4.95224
0
LINE
8
BLACK
6
CONTINUOUS
10
0.159486
20
4.95224
11
0.159472
21
4.95254
0
LINE
8
BLACK
6
CONTINUOUS
10
0.159472
20
4.95254
11
0.160466
21
4.96241
0
LINE
8
BLACK
6
CONTINUOUS
10
0.169832
20
4.93307
11
0.173486
21
4.92407
0
LINE
8
BLACK
6
CONTINUOUS
10
0.173486
20
4.92407
11
0.178559
21
4.91579
0
LINE
8
BLACK
6
CONTINUOUS
10
0.178559
20
4.91579
11
0.184918
21
4.90845
0
LINE
8
BLACK
6
CONTINUOUS
10
0.184918
20
4.90845
11
0.192389
21
4.90225
0
LINE
8
BLACK
6
CONTINUOUS
10
0.192389
20
4.90225
11
0.200774
21
4.89735
0
LINE
8
BLACK
6
CONTINUOUS
10
0.200774
20
4.89735
11
0.209846
21
4.89388
0
LINE
8
BLACK
6
CONTINUOUS
10
0.209846
20
4.89388
11
0.219362
21
4.89195
0
LINE
8
BLACK
6
CONTINUOUS
10
0.219362
20
4.89195
11
0.229066
21
4.89159
0
LINE
8
BLACK
6
CONTINUOUS
10
0.229066
20
4.89159
11
0.238698
21
4.89282
0
LINE
8
BLACK
6
CONTINUOUS
10
0.238698
20
4.89282
11
0.248
21
4.89562
0
LINE
8
BLACK
6
CONTINUOUS
10
0.248
20
4.89562
11
0.25672
21
4.89989
0
LINE
8
BLACK
6
CONTINUOUS
10
0.25672
20
4.89989
11
0.264626
21
4.90553
0
LINE
8
BLACK
6
CONTINUOUS
10
0.264626
20
4.90553
11
0.271505
21
4.91238
0
LINE
8
BLACK
6
CONTINUOUS
10
0.271505
20
4.91238
11
0.277172
21
4.92027
0
LINE
8
BLACK
6
CONTINUOUS
10
0.277172
20
4.92027
11
0.281474
21
4.92897
0
LINE
8
BLACK
6
CONTINUOUS
10
0.281474
20
4.92897
11
0.284297
21
4.93826
0
LINE
8
BLACK
6
CONTINUOUS
10
0.284297
20
4.93826
11
0.285565
21
4.94789
0
LINE
8
BLACK
6
CONTINUOUS
10
0.285565
20
4.94789
11
0.285635
21
4.95079
0
LINE
8
BLACK
6
CONTINUOUS
10
0.285635
20
4.95079
11
0.28484
21
4.96047
0
LINE
8
BLACK
6
CONTINUOUS
10
0.28484
20
4.96047
11
0.282474
21
4.96988
0
LINE
8
BLACK
6
CONTINUOUS
10
0.282474
20
4.96988
11
0.278602
21
4.97879
0
LINE
8
BLACK
6
CONTINUOUS
10
0.278602
20
4.97879
11
0.273327
21
4.98694
0
LINE
8
BLACK
6
CONTINUOUS
10
0.273327
20
4.98694
11
0.266791
21
4.99413
0
LINE
8
BLACK
6
CONTINUOUS
10
0.266791
20
4.99413
11
0.259171
21
5.00014
0
LINE
8
BLACK
6
CONTINUOUS
10
0.259171
20
5.00014
11
0.250669
21
5.00484
0
LINE
8
BLACK
6
CONTINUOUS
10
0.250669
20
5.00484
11
0.241515
21
5.00808
0
LINE
8
BLACK
6
CONTINUOUS
10
0.241515
20
5.00808
11
0.231955
21
5.00978
0
LINE
8
BLACK
6
CONTINUOUS
10
0.231955
20
5.00978
11
0.222244
21
5.0099
0
LINE
8
BLACK
6
CONTINUOUS
10
0.222244
20
5.0099
11
0.212645
21
5.00843
0
LINE
8
BLACK
6
CONTINUOUS
10
0.212645
20
5.00843
11
0.203415
21
5.00541
0
LINE
8
BLACK
6
CONTINUOUS
10
0.203415
20
5.00541
11
0.194801
21
5.00093
0
LINE
8
BLACK
6
CONTINUOUS
10
0.194801
20
5.00093
11
0.187035
21
4.9951
0
LINE
8
BLACK
6
CONTINUOUS
10
0.187035
20
4.9951
11
0.180326
21
4.98808
0
LINE
8
BLACK
6
CONTINUOUS
10
0.180326
20
4.98808
11
0.174854
21
4.98006
0
LINE
8
BLACK
6
CONTINUOUS
10
0.174854
20
4.98006
11
0.170765
21
4.97125
0
LINE
8
BLACK
6
CONTINUOUS
10
0.170765
20
4.97125
11
0.16817
21
4.96189
0
LINE
8
BLACK
6
CONTINUOUS
10
0.16817
20
4.96189
11
0.167138
21
4.95224
0
LINE
8
BLACK
6
CONTINUOUS
10
0.167138
20
4.95224
11
0.167697
21
4.94254
0
LINE
8
BLACK
6
CONTINUOUS
10
0.167697
20
4.94254
11
0.169832
21
4.93307
  0
ENDSEC
  0
EOF
