  0
SECTION
  2
HEADER
  9
$ANGBASE
  50
0.0
  9
$ANGDIR
  70
1
  9
$MEASUREMENT
  70
0
  0
ENDSEC
  0
SECTION
  2
TABLES
  0
TABLE
  2
LTYPE
  70
4
  0
LTYPE
  5
40F
  2
CONTINUOUS
  70
0
  3
Solid line
  72
65
  73
0
  40
0.0
  0
LTYPE
  5
410
  2
DASHDOT
 70
0
  3
Dash Dot ____ _ ____ _
 72
65
 73
4
 40
2.0
 49
1.25
 49
-0.25
 49
0.25
 49
-0.25
  0
LTYPE
  5
411
  2
DASHED
 70
0
  3
Dashed __ __ __ __ __
 72
65
 73
2
 40
0.75
 49
0.5
 49
-0.25
  0
LTYPE
  5
43B
  2
DOTTED
 70
0
  3
Dotted .  .  .  .
 72
65
 73
2
 40
0.2
 49
0.0
 49
-0.2
  0
ENDTAB
  0
TABLE
  2
STYLE
  70
4
  0
STYLE
  2
KICAD
  70
0
  40
0
  41
1
  42
1
  50
0
  71
0
  3
isocp.shx
  0
STYLE
  2
KICADB
  70
0
  40
0
  41
1
  42
1
  50
0
  71
0
  3
isocp.shx
  0
STYLE
  2
KICADI
  70
0
  40
0
  41
1
  42
1
  50
15
  71
0
  3
isocp.shx
  0
STYLE
  2
KICADBI
  70
0
  40
0
  41
1
  42
1
  50
15
  71
0
  3
isocp.shx
  0
ENDTAB
  0
TABLE
  2
LAYER
  70
1
  0
LAYER
  2
BLACK
  70
0
  62
7
  6
CONTINUOUS
  0
ENDTAB
  0
ENDSEC
  0
SECTION
  2
ENTITIES
0
LINE
8
BLACK
6
CONTINUOUS
10
3.01393
20
-5.81242
11
3.01771
21
-5.799
0
LINE
8
BLACK
6
CONTINUOUS
10
3.01771
20
-5.799
11
3.02291
21
-5.78606
0
LINE
8
BLACK
6
CONTINUOUS
10
3.02291
20
-5.78606
11
3.02948
21
-5.77376
0
LINE
8
BLACK
6
CONTINUOUS
10
3.02948
20
-5.77376
11
3.03733
21
-5.76224
0
LINE
8
BLACK
6
CONTINUOUS
10
3.03733
20
-5.76224
11
3.04639
21
-5.75163
0
LINE
8
BLACK
6
CONTINUOUS
10
3.04639
20
-5.75163
11
3.05654
21
-5.74207
0
LINE
8
BLACK
6
CONTINUOUS
10
3.05654
20
-5.74207
11
3.06766
21
-5.73366
0
LINE
8
BLACK
6
CONTINUOUS
10
3.06766
20
-5.73366
11
3.07963
21
-5.7265
0
LINE
8
BLACK
6
CONTINUOUS
10
3.07963
20
-5.7265
11
3.0923
21
-5.72067
0
LINE
8
BLACK
6
CONTINUOUS
10
3.0923
20
-5.72067
11
3.10552
21
-5.71624
0
LINE
8
BLACK
6
CONTINUOUS
10
3.10552
20
-5.71624
11
3.11915
21
-5.71327
0
LINE
8
BLACK
6
CONTINUOUS
10
3.11915
20
-5.71327
11
3.13302
21
-5.71179
0
LINE
8
BLACK
6
CONTINUOUS
10
3.13302
20
-5.71179
11
3.14696
21
-5.71182
0
LINE
8
BLACK
6
CONTINUOUS
10
3.14696
20
-5.71182
11
3.16082
21
-5.71335
0
LINE
8
BLACK
6
CONTINUOUS
10
3.16082
20
-5.71335
11
3.17444
21
-5.71636
0
LINE
8
BLACK
6
CONTINUOUS
10
3.17444
20
-5.71636
11
3.18765
21
-5.72084
0
LINE
8
BLACK
6
CONTINUOUS
10
3.18765
20
-5.72084
11
3.2003
21
-5.72671
0
LINE
8
BLACK
6
CONTINUOUS
10
3.2003
20
-5.72671
11
3.21224
21
-5.73391
0
LINE
8
BLACK
6
CONTINUOUS
10
3.21224
20
-5.73391
11
3.22333
21
-5.74236
0
LINE
8
BLACK
6
CONTINUOUS
10
3.22333
20
-5.74236
11
3.23345
21
-5.75196
0
LINE
8
BLACK
6
CONTINUOUS
10
3.23345
20
-5.75196
11
3.24247
21
-5.7626
0
LINE
8
BLACK
6
CONTINUOUS
10
3.24247
20
-5.7626
11
3.25028
21
-5.77414
0
LINE
8
BLACK
6
CONTINUOUS
10
3.25028
20
-5.77414
11
3.25681
21
-5.78647
0
LINE
8
BLACK
6
CONTINUOUS
10
3.25681
20
-5.78647
11
3.26197
21
-5.79943
0
LINE
8
BLACK
6
CONTINUOUS
10
3.26197
20
-5.79943
11
3.26569
21
-5.81286
0
LINE
8
BLACK
6
CONTINUOUS
10
3.26569
20
-5.81286
11
3.26795
21
-5.82663
0
LINE
8
BLACK
6
CONTINUOUS
10
3.26795
20
-5.82663
11
3.2687
21
-5.84055
0
LINE
8
BLACK
6
CONTINUOUS
10
3.2687
20
-5.84055
11
3.2687
21
-5.84145
0
LINE
8
BLACK
6
CONTINUOUS
10
3.2687
20
-5.84145
11
3.26785
21
-5.85537
0
LINE
8
BLACK
6
CONTINUOUS
10
3.26785
20
-5.85537
11
3.2655
21
-5.86912
0
LINE
8
BLACK
6
CONTINUOUS
10
3.2655
20
-5.86912
11
3.26168
21
-5.88253
0
LINE
8
BLACK
6
CONTINUOUS
10
3.26168
20
-5.88253
11
3.25643
21
-5.89545
0
LINE
8
BLACK
6
CONTINUOUS
10
3.25643
20
-5.89545
11
3.24982
21
-5.90773
0
LINE
8
BLACK
6
CONTINUOUS
10
3.24982
20
-5.90773
11
3.24192
21
-5.91922
0
LINE
8
BLACK
6
CONTINUOUS
10
3.24192
20
-5.91922
11
3.23283
21
-5.92979
0
LINE
8
BLACK
6
CONTINUOUS
10
3.23283
20
-5.92979
11
3.22264
21
-5.93932
0
LINE
8
BLACK
6
CONTINUOUS
10
3.22264
20
-5.93932
11
3.21149
21
-5.9477
0
LINE
8
BLACK
6
CONTINUOUS
10
3.21149
20
-5.9477
11
3.1995
21
-5.95482
0
LINE
8
BLACK
6
CONTINUOUS
10
3.1995
20
-5.95482
11
3.18681
21
-5.9606
0
LINE
8
BLACK
6
CONTINUOUS
10
3.18681
20
-5.9606
11
3.17357
21
-5.96498
0
LINE
8
BLACK
6
CONTINUOUS
10
3.17357
20
-5.96498
11
3.15993
21
-5.9679
0
LINE
8
BLACK
6
CONTINUOUS
10
3.15993
20
-5.9679
11
3.14606
21
-5.96933
0
LINE
8
BLACK
6
CONTINUOUS
10
3.14606
20
-5.96933
11
3.13212
21
-5.96926
0
LINE
8
BLACK
6
CONTINUOUS
10
3.13212
20
-5.96926
11
3.11826
21
-5.96768
0
LINE
8
BLACK
6
CONTINUOUS
10
3.11826
20
-5.96768
11
3.10466
21
-5.96462
0
LINE
8
BLACK
6
CONTINUOUS
10
3.10466
20
-5.96462
11
3.09146
21
-5.9601
0
LINE
8
BLACK
6
CONTINUOUS
10
3.09146
20
-5.9601
11
3.07883
21
-5.95418
0
LINE
8
BLACK
6
CONTINUOUS
10
3.07883
20
-5.95418
11
3.06692
21
-5.94694
0
LINE
8
BLACK
6
CONTINUOUS
10
3.06692
20
-5.94694
11
3.05585
21
-5.93845
0
LINE
8
BLACK
6
CONTINUOUS
10
3.05585
20
-5.93845
11
3.04577
21
-5.92881
0
LINE
8
BLACK
6
CONTINUOUS
10
3.04577
20
-5.92881
11
3.03679
21
-5.91815
0
LINE
8
BLACK
6
CONTINUOUS
10
3.03679
20
-5.91815
11
3.02901
21
-5.90657
0
LINE
8
BLACK
6
CONTINUOUS
10
3.02901
20
-5.90657
11
3.02253
21
-5.89423
0
LINE
8
BLACK
6
CONTINUOUS
10
3.02253
20
-5.89423
11
3.01742
21
-5.88125
0
LINE
8
BLACK
6
CONTINUOUS
10
3.01742
20
-5.88125
11
3.01374
21
-5.8678
0
LINE
8
BLACK
6
CONTINUOUS
10
3.01374
20
-5.8678
11
3.01153
21
-5.85403
0
LINE
8
BLACK
6
CONTINUOUS
10
3.01153
20
-5.85403
11
3.01083
21
-5.8401
0
LINE
8
BLACK
6
CONTINUOUS
10
3.01083
20
-5.8401
11
3.0109
21
-5.83878
0
LINE
8
BLACK
6
CONTINUOUS
10
3.0109
20
-5.83878
11
3.01163
21
-5.82618
0
LINE
8
BLACK
6
CONTINUOUS
10
3.01163
20
-5.82618
11
3.01393
21
-5.81242
0
LINE
8
BLACK
6
CONTINUOUS
10
3.01537
20
-5.86699
11
3.0191
21
-5.88069
0
LINE
8
BLACK
6
CONTINUOUS
10
3.0191
20
-5.88069
11
3.02432
21
-5.89389
0
LINE
8
BLACK
6
CONTINUOUS
10
3.02432
20
-5.89389
11
3.03099
21
-5.90643
0
LINE
8
BLACK
6
CONTINUOUS
10
3.03099
20
-5.90643
11
3.03901
21
-5.91814
0
LINE
8
BLACK
6
CONTINUOUS
10
3.03901
20
-5.91814
11
3.04829
21
-5.92889
0
LINE
8
BLACK
6
CONTINUOUS
10
3.04829
20
-5.92889
11
3.0587
21
-5.93854
0
LINE
8
BLACK
6
CONTINUOUS
10
3.0587
20
-5.93854
11
3.07013
21
-5.94696
0
LINE
8
BLACK
6
CONTINUOUS
10
3.07013
20
-5.94696
11
3.08243
21
-5.95406
0
LINE
8
BLACK
6
CONTINUOUS
10
3.08243
20
-5.95406
11
3.09544
21
-5.95974
0
LINE
8
BLACK
6
CONTINUOUS
10
3.09544
20
-5.95974
11
3.109
21
-5.96394
0
LINE
8
BLACK
6
CONTINUOUS
10
3.109
20
-5.96394
11
3.12294
21
-5.9666
0
LINE
8
BLACK
6
CONTINUOUS
10
3.12294
20
-5.9666
11
3.1371
21
-5.96769
0
LINE
8
BLACK
6
CONTINUOUS
10
3.1371
20
-5.96769
11
3.15129
21
-5.9672
0
LINE
8
BLACK
6
CONTINUOUS
10
3.15129
20
-5.9672
11
3.16533
21
-5.96512
0
LINE
8
BLACK
6
CONTINUOUS
10
3.16533
20
-5.96512
11
3.17906
21
-5.9615
0
LINE
8
BLACK
6
CONTINUOUS
10
3.17906
20
-5.9615
11
3.1923
21
-5.95636
0
LINE
8
BLACK
6
CONTINUOUS
10
3.1923
20
-5.95636
11
3.20488
21
-5.94978
0
LINE
8
BLACK
6
CONTINUOUS
10
3.20488
20
-5.94978
11
3.21665
21
-5.94184
0
LINE
8
BLACK
6
CONTINUOUS
10
3.21665
20
-5.94184
11
3.22746
21
-5.93264
0
LINE
8
BLACK
6
CONTINUOUS
10
3.22746
20
-5.93264
11
3.23718
21
-5.92229
0
LINE
8
BLACK
6
CONTINUOUS
10
3.23718
20
-5.92229
11
3.24569
21
-5.91093
0
LINE
8
BLACK
6
CONTINUOUS
10
3.24569
20
-5.91093
11
3.25287
21
-5.89868
0
LINE
8
BLACK
6
CONTINUOUS
10
3.25287
20
-5.89868
11
3.25864
21
-5.88571
0
LINE
8
BLACK
6
CONTINUOUS
10
3.25864
20
-5.88571
11
3.26294
21
-5.87218
0
LINE
8
BLACK
6
CONTINUOUS
10
3.26294
20
-5.87218
11
3.26569
21
-5.85825
0
LINE
8
BLACK
6
CONTINUOUS
10
3.26569
20
-5.85825
11
3.26688
21
-5.8441
0
LINE
8
BLACK
6
CONTINUOUS
10
3.26688
20
-5.8441
11
3.26693
21
-5.84055
0
LINE
8
BLACK
6
CONTINUOUS
10
3.26693
20
-5.84055
11
3.26614
21
-5.82638
0
LINE
8
BLACK
6
CONTINUOUS
10
3.26614
20
-5.82638
11
3.26377
21
-5.81238
0
LINE
8
BLACK
6
CONTINUOUS
10
3.26377
20
-5.81238
11
3.25986
21
-5.79873
0
LINE
8
BLACK
6
CONTINUOUS
10
3.25986
20
-5.79873
11
3.25445
21
-5.7856
0
LINE
8
BLACK
6
CONTINUOUS
10
3.25445
20
-5.7856
11
3.24761
21
-5.77316
0
LINE
8
BLACK
6
CONTINUOUS
10
3.24761
20
-5.77316
11
3.23942
21
-5.76156
0
LINE
8
BLACK
6
CONTINUOUS
10
3.23942
20
-5.76156
11
3.23
21
-5.75094
0
LINE
8
BLACK
6
CONTINUOUS
10
3.23
20
-5.75094
11
3.21945
21
-5.74144
0
LINE
8
BLACK
6
CONTINUOUS
10
3.21945
20
-5.74144
11
3.2079
21
-5.73318
0
LINE
8
BLACK
6
CONTINUOUS
10
3.2079
20
-5.73318
11
3.19551
21
-5.72625
0
LINE
8
BLACK
6
CONTINUOUS
10
3.19551
20
-5.72625
11
3.18242
21
-5.72075
0
LINE
8
BLACK
6
CONTINUOUS
10
3.18242
20
-5.72075
11
3.1688
21
-5.71674
0
LINE
8
BLACK
6
CONTINUOUS
10
3.1688
20
-5.71674
11
3.15482
21
-5.71428
0
LINE
8
BLACK
6
CONTINUOUS
10
3.15482
20
-5.71428
11
3.14065
21
-5.71339
0
LINE
8
BLACK
6
CONTINUOUS
10
3.14065
20
-5.71339
11
3.12647
21
-5.71408
0
LINE
8
BLACK
6
CONTINUOUS
10
3.12647
20
-5.71408
11
3.11246
21
-5.71635
0
LINE
8
BLACK
6
CONTINUOUS
10
3.11246
20
-5.71635
11
3.09878
21
-5.72017
0
LINE
8
BLACK
6
CONTINUOUS
10
3.09878
20
-5.72017
11
3.08562
21
-5.72549
0
LINE
8
BLACK
6
CONTINUOUS
10
3.08562
20
-5.72549
11
3.07313
21
-5.73224
0
LINE
8
BLACK
6
CONTINUOUS
10
3.07313
20
-5.73224
11
3.06147
21
-5.74034
0
LINE
8
BLACK
6
CONTINUOUS
10
3.06147
20
-5.74034
11
3.05079
21
-5.74969
0
LINE
8
BLACK
6
CONTINUOUS
10
3.05079
20
-5.74969
11
3.04122
21
-5.76018
0
LINE
8
BLACK
6
CONTINUOUS
10
3.04122
20
-5.76018
11
3.03287
21
-5.77166
0
LINE
8
BLACK
6
CONTINUOUS
10
3.03287
20
-5.77166
11
3.02586
21
-5.78401
0
LINE
8
BLACK
6
CONTINUOUS
10
3.02586
20
-5.78401
11
3.02026
21
-5.79706
0
LINE
8
BLACK
6
CONTINUOUS
10
3.02026
20
-5.79706
11
3.01616
21
-5.81065
0
LINE
8
BLACK
6
CONTINUOUS
10
3.01616
20
-5.81065
11
3.0136
21
-5.82461
0
LINE
8
BLACK
6
CONTINUOUS
10
3.0136
20
-5.82461
11
3.01261
21
-5.83878
0
LINE
8
BLACK
6
CONTINUOUS
10
3.01261
20
-5.83878
11
3.0132
21
-5.85296
0
LINE
8
BLACK
6
CONTINUOUS
10
3.0132
20
-5.85296
11
3.01537
21
-5.86699
0
LINE
8
BLACK
6
CONTINUOUS
10
3.9897
20
-2.15566
11
3.99269
21
-2.13043
0
LINE
8
BLACK
6
CONTINUOUS
10
3.99269
20
-2.13043
11
3.99712
21
-2.10542
0
LINE
8
BLACK
6
CONTINUOUS
10
3.99712
20
-2.10542
11
4.00299
21
-2.0807
0
LINE
8
BLACK
6
CONTINUOUS
10
4.00299
20
-2.0807
11
4.01027
21
-2.05635
0
LINE
8
BLACK
6
CONTINUOUS
10
4.01027
20
-2.05635
11
4.01893
21
-2.03247
0
LINE
8
BLACK
6
CONTINUOUS
10
4.01893
20
-2.03247
11
4.02896
21
-2.00913
0
LINE
8
BLACK
6
CONTINUOUS
10
4.02896
20
-2.00913
11
4.04032
21
-1.9864
0
LINE
8
BLACK
6
CONTINUOUS
10
4.04032
20
-1.9864
11
4.05297
21
-1.96437
0
LINE
8
BLACK
6
CONTINUOUS
10
4.05297
20
-1.96437
11
4.06686
21
-1.94309
0
LINE
8
BLACK
6
CONTINUOUS
10
4.06686
20
-1.94309
11
4.08195
21
-1.92266
0
LINE
8
BLACK
6
CONTINUOUS
10
4.08195
20
-1.92266
11
4.0982
21
-1.90312
0
LINE
8
BLACK
6
CONTINUOUS
10
4.0982
20
-1.90312
11
4.11554
21
-1.88456
0
LINE
8
BLACK
6
CONTINUOUS
10
4.11554
20
-1.88456
11
4.13393
21
-1.86702
0
LINE
8
BLACK
6
CONTINUOUS
10
4.13393
20
-1.86702
11
4.15329
21
-1.85057
0
LINE
8
BLACK
6
CONTINUOUS
10
4.15329
20
-1.85057
11
4.17357
21
-1.83526
0
LINE
8
BLACK
6
CONTINUOUS
10
4.17357
20
-1.83526
11
4.19469
21
-1.82115
0
LINE
8
BLACK
6
CONTINUOUS
10
4.19469
20
-1.82115
11
4.21659
21
-1.80827
0
LINE
8
BLACK
6
CONTINUOUS
10
4.21659
20
-1.80827
11
4.2392
21
-1.79668
0
LINE
8
BLACK
6
CONTINUOUS
10
4.2392
20
-1.79668
11
4.26244
21
-1.78641
0
LINE
8
BLACK
6
CONTINUOUS
10
4.26244
20
-1.78641
11
4.28623
21
-1.77749
0
LINE
8
BLACK
6
CONTINUOUS
10
4.28623
20
-1.77749
11
4.31049
21
-1.76995
0
LINE
8
BLACK
6
CONTINUOUS
10
4.31049
20
-1.76995
11
4.33515
21
-1.76383
0
LINE
8
BLACK
6
CONTINUOUS
10
4.33515
20
-1.76383
11
4.36012
21
-1.75913
0
LINE
8
BLACK
6
CONTINUOUS
10
4.36012
20
-1.75913
11
4.38532
21
-1.75588
0
LINE
8
BLACK
6
CONTINUOUS
10
4.38532
20
-1.75588
11
4.41066
21
-1.75409
0
LINE
8
BLACK
6
CONTINUOUS
10
4.41066
20
-1.75409
11
4.43606
21
-1.75376
0
LINE
8
BLACK
6
CONTINUOUS
10
4.43606
20
-1.75376
11
4.46145
21
-1.75489
0
LINE
8
BLACK
6
CONTINUOUS
10
4.46145
20
-1.75489
11
4.48672
21
-1.75748
0
LINE
8
BLACK
6
CONTINUOUS
10
4.48672
20
-1.75748
11
4.5118
21
-1.76152
0
LINE
8
BLACK
6
CONTINUOUS
10
4.5118
20
-1.76152
11
4.53661
21
-1.76699
0
LINE
8
BLACK
6
CONTINUOUS
10
4.53661
20
-1.76699
11
4.56107
21
-1.77389
0
LINE
8
BLACK
6
CONTINUOUS
10
4.56107
20
-1.77389
11
4.58508
21
-1.78218
0
LINE
8
BLACK
6
CONTINUOUS
10
4.58508
20
-1.78218
11
4.60858
21
-1.79184
0
LINE
8
BLACK
6
CONTINUOUS
10
4.60858
20
-1.79184
11
4.63148
21
-1.80284
0
LINE
8
BLACK
6
CONTINUOUS
10
4.63148
20
-1.80284
11
4.65371
21
-1.81514
0
LINE
8
BLACK
6
CONTINUOUS
10
4.65371
20
-1.81514
11
4.6752
21
-1.8287
0
LINE
8
BLACK
6
CONTINUOUS
10
4.6752
20
-1.8287
11
4.69587
21
-1.84347
0
LINE
8
BLACK
6
CONTINUOUS
10
4.69587
20
-1.84347
11
4.71566
21
-1.85941
0
LINE
8
BLACK
6
CONTINUOUS
10
4.71566
20
-1.85941
11
4.73449
21
-1.87645
0
LINE
8
BLACK
6
CONTINUOUS
10
4.73449
20
-1.87645
11
4.75232
21
-1.89456
0
LINE
8
BLACK
6
CONTINUOUS
10
4.75232
20
-1.89456
11
4.76907
21
-1.91366
0
LINE
8
BLACK
6
CONTINUOUS
10
4.76907
20
-1.91366
11
4.78469
21
-1.9337
0
LINE
8
BLACK
6
CONTINUOUS
10
4.78469
20
-1.9337
11
4.79914
21
-1.9546
0
LINE
8
BLACK
6
CONTINUOUS
10
4.79914
20
-1.9546
11
4.81236
21
-1.97629
0
LINE
8
BLACK
6
CONTINUOUS
10
4.81236
20
-1.97629
11
4.8243
21
-1.99872
0
LINE
8
BLACK
6
CONTINUOUS
10
4.8243
20
-1.99872
11
4.83494
21
-2.02179
0
LINE
8
BLACK
6
CONTINUOUS
10
4.83494
20
-2.02179
11
4.84423
21
-2.04544
0
LINE
8
BLACK
6
CONTINUOUS
10
4.84423
20
-2.04544
11
4.85215
21
-2.06958
0
LINE
8
BLACK
6
CONTINUOUS
10
4.85215
20
-2.06958
11
4.85866
21
-2.09414
0
LINE
8
BLACK
6
CONTINUOUS
10
4.85866
20
-2.09414
11
4.86375
21
-2.11903
0
LINE
8
BLACK
6
CONTINUOUS
10
4.86375
20
-2.11903
11
4.86739
21
-2.14417
0
LINE
8
BLACK
6
CONTINUOUS
10
4.86739
20
-2.14417
11
4.86958
21
-2.16949
0
LINE
8
BLACK
6
CONTINUOUS
10
4.86958
20
-2.16949
11
4.87031
21
-2.19488
0
LINE
8
BLACK
6
CONTINUOUS
10
4.87031
20
-2.19488
11
4.87031
21
-2.19719
0
LINE
8
BLACK
6
CONTINUOUS
10
4.87031
20
-2.19719
11
4.86944
21
-2.22258
0
LINE
8
BLACK
6
CONTINUOUS
10
4.86944
20
-2.22258
11
4.86712
21
-2.24788
0
LINE
8
BLACK
6
CONTINUOUS
10
4.86712
20
-2.24788
11
4.86334
21
-2.27301
0
LINE
8
BLACK
6
CONTINUOUS
10
4.86334
20
-2.27301
11
4.85813
21
-2.29787
0
LINE
8
BLACK
6
CONTINUOUS
10
4.85813
20
-2.29787
11
4.85149
21
-2.3224
0
LINE
8
BLACK
6
CONTINUOUS
10
4.85149
20
-2.3224
11
4.84344
21
-2.3465
0
LINE
8
BLACK
6
CONTINUOUS
10
4.84344
20
-2.3465
11
4.83403
21
-2.3701
0
LINE
8
BLACK
6
CONTINUOUS
10
4.83403
20
-2.3701
11
4.82327
21
-2.39311
0
LINE
8
BLACK
6
CONTINUOUS
10
4.82327
20
-2.39311
11
4.81121
21
-2.41547
0
LINE
8
BLACK
6
CONTINUOUS
10
4.81121
20
-2.41547
11
4.79788
21
-2.4371
0
LINE
8
BLACK
6
CONTINUOUS
10
4.79788
20
-2.4371
11
4.78332
21
-2.45793
0
LINE
8
BLACK
6
CONTINUOUS
10
4.78332
20
-2.45793
11
4.76759
21
-2.47788
0
LINE
8
BLACK
6
CONTINUOUS
10
4.76759
20
-2.47788
11
4.75074
21
-2.49689
0
LINE
8
BLACK
6
CONTINUOUS
10
4.75074
20
-2.49689
11
4.73282
21
-2.5149
0
LINE
8
BLACK
6
CONTINUOUS
10
4.73282
20
-2.5149
11
4.7139
21
-2.53185
0
LINE
8
BLACK
6
CONTINUOUS
10
4.7139
20
-2.53185
11
4.69403
21
-2.54769
0
LINE
8
BLACK
6
CONTINUOUS
10
4.69403
20
-2.54769
11
4.67328
21
-2.56235
0
LINE
8
BLACK
6
CONTINUOUS
10
4.67328
20
-2.56235
11
4.65172
21
-2.5758
0
LINE
8
BLACK
6
CONTINUOUS
10
4.65172
20
-2.5758
11
4.62943
21
-2.58798
0
LINE
8
BLACK
6
CONTINUOUS
10
4.62943
20
-2.58798
11
4.60647
21
-2.59885
0
LINE
8
BLACK
6
CONTINUOUS
10
4.60647
20
-2.59885
11
4.58292
21
-2.60839
0
LINE
8
BLACK
6
CONTINUOUS
10
4.58292
20
-2.60839
11
4.55886
21
-2.61656
0
LINE
8
BLACK
6
CONTINUOUS
10
4.55886
20
-2.61656
11
4.53437
21
-2.62333
0
LINE
8
BLACK
6
CONTINUOUS
10
4.53437
20
-2.62333
11
4.50953
21
-2.62868
0
LINE
8
BLACK
6
CONTINUOUS
10
4.50953
20
-2.62868
11
4.48443
21
-2.63258
0
LINE
8
BLACK
6
CONTINUOUS
10
4.48443
20
-2.63258
11
4.45914
21
-2.63504
0
LINE
8
BLACK
6
CONTINUOUS
10
4.45914
20
-2.63504
11
4.43375
21
-2.63604
0
LINE
8
BLACK
6
CONTINUOUS
10
4.43375
20
-2.63604
11
4.40835
21
-2.63557
0
LINE
8
BLACK
6
CONTINUOUS
10
4.40835
20
-2.63557
11
4.38302
21
-2.63365
0
LINE
8
BLACK
6
CONTINUOUS
10
4.38302
20
-2.63365
11
4.35784
21
-2.63026
0
LINE
8
BLACK
6
CONTINUOUS
10
4.35784
20
-2.63026
11
4.33289
21
-2.62544
0
LINE
8
BLACK
6
CONTINUOUS
10
4.33289
20
-2.62544
11
4.30827
21
-2.61918
0
LINE
8
BLACK
6
CONTINUOUS
10
4.30827
20
-2.61918
11
4.28404
21
-2.61152
0
LINE
8
BLACK
6
CONTINUOUS
10
4.28404
20
-2.61152
11
4.2603
21
-2.60248
0
LINE
8
BLACK
6
CONTINUOUS
10
4.2603
20
-2.60248
11
4.23712
21
-2.59209
0
LINE
8
BLACK
6
CONTINUOUS
10
4.23712
20
-2.59209
11
4.21457
21
-2.58037
0
LINE
8
BLACK
6
CONTINUOUS
10
4.21457
20
-2.58037
11
4.19274
21
-2.56738
0
LINE
8
BLACK
6
CONTINUOUS
10
4.19274
20
-2.56738
11
4.17169
21
-2.55316
0
LINE
8
BLACK
6
CONTINUOUS
10
4.17169
20
-2.55316
11
4.15149
21
-2.53774
0
LINE
8
BLACK
6
CONTINUOUS
10
4.15149
20
-2.53774
11
4.13221
21
-2.52119
0
LINE
8
BLACK
6
CONTINUOUS
10
4.13221
20
-2.52119
11
4.11392
21
-2.50356
0
LINE
8
BLACK
6
CONTINUOUS
10
4.11392
20
-2.50356
11
4.09668
21
-2.4849
0
LINE
8
BLACK
6
CONTINUOUS
10
4.09668
20
-2.4849
11
4.08053
21
-2.46528
0
LINE
8
BLACK
6
CONTINUOUS
10
4.08053
20
-2.46528
11
4.06554
21
-2.44477
0
LINE
8
BLACK
6
CONTINUOUS
10
4.06554
20
-2.44477
11
4.05176
21
-2.42343
0
LINE
8
BLACK
6
CONTINUOUS
10
4.05176
20
-2.42343
11
4.03923
21
-2.40132
0
LINE
8
BLACK
6
CONTINUOUS
10
4.03923
20
-2.40132
11
4.028
21
-2.37854
0
LINE
8
BLACK
6
CONTINUOUS
10
4.028
20
-2.37854
11
4.01809
21
-2.35514
0
LINE
8
BLACK
6
CONTINUOUS
10
4.01809
20
-2.35514
11
4.00955
21
-2.33121
0
LINE
8
BLACK
6
CONTINUOUS
10
4.00955
20
-2.33121
11
4.00239
21
-2.30684
0
LINE
8
BLACK
6
CONTINUOUS
10
4.00239
20
-2.30684
11
3.99666
21
-2.28208
0
LINE
8
BLACK
6
CONTINUOUS
10
3.99666
20
-2.28208
11
3.99235
21
-2.25704
0
LINE
8
BLACK
6
CONTINUOUS
10
3.99235
20
-2.25704
11
3.9895
21
-2.2318
0
LINE
8
BLACK
6
CONTINUOUS
10
3.9895
20
-2.2318
11
3.9881
21
-2.20643
0
LINE
8
BLACK
6
CONTINUOUS
10
3.9881
20
-2.20643
11
3.98813
21
-2.1964
0
LINE
8
BLACK
6
CONTINUOUS
10
3.98813
20
-2.1964
11
3.98817
21
-2.18102
0
LINE
8
BLACK
6
CONTINUOUS
10
3.98817
20
-2.18102
11
3.9897
21
-2.15566
0
LINE
8
BLACK
6
CONTINUOUS
10
3.99886
20
-2.24771
11
4.00275
21
-2.27314
0
LINE
8
BLACK
6
CONTINUOUS
10
4.00275
20
-2.27314
11
4.00814
21
-2.29829
0
LINE
8
BLACK
6
CONTINUOUS
10
4.00814
20
-2.29829
11
4.01502
21
-2.32307
0
LINE
8
BLACK
6
CONTINUOUS
10
4.01502
20
-2.32307
11
4.02335
21
-2.34741
0
LINE
8
BLACK
6
CONTINUOUS
10
4.02335
20
-2.34741
11
4.03311
21
-2.3712
0
LINE
8
BLACK
6
CONTINUOUS
10
4.03311
20
-2.3712
11
4.04426
21
-2.39438
0
LINE
8
BLACK
6
CONTINUOUS
10
4.04426
20
-2.39438
11
4.05677
21
-2.41685
0
LINE
8
BLACK
6
CONTINUOUS
10
4.05677
20
-2.41685
11
4.07059
21
-2.43855
0
LINE
8
BLACK
6
CONTINUOUS
10
4.07059
20
-2.43855
11
4.08567
21
-2.45938
0
LINE
8
BLACK
6
CONTINUOUS
10
4.08567
20
-2.45938
11
4.10196
21
-2.47929
0
LINE
8
BLACK
6
CONTINUOUS
10
4.10196
20
-2.47929
11
4.11941
21
-2.49819
0
LINE
8
BLACK
6
CONTINUOUS
10
4.11941
20
-2.49819
11
4.13794
21
-2.51602
0
LINE
8
BLACK
6
CONTINUOUS
10
4.13794
20
-2.51602
11
4.1575
21
-2.53273
0
LINE
8
BLACK
6
CONTINUOUS
10
4.1575
20
-2.53273
11
4.17801
21
-2.54824
0
LINE
8
BLACK
6
CONTINUOUS
10
4.17801
20
-2.54824
11
4.19941
21
-2.56251
0
LINE
8
BLACK
6
CONTINUOUS
10
4.19941
20
-2.56251
11
4.22162
21
-2.57549
0
LINE
8
BLACK
6
CONTINUOUS
10
4.22162
20
-2.57549
11
4.24456
21
-2.58713
0
LINE
8
BLACK
6
CONTINUOUS
10
4.24456
20
-2.58713
11
4.26814
21
-2.59739
0
LINE
8
BLACK
6
CONTINUOUS
10
4.26814
20
-2.59739
11
4.2923
21
-2.60622
0
LINE
8
BLACK
6
CONTINUOUS
10
4.2923
20
-2.60622
11
4.31693
21
-2.61362
0
LINE
8
BLACK
6
CONTINUOUS
10
4.31693
20
-2.61362
11
4.34197
21
-2.61953
0
LINE
8
BLACK
6
CONTINUOUS
10
4.34197
20
-2.61953
11
4.3673
21
-2.62395
0
LINE
8
BLACK
6
CONTINUOUS
10
4.3673
20
-2.62395
11
4.39286
21
-2.62687
0
LINE
8
BLACK
6
CONTINUOUS
10
4.39286
20
-2.62687
11
4.41854
21
-2.62826
0
LINE
8
BLACK
6
CONTINUOUS
10
4.41854
20
-2.62826
11
4.44426
21
-2.62812
0
LINE
8
BLACK
6
CONTINUOUS
10
4.44426
20
-2.62812
11
4.46993
21
-2.62646
0
LINE
8
BLACK
6
CONTINUOUS
10
4.46993
20
-2.62646
11
4.49545
21
-2.62328
0
LINE
8
BLACK
6
CONTINUOUS
10
4.49545
20
-2.62328
11
4.52074
21
-2.6186
0
LINE
8
BLACK
6
CONTINUOUS
10
4.52074
20
-2.6186
11
4.54571
21
-2.61242
0
LINE
8
BLACK
6
CONTINUOUS
10
4.54571
20
-2.61242
11
4.57027
21
-2.60477
0
LINE
8
BLACK
6
CONTINUOUS
10
4.57027
20
-2.60477
11
4.59433
21
-2.59568
0
LINE
8
BLACK
6
CONTINUOUS
10
4.59433
20
-2.59568
11
4.61781
21
-2.58517
0
LINE
8
BLACK
6
CONTINUOUS
10
4.61781
20
-2.58517
11
4.64062
21
-2.5733
0
LINE
8
BLACK
6
CONTINUOUS
10
4.64062
20
-2.5733
11
4.66269
21
-2.56009
0
LINE
8
BLACK
6
CONTINUOUS
10
4.66269
20
-2.56009
11
4.68394
21
-2.54559
0
LINE
8
BLACK
6
CONTINUOUS
10
4.68394
20
-2.54559
11
4.70429
21
-2.52987
0
LINE
8
BLACK
6
CONTINUOUS
10
4.70429
20
-2.52987
11
4.72367
21
-2.51296
0
LINE
8
BLACK
6
CONTINUOUS
10
4.72367
20
-2.51296
11
4.74202
21
-2.49493
0
LINE
8
BLACK
6
CONTINUOUS
10
4.74202
20
-2.49493
11
4.75926
21
-2.47585
0
LINE
8
BLACK
6
CONTINUOUS
10
4.75926
20
-2.47585
11
4.77535
21
-2.45577
0
LINE
8
BLACK
6
CONTINUOUS
10
4.77535
20
-2.45577
11
4.79021
21
-2.43478
0
LINE
8
BLACK
6
CONTINUOUS
10
4.79021
20
-2.43478
11
4.8038
21
-2.41294
0
LINE
8
BLACK
6
CONTINUOUS
10
4.8038
20
-2.41294
11
4.81607
21
-2.39034
0
LINE
8
BLACK
6
CONTINUOUS
10
4.81607
20
-2.39034
11
4.82698
21
-2.36705
0
LINE
8
BLACK
6
CONTINUOUS
10
4.82698
20
-2.36705
11
4.8365
21
-2.34315
0
LINE
8
BLACK
6
CONTINUOUS
10
4.8365
20
-2.34315
11
4.84457
21
-2.31873
0
LINE
8
BLACK
6
CONTINUOUS
10
4.84457
20
-2.31873
11
4.85119
21
-2.29387
0
LINE
8
BLACK
6
CONTINUOUS
10
4.85119
20
-2.29387
11
4.85631
21
-2.26867
0
LINE
8
BLACK
6
CONTINUOUS
10
4.85631
20
-2.26867
11
4.85994
21
-2.2432
0
LINE
8
BLACK
6
CONTINUOUS
10
4.85994
20
-2.2432
11
4.86204
21
-2.21757
0
LINE
8
BLACK
6
CONTINUOUS
10
4.86204
20
-2.21757
11
4.86264
21
-2.19488
0
LINE
8
BLACK
6
CONTINUOUS
10
4.86264
20
-2.19488
11
4.86188
21
-2.16917
0
LINE
8
BLACK
6
CONTINUOUS
10
4.86188
20
-2.16917
11
4.85959
21
-2.14355
0
LINE
8
BLACK
6
CONTINUOUS
10
4.85959
20
-2.14355
11
4.85579
21
-2.11811
0
LINE
8
BLACK
6
CONTINUOUS
10
4.85579
20
-2.11811
11
4.85048
21
-2.09295
0
LINE
8
BLACK
6
CONTINUOUS
10
4.85048
20
-2.09295
11
4.8437
21
-2.06814
0
LINE
8
BLACK
6
CONTINUOUS
10
4.8437
20
-2.06814
11
4.83545
21
-2.04377
0
LINE
8
BLACK
6
CONTINUOUS
10
4.83545
20
-2.04377
11
4.82577
21
-2.01994
0
LINE
8
BLACK
6
CONTINUOUS
10
4.82577
20
-2.01994
11
4.8147
21
-1.99673
0
LINE
8
BLACK
6
CONTINUOUS
10
4.8147
20
-1.99673
11
4.80227
21
-1.97421
0
LINE
8
BLACK
6
CONTINUOUS
10
4.80227
20
-1.97421
11
4.78853
21
-1.95247
0
LINE
8
BLACK
6
CONTINUOUS
10
4.78853
20
-1.95247
11
4.77352
21
-1.93158
0
LINE
8
BLACK
6
CONTINUOUS
10
4.77352
20
-1.93158
11
4.75729
21
-1.91162
0
LINE
8
BLACK
6
CONTINUOUS
10
4.75729
20
-1.91162
11
4.73992
21
-1.89266
0
LINE
8
BLACK
6
CONTINUOUS
10
4.73992
20
-1.89266
11
4.72145
21
-1.87476
0
LINE
8
BLACK
6
CONTINUOUS
10
4.72145
20
-1.87476
11
4.70195
21
-1.85799
0
LINE
8
BLACK
6
CONTINUOUS
10
4.70195
20
-1.85799
11
4.68149
21
-1.8424
0
LINE
8
BLACK
6
CONTINUOUS
10
4.68149
20
-1.8424
11
4.66014
21
-1.82805
0
LINE
8
BLACK
6
CONTINUOUS
10
4.66014
20
-1.82805
11
4.63798
21
-1.815
0
LINE
8
BLACK
6
CONTINUOUS
10
4.63798
20
-1.815
11
4.61508
21
-1.80328
0
LINE
8
BLACK
6
CONTINUOUS
10
4.61508
20
-1.80328
11
4.59153
21
-1.79294
0
LINE
8
BLACK
6
CONTINUOUS
10
4.59153
20
-1.79294
11
4.5674
21
-1.78402
0
LINE
8
BLACK
6
CONTINUOUS
10
4.5674
20
-1.78402
11
4.54279
21
-1.77654
0
LINE
8
BLACK
6
CONTINUOUS
10
4.54279
20
-1.77654
11
4.51778
21
-1.77054
0
LINE
8
BLACK
6
CONTINUOUS
10
4.51778
20
-1.77054
11
4.49246
21
-1.76603
0
LINE
8
BLACK
6
CONTINUOUS
10
4.49246
20
-1.76603
11
4.46692
21
-1.76303
0
LINE
8
BLACK
6
CONTINUOUS
10
4.46692
20
-1.76303
11
4.44124
21
-1.76155
0
LINE
8
BLACK
6
CONTINUOUS
10
4.44124
20
-1.76155
11
4.41552
21
-1.76159
0
LINE
8
BLACK
6
CONTINUOUS
10
4.41552
20
-1.76159
11
4.38984
21
-1.76316
0
LINE
8
BLACK
6
CONTINUOUS
10
4.38984
20
-1.76316
11
4.36431
21
-1.76625
0
LINE
8
BLACK
6
CONTINUOUS
10
4.36431
20
-1.76625
11
4.339
21
-1.77085
0
LINE
8
BLACK
6
CONTINUOUS
10
4.339
20
-1.77085
11
4.31401
21
-1.77694
0
LINE
8
BLACK
6
CONTINUOUS
10
4.31401
20
-1.77694
11
4.28943
21
-1.7845
0
LINE
8
BLACK
6
CONTINUOUS
10
4.28943
20
-1.7845
11
4.26534
21
-1.79351
0
LINE
8
BLACK
6
CONTINUOUS
10
4.26534
20
-1.79351
11
4.24182
21
-1.80393
0
LINE
8
BLACK
6
CONTINUOUS
10
4.24182
20
-1.80393
11
4.21897
21
-1.81573
0
LINE
8
BLACK
6
CONTINUOUS
10
4.21897
20
-1.81573
11
4.19685
21
-1.82886
0
LINE
8
BLACK
6
CONTINUOUS
10
4.19685
20
-1.82886
11
4.17555
21
-1.84328
0
LINE
8
BLACK
6
CONTINUOUS
10
4.17555
20
-1.84328
11
4.15515
21
-1.85894
0
LINE
8
BLACK
6
CONTINUOUS
10
4.15515
20
-1.85894
11
4.1357
21
-1.87578
0
LINE
8
BLACK
6
CONTINUOUS
10
4.1357
20
-1.87578
11
4.1173
21
-1.89374
0
LINE
8
BLACK
6
CONTINUOUS
10
4.1173
20
-1.89374
11
4.09999
21
-1.91277
0
LINE
8
BLACK
6
CONTINUOUS
10
4.09999
20
-1.91277
11
4.08383
21
-1.93279
0
LINE
8
BLACK
6
CONTINUOUS
10
4.08383
20
-1.93279
11
4.0689
21
-1.95373
0
LINE
8
BLACK
6
CONTINUOUS
10
4.0689
20
-1.95373
11
4.05523
21
-1.97551
0
LINE
8
BLACK
6
CONTINUOUS
10
4.05523
20
-1.97551
11
4.04288
21
-1.99807
0
LINE
8
BLACK
6
CONTINUOUS
10
4.04288
20
-1.99807
11
4.03189
21
-2.02133
0
LINE
8
BLACK
6
CONTINUOUS
10
4.03189
20
-2.02133
11
4.02229
21
-2.04519
0
LINE
8
BLACK
6
CONTINUOUS
10
4.02229
20
-2.04519
11
4.01413
21
-2.06959
0
LINE
8
BLACK
6
CONTINUOUS
10
4.01413
20
-2.06959
11
4.00743
21
-2.09442
0
LINE
8
BLACK
6
CONTINUOUS
10
4.00743
20
-2.09442
11
4.00221
21
-2.1196
0
LINE
8
BLACK
6
CONTINUOUS
10
4.00221
20
-2.1196
11
3.9985
21
-2.14506
0
LINE
8
BLACK
6
CONTINUOUS
10
3.9985
20
-2.14506
11
3.9963
21
-2.17068
0
LINE
8
BLACK
6
CONTINUOUS
10
3.9963
20
-2.17068
11
3.99563
21
-2.1964
0
LINE
8
BLACK
6
CONTINUOUS
10
3.99563
20
-2.1964
11
3.99648
21
-2.2221
0
LINE
8
BLACK
6
CONTINUOUS
10
3.99648
20
-2.2221
11
3.99886
21
-2.24771
0
LINE
8
BLACK
6
CONTINUOUS
10
3.00545
20
-2.15566
11
3.00843
21
-2.13043
0
LINE
8
BLACK
6
CONTINUOUS
10
3.00843
20
-2.13043
11
3.01287
21
-2.10542
0
LINE
8
BLACK
6
CONTINUOUS
10
3.01287
20
-2.10542
11
3.01873
21
-2.0807
0
LINE
8
BLACK
6
CONTINUOUS
10
3.01873
20
-2.0807
11
3.02601
21
-2.05635
0
LINE
8
BLACK
6
CONTINUOUS
10
3.02601
20
-2.05635
11
3.03468
21
-2.03247
0
LINE
8
BLACK
6
CONTINUOUS
10
3.03468
20
-2.03247
11
3.04471
21
-2.00913
0
LINE
8
BLACK
6
CONTINUOUS
10
3.04471
20
-2.00913
11
3.05607
21
-1.9864
0
LINE
8
BLACK
6
CONTINUOUS
10
3.05607
20
-1.9864
11
3.06871
21
-1.96437
0
LINE
8
BLACK
6
CONTINUOUS
10
3.06871
20
-1.96437
11
3.08261
21
-1.94309
0
LINE
8
BLACK
6
CONTINUOUS
10
3.08261
20
-1.94309
11
3.0977
21
-1.92266
0
LINE
8
BLACK
6
CONTINUOUS
10
3.0977
20
-1.92266
11
3.11395
21
-1.90312
0
LINE
8
BLACK
6
CONTINUOUS
10
3.11395
20
-1.90312
11
3.13129
21
-1.88456
0
LINE
8
BLACK
6
CONTINUOUS
10
3.13129
20
-1.88456
11
3.14967
21
-1.86702
0
LINE
8
BLACK
6
CONTINUOUS
10
3.14967
20
-1.86702
11
3.16904
21
-1.85057
0
LINE
8
BLACK
6
CONTINUOUS
10
3.16904
20
-1.85057
11
3.18931
21
-1.83526
0
LINE
8
BLACK
6
CONTINUOUS
10
3.18931
20
-1.83526
11
3.21044
21
-1.82115
0
LINE
8
BLACK
6
CONTINUOUS
10
3.21044
20
-1.82115
11
3.23234
21
-1.80827
0
LINE
8
BLACK
6
CONTINUOUS
10
3.23234
20
-1.80827
11
3.25495
21
-1.79668
0
LINE
8
BLACK
6
CONTINUOUS
10
3.25495
20
-1.79668
11
3.27819
21
-1.78641
0
LINE
8
BLACK
6
CONTINUOUS
10
3.27819
20
-1.78641
11
3.30198
21
-1.77749
0
LINE
8
BLACK
6
CONTINUOUS
10
3.30198
20
-1.77749
11
3.32624
21
-1.76995
0
LINE
8
BLACK
6
CONTINUOUS
10
3.32624
20
-1.76995
11
3.3509
21
-1.76383
0
LINE
8
BLACK
6
CONTINUOUS
10
3.3509
20
-1.76383
11
3.37587
21
-1.75913
0
LINE
8
BLACK
6
CONTINUOUS
10
3.37587
20
-1.75913
11
3.40106
21
-1.75588
0
LINE
8
BLACK
6
CONTINUOUS
10
3.40106
20
-1.75588
11
3.42641
21
-1.75409
0
LINE
8
BLACK
6
CONTINUOUS
10
3.42641
20
-1.75409
11
3.45181
21
-1.75376
0
LINE
8
BLACK
6
CONTINUOUS
10
3.45181
20
-1.75376
11
3.47719
21
-1.75489
0
LINE
8
BLACK
6
CONTINUOUS
10
3.47719
20
-1.75489
11
3.50247
21
-1.75748
0
LINE
8
BLACK
6
CONTINUOUS
10
3.50247
20
-1.75748
11
3.52755
21
-1.76152
0
LINE
8
BLACK
6
CONTINUOUS
10
3.52755
20
-1.76152
11
3.55236
21
-1.76699
0
LINE
8
BLACK
6
CONTINUOUS
10
3.55236
20
-1.76699
11
3.57681
21
-1.77389
0
LINE
8
BLACK
6
CONTINUOUS
10
3.57681
20
-1.77389
11
3.60083
21
-1.78218
0
LINE
8
BLACK
6
CONTINUOUS
10
3.60083
20
-1.78218
11
3.62433
21
-1.79184
0
LINE
8
BLACK
6
CONTINUOUS
10
3.62433
20
-1.79184
11
3.64723
21
-1.80284
0
LINE
8
BLACK
6
CONTINUOUS
10
3.64723
20
-1.80284
11
3.66946
21
-1.81514
0
LINE
8
BLACK
6
CONTINUOUS
10
3.66946
20
-1.81514
11
3.69095
21
-1.8287
0
LINE
8
BLACK
6
CONTINUOUS
10
3.69095
20
-1.8287
11
3.71162
21
-1.84347
0
LINE
8
BLACK
6
CONTINUOUS
10
3.71162
20
-1.84347
11
3.73141
21
-1.85941
0
LINE
8
BLACK
6
CONTINUOUS
10
3.73141
20
-1.85941
11
3.75024
21
-1.87645
0
LINE
8
BLACK
6
CONTINUOUS
10
3.75024
20
-1.87645
11
3.76807
21
-1.89456
0
LINE
8
BLACK
6
CONTINUOUS
10
3.76807
20
-1.89456
11
3.78482
21
-1.91366
0
LINE
8
BLACK
6
CONTINUOUS
10
3.78482
20
-1.91366
11
3.80044
21
-1.9337
0
LINE
8
BLACK
6
CONTINUOUS
10
3.80044
20
-1.9337
11
3.81489
21
-1.9546
0
LINE
8
BLACK
6
CONTINUOUS
10
3.81489
20
-1.9546
11
3.82811
21
-1.97629
0
LINE
8
BLACK
6
CONTINUOUS
10
3.82811
20
-1.97629
11
3.84005
21
-1.99872
0
LINE
8
BLACK
6
CONTINUOUS
10
3.84005
20
-1.99872
11
3.85069
21
-2.02179
0
LINE
8
BLACK
6
CONTINUOUS
10
3.85069
20
-2.02179
11
3.85998
21
-2.04544
0
LINE
8
BLACK
6
CONTINUOUS
10
3.85998
20
-2.04544
11
3.8679
21
-2.06958
0
LINE
8
BLACK
6
CONTINUOUS
10
3.8679
20
-2.06958
11
3.87441
21
-2.09414
0
LINE
8
BLACK
6
CONTINUOUS
10
3.87441
20
-2.09414
11
3.87949
21
-2.11903
0
LINE
8
BLACK
6
CONTINUOUS
10
3.87949
20
-2.11903
11
3.88314
21
-2.14417
0
LINE
8
BLACK
6
CONTINUOUS
10
3.88314
20
-2.14417
11
3.88533
21
-2.16949
0
LINE
8
BLACK
6
CONTINUOUS
10
3.88533
20
-2.16949
11
3.88606
21
-2.19488
0
LINE
8
BLACK
6
CONTINUOUS
10
3.88606
20
-2.19488
11
3.88606
21
-2.19719
0
LINE
8
BLACK
6
CONTINUOUS
10
3.88606
20
-2.19719
11
3.88519
21
-2.22258
0
LINE
8
BLACK
6
CONTINUOUS
10
3.88519
20
-2.22258
11
3.88287
21
-2.24788
0
LINE
8
BLACK
6
CONTINUOUS
10
3.88287
20
-2.24788
11
3.87909
21
-2.27301
0
LINE
8
BLACK
6
CONTINUOUS
10
3.87909
20
-2.27301
11
3.87387
21
-2.29787
0
LINE
8
BLACK
6
CONTINUOUS
10
3.87387
20
-2.29787
11
3.86723
21
-2.3224
0
LINE
8
BLACK
6
CONTINUOUS
10
3.86723
20
-2.3224
11
3.85919
21
-2.3465
0
LINE
8
BLACK
6
CONTINUOUS
10
3.85919
20
-2.3465
11
3.84978
21
-2.3701
0
LINE
8
BLACK
6
CONTINUOUS
10
3.84978
20
-2.3701
11
3.83902
21
-2.39311
0
LINE
8
BLACK
6
CONTINUOUS
10
3.83902
20
-2.39311
11
3.82696
21
-2.41547
0
LINE
8
BLACK
6
CONTINUOUS
10
3.82696
20
-2.41547
11
3.81362
21
-2.4371
0
LINE
8
BLACK
6
CONTINUOUS
10
3.81362
20
-2.4371
11
3.79907
21
-2.45793
0
LINE
8
BLACK
6
CONTINUOUS
10
3.79907
20
-2.45793
11
3.78334
21
-2.47788
0
LINE
8
BLACK
6
CONTINUOUS
10
3.78334
20
-2.47788
11
3.76649
21
-2.49689
0
LINE
8
BLACK
6
CONTINUOUS
10
3.76649
20
-2.49689
11
3.74857
21
-2.5149
0
LINE
8
BLACK
6
CONTINUOUS
10
3.74857
20
-2.5149
11
3.72965
21
-2.53185
0
LINE
8
BLACK
6
CONTINUOUS
10
3.72965
20
-2.53185
11
3.70978
21
-2.54769
0
LINE
8
BLACK
6
CONTINUOUS
10
3.70978
20
-2.54769
11
3.68903
21
-2.56235
0
LINE
8
BLACK
6
CONTINUOUS
10
3.68903
20
-2.56235
11
3.66747
21
-2.5758
0
LINE
8
BLACK
6
CONTINUOUS
10
3.66747
20
-2.5758
11
3.64517
21
-2.58798
0
LINE
8
BLACK
6
CONTINUOUS
10
3.64517
20
-2.58798
11
3.62221
21
-2.59885
0
LINE
8
BLACK
6
CONTINUOUS
10
3.62221
20
-2.59885
11
3.59867
21
-2.60839
0
LINE
8
BLACK
6
CONTINUOUS
10
3.59867
20
-2.60839
11
3.57461
21
-2.61656
0
LINE
8
BLACK
6
CONTINUOUS
10
3.57461
20
-2.61656
11
3.55012
21
-2.62333
0
LINE
8
BLACK
6
CONTINUOUS
10
3.55012
20
-2.62333
11
3.52528
21
-2.62868
0
LINE
8
BLACK
6
CONTINUOUS
10
3.52528
20
-2.62868
11
3.50018
21
-2.63258
0
LINE
8
BLACK
6
CONTINUOUS
10
3.50018
20
-2.63258
11
3.47489
21
-2.63504
0
LINE
8
BLACK
6
CONTINUOUS
10
3.47489
20
-2.63504
11
3.4495
21
-2.63604
0
LINE
8
BLACK
6
CONTINUOUS
10
3.4495
20
-2.63604
11
3.4241
21
-2.63557
0
LINE
8
BLACK
6
CONTINUOUS
10
3.4241
20
-2.63557
11
3.39877
21
-2.63365
0
LINE
8
BLACK
6
CONTINUOUS
10
3.39877
20
-2.63365
11
3.37359
21
-2.63026
0
LINE
8
BLACK
6
CONTINUOUS
10
3.37359
20
-2.63026
11
3.34864
21
-2.62544
0
LINE
8
BLACK
6
CONTINUOUS
10
3.34864
20
-2.62544
11
3.32402
21
-2.61918
0
LINE
8
BLACK
6
CONTINUOUS
10
3.32402
20
-2.61918
11
3.29979
21
-2.61152
0
LINE
8
BLACK
6
CONTINUOUS
10
3.29979
20
-2.61152
11
3.27605
21
-2.60248
0
LINE
8
BLACK
6
CONTINUOUS
10
3.27605
20
-2.60248
11
3.25287
21
-2.59209
0
LINE
8
BLACK
6
CONTINUOUS
10
3.25287
20
-2.59209
11
3.23032
21
-2.58037
0
LINE
8
BLACK
6
CONTINUOUS
10
3.23032
20
-2.58037
11
3.20849
21
-2.56738
0
LINE
8
BLACK
6
CONTINUOUS
10
3.20849
20
-2.56738
11
3.18743
21
-2.55316
0
LINE
8
BLACK
6
CONTINUOUS
10
3.18743
20
-2.55316
11
3.16724
21
-2.53774
0
LINE
8
BLACK
6
CONTINUOUS
10
3.16724
20
-2.53774
11
3.14796
21
-2.52119
0
LINE
8
BLACK
6
CONTINUOUS
10
3.14796
20
-2.52119
11
3.12967
21
-2.50356
0
LINE
8
BLACK
6
CONTINUOUS
10
3.12967
20
-2.50356
11
3.11242
21
-2.4849
0
LINE
8
BLACK
6
CONTINUOUS
10
3.11242
20
-2.4849
11
3.09628
21
-2.46528
0
LINE
8
BLACK
6
CONTINUOUS
10
3.09628
20
-2.46528
11
3.08129
21
-2.44477
0
LINE
8
BLACK
6
CONTINUOUS
10
3.08129
20
-2.44477
11
3.06751
21
-2.42343
0
LINE
8
BLACK
6
CONTINUOUS
10
3.06751
20
-2.42343
11
3.05498
21
-2.40132
0
LINE
8
BLACK
6
CONTINUOUS
10
3.05498
20
-2.40132
11
3.04374
21
-2.37854
0
LINE
8
BLACK
6
CONTINUOUS
10
3.04374
20
-2.37854
11
3.03384
21
-2.35514
0
LINE
8
BLACK
6
CONTINUOUS
10
3.03384
20
-2.35514
11
3.02529
21
-2.33121
0
LINE
8
BLACK
6
CONTINUOUS
10
3.02529
20
-2.33121
11
3.01814
21
-2.30684
0
LINE
8
BLACK
6
CONTINUOUS
10
3.01814
20
-2.30684
11
3.0124
21
-2.28208
0
LINE
8
BLACK
6
CONTINUOUS
10
3.0124
20
-2.28208
11
3.0081
21
-2.25704
0
LINE
8
BLACK
6
CONTINUOUS
10
3.0081
20
-2.25704
11
3.00525
21
-2.2318
0
LINE
8
BLACK
6
CONTINUOUS
10
3.00525
20
-2.2318
11
3.00385
21
-2.20643
0
LINE
8
BLACK
6
CONTINUOUS
10
3.00385
20
-2.20643
11
3.00388
21
-2.1964
0
LINE
8
BLACK
6
CONTINUOUS
10
3.00388
20
-2.1964
11
3.00392
21
-2.18102
0
LINE
8
BLACK
6
CONTINUOUS
10
3.00392
20
-2.18102
11
3.00545
21
-2.15566
0
LINE
8
BLACK
6
CONTINUOUS
10
3.01461
20
-2.24771
11
3.0185
21
-2.27314
0
LINE
8
BLACK
6
CONTINUOUS
10
3.0185
20
-2.27314
11
3.02389
21
-2.29829
0
LINE
8
BLACK
6
CONTINUOUS
10
3.02389
20
-2.29829
11
3.03076
21
-2.32307
0
LINE
8
BLACK
6
CONTINUOUS
10
3.03076
20
-2.32307
11
3.0391
21
-2.34741
0
LINE
8
BLACK
6
CONTINUOUS
10
3.0391
20
-2.34741
11
3.04886
21
-2.3712
0
LINE
8
BLACK
6
CONTINUOUS
10
3.04886
20
-2.3712
11
3.06001
21
-2.39438
0
LINE
8
BLACK
6
CONTINUOUS
10
3.06001
20
-2.39438
11
3.07252
21
-2.41685
0
LINE
8
BLACK
6
CONTINUOUS
10
3.07252
20
-2.41685
11
3.08634
21
-2.43855
0
LINE
8
BLACK
6
CONTINUOUS
10
3.08634
20
-2.43855
11
3.10142
21
-2.45938
0
LINE
8
BLACK
6
CONTINUOUS
10
3.10142
20
-2.45938
11
3.11771
21
-2.47929
0
LINE
8
BLACK
6
CONTINUOUS
10
3.11771
20
-2.47929
11
3.13515
21
-2.49819
0
LINE
8
BLACK
6
CONTINUOUS
10
3.13515
20
-2.49819
11
3.15369
21
-2.51602
0
LINE
8
BLACK
6
CONTINUOUS
10
3.15369
20
-2.51602
11
3.17325
21
-2.53273
0
LINE
8
BLACK
6
CONTINUOUS
10
3.17325
20
-2.53273
11
3.19376
21
-2.54824
0
LINE
8
BLACK
6
CONTINUOUS
10
3.19376
20
-2.54824
11
3.21516
21
-2.56251
0
LINE
8
BLACK
6
CONTINUOUS
10
3.21516
20
-2.56251
11
3.23737
21
-2.57549
0
LINE
8
BLACK
6
CONTINUOUS
10
3.23737
20
-2.57549
11
3.2603
21
-2.58713
0
LINE
8
BLACK
6
CONTINUOUS
10
3.2603
20
-2.58713
11
3.28389
21
-2.59739
0
LINE
8
BLACK
6
CONTINUOUS
10
3.28389
20
-2.59739
11
3.30805
21
-2.60622
0
LINE
8
BLACK
6
CONTINUOUS
10
3.30805
20
-2.60622
11
3.33268
21
-2.61362
0
LINE
8
BLACK
6
CONTINUOUS
10
3.33268
20
-2.61362
11
3.35771
21
-2.61953
0
LINE
8
BLACK
6
CONTINUOUS
10
3.35771
20
-2.61953
11
3.38305
21
-2.62395
0
LINE
8
BLACK
6
CONTINUOUS
10
3.38305
20
-2.62395
11
3.40861
21
-2.62687
0
LINE
8
BLACK
6
CONTINUOUS
10
3.40861
20
-2.62687
11
3.43429
21
-2.62826
0
LINE
8
BLACK
6
CONTINUOUS
10
3.43429
20
-2.62826
11
3.46001
21
-2.62812
0
LINE
8
BLACK
6
CONTINUOUS
10
3.46001
20
-2.62812
11
3.48568
21
-2.62646
0
LINE
8
BLACK
6
CONTINUOUS
10
3.48568
20
-2.62646
11
3.5112
21
-2.62328
0
LINE
8
BLACK
6
CONTINUOUS
10
3.5112
20
-2.62328
11
3.53649
21
-2.6186
0
LINE
8
BLACK
6
CONTINUOUS
10
3.53649
20
-2.6186
11
3.56146
21
-2.61242
0
LINE
8
BLACK
6
CONTINUOUS
10
3.56146
20
-2.61242
11
3.58602
21
-2.60477
0
LINE
8
BLACK
6
CONTINUOUS
10
3.58602
20
-2.60477
11
3.61008
21
-2.59568
0
LINE
8
BLACK
6
CONTINUOUS
10
3.61008
20
-2.59568
11
3.63356
21
-2.58517
0
LINE
8
BLACK
6
CONTINUOUS
10
3.63356
20
-2.58517
11
3.65637
21
-2.5733
0
LINE
8
BLACK
6
CONTINUOUS
10
3.65637
20
-2.5733
11
3.67844
21
-2.56009
0
LINE
8
BLACK
6
CONTINUOUS
10
3.67844
20
-2.56009
11
3.69969
21
-2.54559
0
LINE
8
BLACK
6
CONTINUOUS
10
3.69969
20
-2.54559
11
3.72004
21
-2.52987
0
LINE
8
BLACK
6
CONTINUOUS
10
3.72004
20
-2.52987
11
3.73942
21
-2.51296
0
LINE
8
BLACK
6
CONTINUOUS
10
3.73942
20
-2.51296
11
3.75777
21
-2.49493
0
LINE
8
BLACK
6
CONTINUOUS
10
3.75777
20
-2.49493
11
3.77501
21
-2.47585
0
LINE
8
BLACK
6
CONTINUOUS
10
3.77501
20
-2.47585
11
3.79109
21
-2.45577
0
LINE
8
BLACK
6
CONTINUOUS
10
3.79109
20
-2.45577
11
3.80596
21
-2.43478
0
LINE
8
BLACK
6
CONTINUOUS
10
3.80596
20
-2.43478
11
3.81955
21
-2.41294
0
LINE
8
BLACK
6
CONTINUOUS
10
3.81955
20
-2.41294
11
3.83182
21
-2.39034
0
LINE
8
BLACK
6
CONTINUOUS
10
3.83182
20
-2.39034
11
3.84273
21
-2.36705
0
LINE
8
BLACK
6
CONTINUOUS
10
3.84273
20
-2.36705
11
3.85224
21
-2.34315
0
LINE
8
BLACK
6
CONTINUOUS
10
3.85224
20
-2.34315
11
3.86032
21
-2.31873
0
LINE
8
BLACK
6
CONTINUOUS
10
3.86032
20
-2.31873
11
3.86693
21
-2.29387
0
LINE
8
BLACK
6
CONTINUOUS
10
3.86693
20
-2.29387
11
3.87206
21
-2.26867
0
LINE
8
BLACK
6
CONTINUOUS
10
3.87206
20
-2.26867
11
3.87569
21
-2.2432
0
LINE
8
BLACK
6
CONTINUOUS
10
3.87569
20
-2.2432
11
3.87779
21
-2.21757
0
LINE
8
BLACK
6
CONTINUOUS
10
3.87779
20
-2.21757
11
3.87839
21
-2.19488
0
LINE
8
BLACK
6
CONTINUOUS
10
3.87839
20
-2.19488
11
3.87762
21
-2.16917
0
LINE
8
BLACK
6
CONTINUOUS
10
3.87762
20
-2.16917
11
3.87534
21
-2.14355
0
LINE
8
BLACK
6
CONTINUOUS
10
3.87534
20
-2.14355
11
3.87154
21
-2.11811
0
LINE
8
BLACK
6
CONTINUOUS
10
3.87154
20
-2.11811
11
3.86623
21
-2.09295
0
LINE
8
BLACK
6
CONTINUOUS
10
3.86623
20
-2.09295
11
3.85944
21
-2.06814
0
LINE
8
BLACK
6
CONTINUOUS
10
3.85944
20
-2.06814
11
3.8512
21
-2.04377
0
LINE
8
BLACK
6
CONTINUOUS
10
3.8512
20
-2.04377
11
3.84152
21
-2.01994
0
LINE
8
BLACK
6
CONTINUOUS
10
3.84152
20
-2.01994
11
3.83045
21
-1.99673
0
LINE
8
BLACK
6
CONTINUOUS
10
3.83045
20
-1.99673
11
3.81802
21
-1.97421
0
LINE
8
BLACK
6
CONTINUOUS
10
3.81802
20
-1.97421
11
3.80427
21
-1.95247
0
LINE
8
BLACK
6
CONTINUOUS
10
3.80427
20
-1.95247
11
3.78926
21
-1.93158
0
LINE
8
BLACK
6
CONTINUOUS
10
3.78926
20
-1.93158
11
3.77304
21
-1.91162
0
LINE
8
BLACK
6
CONTINUOUS
10
3.77304
20
-1.91162
11
3.75567
21
-1.89266
0
LINE
8
BLACK
6
CONTINUOUS
10
3.75567
20
-1.89266
11
3.7372
21
-1.87476
0
LINE
8
BLACK
6
CONTINUOUS
10
3.7372
20
-1.87476
11
3.7177
21
-1.85799
0
LINE
8
BLACK
6
CONTINUOUS
10
3.7177
20
-1.85799
11
3.69724
21
-1.8424
0
LINE
8
BLACK
6
CONTINUOUS
10
3.69724
20
-1.8424
11
3.67589
21
-1.82805
0
LINE
8
BLACK
6
CONTINUOUS
10
3.67589
20
-1.82805
11
3.65372
21
-1.815
0
LINE
8
BLACK
6
CONTINUOUS
10
3.65372
20
-1.815
11
3.63083
21
-1.80328
0
LINE
8
BLACK
6
CONTINUOUS
10
3.63083
20
-1.80328
11
3.60728
21
-1.79294
0
LINE
8
BLACK
6
CONTINUOUS
10
3.60728
20
-1.79294
11
3.58315
21
-1.78402
0
LINE
8
BLACK
6
CONTINUOUS
10
3.58315
20
-1.78402
11
3.55854
21
-1.77654
0
LINE
8
BLACK
6
CONTINUOUS
10
3.55854
20
-1.77654
11
3.53353
21
-1.77054
0
LINE
8
BLACK
6
CONTINUOUS
10
3.53353
20
-1.77054
11
3.50821
21
-1.76603
0
LINE
8
BLACK
6
CONTINUOUS
10
3.50821
20
-1.76603
11
3.48266
21
-1.76303
0
LINE
8
BLACK
6
CONTINUOUS
10
3.48266
20
-1.76303
11
3.45699
21
-1.76155
0
LINE
8
BLACK
6
CONTINUOUS
10
3.45699
20
-1.76155
11
3.43127
21
-1.76159
0
LINE
8
BLACK
6
CONTINUOUS
10
3.43127
20
-1.76159
11
3.40559
21
-1.76316
0
LINE
8
BLACK
6
CONTINUOUS
10
3.40559
20
-1.76316
11
3.38006
21
-1.76625
0
LINE
8
BLACK
6
CONTINUOUS
10
3.38006
20
-1.76625
11
3.35475
21
-1.77085
0
LINE
8
BLACK
6
CONTINUOUS
10
3.35475
20
-1.77085
11
3.32976
21
-1.77694
0
LINE
8
BLACK
6
CONTINUOUS
10
3.32976
20
-1.77694
11
3.30518
21
-1.7845
0
LINE
8
BLACK
6
CONTINUOUS
10
3.30518
20
-1.7845
11
3.28109
21
-1.79351
0
LINE
8
BLACK
6
CONTINUOUS
10
3.28109
20
-1.79351
11
3.25757
21
-1.80393
0
LINE
8
BLACK
6
CONTINUOUS
10
3.25757
20
-1.80393
11
3.23471
21
-1.81573
0
LINE
8
BLACK
6
CONTINUOUS
10
3.23471
20
-1.81573
11
3.2126
21
-1.82886
0
LINE
8
BLACK
6
CONTINUOUS
10
3.2126
20
-1.82886
11
3.1913
21
-1.84328
0
LINE
8
BLACK
6
CONTINUOUS
10
3.1913
20
-1.84328
11
3.17089
21
-1.85894
0
LINE
8
BLACK
6
CONTINUOUS
10
3.17089
20
-1.85894
11
3.15145
21
-1.87578
0
LINE
8
BLACK
6
CONTINUOUS
10
3.15145
20
-1.87578
11
3.13304
21
-1.89374
0
LINE
8
BLACK
6
CONTINUOUS
10
3.13304
20
-1.89374
11
3.11573
21
-1.91277
0
LINE
8
BLACK
6
CONTINUOUS
10
3.11573
20
-1.91277
11
3.09958
21
-1.93279
0
LINE
8
BLACK
6
CONTINUOUS
10
3.09958
20
-1.93279
11
3.08465
21
-1.95373
0
LINE
8
BLACK
6
CONTINUOUS
10
3.08465
20
-1.95373
11
3.07098
21
-1.97551
0
LINE
8
BLACK
6
CONTINUOUS
10
3.07098
20
-1.97551
11
3.05863
21
-1.99807
0
LINE
8
BLACK
6
CONTINUOUS
10
3.05863
20
-1.99807
11
3.04763
21
-2.02133
0
LINE
8
BLACK
6
CONTINUOUS
10
3.04763
20
-2.02133
11
3.03804
21
-2.04519
0
LINE
8
BLACK
6
CONTINUOUS
10
3.03804
20
-2.04519
11
3.02988
21
-2.06959
0
LINE
8
BLACK
6
CONTINUOUS
10
3.02988
20
-2.06959
11
3.02318
21
-2.09442
0
LINE
8
BLACK
6
CONTINUOUS
10
3.02318
20
-2.09442
11
3.01796
21
-2.1196
0
LINE
8
BLACK
6
CONTINUOUS
10
3.01796
20
-2.1196
11
3.01425
21
-2.14506
0
LINE
8
BLACK
6
CONTINUOUS
10
3.01425
20
-2.14506
11
3.01205
21
-2.17068
0
LINE
8
BLACK
6
CONTINUOUS
10
3.01205
20
-2.17068
11
3.01138
21
-2.1964
0
LINE
8
BLACK
6
CONTINUOUS
10
3.01138
20
-2.1964
11
3.01223
21
-2.2221
0
LINE
8
BLACK
6
CONTINUOUS
10
3.01223
20
-2.2221
11
3.01461
21
-2.24771
  0
ENDSEC
  0
EOF
