  0
SECTION
  2
HEADER
  9
$ANGBASE
  50
0.0
  9
$ANGDIR
  70
1
  9
$MEASUREMENT
  70
0
  0
ENDSEC
  0
SECTION
  2
TABLES
  0
TABLE
  2
LTYPE
  70
4
  0
LTYPE
  5
40F
  2
CONTINUOUS
  70
0
  3
Solid line
  72
65
  73
0
  40
0.0
  0
LTYPE
  5
410
  2
DASHDOT
 70
0
  3
Dash Dot ____ _ ____ _
 72
65
 73
4
 40
2.0
 49
1.25
 49
-0.25
 49
0.25
 49
-0.25
  0
LTYPE
  5
411
  2
DASHED
 70
0
  3
Dashed __ __ __ __ __
 72
65
 73
2
 40
0.75
 49
0.5
 49
-0.25
  0
LTYPE
  5
43B
  2
DOTTED
 70
0
  3
Dotted .  .  .  .
 72
65
 73
2
 40
0.2
 49
0.0
 49
-0.2
  0
ENDTAB
  0
TABLE
  2
STYLE
  70
4
  0
STYLE
  2
KICAD
  70
0
  40
0
  41
1
  42
1
  50
0
  71
0
  3
isocp.shx
  0
STYLE
  2
KICADB
  70
0
  40
0
  41
1
  42
1
  50
0
  71
0
  3
isocp.shx
  0
STYLE
  2
KICADI
  70
0
  40
0
  41
1
  42
1
  50
15
  71
0
  3
isocp.shx
  0
STYLE
  2
KICADBI
  70
0
  40
0
  41
1
  42
1
  50
15
  71
0
  3
isocp.shx
  0
ENDTAB
  0
TABLE
  2
LAYER
  70
1
  0
LAYER
  2
BLACK
  70
0
  62
7
  6
CONTINUOUS
  0
ENDTAB
  0
ENDSEC
  0
SECTION
  2
ENTITIES
0
LINE
8
BLACK
6
CONTINUOUS
10
1.42902
20
1.58997
11
1.42862
21
1.59094
0
LINE
8
BLACK
6
CONTINUOUS
10
1.42862
20
1.59094
11
1.42902
21
1.59192
0
LINE
8
BLACK
6
CONTINUOUS
10
1.42902
20
1.59192
11
1.43
21
1.59232
0
LINE
8
BLACK
6
CONTINUOUS
10
1.43
20
1.59232
11
1.43567
21
1.59232
0
LINE
8
BLACK
6
CONTINUOUS
10
1.43567
20
1.59232
11
1.42902
21
1.59897
0
LINE
8
BLACK
6
CONTINUOUS
10
1.42902
20
1.59897
11
1.42862
21
1.59994
0
LINE
8
BLACK
6
CONTINUOUS
10
1.42862
20
1.59994
11
1.42902
21
1.60091
0
LINE
8
BLACK
6
CONTINUOUS
10
1.42902
20
1.60091
11
1.43
21
1.60132
0
LINE
8
BLACK
6
CONTINUOUS
10
1.43
20
1.60132
11
1.43097
21
1.60091
0
LINE
8
BLACK
6
CONTINUOUS
10
1.43097
20
1.60091
11
1.43688
21
1.59501
0
LINE
8
BLACK
6
CONTINUOUS
10
1.43688
20
1.59501
11
1.44492
21
1.60104
0
LINE
8
BLACK
6
CONTINUOUS
10
1.44492
20
1.60104
11
1.44594
21
1.6013
0
LINE
8
BLACK
6
CONTINUOUS
10
1.44594
20
1.6013
11
1.44685
21
1.60077
0
LINE
8
BLACK
6
CONTINUOUS
10
1.44685
20
1.60077
11
1.44711
21
1.59975
0
LINE
8
BLACK
6
CONTINUOUS
10
1.44711
20
1.59975
11
1.44657
21
1.59884
0
LINE
8
BLACK
6
CONTINUOUS
10
1.44657
20
1.59884
11
1.43885
21
1.59304
0
LINE
8
BLACK
6
CONTINUOUS
10
1.43885
20
1.59304
11
1.43957
21
1.59232
0
LINE
8
BLACK
6
CONTINUOUS
10
1.43957
20
1.59232
11
1.44575
21
1.59232
0
LINE
8
BLACK
6
CONTINUOUS
10
1.44575
20
1.59232
11
1.44672
21
1.59192
0
LINE
8
BLACK
6
CONTINUOUS
10
1.44672
20
1.59192
11
1.44712
21
1.59094
0
LINE
8
BLACK
6
CONTINUOUS
10
1.44712
20
1.59094
11
1.44672
21
1.58997
0
LINE
8
BLACK
6
CONTINUOUS
10
1.44672
20
1.58997
11
1.44575
21
1.58956
0
LINE
8
BLACK
6
CONTINUOUS
10
1.44575
20
1.58956
11
1.43
21
1.58956
0
LINE
8
BLACK
6
CONTINUOUS
10
1.43
20
1.58956
11
1.42902
21
1.58997
0
LINE
8
BLACK
6
CONTINUOUS
10
1.42902
20
1.60571
11
1.42862
21
1.60669
0
LINE
8
BLACK
6
CONTINUOUS
10
1.42862
20
1.60669
11
1.42862
21
1.61419
0
LINE
8
BLACK
6
CONTINUOUS
10
1.42862
20
1.61419
11
1.42902
21
1.61516
0
LINE
8
BLACK
6
CONTINUOUS
10
1.42902
20
1.61516
11
1.43
21
1.61557
0
LINE
8
BLACK
6
CONTINUOUS
10
1.43
20
1.61557
11
1.43097
21
1.61516
0
LINE
8
BLACK
6
CONTINUOUS
10
1.43097
20
1.61516
11
1.43138
21
1.61419
0
LINE
8
BLACK
6
CONTINUOUS
10
1.43138
20
1.61419
11
1.43138
21
1.60807
0
LINE
8
BLACK
6
CONTINUOUS
10
1.43138
20
1.60807
11
1.43612
21
1.60807
0
LINE
8
BLACK
6
CONTINUOUS
10
1.43612
20
1.60807
11
1.43612
21
1.61194
0
LINE
8
BLACK
6
CONTINUOUS
10
1.43612
20
1.61194
11
1.43652
21
1.61291
0
LINE
8
BLACK
6
CONTINUOUS
10
1.43652
20
1.61291
11
1.4375
21
1.61332
0
LINE
8
BLACK
6
CONTINUOUS
10
1.4375
20
1.61332
11
1.43847
21
1.61291
0
LINE
8
BLACK
6
CONTINUOUS
10
1.43847
20
1.61291
11
1.43888
21
1.61194
0
LINE
8
BLACK
6
CONTINUOUS
10
1.43888
20
1.61194
11
1.43888
21
1.60807
0
LINE
8
BLACK
6
CONTINUOUS
10
1.43888
20
1.60807
11
1.44437
21
1.60807
0
LINE
8
BLACK
6
CONTINUOUS
10
1.44437
20
1.60807
11
1.44437
21
1.61419
0
LINE
8
BLACK
6
CONTINUOUS
10
1.44437
20
1.61419
11
1.44477
21
1.61516
0
LINE
8
BLACK
6
CONTINUOUS
10
1.44477
20
1.61516
11
1.44575
21
1.61557
0
LINE
8
BLACK
6
CONTINUOUS
10
1.44575
20
1.61557
11
1.44672
21
1.61516
0
LINE
8
BLACK
6
CONTINUOUS
10
1.44672
20
1.61516
11
1.44712
21
1.61419
0
LINE
8
BLACK
6
CONTINUOUS
10
1.44712
20
1.61419
11
1.44712
21
1.60669
0
LINE
8
BLACK
6
CONTINUOUS
10
1.44712
20
1.60669
11
1.44672
21
1.60571
0
LINE
8
BLACK
6
CONTINUOUS
10
1.44672
20
1.60571
11
1.44575
21
1.60531
0
LINE
8
BLACK
6
CONTINUOUS
10
1.44575
20
1.60531
11
1.43
21
1.60531
0
LINE
8
BLACK
6
CONTINUOUS
10
1.43
20
1.60531
11
1.42902
21
1.60571
0
LINE
8
BLACK
6
CONTINUOUS
10
1.42902
20
1.61996
11
1.42862
21
1.62094
0
LINE
8
BLACK
6
CONTINUOUS
10
1.42862
20
1.62094
11
1.42862
21
1.62844
0
LINE
8
BLACK
6
CONTINUOUS
10
1.42862
20
1.62844
11
1.42902
21
1.62941
0
LINE
8
BLACK
6
CONTINUOUS
10
1.42902
20
1.62941
11
1.43
21
1.62981
0
LINE
8
BLACK
6
CONTINUOUS
10
1.43
20
1.62981
11
1.43097
21
1.62941
0
LINE
8
BLACK
6
CONTINUOUS
10
1.43097
20
1.62941
11
1.43138
21
1.62844
0
LINE
8
BLACK
6
CONTINUOUS
10
1.43138
20
1.62844
11
1.43138
21
1.62232
0
LINE
8
BLACK
6
CONTINUOUS
10
1.43138
20
1.62232
11
1.43612
21
1.62232
0
LINE
8
BLACK
6
CONTINUOUS
10
1.43612
20
1.62232
11
1.43612
21
1.62619
0
LINE
8
BLACK
6
CONTINUOUS
10
1.43612
20
1.62619
11
1.43652
21
1.62716
0
LINE
8
BLACK
6
CONTINUOUS
10
1.43652
20
1.62716
11
1.4375
21
1.62756
0
LINE
8
BLACK
6
CONTINUOUS
10
1.4375
20
1.62756
11
1.43847
21
1.62716
0
LINE
8
BLACK
6
CONTINUOUS
10
1.43847
20
1.62716
11
1.43888
21
1.62619
0
LINE
8
BLACK
6
CONTINUOUS
10
1.43888
20
1.62619
11
1.43888
21
1.62232
0
LINE
8
BLACK
6
CONTINUOUS
10
1.43888
20
1.62232
11
1.44437
21
1.62232
0
LINE
8
BLACK
6
CONTINUOUS
10
1.44437
20
1.62232
11
1.44437
21
1.62844
0
LINE
8
BLACK
6
CONTINUOUS
10
1.44437
20
1.62844
11
1.44477
21
1.62941
0
LINE
8
BLACK
6
CONTINUOUS
10
1.44477
20
1.62941
11
1.44575
21
1.62981
0
LINE
8
BLACK
6
CONTINUOUS
10
1.44575
20
1.62981
11
1.44672
21
1.62941
0
LINE
8
BLACK
6
CONTINUOUS
10
1.44672
20
1.62941
11
1.44712
21
1.62844
0
LINE
8
BLACK
6
CONTINUOUS
10
1.44712
20
1.62844
11
1.44712
21
1.62094
0
LINE
8
BLACK
6
CONTINUOUS
10
1.44712
20
1.62094
11
1.44672
21
1.61996
0
LINE
8
BLACK
6
CONTINUOUS
10
1.44672
20
1.61996
11
1.44575
21
1.61956
0
LINE
8
BLACK
6
CONTINUOUS
10
1.44575
20
1.61956
11
1.43
21
1.61956
0
LINE
8
BLACK
6
CONTINUOUS
10
1.43
20
1.61956
11
1.42902
21
1.61996
0
LINE
8
BLACK
6
CONTINUOUS
10
1.42902
20
1.63421
11
1.42862
21
1.63519
0
LINE
8
BLACK
6
CONTINUOUS
10
1.42862
20
1.63519
11
1.42862
21
1.64118
0
LINE
8
BLACK
6
CONTINUOUS
10
1.42862
20
1.64118
11
1.42874
21
1.64148
0
LINE
8
BLACK
6
CONTINUOUS
10
1.42874
20
1.64148
11
1.42877
21
1.6418
0
LINE
8
BLACK
6
CONTINUOUS
10
1.42877
20
1.6418
11
1.42952
21
1.6433
0
LINE
8
BLACK
6
CONTINUOUS
10
1.42952
20
1.6433
11
1.42969
21
1.64345
0
LINE
8
BLACK
6
CONTINUOUS
10
1.42969
20
1.64345
11
1.42977
21
1.64366
0
LINE
8
BLACK
6
CONTINUOUS
10
1.42977
20
1.64366
11
1.43052
21
1.64441
0
LINE
8
BLACK
6
CONTINUOUS
10
1.43052
20
1.64441
11
1.43073
21
1.6445
0
LINE
8
BLACK
6
CONTINUOUS
10
1.43073
20
1.6445
11
1.43088
21
1.64467
0
LINE
8
BLACK
6
CONTINUOUS
10
1.43088
20
1.64467
11
1.43238
21
1.64542
0
LINE
8
BLACK
6
CONTINUOUS
10
1.43238
20
1.64542
11
1.4327
21
1.64544
0
LINE
8
BLACK
6
CONTINUOUS
10
1.4327
20
1.64544
11
1.433
21
1.64556
0
LINE
8
BLACK
6
CONTINUOUS
10
1.433
20
1.64556
11
1.43525
21
1.64556
0
LINE
8
BLACK
6
CONTINUOUS
10
1.43525
20
1.64556
11
1.43554
21
1.64544
0
LINE
8
BLACK
6
CONTINUOUS
10
1.43554
20
1.64544
11
1.43586
21
1.64542
0
LINE
8
BLACK
6
CONTINUOUS
10
1.43586
20
1.64542
11
1.43736
21
1.64467
0
LINE
8
BLACK
6
CONTINUOUS
10
1.43736
20
1.64467
11
1.43751
21
1.6445
0
LINE
8
BLACK
6
CONTINUOUS
10
1.43751
20
1.6445
11
1.43772
21
1.64441
0
LINE
8
BLACK
6
CONTINUOUS
10
1.43772
20
1.64441
11
1.43847
21
1.64366
0
LINE
8
BLACK
6
CONTINUOUS
10
1.43847
20
1.64366
11
1.43856
21
1.64345
0
LINE
8
BLACK
6
CONTINUOUS
10
1.43856
20
1.64345
11
1.43873
21
1.6433
0
LINE
8
BLACK
6
CONTINUOUS
10
1.43873
20
1.6433
11
1.43948
21
1.6418
0
LINE
8
BLACK
6
CONTINUOUS
10
1.43948
20
1.6418
11
1.4395
21
1.64148
0
LINE
8
BLACK
6
CONTINUOUS
10
1.4395
20
1.64148
11
1.43963
21
1.64118
0
LINE
8
BLACK
6
CONTINUOUS
10
1.43963
20
1.64118
11
1.43963
21
1.63656
0
LINE
8
BLACK
6
CONTINUOUS
10
1.43963
20
1.63656
11
1.44575
21
1.63656
0
LINE
8
BLACK
6
CONTINUOUS
10
1.44575
20
1.63656
11
1.44672
21
1.63616
0
LINE
8
BLACK
6
CONTINUOUS
10
1.44672
20
1.63616
11
1.44712
21
1.63519
0
LINE
8
BLACK
6
CONTINUOUS
10
1.44712
20
1.63519
11
1.44672
21
1.63421
0
LINE
8
BLACK
6
CONTINUOUS
10
1.44672
20
1.63421
11
1.44575
21
1.63381
0
LINE
8
BLACK
6
CONTINUOUS
10
1.44575
20
1.63381
11
1.43
21
1.63381
0
LINE
8
BLACK
6
CONTINUOUS
10
1.43
20
1.63381
11
1.42902
21
1.63421
0
LINE
8
BLACK
6
CONTINUOUS
10
1.43332
20
1.64281
11
1.43231
21
1.6423
0
LINE
8
BLACK
6
CONTINUOUS
10
1.43231
20
1.6423
11
1.43188
21
1.64187
0
LINE
8
BLACK
6
CONTINUOUS
10
1.43188
20
1.64187
11
1.43138
21
1.64086
0
LINE
8
BLACK
6
CONTINUOUS
10
1.43138
20
1.64086
11
1.43138
21
1.63656
0
LINE
8
BLACK
6
CONTINUOUS
10
1.43138
20
1.63656
11
1.43687
21
1.63656
0
LINE
8
BLACK
6
CONTINUOUS
10
1.43687
20
1.63656
11
1.43687
21
1.64086
0
LINE
8
BLACK
6
CONTINUOUS
10
1.43687
20
1.64086
11
1.43636
21
1.64187
0
LINE
8
BLACK
6
CONTINUOUS
10
1.43636
20
1.64187
11
1.43593
21
1.6423
0
LINE
8
BLACK
6
CONTINUOUS
10
1.43593
20
1.6423
11
1.43492
21
1.64281
0
LINE
8
BLACK
6
CONTINUOUS
10
1.43492
20
1.64281
11
1.43332
21
1.64281
0
LINE
8
BLACK
6
CONTINUOUS
10
1.44066
20
1.66199
11
1.44083
21
1.66202
0
LINE
8
BLACK
6
CONTINUOUS
10
1.44083
20
1.66202
11
1.44383
21
1.66127
0
LINE
8
BLACK
6
CONTINUOUS
10
1.44383
20
1.66127
11
1.44413
21
1.66105
0
LINE
8
BLACK
6
CONTINUOUS
10
1.44413
20
1.66105
11
1.44447
21
1.66091
0
LINE
8
BLACK
6
CONTINUOUS
10
1.44447
20
1.66091
11
1.44597
21
1.65941
0
LINE
8
BLACK
6
CONTINUOUS
10
1.44597
20
1.65941
11
1.44606
21
1.6592
0
LINE
8
BLACK
6
CONTINUOUS
10
1.44606
20
1.6592
11
1.44623
21
1.65905
0
LINE
8
BLACK
6
CONTINUOUS
10
1.44623
20
1.65905
11
1.44698
21
1.65755
0
LINE
8
BLACK
6
CONTINUOUS
10
1.44698
20
1.65755
11
1.447
21
1.65723
0
LINE
8
BLACK
6
CONTINUOUS
10
1.447
20
1.65723
11
1.44712
21
1.65693
0
LINE
8
BLACK
6
CONTINUOUS
10
1.44712
20
1.65693
11
1.44712
21
1.65393
0
LINE
8
BLACK
6
CONTINUOUS
10
1.44712
20
1.65393
11
1.447
21
1.65364
0
LINE
8
BLACK
6
CONTINUOUS
10
1.447
20
1.65364
11
1.44698
21
1.65332
0
LINE
8
BLACK
6
CONTINUOUS
10
1.44698
20
1.65332
11
1.44623
21
1.65182
0
LINE
8
BLACK
6
CONTINUOUS
10
1.44623
20
1.65182
11
1.44606
21
1.65167
0
LINE
8
BLACK
6
CONTINUOUS
10
1.44606
20
1.65167
11
1.44597
21
1.65146
0
LINE
8
BLACK
6
CONTINUOUS
10
1.44597
20
1.65146
11
1.44447
21
1.64996
0
LINE
8
BLACK
6
CONTINUOUS
10
1.44447
20
1.64996
11
1.44413
21
1.64982
0
LINE
8
BLACK
6
CONTINUOUS
10
1.44413
20
1.64982
11
1.44383
21
1.6496
0
LINE
8
BLACK
6
CONTINUOUS
10
1.44383
20
1.6496
11
1.44083
21
1.64885
0
LINE
8
BLACK
6
CONTINUOUS
10
1.44083
20
1.64885
11
1.44066
21
1.64887
0
LINE
8
BLACK
6
CONTINUOUS
10
1.44066
20
1.64887
11
1.4405
21
1.64881
0
LINE
8
BLACK
6
CONTINUOUS
10
1.4405
20
1.64881
11
1.43525
21
1.64881
0
LINE
8
BLACK
6
CONTINUOUS
10
1.43525
20
1.64881
11
1.43509
21
1.64887
0
LINE
8
BLACK
6
CONTINUOUS
10
1.43509
20
1.64887
11
1.43491
21
1.64885
0
LINE
8
BLACK
6
CONTINUOUS
10
1.43491
20
1.64885
11
1.43191
21
1.6496
0
LINE
8
BLACK
6
CONTINUOUS
10
1.43191
20
1.6496
11
1.43162
21
1.64982
0
LINE
8
BLACK
6
CONTINUOUS
10
1.43162
20
1.64982
11
1.43127
21
1.64996
0
LINE
8
BLACK
6
CONTINUOUS
10
1.43127
20
1.64996
11
1.42977
21
1.65146
0
LINE
8
BLACK
6
CONTINUOUS
10
1.42977
20
1.65146
11
1.42969
21
1.65167
0
LINE
8
BLACK
6
CONTINUOUS
10
1.42969
20
1.65167
11
1.42952
21
1.65182
0
LINE
8
BLACK
6
CONTINUOUS
10
1.42952
20
1.65182
11
1.42877
21
1.65332
0
LINE
8
BLACK
6
CONTINUOUS
10
1.42877
20
1.65332
11
1.42874
21
1.65364
0
LINE
8
BLACK
6
CONTINUOUS
10
1.42874
20
1.65364
11
1.42862
21
1.65393
0
LINE
8
BLACK
6
CONTINUOUS
10
1.42862
20
1.65393
11
1.42862
21
1.65693
0
LINE
8
BLACK
6
CONTINUOUS
10
1.42862
20
1.65693
11
1.42874
21
1.65723
0
LINE
8
BLACK
6
CONTINUOUS
10
1.42874
20
1.65723
11
1.42877
21
1.65755
0
LINE
8
BLACK
6
CONTINUOUS
10
1.42877
20
1.65755
11
1.42952
21
1.65905
0
LINE
8
BLACK
6
CONTINUOUS
10
1.42952
20
1.65905
11
1.42969
21
1.6592
0
LINE
8
BLACK
6
CONTINUOUS
10
1.42969
20
1.6592
11
1.42977
21
1.65941
0
LINE
8
BLACK
6
CONTINUOUS
10
1.42977
20
1.65941
11
1.43127
21
1.66091
0
LINE
8
BLACK
6
CONTINUOUS
10
1.43127
20
1.66091
11
1.43162
21
1.66105
0
LINE
8
BLACK
6
CONTINUOUS
10
1.43162
20
1.66105
11
1.43191
21
1.66127
0
LINE
8
BLACK
6
CONTINUOUS
10
1.43191
20
1.66127
11
1.43491
21
1.66202
0
LINE
8
BLACK
6
CONTINUOUS
10
1.43491
20
1.66202
11
1.43509
21
1.66199
0
LINE
8
BLACK
6
CONTINUOUS
10
1.43509
20
1.66199
11
1.43525
21
1.66206
0
LINE
8
BLACK
6
CONTINUOUS
10
1.43525
20
1.66206
11
1.4405
21
1.66206
0
LINE
8
BLACK
6
CONTINUOUS
10
1.4405
20
1.66206
11
1.44066
21
1.66199
0
LINE
8
BLACK
6
CONTINUOUS
10
1.43542
20
1.6593
11
1.43295
21
1.65869
0
LINE
8
BLACK
6
CONTINUOUS
10
1.43295
20
1.65869
11
1.43188
21
1.65762
0
LINE
8
BLACK
6
CONTINUOUS
10
1.43188
20
1.65762
11
1.43138
21
1.65661
0
LINE
8
BLACK
6
CONTINUOUS
10
1.43138
20
1.65661
11
1.43138
21
1.65426
0
LINE
8
BLACK
6
CONTINUOUS
10
1.43138
20
1.65426
11
1.43188
21
1.65325
0
LINE
8
BLACK
6
CONTINUOUS
10
1.43188
20
1.65325
11
1.43295
21
1.65218
0
LINE
8
BLACK
6
CONTINUOUS
10
1.43295
20
1.65218
11
1.43542
21
1.65156
0
LINE
8
BLACK
6
CONTINUOUS
10
1.43542
20
1.65156
11
1.44033
21
1.65156
0
LINE
8
BLACK
6
CONTINUOUS
10
1.44033
20
1.65156
11
1.44279
21
1.65218
0
LINE
8
BLACK
6
CONTINUOUS
10
1.44279
20
1.65218
11
1.44386
21
1.65325
0
LINE
8
BLACK
6
CONTINUOUS
10
1.44386
20
1.65325
11
1.44437
21
1.65426
0
LINE
8
BLACK
6
CONTINUOUS
10
1.44437
20
1.65426
11
1.44437
21
1.65661
0
LINE
8
BLACK
6
CONTINUOUS
10
1.44437
20
1.65661
11
1.44386
21
1.65762
0
LINE
8
BLACK
6
CONTINUOUS
10
1.44386
20
1.65762
11
1.44279
21
1.65869
0
LINE
8
BLACK
6
CONTINUOUS
10
1.44279
20
1.65869
11
1.44033
21
1.6593
0
LINE
8
BLACK
6
CONTINUOUS
10
1.44033
20
1.6593
11
1.43542
21
1.6593
0
LINE
8
BLACK
6
CONTINUOUS
10
1.44304
20
1.67769
11
1.44336
21
1.67766
0
LINE
8
BLACK
6
CONTINUOUS
10
1.44336
20
1.67766
11
1.44486
21
1.67691
0
LINE
8
BLACK
6
CONTINUOUS
10
1.44486
20
1.67691
11
1.44501
21
1.67674
0
LINE
8
BLACK
6
CONTINUOUS
10
1.44501
20
1.67674
11
1.44522
21
1.67665
0
LINE
8
BLACK
6
CONTINUOUS
10
1.44522
20
1.67665
11
1.44597
21
1.6759
0
LINE
8
BLACK
6
CONTINUOUS
10
1.44597
20
1.6759
11
1.44606
21
1.6757
0
LINE
8
BLACK
6
CONTINUOUS
10
1.44606
20
1.6757
11
1.44623
21
1.67555
0
LINE
8
BLACK
6
CONTINUOUS
10
1.44623
20
1.67555
11
1.44698
21
1.67405
0
LINE
8
BLACK
6
CONTINUOUS
10
1.44698
20
1.67405
11
1.447
21
1.67373
0
LINE
8
BLACK
6
CONTINUOUS
10
1.447
20
1.67373
11
1.44712
21
1.67343
0
LINE
8
BLACK
6
CONTINUOUS
10
1.44712
20
1.67343
11
1.44712
21
1.67043
0
LINE
8
BLACK
6
CONTINUOUS
10
1.44712
20
1.67043
11
1.447
21
1.67013
0
LINE
8
BLACK
6
CONTINUOUS
10
1.447
20
1.67013
11
1.44698
21
1.66981
0
LINE
8
BLACK
6
CONTINUOUS
10
1.44698
20
1.66981
11
1.44623
21
1.66832
0
LINE
8
BLACK
6
CONTINUOUS
10
1.44623
20
1.66832
11
1.44606
21
1.66817
0
LINE
8
BLACK
6
CONTINUOUS
10
1.44606
20
1.66817
11
1.44597
21
1.66796
0
LINE
8
BLACK
6
CONTINUOUS
10
1.44597
20
1.66796
11
1.44522
21
1.66721
0
LINE
8
BLACK
6
CONTINUOUS
10
1.44522
20
1.66721
11
1.44501
21
1.66712
0
LINE
8
BLACK
6
CONTINUOUS
10
1.44501
20
1.66712
11
1.44486
21
1.66695
0
LINE
8
BLACK
6
CONTINUOUS
10
1.44486
20
1.66695
11
1.44336
21
1.6662
0
LINE
8
BLACK
6
CONTINUOUS
10
1.44336
20
1.6662
11
1.44304
21
1.66618
0
LINE
8
BLACK
6
CONTINUOUS
10
1.44304
20
1.66618
11
1.44275
21
1.66605
0
LINE
8
BLACK
6
CONTINUOUS
10
1.44275
20
1.66605
11
1.43
21
1.66605
0
LINE
8
BLACK
6
CONTINUOUS
10
1.43
20
1.66605
11
1.42902
21
1.66646
0
LINE
8
BLACK
6
CONTINUOUS
10
1.42902
20
1.66646
11
1.42862
21
1.66743
0
LINE
8
BLACK
6
CONTINUOUS
10
1.42862
20
1.66743
11
1.42902
21
1.66841
0
LINE
8
BLACK
6
CONTINUOUS
10
1.42902
20
1.66841
11
1.43
21
1.66881
0
LINE
8
BLACK
6
CONTINUOUS
10
1.43
20
1.66881
11
1.44242
21
1.66881
0
LINE
8
BLACK
6
CONTINUOUS
10
1.44242
20
1.66881
11
1.44343
21
1.66931
0
LINE
8
BLACK
6
CONTINUOUS
10
1.44343
20
1.66931
11
1.44386
21
1.66975
0
LINE
8
BLACK
6
CONTINUOUS
10
1.44386
20
1.66975
11
1.44437
21
1.67076
0
LINE
8
BLACK
6
CONTINUOUS
10
1.44437
20
1.67076
11
1.44437
21
1.67311
0
LINE
8
BLACK
6
CONTINUOUS
10
1.44437
20
1.67311
11
1.44386
21
1.67411
0
LINE
8
BLACK
6
CONTINUOUS
10
1.44386
20
1.67411
11
1.44343
21
1.67455
0
LINE
8
BLACK
6
CONTINUOUS
10
1.44343
20
1.67455
11
1.44242
21
1.67505
0
LINE
8
BLACK
6
CONTINUOUS
10
1.44242
20
1.67505
11
1.43
21
1.67505
0
LINE
8
BLACK
6
CONTINUOUS
10
1.43
20
1.67505
11
1.42902
21
1.67546
0
LINE
8
BLACK
6
CONTINUOUS
10
1.42902
20
1.67546
11
1.42862
21
1.67643
0
LINE
8
BLACK
6
CONTINUOUS
10
1.42862
20
1.67643
11
1.42902
21
1.6774
0
LINE
8
BLACK
6
CONTINUOUS
10
1.42902
20
1.6774
11
1.43
21
1.67781
0
LINE
8
BLACK
6
CONTINUOUS
10
1.43
20
1.67781
11
1.44275
21
1.67781
0
LINE
8
BLACK
6
CONTINUOUS
10
1.44275
20
1.67781
11
1.44304
21
1.67769
0
LINE
8
BLACK
6
CONTINUOUS
10
1.43097
20
1.69165
11
1.43138
21
1.69068
0
LINE
8
BLACK
6
CONTINUOUS
10
1.43138
20
1.69068
11
1.43138
21
1.68756
0
LINE
8
BLACK
6
CONTINUOUS
10
1.43138
20
1.68756
11
1.44575
21
1.68756
0
LINE
8
BLACK
6
CONTINUOUS
10
1.44575
20
1.68756
11
1.44672
21
1.68715
0
LINE
8
BLACK
6
CONTINUOUS
10
1.44672
20
1.68715
11
1.44712
21
1.68618
0
LINE
8
BLACK
6
CONTINUOUS
10
1.44712
20
1.68618
11
1.44672
21
1.6852
0
LINE
8
BLACK
6
CONTINUOUS
10
1.44672
20
1.6852
11
1.44575
21
1.6848
0
LINE
8
BLACK
6
CONTINUOUS
10
1.44575
20
1.6848
11
1.43138
21
1.6848
0
LINE
8
BLACK
6
CONTINUOUS
10
1.43138
20
1.6848
11
1.43138
21
1.68168
0
LINE
8
BLACK
6
CONTINUOUS
10
1.43138
20
1.68168
11
1.43097
21
1.68071
0
LINE
8
BLACK
6
CONTINUOUS
10
1.43097
20
1.68071
11
1.43
21
1.6803
0
LINE
8
BLACK
6
CONTINUOUS
10
1.43
20
1.6803
11
1.42902
21
1.68071
0
LINE
8
BLACK
6
CONTINUOUS
10
1.42902
20
1.68071
11
1.42862
21
1.68168
0
LINE
8
BLACK
6
CONTINUOUS
10
1.42862
20
1.68168
11
1.42862
21
1.69068
0
LINE
8
BLACK
6
CONTINUOUS
10
1.42862
20
1.69068
11
1.42902
21
1.69165
0
LINE
8
BLACK
6
CONTINUOUS
10
1.42902
20
1.69165
11
1.43
21
1.69206
0
LINE
8
BLACK
6
CONTINUOUS
10
1.43
20
1.69206
11
1.43097
21
1.69165
0
LINE
8
BLACK
6
CONTINUOUS
10
0.108709
20
0.683979
11
0.112616
21
0.696918
0
LINE
8
BLACK
6
CONTINUOUS
10
0.112616
20
0.696918
11
0.11794
21
0.709341
0
LINE
8
BLACK
6
CONTINUOUS
10
0.11794
20
0.709341
11
0.124616
21
0.721093
0
LINE
8
BLACK
6
CONTINUOUS
10
0.124616
20
0.721093
11
0.132561
21
0.732027
0
LINE
8
BLACK
6
CONTINUOUS
10
0.132561
20
0.732027
11
0.141675
21
0.742008
0
LINE
8
BLACK
6
CONTINUOUS
10
0.141675
20
0.742008
11
0.151844
21
0.750911
0
LINE
8
BLACK
6
CONTINUOUS
10
0.151844
20
0.750911
11
0.162943
21
0.758624
0
LINE
8
BLACK
6
CONTINUOUS
10
0.162943
20
0.758624
11
0.174832
21
0.765053
0
LINE
8
BLACK
6
CONTINUOUS
10
0.174832
20
0.765053
11
0.187364
21
0.770116
0
LINE
8
BLACK
6
CONTINUOUS
10
0.187364
20
0.770116
11
0.200381
21
0.773751
0
LINE
8
BLACK
6
CONTINUOUS
10
0.200381
20
0.773751
11
0.213723
21
0.775912
0
LINE
8
BLACK
6
CONTINUOUS
10
0.213723
20
0.775912
11
0.227223
21
0.776572
0
LINE
8
BLACK
6
CONTINUOUS
10
0.227223
20
0.776572
11
0.240712
21
0.775723
0
LINE
8
BLACK
6
CONTINUOUS
10
0.240712
20
0.775723
11
0.254023
21
0.773376
0
LINE
8
BLACK
6
CONTINUOUS
10
0.254023
20
0.773376
11
0.266989
21
0.76956
0
LINE
8
BLACK
6
CONTINUOUS
10
0.266989
20
0.76956
11
0.279448
21
0.764323
0
LINE
8
BLACK
6
CONTINUOUS
10
0.279448
20
0.764323
11
0.291247
21
0.757729
0
LINE
8
BLACK
6
CONTINUOUS
10
0.291247
20
0.757729
11
0.302236
21
0.749861
0
LINE
8
BLACK
6
CONTINUOUS
10
0.302236
20
0.749861
11
0.312281
21
0.740817
0
LINE
8
BLACK
6
CONTINUOUS
10
0.312281
20
0.740817
11
0.321254
21
0.73071
0
LINE
8
BLACK
6
CONTINUOUS
10
0.321254
20
0.73071
11
0.329045
21
0.719665
0
LINE
8
BLACK
6
CONTINUOUS
10
0.329045
20
0.719665
11
0.335556
21
0.707821
0
LINE
8
BLACK
6
CONTINUOUS
10
0.335556
20
0.707821
11
0.340707
21
0.695325
0
LINE
8
BLACK
6
CONTINUOUS
10
0.340707
20
0.695325
11
0.344432
21
0.682333
0
LINE
8
BLACK
6
CONTINUOUS
10
0.344432
20
0.682333
11
0.346686
21
0.669007
0
LINE
8
BLACK
6
CONTINUOUS
10
0.346686
20
0.669007
11
0.347441
21
0.655512
0
LINE
8
BLACK
6
CONTINUOUS
10
0.347441
20
0.655512
11
0.347394
21
0.652132
0
LINE
8
BLACK
6
CONTINUOUS
10
0.347394
20
0.652132
11
0.346263
21
0.638663
0
LINE
8
BLACK
6
CONTINUOUS
10
0.346263
20
0.638663
11
0.343638
21
0.625405
0
LINE
8
BLACK
6
CONTINUOUS
10
0.343638
20
0.625405
11
0.339551
21
0.612521
0
LINE
8
BLACK
6
CONTINUOUS
10
0.339551
20
0.612521
11
0.334053
21
0.600174
0
LINE
8
BLACK
6
CONTINUOUS
10
0.334053
20
0.600174
11
0.327214
21
0.588517
0
LINE
8
BLACK
6
CONTINUOUS
10
0.327214
20
0.588517
11
0.319118
21
0.577694
0
LINE
8
BLACK
6
CONTINUOUS
10
0.319118
20
0.577694
11
0.309865
21
0.567841
0
LINE
8
BLACK
6
CONTINUOUS
10
0.309865
20
0.567841
11
0.299573
21
0.559082
0
LINE
8
BLACK
6
CONTINUOUS
10
0.299573
20
0.559082
11
0.288367
21
0.551524
0
LINE
8
BLACK
6
CONTINUOUS
10
0.288367
20
0.551524
11
0.27639
21
0.545262
0
LINE
8
BLACK
6
CONTINUOUS
10
0.27639
20
0.545262
11
0.263788
21
0.540374
0
LINE
8
BLACK
6
CONTINUOUS
10
0.263788
20
0.540374
11
0.250721
21
0.536921
0
LINE
8
BLACK
6
CONTINUOUS
10
0.250721
20
0.536921
11
0.23735
21
0.534947
0
LINE
8
BLACK
6
CONTINUOUS
10
0.23735
20
0.534947
11
0.223843
21
0.534475
0
LINE
8
BLACK
6
CONTINUOUS
10
0.223843
20
0.534475
11
0.210367
21
0.535512
0
LINE
8
BLACK
6
CONTINUOUS
10
0.210367
20
0.535512
11
0.19709
21
0.538045
0
LINE
8
BLACK
6
CONTINUOUS
10
0.19709
20
0.538045
11
0.184179
21
0.542042
0
LINE
8
BLACK
6
CONTINUOUS
10
0.184179
20
0.542042
11
0.171793
21
0.547453
0
LINE
8
BLACK
6
CONTINUOUS
10
0.171793
20
0.547453
11
0.160088
21
0.554211
0
LINE
8
BLACK
6
CONTINUOUS
10
0.160088
20
0.554211
11
0.149209
21
0.562231
0
LINE
8
BLACK
6
CONTINUOUS
10
0.149209
20
0.562231
11
0.139293
21
0.571414
0
LINE
8
BLACK
6
CONTINUOUS
10
0.139293
20
0.571414
11
0.130461
21
0.581646
0
LINE
8
BLACK
6
CONTINUOUS
10
0.130461
20
0.581646
11
0.122825
21
0.592798
0
LINE
8
BLACK
6
CONTINUOUS
10
0.122825
20
0.592798
11
0.11648
21
0.604732
0
LINE
8
BLACK
6
CONTINUOUS
10
0.11648
20
0.604732
11
0.111504
21
0.617298
0
LINE
8
BLACK
6
CONTINUOUS
10
0.111504
20
0.617298
11
0.10796
21
0.630341
0
LINE
8
BLACK
6
CONTINUOUS
10
0.10796
20
0.630341
11
0.105893
21
0.643698
0
LINE
8
BLACK
6
CONTINUOUS
10
0.105893
20
0.643698
11
0.105327
21
0.657202
0
LINE
8
BLACK
6
CONTINUOUS
10
0.105327
20
0.657202
11
0.105462
21
0.659135
0
LINE
8
BLACK
6
CONTINUOUS
10
0.105462
20
0.659135
11
0.10627
21
0.670685
0
LINE
8
BLACK
6
CONTINUOUS
10
0.10627
20
0.670685
11
0.108709
21
0.683979
0
LINE
8
BLACK
6
CONTINUOUS
10
0.113301
20
0.632711
11
0.116671
21
0.619866
0
LINE
8
BLACK
6
CONTINUOUS
10
0.116671
20
0.619866
11
0.121495
21
0.607493
0
LINE
8
BLACK
6
CONTINUOUS
10
0.121495
20
0.607493
11
0.127709
21
0.595756
0
LINE
8
BLACK
6
CONTINUOUS
10
0.127709
20
0.595756
11
0.135231
21
0.584811
0
LINE
8
BLACK
6
CONTINUOUS
10
0.135231
20
0.584811
11
0.143962
21
0.574804
0
LINE
8
BLACK
6
CONTINUOUS
10
0.143962
20
0.574804
11
0.153784
21
0.565866
0
LINE
8
BLACK
6
CONTINUOUS
10
0.153784
20
0.565866
11
0.164569
21
0.558116
0
LINE
8
BLACK
6
CONTINUOUS
10
0.164569
20
0.558116
11
0.176173
21
0.551658
0
LINE
8
BLACK
6
CONTINUOUS
10
0.176173
20
0.551658
11
0.188442
21
0.546576
0
LINE
8
BLACK
6
CONTINUOUS
10
0.188442
20
0.546576
11
0.201215
21
0.542937
0
LINE
8
BLACK
6
CONTINUOUS
10
0.201215
20
0.542937
11
0.21432
21
0.540791
0
LINE
8
BLACK
6
CONTINUOUS
10
0.21432
20
0.540791
11
0.227586
21
0.540166
0
LINE
8
BLACK
6
CONTINUOUS
10
0.227586
20
0.540166
11
0.240835
21
0.541069
0
LINE
8
BLACK
6
CONTINUOUS
10
0.240835
20
0.541069
11
0.253893
21
0.543489
0
LINE
8
BLACK
6
CONTINUOUS
10
0.253893
20
0.543489
11
0.266587
21
0.547394
0
LINE
8
BLACK
6
CONTINUOUS
10
0.266587
20
0.547394
11
0.278747
21
0.552732
0
LINE
8
BLACK
6
CONTINUOUS
10
0.278747
20
0.552732
11
0.290213
21
0.559432
0
LINE
8
BLACK
6
CONTINUOUS
10
0.290213
20
0.559432
11
0.300833
21
0.567406
0
LINE
8
BLACK
6
CONTINUOUS
10
0.300833
20
0.567406
11
0.310466
21
0.576547
0
LINE
8
BLACK
6
CONTINUOUS
10
0.310466
20
0.576547
11
0.318985
21
0.586736
0
LINE
8
BLACK
6
CONTINUOUS
10
0.318985
20
0.586736
11
0.326276
21
0.597836
0
LINE
8
BLACK
6
CONTINUOUS
10
0.326276
20
0.597836
11
0.332243
21
0.6097
0
LINE
8
BLACK
6
CONTINUOUS
10
0.332243
20
0.6097
11
0.336807
21
0.622171
0
LINE
8
BLACK
6
CONTINUOUS
10
0.336807
20
0.622171
11
0.339908
21
0.635085
0
LINE
8
BLACK
6
CONTINUOUS
10
0.339908
20
0.635085
11
0.341503
21
0.648269
0
LINE
8
BLACK
6
CONTINUOUS
10
0.341503
20
0.648269
11
0.341731
21
0.655512
0
LINE
8
BLACK
6
CONTINUOUS
10
0.341731
20
0.655512
11
0.340966
21
0.66877
0
LINE
8
BLACK
6
CONTINUOUS
10
0.340966
20
0.66877
11
0.338683
21
0.681853
0
LINE
8
BLACK
6
CONTINUOUS
10
0.338683
20
0.681853
11
0.334911
21
0.694586
0
LINE
8
BLACK
6
CONTINUOUS
10
0.334911
20
0.694586
11
0.329701
21
0.706802
0
LINE
8
BLACK
6
CONTINUOUS
10
0.329701
20
0.706802
11
0.323121
21
0.718337
0
LINE
8
BLACK
6
CONTINUOUS
10
0.323121
20
0.718337
11
0.315259
21
0.72904
0
LINE
8
BLACK
6
CONTINUOUS
10
0.315259
20
0.72904
11
0.306219
21
0.738769
0
LINE
8
BLACK
6
CONTINUOUS
10
0.306219
20
0.738769
11
0.29612
21
0.747394
0
LINE
8
BLACK
6
CONTINUOUS
10
0.29612
20
0.747394
11
0.285097
21
0.754801
0
LINE
8
BLACK
6
CONTINUOUS
10
0.285097
20
0.754801
11
0.273296
21
0.760892
0
LINE
8
BLACK
6
CONTINUOUS
10
0.273296
20
0.760892
11
0.260873
21
0.765586
0
LINE
8
BLACK
6
CONTINUOUS
10
0.260873
20
0.765586
11
0.247993
21
0.768821
0
LINE
8
BLACK
6
CONTINUOUS
10
0.247993
20
0.768821
11
0.234826
21
0.770555
0
LINE
8
BLACK
6
CONTINUOUS
10
0.234826
20
0.770555
11
0.221547
21
0.770763
0
LINE
8
BLACK
6
CONTINUOUS
10
0.221547
20
0.770763
11
0.208333
21
0.769444
0
LINE
8
BLACK
6
CONTINUOUS
10
0.208333
20
0.769444
11
0.195357
21
0.766615
0
LINE
8
BLACK
6
CONTINUOUS
10
0.195357
20
0.766615
11
0.182793
21
0.762313
0
LINE
8
BLACK
6
CONTINUOUS
10
0.182793
20
0.762313
11
0.170806
21
0.756596
0
LINE
8
BLACK
6
CONTINUOUS
10
0.170806
20
0.756596
11
0.159556
21
0.749539
0
LINE
8
BLACK
6
CONTINUOUS
10
0.159556
20
0.749539
11
0.149192
21
0.741236
0
LINE
8
BLACK
6
CONTINUOUS
10
0.149192
20
0.741236
11
0.139851
21
0.731796
0
LINE
8
BLACK
6
CONTINUOUS
10
0.139851
20
0.731796
11
0.131656
21
0.721345
0
LINE
8
BLACK
6
CONTINUOUS
10
0.131656
20
0.721345
11
0.124717
21
0.710022
0
LINE
8
BLACK
6
CONTINUOUS
10
0.124717
20
0.710022
11
0.119126
21
0.697976
0
LINE
8
BLACK
6
CONTINUOUS
10
0.119126
20
0.697976
11
0.114956
21
0.685367
0
LINE
8
BLACK
6
CONTINUOUS
10
0.114956
20
0.685367
11
0.112263
21
0.672363
0
LINE
8
BLACK
6
CONTINUOUS
10
0.112263
20
0.672363
11
0.111082
21
0.659135
0
LINE
8
BLACK
6
CONTINUOUS
10
0.111082
20
0.659135
11
0.11143
21
0.645859
0
LINE
8
BLACK
6
CONTINUOUS
10
0.11143
20
0.645859
11
0.113301
21
0.632711
  0
ENDSEC
  0
EOF
