  0
SECTION
  2
HEADER
  9
$ANGBASE
  50
0.0
  9
$ANGDIR
  70
1
  9
$MEASUREMENT
  70
0
  0
ENDSEC
  0
SECTION
  2
TABLES
  0
TABLE
  2
LTYPE
  70
4
  0
LTYPE
  5
40F
  2
CONTINUOUS
  70
0
  3
Solid line
  72
65
  73
0
  40
0.0
  0
LTYPE
  5
410
  2
DASHDOT
 70
0
  3
Dash Dot ____ _ ____ _
 72
65
 73
4
 40
2.0
 49
1.25
 49
-0.25
 49
0.25
 49
-0.25
  0
LTYPE
  5
411
  2
DASHED
 70
0
  3
Dashed __ __ __ __ __
 72
65
 73
2
 40
0.75
 49
0.5
 49
-0.25
  0
LTYPE
  5
43B
  2
DOTTED
 70
0
  3
Dotted .  .  .  .
 72
65
 73
2
 40
0.2
 49
0.0
 49
-0.2
  0
ENDTAB
  0
TABLE
  2
STYLE
  70
4
  0
STYLE
  2
KICAD
  70
0
  40
0
  41
1
  42
1
  50
0
  71
0
  3
isocp.shx
  0
STYLE
  2
KICADB
  70
0
  40
0
  41
1
  42
1
  50
0
  71
0
  3
isocp.shx
  0
STYLE
  2
KICADI
  70
0
  40
0
  41
1
  42
1
  50
15
  71
0
  3
isocp.shx
  0
STYLE
  2
KICADBI
  70
0
  40
0
  41
1
  42
1
  50
15
  71
0
  3
isocp.shx
  0
ENDTAB
  0
TABLE
  2
LAYER
  70
1
  0
LAYER
  2
BLACK
  70
0
  62
7
  6
CONTINUOUS
  0
ENDTAB
  0
ENDSEC
  0
SECTION
  2
ENTITIES
0
LINE
8
BLACK
6
CONTINUOUS
10
4.07384
20
-6.1488
11
4.07397
21
-6.1489
0
LINE
8
BLACK
6
CONTINUOUS
10
4.07397
20
-6.1489
11
4.07532
21
-6.14867
0
LINE
8
BLACK
6
CONTINUOUS
10
4.07532
20
-6.14867
11
4.07707
21
-6.14968
0
LINE
8
BLACK
6
CONTINUOUS
10
4.07707
20
-6.14968
11
4.07776
21
-6.15157
0
LINE
8
BLACK
6
CONTINUOUS
10
4.07776
20
-6.15157
11
4.07776
21
-6.21752
0
LINE
8
BLACK
6
CONTINUOUS
10
4.07776
20
-6.21752
11
4.9311
21
-6.21752
0
LINE
8
BLACK
6
CONTINUOUS
10
4.9311
20
-6.21752
11
4.93211
21
-6.2177
0
LINE
8
BLACK
6
CONTINUOUS
10
4.93211
20
-6.2177
11
4.93366
21
-6.219
0
LINE
8
BLACK
6
CONTINUOUS
10
4.93366
20
-6.219
11
4.93401
21
-6.22099
0
LINE
8
BLACK
6
CONTINUOUS
10
4.93401
20
-6.22099
11
4.933
21
-6.22273
0
LINE
8
BLACK
6
CONTINUOUS
10
4.933
20
-6.22273
11
4.9311
21
-6.22343
0
LINE
8
BLACK
6
CONTINUOUS
10
4.9311
20
-6.22343
11
4.07776
21
-6.22343
0
LINE
8
BLACK
6
CONTINUOUS
10
4.07776
20
-6.22343
11
4.07776
21
-6.26969
0
LINE
8
BLACK
6
CONTINUOUS
10
4.07776
20
-6.26969
11
4.07758
21
-6.27069
0
LINE
8
BLACK
6
CONTINUOUS
10
4.07758
20
-6.27069
11
4.07628
21
-6.27224
0
LINE
8
BLACK
6
CONTINUOUS
10
4.07628
20
-6.27224
11
4.07429
21
-6.27259
0
LINE
8
BLACK
6
CONTINUOUS
10
4.07429
20
-6.27259
11
4.07254
21
-6.27158
0
LINE
8
BLACK
6
CONTINUOUS
10
4.07254
20
-6.27158
11
4.07185
21
-6.26969
0
LINE
8
BLACK
6
CONTINUOUS
10
4.07185
20
-6.26969
11
4.07185
21
-6.22343
0
LINE
8
BLACK
6
CONTINUOUS
10
4.07185
20
-6.22343
11
3.80217
21
-6.22343
0
LINE
8
BLACK
6
CONTINUOUS
10
3.80217
20
-6.22343
11
3.80217
21
-6.26969
0
LINE
8
BLACK
6
CONTINUOUS
10
3.80217
20
-6.26969
11
3.80199
21
-6.27069
0
LINE
8
BLACK
6
CONTINUOUS
10
3.80199
20
-6.27069
11
3.80069
21
-6.27224
0
LINE
8
BLACK
6
CONTINUOUS
10
3.80069
20
-6.27224
11
3.7987
21
-6.27259
0
LINE
8
BLACK
6
CONTINUOUS
10
3.7987
20
-6.27259
11
3.79695
21
-6.27158
0
LINE
8
BLACK
6
CONTINUOUS
10
3.79695
20
-6.27158
11
3.79626
21
-6.26969
0
LINE
8
BLACK
6
CONTINUOUS
10
3.79626
20
-6.26969
11
3.79626
21
-6.22343
0
LINE
8
BLACK
6
CONTINUOUS
10
3.79626
20
-6.22343
11
2.94291
21
-6.22343
0
LINE
8
BLACK
6
CONTINUOUS
10
2.94291
20
-6.22343
11
2.9419
21
-6.22325
0
LINE
8
BLACK
6
CONTINUOUS
10
2.9419
20
-6.22325
11
2.94036
21
-6.22195
0
LINE
8
BLACK
6
CONTINUOUS
10
2.94036
20
-6.22195
11
2.94001
21
-6.21996
0
LINE
8
BLACK
6
CONTINUOUS
10
2.94001
20
-6.21996
11
2.94102
21
-6.21821
0
LINE
8
BLACK
6
CONTINUOUS
10
2.94102
20
-6.21821
11
2.94291
21
-6.21752
0
LINE
8
BLACK
6
CONTINUOUS
10
2.94291
20
-6.21752
11
3.79626
21
-6.21752
0
LINE
8
BLACK
6
CONTINUOUS
10
3.79626
20
-6.21752
11
3.79626
21
-6.15157
0
LINE
8
BLACK
6
CONTINUOUS
10
3.79626
20
-6.15157
11
3.79633
21
-6.15119
0
LINE
8
BLACK
6
CONTINUOUS
10
3.79633
20
-6.15119
11
3.7963
21
-6.15106
0
LINE
8
BLACK
6
CONTINUOUS
10
3.7963
20
-6.15106
11
3.79637
21
-6.15095
0
LINE
8
BLACK
6
CONTINUOUS
10
3.79637
20
-6.15095
11
3.79644
21
-6.15056
0
LINE
8
BLACK
6
CONTINUOUS
10
3.79644
20
-6.15056
11
3.79693
21
-6.14998
0
LINE
8
BLACK
6
CONTINUOUS
10
3.79693
20
-6.14998
11
3.79731
21
-6.14931
0
LINE
8
BLACK
6
CONTINUOUS
10
3.79731
20
-6.14931
11
3.79756
21
-6.14922
0
LINE
8
BLACK
6
CONTINUOUS
10
3.79756
20
-6.14922
11
3.79774
21
-6.14902
0
LINE
8
BLACK
6
CONTINUOUS
10
3.79774
20
-6.14902
11
3.79849
21
-6.14888
0
LINE
8
BLACK
6
CONTINUOUS
10
3.79849
20
-6.14888
11
3.79921
21
-6.14862
0
LINE
8
BLACK
6
CONTINUOUS
10
3.79921
20
-6.14862
11
4.07283
21
-6.14862
0
LINE
8
BLACK
6
CONTINUOUS
10
4.07283
20
-6.14862
11
4.07384
21
-6.1488
0
LINE
8
BLACK
6
CONTINUOUS
10
3.80217
20
-6.15453
11
3.80217
21
-6.21752
0
LINE
8
BLACK
6
CONTINUOUS
10
3.80217
20
-6.21752
11
4.07185
21
-6.21752
0
LINE
8
BLACK
6
CONTINUOUS
10
4.07185
20
-6.21752
11
4.07185
21
-6.15453
0
LINE
8
BLACK
6
CONTINUOUS
10
4.07185
20
-6.15453
11
3.80217
21
-6.15453
0
LINE
8
BLACK
6
CONTINUOUS
10
4.32562
20
-4.90777
11
4.32504
21
-4.90638
0
LINE
8
BLACK
6
CONTINUOUS
10
4.32504
20
-4.90638
11
4.32504
21
-4.80638
0
LINE
8
BLACK
6
CONTINUOUS
10
4.32504
20
-4.80638
11
4.32562
21
-4.80499
0
LINE
8
BLACK
6
CONTINUOUS
10
4.32562
20
-4.80499
11
4.32701
21
-4.80441
0
LINE
8
BLACK
6
CONTINUOUS
10
4.32701
20
-4.80441
11
4.37701
21
-4.80441
0
LINE
8
BLACK
6
CONTINUOUS
10
4.37701
20
-4.80441
11
4.3784
21
-4.80499
0
LINE
8
BLACK
6
CONTINUOUS
10
4.3784
20
-4.80499
11
4.37898
21
-4.80638
0
LINE
8
BLACK
6
CONTINUOUS
10
4.37898
20
-4.80638
11
4.37898
21
-4.90638
0
LINE
8
BLACK
6
CONTINUOUS
10
4.37898
20
-4.90638
11
4.3784
21
-4.90777
0
LINE
8
BLACK
6
CONTINUOUS
10
4.3784
20
-4.90777
11
4.37701
21
-4.90835
0
LINE
8
BLACK
6
CONTINUOUS
10
4.37701
20
-4.90835
11
4.32701
21
-4.90835
0
LINE
8
BLACK
6
CONTINUOUS
10
4.32701
20
-4.90835
11
4.32562
21
-4.90777
0
LINE
8
BLACK
6
CONTINUOUS
10
4.33176
20
-4.90441
11
4.35119
21
-4.90441
0
LINE
8
BLACK
6
CONTINUOUS
10
4.35119
20
-4.90441
11
4.37504
21
-4.88056
0
LINE
8
BLACK
6
CONTINUOUS
10
4.37504
20
-4.88056
11
4.37504
21
-4.86113
0
LINE
8
BLACK
6
CONTINUOUS
10
4.37504
20
-4.86113
11
4.33176
21
-4.90441
0
LINE
8
BLACK
6
CONTINUOUS
10
4.35676
20
-4.90441
11
4.37504
21
-4.90441
0
LINE
8
BLACK
6
CONTINUOUS
10
4.37504
20
-4.90441
11
4.37504
21
-4.88613
0
LINE
8
BLACK
6
CONTINUOUS
10
4.37504
20
-4.88613
11
4.35676
21
-4.90441
0
LINE
8
BLACK
6
CONTINUOUS
10
4.32898
20
-4.88219
11
4.32898
21
-4.90163
0
LINE
8
BLACK
6
CONTINUOUS
10
4.32898
20
-4.90163
11
4.37504
21
-4.85556
0
LINE
8
BLACK
6
CONTINUOUS
10
4.37504
20
-4.85556
11
4.37504
21
-4.83613
0
LINE
8
BLACK
6
CONTINUOUS
10
4.37504
20
-4.83613
11
4.32898
21
-4.88219
0
LINE
8
BLACK
6
CONTINUOUS
10
4.32898
20
-4.85719
11
4.32898
21
-4.87663
0
LINE
8
BLACK
6
CONTINUOUS
10
4.32898
20
-4.87663
11
4.37504
21
-4.83056
0
LINE
8
BLACK
6
CONTINUOUS
10
4.37504
20
-4.83056
11
4.37504
21
-4.81113
0
LINE
8
BLACK
6
CONTINUOUS
10
4.37504
20
-4.81113
11
4.32898
21
-4.85719
0
LINE
8
BLACK
6
CONTINUOUS
10
4.35282
20
-4.80835
11
4.32898
21
-4.83219
0
LINE
8
BLACK
6
CONTINUOUS
10
4.32898
20
-4.83219
11
4.32898
21
-4.85163
0
LINE
8
BLACK
6
CONTINUOUS
10
4.32898
20
-4.85163
11
4.37226
21
-4.80835
0
LINE
8
BLACK
6
CONTINUOUS
10
4.37226
20
-4.80835
11
4.35282
21
-4.80835
0
LINE
8
BLACK
6
CONTINUOUS
10
4.32898
20
-4.80835
11
4.32898
21
-4.82663
0
LINE
8
BLACK
6
CONTINUOUS
10
4.32898
20
-4.82663
11
4.34726
21
-4.80835
0
LINE
8
BLACK
6
CONTINUOUS
10
4.34726
20
-4.80835
11
4.32898
21
-4.80835
0
LINE
8
BLACK
6
CONTINUOUS
10
3.11322
20
-5.82499
11
3.11566
21
-5.81538
0
LINE
8
BLACK
6
CONTINUOUS
10
3.11566
20
-5.81538
11
3.1195
21
-5.80623
0
LINE
8
BLACK
6
CONTINUOUS
10
3.1195
20
-5.80623
11
3.12465
21
-5.79775
0
LINE
8
BLACK
6
CONTINUOUS
10
3.12465
20
-5.79775
11
3.13099
21
-5.79012
0
LINE
8
BLACK
6
CONTINUOUS
10
3.13099
20
-5.79012
11
3.13839
21
-5.78352
0
LINE
8
BLACK
6
CONTINUOUS
10
3.13839
20
-5.78352
11
3.14669
21
-5.77808
0
LINE
8
BLACK
6
CONTINUOUS
10
3.14669
20
-5.77808
11
3.15569
21
-5.77392
0
LINE
8
BLACK
6
CONTINUOUS
10
3.15569
20
-5.77392
11
3.16522
21
-5.77115
0
LINE
8
BLACK
6
CONTINUOUS
10
3.16522
20
-5.77115
11
3.17505
21
-5.76981
0
LINE
8
BLACK
6
CONTINUOUS
10
3.17505
20
-5.76981
11
3.18497
21
-5.76994
0
LINE
8
BLACK
6
CONTINUOUS
10
3.18497
20
-5.76994
11
3.19476
21
-5.77153
0
LINE
8
BLACK
6
CONTINUOUS
10
3.19476
20
-5.77153
11
3.20421
21
-5.77456
0
LINE
8
BLACK
6
CONTINUOUS
10
3.20421
20
-5.77456
11
3.2131
21
-5.77895
0
LINE
8
BLACK
6
CONTINUOUS
10
3.2131
20
-5.77895
11
3.22125
21
-5.7846
0
LINE
8
BLACK
6
CONTINUOUS
10
3.22125
20
-5.7846
11
3.22848
21
-5.7914
0
LINE
8
BLACK
6
CONTINUOUS
10
3.22848
20
-5.7914
11
3.23462
21
-5.79919
0
LINE
8
BLACK
6
CONTINUOUS
10
3.23462
20
-5.79919
11
3.23954
21
-5.8078
0
LINE
8
BLACK
6
CONTINUOUS
10
3.23954
20
-5.8078
11
3.24314
21
-5.81705
0
LINE
8
BLACK
6
CONTINUOUS
10
3.24314
20
-5.81705
11
3.24533
21
-5.82672
0
LINE
8
BLACK
6
CONTINUOUS
10
3.24533
20
-5.82672
11
3.24606
21
-5.83661
0
LINE
8
BLACK
6
CONTINUOUS
10
3.24606
20
-5.83661
11
3.24597
21
-5.84012
0
LINE
8
BLACK
6
CONTINUOUS
10
3.24597
20
-5.84012
11
3.24472
21
-5.84996
0
LINE
8
BLACK
6
CONTINUOUS
10
3.24472
20
-5.84996
11
3.24203
21
-5.85951
0
LINE
8
BLACK
6
CONTINUOUS
10
3.24203
20
-5.85951
11
3.23795
21
-5.86855
0
LINE
8
BLACK
6
CONTINUOUS
10
3.23795
20
-5.86855
11
3.23259
21
-5.87689
0
LINE
8
BLACK
6
CONTINUOUS
10
3.23259
20
-5.87689
11
3.22605
21
-5.88435
0
LINE
8
BLACK
6
CONTINUOUS
10
3.22605
20
-5.88435
11
3.21847
21
-5.89076
0
LINE
8
BLACK
6
CONTINUOUS
10
3.21847
20
-5.89076
11
3.21004
21
-5.89598
0
LINE
8
BLACK
6
CONTINUOUS
10
3.21004
20
-5.89598
11
3.20092
21
-5.8999
0
LINE
8
BLACK
6
CONTINUOUS
10
3.20092
20
-5.8999
11
3.19133
21
-5.90242
0
LINE
8
BLACK
6
CONTINUOUS
10
3.19133
20
-5.90242
11
3.18147
21
-5.9035
0
LINE
8
BLACK
6
CONTINUOUS
10
3.18147
20
-5.9035
11
3.17156
21
-5.90311
0
LINE
8
BLACK
6
CONTINUOUS
10
3.17156
20
-5.90311
11
3.16181
21
-5.90126
0
LINE
8
BLACK
6
CONTINUOUS
10
3.16181
20
-5.90126
11
3.15245
21
-5.89799
0
LINE
8
BLACK
6
CONTINUOUS
10
3.15245
20
-5.89799
11
3.14367
21
-5.89337
0
LINE
8
BLACK
6
CONTINUOUS
10
3.14367
20
-5.89337
11
3.13567
21
-5.88751
0
LINE
8
BLACK
6
CONTINUOUS
10
3.13567
20
-5.88751
11
3.12862
21
-5.88052
0
LINE
8
BLACK
6
CONTINUOUS
10
3.12862
20
-5.88052
11
3.12269
21
-5.87258
0
LINE
8
BLACK
6
CONTINUOUS
10
3.12269
20
-5.87258
11
3.11799
21
-5.86384
0
LINE
8
BLACK
6
CONTINUOUS
10
3.11799
20
-5.86384
11
3.11464
21
-5.8545
0
LINE
8
BLACK
6
CONTINUOUS
10
3.11464
20
-5.8545
11
3.1127
21
-5.84477
0
LINE
8
BLACK
6
CONTINUOUS
10
3.1127
20
-5.84477
11
3.11224
21
-5.83517
0
LINE
8
BLACK
6
CONTINUOUS
10
3.11224
20
-5.83517
11
3.11223
21
-5.83486
0
LINE
8
BLACK
6
CONTINUOUS
10
3.11223
20
-5.83486
11
3.11322
21
-5.82499
0
LINE
8
BLACK
6
CONTINUOUS
10
3.12259
20
-5.85433
11
3.12624
21
-5.86333
0
LINE
8
BLACK
6
CONTINUOUS
10
3.12624
20
-5.86333
11
3.13132
21
-5.87161
0
LINE
8
BLACK
6
CONTINUOUS
10
3.13132
20
-5.87161
11
3.13767
21
-5.87895
0
LINE
8
BLACK
6
CONTINUOUS
10
3.13767
20
-5.87895
11
3.14515
21
-5.88516
0
LINE
8
BLACK
6
CONTINUOUS
10
3.14515
20
-5.88516
11
3.15353
21
-5.89005
0
LINE
8
BLACK
6
CONTINUOUS
10
3.15353
20
-5.89005
11
3.1626
21
-5.89352
0
LINE
8
BLACK
6
CONTINUOUS
10
3.1626
20
-5.89352
11
3.17212
21
-5.89545
0
LINE
8
BLACK
6
CONTINUOUS
10
3.17212
20
-5.89545
11
3.18182
21
-5.89581
0
LINE
8
BLACK
6
CONTINUOUS
10
3.18182
20
-5.89581
11
3.19145
21
-5.89458
0
LINE
8
BLACK
6
CONTINUOUS
10
3.19145
20
-5.89458
11
3.20076
21
-5.89179
0
LINE
8
BLACK
6
CONTINUOUS
10
3.20076
20
-5.89179
11
3.20948
21
-5.88751
0
LINE
8
BLACK
6
CONTINUOUS
10
3.20948
20
-5.88751
11
3.21738
21
-5.88187
0
LINE
8
BLACK
6
CONTINUOUS
10
3.21738
20
-5.88187
11
3.22426
21
-5.87502
0
LINE
8
BLACK
6
CONTINUOUS
10
3.22426
20
-5.87502
11
3.22993
21
-5.86713
0
LINE
8
BLACK
6
CONTINUOUS
10
3.22993
20
-5.86713
11
3.23423
21
-5.85843
0
LINE
8
BLACK
6
CONTINUOUS
10
3.23423
20
-5.85843
11
3.23705
21
-5.84914
0
LINE
8
BLACK
6
CONTINUOUS
10
3.23705
20
-5.84914
11
3.23832
21
-5.83951
0
LINE
8
BLACK
6
CONTINUOUS
10
3.23832
20
-5.83951
11
3.23839
21
-5.83661
0
LINE
8
BLACK
6
CONTINUOUS
10
3.23839
20
-5.83661
11
3.2376
21
-5.82694
0
LINE
8
BLACK
6
CONTINUOUS
10
3.2376
20
-5.82694
11
3.23523
21
-5.81752
0
LINE
8
BLACK
6
CONTINUOUS
10
3.23523
20
-5.81752
11
3.23136
21
-5.80861
0
LINE
8
BLACK
6
CONTINUOUS
10
3.23136
20
-5.80861
11
3.22608
21
-5.80046
0
LINE
8
BLACK
6
CONTINUOUS
10
3.22608
20
-5.80046
11
3.21955
21
-5.79328
0
LINE
8
BLACK
6
CONTINUOUS
10
3.21955
20
-5.79328
11
3.21193
21
-5.78726
0
LINE
8
BLACK
6
CONTINUOUS
10
3.21193
20
-5.78726
11
3.20342
21
-5.78256
0
LINE
8
BLACK
6
CONTINUOUS
10
3.20342
20
-5.78256
11
3.19427
21
-5.77932
0
LINE
8
BLACK
6
CONTINUOUS
10
3.19427
20
-5.77932
11
3.18471
21
-5.77762
0
LINE
8
BLACK
6
CONTINUOUS
10
3.18471
20
-5.77762
11
3.175
21
-5.7775
0
LINE
8
BLACK
6
CONTINUOUS
10
3.175
20
-5.7775
11
3.1654
21
-5.77897
0
LINE
8
BLACK
6
CONTINUOUS
10
3.1654
20
-5.77897
11
3.15617
21
-5.78199
0
LINE
8
BLACK
6
CONTINUOUS
10
3.15617
20
-5.78199
11
3.14756
21
-5.78647
0
LINE
8
BLACK
6
CONTINUOUS
10
3.14756
20
-5.78647
11
3.13979
21
-5.7923
0
LINE
8
BLACK
6
CONTINUOUS
10
3.13979
20
-5.7923
11
3.13308
21
-5.79932
0
LINE
8
BLACK
6
CONTINUOUS
10
3.13308
20
-5.79932
11
3.12761
21
-5.80734
0
LINE
8
BLACK
6
CONTINUOUS
10
3.12761
20
-5.80734
11
3.12352
21
-5.81615
0
LINE
8
BLACK
6
CONTINUOUS
10
3.12352
20
-5.81615
11
3.12093
21
-5.82551
0
LINE
8
BLACK
6
CONTINUOUS
10
3.12093
20
-5.82551
11
3.11989
21
-5.83517
0
LINE
8
BLACK
6
CONTINUOUS
10
3.11989
20
-5.83517
11
3.12045
21
-5.84486
0
LINE
8
BLACK
6
CONTINUOUS
10
3.12045
20
-5.84486
11
3.12259
21
-5.85433
0
LINE
8
BLACK
6
CONTINUOUS
10
3.1464
20
-4.92992
11
3.14858
21
-4.90915
0
LINE
8
BLACK
6
CONTINUOUS
10
3.14858
20
-4.90915
11
3.15221
21
-4.88858
0
LINE
8
BLACK
6
CONTINUOUS
10
3.15221
20
-4.88858
11
3.15726
21
-4.86831
0
LINE
8
BLACK
6
CONTINUOUS
10
3.15726
20
-4.86831
11
3.16371
21
-4.84845
0
LINE
8
BLACK
6
CONTINUOUS
10
3.16371
20
-4.84845
11
3.17154
21
-4.82909
0
LINE
8
BLACK
6
CONTINUOUS
10
3.17154
20
-4.82909
11
3.18069
21
-4.81032
0
LINE
8
BLACK
6
CONTINUOUS
10
3.18069
20
-4.81032
11
3.19114
21
-4.79223
0
LINE
8
BLACK
6
CONTINUOUS
10
3.19114
20
-4.79223
11
3.20281
21
-4.77491
0
LINE
8
BLACK
6
CONTINUOUS
10
3.20281
20
-4.77491
11
3.21567
21
-4.75846
0
LINE
8
BLACK
6
CONTINUOUS
10
3.21567
20
-4.75846
11
3.22965
21
-4.74294
0
LINE
8
BLACK
6
CONTINUOUS
10
3.22965
20
-4.74294
11
3.24467
21
-4.72843
0
LINE
8
BLACK
6
CONTINUOUS
10
3.24467
20
-4.72843
11
3.26067
21
-4.715
0
LINE
8
BLACK
6
CONTINUOUS
10
3.26067
20
-4.715
11
3.27756
21
-4.70273
0
LINE
8
BLACK
6
CONTINUOUS
10
3.27756
20
-4.70273
11
3.29528
21
-4.69166
0
LINE
8
BLACK
6
CONTINUOUS
10
3.29528
20
-4.69166
11
3.31372
21
-4.68186
0
LINE
8
BLACK
6
CONTINUOUS
10
3.31372
20
-4.68186
11
3.33279
21
-4.67336
0
LINE
8
BLACK
6
CONTINUOUS
10
3.33279
20
-4.67336
11
3.35242
21
-4.66622
0
LINE
8
BLACK
6
CONTINUOUS
10
3.35242
20
-4.66622
11
3.3725
21
-4.66046
0
LINE
8
BLACK
6
CONTINUOUS
10
3.3725
20
-4.66046
11
3.39292
21
-4.65612
0
LINE
8
BLACK
6
CONTINUOUS
10
3.39292
20
-4.65612
11
3.41361
21
-4.65321
0
LINE
8
BLACK
6
CONTINUOUS
10
3.41361
20
-4.65321
11
3.43444
21
-4.65176
0
LINE
8
BLACK
6
CONTINUOUS
10
3.43444
20
-4.65176
11
3.45532
21
-4.65176
0
LINE
8
BLACK
6
CONTINUOUS
10
3.45532
20
-4.65176
11
3.47616
21
-4.65321
0
LINE
8
BLACK
6
CONTINUOUS
10
3.47616
20
-4.65321
11
3.49684
21
-4.65612
0
LINE
8
BLACK
6
CONTINUOUS
10
3.49684
20
-4.65612
11
3.51727
21
-4.66046
0
LINE
8
BLACK
6
CONTINUOUS
10
3.51727
20
-4.66046
11
3.53734
21
-4.66622
0
LINE
8
BLACK
6
CONTINUOUS
10
3.53734
20
-4.66622
11
3.55697
21
-4.67336
0
LINE
8
BLACK
6
CONTINUOUS
10
3.55697
20
-4.67336
11
3.57605
21
-4.68186
0
LINE
8
BLACK
6
CONTINUOUS
10
3.57605
20
-4.68186
11
3.59449
21
-4.69166
0
LINE
8
BLACK
6
CONTINUOUS
10
3.59449
20
-4.69166
11
3.6122
21
-4.70273
0
LINE
8
BLACK
6
CONTINUOUS
10
3.6122
20
-4.70273
11
3.6291
21
-4.715
0
LINE
8
BLACK
6
CONTINUOUS
10
3.6291
20
-4.715
11
3.64509
21
-4.72843
0
LINE
8
BLACK
6
CONTINUOUS
10
3.64509
20
-4.72843
11
3.66012
21
-4.74294
0
LINE
8
BLACK
6
CONTINUOUS
10
3.66012
20
-4.74294
11
3.67409
21
-4.75846
0
LINE
8
BLACK
6
CONTINUOUS
10
3.67409
20
-4.75846
11
3.68695
21
-4.77491
0
LINE
8
BLACK
6
CONTINUOUS
10
3.68695
20
-4.77491
11
3.69863
21
-4.79223
0
LINE
8
BLACK
6
CONTINUOUS
10
3.69863
20
-4.79223
11
3.70907
21
-4.81032
0
LINE
8
BLACK
6
CONTINUOUS
10
3.70907
20
-4.81032
11
3.71823
21
-4.82909
0
LINE
8
BLACK
6
CONTINUOUS
10
3.71823
20
-4.82909
11
3.72605
21
-4.84845
0
LINE
8
BLACK
6
CONTINUOUS
10
3.72605
20
-4.84845
11
3.7325
21
-4.86831
0
LINE
8
BLACK
6
CONTINUOUS
10
3.7325
20
-4.86831
11
3.73756
21
-4.88858
0
LINE
8
BLACK
6
CONTINUOUS
10
3.73756
20
-4.88858
11
3.74118
21
-4.90915
0
LINE
8
BLACK
6
CONTINUOUS
10
3.74118
20
-4.90915
11
3.74337
21
-4.92992
0
LINE
8
BLACK
6
CONTINUOUS
10
3.74337
20
-4.92992
11
3.74409
21
-4.95079
0
LINE
8
BLACK
6
CONTINUOUS
10
3.74409
20
-4.95079
11
3.74337
21
-4.97166
0
LINE
8
BLACK
6
CONTINUOUS
10
3.74337
20
-4.97166
11
3.74118
21
-4.99243
0
LINE
8
BLACK
6
CONTINUOUS
10
3.74118
20
-4.99243
11
3.73756
21
-5.013
0
LINE
8
BLACK
6
CONTINUOUS
10
3.73756
20
-5.013
11
3.7325
21
-5.03326
0
LINE
8
BLACK
6
CONTINUOUS
10
3.7325
20
-5.03326
11
3.72605
21
-5.05312
0
LINE
8
BLACK
6
CONTINUOUS
10
3.72605
20
-5.05312
11
3.71823
21
-5.07249
0
LINE
8
BLACK
6
CONTINUOUS
10
3.71823
20
-5.07249
11
3.70907
21
-5.09126
0
LINE
8
BLACK
6
CONTINUOUS
10
3.70907
20
-5.09126
11
3.69863
21
-5.10935
0
LINE
8
BLACK
6
CONTINUOUS
10
3.69863
20
-5.10935
11
3.68695
21
-5.12666
0
LINE
8
BLACK
6
CONTINUOUS
10
3.68695
20
-5.12666
11
3.67409
21
-5.14312
0
LINE
8
BLACK
6
CONTINUOUS
10
3.67409
20
-5.14312
11
3.66012
21
-5.15864
0
LINE
8
BLACK
6
CONTINUOUS
10
3.66012
20
-5.15864
11
3.64509
21
-5.17315
0
LINE
8
BLACK
6
CONTINUOUS
10
3.64509
20
-5.17315
11
3.6291
21
-5.18657
0
LINE
8
BLACK
6
CONTINUOUS
10
3.6291
20
-5.18657
11
3.6122
21
-5.19885
0
LINE
8
BLACK
6
CONTINUOUS
10
3.6122
20
-5.19885
11
3.59449
21
-5.20991
0
LINE
8
BLACK
6
CONTINUOUS
10
3.59449
20
-5.20991
11
3.57605
21
-5.21972
0
LINE
8
BLACK
6
CONTINUOUS
10
3.57605
20
-5.21972
11
3.55697
21
-5.22821
0
LINE
8
BLACK
6
CONTINUOUS
10
3.55697
20
-5.22821
11
3.53734
21
-5.23536
0
LINE
8
BLACK
6
CONTINUOUS
10
3.53734
20
-5.23536
11
3.51727
21
-5.24111
0
LINE
8
BLACK
6
CONTINUOUS
10
3.51727
20
-5.24111
11
3.49684
21
-5.24545
0
LINE
8
BLACK
6
CONTINUOUS
10
3.49684
20
-5.24545
11
3.47616
21
-5.24836
0
LINE
8
BLACK
6
CONTINUOUS
10
3.47616
20
-5.24836
11
3.45532
21
-5.24982
0
LINE
8
BLACK
6
CONTINUOUS
10
3.45532
20
-5.24982
11
3.43444
21
-5.24982
0
LINE
8
BLACK
6
CONTINUOUS
10
3.43444
20
-5.24982
11
3.41361
21
-5.24836
0
LINE
8
BLACK
6
CONTINUOUS
10
3.41361
20
-5.24836
11
3.39292
21
-5.24545
0
LINE
8
BLACK
6
CONTINUOUS
10
3.39292
20
-5.24545
11
3.3725
21
-5.24111
0
LINE
8
BLACK
6
CONTINUOUS
10
3.3725
20
-5.24111
11
3.35242
21
-5.23536
0
LINE
8
BLACK
6
CONTINUOUS
10
3.35242
20
-5.23536
11
3.33279
21
-5.22821
0
LINE
8
BLACK
6
CONTINUOUS
10
3.33279
20
-5.22821
11
3.31372
21
-5.21972
0
LINE
8
BLACK
6
CONTINUOUS
10
3.31372
20
-5.21972
11
3.29528
21
-5.20991
0
LINE
8
BLACK
6
CONTINUOUS
10
3.29528
20
-5.20991
11
3.27756
21
-5.19885
0
LINE
8
BLACK
6
CONTINUOUS
10
3.27756
20
-5.19885
11
3.26067
21
-5.18657
0
LINE
8
BLACK
6
CONTINUOUS
10
3.26067
20
-5.18657
11
3.24467
21
-5.17315
0
LINE
8
BLACK
6
CONTINUOUS
10
3.24467
20
-5.17315
11
3.22965
21
-5.15864
0
LINE
8
BLACK
6
CONTINUOUS
10
3.22965
20
-5.15864
11
3.21567
21
-5.14312
0
LINE
8
BLACK
6
CONTINUOUS
10
3.21567
20
-5.14312
11
3.20281
21
-5.12666
0
LINE
8
BLACK
6
CONTINUOUS
10
3.20281
20
-5.12666
11
3.19114
21
-5.10935
0
LINE
8
BLACK
6
CONTINUOUS
10
3.19114
20
-5.10935
11
3.18069
21
-5.09126
0
LINE
8
BLACK
6
CONTINUOUS
10
3.18069
20
-5.09126
11
3.17154
21
-5.07249
0
LINE
8
BLACK
6
CONTINUOUS
10
3.17154
20
-5.07249
11
3.16371
21
-5.05312
0
LINE
8
BLACK
6
CONTINUOUS
10
3.16371
20
-5.05312
11
3.15726
21
-5.03326
0
LINE
8
BLACK
6
CONTINUOUS
10
3.15726
20
-5.03326
11
3.15221
21
-5.013
0
LINE
8
BLACK
6
CONTINUOUS
10
3.15221
20
-5.013
11
3.14858
21
-4.99243
0
LINE
8
BLACK
6
CONTINUOUS
10
3.14858
20
-4.99243
11
3.1464
21
-4.97166
0
LINE
8
BLACK
6
CONTINUOUS
10
3.1464
20
-4.97166
11
3.14574
21
-4.95282
0
LINE
8
BLACK
6
CONTINUOUS
10
3.14574
20
-4.95282
11
3.14567
21
-4.95079
0
LINE
8
BLACK
6
CONTINUOUS
10
3.14567
20
-4.95079
11
3.1464
21
-4.92992
0
LINE
8
BLACK
6
CONTINUOUS
10
3.15663
20
-4.99438
11
3.16048
21
-5.01488
0
LINE
8
BLACK
6
CONTINUOUS
10
3.16048
20
-5.01488
11
3.16579
21
-5.03505
0
LINE
8
BLACK
6
CONTINUOUS
10
3.16579
20
-5.03505
11
3.17253
21
-5.05479
0
LINE
8
BLACK
6
CONTINUOUS
10
3.17253
20
-5.05479
11
3.18066
21
-5.07399
0
LINE
8
BLACK
6
CONTINUOUS
10
3.18066
20
-5.07399
11
3.19015
21
-5.09257
0
LINE
8
BLACK
6
CONTINUOUS
10
3.19015
20
-5.09257
11
3.20094
21
-5.11042
0
LINE
8
BLACK
6
CONTINUOUS
10
3.20094
20
-5.11042
11
3.21298
21
-5.12745
0
LINE
8
BLACK
6
CONTINUOUS
10
3.21298
20
-5.12745
11
3.2262
21
-5.14358
0
LINE
8
BLACK
6
CONTINUOUS
10
3.2262
20
-5.14358
11
3.24054
21
-5.15872
0
LINE
8
BLACK
6
CONTINUOUS
10
3.24054
20
-5.15872
11
3.25593
21
-5.1728
0
LINE
8
BLACK
6
CONTINUOUS
10
3.25593
20
-5.1728
11
3.27229
21
-5.18574
0
LINE
8
BLACK
6
CONTINUOUS
10
3.27229
20
-5.18574
11
3.28953
21
-5.19748
0
LINE
8
BLACK
6
CONTINUOUS
10
3.28953
20
-5.19748
11
3.30757
21
-5.20796
0
LINE
8
BLACK
6
CONTINUOUS
10
3.30757
20
-5.20796
11
3.3263
21
-5.21712
0
LINE
8
BLACK
6
CONTINUOUS
10
3.3263
20
-5.21712
11
3.34565
21
-5.22491
0
LINE
8
BLACK
6
CONTINUOUS
10
3.34565
20
-5.22491
11
3.3655
21
-5.23131
0
LINE
8
BLACK
6
CONTINUOUS
10
3.3655
20
-5.23131
11
3.38576
21
-5.23626
0
LINE
8
BLACK
6
CONTINUOUS
10
3.38576
20
-5.23626
11
3.40632
21
-5.23976
0
LINE
8
BLACK
6
CONTINUOUS
10
3.40632
20
-5.23976
11
3.42708
21
-5.24178
0
LINE
8
BLACK
6
CONTINUOUS
10
3.42708
20
-5.24178
11
3.44793
21
-5.2423
0
LINE
8
BLACK
6
CONTINUOUS
10
3.44793
20
-5.2423
11
3.46877
21
-5.24134
0
LINE
8
BLACK
6
CONTINUOUS
10
3.46877
20
-5.24134
11
3.48948
21
-5.23889
0
LINE
8
BLACK
6
CONTINUOUS
10
3.48948
20
-5.23889
11
3.50997
21
-5.23496
0
LINE
8
BLACK
6
CONTINUOUS
10
3.50997
20
-5.23496
11
3.53012
21
-5.22958
0
LINE
8
BLACK
6
CONTINUOUS
10
3.53012
20
-5.22958
11
3.54983
21
-5.22277
0
LINE
8
BLACK
6
CONTINUOUS
10
3.54983
20
-5.22277
11
3.56901
21
-5.21457
0
LINE
8
BLACK
6
CONTINUOUS
10
3.56901
20
-5.21457
11
3.58755
21
-5.20502
0
LINE
8
BLACK
6
CONTINUOUS
10
3.58755
20
-5.20502
11
3.60537
21
-5.19417
0
LINE
8
BLACK
6
CONTINUOUS
10
3.60537
20
-5.19417
11
3.62236
21
-5.18208
0
LINE
8
BLACK
6
CONTINUOUS
10
3.62236
20
-5.18208
11
3.63844
21
-5.1688
0
LINE
8
BLACK
6
CONTINUOUS
10
3.63844
20
-5.1688
11
3.65353
21
-5.1544
0
LINE
8
BLACK
6
CONTINUOUS
10
3.65353
20
-5.1544
11
3.66755
21
-5.13896
0
LINE
8
BLACK
6
CONTINUOUS
10
3.66755
20
-5.13896
11
3.68044
21
-5.12256
0
LINE
8
BLACK
6
CONTINUOUS
10
3.68044
20
-5.12256
11
3.69212
21
-5.10528
0
LINE
8
BLACK
6
CONTINUOUS
10
3.69212
20
-5.10528
11
3.70253
21
-5.0872
0
LINE
8
BLACK
6
CONTINUOUS
10
3.70253
20
-5.0872
11
3.71162
21
-5.06843
0
LINE
8
BLACK
6
CONTINUOUS
10
3.71162
20
-5.06843
11
3.71935
21
-5.04906
0
LINE
8
BLACK
6
CONTINUOUS
10
3.71935
20
-5.04906
11
3.72568
21
-5.02919
0
LINE
8
BLACK
6
CONTINUOUS
10
3.72568
20
-5.02919
11
3.73056
21
-5.00891
0
LINE
8
BLACK
6
CONTINUOUS
10
3.73056
20
-5.00891
11
3.73399
21
-4.98834
0
LINE
8
BLACK
6
CONTINUOUS
10
3.73399
20
-4.98834
11
3.73593
21
-4.96757
0
LINE
8
BLACK
6
CONTINUOUS
10
3.73593
20
-4.96757
11
3.73641
21
-4.95079
0
LINE
8
BLACK
6
CONTINUOUS
10
3.73641
20
-4.95079
11
3.73567
21
-4.92994
0
LINE
8
BLACK
6
CONTINUOUS
10
3.73567
20
-4.92994
11
3.73343
21
-4.90921
0
LINE
8
BLACK
6
CONTINUOUS
10
3.73343
20
-4.90921
11
3.72972
21
-4.88868
0
LINE
8
BLACK
6
CONTINUOUS
10
3.72972
20
-4.88868
11
3.72455
21
-4.86848
0
LINE
8
BLACK
6
CONTINUOUS
10
3.72455
20
-4.86848
11
3.71795
21
-4.84869
0
LINE
8
BLACK
6
CONTINUOUS
10
3.71795
20
-4.84869
11
3.70995
21
-4.82943
0
LINE
8
BLACK
6
CONTINUOUS
10
3.70995
20
-4.82943
11
3.7006
21
-4.81079
0
LINE
8
BLACK
6
CONTINUOUS
10
3.7006
20
-4.81079
11
3.68993
21
-4.79286
0
LINE
8
BLACK
6
CONTINUOUS
10
3.68993
20
-4.79286
11
3.67802
21
-4.77575
0
LINE
8
BLACK
6
CONTINUOUS
10
3.67802
20
-4.77575
11
3.6649
21
-4.75952
0
LINE
8
BLACK
6
CONTINUOUS
10
3.6649
20
-4.75952
11
3.65067
21
-4.74428
0
LINE
8
BLACK
6
CONTINUOUS
10
3.65067
20
-4.74428
11
3.63538
21
-4.7301
0
LINE
8
BLACK
6
CONTINUOUS
10
3.63538
20
-4.7301
11
3.61911
21
-4.71704
0
LINE
8
BLACK
6
CONTINUOUS
10
3.61911
20
-4.71704
11
3.60195
21
-4.70518
0
LINE
8
BLACK
6
CONTINUOUS
10
3.60195
20
-4.70518
11
3.58399
21
-4.69458
0
LINE
8
BLACK
6
CONTINUOUS
10
3.58399
20
-4.69458
11
3.56532
21
-4.68529
0
LINE
8
BLACK
6
CONTINUOUS
10
3.56532
20
-4.68529
11
3.54603
21
-4.67736
0
LINE
8
BLACK
6
CONTINUOUS
10
3.54603
20
-4.67736
11
3.52622
21
-4.67083
0
LINE
8
BLACK
6
CONTINUOUS
10
3.52622
20
-4.67083
11
3.50599
21
-4.66573
0
LINE
8
BLACK
6
CONTINUOUS
10
3.50599
20
-4.66573
11
3.48546
21
-4.66209
0
LINE
8
BLACK
6
CONTINUOUS
10
3.48546
20
-4.66209
11
3.46471
21
-4.65993
0
LINE
8
BLACK
6
CONTINUOUS
10
3.46471
20
-4.65993
11
3.44386
21
-4.65926
0
LINE
8
BLACK
6
CONTINUOUS
10
3.44386
20
-4.65926
11
3.42302
21
-4.66007
0
LINE
8
BLACK
6
CONTINUOUS
10
3.42302
20
-4.66007
11
3.40229
21
-4.66238
0
LINE
8
BLACK
6
CONTINUOUS
10
3.40229
20
-4.66238
11
3.38178
21
-4.66616
0
LINE
8
BLACK
6
CONTINUOUS
10
3.38178
20
-4.66616
11
3.36159
21
-4.6714
0
LINE
8
BLACK
6
CONTINUOUS
10
3.36159
20
-4.6714
11
3.34183
21
-4.67807
0
LINE
8
BLACK
6
CONTINUOUS
10
3.34183
20
-4.67807
11
3.3226
21
-4.68614
0
LINE
8
BLACK
6
CONTINUOUS
10
3.3226
20
-4.68614
11
3.30399
21
-4.69556
0
LINE
8
BLACK
6
CONTINUOUS
10
3.30399
20
-4.69556
11
3.2861
21
-4.70629
0
LINE
8
BLACK
6
CONTINUOUS
10
3.2861
20
-4.70629
11
3.26903
21
-4.71827
0
LINE
8
BLACK
6
CONTINUOUS
10
3.26903
20
-4.71827
11
3.25285
21
-4.73143
0
LINE
8
BLACK
6
CONTINUOUS
10
3.25285
20
-4.73143
11
3.23766
21
-4.74572
0
LINE
8
BLACK
6
CONTINUOUS
10
3.23766
20
-4.74572
11
3.22353
21
-4.76107
0
LINE
8
BLACK
6
CONTINUOUS
10
3.22353
20
-4.76107
11
3.21053
21
-4.77738
0
LINE
8
BLACK
6
CONTINUOUS
10
3.21053
20
-4.77738
11
3.19873
21
-4.79458
0
LINE
8
BLACK
6
CONTINUOUS
10
3.19873
20
-4.79458
11
3.18819
21
-4.81257
0
LINE
8
BLACK
6
CONTINUOUS
10
3.18819
20
-4.81257
11
3.17897
21
-4.83128
0
LINE
8
BLACK
6
CONTINUOUS
10
3.17897
20
-4.83128
11
3.1711
21
-4.8506
0
LINE
8
BLACK
6
CONTINUOUS
10
3.1711
20
-4.8506
11
3.16464
21
-4.87043
0
LINE
8
BLACK
6
CONTINUOUS
10
3.16464
20
-4.87043
11
3.15961
21
-4.89067
0
LINE
8
BLACK
6
CONTINUOUS
10
3.15961
20
-4.89067
11
3.15605
21
-4.91122
0
LINE
8
BLACK
6
CONTINUOUS
10
3.15605
20
-4.91122
11
3.15396
21
-4.93197
0
LINE
8
BLACK
6
CONTINUOUS
10
3.15396
20
-4.93197
11
3.15336
21
-4.95282
0
LINE
8
BLACK
6
CONTINUOUS
10
3.15336
20
-4.95282
11
3.15425
21
-4.97366
0
LINE
8
BLACK
6
CONTINUOUS
10
3.15425
20
-4.97366
11
3.15663
21
-4.99438
  0
ENDSEC
  0
EOF
