  0
SECTION
  2
HEADER
  9
$ANGBASE
  50
0.0
  9
$ANGDIR
  70
1
  9
$MEASUREMENT
  70
0
  0
ENDSEC
  0
SECTION
  2
TABLES
  0
TABLE
  2
LTYPE
  70
4
  0
LTYPE
  5
40F
  2
CONTINUOUS
  70
0
  3
Solid line
  72
65
  73
0
  40
0.0
  0
LTYPE
  5
410
  2
DASHDOT
 70
0
  3
Dash Dot ____ _ ____ _
 72
65
 73
4
 40
2.0
 49
1.25
 49
-0.25
 49
0.25
 49
-0.25
  0
LTYPE
  5
411
  2
DASHED
 70
0
  3
Dashed __ __ __ __ __
 72
65
 73
2
 40
0.75
 49
0.5
 49
-0.25
  0
LTYPE
  5
43B
  2
DOTTED
 70
0
  3
Dotted .  .  .  .
 72
65
 73
2
 40
0.2
 49
0.0
 49
-0.2
  0
ENDTAB
  0
TABLE
  2
STYLE
  70
4
  0
STYLE
  2
KICAD
  70
0
  40
0
  41
1
  42
1
  50
0
  71
0
  3
isocp.shx
  0
STYLE
  2
KICADB
  70
0
  40
0
  41
1
  42
1
  50
0
  71
0
  3
isocp.shx
  0
STYLE
  2
KICADI
  70
0
  40
0
  41
1
  42
1
  50
15
  71
0
  3
isocp.shx
  0
STYLE
  2
KICADBI
  70
0
  40
0
  41
1
  42
1
  50
15
  71
0
  3
isocp.shx
  0
ENDTAB
  0
TABLE
  2
LAYER
  70
1
  0
LAYER
  2
BLACK
  70
0
  62
7
  6
CONTINUOUS
  0
ENDTAB
  0
ENDSEC
  0
SECTION
  2
ENTITIES
0
LINE
8
BLACK
6
CONTINUOUS
10
0.100546
20
0.683639
11
0.10432
21
0.697064
0
LINE
8
BLACK
6
CONTINUOUS
10
0.10432
20
0.697064
11
0.109521
21
0.710003
0
LINE
8
BLACK
6
CONTINUOUS
10
0.109521
20
0.710003
11
0.11609
21
0.722305
0
LINE
8
BLACK
6
CONTINUOUS
10
0.11609
20
0.722305
11
0.123949
21
0.733825
0
LINE
8
BLACK
6
CONTINUOUS
10
0.123949
20
0.733825
11
0.133005
21
0.744429
0
LINE
8
BLACK
6
CONTINUOUS
10
0.133005
20
0.744429
11
0.143155
21
0.753993
0
LINE
8
BLACK
6
CONTINUOUS
10
0.143155
20
0.753993
11
0.154277
21
0.762405
0
LINE
8
BLACK
6
CONTINUOUS
10
0.154277
20
0.762405
11
0.166243
21
0.769567
0
LINE
8
BLACK
6
CONTINUOUS
10
0.166243
20
0.769567
11
0.178913
21
0.775394
0
LINE
8
BLACK
6
CONTINUOUS
10
0.178913
20
0.775394
11
0.192138
21
0.779819
0
LINE
8
BLACK
6
CONTINUOUS
10
0.192138
20
0.779819
11
0.205763
21
0.78279
0
LINE
8
BLACK
6
CONTINUOUS
10
0.205763
20
0.78279
11
0.21963
21
0.784272
0
LINE
8
BLACK
6
CONTINUOUS
10
0.21963
20
0.784272
11
0.233575
21
0.784248
0
LINE
8
BLACK
6
CONTINUOUS
10
0.233575
20
0.784248
11
0.247437
21
0.782717
0
LINE
8
BLACK
6
CONTINUOUS
10
0.247437
20
0.782717
11
0.261052
21
0.779699
0
LINE
8
BLACK
6
CONTINUOUS
10
0.261052
20
0.779699
11
0.274261
21
0.775228
0
LINE
8
BLACK
6
CONTINUOUS
10
0.274261
20
0.775228
11
0.28691
21
0.769356
0
LINE
8
BLACK
6
CONTINUOUS
10
0.28691
20
0.769356
11
0.298851
21
0.762153
0
LINE
8
BLACK
6
CONTINUOUS
10
0.298851
20
0.762153
11
0.309945
21
0.753702
0
LINE
8
BLACK
6
CONTINUOUS
10
0.309945
20
0.753702
11
0.32006
21
0.744103
0
LINE
8
BLACK
6
CONTINUOUS
10
0.32006
20
0.744103
11
0.32908
21
0.733467
0
LINE
8
BLACK
6
CONTINUOUS
10
0.32908
20
0.733467
11
0.336899
21
0.721919
0
LINE
8
BLACK
6
CONTINUOUS
10
0.336899
20
0.721919
11
0.343424
21
0.709595
0
LINE
8
BLACK
6
CONTINUOUS
10
0.343424
20
0.709595
11
0.34858
21
0.696637
0
LINE
8
BLACK
6
CONTINUOUS
10
0.34858
20
0.696637
11
0.352307
21
0.683199
0
LINE
8
BLACK
6
CONTINUOUS
10
0.352307
20
0.683199
11
0.354561
21
0.669437
0
LINE
8
BLACK
6
CONTINUOUS
10
0.354561
20
0.669437
11
0.355315
21
0.655512
0
LINE
8
BLACK
6
CONTINUOUS
10
0.355315
20
0.655512
11
0.355312
21
0.654612
0
LINE
8
BLACK
6
CONTINUOUS
10
0.355312
20
0.654612
11
0.35446
21
0.640692
0
LINE
8
BLACK
6
CONTINUOUS
10
0.35446
20
0.640692
11
0.352111
21
0.626946
0
LINE
8
BLACK
6
CONTINUOUS
10
0.352111
20
0.626946
11
0.34829
21
0.613534
0
LINE
8
BLACK
6
CONTINUOUS
10
0.34829
20
0.613534
11
0.343044
21
0.600613
0
LINE
8
BLACK
6
CONTINUOUS
10
0.343044
20
0.600613
11
0.336432
21
0.588334
0
LINE
8
BLACK
6
CONTINUOUS
10
0.336432
20
0.588334
11
0.328533
21
0.576842
0
LINE
8
BLACK
6
CONTINUOUS
10
0.328533
20
0.576842
11
0.31944
21
0.566269
0
LINE
8
BLACK
6
CONTINUOUS
10
0.31944
20
0.566269
11
0.309257
21
0.55674
0
LINE
8
BLACK
6
CONTINUOUS
10
0.309257
20
0.55674
11
0.298105
21
0.548367
0
LINE
8
BLACK
6
CONTINUOUS
10
0.298105
20
0.548367
11
0.286114
21
0.541247
0
LINE
8
BLACK
6
CONTINUOUS
10
0.286114
20
0.541247
11
0.273424
21
0.535464
0
LINE
8
BLACK
6
CONTINUOUS
10
0.273424
20
0.535464
11
0.260184
21
0.531085
0
LINE
8
BLACK
6
CONTINUOUS
10
0.260184
20
0.531085
11
0.246548
21
0.528162
0
LINE
8
BLACK
6
CONTINUOUS
10
0.246548
20
0.528162
11
0.232676
21
0.526729
0
LINE
8
BLACK
6
CONTINUOUS
10
0.232676
20
0.526729
11
0.218731
21
0.526802
0
LINE
8
BLACK
6
CONTINUOUS
10
0.218731
20
0.526802
11
0.204875
21
0.52838
0
LINE
8
BLACK
6
CONTINUOUS
10
0.204875
20
0.52838
11
0.191271
21
0.531446
0
LINE
8
BLACK
6
CONTINUOUS
10
0.191271
20
0.531446
11
0.178077
21
0.535964
0
LINE
8
BLACK
6
CONTINUOUS
10
0.178077
20
0.535964
11
0.165449
21
0.541879
0
LINE
8
BLACK
6
CONTINUOUS
10
0.165449
20
0.541879
11
0.153533
21
0.549124
0
LINE
8
BLACK
6
CONTINUOUS
10
0.153533
20
0.549124
11
0.142469
21
0.557614
0
LINE
8
BLACK
6
CONTINUOUS
10
0.142469
20
0.557614
11
0.132387
21
0.567248
0
LINE
8
BLACK
6
CONTINUOUS
10
0.132387
20
0.567248
11
0.123404
21
0.577916
0
LINE
8
BLACK
6
CONTINUOUS
10
0.123404
20
0.577916
11
0.115626
21
0.589491
0
LINE
8
BLACK
6
CONTINUOUS
10
0.115626
20
0.589491
11
0.109144
21
0.601838
0
LINE
8
BLACK
6
CONTINUOUS
10
0.109144
20
0.601838
11
0.104033
21
0.614813
0
LINE
8
BLACK
6
CONTINUOUS
10
0.104033
20
0.614813
11
0.100353
21
0.628264
0
LINE
8
BLACK
6
CONTINUOUS
10
0.100353
20
0.628264
11
0.0981473
21
0.642034
0
LINE
8
BLACK
6
CONTINUOUS
10
0.0981473
20
0.642034
11
0.0974417
21
0.655962
0
LINE
8
BLACK
6
CONTINUOUS
10
0.0974417
20
0.655962
11
0.0975181
21
0.657287
0
LINE
8
BLACK
6
CONTINUOUS
10
0.0975181
20
0.657287
11
0.0982445
21
0.669884
0
LINE
8
BLACK
6
CONTINUOUS
10
0.0982445
20
0.669884
11
0.100546
21
0.683639
0
LINE
8
BLACK
6
CONTINUOUS
10
0.101988
20
0.629072
11
0.105711
21
0.615371
0
LINE
8
BLACK
6
CONTINUOUS
10
0.105711
20
0.615371
11
0.110937
21
0.602171
0
LINE
8
BLACK
6
CONTINUOUS
10
0.110937
20
0.602171
11
0.117602
21
0.589635
0
LINE
8
BLACK
6
CONTINUOUS
10
0.117602
20
0.589635
11
0.125624
21
0.577921
0
LINE
8
BLACK
6
CONTINUOUS
10
0.125624
20
0.577921
11
0.134901
21
0.567173
0
LINE
8
BLACK
6
CONTINUOUS
10
0.134901
20
0.567173
11
0.145318
21
0.557527
0
LINE
8
BLACK
6
CONTINUOUS
10
0.145318
20
0.557527
11
0.156745
21
0.549102
0
LINE
8
BLACK
6
CONTINUOUS
10
0.156745
20
0.549102
11
0.169041
21
0.542003
0
LINE
8
BLACK
6
CONTINUOUS
10
0.169041
20
0.542003
11
0.182051
21
0.536319
0
LINE
8
BLACK
6
CONTINUOUS
10
0.182051
20
0.536319
11
0.195613
21
0.532121
0
LINE
8
BLACK
6
CONTINUOUS
10
0.195613
20
0.532121
11
0.209559
21
0.52946
0
LINE
8
BLACK
6
CONTINUOUS
10
0.209559
20
0.52946
11
0.223715
21
0.528371
0
LINE
8
BLACK
6
CONTINUOUS
10
0.223715
20
0.528371
11
0.237904
21
0.528867
0
LINE
8
BLACK
6
CONTINUOUS
10
0.237904
20
0.528867
11
0.251949
21
0.530941
0
LINE
8
BLACK
6
CONTINUOUS
10
0.251949
20
0.530941
11
0.265675
21
0.534567
0
LINE
8
BLACK
6
CONTINUOUS
10
0.265675
20
0.534567
11
0.278912
21
0.539701
0
LINE
8
BLACK
6
CONTINUOUS
10
0.278912
20
0.539701
11
0.291494
21
0.546279
0
LINE
8
BLACK
6
CONTINUOUS
10
0.291494
20
0.546279
11
0.303264
21
0.554218
0
LINE
8
BLACK
6
CONTINUOUS
10
0.303264
20
0.554218
11
0.314076
21
0.56342
0
LINE
8
BLACK
6
CONTINUOUS
10
0.314076
20
0.56342
11
0.323795
21
0.573769
0
LINE
8
BLACK
6
CONTINUOUS
10
0.323795
20
0.573769
11
0.332299
21
0.585138
0
LINE
8
BLACK
6
CONTINUOUS
10
0.332299
20
0.585138
11
0.339484
21
0.597383
0
LINE
8
BLACK
6
CONTINUOUS
10
0.339484
20
0.597383
11
0.345258
21
0.610353
0
LINE
8
BLACK
6
CONTINUOUS
10
0.345258
20
0.610353
11
0.349551
21
0.623886
0
LINE
8
BLACK
6
CONTINUOUS
10
0.349551
20
0.623886
11
0.352309
21
0.637813
0
LINE
8
BLACK
6
CONTINUOUS
10
0.352309
20
0.637813
11
0.353497
21
0.651961
0
LINE
8
BLACK
6
CONTINUOUS
10
0.353497
20
0.651961
11
0.353547
21
0.655512
0
LINE
8
BLACK
6
CONTINUOUS
10
0.353547
20
0.655512
11
0.352754
21
0.669687
0
LINE
8
BLACK
6
CONTINUOUS
10
0.352754
20
0.669687
11
0.350386
21
0.683686
0
LINE
8
BLACK
6
CONTINUOUS
10
0.350386
20
0.683686
11
0.346473
21
0.697333
0
LINE
8
BLACK
6
CONTINUOUS
10
0.346473
20
0.697333
11
0.341063
21
0.71046
0
LINE
8
BLACK
6
CONTINUOUS
10
0.341063
20
0.71046
11
0.334223
21
0.722901
0
LINE
8
BLACK
6
CONTINUOUS
10
0.334223
20
0.722901
11
0.326039
21
0.734502
0
LINE
8
BLACK
6
CONTINUOUS
10
0.326039
20
0.734502
11
0.316613
21
0.745119
0
LINE
8
BLACK
6
CONTINUOUS
10
0.316613
20
0.745119
11
0.306062
21
0.754619
0
LINE
8
BLACK
6
CONTINUOUS
10
0.306062
20
0.754619
11
0.294518
21
0.762884
0
LINE
8
BLACK
6
CONTINUOUS
10
0.294518
20
0.762884
11
0.282125
21
0.76981
0
LINE
8
BLACK
6
CONTINUOUS
10
0.282125
20
0.76981
11
0.269037
21
0.775312
0
LINE
8
BLACK
6
CONTINUOUS
10
0.269037
20
0.775312
11
0.255417
21
0.77932
0
LINE
8
BLACK
6
CONTINUOUS
10
0.255417
20
0.77932
11
0.241435
21
0.781786
0
LINE
8
BLACK
6
CONTINUOUS
10
0.241435
20
0.781786
11
0.227266
21
0.782677
0
LINE
8
BLACK
6
CONTINUOUS
10
0.227266
20
0.782677
11
0.213085
21
0.781984
0
LINE
8
BLACK
6
CONTINUOUS
10
0.213085
20
0.781984
11
0.19907
21
0.779714
0
LINE
8
BLACK
6
CONTINUOUS
10
0.19907
20
0.779714
11
0.185396
21
0.775896
0
LINE
8
BLACK
6
CONTINUOUS
10
0.185396
20
0.775896
11
0.172232
21
0.770577
0
LINE
8
BLACK
6
CONTINUOUS
10
0.172232
20
0.770577
11
0.159743
21
0.763825
0
LINE
8
BLACK
6
CONTINUOUS
10
0.159743
20
0.763825
11
0.148085
21
0.755722
0
LINE
8
BLACK
6
CONTINUOUS
10
0.148085
20
0.755722
11
0.137403
21
0.74637
0
LINE
8
BLACK
6
CONTINUOUS
10
0.137403
20
0.74637
11
0.127829
21
0.735886
0
LINE
8
BLACK
6
CONTINUOUS
10
0.127829
20
0.735886
11
0.119484
21
0.7244
0
LINE
8
BLACK
6
CONTINUOUS
10
0.119484
20
0.7244
11
0.112472
21
0.712055
0
LINE
8
BLACK
6
CONTINUOUS
10
0.112472
20
0.712055
11
0.106879
21
0.699006
0
LINE
8
BLACK
6
CONTINUOUS
10
0.106879
20
0.699006
11
0.102775
21
0.685414
0
LINE
8
BLACK
6
CONTINUOUS
10
0.102775
20
0.685414
11
0.100212
21
0.67145
0
LINE
8
BLACK
6
CONTINUOUS
10
0.100212
20
0.67145
11
0.0992218
21
0.657287
0
LINE
8
BLACK
6
CONTINUOUS
10
0.0992218
20
0.657287
11
0.0998163
21
0.643102
0
LINE
8
BLACK
6
CONTINUOUS
10
0.0998163
20
0.643102
11
0.101988
21
0.629072
0
LINE
8
BLACK
6
CONTINUOUS
10
1.07631
20
4.3404
11
1.0793
21
4.36563
0
LINE
8
BLACK
6
CONTINUOUS
10
1.0793
20
4.36563
11
1.08373
21
4.39065
0
LINE
8
BLACK
6
CONTINUOUS
10
1.08373
20
4.39065
11
1.0896
21
4.41537
0
LINE
8
BLACK
6
CONTINUOUS
10
1.0896
20
4.41537
11
1.09688
21
4.43971
0
LINE
8
BLACK
6
CONTINUOUS
10
1.09688
20
4.43971
11
1.10555
21
4.46359
0
LINE
8
BLACK
6
CONTINUOUS
10
1.10555
20
4.46359
11
1.11558
21
4.48693
0
LINE
8
BLACK
6
CONTINUOUS
10
1.11558
20
4.48693
11
1.12693
21
4.50966
0
LINE
8
BLACK
6
CONTINUOUS
10
1.12693
20
4.50966
11
1.13958
21
4.5317
0
LINE
8
BLACK
6
CONTINUOUS
10
1.13958
20
4.5317
11
1.15347
21
4.55297
0
LINE
8
BLACK
6
CONTINUOUS
10
1.15347
20
4.55297
11
1.16857
21
4.57341
0
LINE
8
BLACK
6
CONTINUOUS
10
1.16857
20
4.57341
11
1.18481
21
4.59294
0
LINE
8
BLACK
6
CONTINUOUS
10
1.18481
20
4.59294
11
1.20216
21
4.61151
0
LINE
8
BLACK
6
CONTINUOUS
10
1.20216
20
4.61151
11
1.22054
21
4.62904
0
LINE
8
BLACK
6
CONTINUOUS
10
1.22054
20
4.62904
11
1.2399
21
4.64549
0
LINE
8
BLACK
6
CONTINUOUS
10
1.2399
20
4.64549
11
1.26018
21
4.6608
0
LINE
8
BLACK
6
CONTINUOUS
10
1.26018
20
4.6608
11
1.28131
21
4.67492
0
LINE
8
BLACK
6
CONTINUOUS
10
1.28131
20
4.67492
11
1.30321
21
4.68779
0
LINE
8
BLACK
6
CONTINUOUS
10
1.30321
20
4.68779
11
1.32581
21
4.69938
0
LINE
8
BLACK
6
CONTINUOUS
10
1.32581
20
4.69938
11
1.34905
21
4.70966
0
LINE
8
BLACK
6
CONTINUOUS
10
1.34905
20
4.70966
11
1.37284
21
4.71858
0
LINE
8
BLACK
6
CONTINUOUS
10
1.37284
20
4.71858
11
1.39711
21
4.72611
0
LINE
8
BLACK
6
CONTINUOUS
10
1.39711
20
4.72611
11
1.42176
21
4.73224
0
LINE
8
BLACK
6
CONTINUOUS
10
1.42176
20
4.73224
11
1.44673
21
4.73693
0
LINE
8
BLACK
6
CONTINUOUS
10
1.44673
20
4.73693
11
1.47193
21
4.74018
0
LINE
8
BLACK
6
CONTINUOUS
10
1.47193
20
4.74018
11
1.49727
21
4.74198
0
LINE
8
BLACK
6
CONTINUOUS
10
1.49727
20
4.74198
11
1.52268
21
4.74231
0
LINE
8
BLACK
6
CONTINUOUS
10
1.52268
20
4.74231
11
1.54806
21
4.74118
0
LINE
8
BLACK
6
CONTINUOUS
10
1.54806
20
4.74118
11
1.57333
21
4.73859
0
LINE
8
BLACK
6
CONTINUOUS
10
1.57333
20
4.73859
11
1.59842
21
4.73455
0
LINE
8
BLACK
6
CONTINUOUS
10
1.59842
20
4.73455
11
1.62323
21
4.72907
0
LINE
8
BLACK
6
CONTINUOUS
10
1.62323
20
4.72907
11
1.64768
21
4.72217
0
LINE
8
BLACK
6
CONTINUOUS
10
1.64768
20
4.72217
11
1.67169
21
4.71388
0
LINE
8
BLACK
6
CONTINUOUS
10
1.67169
20
4.71388
11
1.69519
21
4.70422
0
LINE
8
BLACK
6
CONTINUOUS
10
1.69519
20
4.70422
11
1.7181
21
4.69322
0
LINE
8
BLACK
6
CONTINUOUS
10
1.7181
20
4.69322
11
1.74033
21
4.68092
0
LINE
8
BLACK
6
CONTINUOUS
10
1.74033
20
4.68092
11
1.76181
21
4.66737
0
LINE
8
BLACK
6
CONTINUOUS
10
1.76181
20
4.66737
11
1.78249
21
4.6526
0
LINE
8
BLACK
6
CONTINUOUS
10
1.78249
20
4.6526
11
1.80227
21
4.63666
0
LINE
8
BLACK
6
CONTINUOUS
10
1.80227
20
4.63666
11
1.82111
21
4.61961
0
LINE
8
BLACK
6
CONTINUOUS
10
1.82111
20
4.61961
11
1.83893
21
4.6015
0
LINE
8
BLACK
6
CONTINUOUS
10
1.83893
20
4.6015
11
1.85568
21
4.5824
0
LINE
8
BLACK
6
CONTINUOUS
10
1.85568
20
4.5824
11
1.87131
21
4.56237
0
LINE
8
BLACK
6
CONTINUOUS
10
1.87131
20
4.56237
11
1.88575
21
4.54147
0
LINE
8
BLACK
6
CONTINUOUS
10
1.88575
20
4.54147
11
1.89897
21
4.51977
0
LINE
8
BLACK
6
CONTINUOUS
10
1.89897
20
4.51977
11
1.91092
21
4.49735
0
LINE
8
BLACK
6
CONTINUOUS
10
1.91092
20
4.49735
11
1.92156
21
4.47427
0
LINE
8
BLACK
6
CONTINUOUS
10
1.92156
20
4.47427
11
1.93085
21
4.45063
0
LINE
8
BLACK
6
CONTINUOUS
10
1.93085
20
4.45063
11
1.93876
21
4.42648
0
LINE
8
BLACK
6
CONTINUOUS
10
1.93876
20
4.42648
11
1.94527
21
4.40193
0
LINE
8
BLACK
6
CONTINUOUS
10
1.94527
20
4.40193
11
1.95036
21
4.37703
0
LINE
8
BLACK
6
CONTINUOUS
10
1.95036
20
4.37703
11
1.95401
21
4.35189
0
LINE
8
BLACK
6
CONTINUOUS
10
1.95401
20
4.35189
11
1.9562
21
4.32658
0
LINE
8
BLACK
6
CONTINUOUS
10
1.9562
20
4.32658
11
1.95693
21
4.30118
0
LINE
8
BLACK
6
CONTINUOUS
10
1.95693
20
4.30118
11
1.95692
21
4.29887
0
LINE
8
BLACK
6
CONTINUOUS
10
1.95692
20
4.29887
11
1.95606
21
4.27348
0
LINE
8
BLACK
6
CONTINUOUS
10
1.95606
20
4.27348
11
1.95373
21
4.24818
0
LINE
8
BLACK
6
CONTINUOUS
10
1.95373
20
4.24818
11
1.94996
21
4.22305
0
LINE
8
BLACK
6
CONTINUOUS
10
1.94996
20
4.22305
11
1.94474
21
4.19819
0
LINE
8
BLACK
6
CONTINUOUS
10
1.94474
20
4.19819
11
1.9381
21
4.17367
0
LINE
8
BLACK
6
CONTINUOUS
10
1.9381
20
4.17367
11
1.93006
21
4.14956
0
LINE
8
BLACK
6
CONTINUOUS
10
1.93006
20
4.14956
11
1.92064
21
4.12597
0
LINE
8
BLACK
6
CONTINUOUS
10
1.92064
20
4.12597
11
1.90989
21
4.10295
0
LINE
8
BLACK
6
CONTINUOUS
10
1.90989
20
4.10295
11
1.89782
21
4.08059
0
LINE
8
BLACK
6
CONTINUOUS
10
1.89782
20
4.08059
11
1.88449
21
4.05896
0
LINE
8
BLACK
6
CONTINUOUS
10
1.88449
20
4.05896
11
1.86994
21
4.03814
0
LINE
8
BLACK
6
CONTINUOUS
10
1.86994
20
4.03814
11
1.85421
21
4.01819
0
LINE
8
BLACK
6
CONTINUOUS
10
1.85421
20
4.01819
11
1.83736
21
3.99917
0
LINE
8
BLACK
6
CONTINUOUS
10
1.83736
20
3.99917
11
1.81944
21
3.98116
0
LINE
8
BLACK
6
CONTINUOUS
10
1.81944
20
3.98116
11
1.80051
21
3.96421
0
LINE
8
BLACK
6
CONTINUOUS
10
1.80051
20
3.96421
11
1.78064
21
3.94838
0
LINE
8
BLACK
6
CONTINUOUS
10
1.78064
20
3.94838
11
1.75989
21
3.93371
0
LINE
8
BLACK
6
CONTINUOUS
10
1.75989
20
3.93371
11
1.73834
21
3.92027
0
LINE
8
BLACK
6
CONTINUOUS
10
1.73834
20
3.92027
11
1.71604
21
3.90809
0
LINE
8
BLACK
6
CONTINUOUS
10
1.71604
20
3.90809
11
1.69308
21
3.89721
0
LINE
8
BLACK
6
CONTINUOUS
10
1.69308
20
3.89721
11
1.66953
21
3.88767
0
LINE
8
BLACK
6
CONTINUOUS
10
1.66953
20
3.88767
11
1.64547
21
3.8795
0
LINE
8
BLACK
6
CONTINUOUS
10
1.64547
20
3.8795
11
1.62098
21
3.87274
0
LINE
8
BLACK
6
CONTINUOUS
10
1.62098
20
3.87274
11
1.59615
21
3.86739
0
LINE
8
BLACK
6
CONTINUOUS
10
1.59615
20
3.86739
11
1.57104
21
3.86348
0
LINE
8
BLACK
6
CONTINUOUS
10
1.57104
20
3.86348
11
1.54576
21
3.86102
0
LINE
8
BLACK
6
CONTINUOUS
10
1.54576
20
3.86102
11
1.52037
21
3.86002
0
LINE
8
BLACK
6
CONTINUOUS
10
1.52037
20
3.86002
11
1.49497
21
3.86049
0
LINE
8
BLACK
6
CONTINUOUS
10
1.49497
20
3.86049
11
1.46963
21
3.86242
0
LINE
8
BLACK
6
CONTINUOUS
10
1.46963
20
3.86242
11
1.44445
21
3.8658
0
LINE
8
BLACK
6
CONTINUOUS
10
1.44445
20
3.8658
11
1.41951
21
3.87063
0
LINE
8
BLACK
6
CONTINUOUS
10
1.41951
20
3.87063
11
1.39488
21
3.87688
0
LINE
8
BLACK
6
CONTINUOUS
10
1.39488
20
3.87688
11
1.37066
21
3.88454
0
LINE
8
BLACK
6
CONTINUOUS
10
1.37066
20
3.88454
11
1.34692
21
3.89358
0
LINE
8
BLACK
6
CONTINUOUS
10
1.34692
20
3.89358
11
1.32373
21
3.90398
0
LINE
8
BLACK
6
CONTINUOUS
10
1.32373
20
3.90398
11
1.30119
21
3.91569
0
LINE
8
BLACK
6
CONTINUOUS
10
1.30119
20
3.91569
11
1.27935
21
3.92868
0
LINE
8
BLACK
6
CONTINUOUS
10
1.27935
20
3.92868
11
1.2583
21
3.94291
0
LINE
8
BLACK
6
CONTINUOUS
10
1.2583
20
3.94291
11
1.2381
21
3.95832
0
LINE
8
BLACK
6
CONTINUOUS
10
1.2381
20
3.95832
11
1.21883
21
3.97487
0
LINE
8
BLACK
6
CONTINUOUS
10
1.21883
20
3.97487
11
1.20054
21
3.9925
0
LINE
8
BLACK
6
CONTINUOUS
10
1.20054
20
3.9925
11
1.18329
21
4.01116
0
LINE
8
BLACK
6
CONTINUOUS
10
1.18329
20
4.01116
11
1.16715
21
4.03078
0
LINE
8
BLACK
6
CONTINUOUS
10
1.16715
20
4.03078
11
1.15216
21
4.05129
0
LINE
8
BLACK
6
CONTINUOUS
10
1.15216
20
4.05129
11
1.13838
21
4.07264
0
LINE
8
BLACK
6
CONTINUOUS
10
1.13838
20
4.07264
11
1.12585
21
4.09474
0
LINE
8
BLACK
6
CONTINUOUS
10
1.12585
20
4.09474
11
1.11461
21
4.11753
0
LINE
8
BLACK
6
CONTINUOUS
10
1.11461
20
4.11753
11
1.1047
21
4.14092
0
LINE
8
BLACK
6
CONTINUOUS
10
1.1047
20
4.14092
11
1.09616
21
4.16485
0
LINE
8
BLACK
6
CONTINUOUS
10
1.09616
20
4.16485
11
1.08901
21
4.18923
0
LINE
8
BLACK
6
CONTINUOUS
10
1.08901
20
4.18923
11
1.08327
21
4.21398
0
LINE
8
BLACK
6
CONTINUOUS
10
1.08327
20
4.21398
11
1.07897
21
4.23902
0
LINE
8
BLACK
6
CONTINUOUS
10
1.07897
20
4.23902
11
1.07611
21
4.26426
0
LINE
8
BLACK
6
CONTINUOUS
10
1.07611
20
4.26426
11
1.07472
21
4.28963
0
LINE
8
BLACK
6
CONTINUOUS
10
1.07472
20
4.28963
11
1.07474
21
4.29967
0
LINE
8
BLACK
6
CONTINUOUS
10
1.07474
20
4.29967
11
1.07478
21
4.31504
0
LINE
8
BLACK
6
CONTINUOUS
10
1.07478
20
4.31504
11
1.07631
21
4.3404
0
LINE
8
BLACK
6
CONTINUOUS
10
1.08547
20
4.24835
11
1.08937
21
4.22293
0
LINE
8
BLACK
6
CONTINUOUS
10
1.08937
20
4.22293
11
1.09476
21
4.19778
0
LINE
8
BLACK
6
CONTINUOUS
10
1.09476
20
4.19778
11
1.10163
21
4.17299
0
LINE
8
BLACK
6
CONTINUOUS
10
1.10163
20
4.17299
11
1.10996
21
4.14866
0
LINE
8
BLACK
6
CONTINUOUS
10
1.10996
20
4.14866
11
1.11972
21
4.12486
0
LINE
8
BLACK
6
CONTINUOUS
10
1.11972
20
4.12486
11
1.13088
21
4.10168
0
LINE
8
BLACK
6
CONTINUOUS
10
1.13088
20
4.10168
11
1.14338
21
4.07921
0
LINE
8
BLACK
6
CONTINUOUS
10
1.14338
20
4.07921
11
1.1572
21
4.05752
0
LINE
8
BLACK
6
CONTINUOUS
10
1.1572
20
4.05752
11
1.17229
21
4.03668
0
LINE
8
BLACK
6
CONTINUOUS
10
1.17229
20
4.03668
11
1.18858
21
4.01678
0
LINE
8
BLACK
6
CONTINUOUS
10
1.18858
20
4.01678
11
1.20602
21
3.99787
0
LINE
8
BLACK
6
CONTINUOUS
10
1.20602
20
3.99787
11
1.22455
21
3.98004
0
LINE
8
BLACK
6
CONTINUOUS
10
1.22455
20
3.98004
11
1.24411
21
3.96333
0
LINE
8
BLACK
6
CONTINUOUS
10
1.24411
20
3.96333
11
1.26463
21
3.94782
0
LINE
8
BLACK
6
CONTINUOUS
10
1.26463
20
3.94782
11
1.28603
21
3.93355
0
LINE
8
BLACK
6
CONTINUOUS
10
1.28603
20
3.93355
11
1.30823
21
3.92057
0
LINE
8
BLACK
6
CONTINUOUS
10
1.30823
20
3.92057
11
1.33117
21
3.90893
0
LINE
8
BLACK
6
CONTINUOUS
10
1.33117
20
3.90893
11
1.35476
21
3.89868
0
LINE
8
BLACK
6
CONTINUOUS
10
1.35476
20
3.89868
11
1.37891
21
3.88984
0
LINE
8
BLACK
6
CONTINUOUS
10
1.37891
20
3.88984
11
1.40355
21
3.88245
0
LINE
8
BLACK
6
CONTINUOUS
10
1.40355
20
3.88245
11
1.42858
21
3.87653
0
LINE
8
BLACK
6
CONTINUOUS
10
1.42858
20
3.87653
11
1.45392
21
3.87211
0
LINE
8
BLACK
6
CONTINUOUS
10
1.45392
20
3.87211
11
1.47947
21
3.8692
0
LINE
8
BLACK
6
CONTINUOUS
10
1.47947
20
3.8692
11
1.50516
21
3.86781
0
LINE
8
BLACK
6
CONTINUOUS
10
1.50516
20
3.86781
11
1.53088
21
3.86794
0
LINE
8
BLACK
6
CONTINUOUS
10
1.53088
20
3.86794
11
1.55654
21
3.8696
0
LINE
8
BLACK
6
CONTINUOUS
10
1.55654
20
3.8696
11
1.58207
21
3.87278
0
LINE
8
BLACK
6
CONTINUOUS
10
1.58207
20
3.87278
11
1.60736
21
3.87747
0
LINE
8
BLACK
6
CONTINUOUS
10
1.60736
20
3.87747
11
1.63233
21
3.88365
0
LINE
8
BLACK
6
CONTINUOUS
10
1.63233
20
3.88365
11
1.65688
21
3.89129
0
LINE
8
BLACK
6
CONTINUOUS
10
1.65688
20
3.89129
11
1.68094
21
3.90039
0
LINE
8
BLACK
6
CONTINUOUS
10
1.68094
20
3.90039
11
1.70442
21
3.91089
0
LINE
8
BLACK
6
CONTINUOUS
10
1.70442
20
3.91089
11
1.72724
21
3.92277
0
LINE
8
BLACK
6
CONTINUOUS
10
1.72724
20
3.92277
11
1.74931
21
3.93597
0
LINE
8
BLACK
6
CONTINUOUS
10
1.74931
20
3.93597
11
1.77056
21
3.95047
0
LINE
8
BLACK
6
CONTINUOUS
10
1.77056
20
3.95047
11
1.79091
21
3.9662
0
LINE
8
BLACK
6
CONTINUOUS
10
1.79091
20
3.9662
11
1.81029
21
3.98311
0
LINE
8
BLACK
6
CONTINUOUS
10
1.81029
20
3.98311
11
1.82863
21
4.00113
0
LINE
8
BLACK
6
CONTINUOUS
10
1.82863
20
4.00113
11
1.84588
21
4.02022
0
LINE
8
BLACK
6
CONTINUOUS
10
1.84588
20
4.02022
11
1.86196
21
4.04029
0
LINE
8
BLACK
6
CONTINUOUS
10
1.86196
20
4.04029
11
1.87682
21
4.06128
0
LINE
8
BLACK
6
CONTINUOUS
10
1.87682
20
4.06128
11
1.89042
21
4.08312
0
LINE
8
BLACK
6
CONTINUOUS
10
1.89042
20
4.08312
11
1.90269
21
4.10572
0
LINE
8
BLACK
6
CONTINUOUS
10
1.90269
20
4.10572
11
1.9136
21
4.12902
0
LINE
8
BLACK
6
CONTINUOUS
10
1.9136
20
4.12902
11
1.92311
21
4.15291
0
LINE
8
BLACK
6
CONTINUOUS
10
1.92311
20
4.15291
11
1.93119
21
4.17733
0
LINE
8
BLACK
6
CONTINUOUS
10
1.93119
20
4.17733
11
1.9378
21
4.20219
0
LINE
8
BLACK
6
CONTINUOUS
10
1.9378
20
4.20219
11
1.94293
21
4.22739
0
LINE
8
BLACK
6
CONTINUOUS
10
1.94293
20
4.22739
11
1.94655
21
4.25286
0
LINE
8
BLACK
6
CONTINUOUS
10
1.94655
20
4.25286
11
1.94866
21
4.27849
0
LINE
8
BLACK
6
CONTINUOUS
10
1.94866
20
4.27849
11
1.94925
21
4.30118
0
LINE
8
BLACK
6
CONTINUOUS
10
1.94925
20
4.30118
11
1.94849
21
4.32689
0
LINE
8
BLACK
6
CONTINUOUS
10
1.94849
20
4.32689
11
1.9462
21
4.35251
0
LINE
8
BLACK
6
CONTINUOUS
10
1.9462
20
4.35251
11
1.9424
21
4.37795
0
LINE
8
BLACK
6
CONTINUOUS
10
1.9424
20
4.37795
11
1.9371
21
4.40312
0
LINE
8
BLACK
6
CONTINUOUS
10
1.9371
20
4.40312
11
1.93031
21
4.42793
0
LINE
8
BLACK
6
CONTINUOUS
10
1.93031
20
4.42793
11
1.92206
21
4.45229
0
LINE
8
BLACK
6
CONTINUOUS
10
1.92206
20
4.45229
11
1.91239
21
4.47612
0
LINE
8
BLACK
6
CONTINUOUS
10
1.91239
20
4.47612
11
1.90131
21
4.49934
0
LINE
8
BLACK
6
CONTINUOUS
10
1.90131
20
4.49934
11
1.88888
21
4.52185
0
LINE
8
BLACK
6
CONTINUOUS
10
1.88888
20
4.52185
11
1.87514
21
4.54359
0
LINE
8
BLACK
6
CONTINUOUS
10
1.87514
20
4.54359
11
1.86013
21
4.56448
0
LINE
8
BLACK
6
CONTINUOUS
10
1.86013
20
4.56448
11
1.84391
21
4.58444
0
LINE
8
BLACK
6
CONTINUOUS
10
1.84391
20
4.58444
11
1.82653
21
4.60341
0
LINE
8
BLACK
6
CONTINUOUS
10
1.82653
20
4.60341
11
1.80806
21
4.62131
0
LINE
8
BLACK
6
CONTINUOUS
10
1.80806
20
4.62131
11
1.78856
21
4.63808
0
LINE
8
BLACK
6
CONTINUOUS
10
1.78856
20
4.63808
11
1.7681
21
4.65366
0
LINE
8
BLACK
6
CONTINUOUS
10
1.7681
20
4.65366
11
1.74675
21
4.66801
0
LINE
8
BLACK
6
CONTINUOUS
10
1.74675
20
4.66801
11
1.72459
21
4.68106
0
LINE
8
BLACK
6
CONTINUOUS
10
1.72459
20
4.68106
11
1.70169
21
4.69278
0
LINE
8
BLACK
6
CONTINUOUS
10
1.70169
20
4.69278
11
1.67814
21
4.70312
0
LINE
8
BLACK
6
CONTINUOUS
10
1.67814
20
4.70312
11
1.65402
21
4.71204
0
LINE
8
BLACK
6
CONTINUOUS
10
1.65402
20
4.71204
11
1.62941
21
4.71952
0
LINE
8
BLACK
6
CONTINUOUS
10
1.62941
20
4.71952
11
1.6044
21
4.72552
0
LINE
8
BLACK
6
CONTINUOUS
10
1.6044
20
4.72552
11
1.57908
21
4.73004
0
LINE
8
BLACK
6
CONTINUOUS
10
1.57908
20
4.73004
11
1.55353
21
4.73304
0
LINE
8
BLACK
6
CONTINUOUS
10
1.55353
20
4.73304
11
1.52785
21
4.73452
0
LINE
8
BLACK
6
CONTINUOUS
10
1.52785
20
4.73452
11
1.50213
21
4.73447
0
LINE
8
BLACK
6
CONTINUOUS
10
1.50213
20
4.73447
11
1.47646
21
4.7329
0
LINE
8
BLACK
6
CONTINUOUS
10
1.47646
20
4.7329
11
1.45092
21
4.72981
0
LINE
8
BLACK
6
CONTINUOUS
10
1.45092
20
4.72981
11
1.42562
21
4.72521
0
LINE
8
BLACK
6
CONTINUOUS
10
1.42562
20
4.72521
11
1.40063
21
4.71912
0
LINE
8
BLACK
6
CONTINUOUS
10
1.40063
20
4.71912
11
1.37604
21
4.71156
0
LINE
8
BLACK
6
CONTINUOUS
10
1.37604
20
4.71156
11
1.35195
21
4.70255
0
LINE
8
BLACK
6
CONTINUOUS
10
1.35195
20
4.70255
11
1.32844
21
4.69213
0
LINE
8
BLACK
6
CONTINUOUS
10
1.32844
20
4.69213
11
1.30558
21
4.68033
0
LINE
8
BLACK
6
CONTINUOUS
10
1.30558
20
4.68033
11
1.28346
21
4.6672
0
LINE
8
BLACK
6
CONTINUOUS
10
1.28346
20
4.6672
11
1.26217
21
4.65278
0
LINE
8
BLACK
6
CONTINUOUS
10
1.26217
20
4.65278
11
1.24176
21
4.63712
0
LINE
8
BLACK
6
CONTINUOUS
10
1.24176
20
4.63712
11
1.22232
21
4.62028
0
LINE
8
BLACK
6
CONTINUOUS
10
1.22232
20
4.62028
11
1.20391
21
4.60232
0
LINE
8
BLACK
6
CONTINUOUS
10
1.20391
20
4.60232
11
1.1866
21
4.58329
0
LINE
8
BLACK
6
CONTINUOUS
10
1.1866
20
4.58329
11
1.17045
21
4.56328
0
LINE
8
BLACK
6
CONTINUOUS
10
1.17045
20
4.56328
11
1.15551
21
4.54234
0
LINE
8
BLACK
6
CONTINUOUS
10
1.15551
20
4.54234
11
1.14184
21
4.52055
0
LINE
8
BLACK
6
CONTINUOUS
10
1.14184
20
4.52055
11
1.12949
21
4.49799
0
LINE
8
BLACK
6
CONTINUOUS
10
1.12949
20
4.49799
11
1.1185
21
4.47473
0
LINE
8
BLACK
6
CONTINUOUS
10
1.1185
20
4.47473
11
1.10891
21
4.45087
0
LINE
8
BLACK
6
CONTINUOUS
10
1.10891
20
4.45087
11
1.10075
21
4.42648
0
LINE
8
BLACK
6
CONTINUOUS
10
1.10075
20
4.42648
11
1.09404
21
4.40164
0
LINE
8
BLACK
6
CONTINUOUS
10
1.09404
20
4.40164
11
1.08883
21
4.37646
0
LINE
8
BLACK
6
CONTINUOUS
10
1.08883
20
4.37646
11
1.08512
21
4.35101
0
LINE
8
BLACK
6
CONTINUOUS
10
1.08512
20
4.35101
11
1.08292
21
4.32538
0
LINE
8
BLACK
6
CONTINUOUS
10
1.08292
20
4.32538
11
1.08225
21
4.29967
0
LINE
8
BLACK
6
CONTINUOUS
10
1.08225
20
4.29967
11
1.0831
21
4.27396
0
LINE
8
BLACK
6
CONTINUOUS
10
1.0831
20
4.27396
11
1.08547
21
4.24835
0
LINE
8
BLACK
6
CONTINUOUS
10
0.0920616
20
4.3404
11
0.0950478
21
4.36563
0
LINE
8
BLACK
6
CONTINUOUS
10
0.0950478
20
4.36563
11
0.0994815
21
4.39065
0
LINE
8
BLACK
6
CONTINUOUS
10
0.0994815
20
4.39065
11
0.105348
21
4.41537
0
LINE
8
BLACK
6
CONTINUOUS
10
0.105348
20
4.41537
11
0.112627
21
4.43971
0
LINE
8
BLACK
6
CONTINUOUS
10
0.112627
20
4.43971
11
0.121296
21
4.46359
0
LINE
8
BLACK
6
CONTINUOUS
10
0.121296
20
4.46359
11
0.131325
21
4.48693
0
LINE
8
BLACK
6
CONTINUOUS
10
0.131325
20
4.48693
11
0.142682
21
4.50966
0
LINE
8
BLACK
6
CONTINUOUS
10
0.142682
20
4.50966
11
0.155327
21
4.5317
0
LINE
8
BLACK
6
CONTINUOUS
10
0.155327
20
4.5317
11
0.169221
21
4.55297
0
LINE
8
BLACK
6
CONTINUOUS
10
0.169221
20
4.55297
11
0.184315
21
4.57341
0
LINE
8
BLACK
6
CONTINUOUS
10
0.184315
20
4.57341
11
0.200561
21
4.59294
0
LINE
8
BLACK
6
CONTINUOUS
10
0.200561
20
4.59294
11
0.217905
21
4.61151
0
LINE
8
BLACK
6
CONTINUOUS
10
0.217905
20
4.61151
11
0.236288
21
4.62904
0
LINE
8
BLACK
6
CONTINUOUS
10
0.236288
20
4.62904
11
0.255651
21
4.64549
0
LINE
8
BLACK
6
CONTINUOUS
10
0.255651
20
4.64549
11
0.275928
21
4.6608
0
LINE
8
BLACK
6
CONTINUOUS
10
0.275928
20
4.6608
11
0.297053
21
4.67492
0
LINE
8
BLACK
6
CONTINUOUS
10
0.297053
20
4.67492
11
0.318955
21
4.68779
0
LINE
8
BLACK
6
CONTINUOUS
10
0.318955
20
4.68779
11
0.341563
21
4.69938
0
LINE
8
BLACK
6
CONTINUOUS
10
0.341563
20
4.69938
11
0.3648
21
4.70966
0
LINE
8
BLACK
6
CONTINUOUS
10
0.3648
20
4.70966
11
0.38859
21
4.71858
0
LINE
8
BLACK
6
CONTINUOUS
10
0.38859
20
4.71858
11
0.412854
21
4.72611
0
LINE
8
BLACK
6
CONTINUOUS
10
0.412854
20
4.72611
11
0.437511
21
4.73224
0
LINE
8
BLACK
6
CONTINUOUS
10
0.437511
20
4.73224
11
0.46248
21
4.73693
0
LINE
8
BLACK
6
CONTINUOUS
10
0.46248
20
4.73693
11
0.487678
21
4.74018
0
LINE
8
BLACK
6
CONTINUOUS
10
0.487678
20
4.74018
11
0.513021
21
4.74198
0
LINE
8
BLACK
6
CONTINUOUS
10
0.513021
20
4.74198
11
0.538426
21
4.74231
0
LINE
8
BLACK
6
CONTINUOUS
10
0.538426
20
4.74231
11
0.563807
21
4.74118
0
LINE
8
BLACK
6
CONTINUOUS
10
0.563807
20
4.74118
11
0.589082
21
4.73859
0
LINE
8
BLACK
6
CONTINUOUS
10
0.589082
20
4.73859
11
0.614165
21
4.73455
0
LINE
8
BLACK
6
CONTINUOUS
10
0.614165
20
4.73455
11
0.638974
21
4.72907
0
LINE
8
BLACK
6
CONTINUOUS
10
0.638974
20
4.72907
11
0.663427
21
4.72217
0
LINE
8
BLACK
6
CONTINUOUS
10
0.663427
20
4.72217
11
0.687442
21
4.71388
0
LINE
8
BLACK
6
CONTINUOUS
10
0.687442
20
4.71388
11
0.710941
21
4.70422
0
LINE
8
BLACK
6
CONTINUOUS
10
0.710941
20
4.70422
11
0.733844
21
4.69322
0
LINE
8
BLACK
6
CONTINUOUS
10
0.733844
20
4.69322
11
0.756076
21
4.68092
0
LINE
8
BLACK
6
CONTINUOUS
10
0.756076
20
4.68092
11
0.777563
21
4.66737
0
LINE
8
BLACK
6
CONTINUOUS
10
0.777563
20
4.66737
11
0.798234
21
4.6526
0
LINE
8
BLACK
6
CONTINUOUS
10
0.798234
20
4.6526
11
0.81802
21
4.63666
0
LINE
8
BLACK
6
CONTINUOUS
10
0.81802
20
4.63666
11
0.836857
21
4.61961
0
LINE
8
BLACK
6
CONTINUOUS
10
0.836857
20
4.61961
11
0.85468
21
4.6015
0
LINE
8
BLACK
6
CONTINUOUS
10
0.85468
20
4.6015
11
0.871432
21
4.5824
0
LINE
8
BLACK
6
CONTINUOUS
10
0.871432
20
4.5824
11
0.887056
21
4.56237
0
LINE
8
BLACK
6
CONTINUOUS
10
0.887056
20
4.56237
11
0.901502
21
4.54147
0
LINE
8
BLACK
6
CONTINUOUS
10
0.901502
20
4.54147
11
0.91472
21
4.51977
0
LINE
8
BLACK
6
CONTINUOUS
10
0.91472
20
4.51977
11
0.926667
21
4.49735
0
LINE
8
BLACK
6
CONTINUOUS
10
0.926667
20
4.49735
11
0.937304
21
4.47427
0
LINE
8
BLACK
6
CONTINUOUS
10
0.937304
20
4.47427
11
0.946595
21
4.45063
0
LINE
8
BLACK
6
CONTINUOUS
10
0.946595
20
4.45063
11
0.954509
21
4.42648
0
LINE
8
BLACK
6
CONTINUOUS
10
0.954509
20
4.42648
11
0.961021
21
4.40193
0
LINE
8
BLACK
6
CONTINUOUS
10
0.961021
20
4.40193
11
0.966108
21
4.37703
0
LINE
8
BLACK
6
CONTINUOUS
10
0.966108
20
4.37703
11
0.969753
21
4.35189
0
LINE
8
BLACK
6
CONTINUOUS
10
0.969753
20
4.35189
11
0.971946
21
4.32658
0
LINE
8
BLACK
6
CONTINUOUS
10
0.971946
20
4.32658
11
0.972677
21
4.30118
0
LINE
8
BLACK
6
CONTINUOUS
10
0.972677
20
4.30118
11
0.972671
21
4.29887
0
LINE
8
BLACK
6
CONTINUOUS
10
0.972671
20
4.29887
11
0.971807
21
4.27348
0
LINE
8
BLACK
6
CONTINUOUS
10
0.971807
20
4.27348
11
0.969482
21
4.24818
0
LINE
8
BLACK
6
CONTINUOUS
10
0.969482
20
4.24818
11
0.965705
21
4.22305
0
LINE
8
BLACK
6
CONTINUOUS
10
0.965705
20
4.22305
11
0.960487
21
4.19819
0
LINE
8
BLACK
6
CONTINUOUS
10
0.960487
20
4.19819
11
0.953847
21
4.17367
0
LINE
8
BLACK
6
CONTINUOUS
10
0.953847
20
4.17367
11
0.945807
21
4.14956
0
LINE
8
BLACK
6
CONTINUOUS
10
0.945807
20
4.14956
11
0.936392
21
4.12597
0
LINE
8
BLACK
6
CONTINUOUS
10
0.936392
20
4.12597
11
0.925635
21
4.10295
0
LINE
8
BLACK
6
CONTINUOUS
10
0.925635
20
4.10295
11
0.91357
21
4.08059
0
LINE
8
BLACK
6
CONTINUOUS
10
0.91357
20
4.08059
11
0.900238
21
4.05896
0
LINE
8
BLACK
6
CONTINUOUS
10
0.900238
20
4.05896
11
0.885684
21
4.03814
0
LINE
8
BLACK
6
CONTINUOUS
10
0.885684
20
4.03814
11
0.869955
21
4.01819
0
LINE
8
BLACK
6
CONTINUOUS
10
0.869955
20
4.01819
11
0.853103
21
3.99917
0
LINE
8
BLACK
6
CONTINUOUS
10
0.853103
20
3.99917
11
0.835185
21
3.98116
0
LINE
8
BLACK
6
CONTINUOUS
10
0.835185
20
3.98116
11
0.81626
21
3.96421
0
LINE
8
BLACK
6
CONTINUOUS
10
0.81626
20
3.96421
11
0.79639
21
3.94838
0
LINE
8
BLACK
6
CONTINUOUS
10
0.79639
20
3.94838
11
0.775642
21
3.93371
0
LINE
8
BLACK
6
CONTINUOUS
10
0.775642
20
3.93371
11
0.754084
21
3.92027
0
LINE
8
BLACK
6
CONTINUOUS
10
0.754084
20
3.92027
11
0.731788
21
3.90809
0
LINE
8
BLACK
6
CONTINUOUS
10
0.731788
20
3.90809
11
0.708828
21
3.89721
0
LINE
8
BLACK
6
CONTINUOUS
10
0.708828
20
3.89721
11
0.685279
21
3.88767
0
LINE
8
BLACK
6
CONTINUOUS
10
0.685279
20
3.88767
11
0.661221
21
3.8795
0
LINE
8
BLACK
6
CONTINUOUS
10
0.661221
20
3.8795
11
0.636733
21
3.87274
0
LINE
8
BLACK
6
CONTINUOUS
10
0.636733
20
3.87274
11
0.611895
21
3.86739
0
LINE
8
BLACK
6
CONTINUOUS
10
0.611895
20
3.86739
11
0.586791
21
3.86348
0
LINE
8
BLACK
6
CONTINUOUS
10
0.586791
20
3.86348
11
0.561503
21
3.86102
0
LINE
8
BLACK
6
CONTINUOUS
10
0.561503
20
3.86102
11
0.536116
21
3.86002
0
LINE
8
BLACK
6
CONTINUOUS
10
0.536116
20
3.86002
11
0.510714
21
3.86049
0
LINE
8
BLACK
6
CONTINUOUS
10
0.510714
20
3.86049
11
0.48538
21
3.86242
0
LINE
8
BLACK
6
CONTINUOUS
10
0.48538
20
3.86242
11
0.4602
21
3.8658
0
LINE
8
BLACK
6
CONTINUOUS
10
0.4602
20
3.8658
11
0.435255
21
3.87063
0
LINE
8
BLACK
6
CONTINUOUS
10
0.435255
20
3.87063
11
0.41063
21
3.87688
0
LINE
8
BLACK
6
CONTINUOUS
10
0.41063
20
3.87688
11
0.386406
21
3.88454
0
LINE
8
BLACK
6
CONTINUOUS
10
0.386406
20
3.88454
11
0.362663
21
3.89358
0
LINE
8
BLACK
6
CONTINUOUS
10
0.362663
20
3.89358
11
0.33948
21
3.90398
0
LINE
8
BLACK
6
CONTINUOUS
10
0.33948
20
3.90398
11
0.316934
21
3.91569
0
LINE
8
BLACK
6
CONTINUOUS
10
0.316934
20
3.91569
11
0.295099
21
3.92868
0
LINE
8
BLACK
6
CONTINUOUS
10
0.295099
20
3.92868
11
0.274049
21
3.94291
0
LINE
8
BLACK
6
CONTINUOUS
10
0.274049
20
3.94291
11
0.253852
21
3.95832
0
LINE
8
BLACK
6
CONTINUOUS
10
0.253852
20
3.95832
11
0.234576
21
3.97487
0
LINE
8
BLACK
6
CONTINUOUS
10
0.234576
20
3.97487
11
0.216284
21
3.9925
0
LINE
8
BLACK
6
CONTINUOUS
10
0.216284
20
3.9925
11
0.199038
21
4.01116
0
LINE
8
BLACK
6
CONTINUOUS
10
0.199038
20
4.01116
11
0.182895
21
4.03078
0
LINE
8
BLACK
6
CONTINUOUS
10
0.182895
20
4.03078
11
0.167907
21
4.05129
0
LINE
8
BLACK
6
CONTINUOUS
10
0.167907
20
4.05129
11
0.154126
21
4.07264
0
LINE
8
BLACK
6
CONTINUOUS
10
0.154126
20
4.07264
11
0.141595
21
4.09474
0
LINE
8
BLACK
6
CONTINUOUS
10
0.141595
20
4.09474
11
0.130358
21
4.11753
0
LINE
8
BLACK
6
CONTINUOUS
10
0.130358
20
4.11753
11
0.120451
21
4.14092
0
LINE
8
BLACK
6
CONTINUOUS
10
0.120451
20
4.14092
11
0.111908
21
4.16485
0
LINE
8
BLACK
6
CONTINUOUS
10
0.111908
20
4.16485
11
0.104756
21
4.18923
0
LINE
8
BLACK
6
CONTINUOUS
10
0.104756
20
4.18923
11
0.0990189
21
4.21398
0
LINE
8
BLACK
6
CONTINUOUS
10
0.0990189
20
4.21398
11
0.0947163
21
4.23902
0
LINE
8
BLACK
6
CONTINUOUS
10
0.0947163
20
4.23902
11
0.0918622
21
4.26426
0
LINE
8
BLACK
6
CONTINUOUS
10
0.0918622
20
4.26426
11
0.0904661
21
4.28963
0
LINE
8
BLACK
6
CONTINUOUS
10
0.0904661
20
4.28963
11
0.0904924
21
4.29967
0
LINE
8
BLACK
6
CONTINUOUS
10
0.0904924
20
4.29967
11
0.0905326
21
4.31504
0
LINE
8
BLACK
6
CONTINUOUS
10
0.0905326
20
4.31504
11
0.0920616
21
4.3404
0
LINE
8
BLACK
6
CONTINUOUS
10
0.101222
20
4.24835
11
0.105113
21
4.22293
0
LINE
8
BLACK
6
CONTINUOUS
10
0.105113
20
4.22293
11
0.110505
21
4.19778
0
LINE
8
BLACK
6
CONTINUOUS
10
0.110505
20
4.19778
11
0.117378
21
4.17299
0
LINE
8
BLACK
6
CONTINUOUS
10
0.117378
20
4.17299
11
0.12571
21
4.14866
0
LINE
8
BLACK
6
CONTINUOUS
10
0.12571
20
4.14866
11
0.13547
21
4.12486
0
LINE
8
BLACK
6
CONTINUOUS
10
0.13547
20
4.12486
11
0.146624
21
4.10168
0
LINE
8
BLACK
6
CONTINUOUS
10
0.146624
20
4.10168
11
0.159133
21
4.07921
0
LINE
8
BLACK
6
CONTINUOUS
10
0.159133
20
4.07921
11
0.172953
21
4.05752
0
LINE
8
BLACK
6
CONTINUOUS
10
0.172953
20
4.05752
11
0.188035
21
4.03668
0
LINE
8
BLACK
6
CONTINUOUS
10
0.188035
20
4.03668
11
0.204326
21
4.01678
0
LINE
8
BLACK
6
CONTINUOUS
10
0.204326
20
4.01678
11
0.221769
21
3.99787
0
LINE
8
BLACK
6
CONTINUOUS
10
0.221769
20
3.99787
11
0.240302
21
3.98004
0
LINE
8
BLACK
6
CONTINUOUS
10
0.240302
20
3.98004
11
0.25986
21
3.96333
0
LINE
8
BLACK
6
CONTINUOUS
10
0.25986
20
3.96333
11
0.280375
21
3.94782
0
LINE
8
BLACK
6
CONTINUOUS
10
0.280375
20
3.94782
11
0.301774
21
3.93355
0
LINE
8
BLACK
6
CONTINUOUS
10
0.301774
20
3.93355
11
0.323981
21
3.92057
0
LINE
8
BLACK
6
CONTINUOUS
10
0.323981
20
3.92057
11
0.346919
21
3.90893
0
LINE
8
BLACK
6
CONTINUOUS
10
0.346919
20
3.90893
11
0.370506
21
3.89868
0
LINE
8
BLACK
6
CONTINUOUS
10
0.370506
20
3.89868
11
0.394661
21
3.88984
0
LINE
8
BLACK
6
CONTINUOUS
10
0.394661
20
3.88984
11
0.419297
21
3.88245
0
LINE
8
BLACK
6
CONTINUOUS
10
0.419297
20
3.88245
11
0.444328
21
3.87653
0
LINE
8
BLACK
6
CONTINUOUS
10
0.444328
20
3.87653
11
0.469666
21
3.87211
0
LINE
8
BLACK
6
CONTINUOUS
10
0.469666
20
3.87211
11
0.495221
21
3.8692
0
LINE
8
BLACK
6
CONTINUOUS
10
0.495221
20
3.8692
11
0.520905
21
3.86781
0
LINE
8
BLACK
6
CONTINUOUS
10
0.520905
20
3.86781
11
0.546625
21
3.86794
0
LINE
8
BLACK
6
CONTINUOUS
10
0.546625
20
3.86794
11
0.572292
21
3.8696
0
LINE
8
BLACK
6
CONTINUOUS
10
0.572292
20
3.8696
11
0.597816
21
3.87278
0
LINE
8
BLACK
6
CONTINUOUS
10
0.597816
20
3.87278
11
0.623106
21
3.87747
0
LINE
8
BLACK
6
CONTINUOUS
10
0.623106
20
3.87747
11
0.648074
21
3.88365
0
LINE
8
BLACK
6
CONTINUOUS
10
0.648074
20
3.88365
11
0.672631
21
3.89129
0
LINE
8
BLACK
6
CONTINUOUS
10
0.672631
20
3.89129
11
0.696692
21
3.90039
0
LINE
8
BLACK
6
CONTINUOUS
10
0.696692
20
3.90039
11
0.720171
21
3.91089
0
LINE
8
BLACK
6
CONTINUOUS
10
0.720171
20
3.91089
11
0.742986
21
3.92277
0
LINE
8
BLACK
6
CONTINUOUS
10
0.742986
20
3.92277
11
0.765056
21
3.93597
0
LINE
8
BLACK
6
CONTINUOUS
10
0.765056
20
3.93597
11
0.786304
21
3.95047
0
LINE
8
BLACK
6
CONTINUOUS
10
0.786304
20
3.95047
11
0.806655
21
3.9662
0
LINE
8
BLACK
6
CONTINUOUS
10
0.806655
20
3.9662
11
0.826037
21
3.98311
0
LINE
8
BLACK
6
CONTINUOUS
10
0.826037
20
3.98311
11
0.844383
21
4.00113
0
LINE
8
BLACK
6
CONTINUOUS
10
0.844383
20
4.00113
11
0.861627
21
4.02022
0
LINE
8
BLACK
6
CONTINUOUS
10
0.861627
20
4.02022
11
0.877708
21
4.04029
0
LINE
8
BLACK
6
CONTINUOUS
10
0.877708
20
4.04029
11
0.892571
21
4.06128
0
LINE
8
BLACK
6
CONTINUOUS
10
0.892571
20
4.06128
11
0.906163
21
4.08312
0
LINE
8
BLACK
6
CONTINUOUS
10
0.906163
20
4.08312
11
0.918436
21
4.10572
0
LINE
8
BLACK
6
CONTINUOUS
10
0.918436
20
4.10572
11
0.929347
21
4.12902
0
LINE
8
BLACK
6
CONTINUOUS
10
0.929347
20
4.12902
11
0.938857
21
4.15291
0
LINE
8
BLACK
6
CONTINUOUS
10
0.938857
20
4.15291
11
0.946934
21
4.17733
0
LINE
8
BLACK
6
CONTINUOUS
10
0.946934
20
4.17733
11
0.953547
21
4.20219
0
LINE
8
BLACK
6
CONTINUOUS
10
0.953547
20
4.20219
11
0.958675
21
4.22739
0
LINE
8
BLACK
6
CONTINUOUS
10
0.958675
20
4.22739
11
0.962299
21
4.25286
0
LINE
8
BLACK
6
CONTINUOUS
10
0.962299
20
4.25286
11
0.964407
21
4.27849
0
LINE
8
BLACK
6
CONTINUOUS
10
0.964407
20
4.27849
11
0.965001
21
4.30118
0
LINE
8
BLACK
6
CONTINUOUS
10
0.965001
20
4.30118
11
0.964238
21
4.32689
0
LINE
8
BLACK
6
CONTINUOUS
10
0.964238
20
4.32689
11
0.961951
21
4.35251
0
LINE
8
BLACK
6
CONTINUOUS
10
0.961951
20
4.35251
11
0.95815
21
4.37795
0
LINE
8
BLACK
6
CONTINUOUS
10
0.95815
20
4.37795
11
0.952846
21
4.40312
0
LINE
8
BLACK
6
CONTINUOUS
10
0.952846
20
4.40312
11
0.946059
21
4.42793
0
LINE
8
BLACK
6
CONTINUOUS
10
0.946059
20
4.42793
11
0.937812
21
4.45229
0
LINE
8
BLACK
6
CONTINUOUS
10
0.937812
20
4.45229
11
0.928136
21
4.47612
0
LINE
8
BLACK
6
CONTINUOUS
10
0.928136
20
4.47612
11
0.917062
21
4.49934
0
LINE
8
BLACK
6
CONTINUOUS
10
0.917062
20
4.49934
11
0.904632
21
4.52185
0
LINE
8
BLACK
6
CONTINUOUS
10
0.904632
20
4.52185
11
0.890888
21
4.54359
0
LINE
8
BLACK
6
CONTINUOUS
10
0.890888
20
4.54359
11
0.875879
21
4.56448
0
LINE
8
BLACK
6
CONTINUOUS
10
0.875879
20
4.56448
11
0.859657
21
4.58444
0
LINE
8
BLACK
6
CONTINUOUS
10
0.859657
20
4.58444
11
0.84228
21
4.60341
0
LINE
8
BLACK
6
CONTINUOUS
10
0.84228
20
4.60341
11
0.823809
21
4.62131
0
LINE
8
BLACK
6
CONTINUOUS
10
0.823809
20
4.62131
11
0.804309
21
4.63808
0
LINE
8
BLACK
6
CONTINUOUS
10
0.804309
20
4.63808
11
0.783849
21
4.65366
0
LINE
8
BLACK
6
CONTINUOUS
10
0.783849
20
4.65366
11
0.762501
21
4.66801
0
LINE
8
BLACK
6
CONTINUOUS
10
0.762501
20
4.66801
11
0.740339
21
4.68106
0
LINE
8
BLACK
6
CONTINUOUS
10
0.740339
20
4.68106
11
0.717442
21
4.69278
0
LINE
8
BLACK
6
CONTINUOUS
10
0.717442
20
4.69278
11
0.69389
21
4.70312
0
LINE
8
BLACK
6
CONTINUOUS
10
0.69389
20
4.70312
11
0.669766
21
4.71204
0
LINE
8
BLACK
6
CONTINUOUS
10
0.669766
20
4.71204
11
0.645156
21
4.71952
0
LINE
8
BLACK
6
CONTINUOUS
10
0.645156
20
4.71952
11
0.620146
21
4.72552
0
LINE
8
BLACK
6
CONTINUOUS
10
0.620146
20
4.72552
11
0.594824
21
4.73004
0
LINE
8
BLACK
6
CONTINUOUS
10
0.594824
20
4.73004
11
0.569279
21
4.73304
0
LINE
8
BLACK
6
CONTINUOUS
10
0.569279
20
4.73304
11
0.5436
21
4.73452
0
LINE
8
BLACK
6
CONTINUOUS
10
0.5436
20
4.73452
11
0.517879
21
4.73447
0
LINE
8
BLACK
6
CONTINUOUS
10
0.517879
20
4.73447
11
0.492206
21
4.7329
0
LINE
8
BLACK
6
CONTINUOUS
10
0.492206
20
4.7329
11
0.466672
21
4.72981
0
LINE
8
BLACK
6
CONTINUOUS
10
0.466672
20
4.72981
11
0.441365
21
4.72521
0
LINE
8
BLACK
6
CONTINUOUS
10
0.441365
20
4.72521
11
0.416376
21
4.71912
0
LINE
8
BLACK
6
CONTINUOUS
10
0.416376
20
4.71912
11
0.391792
21
4.71156
0
LINE
8
BLACK
6
CONTINUOUS
10
0.391792
20
4.71156
11
0.3677
21
4.70255
0
LINE
8
BLACK
6
CONTINUOUS
10
0.3677
20
4.70255
11
0.344185
21
4.69213
0
LINE
8
BLACK
6
CONTINUOUS
10
0.344185
20
4.69213
11
0.321329
21
4.68033
0
LINE
8
BLACK
6
CONTINUOUS
10
0.321329
20
4.68033
11
0.299213
21
4.6672
0
LINE
8
BLACK
6
CONTINUOUS
10
0.299213
20
4.6672
11
0.277914
21
4.65278
0
LINE
8
BLACK
6
CONTINUOUS
10
0.277914
20
4.65278
11
0.257508
21
4.63712
0
LINE
8
BLACK
6
CONTINUOUS
10
0.257508
20
4.63712
11
0.238067
21
4.62028
0
LINE
8
BLACK
6
CONTINUOUS
10
0.238067
20
4.62028
11
0.219659
21
4.60232
0
LINE
8
BLACK
6
CONTINUOUS
10
0.219659
20
4.60232
11
0.202348
21
4.58329
0
LINE
8
BLACK
6
CONTINUOUS
10
0.202348
20
4.58329
11
0.186196
21
4.56328
0
LINE
8
BLACK
6
CONTINUOUS
10
0.186196
20
4.56328
11
0.17126
21
4.54234
0
LINE
8
BLACK
6
CONTINUOUS
10
0.17126
20
4.54234
11
0.157592
21
4.52055
0
LINE
8
BLACK
6
CONTINUOUS
10
0.157592
20
4.52055
11
0.14524
21
4.49799
0
LINE
8
BLACK
6
CONTINUOUS
10
0.14524
20
4.49799
11
0.134248
21
4.47473
0
LINE
8
BLACK
6
CONTINUOUS
10
0.134248
20
4.47473
11
0.124655
21
4.45087
0
LINE
8
BLACK
6
CONTINUOUS
10
0.124655
20
4.45087
11
0.116493
21
4.42648
0
LINE
8
BLACK
6
CONTINUOUS
10
0.116493
20
4.42648
11
0.109793
21
4.40164
0
LINE
8
BLACK
6
CONTINUOUS
10
0.109793
20
4.40164
11
0.104577
21
4.37646
0
LINE
8
BLACK
6
CONTINUOUS
10
0.104577
20
4.37646
11
0.100864
21
4.35101
0
LINE
8
BLACK
6
CONTINUOUS
10
0.100864
20
4.35101
11
0.0986672
21
4.32538
0
LINE
8
BLACK
6
CONTINUOUS
10
0.0986672
20
4.32538
11
0.0979939
21
4.29967
0
LINE
8
BLACK
6
CONTINUOUS
10
0.0979939
20
4.29967
11
0.0988467
21
4.27396
0
LINE
8
BLACK
6
CONTINUOUS
10
0.0988467
20
4.27396
11
0.101222
21
4.24835
  0
ENDSEC
  0
EOF
