  0
SECTION
  2
HEADER
  9
$ANGBASE
  50
0.0
  9
$ANGDIR
  70
1
  9
$MEASUREMENT
  70
0
  0
ENDSEC
  0
SECTION
  2
TABLES
  0
TABLE
  2
LTYPE
  70
4
  0
LTYPE
  5
40F
  2
CONTINUOUS
  70
0
  3
Solid line
  72
65
  73
0
  40
0.0
  0
LTYPE
  5
410
  2
DASHDOT
 70
0
  3
Dash Dot ____ _ ____ _
 72
65
 73
4
 40
2.0
 49
1.25
 49
-0.25
 49
0.25
 49
-0.25
  0
LTYPE
  5
411
  2
DASHED
 70
0
  3
Dashed __ __ __ __ __
 72
65
 73
2
 40
0.75
 49
0.5
 49
-0.25
  0
LTYPE
  5
43B
  2
DOTTED
 70
0
  3
Dotted .  .  .  .
 72
65
 73
2
 40
0.2
 49
0.0
 49
-0.2
  0
ENDTAB
  0
TABLE
  2
STYLE
  70
4
  0
STYLE
  2
KICAD
  70
0
  40
0
  41
1
  42
1
  50
0
  71
0
  3
isocp.shx
  0
STYLE
  2
KICADB
  70
0
  40
0
  41
1
  42
1
  50
0
  71
0
  3
isocp.shx
  0
STYLE
  2
KICADI
  70
0
  40
0
  41
1
  42
1
  50
15
  71
0
  3
isocp.shx
  0
STYLE
  2
KICADBI
  70
0
  40
0
  41
1
  42
1
  50
15
  71
0
  3
isocp.shx
  0
ENDTAB
  0
TABLE
  2
LAYER
  70
1
  0
LAYER
  2
BLACK
  70
0
  62
7
  6
CONTINUOUS
  0
ENDTAB
  0
ENDSEC
  0
SECTION
  2
ENTITIES
0
LINE
8
BLACK
6
CONTINUOUS
10
2.95065
20
-6.46994
11
2.94685
21
-6.46836
0
LINE
8
BLACK
6
CONTINUOUS
10
2.94685
20
-6.46836
11
2.94359
21
-6.46586
0
LINE
8
BLACK
6
CONTINUOUS
10
2.94359
20
-6.46586
11
2.94109
21
-6.4626
0
LINE
8
BLACK
6
CONTINUOUS
10
2.94109
20
-6.4626
11
2.93951
21
-6.4588
0
LINE
8
BLACK
6
CONTINUOUS
10
2.93951
20
-6.4588
11
2.93898
21
-6.45472
0
LINE
8
BLACK
6
CONTINUOUS
10
2.93898
20
-6.45472
11
2.93898
21
-1.45866
0
LINE
8
BLACK
6
CONTINUOUS
10
2.93898
20
-1.45866
11
2.93951
21
-1.45459
0
LINE
8
BLACK
6
CONTINUOUS
10
2.93951
20
-1.45459
11
2.94109
21
-1.45079
0
LINE
8
BLACK
6
CONTINUOUS
10
2.94109
20
-1.45079
11
2.94359
21
-1.44753
0
LINE
8
BLACK
6
CONTINUOUS
10
2.94359
20
-1.44753
11
2.94685
21
-1.44502
0
LINE
8
BLACK
6
CONTINUOUS
10
2.94685
20
-1.44502
11
2.95065
21
-1.44345
0
LINE
8
BLACK
6
CONTINUOUS
10
2.95065
20
-1.44345
11
2.95472
21
-1.44291
0
LINE
8
BLACK
6
CONTINUOUS
10
2.95472
20
-1.44291
11
4.91929
21
-1.44291
0
LINE
8
BLACK
6
CONTINUOUS
10
4.91929
20
-1.44291
11
4.92337
21
-1.44345
0
LINE
8
BLACK
6
CONTINUOUS
10
4.92337
20
-1.44345
11
4.92717
21
-1.44502
0
LINE
8
BLACK
6
CONTINUOUS
10
4.92717
20
-1.44502
11
4.93043
21
-1.44753
0
LINE
8
BLACK
6
CONTINUOUS
10
4.93043
20
-1.44753
11
4.93293
21
-1.45079
0
LINE
8
BLACK
6
CONTINUOUS
10
4.93293
20
-1.45079
11
4.9345
21
-1.45459
0
LINE
8
BLACK
6
CONTINUOUS
10
4.9345
20
-1.45459
11
4.93504
21
-1.45866
0
LINE
8
BLACK
6
CONTINUOUS
10
4.93504
20
-1.45866
11
4.93504
21
-6.45472
0
LINE
8
BLACK
6
CONTINUOUS
10
4.93504
20
-6.45472
11
4.9345
21
-6.4588
0
LINE
8
BLACK
6
CONTINUOUS
10
4.9345
20
-6.4588
11
4.93293
21
-6.4626
0
LINE
8
BLACK
6
CONTINUOUS
10
4.93293
20
-6.4626
11
4.93043
21
-6.46586
0
LINE
8
BLACK
6
CONTINUOUS
10
4.93043
20
-6.46586
11
4.92717
21
-6.46836
0
LINE
8
BLACK
6
CONTINUOUS
10
4.92717
20
-6.46836
11
4.92337
21
-6.46994
0
LINE
8
BLACK
6
CONTINUOUS
10
4.92337
20
-6.46994
11
4.91929
21
-6.47047
0
LINE
8
BLACK
6
CONTINUOUS
10
4.91929
20
-6.47047
11
2.95472
21
-6.47047
0
LINE
8
BLACK
6
CONTINUOUS
10
2.95472
20
-6.47047
11
2.95065
21
-6.46994
0
LINE
8
BLACK
6
CONTINUOUS
10
2.95452
20
-1.45072
11
2.95226
21
-1.45108
0
LINE
8
BLACK
6
CONTINUOUS
10
2.95226
20
-1.45108
11
2.95004
21
-1.45221
0
LINE
8
BLACK
6
CONTINUOUS
10
2.95004
20
-1.45221
11
2.94827
21
-1.45398
0
LINE
8
BLACK
6
CONTINUOUS
10
2.94827
20
-1.45398
11
2.94714
21
-1.4562
0
LINE
8
BLACK
6
CONTINUOUS
10
2.94714
20
-1.4562
11
2.94678
21
-1.45846
0
LINE
8
BLACK
6
CONTINUOUS
10
2.94678
20
-1.45846
11
2.94685
21
-1.45866
0
LINE
8
BLACK
6
CONTINUOUS
10
2.94685
20
-1.45866
11
2.94685
21
-6.45472
0
LINE
8
BLACK
6
CONTINUOUS
10
2.94685
20
-6.45472
11
2.94678
21
-6.45493
0
LINE
8
BLACK
6
CONTINUOUS
10
2.94678
20
-6.45493
11
2.94714
21
-6.45719
0
LINE
8
BLACK
6
CONTINUOUS
10
2.94714
20
-6.45719
11
2.94827
21
-6.45941
0
LINE
8
BLACK
6
CONTINUOUS
10
2.94827
20
-6.45941
11
2.95004
21
-6.46117
0
LINE
8
BLACK
6
CONTINUOUS
10
2.95004
20
-6.46117
11
2.95226
21
-6.46231
0
LINE
8
BLACK
6
CONTINUOUS
10
2.95226
20
-6.46231
11
2.95452
21
-6.46266
0
LINE
8
BLACK
6
CONTINUOUS
10
2.95452
20
-6.46266
11
2.95472
21
-6.4626
0
LINE
8
BLACK
6
CONTINUOUS
10
2.95472
20
-6.4626
11
4.91929
21
-6.4626
0
LINE
8
BLACK
6
CONTINUOUS
10
4.91929
20
-6.4626
11
4.91949
21
-6.46266
0
LINE
8
BLACK
6
CONTINUOUS
10
4.91949
20
-6.46266
11
4.92175
21
-6.46231
0
LINE
8
BLACK
6
CONTINUOUS
10
4.92175
20
-6.46231
11
4.92398
21
-6.46117
0
LINE
8
BLACK
6
CONTINUOUS
10
4.92398
20
-6.46117
11
4.92574
21
-6.45941
0
LINE
8
BLACK
6
CONTINUOUS
10
4.92574
20
-6.45941
11
4.92687
21
-6.45719
0
LINE
8
BLACK
6
CONTINUOUS
10
4.92687
20
-6.45719
11
4.92723
21
-6.45493
0
LINE
8
BLACK
6
CONTINUOUS
10
4.92723
20
-6.45493
11
4.92717
21
-6.45472
0
LINE
8
BLACK
6
CONTINUOUS
10
4.92717
20
-6.45472
11
4.92717
21
-1.45866
0
LINE
8
BLACK
6
CONTINUOUS
10
4.92717
20
-1.45866
11
4.92723
21
-1.45846
0
LINE
8
BLACK
6
CONTINUOUS
10
4.92723
20
-1.45846
11
4.92687
21
-1.4562
0
LINE
8
BLACK
6
CONTINUOUS
10
4.92687
20
-1.4562
11
4.92574
21
-1.45398
0
LINE
8
BLACK
6
CONTINUOUS
10
4.92574
20
-1.45398
11
4.92398
21
-1.45221
0
LINE
8
BLACK
6
CONTINUOUS
10
4.92398
20
-1.45221
11
4.92175
21
-1.45108
0
LINE
8
BLACK
6
CONTINUOUS
10
4.92175
20
-1.45108
11
4.91949
21
-1.45072
0
LINE
8
BLACK
6
CONTINUOUS
10
4.91949
20
-1.45072
11
4.91929
21
-1.45079
0
LINE
8
BLACK
6
CONTINUOUS
10
4.91929
20
-1.45079
11
2.95472
21
-1.45079
0
LINE
8
BLACK
6
CONTINUOUS
10
2.95472
20
-1.45079
11
2.95452
21
-1.45072
0
LINE
8
BLACK
6
CONTINUOUS
10
3.07385
20
-6.35649
11
3.07629
21
-6.34687
0
LINE
8
BLACK
6
CONTINUOUS
10
3.07629
20
-6.34687
11
3.08013
21
-6.33773
0
LINE
8
BLACK
6
CONTINUOUS
10
3.08013
20
-6.33773
11
3.08528
21
-6.32924
0
LINE
8
BLACK
6
CONTINUOUS
10
3.08528
20
-6.32924
11
3.09162
21
-6.32162
0
LINE
8
BLACK
6
CONTINUOUS
10
3.09162
20
-6.32162
11
3.09902
21
-6.31501
0
LINE
8
BLACK
6
CONTINUOUS
10
3.09902
20
-6.31501
11
3.10732
21
-6.30957
0
LINE
8
BLACK
6
CONTINUOUS
10
3.10732
20
-6.30957
11
3.11632
21
-6.30542
0
LINE
8
BLACK
6
CONTINUOUS
10
3.11632
20
-6.30542
11
3.12585
21
-6.30264
0
LINE
8
BLACK
6
CONTINUOUS
10
3.12585
20
-6.30264
11
3.13568
21
-6.30131
0
LINE
8
BLACK
6
CONTINUOUS
10
3.13568
20
-6.30131
11
3.1456
21
-6.30144
0
LINE
8
BLACK
6
CONTINUOUS
10
3.1456
20
-6.30144
11
3.15539
21
-6.30303
0
LINE
8
BLACK
6
CONTINUOUS
10
3.15539
20
-6.30303
11
3.16484
21
-6.30605
0
LINE
8
BLACK
6
CONTINUOUS
10
3.16484
20
-6.30605
11
3.17373
21
-6.31044
0
LINE
8
BLACK
6
CONTINUOUS
10
3.17373
20
-6.31044
11
3.18188
21
-6.3161
0
LINE
8
BLACK
6
CONTINUOUS
10
3.18188
20
-6.3161
11
3.18911
21
-6.32289
0
LINE
8
BLACK
6
CONTINUOUS
10
3.18911
20
-6.32289
11
3.19525
21
-6.33068
0
LINE
8
BLACK
6
CONTINUOUS
10
3.19525
20
-6.33068
11
3.20017
21
-6.3393
0
LINE
8
BLACK
6
CONTINUOUS
10
3.20017
20
-6.3393
11
3.20377
21
-6.34854
0
LINE
8
BLACK
6
CONTINUOUS
10
3.20377
20
-6.34854
11
3.20596
21
-6.35822
0
LINE
8
BLACK
6
CONTINUOUS
10
3.20596
20
-6.35822
11
3.20669
21
-6.36811
0
LINE
8
BLACK
6
CONTINUOUS
10
3.20669
20
-6.36811
11
3.2066
21
-6.37161
0
LINE
8
BLACK
6
CONTINUOUS
10
3.2066
20
-6.37161
11
3.20535
21
-6.38145
0
LINE
8
BLACK
6
CONTINUOUS
10
3.20535
20
-6.38145
11
3.20266
21
-6.391
0
LINE
8
BLACK
6
CONTINUOUS
10
3.20266
20
-6.391
11
3.19858
21
-6.40005
0
LINE
8
BLACK
6
CONTINUOUS
10
3.19858
20
-6.40005
11
3.19322
21
-6.40839
0
LINE
8
BLACK
6
CONTINUOUS
10
3.19322
20
-6.40839
11
3.18668
21
-6.41585
0
LINE
8
BLACK
6
CONTINUOUS
10
3.18668
20
-6.41585
11
3.1791
21
-6.42226
0
LINE
8
BLACK
6
CONTINUOUS
10
3.1791
20
-6.42226
11
3.17067
21
-6.42748
0
LINE
8
BLACK
6
CONTINUOUS
10
3.17067
20
-6.42748
11
3.16155
21
-6.43139
0
LINE
8
BLACK
6
CONTINUOUS
10
3.16155
20
-6.43139
11
3.15196
21
-6.43392
0
LINE
8
BLACK
6
CONTINUOUS
10
3.15196
20
-6.43392
11
3.1421
21
-6.435
0
LINE
8
BLACK
6
CONTINUOUS
10
3.1421
20
-6.435
11
3.13219
21
-6.43461
0
LINE
8
BLACK
6
CONTINUOUS
10
3.13219
20
-6.43461
11
3.12244
21
-6.43276
0
LINE
8
BLACK
6
CONTINUOUS
10
3.12244
20
-6.43276
11
3.11308
21
-6.42949
0
LINE
8
BLACK
6
CONTINUOUS
10
3.11308
20
-6.42949
11
3.1043
21
-6.42487
0
LINE
8
BLACK
6
CONTINUOUS
10
3.1043
20
-6.42487
11
3.0963
21
-6.419
0
LINE
8
BLACK
6
CONTINUOUS
10
3.0963
20
-6.419
11
3.08925
21
-6.41202
0
LINE
8
BLACK
6
CONTINUOUS
10
3.08925
20
-6.41202
11
3.08332
21
-6.40407
0
LINE
8
BLACK
6
CONTINUOUS
10
3.08332
20
-6.40407
11
3.07862
21
-6.39533
0
LINE
8
BLACK
6
CONTINUOUS
10
3.07862
20
-6.39533
11
3.07527
21
-6.386
0
LINE
8
BLACK
6
CONTINUOUS
10
3.07527
20
-6.386
11
3.07333
21
-6.37627
0
LINE
8
BLACK
6
CONTINUOUS
10
3.07333
20
-6.37627
11
3.07287
21
-6.36666
0
LINE
8
BLACK
6
CONTINUOUS
10
3.07287
20
-6.36666
11
3.07286
21
-6.36636
0
LINE
8
BLACK
6
CONTINUOUS
10
3.07286
20
-6.36636
11
3.07385
21
-6.35649
0
LINE
8
BLACK
6
CONTINUOUS
10
3.08322
20
-6.38583
11
3.08687
21
-6.39483
0
LINE
8
BLACK
6
CONTINUOUS
10
3.08687
20
-6.39483
11
3.09195
21
-6.40311
0
LINE
8
BLACK
6
CONTINUOUS
10
3.09195
20
-6.40311
11
3.0983
21
-6.41045
0
LINE
8
BLACK
6
CONTINUOUS
10
3.0983
20
-6.41045
11
3.10578
21
-6.41665
0
LINE
8
BLACK
6
CONTINUOUS
10
3.10578
20
-6.41665
11
3.11416
21
-6.42155
0
LINE
8
BLACK
6
CONTINUOUS
10
3.11416
20
-6.42155
11
3.12323
21
-6.42501
0
LINE
8
BLACK
6
CONTINUOUS
10
3.12323
20
-6.42501
11
3.13275
21
-6.42695
0
LINE
8
BLACK
6
CONTINUOUS
10
3.13275
20
-6.42695
11
3.14245
21
-6.42731
0
LINE
8
BLACK
6
CONTINUOUS
10
3.14245
20
-6.42731
11
3.15208
21
-6.42607
0
LINE
8
BLACK
6
CONTINUOUS
10
3.15208
20
-6.42607
11
3.16139
21
-6.42328
0
LINE
8
BLACK
6
CONTINUOUS
10
3.16139
20
-6.42328
11
3.17011
21
-6.41901
0
LINE
8
BLACK
6
CONTINUOUS
10
3.17011
20
-6.41901
11
3.17801
21
-6.41337
0
LINE
8
BLACK
6
CONTINUOUS
10
3.17801
20
-6.41337
11
3.18489
21
-6.40652
0
LINE
8
BLACK
6
CONTINUOUS
10
3.18489
20
-6.40652
11
3.19056
21
-6.39863
0
LINE
8
BLACK
6
CONTINUOUS
10
3.19056
20
-6.39863
11
3.19486
21
-6.38992
0
LINE
8
BLACK
6
CONTINUOUS
10
3.19486
20
-6.38992
11
3.19768
21
-6.38063
0
LINE
8
BLACK
6
CONTINUOUS
10
3.19768
20
-6.38063
11
3.19895
21
-6.371
0
LINE
8
BLACK
6
CONTINUOUS
10
3.19895
20
-6.371
11
3.19902
21
-6.36811
0
LINE
8
BLACK
6
CONTINUOUS
10
3.19902
20
-6.36811
11
3.19823
21
-6.35843
0
LINE
8
BLACK
6
CONTINUOUS
10
3.19823
20
-6.35843
11
3.19586
21
-6.34901
0
LINE
8
BLACK
6
CONTINUOUS
10
3.19586
20
-6.34901
11
3.19199
21
-6.34011
0
LINE
8
BLACK
6
CONTINUOUS
10
3.19199
20
-6.34011
11
3.18671
21
-6.33195
0
LINE
8
BLACK
6
CONTINUOUS
10
3.18671
20
-6.33195
11
3.18018
21
-6.32477
0
LINE
8
BLACK
6
CONTINUOUS
10
3.18018
20
-6.32477
11
3.17256
21
-6.31875
0
LINE
8
BLACK
6
CONTINUOUS
10
3.17256
20
-6.31875
11
3.16405
21
-6.31406
0
LINE
8
BLACK
6
CONTINUOUS
10
3.16405
20
-6.31406
11
3.1549
21
-6.31082
0
LINE
8
BLACK
6
CONTINUOUS
10
3.1549
20
-6.31082
11
3.14534
21
-6.30912
0
LINE
8
BLACK
6
CONTINUOUS
10
3.14534
20
-6.30912
11
3.13563
21
-6.309
0
LINE
8
BLACK
6
CONTINUOUS
10
3.13563
20
-6.309
11
3.12603
21
-6.31047
0
LINE
8
BLACK
6
CONTINUOUS
10
3.12603
20
-6.31047
11
3.1168
21
-6.31348
0
LINE
8
BLACK
6
CONTINUOUS
10
3.1168
20
-6.31348
11
3.10819
21
-6.31797
0
LINE
8
BLACK
6
CONTINUOUS
10
3.10819
20
-6.31797
11
3.10042
21
-6.3238
0
LINE
8
BLACK
6
CONTINUOUS
10
3.10042
20
-6.3238
11
3.09371
21
-6.33082
0
LINE
8
BLACK
6
CONTINUOUS
10
3.09371
20
-6.33082
11
3.08824
21
-6.33884
0
LINE
8
BLACK
6
CONTINUOUS
10
3.08824
20
-6.33884
11
3.08415
21
-6.34765
0
LINE
8
BLACK
6
CONTINUOUS
10
3.08415
20
-6.34765
11
3.08156
21
-6.35701
0
LINE
8
BLACK
6
CONTINUOUS
10
3.08156
20
-6.35701
11
3.08052
21
-6.36666
0
LINE
8
BLACK
6
CONTINUOUS
10
3.08052
20
-6.36666
11
3.08108
21
-6.37636
0
LINE
8
BLACK
6
CONTINUOUS
10
3.08108
20
-6.37636
11
3.08322
21
-6.38583
0
LINE
8
BLACK
6
CONTINUOUS
10
4.66834
20
-6.35649
11
4.67078
21
-6.34687
0
LINE
8
BLACK
6
CONTINUOUS
10
4.67078
20
-6.34687
11
4.67462
21
-6.33773
0
LINE
8
BLACK
6
CONTINUOUS
10
4.67462
20
-6.33773
11
4.67976
21
-6.32924
0
LINE
8
BLACK
6
CONTINUOUS
10
4.67976
20
-6.32924
11
4.68611
21
-6.32162
0
LINE
8
BLACK
6
CONTINUOUS
10
4.68611
20
-6.32162
11
4.69351
21
-6.31501
0
LINE
8
BLACK
6
CONTINUOUS
10
4.69351
20
-6.31501
11
4.7018
21
-6.30957
0
LINE
8
BLACK
6
CONTINUOUS
10
4.7018
20
-6.30957
11
4.71081
21
-6.30542
0
LINE
8
BLACK
6
CONTINUOUS
10
4.71081
20
-6.30542
11
4.72034
21
-6.30264
0
LINE
8
BLACK
6
CONTINUOUS
10
4.72034
20
-6.30264
11
4.73017
21
-6.30131
0
LINE
8
BLACK
6
CONTINUOUS
10
4.73017
20
-6.30131
11
4.74009
21
-6.30144
0
LINE
8
BLACK
6
CONTINUOUS
10
4.74009
20
-6.30144
11
4.74988
21
-6.30303
0
LINE
8
BLACK
6
CONTINUOUS
10
4.74988
20
-6.30303
11
4.75932
21
-6.30605
0
LINE
8
BLACK
6
CONTINUOUS
10
4.75932
20
-6.30605
11
4.76822
21
-6.31044
0
LINE
8
BLACK
6
CONTINUOUS
10
4.76822
20
-6.31044
11
4.77637
21
-6.3161
0
LINE
8
BLACK
6
CONTINUOUS
10
4.77637
20
-6.3161
11
4.7836
21
-6.32289
0
LINE
8
BLACK
6
CONTINUOUS
10
4.7836
20
-6.32289
11
4.78974
21
-6.33068
0
LINE
8
BLACK
6
CONTINUOUS
10
4.78974
20
-6.33068
11
4.79466
21
-6.3393
0
LINE
8
BLACK
6
CONTINUOUS
10
4.79466
20
-6.3393
11
4.79826
21
-6.34854
0
LINE
8
BLACK
6
CONTINUOUS
10
4.79826
20
-6.34854
11
4.80045
21
-6.35822
0
LINE
8
BLACK
6
CONTINUOUS
10
4.80045
20
-6.35822
11
4.80118
21
-6.36811
0
LINE
8
BLACK
6
CONTINUOUS
10
4.80118
20
-6.36811
11
4.80109
21
-6.37161
0
LINE
8
BLACK
6
CONTINUOUS
10
4.80109
20
-6.37161
11
4.79984
21
-6.38145
0
LINE
8
BLACK
6
CONTINUOUS
10
4.79984
20
-6.38145
11
4.79714
21
-6.391
0
LINE
8
BLACK
6
CONTINUOUS
10
4.79714
20
-6.391
11
4.79307
21
-6.40005
0
LINE
8
BLACK
6
CONTINUOUS
10
4.79307
20
-6.40005
11
4.7877
21
-6.40839
0
LINE
8
BLACK
6
CONTINUOUS
10
4.7877
20
-6.40839
11
4.78116
21
-6.41585
0
LINE
8
BLACK
6
CONTINUOUS
10
4.78116
20
-6.41585
11
4.77359
21
-6.42226
0
LINE
8
BLACK
6
CONTINUOUS
10
4.77359
20
-6.42226
11
4.76516
21
-6.42748
0
LINE
8
BLACK
6
CONTINUOUS
10
4.76516
20
-6.42748
11
4.75604
21
-6.43139
0
LINE
8
BLACK
6
CONTINUOUS
10
4.75604
20
-6.43139
11
4.74645
21
-6.43392
0
LINE
8
BLACK
6
CONTINUOUS
10
4.74645
20
-6.43392
11
4.73659
21
-6.435
0
LINE
8
BLACK
6
CONTINUOUS
10
4.73659
20
-6.435
11
4.72668
21
-6.43461
0
LINE
8
BLACK
6
CONTINUOUS
10
4.72668
20
-6.43461
11
4.71693
21
-6.43276
0
LINE
8
BLACK
6
CONTINUOUS
10
4.71693
20
-6.43276
11
4.70756
21
-6.42949
0
LINE
8
BLACK
6
CONTINUOUS
10
4.70756
20
-6.42949
11
4.69878
21
-6.42487
0
LINE
8
BLACK
6
CONTINUOUS
10
4.69878
20
-6.42487
11
4.69078
21
-6.419
0
LINE
8
BLACK
6
CONTINUOUS
10
4.69078
20
-6.419
11
4.68374
21
-6.41202
0
LINE
8
BLACK
6
CONTINUOUS
10
4.68374
20
-6.41202
11
4.6778
21
-6.40407
0
LINE
8
BLACK
6
CONTINUOUS
10
4.6778
20
-6.40407
11
4.67311
21
-6.39533
0
LINE
8
BLACK
6
CONTINUOUS
10
4.67311
20
-6.39533
11
4.66976
21
-6.386
0
LINE
8
BLACK
6
CONTINUOUS
10
4.66976
20
-6.386
11
4.66782
21
-6.37627
0
LINE
8
BLACK
6
CONTINUOUS
10
4.66782
20
-6.37627
11
4.66736
21
-6.36666
0
LINE
8
BLACK
6
CONTINUOUS
10
4.66736
20
-6.36666
11
4.66735
21
-6.36636
0
LINE
8
BLACK
6
CONTINUOUS
10
4.66735
20
-6.36636
11
4.66834
21
-6.35649
0
LINE
8
BLACK
6
CONTINUOUS
10
4.67771
20
-6.38583
11
4.68136
21
-6.39483
0
LINE
8
BLACK
6
CONTINUOUS
10
4.68136
20
-6.39483
11
4.68643
21
-6.40311
0
LINE
8
BLACK
6
CONTINUOUS
10
4.68643
20
-6.40311
11
4.69279
21
-6.41045
0
LINE
8
BLACK
6
CONTINUOUS
10
4.69279
20
-6.41045
11
4.70026
21
-6.41665
0
LINE
8
BLACK
6
CONTINUOUS
10
4.70026
20
-6.41665
11
4.70865
21
-6.42155
0
LINE
8
BLACK
6
CONTINUOUS
10
4.70865
20
-6.42155
11
4.71772
21
-6.42501
0
LINE
8
BLACK
6
CONTINUOUS
10
4.71772
20
-6.42501
11
4.72724
21
-6.42695
0
LINE
8
BLACK
6
CONTINUOUS
10
4.72724
20
-6.42695
11
4.73694
21
-6.42731
0
LINE
8
BLACK
6
CONTINUOUS
10
4.73694
20
-6.42731
11
4.74657
21
-6.42607
0
LINE
8
BLACK
6
CONTINUOUS
10
4.74657
20
-6.42607
11
4.75587
21
-6.42328
0
LINE
8
BLACK
6
CONTINUOUS
10
4.75587
20
-6.42328
11
4.76459
21
-6.41901
0
LINE
8
BLACK
6
CONTINUOUS
10
4.76459
20
-6.41901
11
4.7725
21
-6.41337
0
LINE
8
BLACK
6
CONTINUOUS
10
4.7725
20
-6.41337
11
4.77938
21
-6.40652
0
LINE
8
BLACK
6
CONTINUOUS
10
4.77938
20
-6.40652
11
4.78505
21
-6.39863
0
LINE
8
BLACK
6
CONTINUOUS
10
4.78505
20
-6.39863
11
4.78935
21
-6.38992
0
LINE
8
BLACK
6
CONTINUOUS
10
4.78935
20
-6.38992
11
4.79217
21
-6.38063
0
LINE
8
BLACK
6
CONTINUOUS
10
4.79217
20
-6.38063
11
4.79344
21
-6.371
0
LINE
8
BLACK
6
CONTINUOUS
10
4.79344
20
-6.371
11
4.79351
21
-6.36811
0
LINE
8
BLACK
6
CONTINUOUS
10
4.79351
20
-6.36811
11
4.79271
21
-6.35843
0
LINE
8
BLACK
6
CONTINUOUS
10
4.79271
20
-6.35843
11
4.79035
21
-6.34901
0
LINE
8
BLACK
6
CONTINUOUS
10
4.79035
20
-6.34901
11
4.78648
21
-6.34011
0
LINE
8
BLACK
6
CONTINUOUS
10
4.78648
20
-6.34011
11
4.7812
21
-6.33195
0
LINE
8
BLACK
6
CONTINUOUS
10
4.7812
20
-6.33195
11
4.77467
21
-6.32477
0
LINE
8
BLACK
6
CONTINUOUS
10
4.77467
20
-6.32477
11
4.76704
21
-6.31875
0
LINE
8
BLACK
6
CONTINUOUS
10
4.76704
20
-6.31875
11
4.75854
21
-6.31406
0
LINE
8
BLACK
6
CONTINUOUS
10
4.75854
20
-6.31406
11
4.74939
21
-6.31082
0
LINE
8
BLACK
6
CONTINUOUS
10
4.74939
20
-6.31082
11
4.73983
21
-6.30912
0
LINE
8
BLACK
6
CONTINUOUS
10
4.73983
20
-6.30912
11
4.73012
21
-6.309
0
LINE
8
BLACK
6
CONTINUOUS
10
4.73012
20
-6.309
11
4.72052
21
-6.31047
0
LINE
8
BLACK
6
CONTINUOUS
10
4.72052
20
-6.31047
11
4.71129
21
-6.31348
0
LINE
8
BLACK
6
CONTINUOUS
10
4.71129
20
-6.31348
11
4.70268
21
-6.31797
0
LINE
8
BLACK
6
CONTINUOUS
10
4.70268
20
-6.31797
11
4.69491
21
-6.3238
0
LINE
8
BLACK
6
CONTINUOUS
10
4.69491
20
-6.3238
11
4.6882
21
-6.33082
0
LINE
8
BLACK
6
CONTINUOUS
10
4.6882
20
-6.33082
11
4.68273
21
-6.33884
0
LINE
8
BLACK
6
CONTINUOUS
10
4.68273
20
-6.33884
11
4.67864
21
-6.34765
0
LINE
8
BLACK
6
CONTINUOUS
10
4.67864
20
-6.34765
11
4.67604
21
-6.35701
0
LINE
8
BLACK
6
CONTINUOUS
10
4.67604
20
-6.35701
11
4.67501
21
-6.36666
0
LINE
8
BLACK
6
CONTINUOUS
10
4.67501
20
-6.36666
11
4.67557
21
-6.37636
0
LINE
8
BLACK
6
CONTINUOUS
10
4.67557
20
-6.37636
11
4.67771
21
-6.38583
0
LINE
8
BLACK
6
CONTINUOUS
10
4.66834
20
-1.53365
11
4.67078
21
-1.52404
0
LINE
8
BLACK
6
CONTINUOUS
10
4.67078
20
-1.52404
11
4.67462
21
-1.51489
0
LINE
8
BLACK
6
CONTINUOUS
10
4.67462
20
-1.51489
11
4.67976
21
-1.50641
0
LINE
8
BLACK
6
CONTINUOUS
10
4.67976
20
-1.50641
11
4.68611
21
-1.49878
0
LINE
8
BLACK
6
CONTINUOUS
10
4.68611
20
-1.49878
11
4.69351
21
-1.49218
0
LINE
8
BLACK
6
CONTINUOUS
10
4.69351
20
-1.49218
11
4.7018
21
-1.48674
0
LINE
8
BLACK
6
CONTINUOUS
10
4.7018
20
-1.48674
11
4.71081
21
-1.48258
0
LINE
8
BLACK
6
CONTINUOUS
10
4.71081
20
-1.48258
11
4.72034
21
-1.47981
0
LINE
8
BLACK
6
CONTINUOUS
10
4.72034
20
-1.47981
11
4.73017
21
-1.47847
0
LINE
8
BLACK
6
CONTINUOUS
10
4.73017
20
-1.47847
11
4.74009
21
-1.4786
0
LINE
8
BLACK
6
CONTINUOUS
10
4.74009
20
-1.4786
11
4.74988
21
-1.4802
0
LINE
8
BLACK
6
CONTINUOUS
10
4.74988
20
-1.4802
11
4.75932
21
-1.48322
0
LINE
8
BLACK
6
CONTINUOUS
10
4.75932
20
-1.48322
11
4.76822
21
-1.48761
0
LINE
8
BLACK
6
CONTINUOUS
10
4.76822
20
-1.48761
11
4.77637
21
-1.49326
0
LINE
8
BLACK
6
CONTINUOUS
10
4.77637
20
-1.49326
11
4.7836
21
-1.50006
0
LINE
8
BLACK
6
CONTINUOUS
10
4.7836
20
-1.50006
11
4.78974
21
-1.50785
0
LINE
8
BLACK
6
CONTINUOUS
10
4.78974
20
-1.50785
11
4.79466
21
-1.51646
0
LINE
8
BLACK
6
CONTINUOUS
10
4.79466
20
-1.51646
11
4.79826
21
-1.52571
0
LINE
8
BLACK
6
CONTINUOUS
10
4.79826
20
-1.52571
11
4.80045
21
-1.53538
0
LINE
8
BLACK
6
CONTINUOUS
10
4.80045
20
-1.53538
11
4.80118
21
-1.54528
0
LINE
8
BLACK
6
CONTINUOUS
10
4.80118
20
-1.54528
11
4.80109
21
-1.54878
0
LINE
8
BLACK
6
CONTINUOUS
10
4.80109
20
-1.54878
11
4.79984
21
-1.55862
0
LINE
8
BLACK
6
CONTINUOUS
10
4.79984
20
-1.55862
11
4.79714
21
-1.56817
0
LINE
8
BLACK
6
CONTINUOUS
10
4.79714
20
-1.56817
11
4.79307
21
-1.57721
0
LINE
8
BLACK
6
CONTINUOUS
10
4.79307
20
-1.57721
11
4.7877
21
-1.58555
0
LINE
8
BLACK
6
CONTINUOUS
10
4.7877
20
-1.58555
11
4.78116
21
-1.59301
0
LINE
8
BLACK
6
CONTINUOUS
10
4.78116
20
-1.59301
11
4.77359
21
-1.59942
0
LINE
8
BLACK
6
CONTINUOUS
10
4.77359
20
-1.59942
11
4.76516
21
-1.60464
0
LINE
8
BLACK
6
CONTINUOUS
10
4.76516
20
-1.60464
11
4.75604
21
-1.60856
0
LINE
8
BLACK
6
CONTINUOUS
10
4.75604
20
-1.60856
11
4.74645
21
-1.61108
0
LINE
8
BLACK
6
CONTINUOUS
10
4.74645
20
-1.61108
11
4.73659
21
-1.61216
0
LINE
8
BLACK
6
CONTINUOUS
10
4.73659
20
-1.61216
11
4.72668
21
-1.61177
0
LINE
8
BLACK
6
CONTINUOUS
10
4.72668
20
-1.61177
11
4.71693
21
-1.60992
0
LINE
8
BLACK
6
CONTINUOUS
10
4.71693
20
-1.60992
11
4.70756
21
-1.60665
0
LINE
8
BLACK
6
CONTINUOUS
10
4.70756
20
-1.60665
11
4.69878
21
-1.60203
0
LINE
8
BLACK
6
CONTINUOUS
10
4.69878
20
-1.60203
11
4.69078
21
-1.59617
0
LINE
8
BLACK
6
CONTINUOUS
10
4.69078
20
-1.59617
11
4.68374
21
-1.58919
0
LINE
8
BLACK
6
CONTINUOUS
10
4.68374
20
-1.58919
11
4.6778
21
-1.58124
0
LINE
8
BLACK
6
CONTINUOUS
10
4.6778
20
-1.58124
11
4.67311
21
-1.5725
0
LINE
8
BLACK
6
CONTINUOUS
10
4.67311
20
-1.5725
11
4.66976
21
-1.56316
0
LINE
8
BLACK
6
CONTINUOUS
10
4.66976
20
-1.56316
11
4.66782
21
-1.55343
0
LINE
8
BLACK
6
CONTINUOUS
10
4.66782
20
-1.55343
11
4.66736
21
-1.54383
0
LINE
8
BLACK
6
CONTINUOUS
10
4.66736
20
-1.54383
11
4.66735
21
-1.54352
0
LINE
8
BLACK
6
CONTINUOUS
10
4.66735
20
-1.54352
11
4.66834
21
-1.53365
0
LINE
8
BLACK
6
CONTINUOUS
10
4.67771
20
-1.563
11
4.68136
21
-1.57199
0
LINE
8
BLACK
6
CONTINUOUS
10
4.68136
20
-1.57199
11
4.68643
21
-1.58027
0
LINE
8
BLACK
6
CONTINUOUS
10
4.68643
20
-1.58027
11
4.69279
21
-1.58761
0
LINE
8
BLACK
6
CONTINUOUS
10
4.69279
20
-1.58761
11
4.70026
21
-1.59382
0
LINE
8
BLACK
6
CONTINUOUS
10
4.70026
20
-1.59382
11
4.70865
21
-1.59872
0
LINE
8
BLACK
6
CONTINUOUS
10
4.70865
20
-1.59872
11
4.71772
21
-1.60218
0
LINE
8
BLACK
6
CONTINUOUS
10
4.71772
20
-1.60218
11
4.72724
21
-1.60412
0
LINE
8
BLACK
6
CONTINUOUS
10
4.72724
20
-1.60412
11
4.73694
21
-1.60447
0
LINE
8
BLACK
6
CONTINUOUS
10
4.73694
20
-1.60447
11
4.74657
21
-1.60324
0
LINE
8
BLACK
6
CONTINUOUS
10
4.74657
20
-1.60324
11
4.75587
21
-1.60045
0
LINE
8
BLACK
6
CONTINUOUS
10
4.75587
20
-1.60045
11
4.76459
21
-1.59618
0
LINE
8
BLACK
6
CONTINUOUS
10
4.76459
20
-1.59618
11
4.7725
21
-1.59054
0
LINE
8
BLACK
6
CONTINUOUS
10
4.7725
20
-1.59054
11
4.77938
21
-1.58368
0
LINE
8
BLACK
6
CONTINUOUS
10
4.77938
20
-1.58368
11
4.78505
21
-1.5758
0
LINE
8
BLACK
6
CONTINUOUS
10
4.78505
20
-1.5758
11
4.78935
21
-1.56709
0
LINE
8
BLACK
6
CONTINUOUS
10
4.78935
20
-1.56709
11
4.79217
21
-1.5578
0
LINE
8
BLACK
6
CONTINUOUS
10
4.79217
20
-1.5578
11
4.79344
21
-1.54817
0
LINE
8
BLACK
6
CONTINUOUS
10
4.79344
20
-1.54817
11
4.79351
21
-1.54528
0
LINE
8
BLACK
6
CONTINUOUS
10
4.79351
20
-1.54528
11
4.79271
21
-1.5356
0
LINE
8
BLACK
6
CONTINUOUS
10
4.79271
20
-1.5356
11
4.79035
21
-1.52618
0
LINE
8
BLACK
6
CONTINUOUS
10
4.79035
20
-1.52618
11
4.78648
21
-1.51727
0
LINE
8
BLACK
6
CONTINUOUS
10
4.78648
20
-1.51727
11
4.7812
21
-1.50912
0
LINE
8
BLACK
6
CONTINUOUS
10
4.7812
20
-1.50912
11
4.77467
21
-1.50194
0
LINE
8
BLACK
6
CONTINUOUS
10
4.77467
20
-1.50194
11
4.76704
21
-1.49592
0
LINE
8
BLACK
6
CONTINUOUS
10
4.76704
20
-1.49592
11
4.75854
21
-1.49123
0
LINE
8
BLACK
6
CONTINUOUS
10
4.75854
20
-1.49123
11
4.74939
21
-1.48798
0
LINE
8
BLACK
6
CONTINUOUS
10
4.74939
20
-1.48798
11
4.73983
21
-1.48628
0
LINE
8
BLACK
6
CONTINUOUS
10
4.73983
20
-1.48628
11
4.73012
21
-1.48616
0
LINE
8
BLACK
6
CONTINUOUS
10
4.73012
20
-1.48616
11
4.72052
21
-1.48763
0
LINE
8
BLACK
6
CONTINUOUS
10
4.72052
20
-1.48763
11
4.71129
21
-1.49065
0
LINE
8
BLACK
6
CONTINUOUS
10
4.71129
20
-1.49065
11
4.70268
21
-1.49513
0
LINE
8
BLACK
6
CONTINUOUS
10
4.70268
20
-1.49513
11
4.69491
21
-1.50096
0
LINE
8
BLACK
6
CONTINUOUS
10
4.69491
20
-1.50096
11
4.6882
21
-1.50798
0
LINE
8
BLACK
6
CONTINUOUS
10
4.6882
20
-1.50798
11
4.68273
21
-1.51601
0
LINE
8
BLACK
6
CONTINUOUS
10
4.68273
20
-1.51601
11
4.67864
21
-1.52481
0
LINE
8
BLACK
6
CONTINUOUS
10
4.67864
20
-1.52481
11
4.67604
21
-1.53417
0
LINE
8
BLACK
6
CONTINUOUS
10
4.67604
20
-1.53417
11
4.67501
21
-1.54383
0
LINE
8
BLACK
6
CONTINUOUS
10
4.67501
20
-1.54383
11
4.67557
21
-1.55352
0
LINE
8
BLACK
6
CONTINUOUS
10
4.67557
20
-1.55352
11
4.67771
21
-1.563
0
LINE
8
BLACK
6
CONTINUOUS
10
3.07385
20
-1.53365
11
3.07629
21
-1.52404
0
LINE
8
BLACK
6
CONTINUOUS
10
3.07629
20
-1.52404
11
3.08013
21
-1.51489
0
LINE
8
BLACK
6
CONTINUOUS
10
3.08013
20
-1.51489
11
3.08528
21
-1.50641
0
LINE
8
BLACK
6
CONTINUOUS
10
3.08528
20
-1.50641
11
3.09162
21
-1.49878
0
LINE
8
BLACK
6
CONTINUOUS
10
3.09162
20
-1.49878
11
3.09902
21
-1.49218
0
LINE
8
BLACK
6
CONTINUOUS
10
3.09902
20
-1.49218
11
3.10732
21
-1.48674
0
LINE
8
BLACK
6
CONTINUOUS
10
3.10732
20
-1.48674
11
3.11632
21
-1.48258
0
LINE
8
BLACK
6
CONTINUOUS
10
3.11632
20
-1.48258
11
3.12585
21
-1.47981
0
LINE
8
BLACK
6
CONTINUOUS
10
3.12585
20
-1.47981
11
3.13568
21
-1.47847
0
LINE
8
BLACK
6
CONTINUOUS
10
3.13568
20
-1.47847
11
3.1456
21
-1.4786
0
LINE
8
BLACK
6
CONTINUOUS
10
3.1456
20
-1.4786
11
3.15539
21
-1.4802
0
LINE
8
BLACK
6
CONTINUOUS
10
3.15539
20
-1.4802
11
3.16484
21
-1.48322
0
LINE
8
BLACK
6
CONTINUOUS
10
3.16484
20
-1.48322
11
3.17373
21
-1.48761
0
LINE
8
BLACK
6
CONTINUOUS
10
3.17373
20
-1.48761
11
3.18188
21
-1.49326
0
LINE
8
BLACK
6
CONTINUOUS
10
3.18188
20
-1.49326
11
3.18911
21
-1.50006
0
LINE
8
BLACK
6
CONTINUOUS
10
3.18911
20
-1.50006
11
3.19525
21
-1.50785
0
LINE
8
BLACK
6
CONTINUOUS
10
3.19525
20
-1.50785
11
3.20017
21
-1.51646
0
LINE
8
BLACK
6
CONTINUOUS
10
3.20017
20
-1.51646
11
3.20377
21
-1.52571
0
LINE
8
BLACK
6
CONTINUOUS
10
3.20377
20
-1.52571
11
3.20596
21
-1.53538
0
LINE
8
BLACK
6
CONTINUOUS
10
3.20596
20
-1.53538
11
3.20669
21
-1.54528
0
LINE
8
BLACK
6
CONTINUOUS
10
3.20669
20
-1.54528
11
3.2066
21
-1.54878
0
LINE
8
BLACK
6
CONTINUOUS
10
3.2066
20
-1.54878
11
3.20535
21
-1.55862
0
LINE
8
BLACK
6
CONTINUOUS
10
3.20535
20
-1.55862
11
3.20266
21
-1.56817
0
LINE
8
BLACK
6
CONTINUOUS
10
3.20266
20
-1.56817
11
3.19858
21
-1.57721
0
LINE
8
BLACK
6
CONTINUOUS
10
3.19858
20
-1.57721
11
3.19322
21
-1.58555
0
LINE
8
BLACK
6
CONTINUOUS
10
3.19322
20
-1.58555
11
3.18668
21
-1.59301
0
LINE
8
BLACK
6
CONTINUOUS
10
3.18668
20
-1.59301
11
3.1791
21
-1.59942
0
LINE
8
BLACK
6
CONTINUOUS
10
3.1791
20
-1.59942
11
3.17067
21
-1.60464
0
LINE
8
BLACK
6
CONTINUOUS
10
3.17067
20
-1.60464
11
3.16155
21
-1.60856
0
LINE
8
BLACK
6
CONTINUOUS
10
3.16155
20
-1.60856
11
3.15196
21
-1.61108
0
LINE
8
BLACK
6
CONTINUOUS
10
3.15196
20
-1.61108
11
3.1421
21
-1.61216
0
LINE
8
BLACK
6
CONTINUOUS
10
3.1421
20
-1.61216
11
3.13219
21
-1.61177
0
LINE
8
BLACK
6
CONTINUOUS
10
3.13219
20
-1.61177
11
3.12244
21
-1.60992
0
LINE
8
BLACK
6
CONTINUOUS
10
3.12244
20
-1.60992
11
3.11308
21
-1.60665
0
LINE
8
BLACK
6
CONTINUOUS
10
3.11308
20
-1.60665
11
3.1043
21
-1.60203
0
LINE
8
BLACK
6
CONTINUOUS
10
3.1043
20
-1.60203
11
3.0963
21
-1.59617
0
LINE
8
BLACK
6
CONTINUOUS
10
3.0963
20
-1.59617
11
3.08925
21
-1.58919
0
LINE
8
BLACK
6
CONTINUOUS
10
3.08925
20
-1.58919
11
3.08332
21
-1.58124
0
LINE
8
BLACK
6
CONTINUOUS
10
3.08332
20
-1.58124
11
3.07862
21
-1.5725
0
LINE
8
BLACK
6
CONTINUOUS
10
3.07862
20
-1.5725
11
3.07527
21
-1.56316
0
LINE
8
BLACK
6
CONTINUOUS
10
3.07527
20
-1.56316
11
3.07333
21
-1.55343
0
LINE
8
BLACK
6
CONTINUOUS
10
3.07333
20
-1.55343
11
3.07287
21
-1.54383
0
LINE
8
BLACK
6
CONTINUOUS
10
3.07287
20
-1.54383
11
3.07286
21
-1.54352
0
LINE
8
BLACK
6
CONTINUOUS
10
3.07286
20
-1.54352
11
3.07385
21
-1.53365
0
LINE
8
BLACK
6
CONTINUOUS
10
3.08322
20
-1.563
11
3.08687
21
-1.57199
0
LINE
8
BLACK
6
CONTINUOUS
10
3.08687
20
-1.57199
11
3.09195
21
-1.58027
0
LINE
8
BLACK
6
CONTINUOUS
10
3.09195
20
-1.58027
11
3.0983
21
-1.58761
0
LINE
8
BLACK
6
CONTINUOUS
10
3.0983
20
-1.58761
11
3.10578
21
-1.59382
0
LINE
8
BLACK
6
CONTINUOUS
10
3.10578
20
-1.59382
11
3.11416
21
-1.59872
0
LINE
8
BLACK
6
CONTINUOUS
10
3.11416
20
-1.59872
11
3.12323
21
-1.60218
0
LINE
8
BLACK
6
CONTINUOUS
10
3.12323
20
-1.60218
11
3.13275
21
-1.60412
0
LINE
8
BLACK
6
CONTINUOUS
10
3.13275
20
-1.60412
11
3.14245
21
-1.60447
0
LINE
8
BLACK
6
CONTINUOUS
10
3.14245
20
-1.60447
11
3.15208
21
-1.60324
0
LINE
8
BLACK
6
CONTINUOUS
10
3.15208
20
-1.60324
11
3.16139
21
-1.60045
0
LINE
8
BLACK
6
CONTINUOUS
10
3.16139
20
-1.60045
11
3.17011
21
-1.59618
0
LINE
8
BLACK
6
CONTINUOUS
10
3.17011
20
-1.59618
11
3.17801
21
-1.59054
0
LINE
8
BLACK
6
CONTINUOUS
10
3.17801
20
-1.59054
11
3.18489
21
-1.58368
0
LINE
8
BLACK
6
CONTINUOUS
10
3.18489
20
-1.58368
11
3.19056
21
-1.5758
0
LINE
8
BLACK
6
CONTINUOUS
10
3.19056
20
-1.5758
11
3.19486
21
-1.56709
0
LINE
8
BLACK
6
CONTINUOUS
10
3.19486
20
-1.56709
11
3.19768
21
-1.5578
0
LINE
8
BLACK
6
CONTINUOUS
10
3.19768
20
-1.5578
11
3.19895
21
-1.54817
0
LINE
8
BLACK
6
CONTINUOUS
10
3.19895
20
-1.54817
11
3.19902
21
-1.54528
0
LINE
8
BLACK
6
CONTINUOUS
10
3.19902
20
-1.54528
11
3.19823
21
-1.5356
0
LINE
8
BLACK
6
CONTINUOUS
10
3.19823
20
-1.5356
11
3.19586
21
-1.52618
0
LINE
8
BLACK
6
CONTINUOUS
10
3.19586
20
-1.52618
11
3.19199
21
-1.51727
0
LINE
8
BLACK
6
CONTINUOUS
10
3.19199
20
-1.51727
11
3.18671
21
-1.50912
0
LINE
8
BLACK
6
CONTINUOUS
10
3.18671
20
-1.50912
11
3.18018
21
-1.50194
0
LINE
8
BLACK
6
CONTINUOUS
10
3.18018
20
-1.50194
11
3.17256
21
-1.49592
0
LINE
8
BLACK
6
CONTINUOUS
10
3.17256
20
-1.49592
11
3.16405
21
-1.49123
0
LINE
8
BLACK
6
CONTINUOUS
10
3.16405
20
-1.49123
11
3.1549
21
-1.48798
0
LINE
8
BLACK
6
CONTINUOUS
10
3.1549
20
-1.48798
11
3.14534
21
-1.48628
0
LINE
8
BLACK
6
CONTINUOUS
10
3.14534
20
-1.48628
11
3.13563
21
-1.48616
0
LINE
8
BLACK
6
CONTINUOUS
10
3.13563
20
-1.48616
11
3.12603
21
-1.48763
0
LINE
8
BLACK
6
CONTINUOUS
10
3.12603
20
-1.48763
11
3.1168
21
-1.49065
0
LINE
8
BLACK
6
CONTINUOUS
10
3.1168
20
-1.49065
11
3.10819
21
-1.49513
0
LINE
8
BLACK
6
CONTINUOUS
10
3.10819
20
-1.49513
11
3.10042
21
-1.50096
0
LINE
8
BLACK
6
CONTINUOUS
10
3.10042
20
-1.50096
11
3.09371
21
-1.50798
0
LINE
8
BLACK
6
CONTINUOUS
10
3.09371
20
-1.50798
11
3.08824
21
-1.51601
0
LINE
8
BLACK
6
CONTINUOUS
10
3.08824
20
-1.51601
11
3.08415
21
-1.52481
0
LINE
8
BLACK
6
CONTINUOUS
10
3.08415
20
-1.52481
11
3.08156
21
-1.53417
0
LINE
8
BLACK
6
CONTINUOUS
10
3.08156
20
-1.53417
11
3.08052
21
-1.54383
0
LINE
8
BLACK
6
CONTINUOUS
10
3.08052
20
-1.54383
11
3.08108
21
-1.55352
0
LINE
8
BLACK
6
CONTINUOUS
10
3.08108
20
-1.55352
11
3.08322
21
-1.563
  0
ENDSEC
  0
EOF
