  0
SECTION
  2
HEADER
  9
$ANGBASE
  50
0.0
  9
$ANGDIR
  70
1
  9
$MEASUREMENT
  70
0
  0
ENDSEC
  0
SECTION
  2
TABLES
  0
TABLE
  2
LTYPE
  70
4
  0
LTYPE
  5
40F
  2
CONTINUOUS
  70
0
  3
Solid line
  72
65
  73
0
  40
0.0
  0
LTYPE
  5
410
  2
DASHDOT
 70
0
  3
Dash Dot ____ _ ____ _
 72
65
 73
4
 40
2.0
 49
1.25
 49
-0.25
 49
0.25
 49
-0.25
  0
LTYPE
  5
411
  2
DASHED
 70
0
  3
Dashed __ __ __ __ __
 72
65
 73
2
 40
0.75
 49
0.5
 49
-0.25
  0
LTYPE
  5
43B
  2
DOTTED
 70
0
  3
Dotted .  .  .  .
 72
65
 73
2
 40
0.2
 49
0.0
 49
-0.2
  0
ENDTAB
  0
TABLE
  2
STYLE
  70
4
  0
STYLE
  2
KICAD
  70
0
  40
0
  41
1
  42
1
  50
0
  71
0
  3
isocp.shx
  0
STYLE
  2
KICADB
  70
0
  40
0
  41
1
  42
1
  50
0
  71
0
  3
isocp.shx
  0
STYLE
  2
KICADI
  70
0
  40
0
  41
1
  42
1
  50
15
  71
0
  3
isocp.shx
  0
STYLE
  2
KICADBI
  70
0
  40
0
  41
1
  42
1
  50
15
  71
0
  3
isocp.shx
  0
ENDTAB
  0
TABLE
  2
LAYER
  70
1
  0
LAYER
  2
BLACK
  70
0
  62
7
  6
CONTINUOUS
  0
ENDTAB
  0
ENDSEC
  0
SECTION
  2
ENTITIES
0
LINE
8
BLACK
6
CONTINUOUS
10
1.16046
20
0.347263
11
1.16058
21
0.347159
0
LINE
8
BLACK
6
CONTINUOUS
10
1.16058
20
0.347159
11
1.16193
21
0.347396
0
LINE
8
BLACK
6
CONTINUOUS
10
1.16193
20
0.347396
11
1.16368
21
0.346386
0
LINE
8
BLACK
6
CONTINUOUS
10
1.16368
20
0.346386
11
1.16437
21
0.344488
0
LINE
8
BLACK
6
CONTINUOUS
10
1.16437
20
0.344488
11
1.16437
21
0.278543
0
LINE
8
BLACK
6
CONTINUOUS
10
1.16437
20
0.278543
11
2.01772
21
0.278543
0
LINE
8
BLACK
6
CONTINUOUS
10
2.01772
20
0.278543
11
2.01873
21
0.278365
0
LINE
8
BLACK
6
CONTINUOUS
10
2.01873
20
0.278365
11
2.02027
21
0.277067
0
LINE
8
BLACK
6
CONTINUOUS
10
2.02027
20
0.277067
11
2.02062
21
0.275078
0
LINE
8
BLACK
6
CONTINUOUS
10
2.02062
20
0.275078
11
2.01961
21
0.273329
0
LINE
8
BLACK
6
CONTINUOUS
10
2.01961
20
0.273329
11
2.01772
21
0.272638
0
LINE
8
BLACK
6
CONTINUOUS
10
2.01772
20
0.272638
11
1.16437
21
0.272638
0
LINE
8
BLACK
6
CONTINUOUS
10
1.16437
20
0.272638
11
1.16437
21
0.226378
0
LINE
8
BLACK
6
CONTINUOUS
10
1.16437
20
0.226378
11
1.16419
21
0.225368
0
LINE
8
BLACK
6
CONTINUOUS
10
1.16419
20
0.225368
11
1.16289
21
0.223821
0
LINE
8
BLACK
6
CONTINUOUS
10
1.16289
20
0.223821
11
1.1609
21
0.22347
0
LINE
8
BLACK
6
CONTINUOUS
10
1.1609
20
0.22347
11
1.15916
21
0.22448
0
LINE
8
BLACK
6
CONTINUOUS
10
1.15916
20
0.22448
11
1.15846
21
0.226378
0
LINE
8
BLACK
6
CONTINUOUS
10
1.15846
20
0.226378
11
1.15846
21
0.272638
0
LINE
8
BLACK
6
CONTINUOUS
10
1.15846
20
0.272638
11
0.88878
21
0.272638
0
LINE
8
BLACK
6
CONTINUOUS
10
0.88878
20
0.272638
11
0.88878
21
0.226378
0
LINE
8
BLACK
6
CONTINUOUS
10
0.88878
20
0.226378
11
0.888601
21
0.225368
0
LINE
8
BLACK
6
CONTINUOUS
10
0.888601
20
0.225368
11
0.887303
21
0.223821
0
LINE
8
BLACK
6
CONTINUOUS
10
0.887303
20
0.223821
11
0.885314
21
0.22347
0
LINE
8
BLACK
6
CONTINUOUS
10
0.885314
20
0.22347
11
0.883565
21
0.22448
0
LINE
8
BLACK
6
CONTINUOUS
10
0.883565
20
0.22448
11
0.882874
21
0.226378
0
LINE
8
BLACK
6
CONTINUOUS
10
0.882874
20
0.226378
11
0.882874
21
0.272638
0
LINE
8
BLACK
6
CONTINUOUS
10
0.882874
20
0.272638
11
0.0295276
21
0.272638
0
LINE
8
BLACK
6
CONTINUOUS
10
0.0295276
20
0.272638
11
0.0285176
21
0.272816
0
LINE
8
BLACK
6
CONTINUOUS
10
0.0285176
20
0.272816
11
0.0269704
21
0.274114
0
LINE
8
BLACK
6
CONTINUOUS
10
0.0269704
20
0.274114
11
0.0266196
21
0.276103
0
LINE
8
BLACK
6
CONTINUOUS
10
0.0266196
20
0.276103
11
0.0276296
21
0.277852
0
LINE
8
BLACK
6
CONTINUOUS
10
0.0276296
20
0.277852
11
0.0295276
21
0.278543
0
LINE
8
BLACK
6
CONTINUOUS
10
0.0295276
20
0.278543
11
0.882874
21
0.278543
0
LINE
8
BLACK
6
CONTINUOUS
10
0.882874
20
0.278543
11
0.882874
21
0.344488
0
LINE
8
BLACK
6
CONTINUOUS
10
0.882874
20
0.344488
11
0.882942
21
0.344872
0
LINE
8
BLACK
6
CONTINUOUS
10
0.882942
20
0.344872
11
0.882919
21
0.345001
0
LINE
8
BLACK
6
CONTINUOUS
10
0.882919
20
0.345001
11
0.882984
21
0.345115
0
LINE
8
BLACK
6
CONTINUOUS
10
0.882984
20
0.345115
11
0.883052
21
0.345498
0
LINE
8
BLACK
6
CONTINUOUS
10
0.883052
20
0.345498
11
0.883545
21
0.346086
0
LINE
8
BLACK
6
CONTINUOUS
10
0.883545
20
0.346086
11
0.883929
21
0.34675
0
LINE
8
BLACK
6
CONTINUOUS
10
0.883929
20
0.34675
11
0.884179
21
0.346841
0
LINE
8
BLACK
6
CONTINUOUS
10
0.884179
20
0.346841
11
0.88435
21
0.347045
0
LINE
8
BLACK
6
CONTINUOUS
10
0.88435
20
0.347045
11
0.885106
21
0.347179
0
LINE
8
BLACK
6
CONTINUOUS
10
0.885106
20
0.347179
11
0.885827
21
0.347441
0
LINE
8
BLACK
6
CONTINUOUS
10
0.885827
20
0.347441
11
1.15945
21
0.347441
0
LINE
8
BLACK
6
CONTINUOUS
10
1.15945
20
0.347441
11
1.16046
21
0.347263
0
LINE
8
BLACK
6
CONTINUOUS
10
0.88878
20
0.341535
11
0.88878
21
0.278543
0
LINE
8
BLACK
6
CONTINUOUS
10
0.88878
20
0.278543
11
1.15846
21
0.278543
0
LINE
8
BLACK
6
CONTINUOUS
10
1.15846
20
0.278543
11
1.15846
21
0.341535
0
LINE
8
BLACK
6
CONTINUOUS
10
1.15846
20
0.341535
11
0.88878
21
0.341535
0
LINE
8
BLACK
6
CONTINUOUS
10
1.41223
20
1.58829
11
1.41165
21
1.58969
0
LINE
8
BLACK
6
CONTINUOUS
10
1.41165
20
1.58969
11
1.41165
21
1.68969
0
LINE
8
BLACK
6
CONTINUOUS
10
1.41165
20
1.68969
11
1.41223
21
1.69108
0
LINE
8
BLACK
6
CONTINUOUS
10
1.41223
20
1.69108
11
1.41362
21
1.69165
0
LINE
8
BLACK
6
CONTINUOUS
10
1.41362
20
1.69165
11
1.46362
21
1.69165
0
LINE
8
BLACK
6
CONTINUOUS
10
1.46362
20
1.69165
11
1.46501
21
1.69108
0
LINE
8
BLACK
6
CONTINUOUS
10
1.46501
20
1.69108
11
1.46559
21
1.68969
0
LINE
8
BLACK
6
CONTINUOUS
10
1.46559
20
1.68969
11
1.46559
21
1.58969
0
LINE
8
BLACK
6
CONTINUOUS
10
1.46559
20
1.58969
11
1.46501
21
1.58829
0
LINE
8
BLACK
6
CONTINUOUS
10
1.46501
20
1.58829
11
1.46362
21
1.58772
0
LINE
8
BLACK
6
CONTINUOUS
10
1.46362
20
1.58772
11
1.41362
21
1.58772
0
LINE
8
BLACK
6
CONTINUOUS
10
1.41362
20
1.58772
11
1.41223
21
1.58829
0
LINE
8
BLACK
6
CONTINUOUS
10
1.41837
20
1.59165
11
1.43781
21
1.59165
0
LINE
8
BLACK
6
CONTINUOUS
10
1.43781
20
1.59165
11
1.46165
21
1.6155
0
LINE
8
BLACK
6
CONTINUOUS
10
1.46165
20
1.6155
11
1.46165
21
1.63493
0
LINE
8
BLACK
6
CONTINUOUS
10
1.46165
20
1.63493
11
1.41837
21
1.59165
0
LINE
8
BLACK
6
CONTINUOUS
10
1.44337
20
1.59165
11
1.46165
21
1.59165
0
LINE
8
BLACK
6
CONTINUOUS
10
1.46165
20
1.59165
11
1.46165
21
1.60993
0
LINE
8
BLACK
6
CONTINUOUS
10
1.46165
20
1.60993
11
1.44337
21
1.59165
0
LINE
8
BLACK
6
CONTINUOUS
10
1.41559
20
1.61387
11
1.41559
21
1.59444
0
LINE
8
BLACK
6
CONTINUOUS
10
1.41559
20
1.59444
11
1.46165
21
1.6405
0
LINE
8
BLACK
6
CONTINUOUS
10
1.46165
20
1.6405
11
1.46165
21
1.65993
0
LINE
8
BLACK
6
CONTINUOUS
10
1.46165
20
1.65993
11
1.41559
21
1.61387
0
LINE
8
BLACK
6
CONTINUOUS
10
1.41559
20
1.63887
11
1.41559
21
1.61944
0
LINE
8
BLACK
6
CONTINUOUS
10
1.41559
20
1.61944
11
1.46165
21
1.6655
0
LINE
8
BLACK
6
CONTINUOUS
10
1.46165
20
1.6655
11
1.46165
21
1.68493
0
LINE
8
BLACK
6
CONTINUOUS
10
1.46165
20
1.68493
11
1.41559
21
1.63887
0
LINE
8
BLACK
6
CONTINUOUS
10
1.43944
20
1.68772
11
1.41559
21
1.66387
0
LINE
8
BLACK
6
CONTINUOUS
10
1.41559
20
1.66387
11
1.41559
21
1.64444
0
LINE
8
BLACK
6
CONTINUOUS
10
1.41559
20
1.64444
11
1.45887
21
1.68772
0
LINE
8
BLACK
6
CONTINUOUS
10
1.45887
20
1.68772
11
1.43944
21
1.68772
0
LINE
8
BLACK
6
CONTINUOUS
10
1.41559
20
1.68772
11
1.41559
21
1.66944
0
LINE
8
BLACK
6
CONTINUOUS
10
1.41559
20
1.66944
11
1.43387
21
1.68772
0
LINE
8
BLACK
6
CONTINUOUS
10
1.43387
20
1.68772
11
1.41559
21
1.68772
0
LINE
8
BLACK
6
CONTINUOUS
10
0.199836
20
0.671071
11
0.202278
21
0.680686
0
LINE
8
BLACK
6
CONTINUOUS
10
0.202278
20
0.680686
11
0.206114
21
0.689834
0
LINE
8
BLACK
6
CONTINUOUS
10
0.206114
20
0.689834
11
0.21126
21
0.698315
0
LINE
8
BLACK
6
CONTINUOUS
10
0.21126
20
0.698315
11
0.217603
21
0.705942
0
LINE
8
BLACK
6
CONTINUOUS
10
0.217603
20
0.705942
11
0.225004
21
0.712547
0
LINE
8
BLACK
6
CONTINUOUS
10
0.225004
20
0.712547
11
0.2333
21
0.717986
0
LINE
8
BLACK
6
CONTINUOUS
10
0.2333
20
0.717986
11
0.242309
21
0.722139
0
LINE
8
BLACK
6
CONTINUOUS
10
0.242309
20
0.722139
11
0.251833
21
0.724915
0
LINE
8
BLACK
6
CONTINUOUS
10
0.251833
20
0.724915
11
0.261662
21
0.726253
0
LINE
8
BLACK
6
CONTINUOUS
10
0.261662
20
0.726253
11
0.271581
21
0.726123
0
LINE
8
BLACK
6
CONTINUOUS
10
0.271581
20
0.726123
11
0.281372
21
0.724529
0
LINE
8
BLACK
6
CONTINUOUS
10
0.281372
20
0.724529
11
0.29082
21
0.721504
0
LINE
8
BLACK
6
CONTINUOUS
10
0.29082
20
0.721504
11
0.299717
21
0.717117
0
LINE
8
BLACK
6
CONTINUOUS
10
0.299717
20
0.717117
11
0.307868
21
0.711463
0
LINE
8
BLACK
6
CONTINUOUS
10
0.307868
20
0.711463
11
0.315093
21
0.704665
0
LINE
8
BLACK
6
CONTINUOUS
10
0.315093
20
0.704665
11
0.321235
21
0.696875
0
LINE
8
BLACK
6
CONTINUOUS
10
0.321235
20
0.696875
11
0.326157
21
0.688263
0
LINE
8
BLACK
6
CONTINUOUS
10
0.326157
20
0.688263
11
0.329753
21
0.679017
0
LINE
8
BLACK
6
CONTINUOUS
10
0.329753
20
0.679017
11
0.331942
21
0.669342
0
LINE
8
BLACK
6
CONTINUOUS
10
0.331942
20
0.669342
11
0.332677
21
0.659449
0
LINE
8
BLACK
6
CONTINUOUS
10
0.332677
20
0.659449
11
0.332585
21
0.655946
0
LINE
8
BLACK
6
CONTINUOUS
10
0.332585
20
0.655946
11
0.331334
21
0.646105
0
LINE
8
BLACK
6
CONTINUOUS
10
0.331334
20
0.646105
11
0.328641
21
0.636558
0
LINE
8
BLACK
6
CONTINUOUS
10
0.328641
20
0.636558
11
0.324566
21
0.627513
0
LINE
8
BLACK
6
CONTINUOUS
10
0.324566
20
0.627513
11
0.3192
21
0.61917
0
LINE
8
BLACK
6
CONTINUOUS
10
0.3192
20
0.61917
11
0.312659
21
0.611712
0
LINE
8
BLACK
6
CONTINUOUS
10
0.312659
20
0.611712
11
0.305088
21
0.605302
0
LINE
8
BLACK
6
CONTINUOUS
10
0.305088
20
0.605302
11
0.296652
21
0.600082
0
LINE
8
BLACK
6
CONTINUOUS
10
0.296652
20
0.600082
11
0.287538
21
0.596166
0
LINE
8
BLACK
6
CONTINUOUS
10
0.287538
20
0.596166
11
0.277945
21
0.59364
0
LINE
8
BLACK
6
CONTINUOUS
10
0.277945
20
0.59364
11
0.268084
21
0.59256
0
LINE
8
BLACK
6
CONTINUOUS
10
0.268084
20
0.59256
11
0.258171
21
0.59295
0
LINE
8
BLACK
6
CONTINUOUS
10
0.258171
20
0.59295
11
0.248426
21
0.5948
0
LINE
8
BLACK
6
CONTINUOUS
10
0.248426
20
0.5948
11
0.23906
21
0.598071
0
LINE
8
BLACK
6
CONTINUOUS
10
0.23906
20
0.598071
11
0.230281
21
0.60269
0
LINE
8
BLACK
6
CONTINUOUS
10
0.230281
20
0.60269
11
0.222281
21
0.608556
0
LINE
8
BLACK
6
CONTINUOUS
10
0.222281
20
0.608556
11
0.215236
21
0.615539
0
LINE
8
BLACK
6
CONTINUOUS
10
0.215236
20
0.615539
11
0.209301
21
0.623488
0
LINE
8
BLACK
6
CONTINUOUS
10
0.209301
20
0.623488
11
0.204605
21
0.632226
0
LINE
8
BLACK
6
CONTINUOUS
10
0.204605
20
0.632226
11
0.201253
21
0.641563
0
LINE
8
BLACK
6
CONTINUOUS
10
0.201253
20
0.641563
11
0.199318
21
0.651292
0
LINE
8
BLACK
6
CONTINUOUS
10
0.199318
20
0.651292
11
0.198856
21
0.660897
0
LINE
8
BLACK
6
CONTINUOUS
10
0.198856
20
0.660897
11
0.198842
21
0.661201
0
LINE
8
BLACK
6
CONTINUOUS
10
0.198842
20
0.661201
11
0.199836
21
0.671071
0
LINE
8
BLACK
6
CONTINUOUS
10
0.209202
20
0.641728
11
0.212856
21
0.632731
0
LINE
8
BLACK
6
CONTINUOUS
10
0.212856
20
0.632731
11
0.21793
21
0.624451
0
LINE
8
BLACK
6
CONTINUOUS
10
0.21793
20
0.624451
11
0.224288
21
0.617111
0
LINE
8
BLACK
6
CONTINUOUS
10
0.224288
20
0.617111
11
0.231759
21
0.610908
0
LINE
8
BLACK
6
CONTINUOUS
10
0.231759
20
0.610908
11
0.240144
21
0.606008
0
LINE
8
BLACK
6
CONTINUOUS
10
0.240144
20
0.606008
11
0.249216
21
0.602544
0
LINE
8
BLACK
6
CONTINUOUS
10
0.249216
20
0.602544
11
0.258732
21
0.600608
0
LINE
8
BLACK
6
CONTINUOUS
10
0.258732
20
0.600608
11
0.268436
21
0.600252
0
LINE
8
BLACK
6
CONTINUOUS
10
0.268436
20
0.600252
11
0.278068
21
0.601486
0
LINE
8
BLACK
6
CONTINUOUS
10
0.278068
20
0.601486
11
0.28737
21
0.604277
0
LINE
8
BLACK
6
CONTINUOUS
10
0.28737
20
0.604277
11
0.29609
21
0.608549
0
LINE
8
BLACK
6
CONTINUOUS
10
0.29609
20
0.608549
11
0.303996
21
0.614188
0
LINE
8
BLACK
6
CONTINUOUS
10
0.303996
20
0.614188
11
0.310875
21
0.621043
0
LINE
8
BLACK
6
CONTINUOUS
10
0.310875
20
0.621043
11
0.316542
21
0.628929
0
LINE
8
BLACK
6
CONTINUOUS
10
0.316542
20
0.628929
11
0.320844
21
0.637635
0
LINE
8
BLACK
6
CONTINUOUS
10
0.320844
20
0.637635
11
0.323667
21
0.646926
0
LINE
8
BLACK
6
CONTINUOUS
10
0.323667
20
0.646926
11
0.324935
21
0.656554
0
LINE
8
BLACK
6
CONTINUOUS
10
0.324935
20
0.656554
11
0.325006
21
0.659449
0
LINE
8
BLACK
6
CONTINUOUS
10
0.325006
20
0.659449
11
0.32421
21
0.669127
0
LINE
8
BLACK
6
CONTINUOUS
10
0.32421
20
0.669127
11
0.321844
21
0.678545
0
LINE
8
BLACK
6
CONTINUOUS
10
0.321844
20
0.678545
11
0.317972
21
0.687451
0
LINE
8
BLACK
6
CONTINUOUS
10
0.317972
20
0.687451
11
0.312697
21
0.695605
0
LINE
8
BLACK
6
CONTINUOUS
10
0.312697
20
0.695605
11
0.306162
21
0.702787
0
LINE
8
BLACK
6
CONTINUOUS
10
0.306162
20
0.702787
11
0.298541
21
0.708806
0
LINE
8
BLACK
6
CONTINUOUS
10
0.298541
20
0.708806
11
0.290039
21
0.713499
0
LINE
8
BLACK
6
CONTINUOUS
10
0.290039
20
0.713499
11
0.280885
21
0.71674
0
LINE
8
BLACK
6
CONTINUOUS
10
0.280885
20
0.71674
11
0.271325
21
0.718443
0
LINE
8
BLACK
6
CONTINUOUS
10
0.271325
20
0.718443
11
0.261614
21
0.718562
0
LINE
8
BLACK
6
CONTINUOUS
10
0.261614
20
0.718562
11
0.252015
21
0.717093
0
LINE
8
BLACK
6
CONTINUOUS
10
0.252015
20
0.717093
11
0.242785
21
0.714076
0
LINE
8
BLACK
6
CONTINUOUS
10
0.242785
20
0.714076
11
0.234171
21
0.709592
0
LINE
8
BLACK
6
CONTINUOUS
10
0.234171
20
0.709592
11
0.226405
21
0.703761
0
LINE
8
BLACK
6
CONTINUOUS
10
0.226405
20
0.703761
11
0.219696
21
0.696741
0
LINE
8
BLACK
6
CONTINUOUS
10
0.219696
20
0.696741
11
0.214224
21
0.688719
0
LINE
8
BLACK
6
CONTINUOUS
10
0.214224
20
0.688719
11
0.210135
21
0.67991
0
LINE
8
BLACK
6
CONTINUOUS
10
0.210135
20
0.67991
11
0.20754
21
0.670553
0
LINE
8
BLACK
6
CONTINUOUS
10
0.20754
20
0.670553
11
0.206508
21
0.660897
0
LINE
8
BLACK
6
CONTINUOUS
10
0.206508
20
0.660897
11
0.207067
21
0.651202
0
LINE
8
BLACK
6
CONTINUOUS
10
0.207067
20
0.651202
11
0.209202
21
0.641728
0
LINE
8
BLACK
6
CONTINUOUS
10
0.233012
20
1.56615
11
0.235195
21
1.58692
0
LINE
8
BLACK
6
CONTINUOUS
10
0.235195
20
1.58692
11
0.238822
21
1.60749
0
LINE
8
BLACK
6
CONTINUOUS
10
0.238822
20
1.60749
11
0.243874
21
1.62775
0
LINE
8
BLACK
6
CONTINUOUS
10
0.243874
20
1.62775
11
0.250328
21
1.64761
0
LINE
8
BLACK
6
CONTINUOUS
10
0.250328
20
1.64761
11
0.258152
21
1.66698
0
LINE
8
BLACK
6
CONTINUOUS
10
0.258152
20
1.66698
11
0.267307
21
1.68575
0
LINE
8
BLACK
6
CONTINUOUS
10
0.267307
20
1.68575
11
0.277749
21
1.70383
0
LINE
8
BLACK
6
CONTINUOUS
10
0.277749
20
1.70383
11
0.289428
21
1.72115
0
LINE
8
BLACK
6
CONTINUOUS
10
0.289428
20
1.72115
11
0.302286
21
1.73761
0
LINE
8
BLACK
6
CONTINUOUS
10
0.302286
20
1.73761
11
0.316261
21
1.75313
0
LINE
8
BLACK
6
CONTINUOUS
10
0.316261
20
1.75313
11
0.331284
21
1.76763
0
LINE
8
BLACK
6
CONTINUOUS
10
0.331284
20
1.76763
11
0.347282
21
1.78106
0
LINE
8
BLACK
6
CONTINUOUS
10
0.347282
20
1.78106
11
0.364179
21
1.79333
0
LINE
8
BLACK
6
CONTINUOUS
10
0.364179
20
1.79333
11
0.38189
21
1.8044
0
LINE
8
BLACK
6
CONTINUOUS
10
0.38189
20
1.8044
11
0.40033
21
1.81421
0
LINE
8
BLACK
6
CONTINUOUS
10
0.40033
20
1.81421
11
0.419409
21
1.8227
0
LINE
8
BLACK
6
CONTINUOUS
10
0.419409
20
1.8227
11
0.439034
21
1.82984
0
LINE
8
BLACK
6
CONTINUOUS
10
0.439034
20
1.82984
11
0.45911
21
1.8356
0
LINE
8
BLACK
6
CONTINUOUS
10
0.45911
20
1.8356
11
0.479538
21
1.83994
0
LINE
8
BLACK
6
CONTINUOUS
10
0.479538
20
1.83994
11
0.50022
21
1.84285
0
LINE
8
BLACK
6
CONTINUOUS
10
0.50022
20
1.84285
11
0.521054
21
1.84431
0
LINE
8
BLACK
6
CONTINUOUS
10
0.521054
20
1.84431
11
0.541938
21
1.84431
0
LINE
8
BLACK
6
CONTINUOUS
10
0.541938
20
1.84431
11
0.562772
21
1.84285
0
LINE
8
BLACK
6
CONTINUOUS
10
0.562772
20
1.84285
11
0.583454
21
1.83994
0
LINE
8
BLACK
6
CONTINUOUS
10
0.583454
20
1.83994
11
0.603882
21
1.8356
0
LINE
8
BLACK
6
CONTINUOUS
10
0.603882
20
1.8356
11
0.623958
21
1.82984
0
LINE
8
BLACK
6
CONTINUOUS
10
0.623958
20
1.82984
11
0.643583
21
1.8227
0
LINE
8
BLACK
6
CONTINUOUS
10
0.643583
20
1.8227
11
0.662662
21
1.81421
0
LINE
8
BLACK
6
CONTINUOUS
10
0.662662
20
1.81421
11
0.681102
21
1.8044
0
LINE
8
BLACK
6
CONTINUOUS
10
0.681102
20
1.8044
11
0.698814
21
1.79333
0
LINE
8
BLACK
6
CONTINUOUS
10
0.698814
20
1.79333
11
0.71571
21
1.78106
0
LINE
8
BLACK
6
CONTINUOUS
10
0.71571
20
1.78106
11
0.731708
21
1.76763
0
LINE
8
BLACK
6
CONTINUOUS
10
0.731708
20
1.76763
11
0.746732
21
1.75313
0
LINE
8
BLACK
6
CONTINUOUS
10
0.746732
20
1.75313
11
0.760706
21
1.73761
0
LINE
8
BLACK
6
CONTINUOUS
10
0.760706
20
1.73761
11
0.773564
21
1.72115
0
LINE
8
BLACK
6
CONTINUOUS
10
0.773564
20
1.72115
11
0.785243
21
1.70383
0
LINE
8
BLACK
6
CONTINUOUS
10
0.785243
20
1.70383
11
0.795685
21
1.68575
0
LINE
8
BLACK
6
CONTINUOUS
10
0.795685
20
1.68575
11
0.80484
21
1.66698
0
LINE
8
BLACK
6
CONTINUOUS
10
0.80484
20
1.66698
11
0.812664
21
1.64761
0
LINE
8
BLACK
6
CONTINUOUS
10
0.812664
20
1.64761
11
0.819118
21
1.62775
0
LINE
8
BLACK
6
CONTINUOUS
10
0.819118
20
1.62775
11
0.82417
21
1.60749
0
LINE
8
BLACK
6
CONTINUOUS
10
0.82417
20
1.60749
11
0.827797
21
1.58692
0
LINE
8
BLACK
6
CONTINUOUS
10
0.827797
20
1.58692
11
0.82998
21
1.56615
0
LINE
8
BLACK
6
CONTINUOUS
10
0.82998
20
1.56615
11
0.830709
21
1.54528
0
LINE
8
BLACK
6
CONTINUOUS
10
0.830709
20
1.54528
11
0.82998
21
1.5244
0
LINE
8
BLACK
6
CONTINUOUS
10
0.82998
20
1.5244
11
0.827797
21
1.50363
0
LINE
8
BLACK
6
CONTINUOUS
10
0.827797
20
1.50363
11
0.82417
21
1.48307
0
LINE
8
BLACK
6
CONTINUOUS
10
0.82417
20
1.48307
11
0.819118
21
1.4628
0
LINE
8
BLACK
6
CONTINUOUS
10
0.819118
20
1.4628
11
0.812664
21
1.44294
0
LINE
8
BLACK
6
CONTINUOUS
10
0.812664
20
1.44294
11
0.80484
21
1.42357
0
LINE
8
BLACK
6
CONTINUOUS
10
0.80484
20
1.42357
11
0.795685
21
1.4048
0
LINE
8
BLACK
6
CONTINUOUS
10
0.795685
20
1.4048
11
0.785243
21
1.38672
0
LINE
8
BLACK
6
CONTINUOUS
10
0.785243
20
1.38672
11
0.773564
21
1.3694
0
LINE
8
BLACK
6
CONTINUOUS
10
0.773564
20
1.3694
11
0.760706
21
1.35295
0
LINE
8
BLACK
6
CONTINUOUS
10
0.760706
20
1.35295
11
0.746732
21
1.33743
0
LINE
8
BLACK
6
CONTINUOUS
10
0.746732
20
1.33743
11
0.731708
21
1.32292
0
LINE
8
BLACK
6
CONTINUOUS
10
0.731708
20
1.32292
11
0.71571
21
1.30949
0
LINE
8
BLACK
6
CONTINUOUS
10
0.71571
20
1.30949
11
0.698814
21
1.29722
0
LINE
8
BLACK
6
CONTINUOUS
10
0.698814
20
1.29722
11
0.681102
21
1.28615
0
LINE
8
BLACK
6
CONTINUOUS
10
0.681102
20
1.28615
11
0.662662
21
1.27635
0
LINE
8
BLACK
6
CONTINUOUS
10
0.662662
20
1.27635
11
0.643583
21
1.26785
0
LINE
8
BLACK
6
CONTINUOUS
10
0.643583
20
1.26785
11
0.623958
21
1.26071
0
LINE
8
BLACK
6
CONTINUOUS
10
0.623958
20
1.26071
11
0.603882
21
1.25495
0
LINE
8
BLACK
6
CONTINUOUS
10
0.603882
20
1.25495
11
0.583454
21
1.25061
0
LINE
8
BLACK
6
CONTINUOUS
10
0.583454
20
1.25061
11
0.562772
21
1.2477
0
LINE
8
BLACK
6
CONTINUOUS
10
0.562772
20
1.2477
11
0.541938
21
1.24625
0
LINE
8
BLACK
6
CONTINUOUS
10
0.541938
20
1.24625
11
0.521054
21
1.24625
0
LINE
8
BLACK
6
CONTINUOUS
10
0.521054
20
1.24625
11
0.50022
21
1.2477
0
LINE
8
BLACK
6
CONTINUOUS
10
0.50022
20
1.2477
11
0.479538
21
1.25061
0
LINE
8
BLACK
6
CONTINUOUS
10
0.479538
20
1.25061
11
0.45911
21
1.25495
0
LINE
8
BLACK
6
CONTINUOUS
10
0.45911
20
1.25495
11
0.439034
21
1.26071
0
LINE
8
BLACK
6
CONTINUOUS
10
0.439034
20
1.26071
11
0.419409
21
1.26785
0
LINE
8
BLACK
6
CONTINUOUS
10
0.419409
20
1.26785
11
0.40033
21
1.27635
0
LINE
8
BLACK
6
CONTINUOUS
10
0.40033
20
1.27635
11
0.38189
21
1.28615
0
LINE
8
BLACK
6
CONTINUOUS
10
0.38189
20
1.28615
11
0.364179
21
1.29722
0
LINE
8
BLACK
6
CONTINUOUS
10
0.364179
20
1.29722
11
0.347282
21
1.30949
0
LINE
8
BLACK
6
CONTINUOUS
10
0.347282
20
1.30949
11
0.331284
21
1.32292
0
LINE
8
BLACK
6
CONTINUOUS
10
0.331284
20
1.32292
11
0.316261
21
1.33743
0
LINE
8
BLACK
6
CONTINUOUS
10
0.316261
20
1.33743
11
0.302286
21
1.35295
0
LINE
8
BLACK
6
CONTINUOUS
10
0.302286
20
1.35295
11
0.289428
21
1.3694
0
LINE
8
BLACK
6
CONTINUOUS
10
0.289428
20
1.3694
11
0.277749
21
1.38672
0
LINE
8
BLACK
6
CONTINUOUS
10
0.277749
20
1.38672
11
0.267307
21
1.4048
0
LINE
8
BLACK
6
CONTINUOUS
10
0.267307
20
1.4048
11
0.258152
21
1.42357
0
LINE
8
BLACK
6
CONTINUOUS
10
0.258152
20
1.42357
11
0.250328
21
1.44294
0
LINE
8
BLACK
6
CONTINUOUS
10
0.250328
20
1.44294
11
0.243874
21
1.4628
0
LINE
8
BLACK
6
CONTINUOUS
10
0.243874
20
1.4628
11
0.238822
21
1.48307
0
LINE
8
BLACK
6
CONTINUOUS
10
0.238822
20
1.48307
11
0.235195
21
1.50363
0
LINE
8
BLACK
6
CONTINUOUS
10
0.235195
20
1.50363
11
0.233012
21
1.5244
0
LINE
8
BLACK
6
CONTINUOUS
10
0.233012
20
1.5244
11
0.232355
21
1.54324
0
LINE
8
BLACK
6
CONTINUOUS
10
0.232355
20
1.54324
11
0.232283
21
1.54528
0
LINE
8
BLACK
6
CONTINUOUS
10
0.232283
20
1.54528
11
0.233012
21
1.56615
0
LINE
8
BLACK
6
CONTINUOUS
10
0.243241
20
1.50168
11
0.247095
21
1.48118
0
LINE
8
BLACK
6
CONTINUOUS
10
0.247095
20
1.48118
11
0.252406
21
1.46101
0
LINE
8
BLACK
6
CONTINUOUS
10
0.252406
20
1.46101
11
0.259145
21
1.44127
0
LINE
8
BLACK
6
CONTINUOUS
10
0.259145
20
1.44127
11
0.267277
21
1.42207
0
LINE
8
BLACK
6
CONTINUOUS
10
0.267277
20
1.42207
11
0.276763
21
1.40349
0
LINE
8
BLACK
6
CONTINUOUS
10
0.276763
20
1.40349
11
0.287552
21
1.38564
0
LINE
8
BLACK
6
CONTINUOUS
10
0.287552
20
1.38564
11
0.299589
21
1.36861
0
LINE
8
BLACK
6
CONTINUOUS
10
0.299589
20
1.36861
11
0.312814
21
1.35248
0
LINE
8
BLACK
6
CONTINUOUS
10
0.312814
20
1.35248
11
0.327158
21
1.33734
0
LINE
8
BLACK
6
CONTINUOUS
10
0.327158
20
1.33734
11
0.342548
21
1.32326
0
LINE
8
BLACK
6
CONTINUOUS
10
0.342548
20
1.32326
11
0.358905
21
1.31032
0
LINE
8
BLACK
6
CONTINUOUS
10
0.358905
20
1.31032
11
0.376145
21
1.29858
0
LINE
8
BLACK
6
CONTINUOUS
10
0.376145
20
1.29858
11
0.394181
21
1.28811
0
LINE
8
BLACK
6
CONTINUOUS
10
0.394181
20
1.28811
11
0.412919
21
1.27895
0
LINE
8
BLACK
6
CONTINUOUS
10
0.412919
20
1.27895
11
0.432264
21
1.27115
0
LINE
8
BLACK
6
CONTINUOUS
10
0.432264
20
1.27115
11
0.452117
21
1.26476
0
LINE
8
BLACK
6
CONTINUOUS
10
0.452117
20
1.26476
11
0.472377
21
1.2598
0
LINE
8
BLACK
6
CONTINUOUS
10
0.472377
20
1.2598
11
0.492939
21
1.2563
0
LINE
8
BLACK
6
CONTINUOUS
10
0.492939
20
1.2563
11
0.513698
21
1.25429
0
LINE
8
BLACK
6
CONTINUOUS
10
0.513698
20
1.25429
11
0.534549
21
1.25376
0
LINE
8
BLACK
6
CONTINUOUS
10
0.534549
20
1.25376
11
0.555384
21
1.25472
0
LINE
8
BLACK
6
CONTINUOUS
10
0.555384
20
1.25472
11
0.576096
21
1.25717
0
LINE
8
BLACK
6
CONTINUOUS
10
0.576096
20
1.25717
11
0.596581
21
1.2611
0
LINE
8
BLACK
6
CONTINUOUS
10
0.596581
20
1.2611
11
0.616732
21
1.26648
0
LINE
8
BLACK
6
CONTINUOUS
10
0.616732
20
1.26648
11
0.636447
21
1.27329
0
LINE
8
BLACK
6
CONTINUOUS
10
0.636447
20
1.27329
11
0.655625
21
1.28149
0
LINE
8
BLACK
6
CONTINUOUS
10
0.655625
20
1.28149
11
0.674167
21
1.29104
0
LINE
8
BLACK
6
CONTINUOUS
10
0.674167
20
1.29104
11
0.691979
21
1.30189
0
LINE
8
BLACK
6
CONTINUOUS
10
0.691979
20
1.30189
11
0.70897
21
1.31399
0
LINE
8
BLACK
6
CONTINUOUS
10
0.70897
20
1.31399
11
0.725053
21
1.32727
0
LINE
8
BLACK
6
CONTINUOUS
10
0.725053
20
1.32727
11
0.740144
21
1.34166
0
LINE
8
BLACK
6
CONTINUOUS
10
0.740144
20
1.34166
11
0.754168
21
1.3571
0
LINE
8
BLACK
6
CONTINUOUS
10
0.754168
20
1.3571
11
0.767052
21
1.37351
0
LINE
8
BLACK
6
CONTINUOUS
10
0.767052
20
1.37351
11
0.77873
21
1.39079
0
LINE
8
BLACK
6
CONTINUOUS
10
0.77873
20
1.39079
11
0.789143
21
1.40886
0
LINE
8
BLACK
6
CONTINUOUS
10
0.789143
20
1.40886
11
0.798237
21
1.42763
0
LINE
8
BLACK
6
CONTINUOUS
10
0.798237
20
1.42763
11
0.805966
21
1.447
0
LINE
8
BLACK
6
CONTINUOUS
10
0.805966
20
1.447
11
0.81229
21
1.46688
0
LINE
8
BLACK
6
CONTINUOUS
10
0.81229
20
1.46688
11
0.817177
21
1.48715
0
LINE
8
BLACK
6
CONTINUOUS
10
0.817177
20
1.48715
11
0.820601
21
1.50773
0
LINE
8
BLACK
6
CONTINUOUS
10
0.820601
20
1.50773
11
0.822546
21
1.52849
0
LINE
8
BLACK
6
CONTINUOUS
10
0.822546
20
1.52849
11
0.823029
21
1.54528
0
LINE
8
BLACK
6
CONTINUOUS
10
0.823029
20
1.54528
11
0.822283
21
1.56612
0
LINE
8
BLACK
6
CONTINUOUS
10
0.822283
20
1.56612
11
0.820049
21
1.58686
0
LINE
8
BLACK
6
CONTINUOUS
10
0.820049
20
1.58686
11
0.816337
21
1.60738
0
LINE
8
BLACK
6
CONTINUOUS
10
0.816337
20
1.60738
11
0.811168
21
1.62759
0
LINE
8
BLACK
6
CONTINUOUS
10
0.811168
20
1.62759
11
0.804567
21
1.64737
0
LINE
8
BLACK
6
CONTINUOUS
10
0.804567
20
1.64737
11
0.796568
21
1.66664
0
LINE
8
BLACK
6
CONTINUOUS
10
0.796568
20
1.66664
11
0.787213
21
1.68528
0
LINE
8
BLACK
6
CONTINUOUS
10
0.787213
20
1.68528
11
0.776549
21
1.7032
0
LINE
8
BLACK
6
CONTINUOUS
10
0.776549
20
1.7032
11
0.764631
21
1.72032
0
LINE
8
BLACK
6
CONTINUOUS
10
0.764631
20
1.72032
11
0.751519
21
1.73654
0
LINE
8
BLACK
6
CONTINUOUS
10
0.751519
20
1.73654
11
0.737281
21
1.75178
0
LINE
8
BLACK
6
CONTINUOUS
10
0.737281
20
1.75178
11
0.72199
21
1.76596
0
LINE
8
BLACK
6
CONTINUOUS
10
0.72199
20
1.76596
11
0.705724
21
1.77902
0
LINE
8
BLACK
6
CONTINUOUS
10
0.705724
20
1.77902
11
0.688566
21
1.79088
0
LINE
8
BLACK
6
CONTINUOUS
10
0.688566
20
1.79088
11
0.670604
21
1.80148
0
LINE
8
BLACK
6
CONTINUOUS
10
0.670604
20
1.80148
11
0.65193
21
1.81077
0
LINE
8
BLACK
6
CONTINUOUS
10
0.65193
20
1.81077
11
0.632639
21
1.8187
0
LINE
8
BLACK
6
CONTINUOUS
10
0.632639
20
1.8187
11
0.612831
21
1.82523
0
LINE
8
BLACK
6
CONTINUOUS
10
0.612831
20
1.82523
11
0.592607
21
1.83033
0
LINE
8
BLACK
6
CONTINUOUS
10
0.592607
20
1.83033
11
0.57207
21
1.83397
0
LINE
8
BLACK
6
CONTINUOUS
10
0.57207
20
1.83397
11
0.551325
21
1.83613
0
LINE
8
BLACK
6
CONTINUOUS
10
0.551325
20
1.83613
11
0.530478
21
1.83681
0
LINE
8
BLACK
6
CONTINUOUS
10
0.530478
20
1.83681
11
0.509637
21
1.83599
0
LINE
8
BLACK
6
CONTINUOUS
10
0.509637
20
1.83599
11
0.488908
21
1.83368
0
LINE
8
BLACK
6
CONTINUOUS
10
0.488908
20
1.83368
11
0.468397
21
1.8299
0
LINE
8
BLACK
6
CONTINUOUS
10
0.468397
20
1.8299
11
0.448208
21
1.82466
0
LINE
8
BLACK
6
CONTINUOUS
10
0.448208
20
1.82466
11
0.428446
21
1.81799
0
LINE
8
BLACK
6
CONTINUOUS
10
0.428446
20
1.81799
11
0.409212
21
1.80992
0
LINE
8
BLACK
6
CONTINUOUS
10
0.409212
20
1.80992
11
0.390603
21
1.8005
0
LINE
8
BLACK
6
CONTINUOUS
10
0.390603
20
1.8005
11
0.372716
21
1.78978
0
LINE
8
BLACK
6
CONTINUOUS
10
0.372716
20
1.78978
11
0.355641
21
1.7778
0
LINE
8
BLACK
6
CONTINUOUS
10
0.355641
20
1.7778
11
0.339466
21
1.76463
0
LINE
8
BLACK
6
CONTINUOUS
10
0.339466
20
1.76463
11
0.324275
21
1.75034
0
LINE
8
BLACK
6
CONTINUOUS
10
0.324275
20
1.75034
11
0.310143
21
1.735
0
LINE
8
BLACK
6
CONTINUOUS
10
0.310143
20
1.735
11
0.297145
21
1.71869
0
LINE
8
BLACK
6
CONTINUOUS
10
0.297145
20
1.71869
11
0.285347
21
1.70149
0
LINE
8
BLACK
6
CONTINUOUS
10
0.285347
20
1.70149
11
0.274808
21
1.68349
0
LINE
8
BLACK
6
CONTINUOUS
10
0.274808
20
1.68349
11
0.265583
21
1.66478
0
LINE
8
BLACK
6
CONTINUOUS
10
0.265583
20
1.66478
11
0.257719
21
1.64546
0
LINE
8
BLACK
6
CONTINUOUS
10
0.257719
20
1.64546
11
0.251256
21
1.62563
0
LINE
8
BLACK
6
CONTINUOUS
10
0.251256
20
1.62563
11
0.246228
21
1.60539
0
LINE
8
BLACK
6
CONTINUOUS
10
0.246228
20
1.60539
11
0.24266
21
1.58484
0
LINE
8
BLACK
6
CONTINUOUS
10
0.24266
20
1.58484
11
0.240571
21
1.56409
0
LINE
8
BLACK
6
CONTINUOUS
10
0.240571
20
1.56409
11
0.23997
21
1.54324
0
LINE
8
BLACK
6
CONTINUOUS
10
0.23997
20
1.54324
11
0.240862
21
1.5224
0
LINE
8
BLACK
6
CONTINUOUS
10
0.240862
20
1.5224
11
0.243241
21
1.50168
  0
ENDSEC
  0
EOF
