  0
SECTION
  2
HEADER
  9
$ANGBASE
  50
0.0
  9
$ANGDIR
  70
1
  9
$MEASUREMENT
  70
0
  0
ENDSEC
  0
SECTION
  2
TABLES
  0
TABLE
  2
LTYPE
  70
4
  0
LTYPE
  5
40F
  2
CONTINUOUS
  70
0
  3
Solid line
  72
65
  73
0
  40
0.0
  0
LTYPE
  5
410
  2
DASHDOT
 70
0
  3
Dash Dot ____ _ ____ _
 72
65
 73
4
 40
2.0
 49
1.25
 49
-0.25
 49
0.25
 49
-0.25
  0
LTYPE
  5
411
  2
DASHED
 70
0
  3
Dashed __ __ __ __ __
 72
65
 73
2
 40
0.75
 49
0.5
 49
-0.25
  0
LTYPE
  5
43B
  2
DOTTED
 70
0
  3
Dotted .  .  .  .
 72
65
 73
2
 40
0.2
 49
0.0
 49
-0.2
  0
ENDTAB
  0
TABLE
  2
STYLE
  70
4
  0
STYLE
  2
KICAD
  70
0
  40
0
  41
1
  42
1
  50
0
  71
0
  3
isocp.shx
  0
STYLE
  2
KICADB
  70
0
  40
0
  41
1
  42
1
  50
0
  71
0
  3
isocp.shx
  0
STYLE
  2
KICADI
  70
0
  40
0
  41
1
  42
1
  50
15
  71
0
  3
isocp.shx
  0
STYLE
  2
KICADBI
  70
0
  40
0
  41
1
  42
1
  50
15
  71
0
  3
isocp.shx
  0
ENDTAB
  0
TABLE
  2
LAYER
  70
1
  0
LAYER
  2
BLACK
  70
0
  62
7
  6
CONTINUOUS
  0
ENDTAB
  0
ENDSEC
  0
SECTION
  2
ENTITIES
0
LINE
8
BLACK
6
CONTINUOUS
10
3.13992
20
-5.71461
11
3.14064
21
-5.71457
0
LINE
8
BLACK
6
CONTINUOUS
10
3.14064
20
-5.71457
11
3.15468
21
-5.71545
0
LINE
8
BLACK
6
CONTINUOUS
10
3.15468
20
-5.71545
11
3.16853
21
-5.7179
0
LINE
8
BLACK
6
CONTINUOUS
10
3.16853
20
-5.7179
11
3.18203
21
-5.72187
0
LINE
8
BLACK
6
CONTINUOUS
10
3.18203
20
-5.72187
11
3.19499
21
-5.72732
0
LINE
8
BLACK
6
CONTINUOUS
10
3.19499
20
-5.72732
11
3.20727
21
-5.73418
0
LINE
8
BLACK
6
CONTINUOUS
10
3.20727
20
-5.73418
11
3.21871
21
-5.74237
0
LINE
8
BLACK
6
CONTINUOUS
10
3.21871
20
-5.74237
11
3.22916
21
-5.75178
0
LINE
8
BLACK
6
CONTINUOUS
10
3.22916
20
-5.75178
11
3.2385
21
-5.7623
0
LINE
8
BLACK
6
CONTINUOUS
10
3.2385
20
-5.7623
11
3.2466
21
-5.77379
0
LINE
8
BLACK
6
CONTINUOUS
10
3.2466
20
-5.77379
11
3.25338
21
-5.78612
0
LINE
8
BLACK
6
CONTINUOUS
10
3.25338
20
-5.78612
11
3.25874
21
-5.79912
0
LINE
8
BLACK
6
CONTINUOUS
10
3.25874
20
-5.79912
11
3.26262
21
-5.81264
0
LINE
8
BLACK
6
CONTINUOUS
10
3.26262
20
-5.81264
11
3.26496
21
-5.82651
0
LINE
8
BLACK
6
CONTINUOUS
10
3.26496
20
-5.82651
11
3.26575
21
-5.84055
0
LINE
8
BLACK
6
CONTINUOUS
10
3.26575
20
-5.84055
11
3.2657
21
-5.84407
0
LINE
8
BLACK
6
CONTINUOUS
10
3.2657
20
-5.84407
11
3.26452
21
-5.85808
0
LINE
8
BLACK
6
CONTINUOUS
10
3.26452
20
-5.85808
11
3.26179
21
-5.87188
0
LINE
8
BLACK
6
CONTINUOUS
10
3.26179
20
-5.87188
11
3.25754
21
-5.88529
0
LINE
8
BLACK
6
CONTINUOUS
10
3.25754
20
-5.88529
11
3.25182
21
-5.89814
0
LINE
8
BLACK
6
CONTINUOUS
10
3.25182
20
-5.89814
11
3.2447
21
-5.91027
0
LINE
8
BLACK
6
CONTINUOUS
10
3.2447
20
-5.91027
11
3.23627
21
-5.92153
0
LINE
8
BLACK
6
CONTINUOUS
10
3.23627
20
-5.92153
11
3.22664
21
-5.93179
0
LINE
8
BLACK
6
CONTINUOUS
10
3.22664
20
-5.93179
11
3.21593
21
-5.9409
0
LINE
8
BLACK
6
CONTINUOUS
10
3.21593
20
-5.9409
11
3.20427
21
-5.94877
0
LINE
8
BLACK
6
CONTINUOUS
10
3.20427
20
-5.94877
11
3.19181
21
-5.95528
0
LINE
8
BLACK
6
CONTINUOUS
10
3.19181
20
-5.95528
11
3.1787
21
-5.96037
0
LINE
8
BLACK
6
CONTINUOUS
10
3.1787
20
-5.96037
11
3.1651
21
-5.96396
0
LINE
8
BLACK
6
CONTINUOUS
10
3.1651
20
-5.96396
11
3.15118
21
-5.96602
0
LINE
8
BLACK
6
CONTINUOUS
10
3.15118
20
-5.96602
11
3.13713
21
-5.96651
0
LINE
8
BLACK
6
CONTINUOUS
10
3.13713
20
-5.96651
11
3.1231
21
-5.96543
0
LINE
8
BLACK
6
CONTINUOUS
10
3.1231
20
-5.96543
11
3.10929
21
-5.96279
0
LINE
8
BLACK
6
CONTINUOUS
10
3.10929
20
-5.96279
11
3.1023
21
-5.96063
0
LINE
8
BLACK
6
CONTINUOUS
10
3.1023
20
-5.96063
11
2.94681
21
-5.96063
0
LINE
8
BLACK
6
CONTINUOUS
10
2.94681
20
-5.96063
11
2.94452
21
-5.95989
0
LINE
8
BLACK
6
CONTINUOUS
10
2.94452
20
-5.95989
11
2.9431
21
-5.95794
0
LINE
8
BLACK
6
CONTINUOUS
10
2.9431
20
-5.95794
11
2.94291
21
-5.95673
0
LINE
8
BLACK
6
CONTINUOUS
10
2.94291
20
-5.95673
11
2.94291
21
-5.71846
0
LINE
8
BLACK
6
CONTINUOUS
10
2.94291
20
-5.71846
11
2.94366
21
-5.71617
0
LINE
8
BLACK
6
CONTINUOUS
10
2.94366
20
-5.71617
11
2.94561
21
-5.71476
0
LINE
8
BLACK
6
CONTINUOUS
10
2.94561
20
-5.71476
11
2.94681
21
-5.71457
0
LINE
8
BLACK
6
CONTINUOUS
10
2.94681
20
-5.71457
11
3.1398
21
-5.71457
0
LINE
8
BLACK
6
CONTINUOUS
10
3.1398
20
-5.71457
11
3.13992
21
-5.71461
0
LINE
8
BLACK
6
CONTINUOUS
10
4.42564
20
-5.69573
11
4.43334
21
-5.69811
0
LINE
8
BLACK
6
CONTINUOUS
10
4.43334
20
-5.69811
11
4.44044
21
-5.70195
0
LINE
8
BLACK
6
CONTINUOUS
10
4.44044
20
-5.70195
11
4.44666
21
-5.70709
0
LINE
8
BLACK
6
CONTINUOUS
10
4.44666
20
-5.70709
11
4.45175
21
-5.71334
0
LINE
8
BLACK
6
CONTINUOUS
10
4.45175
20
-5.71334
11
4.45554
21
-5.72047
0
LINE
8
BLACK
6
CONTINUOUS
10
4.45554
20
-5.72047
11
4.45787
21
-5.72819
0
LINE
8
BLACK
6
CONTINUOUS
10
4.45787
20
-5.72819
11
4.45866
21
-5.73622
0
LINE
8
BLACK
6
CONTINUOUS
10
4.45866
20
-5.73622
11
4.45865
21
-5.73737
0
LINE
8
BLACK
6
CONTINUOUS
10
4.45865
20
-5.73737
11
4.45763
21
-5.74538
0
LINE
8
BLACK
6
CONTINUOUS
10
4.45763
20
-5.74538
11
4.45509
21
-5.75303
0
LINE
8
BLACK
6
CONTINUOUS
10
4.45509
20
-5.75303
11
4.4511
21
-5.76005
0
LINE
8
BLACK
6
CONTINUOUS
10
4.4511
20
-5.76005
11
4.44583
21
-5.76616
0
LINE
8
BLACK
6
CONTINUOUS
10
4.44583
20
-5.76616
11
4.43947
21
-5.77112
0
LINE
8
BLACK
6
CONTINUOUS
10
4.43947
20
-5.77112
11
4.43227
21
-5.77476
0
LINE
8
BLACK
6
CONTINUOUS
10
4.43227
20
-5.77476
11
4.4245
21
-5.77693
0
LINE
8
BLACK
6
CONTINUOUS
10
4.4245
20
-5.77693
11
4.41646
21
-5.77755
0
LINE
8
BLACK
6
CONTINUOUS
10
4.41646
20
-5.77755
11
4.40845
21
-5.77659
0
LINE
8
BLACK
6
CONTINUOUS
10
4.40845
20
-5.77659
11
4.40077
21
-5.7741
0
LINE
8
BLACK
6
CONTINUOUS
10
4.40077
20
-5.7741
11
4.39373
21
-5.77017
0
LINE
8
BLACK
6
CONTINUOUS
10
4.39373
20
-5.77017
11
4.38759
21
-5.76494
0
LINE
8
BLACK
6
CONTINUOUS
10
4.38759
20
-5.76494
11
4.38258
21
-5.75861
0
LINE
8
BLACK
6
CONTINUOUS
10
4.38258
20
-5.75861
11
4.37889
21
-5.75144
0
LINE
8
BLACK
6
CONTINUOUS
10
4.37889
20
-5.75144
11
4.37666
21
-5.74368
0
LINE
8
BLACK
6
CONTINUOUS
10
4.37666
20
-5.74368
11
4.37599
21
-5.73564
0
LINE
8
BLACK
6
CONTINUOUS
10
4.37599
20
-5.73564
11
4.37689
21
-5.72763
0
LINE
8
BLACK
6
CONTINUOUS
10
4.37689
20
-5.72763
11
4.37933
21
-5.71994
0
LINE
8
BLACK
6
CONTINUOUS
10
4.37933
20
-5.71994
11
4.38321
21
-5.71287
0
LINE
8
BLACK
6
CONTINUOUS
10
4.38321
20
-5.71287
11
4.3884
21
-5.70669
0
LINE
8
BLACK
6
CONTINUOUS
10
4.3884
20
-5.70669
11
4.39469
21
-5.70163
0
LINE
8
BLACK
6
CONTINUOUS
10
4.39469
20
-5.70163
11
4.40184
21
-5.69789
0
LINE
8
BLACK
6
CONTINUOUS
10
4.40184
20
-5.69789
11
4.40958
21
-5.69561
0
LINE
8
BLACK
6
CONTINUOUS
10
4.40958
20
-5.69561
11
4.41761
21
-5.69488
0
LINE
8
BLACK
6
CONTINUOUS
10
4.41761
20
-5.69488
11
4.42564
21
-5.69573
0
LINE
8
BLACK
6
CONTINUOUS
10
4.70123
20
-5.69573
11
4.70893
21
-5.69811
0
LINE
8
BLACK
6
CONTINUOUS
10
4.70893
20
-5.69811
11
4.71603
21
-5.70195
0
LINE
8
BLACK
6
CONTINUOUS
10
4.71603
20
-5.70195
11
4.72225
21
-5.70709
0
LINE
8
BLACK
6
CONTINUOUS
10
4.72225
20
-5.70709
11
4.72735
21
-5.71334
0
LINE
8
BLACK
6
CONTINUOUS
10
4.72735
20
-5.71334
11
4.73113
21
-5.72047
0
LINE
8
BLACK
6
CONTINUOUS
10
4.73113
20
-5.72047
11
4.73346
21
-5.72819
0
LINE
8
BLACK
6
CONTINUOUS
10
4.73346
20
-5.72819
11
4.73425
21
-5.73622
0
LINE
8
BLACK
6
CONTINUOUS
10
4.73425
20
-5.73622
11
4.73424
21
-5.73737
0
LINE
8
BLACK
6
CONTINUOUS
10
4.73424
20
-5.73737
11
4.73322
21
-5.74538
0
LINE
8
BLACK
6
CONTINUOUS
10
4.73322
20
-5.74538
11
4.73068
21
-5.75303
0
LINE
8
BLACK
6
CONTINUOUS
10
4.73068
20
-5.75303
11
4.72669
21
-5.76005
0
LINE
8
BLACK
6
CONTINUOUS
10
4.72669
20
-5.76005
11
4.72142
21
-5.76616
0
LINE
8
BLACK
6
CONTINUOUS
10
4.72142
20
-5.76616
11
4.71506
21
-5.77112
0
LINE
8
BLACK
6
CONTINUOUS
10
4.71506
20
-5.77112
11
4.70786
21
-5.77476
0
LINE
8
BLACK
6
CONTINUOUS
10
4.70786
20
-5.77476
11
4.70009
21
-5.77693
0
LINE
8
BLACK
6
CONTINUOUS
10
4.70009
20
-5.77693
11
4.69205
21
-5.77755
0
LINE
8
BLACK
6
CONTINUOUS
10
4.69205
20
-5.77755
11
4.68404
21
-5.77659
0
LINE
8
BLACK
6
CONTINUOUS
10
4.68404
20
-5.77659
11
4.67636
21
-5.7741
0
LINE
8
BLACK
6
CONTINUOUS
10
4.67636
20
-5.7741
11
4.66932
21
-5.77017
0
LINE
8
BLACK
6
CONTINUOUS
10
4.66932
20
-5.77017
11
4.66318
21
-5.76494
0
LINE
8
BLACK
6
CONTINUOUS
10
4.66318
20
-5.76494
11
4.65817
21
-5.75861
0
LINE
8
BLACK
6
CONTINUOUS
10
4.65817
20
-5.75861
11
4.65448
21
-5.75144
0
LINE
8
BLACK
6
CONTINUOUS
10
4.65448
20
-5.75144
11
4.65225
21
-5.74368
0
LINE
8
BLACK
6
CONTINUOUS
10
4.65225
20
-5.74368
11
4.65158
21
-5.73564
0
LINE
8
BLACK
6
CONTINUOUS
10
4.65158
20
-5.73564
11
4.65248
21
-5.72763
0
LINE
8
BLACK
6
CONTINUOUS
10
4.65248
20
-5.72763
11
4.65492
21
-5.71994
0
LINE
8
BLACK
6
CONTINUOUS
10
4.65492
20
-5.71994
11
4.6588
21
-5.71287
0
LINE
8
BLACK
6
CONTINUOUS
10
4.6588
20
-5.71287
11
4.66399
21
-5.70669
0
LINE
8
BLACK
6
CONTINUOUS
10
4.66399
20
-5.70669
11
4.67028
21
-5.70163
0
LINE
8
BLACK
6
CONTINUOUS
10
4.67028
20
-5.70163
11
4.67743
21
-5.69789
0
LINE
8
BLACK
6
CONTINUOUS
10
4.67743
20
-5.69789
11
4.68517
21
-5.69561
0
LINE
8
BLACK
6
CONTINUOUS
10
4.68517
20
-5.69561
11
4.6932
21
-5.69488
0
LINE
8
BLACK
6
CONTINUOUS
10
4.6932
20
-5.69488
11
4.70123
21
-5.69573
0
LINE
8
BLACK
6
CONTINUOUS
10
4.42564
20
-5.22132
11
4.43334
21
-5.2237
0
LINE
8
BLACK
6
CONTINUOUS
10
4.43334
20
-5.2237
11
4.44044
21
-5.22754
0
LINE
8
BLACK
6
CONTINUOUS
10
4.44044
20
-5.22754
11
4.44666
21
-5.23268
0
LINE
8
BLACK
6
CONTINUOUS
10
4.44666
20
-5.23268
11
4.45175
21
-5.23893
0
LINE
8
BLACK
6
CONTINUOUS
10
4.45175
20
-5.23893
11
4.45554
21
-5.24606
0
LINE
8
BLACK
6
CONTINUOUS
10
4.45554
20
-5.24606
11
4.45787
21
-5.25378
0
LINE
8
BLACK
6
CONTINUOUS
10
4.45787
20
-5.25378
11
4.45866
21
-5.26181
0
LINE
8
BLACK
6
CONTINUOUS
10
4.45866
20
-5.26181
11
4.45865
21
-5.26297
0
LINE
8
BLACK
6
CONTINUOUS
10
4.45865
20
-5.26297
11
4.45763
21
-5.27097
0
LINE
8
BLACK
6
CONTINUOUS
10
4.45763
20
-5.27097
11
4.45509
21
-5.27862
0
LINE
8
BLACK
6
CONTINUOUS
10
4.45509
20
-5.27862
11
4.4511
21
-5.28564
0
LINE
8
BLACK
6
CONTINUOUS
10
4.4511
20
-5.28564
11
4.44583
21
-5.29175
0
LINE
8
BLACK
6
CONTINUOUS
10
4.44583
20
-5.29175
11
4.43947
21
-5.29671
0
LINE
8
BLACK
6
CONTINUOUS
10
4.43947
20
-5.29671
11
4.43227
21
-5.30035
0
LINE
8
BLACK
6
CONTINUOUS
10
4.43227
20
-5.30035
11
4.4245
21
-5.30252
0
LINE
8
BLACK
6
CONTINUOUS
10
4.4245
20
-5.30252
11
4.41646
21
-5.30314
0
LINE
8
BLACK
6
CONTINUOUS
10
4.41646
20
-5.30314
11
4.40845
21
-5.30219
0
LINE
8
BLACK
6
CONTINUOUS
10
4.40845
20
-5.30219
11
4.40077
21
-5.29969
0
LINE
8
BLACK
6
CONTINUOUS
10
4.40077
20
-5.29969
11
4.39373
21
-5.29576
0
LINE
8
BLACK
6
CONTINUOUS
10
4.39373
20
-5.29576
11
4.38759
21
-5.29053
0
LINE
8
BLACK
6
CONTINUOUS
10
4.38759
20
-5.29053
11
4.38258
21
-5.2842
0
LINE
8
BLACK
6
CONTINUOUS
10
4.38258
20
-5.2842
11
4.37889
21
-5.27703
0
LINE
8
BLACK
6
CONTINUOUS
10
4.37889
20
-5.27703
11
4.37666
21
-5.26927
0
LINE
8
BLACK
6
CONTINUOUS
10
4.37666
20
-5.26927
11
4.37599
21
-5.26123
0
LINE
8
BLACK
6
CONTINUOUS
10
4.37599
20
-5.26123
11
4.37689
21
-5.25322
0
LINE
8
BLACK
6
CONTINUOUS
10
4.37689
20
-5.25322
11
4.37933
21
-5.24553
0
LINE
8
BLACK
6
CONTINUOUS
10
4.37933
20
-5.24553
11
4.38321
21
-5.23846
0
LINE
8
BLACK
6
CONTINUOUS
10
4.38321
20
-5.23846
11
4.3884
21
-5.23228
0
LINE
8
BLACK
6
CONTINUOUS
10
4.3884
20
-5.23228
11
4.39469
21
-5.22722
0
LINE
8
BLACK
6
CONTINUOUS
10
4.39469
20
-5.22722
11
4.40184
21
-5.22348
0
LINE
8
BLACK
6
CONTINUOUS
10
4.40184
20
-5.22348
11
4.40958
21
-5.2212
0
LINE
8
BLACK
6
CONTINUOUS
10
4.40958
20
-5.2212
11
4.41761
21
-5.22047
0
LINE
8
BLACK
6
CONTINUOUS
10
4.41761
20
-5.22047
11
4.42564
21
-5.22132
0
LINE
8
BLACK
6
CONTINUOUS
10
4.70123
20
-5.22132
11
4.70893
21
-5.2237
0
LINE
8
BLACK
6
CONTINUOUS
10
4.70893
20
-5.2237
11
4.71603
21
-5.22754
0
LINE
8
BLACK
6
CONTINUOUS
10
4.71603
20
-5.22754
11
4.72225
21
-5.23268
0
LINE
8
BLACK
6
CONTINUOUS
10
4.72225
20
-5.23268
11
4.72735
21
-5.23893
0
LINE
8
BLACK
6
CONTINUOUS
10
4.72735
20
-5.23893
11
4.73113
21
-5.24606
0
LINE
8
BLACK
6
CONTINUOUS
10
4.73113
20
-5.24606
11
4.73346
21
-5.25378
0
LINE
8
BLACK
6
CONTINUOUS
10
4.73346
20
-5.25378
11
4.73425
21
-5.26181
0
LINE
8
BLACK
6
CONTINUOUS
10
4.73425
20
-5.26181
11
4.73424
21
-5.26297
0
LINE
8
BLACK
6
CONTINUOUS
10
4.73424
20
-5.26297
11
4.73322
21
-5.27097
0
LINE
8
BLACK
6
CONTINUOUS
10
4.73322
20
-5.27097
11
4.73068
21
-5.27862
0
LINE
8
BLACK
6
CONTINUOUS
10
4.73068
20
-5.27862
11
4.72669
21
-5.28564
0
LINE
8
BLACK
6
CONTINUOUS
10
4.72669
20
-5.28564
11
4.72142
21
-5.29175
0
LINE
8
BLACK
6
CONTINUOUS
10
4.72142
20
-5.29175
11
4.71506
21
-5.29671
0
LINE
8
BLACK
6
CONTINUOUS
10
4.71506
20
-5.29671
11
4.70786
21
-5.30035
0
LINE
8
BLACK
6
CONTINUOUS
10
4.70786
20
-5.30035
11
4.70009
21
-5.30252
0
LINE
8
BLACK
6
CONTINUOUS
10
4.70009
20
-5.30252
11
4.69205
21
-5.30314
0
LINE
8
BLACK
6
CONTINUOUS
10
4.69205
20
-5.30314
11
4.68404
21
-5.30219
0
LINE
8
BLACK
6
CONTINUOUS
10
4.68404
20
-5.30219
11
4.67636
21
-5.29969
0
LINE
8
BLACK
6
CONTINUOUS
10
4.67636
20
-5.29969
11
4.66932
21
-5.29576
0
LINE
8
BLACK
6
CONTINUOUS
10
4.66932
20
-5.29576
11
4.66318
21
-5.29053
0
LINE
8
BLACK
6
CONTINUOUS
10
4.66318
20
-5.29053
11
4.65817
21
-5.2842
0
LINE
8
BLACK
6
CONTINUOUS
10
4.65817
20
-5.2842
11
4.65448
21
-5.27703
0
LINE
8
BLACK
6
CONTINUOUS
10
4.65448
20
-5.27703
11
4.65225
21
-5.26927
0
LINE
8
BLACK
6
CONTINUOUS
10
4.65225
20
-5.26927
11
4.65158
21
-5.26123
0
LINE
8
BLACK
6
CONTINUOUS
10
4.65158
20
-5.26123
11
4.65248
21
-5.25322
0
LINE
8
BLACK
6
CONTINUOUS
10
4.65248
20
-5.25322
11
4.65492
21
-5.24553
0
LINE
8
BLACK
6
CONTINUOUS
10
4.65492
20
-5.24553
11
4.6588
21
-5.23846
0
LINE
8
BLACK
6
CONTINUOUS
10
4.6588
20
-5.23846
11
4.66399
21
-5.23228
0
LINE
8
BLACK
6
CONTINUOUS
10
4.66399
20
-5.23228
11
4.67028
21
-5.22722
0
LINE
8
BLACK
6
CONTINUOUS
10
4.67028
20
-5.22722
11
4.67743
21
-5.22348
0
LINE
8
BLACK
6
CONTINUOUS
10
4.67743
20
-5.22348
11
4.68517
21
-5.2212
0
LINE
8
BLACK
6
CONTINUOUS
10
4.68517
20
-5.2212
11
4.6932
21
-5.22047
0
LINE
8
BLACK
6
CONTINUOUS
10
4.6932
20
-5.22047
11
4.70123
21
-5.22132
0
LINE
8
BLACK
6
CONTINUOUS
10
3.47657
20
-4.6493
11
3.49752
21
-4.65224
0
LINE
8
BLACK
6
CONTINUOUS
10
3.49752
20
-4.65224
11
3.51822
21
-4.65664
0
LINE
8
BLACK
6
CONTINUOUS
10
3.51822
20
-4.65664
11
3.53856
21
-4.66247
0
LINE
8
BLACK
6
CONTINUOUS
10
3.53856
20
-4.66247
11
3.55844
21
-4.66971
0
LINE
8
BLACK
6
CONTINUOUS
10
3.55844
20
-4.66971
11
3.57777
21
-4.67832
0
LINE
8
BLACK
6
CONTINUOUS
10
3.57777
20
-4.67832
11
3.59646
21
-4.68825
0
LINE
8
BLACK
6
CONTINUOUS
10
3.59646
20
-4.68825
11
3.6144
21
-4.69947
0
LINE
8
BLACK
6
CONTINUOUS
10
3.6144
20
-4.69947
11
3.63152
21
-4.7119
0
LINE
8
BLACK
6
CONTINUOUS
10
3.63152
20
-4.7119
11
3.64773
21
-4.7255
0
LINE
8
BLACK
6
CONTINUOUS
10
3.64773
20
-4.7255
11
3.66295
21
-4.7402
0
LINE
8
BLACK
6
CONTINUOUS
10
3.66295
20
-4.7402
11
3.67711
21
-4.75593
0
LINE
8
BLACK
6
CONTINUOUS
10
3.67711
20
-4.75593
11
3.69014
21
-4.7726
0
LINE
8
BLACK
6
CONTINUOUS
10
3.69014
20
-4.7726
11
3.70197
21
-4.79014
0
LINE
8
BLACK
6
CONTINUOUS
10
3.70197
20
-4.79014
11
3.71255
21
-4.80847
0
LINE
8
BLACK
6
CONTINUOUS
10
3.71255
20
-4.80847
11
3.72182
21
-4.82749
0
LINE
8
BLACK
6
CONTINUOUS
10
3.72182
20
-4.82749
11
3.72975
21
-4.8471
0
LINE
8
BLACK
6
CONTINUOUS
10
3.72975
20
-4.8471
11
3.73629
21
-4.86723
0
LINE
8
BLACK
6
CONTINUOUS
10
3.73629
20
-4.86723
11
3.74141
21
-4.88776
0
LINE
8
BLACK
6
CONTINUOUS
10
3.74141
20
-4.88776
11
3.74508
21
-4.9086
0
LINE
8
BLACK
6
CONTINUOUS
10
3.74508
20
-4.9086
11
3.74729
21
-4.92964
0
LINE
8
BLACK
6
CONTINUOUS
10
3.74729
20
-4.92964
11
3.74803
21
-4.95079
0
LINE
8
BLACK
6
CONTINUOUS
10
3.74803
20
-4.95079
11
3.74729
21
-4.97193
0
LINE
8
BLACK
6
CONTINUOUS
10
3.74729
20
-4.97193
11
3.74508
21
-4.99298
0
LINE
8
BLACK
6
CONTINUOUS
10
3.74508
20
-4.99298
11
3.74141
21
-5.01382
0
LINE
8
BLACK
6
CONTINUOUS
10
3.74141
20
-5.01382
11
3.73629
21
-5.03435
0
LINE
8
BLACK
6
CONTINUOUS
10
3.73629
20
-5.03435
11
3.72975
21
-5.05447
0
LINE
8
BLACK
6
CONTINUOUS
10
3.72975
20
-5.05447
11
3.72182
21
-5.07409
0
LINE
8
BLACK
6
CONTINUOUS
10
3.72182
20
-5.07409
11
3.71255
21
-5.09311
0
LINE
8
BLACK
6
CONTINUOUS
10
3.71255
20
-5.09311
11
3.70197
21
-5.11143
0
LINE
8
BLACK
6
CONTINUOUS
10
3.70197
20
-5.11143
11
3.69014
21
-5.12897
0
LINE
8
BLACK
6
CONTINUOUS
10
3.69014
20
-5.12897
11
3.67711
21
-5.14565
0
LINE
8
BLACK
6
CONTINUOUS
10
3.67711
20
-5.14565
11
3.66295
21
-5.16137
0
LINE
8
BLACK
6
CONTINUOUS
10
3.66295
20
-5.16137
11
3.64773
21
-5.17607
0
LINE
8
BLACK
6
CONTINUOUS
10
3.64773
20
-5.17607
11
3.63152
21
-5.18967
0
LINE
8
BLACK
6
CONTINUOUS
10
3.63152
20
-5.18967
11
3.6144
21
-5.20211
0
LINE
8
BLACK
6
CONTINUOUS
10
3.6144
20
-5.20211
11
3.59646
21
-5.21332
0
LINE
8
BLACK
6
CONTINUOUS
10
3.59646
20
-5.21332
11
3.57777
21
-5.22326
0
LINE
8
BLACK
6
CONTINUOUS
10
3.57777
20
-5.22326
11
3.55844
21
-5.23186
0
LINE
8
BLACK
6
CONTINUOUS
10
3.55844
20
-5.23186
11
3.53856
21
-5.2391
0
LINE
8
BLACK
6
CONTINUOUS
10
3.53856
20
-5.2391
11
3.51822
21
-5.24493
0
LINE
8
BLACK
6
CONTINUOUS
10
3.51822
20
-5.24493
11
3.49752
21
-5.24933
0
LINE
8
BLACK
6
CONTINUOUS
10
3.49752
20
-5.24933
11
3.47657
21
-5.25228
0
LINE
8
BLACK
6
CONTINUOUS
10
3.47657
20
-5.25228
11
3.45546
21
-5.25375
0
LINE
8
BLACK
6
CONTINUOUS
10
3.45546
20
-5.25375
11
3.4343
21
-5.25375
0
LINE
8
BLACK
6
CONTINUOUS
10
3.4343
20
-5.25375
11
3.41319
21
-5.25228
0
LINE
8
BLACK
6
CONTINUOUS
10
3.41319
20
-5.25228
11
3.39224
21
-5.24933
0
LINE
8
BLACK
6
CONTINUOUS
10
3.39224
20
-5.24933
11
3.37154
21
-5.24493
0
LINE
8
BLACK
6
CONTINUOUS
10
3.37154
20
-5.24493
11
3.3512
21
-5.2391
0
LINE
8
BLACK
6
CONTINUOUS
10
3.3512
20
-5.2391
11
3.33132
21
-5.23186
0
LINE
8
BLACK
6
CONTINUOUS
10
3.33132
20
-5.23186
11
3.31199
21
-5.22326
0
LINE
8
BLACK
6
CONTINUOUS
10
3.31199
20
-5.22326
11
3.29331
21
-5.21332
0
LINE
8
BLACK
6
CONTINUOUS
10
3.29331
20
-5.21332
11
3.27536
21
-5.20211
0
LINE
8
BLACK
6
CONTINUOUS
10
3.27536
20
-5.20211
11
3.25824
21
-5.18967
0
LINE
8
BLACK
6
CONTINUOUS
10
3.25824
20
-5.18967
11
3.24204
21
-5.17607
0
LINE
8
BLACK
6
CONTINUOUS
10
3.24204
20
-5.17607
11
3.22681
21
-5.16137
0
LINE
8
BLACK
6
CONTINUOUS
10
3.22681
20
-5.16137
11
3.21266
21
-5.14565
0
LINE
8
BLACK
6
CONTINUOUS
10
3.21266
20
-5.14565
11
3.19963
21
-5.12897
0
LINE
8
BLACK
6
CONTINUOUS
10
3.19963
20
-5.12897
11
3.1878
21
-5.11143
0
LINE
8
BLACK
6
CONTINUOUS
10
3.1878
20
-5.11143
11
3.17722
21
-5.09311
0
LINE
8
BLACK
6
CONTINUOUS
10
3.17722
20
-5.09311
11
3.16794
21
-5.07409
0
LINE
8
BLACK
6
CONTINUOUS
10
3.16794
20
-5.07409
11
3.16001
21
-5.05447
0
LINE
8
BLACK
6
CONTINUOUS
10
3.16001
20
-5.05447
11
3.15348
21
-5.03435
0
LINE
8
BLACK
6
CONTINUOUS
10
3.15348
20
-5.03435
11
3.14836
21
-5.01382
0
LINE
8
BLACK
6
CONTINUOUS
10
3.14836
20
-5.01382
11
3.14468
21
-4.99298
0
LINE
8
BLACK
6
CONTINUOUS
10
3.14468
20
-4.99298
11
3.14247
21
-4.97193
0
LINE
8
BLACK
6
CONTINUOUS
10
3.14247
20
-4.97193
11
3.14173
21
-4.95079
0
LINE
8
BLACK
6
CONTINUOUS
10
3.14173
20
-4.95079
11
3.14247
21
-4.92964
0
LINE
8
BLACK
6
CONTINUOUS
10
3.14247
20
-4.92964
11
3.14468
21
-4.9086
0
LINE
8
BLACK
6
CONTINUOUS
10
3.14468
20
-4.9086
11
3.14836
21
-4.88776
0
LINE
8
BLACK
6
CONTINUOUS
10
3.14836
20
-4.88776
11
3.15348
21
-4.86723
0
LINE
8
BLACK
6
CONTINUOUS
10
3.15348
20
-4.86723
11
3.16001
21
-4.8471
0
LINE
8
BLACK
6
CONTINUOUS
10
3.16001
20
-4.8471
11
3.16794
21
-4.82749
0
LINE
8
BLACK
6
CONTINUOUS
10
3.16794
20
-4.82749
11
3.17722
21
-4.80847
0
LINE
8
BLACK
6
CONTINUOUS
10
3.17722
20
-4.80847
11
3.1878
21
-4.79014
0
LINE
8
BLACK
6
CONTINUOUS
10
3.1878
20
-4.79014
11
3.19963
21
-4.7726
0
LINE
8
BLACK
6
CONTINUOUS
10
3.19963
20
-4.7726
11
3.21266
21
-4.75593
0
LINE
8
BLACK
6
CONTINUOUS
10
3.21266
20
-4.75593
11
3.22681
21
-4.7402
0
LINE
8
BLACK
6
CONTINUOUS
10
3.22681
20
-4.7402
11
3.24204
21
-4.7255
0
LINE
8
BLACK
6
CONTINUOUS
10
3.24204
20
-4.7255
11
3.25824
21
-4.7119
0
LINE
8
BLACK
6
CONTINUOUS
10
3.25824
20
-4.7119
11
3.27536
21
-4.69947
0
LINE
8
BLACK
6
CONTINUOUS
10
3.27536
20
-4.69947
11
3.29331
21
-4.68825
0
LINE
8
BLACK
6
CONTINUOUS
10
3.29331
20
-4.68825
11
3.31199
21
-4.67832
0
LINE
8
BLACK
6
CONTINUOUS
10
3.31199
20
-4.67832
11
3.33132
21
-4.66971
0
LINE
8
BLACK
6
CONTINUOUS
10
3.33132
20
-4.66971
11
3.3512
21
-4.66247
0
LINE
8
BLACK
6
CONTINUOUS
10
3.3512
20
-4.66247
11
3.37154
21
-4.65664
0
LINE
8
BLACK
6
CONTINUOUS
10
3.37154
20
-4.65664
11
3.39224
21
-4.65224
0
LINE
8
BLACK
6
CONTINUOUS
10
3.39224
20
-4.65224
11
3.41319
21
-4.6493
0
LINE
8
BLACK
6
CONTINUOUS
10
3.41319
20
-4.6493
11
3.4343
21
-4.64782
0
LINE
8
BLACK
6
CONTINUOUS
10
3.4343
20
-4.64782
11
3.45546
21
-4.64782
0
LINE
8
BLACK
6
CONTINUOUS
10
3.45546
20
-4.64782
11
3.47657
21
-4.6493
0
LINE
8
BLACK
6
CONTINUOUS
10
4.69034
20
-4.92916
11
4.69676
21
-4.93073
0
LINE
8
BLACK
6
CONTINUOUS
10
4.69676
20
-4.93073
11
4.70265
21
-4.93373
0
LINE
8
BLACK
6
CONTINUOUS
10
4.70265
20
-4.93373
11
4.70769
21
-4.93801
0
LINE
8
BLACK
6
CONTINUOUS
10
4.70769
20
-4.93801
11
4.7116
21
-4.94334
0
LINE
8
BLACK
6
CONTINUOUS
10
4.7116
20
-4.94334
11
4.71419
21
-4.94942
0
LINE
8
BLACK
6
CONTINUOUS
10
4.71419
20
-4.94942
11
4.71531
21
-4.95594
0
LINE
8
BLACK
6
CONTINUOUS
10
4.71531
20
-4.95594
11
4.7149
21
-4.96253
0
LINE
8
BLACK
6
CONTINUOUS
10
4.7149
20
-4.96253
11
4.71299
21
-4.96886
0
LINE
8
BLACK
6
CONTINUOUS
10
4.71299
20
-4.96886
11
4.70967
21
-4.97458
0
LINE
8
BLACK
6
CONTINUOUS
10
4.70967
20
-4.97458
11
4.70512
21
-4.97938
0
LINE
8
BLACK
6
CONTINUOUS
10
4.70512
20
-4.97938
11
4.69959
21
-4.983
0
LINE
8
BLACK
6
CONTINUOUS
10
4.69959
20
-4.983
11
4.69338
21
-4.98526
0
LINE
8
BLACK
6
CONTINUOUS
10
4.69338
20
-4.98526
11
4.68681
21
-4.98602
0
LINE
8
BLACK
6
CONTINUOUS
10
4.68681
20
-4.98602
11
4.64547
21
-4.98602
0
LINE
8
BLACK
6
CONTINUOUS
10
4.64547
20
-4.98602
11
4.64194
21
-4.9858
0
LINE
8
BLACK
6
CONTINUOUS
10
4.64194
20
-4.9858
11
4.63552
21
-4.98423
0
LINE
8
BLACK
6
CONTINUOUS
10
4.63552
20
-4.98423
11
4.62964
21
-4.98123
0
LINE
8
BLACK
6
CONTINUOUS
10
4.62964
20
-4.98123
11
4.6246
21
-4.97695
0
LINE
8
BLACK
6
CONTINUOUS
10
4.6246
20
-4.97695
11
4.62068
21
-4.97162
0
LINE
8
BLACK
6
CONTINUOUS
10
4.62068
20
-4.97162
11
4.61809
21
-4.96554
0
LINE
8
BLACK
6
CONTINUOUS
10
4.61809
20
-4.96554
11
4.61697
21
-4.95902
0
LINE
8
BLACK
6
CONTINUOUS
10
4.61697
20
-4.95902
11
4.61738
21
-4.95243
0
LINE
8
BLACK
6
CONTINUOUS
10
4.61738
20
-4.95243
11
4.6193
21
-4.9461
0
LINE
8
BLACK
6
CONTINUOUS
10
4.6193
20
-4.9461
11
4.62262
21
-4.94038
0
LINE
8
BLACK
6
CONTINUOUS
10
4.62262
20
-4.94038
11
4.62716
21
-4.93558
0
LINE
8
BLACK
6
CONTINUOUS
10
4.62716
20
-4.93558
11
4.63269
21
-4.93196
0
LINE
8
BLACK
6
CONTINUOUS
10
4.63269
20
-4.93196
11
4.63891
21
-4.9297
0
LINE
8
BLACK
6
CONTINUOUS
10
4.63891
20
-4.9297
11
4.64547
21
-4.92894
0
LINE
8
BLACK
6
CONTINUOUS
10
4.64547
20
-4.92894
11
4.68681
21
-4.92894
0
LINE
8
BLACK
6
CONTINUOUS
10
4.68681
20
-4.92894
11
4.69034
21
-4.92916
0
LINE
8
BLACK
6
CONTINUOUS
10
4.85068
20
-4.92992
11
4.85725
21
-4.93079
0
LINE
8
BLACK
6
CONTINUOUS
10
4.85725
20
-4.93079
11
4.86342
21
-4.93319
0
LINE
8
BLACK
6
CONTINUOUS
10
4.86342
20
-4.93319
11
4.86883
21
-4.937
0
LINE
8
BLACK
6
CONTINUOUS
10
4.86883
20
-4.937
11
4.87319
21
-4.94199
0
LINE
8
BLACK
6
CONTINUOUS
10
4.87319
20
-4.94199
11
4.87622
21
-4.94787
0
LINE
8
BLACK
6
CONTINUOUS
10
4.87622
20
-4.94787
11
4.87777
21
-4.95431
0
LINE
8
BLACK
6
CONTINUOUS
10
4.87777
20
-4.95431
11
4.87774
21
-4.96093
0
LINE
8
BLACK
6
CONTINUOUS
10
4.87774
20
-4.96093
11
4.87612
21
-4.96736
0
LINE
8
BLACK
6
CONTINUOUS
10
4.87612
20
-4.96736
11
4.87302
21
-4.97321
0
LINE
8
BLACK
6
CONTINUOUS
10
4.87302
20
-4.97321
11
4.86862
21
-4.97815
0
LINE
8
BLACK
6
CONTINUOUS
10
4.86862
20
-4.97815
11
4.86316
21
-4.9819
0
LINE
8
BLACK
6
CONTINUOUS
10
4.86316
20
-4.9819
11
4.85697
21
-4.98424
0
LINE
8
BLACK
6
CONTINUOUS
10
4.85697
20
-4.98424
11
4.85039
21
-4.98504
0
LINE
8
BLACK
6
CONTINUOUS
10
4.85039
20
-4.98504
11
4.81102
21
-4.98504
0
LINE
8
BLACK
6
CONTINUOUS
10
4.81102
20
-4.98504
11
4.81074
21
-4.98504
0
LINE
8
BLACK
6
CONTINUOUS
10
4.81074
20
-4.98504
11
4.80417
21
-4.98417
0
LINE
8
BLACK
6
CONTINUOUS
10
4.80417
20
-4.98417
11
4.798
21
-4.98177
0
LINE
8
BLACK
6
CONTINUOUS
10
4.798
20
-4.98177
11
4.79258
21
-4.97796
0
LINE
8
BLACK
6
CONTINUOUS
10
4.79258
20
-4.97796
11
4.78823
21
-4.97297
0
LINE
8
BLACK
6
CONTINUOUS
10
4.78823
20
-4.97297
11
4.78519
21
-4.96709
0
LINE
8
BLACK
6
CONTINUOUS
10
4.78519
20
-4.96709
11
4.78365
21
-4.96065
0
LINE
8
BLACK
6
CONTINUOUS
10
4.78365
20
-4.96065
11
4.78368
21
-4.95403
0
LINE
8
BLACK
6
CONTINUOUS
10
4.78368
20
-4.95403
11
4.7853
21
-4.9476
0
LINE
8
BLACK
6
CONTINUOUS
10
4.7853
20
-4.9476
11
4.78839
21
-4.94175
0
LINE
8
BLACK
6
CONTINUOUS
10
4.78839
20
-4.94175
11
4.7928
21
-4.93681
0
LINE
8
BLACK
6
CONTINUOUS
10
4.7928
20
-4.93681
11
4.79826
21
-4.93306
0
LINE
8
BLACK
6
CONTINUOUS
10
4.79826
20
-4.93306
11
4.80445
21
-4.93072
0
LINE
8
BLACK
6
CONTINUOUS
10
4.80445
20
-4.93072
11
4.81102
21
-4.92992
0
LINE
8
BLACK
6
CONTINUOUS
10
4.81102
20
-4.92992
11
4.85039
21
-4.92992
0
LINE
8
BLACK
6
CONTINUOUS
10
4.85039
20
-4.92992
11
4.85068
21
-4.92992
0
LINE
8
BLACK
6
CONTINUOUS
10
4.39544
20
-4.92922
11
4.40182
21
-4.93082
0
LINE
8
BLACK
6
CONTINUOUS
10
4.40182
20
-4.93082
11
4.40763
21
-4.9339
0
LINE
8
BLACK
6
CONTINUOUS
10
4.40763
20
-4.9339
11
4.41254
21
-4.93828
0
LINE
8
BLACK
6
CONTINUOUS
10
4.41254
20
-4.93828
11
4.41627
21
-4.9437
0
LINE
8
BLACK
6
CONTINUOUS
10
4.41627
20
-4.9437
11
4.41859
21
-4.94985
0
LINE
8
BLACK
6
CONTINUOUS
10
4.41859
20
-4.94985
11
4.41938
21
-4.95638
0
LINE
8
BLACK
6
CONTINUOUS
10
4.41938
20
-4.95638
11
4.41938
21
-4.95695
0
LINE
8
BLACK
6
CONTINUOUS
10
4.41938
20
-4.95695
11
4.41845
21
-4.96346
0
LINE
8
BLACK
6
CONTINUOUS
10
4.41845
20
-4.96346
11
4.416
21
-4.96957
0
LINE
8
BLACK
6
CONTINUOUS
10
4.416
20
-4.96957
11
4.41216
21
-4.97491
0
LINE
8
BLACK
6
CONTINUOUS
10
4.41216
20
-4.97491
11
4.40716
21
-4.97918
0
LINE
8
BLACK
6
CONTINUOUS
10
4.40716
20
-4.97918
11
4.40128
21
-4.98213
0
LINE
8
BLACK
6
CONTINUOUS
10
4.40128
20
-4.98213
11
4.39487
21
-4.9836
0
LINE
8
BLACK
6
CONTINUOUS
10
4.39487
20
-4.9836
11
4.38829
21
-4.9835
0
LINE
8
BLACK
6
CONTINUOUS
10
4.38829
20
-4.9835
11
4.38193
21
-4.98183
0
LINE
8
BLACK
6
CONTINUOUS
10
4.38193
20
-4.98183
11
4.37615
21
-4.97869
0
LINE
8
BLACK
6
CONTINUOUS
10
4.37615
20
-4.97869
11
4.37129
21
-4.97426
0
LINE
8
BLACK
6
CONTINUOUS
10
4.37129
20
-4.97426
11
4.36762
21
-4.96881
0
LINE
8
BLACK
6
CONTINUOUS
10
4.36762
20
-4.96881
11
4.36536
21
-4.96263
0
LINE
8
BLACK
6
CONTINUOUS
10
4.36536
20
-4.96263
11
4.36464
21
-4.95609
0
LINE
8
BLACK
6
CONTINUOUS
10
4.36464
20
-4.95609
11
4.36549
21
-4.94957
0
LINE
8
BLACK
6
CONTINUOUS
10
4.36549
20
-4.94957
11
4.36788
21
-4.94344
0
LINE
8
BLACK
6
CONTINUOUS
10
4.36788
20
-4.94344
11
4.37167
21
-4.93806
0
LINE
8
BLACK
6
CONTINUOUS
10
4.37167
20
-4.93806
11
4.37662
21
-4.93374
0
LINE
8
BLACK
6
CONTINUOUS
10
4.37662
20
-4.93374
11
4.38247
21
-4.93072
0
LINE
8
BLACK
6
CONTINUOUS
10
4.38247
20
-4.93072
11
4.38886
21
-4.92919
0
LINE
8
BLACK
6
CONTINUOUS
10
4.38886
20
-4.92919
11
4.39544
21
-4.92922
0
LINE
8
BLACK
6
CONTINUOUS
10
4.31544
20
-4.92922
11
4.32182
21
-4.93082
0
LINE
8
BLACK
6
CONTINUOUS
10
4.32182
20
-4.93082
11
4.32763
21
-4.9339
0
LINE
8
BLACK
6
CONTINUOUS
10
4.32763
20
-4.9339
11
4.33254
21
-4.93828
0
LINE
8
BLACK
6
CONTINUOUS
10
4.33254
20
-4.93828
11
4.33627
21
-4.9437
0
LINE
8
BLACK
6
CONTINUOUS
10
4.33627
20
-4.9437
11
4.33859
21
-4.94985
0
LINE
8
BLACK
6
CONTINUOUS
10
4.33859
20
-4.94985
11
4.33938
21
-4.95638
0
LINE
8
BLACK
6
CONTINUOUS
10
4.33938
20
-4.95638
11
4.33938
21
-4.95695
0
LINE
8
BLACK
6
CONTINUOUS
10
4.33938
20
-4.95695
11
4.33845
21
-4.96346
0
LINE
8
BLACK
6
CONTINUOUS
10
4.33845
20
-4.96346
11
4.336
21
-4.96957
0
LINE
8
BLACK
6
CONTINUOUS
10
4.336
20
-4.96957
11
4.33216
21
-4.97491
0
LINE
8
BLACK
6
CONTINUOUS
10
4.33216
20
-4.97491
11
4.32716
21
-4.97918
0
LINE
8
BLACK
6
CONTINUOUS
10
4.32716
20
-4.97918
11
4.32128
21
-4.98213
0
LINE
8
BLACK
6
CONTINUOUS
10
4.32128
20
-4.98213
11
4.31487
21
-4.9836
0
LINE
8
BLACK
6
CONTINUOUS
10
4.31487
20
-4.9836
11
4.30829
21
-4.9835
0
LINE
8
BLACK
6
CONTINUOUS
10
4.30829
20
-4.9835
11
4.30193
21
-4.98183
0
LINE
8
BLACK
6
CONTINUOUS
10
4.30193
20
-4.98183
11
4.29615
21
-4.97869
0
LINE
8
BLACK
6
CONTINUOUS
10
4.29615
20
-4.97869
11
4.29129
21
-4.97426
0
LINE
8
BLACK
6
CONTINUOUS
10
4.29129
20
-4.97426
11
4.28762
21
-4.96881
0
LINE
8
BLACK
6
CONTINUOUS
10
4.28762
20
-4.96881
11
4.28536
21
-4.96263
0
LINE
8
BLACK
6
CONTINUOUS
10
4.28536
20
-4.96263
11
4.28464
21
-4.95609
0
LINE
8
BLACK
6
CONTINUOUS
10
4.28464
20
-4.95609
11
4.28549
21
-4.94957
0
LINE
8
BLACK
6
CONTINUOUS
10
4.28549
20
-4.94957
11
4.28788
21
-4.94344
0
LINE
8
BLACK
6
CONTINUOUS
10
4.28788
20
-4.94344
11
4.29167
21
-4.93806
0
LINE
8
BLACK
6
CONTINUOUS
10
4.29167
20
-4.93806
11
4.29662
21
-4.93374
0
LINE
8
BLACK
6
CONTINUOUS
10
4.29662
20
-4.93374
11
4.30247
21
-4.93072
0
LINE
8
BLACK
6
CONTINUOUS
10
4.30247
20
-4.93072
11
4.30886
21
-4.92919
0
LINE
8
BLACK
6
CONTINUOUS
10
4.30886
20
-4.92919
11
4.31544
21
-4.92922
0
LINE
8
BLACK
6
CONTINUOUS
10
4.69118
20
-4.88122
11
4.69616
21
-4.88328
0
LINE
8
BLACK
6
CONTINUOUS
10
4.69616
20
-4.88328
11
4.70044
21
-4.88657
0
LINE
8
BLACK
6
CONTINUOUS
10
4.70044
20
-4.88657
11
4.70373
21
-4.89085
0
LINE
8
BLACK
6
CONTINUOUS
10
4.70373
20
-4.89085
11
4.70579
21
-4.89583
0
LINE
8
BLACK
6
CONTINUOUS
10
4.70579
20
-4.89583
11
4.7065
21
-4.90118
0
LINE
8
BLACK
6
CONTINUOUS
10
4.7065
20
-4.90118
11
4.70579
21
-4.90653
0
LINE
8
BLACK
6
CONTINUOUS
10
4.70579
20
-4.90653
11
4.70373
21
-4.91152
0
LINE
8
BLACK
6
CONTINUOUS
10
4.70373
20
-4.91152
11
4.70044
21
-4.9158
0
LINE
8
BLACK
6
CONTINUOUS
10
4.70044
20
-4.9158
11
4.69616
21
-4.91908
0
LINE
8
BLACK
6
CONTINUOUS
10
4.69616
20
-4.91908
11
4.69118
21
-4.92115
0
LINE
8
BLACK
6
CONTINUOUS
10
4.69118
20
-4.92115
11
4.68583
21
-4.92185
0
LINE
8
BLACK
6
CONTINUOUS
10
4.68583
20
-4.92185
11
4.68048
21
-4.92115
0
LINE
8
BLACK
6
CONTINUOUS
10
4.68048
20
-4.92115
11
4.67549
21
-4.91908
0
LINE
8
BLACK
6
CONTINUOUS
10
4.67549
20
-4.91908
11
4.67121
21
-4.9158
0
LINE
8
BLACK
6
CONTINUOUS
10
4.67121
20
-4.9158
11
4.66793
21
-4.91152
0
LINE
8
BLACK
6
CONTINUOUS
10
4.66793
20
-4.91152
11
4.66586
21
-4.90653
0
LINE
8
BLACK
6
CONTINUOUS
10
4.66586
20
-4.90653
11
4.66516
21
-4.90118
0
LINE
8
BLACK
6
CONTINUOUS
10
4.66516
20
-4.90118
11
4.66586
21
-4.89583
0
LINE
8
BLACK
6
CONTINUOUS
10
4.66586
20
-4.89583
11
4.66793
21
-4.89085
0
LINE
8
BLACK
6
CONTINUOUS
10
4.66793
20
-4.89085
11
4.67121
21
-4.88657
0
LINE
8
BLACK
6
CONTINUOUS
10
4.67121
20
-4.88657
11
4.67549
21
-4.88328
0
LINE
8
BLACK
6
CONTINUOUS
10
4.67549
20
-4.88328
11
4.68048
21
-4.88122
0
LINE
8
BLACK
6
CONTINUOUS
10
4.68048
20
-4.88122
11
4.68583
21
-4.88051
0
LINE
8
BLACK
6
CONTINUOUS
10
4.68583
20
-4.88051
11
4.69118
21
-4.88122
0
LINE
8
BLACK
6
CONTINUOUS
10
4.35544
20
-4.72922
11
4.36182
21
-4.73082
0
LINE
8
BLACK
6
CONTINUOUS
10
4.36182
20
-4.73082
11
4.36763
21
-4.7339
0
LINE
8
BLACK
6
CONTINUOUS
10
4.36763
20
-4.7339
11
4.37254
21
-4.73828
0
LINE
8
BLACK
6
CONTINUOUS
10
4.37254
20
-4.73828
11
4.37627
21
-4.7437
0
LINE
8
BLACK
6
CONTINUOUS
10
4.37627
20
-4.7437
11
4.37859
21
-4.74985
0
LINE
8
BLACK
6
CONTINUOUS
10
4.37859
20
-4.74985
11
4.37938
21
-4.75638
0
LINE
8
BLACK
6
CONTINUOUS
10
4.37938
20
-4.75638
11
4.37938
21
-4.75695
0
LINE
8
BLACK
6
CONTINUOUS
10
4.37938
20
-4.75695
11
4.37845
21
-4.76346
0
LINE
8
BLACK
6
CONTINUOUS
10
4.37845
20
-4.76346
11
4.376
21
-4.76957
0
LINE
8
BLACK
6
CONTINUOUS
10
4.376
20
-4.76957
11
4.37216
21
-4.77491
0
LINE
8
BLACK
6
CONTINUOUS
10
4.37216
20
-4.77491
11
4.36716
21
-4.77918
0
LINE
8
BLACK
6
CONTINUOUS
10
4.36716
20
-4.77918
11
4.36128
21
-4.78213
0
LINE
8
BLACK
6
CONTINUOUS
10
4.36128
20
-4.78213
11
4.35487
21
-4.7836
0
LINE
8
BLACK
6
CONTINUOUS
10
4.35487
20
-4.7836
11
4.34829
21
-4.7835
0
LINE
8
BLACK
6
CONTINUOUS
10
4.34829
20
-4.7835
11
4.34193
21
-4.78183
0
LINE
8
BLACK
6
CONTINUOUS
10
4.34193
20
-4.78183
11
4.33615
21
-4.77869
0
LINE
8
BLACK
6
CONTINUOUS
10
4.33615
20
-4.77869
11
4.33129
21
-4.77426
0
LINE
8
BLACK
6
CONTINUOUS
10
4.33129
20
-4.77426
11
4.32762
21
-4.76881
0
LINE
8
BLACK
6
CONTINUOUS
10
4.32762
20
-4.76881
11
4.32536
21
-4.76263
0
LINE
8
BLACK
6
CONTINUOUS
10
4.32536
20
-4.76263
11
4.32464
21
-4.75609
0
LINE
8
BLACK
6
CONTINUOUS
10
4.32464
20
-4.75609
11
4.32549
21
-4.74957
0
LINE
8
BLACK
6
CONTINUOUS
10
4.32549
20
-4.74957
11
4.32788
21
-4.74344
0
LINE
8
BLACK
6
CONTINUOUS
10
4.32788
20
-4.74344
11
4.33167
21
-4.73806
0
LINE
8
BLACK
6
CONTINUOUS
10
4.33167
20
-4.73806
11
4.33662
21
-4.73374
0
LINE
8
BLACK
6
CONTINUOUS
10
4.33662
20
-4.73374
11
4.34247
21
-4.73072
0
LINE
8
BLACK
6
CONTINUOUS
10
4.34247
20
-4.73072
11
4.34886
21
-4.72919
0
LINE
8
BLACK
6
CONTINUOUS
10
4.34886
20
-4.72919
11
4.35544
21
-4.72922
0
LINE
8
BLACK
6
CONTINUOUS
10
3.71036
20
-4.64605
11
3.71884
21
-4.64773
0
LINE
8
BLACK
6
CONTINUOUS
10
3.71884
20
-4.64773
11
3.72687
21
-4.65094
0
LINE
8
BLACK
6
CONTINUOUS
10
3.72687
20
-4.65094
11
3.73418
21
-4.65555
0
LINE
8
BLACK
6
CONTINUOUS
10
3.73418
20
-4.65555
11
3.74053
21
-4.66142
0
LINE
8
BLACK
6
CONTINUOUS
10
3.74053
20
-4.66142
11
3.7457
21
-4.66835
0
LINE
8
BLACK
6
CONTINUOUS
10
3.7457
20
-4.66835
11
3.74953
21
-4.6761
0
LINE
8
BLACK
6
CONTINUOUS
10
3.74953
20
-4.6761
11
3.75187
21
-4.68442
0
LINE
8
BLACK
6
CONTINUOUS
10
3.75187
20
-4.68442
11
3.75266
21
-4.69303
0
LINE
8
BLACK
6
CONTINUOUS
10
3.75266
20
-4.69303
11
3.7526
21
-4.69551
0
LINE
8
BLACK
6
CONTINUOUS
10
3.7526
20
-4.69551
11
3.75136
21
-4.70406
0
LINE
8
BLACK
6
CONTINUOUS
10
3.75136
20
-4.70406
11
3.74858
21
-4.71225
0
LINE
8
BLACK
6
CONTINUOUS
10
3.74858
20
-4.71225
11
3.74436
21
-4.71979
0
LINE
8
BLACK
6
CONTINUOUS
10
3.74436
20
-4.71979
11
3.73883
21
-4.72644
0
LINE
8
BLACK
6
CONTINUOUS
10
3.73883
20
-4.72644
11
3.73218
21
-4.73197
0
LINE
8
BLACK
6
CONTINUOUS
10
3.73218
20
-4.73197
11
3.72464
21
-4.73619
0
LINE
8
BLACK
6
CONTINUOUS
10
3.72464
20
-4.73619
11
3.71645
21
-4.73897
0
LINE
8
BLACK
6
CONTINUOUS
10
3.71645
20
-4.73897
11
3.70789
21
-4.74021
0
LINE
8
BLACK
6
CONTINUOUS
10
3.70789
20
-4.74021
11
3.69925
21
-4.73987
0
LINE
8
BLACK
6
CONTINUOUS
10
3.69925
20
-4.73987
11
3.69082
21
-4.73796
0
LINE
8
BLACK
6
CONTINUOUS
10
3.69082
20
-4.73796
11
3.68288
21
-4.73455
0
LINE
8
BLACK
6
CONTINUOUS
10
3.68288
20
-4.73455
11
3.67569
21
-4.72975
0
LINE
8
BLACK
6
CONTINUOUS
10
3.67569
20
-4.72975
11
3.6695
21
-4.72372
0
LINE
8
BLACK
6
CONTINUOUS
10
3.6695
20
-4.72372
11
3.66451
21
-4.71665
0
LINE
8
BLACK
6
CONTINUOUS
10
3.66451
20
-4.71665
11
3.66089
21
-4.7088
0
LINE
8
BLACK
6
CONTINUOUS
10
3.66089
20
-4.7088
11
3.65876
21
-4.70042
0
LINE
8
BLACK
6
CONTINUOUS
10
3.65876
20
-4.70042
11
3.65819
21
-4.6918
0
LINE
8
BLACK
6
CONTINUOUS
10
3.65819
20
-4.6918
11
3.65921
21
-4.68321
0
LINE
8
BLACK
6
CONTINUOUS
10
3.65921
20
-4.68321
11
3.66177
21
-4.67495
0
LINE
8
BLACK
6
CONTINUOUS
10
3.66177
20
-4.67495
11
3.6658
21
-4.6673
0
LINE
8
BLACK
6
CONTINUOUS
10
3.6658
20
-4.6673
11
3.67115
21
-4.66051
0
LINE
8
BLACK
6
CONTINUOUS
10
3.67115
20
-4.66051
11
3.67765
21
-4.65481
0
LINE
8
BLACK
6
CONTINUOUS
10
3.67765
20
-4.65481
11
3.68508
21
-4.65039
0
LINE
8
BLACK
6
CONTINUOUS
10
3.68508
20
-4.65039
11
3.69319
21
-4.6474
0
LINE
8
BLACK
6
CONTINUOUS
10
3.69319
20
-4.6474
11
3.70171
21
-4.64593
0
LINE
8
BLACK
6
CONTINUOUS
10
3.70171
20
-4.64593
11
3.71036
21
-4.64605
0
LINE
8
BLACK
6
CONTINUOUS
10
4.69118
20
-4.65366
11
4.69616
21
-4.65572
0
LINE
8
BLACK
6
CONTINUOUS
10
4.69616
20
-4.65572
11
4.70044
21
-4.65901
0
LINE
8
BLACK
6
CONTINUOUS
10
4.70044
20
-4.65901
11
4.70373
21
-4.66329
0
LINE
8
BLACK
6
CONTINUOUS
10
4.70373
20
-4.66329
11
4.70579
21
-4.66827
0
LINE
8
BLACK
6
CONTINUOUS
10
4.70579
20
-4.66827
11
4.7065
21
-4.67362
0
LINE
8
BLACK
6
CONTINUOUS
10
4.7065
20
-4.67362
11
4.70579
21
-4.67897
0
LINE
8
BLACK
6
CONTINUOUS
10
4.70579
20
-4.67897
11
4.70373
21
-4.68396
0
LINE
8
BLACK
6
CONTINUOUS
10
4.70373
20
-4.68396
11
4.70044
21
-4.68824
0
LINE
8
BLACK
6
CONTINUOUS
10
4.70044
20
-4.68824
11
4.69616
21
-4.69152
0
LINE
8
BLACK
6
CONTINUOUS
10
4.69616
20
-4.69152
11
4.69118
21
-4.69359
0
LINE
8
BLACK
6
CONTINUOUS
10
4.69118
20
-4.69359
11
4.68583
21
-4.69429
0
LINE
8
BLACK
6
CONTINUOUS
10
4.68583
20
-4.69429
11
4.68048
21
-4.69359
0
LINE
8
BLACK
6
CONTINUOUS
10
4.68048
20
-4.69359
11
4.67549
21
-4.69152
0
LINE
8
BLACK
6
CONTINUOUS
10
4.67549
20
-4.69152
11
4.67121
21
-4.68824
0
LINE
8
BLACK
6
CONTINUOUS
10
4.67121
20
-4.68824
11
4.66793
21
-4.68396
0
LINE
8
BLACK
6
CONTINUOUS
10
4.66793
20
-4.68396
11
4.66586
21
-4.67897
0
LINE
8
BLACK
6
CONTINUOUS
10
4.66586
20
-4.67897
11
4.66516
21
-4.67362
0
LINE
8
BLACK
6
CONTINUOUS
10
4.66516
20
-4.67362
11
4.66586
21
-4.66827
0
LINE
8
BLACK
6
CONTINUOUS
10
4.66586
20
-4.66827
11
4.66793
21
-4.66329
0
LINE
8
BLACK
6
CONTINUOUS
10
4.66793
20
-4.66329
11
4.67121
21
-4.65901
0
LINE
8
BLACK
6
CONTINUOUS
10
4.67121
20
-4.65901
11
4.67549
21
-4.65572
0
LINE
8
BLACK
6
CONTINUOUS
10
4.67549
20
-4.65572
11
4.68048
21
-4.65366
0
LINE
8
BLACK
6
CONTINUOUS
10
4.68048
20
-4.65366
11
4.68583
21
-4.65295
0
LINE
8
BLACK
6
CONTINUOUS
10
4.68583
20
-4.65295
11
4.69118
21
-4.65366
0
LINE
8
BLACK
6
CONTINUOUS
10
4.69034
20
-4.589
11
4.69676
21
-4.59057
0
LINE
8
BLACK
6
CONTINUOUS
10
4.69676
20
-4.59057
11
4.70265
21
-4.59358
0
LINE
8
BLACK
6
CONTINUOUS
10
4.70265
20
-4.59358
11
4.70769
21
-4.59786
0
LINE
8
BLACK
6
CONTINUOUS
10
4.70769
20
-4.59786
11
4.7116
21
-4.60318
0
LINE
8
BLACK
6
CONTINUOUS
10
4.7116
20
-4.60318
11
4.71419
21
-4.60926
0
LINE
8
BLACK
6
CONTINUOUS
10
4.71419
20
-4.60926
11
4.71531
21
-4.61578
0
LINE
8
BLACK
6
CONTINUOUS
10
4.71531
20
-4.61578
11
4.7149
21
-4.62238
0
LINE
8
BLACK
6
CONTINUOUS
10
4.7149
20
-4.62238
11
4.71299
21
-4.6287
0
LINE
8
BLACK
6
CONTINUOUS
10
4.71299
20
-4.6287
11
4.70967
21
-4.63442
0
LINE
8
BLACK
6
CONTINUOUS
10
4.70967
20
-4.63442
11
4.70512
21
-4.63922
0
LINE
8
BLACK
6
CONTINUOUS
10
4.70512
20
-4.63922
11
4.69959
21
-4.64284
0
LINE
8
BLACK
6
CONTINUOUS
10
4.69959
20
-4.64284
11
4.69338
21
-4.6451
0
LINE
8
BLACK
6
CONTINUOUS
10
4.69338
20
-4.6451
11
4.68681
21
-4.64587
0
LINE
8
BLACK
6
CONTINUOUS
10
4.68681
20
-4.64587
11
4.64547
21
-4.64587
0
LINE
8
BLACK
6
CONTINUOUS
10
4.64547
20
-4.64587
11
4.64194
21
-4.64565
0
LINE
8
BLACK
6
CONTINUOUS
10
4.64194
20
-4.64565
11
4.63552
21
-4.64408
0
LINE
8
BLACK
6
CONTINUOUS
10
4.63552
20
-4.64408
11
4.62964
21
-4.64107
0
LINE
8
BLACK
6
CONTINUOUS
10
4.62964
20
-4.64107
11
4.6246
21
-4.63679
0
LINE
8
BLACK
6
CONTINUOUS
10
4.6246
20
-4.63679
11
4.62068
21
-4.63146
0
LINE
8
BLACK
6
CONTINUOUS
10
4.62068
20
-4.63146
11
4.61809
21
-4.62538
0
LINE
8
BLACK
6
CONTINUOUS
10
4.61809
20
-4.62538
11
4.61697
21
-4.61887
0
LINE
8
BLACK
6
CONTINUOUS
10
4.61697
20
-4.61887
11
4.61738
21
-4.61227
0
LINE
8
BLACK
6
CONTINUOUS
10
4.61738
20
-4.61227
11
4.6193
21
-4.60594
0
LINE
8
BLACK
6
CONTINUOUS
10
4.6193
20
-4.60594
11
4.62262
21
-4.60022
0
LINE
8
BLACK
6
CONTINUOUS
10
4.62262
20
-4.60022
11
4.62716
21
-4.59543
0
LINE
8
BLACK
6
CONTINUOUS
10
4.62716
20
-4.59543
11
4.63269
21
-4.5918
0
LINE
8
BLACK
6
CONTINUOUS
10
4.63269
20
-4.5918
11
4.63891
21
-4.58955
0
LINE
8
BLACK
6
CONTINUOUS
10
4.63891
20
-4.58955
11
4.64547
21
-4.58878
0
LINE
8
BLACK
6
CONTINUOUS
10
4.64547
20
-4.58878
11
4.68681
21
-4.58878
0
LINE
8
BLACK
6
CONTINUOUS
10
4.68681
20
-4.58878
11
4.69034
21
-4.589
0
LINE
8
BLACK
6
CONTINUOUS
10
4.85068
20
-4.58977
11
4.85725
21
-4.59063
0
LINE
8
BLACK
6
CONTINUOUS
10
4.85725
20
-4.59063
11
4.86342
21
-4.59303
0
LINE
8
BLACK
6
CONTINUOUS
10
4.86342
20
-4.59303
11
4.86883
21
-4.59684
0
LINE
8
BLACK
6
CONTINUOUS
10
4.86883
20
-4.59684
11
4.87319
21
-4.60183
0
LINE
8
BLACK
6
CONTINUOUS
10
4.87319
20
-4.60183
11
4.87622
21
-4.60772
0
LINE
8
BLACK
6
CONTINUOUS
10
4.87622
20
-4.60772
11
4.87777
21
-4.61416
0
LINE
8
BLACK
6
CONTINUOUS
10
4.87777
20
-4.61416
11
4.87774
21
-4.62078
0
LINE
8
BLACK
6
CONTINUOUS
10
4.87774
20
-4.62078
11
4.87612
21
-4.6272
0
LINE
8
BLACK
6
CONTINUOUS
10
4.87612
20
-4.6272
11
4.87302
21
-4.63305
0
LINE
8
BLACK
6
CONTINUOUS
10
4.87302
20
-4.63305
11
4.86862
21
-4.638
0
LINE
8
BLACK
6
CONTINUOUS
10
4.86862
20
-4.638
11
4.86316
21
-4.64175
0
LINE
8
BLACK
6
CONTINUOUS
10
4.86316
20
-4.64175
11
4.85697
21
-4.64409
0
LINE
8
BLACK
6
CONTINUOUS
10
4.85697
20
-4.64409
11
4.85039
21
-4.64488
0
LINE
8
BLACK
6
CONTINUOUS
10
4.85039
20
-4.64488
11
4.81102
21
-4.64488
0
LINE
8
BLACK
6
CONTINUOUS
10
4.81102
20
-4.64488
11
4.81074
21
-4.64488
0
LINE
8
BLACK
6
CONTINUOUS
10
4.81074
20
-4.64488
11
4.80417
21
-4.64402
0
LINE
8
BLACK
6
CONTINUOUS
10
4.80417
20
-4.64402
11
4.798
21
-4.64161
0
LINE
8
BLACK
6
CONTINUOUS
10
4.798
20
-4.64161
11
4.79258
21
-4.6378
0
LINE
8
BLACK
6
CONTINUOUS
10
4.79258
20
-4.6378
11
4.78823
21
-4.63281
0
LINE
8
BLACK
6
CONTINUOUS
10
4.78823
20
-4.63281
11
4.78519
21
-4.62693
0
LINE
8
BLACK
6
CONTINUOUS
10
4.78519
20
-4.62693
11
4.78365
21
-4.62049
0
LINE
8
BLACK
6
CONTINUOUS
10
4.78365
20
-4.62049
11
4.78368
21
-4.61387
0
LINE
8
BLACK
6
CONTINUOUS
10
4.78368
20
-4.61387
11
4.7853
21
-4.60745
0
LINE
8
BLACK
6
CONTINUOUS
10
4.7853
20
-4.60745
11
4.78839
21
-4.60159
0
LINE
8
BLACK
6
CONTINUOUS
10
4.78839
20
-4.60159
11
4.7928
21
-4.59665
0
LINE
8
BLACK
6
CONTINUOUS
10
4.7928
20
-4.59665
11
4.79826
21
-4.5929
0
LINE
8
BLACK
6
CONTINUOUS
10
4.79826
20
-4.5929
11
4.80445
21
-4.59056
0
LINE
8
BLACK
6
CONTINUOUS
10
4.80445
20
-4.59056
11
4.81102
21
-4.58976
0
LINE
8
BLACK
6
CONTINUOUS
10
4.81102
20
-4.58976
11
4.85039
21
-4.58976
0
LINE
8
BLACK
6
CONTINUOUS
10
4.85039
20
-4.58976
11
4.85068
21
-4.58977
0
LINE
8
BLACK
6
CONTINUOUS
10
4.44682
20
-4.19902
11
4.45422
21
-4.20057
0
LINE
8
BLACK
6
CONTINUOUS
10
4.45422
20
-4.20057
11
4.46116
21
-4.20357
0
LINE
8
BLACK
6
CONTINUOUS
10
4.46116
20
-4.20357
11
4.46735
21
-4.20791
0
LINE
8
BLACK
6
CONTINUOUS
10
4.46735
20
-4.20791
11
4.47255
21
-4.2134
0
LINE
8
BLACK
6
CONTINUOUS
10
4.47255
20
-4.2134
11
4.47653
21
-4.21982
0
LINE
8
BLACK
6
CONTINUOUS
10
4.47653
20
-4.21982
11
4.47914
21
-4.22692
0
LINE
8
BLACK
6
CONTINUOUS
10
4.47914
20
-4.22692
11
4.48027
21
-4.23439
0
LINE
8
BLACK
6
CONTINUOUS
10
4.48027
20
-4.23439
11
4.47987
21
-4.24194
0
LINE
8
BLACK
6
CONTINUOUS
10
4.47987
20
-4.24194
11
4.47797
21
-4.24926
0
LINE
8
BLACK
6
CONTINUOUS
10
4.47797
20
-4.24926
11
4.47463
21
-4.25604
0
LINE
8
BLACK
6
CONTINUOUS
10
4.47463
20
-4.25604
11
4.47
21
-4.26201
0
LINE
8
BLACK
6
CONTINUOUS
10
4.47
20
-4.26201
11
4.46426
21
-4.26693
0
LINE
8
BLACK
6
CONTINUOUS
10
4.46426
20
-4.26693
11
4.45765
21
-4.2706
0
LINE
8
BLACK
6
CONTINUOUS
10
4.45765
20
-4.2706
11
4.45043
21
-4.27286
0
LINE
8
BLACK
6
CONTINUOUS
10
4.45043
20
-4.27286
11
4.44291
21
-4.27362
0
LINE
8
BLACK
6
CONTINUOUS
10
4.44291
20
-4.27362
11
4.41535
21
-4.27362
0
LINE
8
BLACK
6
CONTINUOUS
10
4.41535
20
-4.27362
11
4.41144
21
-4.27342
0
LINE
8
BLACK
6
CONTINUOUS
10
4.41144
20
-4.27342
11
4.40405
21
-4.27187
0
LINE
8
BLACK
6
CONTINUOUS
10
4.40405
20
-4.27187
11
4.39711
21
-4.26887
0
LINE
8
BLACK
6
CONTINUOUS
10
4.39711
20
-4.26887
11
4.39092
21
-4.26453
0
LINE
8
BLACK
6
CONTINUOUS
10
4.39092
20
-4.26453
11
4.38572
21
-4.25904
0
LINE
8
BLACK
6
CONTINUOUS
10
4.38572
20
-4.25904
11
4.38174
21
-4.25262
0
LINE
8
BLACK
6
CONTINUOUS
10
4.38174
20
-4.25262
11
4.37913
21
-4.24552
0
LINE
8
BLACK
6
CONTINUOUS
10
4.37913
20
-4.24552
11
4.378
21
-4.23805
0
LINE
8
BLACK
6
CONTINUOUS
10
4.378
20
-4.23805
11
4.37839
21
-4.2305
0
LINE
8
BLACK
6
CONTINUOUS
10
4.37839
20
-4.2305
11
4.3803
21
-4.22318
0
LINE
8
BLACK
6
CONTINUOUS
10
4.3803
20
-4.22318
11
4.38364
21
-4.2164
0
LINE
8
BLACK
6
CONTINUOUS
10
4.38364
20
-4.2164
11
4.38827
21
-4.21043
0
LINE
8
BLACK
6
CONTINUOUS
10
4.38827
20
-4.21043
11
4.39401
21
-4.20551
0
LINE
8
BLACK
6
CONTINUOUS
10
4.39401
20
-4.20551
11
4.40062
21
-4.20184
0
LINE
8
BLACK
6
CONTINUOUS
10
4.40062
20
-4.20184
11
4.40783
21
-4.19958
0
LINE
8
BLACK
6
CONTINUOUS
10
4.40783
20
-4.19958
11
4.41535
21
-4.19882
0
LINE
8
BLACK
6
CONTINUOUS
10
4.41535
20
-4.19882
11
4.44291
21
-4.19882
0
LINE
8
BLACK
6
CONTINUOUS
10
4.44291
20
-4.19882
11
4.44682
21
-4.19902
0
LINE
8
BLACK
6
CONTINUOUS
10
3.46257
20
-4.19902
11
3.46997
21
-4.20057
0
LINE
8
BLACK
6
CONTINUOUS
10
3.46997
20
-4.20057
11
3.47691
21
-4.20357
0
LINE
8
BLACK
6
CONTINUOUS
10
3.47691
20
-4.20357
11
3.4831
21
-4.20791
0
LINE
8
BLACK
6
CONTINUOUS
10
3.4831
20
-4.20791
11
3.48829
21
-4.2134
0
LINE
8
BLACK
6
CONTINUOUS
10
3.48829
20
-4.2134
11
3.49228
21
-4.21982
0
LINE
8
BLACK
6
CONTINUOUS
10
3.49228
20
-4.21982
11
3.49489
21
-4.22692
0
LINE
8
BLACK
6
CONTINUOUS
10
3.49489
20
-4.22692
11
3.49602
21
-4.23439
0
LINE
8
BLACK
6
CONTINUOUS
10
3.49602
20
-4.23439
11
3.49562
21
-4.24194
0
LINE
8
BLACK
6
CONTINUOUS
10
3.49562
20
-4.24194
11
3.49372
21
-4.24926
0
LINE
8
BLACK
6
CONTINUOUS
10
3.49372
20
-4.24926
11
3.49038
21
-4.25604
0
LINE
8
BLACK
6
CONTINUOUS
10
3.49038
20
-4.25604
11
3.48575
21
-4.26201
0
LINE
8
BLACK
6
CONTINUOUS
10
3.48575
20
-4.26201
11
3.48001
21
-4.26693
0
LINE
8
BLACK
6
CONTINUOUS
10
3.48001
20
-4.26693
11
3.4734
21
-4.2706
0
LINE
8
BLACK
6
CONTINUOUS
10
3.4734
20
-4.2706
11
3.46618
21
-4.27286
0
LINE
8
BLACK
6
CONTINUOUS
10
3.46618
20
-4.27286
11
3.45866
21
-4.27362
0
LINE
8
BLACK
6
CONTINUOUS
10
3.45866
20
-4.27362
11
3.4311
21
-4.27362
0
LINE
8
BLACK
6
CONTINUOUS
10
3.4311
20
-4.27362
11
3.42719
21
-4.27342
0
LINE
8
BLACK
6
CONTINUOUS
10
3.42719
20
-4.27342
11
3.41979
21
-4.27187
0
LINE
8
BLACK
6
CONTINUOUS
10
3.41979
20
-4.27187
11
3.41286
21
-4.26887
0
LINE
8
BLACK
6
CONTINUOUS
10
3.41286
20
-4.26887
11
3.40666
21
-4.26453
0
LINE
8
BLACK
6
CONTINUOUS
10
3.40666
20
-4.26453
11
3.40147
21
-4.25904
0
LINE
8
BLACK
6
CONTINUOUS
10
3.40147
20
-4.25904
11
3.39749
21
-4.25262
0
LINE
8
BLACK
6
CONTINUOUS
10
3.39749
20
-4.25262
11
3.39488
21
-4.24552
0
LINE
8
BLACK
6
CONTINUOUS
10
3.39488
20
-4.24552
11
3.39375
21
-4.23805
0
LINE
8
BLACK
6
CONTINUOUS
10
3.39375
20
-4.23805
11
3.39414
21
-4.2305
0
LINE
8
BLACK
6
CONTINUOUS
10
3.39414
20
-4.2305
11
3.39605
21
-4.22318
0
LINE
8
BLACK
6
CONTINUOUS
10
3.39605
20
-4.22318
11
3.39938
21
-4.2164
0
LINE
8
BLACK
6
CONTINUOUS
10
3.39938
20
-4.2164
11
3.40402
21
-4.21043
0
LINE
8
BLACK
6
CONTINUOUS
10
3.40402
20
-4.21043
11
3.40976
21
-4.20551
0
LINE
8
BLACK
6
CONTINUOUS
10
3.40976
20
-4.20551
11
3.41637
21
-4.20184
0
LINE
8
BLACK
6
CONTINUOUS
10
3.41637
20
-4.20184
11
3.42358
21
-4.19958
0
LINE
8
BLACK
6
CONTINUOUS
10
3.42358
20
-4.19958
11
3.4311
21
-4.19882
0
LINE
8
BLACK
6
CONTINUOUS
10
3.4311
20
-4.19882
11
3.45866
21
-4.19882
0
LINE
8
BLACK
6
CONTINUOUS
10
3.45866
20
-4.19882
11
3.46257
21
-4.19902
0
LINE
8
BLACK
6
CONTINUOUS
10
4.44642
20
-3.80209
11
4.46238
21
-3.80456
0
LINE
8
BLACK
6
CONTINUOUS
10
4.46238
20
-3.80456
11
4.47803
21
-3.80858
0
LINE
8
BLACK
6
CONTINUOUS
10
4.47803
20
-3.80858
11
4.49321
21
-3.8141
0
LINE
8
BLACK
6
CONTINUOUS
10
4.49321
20
-3.8141
11
4.50778
21
-3.82108
0
LINE
8
BLACK
6
CONTINUOUS
10
4.50778
20
-3.82108
11
4.5216
21
-3.82945
0
LINE
8
BLACK
6
CONTINUOUS
10
4.5216
20
-3.82945
11
4.53453
21
-3.83913
0
LINE
8
BLACK
6
CONTINUOUS
10
4.53453
20
-3.83913
11
4.54646
21
-3.85002
0
LINE
8
BLACK
6
CONTINUOUS
10
4.54646
20
-3.85002
11
4.55727
21
-3.86203
0
LINE
8
BLACK
6
CONTINUOUS
10
4.55727
20
-3.86203
11
4.56686
21
-3.87503
0
LINE
8
BLACK
6
CONTINUOUS
10
4.56686
20
-3.87503
11
4.57513
21
-3.88891
0
LINE
8
BLACK
6
CONTINUOUS
10
4.57513
20
-3.88891
11
4.58201
21
-3.90352
0
LINE
8
BLACK
6
CONTINUOUS
10
4.58201
20
-3.90352
11
4.58743
21
-3.91874
0
LINE
8
BLACK
6
CONTINUOUS
10
4.58743
20
-3.91874
11
4.59134
21
-3.93442
0
LINE
8
BLACK
6
CONTINUOUS
10
4.59134
20
-3.93442
11
4.5937
21
-3.9504
0
LINE
8
BLACK
6
CONTINUOUS
10
4.5937
20
-3.9504
11
4.59449
21
-3.96654
0
LINE
8
BLACK
6
CONTINUOUS
10
4.59449
20
-3.96654
11
4.59442
21
-3.97115
0
LINE
8
BLACK
6
CONTINUOUS
10
4.59442
20
-3.97115
11
4.59318
21
-3.98726
0
LINE
8
BLACK
6
CONTINUOUS
10
4.59318
20
-3.98726
11
4.59038
21
-4.00317
0
LINE
8
BLACK
6
CONTINUOUS
10
4.59038
20
-4.00317
11
4.58603
21
-4.01873
0
LINE
8
BLACK
6
CONTINUOUS
10
4.58603
20
-4.01873
11
4.58019
21
-4.03379
0
LINE
8
BLACK
6
CONTINUOUS
10
4.58019
20
-4.03379
11
4.57291
21
-4.04821
0
LINE
8
BLACK
6
CONTINUOUS
10
4.57291
20
-4.04821
11
4.56425
21
-4.06185
0
LINE
8
BLACK
6
CONTINUOUS
10
4.56425
20
-4.06185
11
4.55431
21
-4.07458
0
LINE
8
BLACK
6
CONTINUOUS
10
4.55431
20
-4.07458
11
4.54317
21
-4.08628
0
LINE
8
BLACK
6
CONTINUOUS
10
4.54317
20
-4.08628
11
4.53094
21
-4.09684
0
LINE
8
BLACK
6
CONTINUOUS
10
4.53094
20
-4.09684
11
4.51774
21
-4.10615
0
LINE
8
BLACK
6
CONTINUOUS
10
4.51774
20
-4.10615
11
4.50369
21
-4.11413
0
LINE
8
BLACK
6
CONTINUOUS
10
4.50369
20
-4.11413
11
4.48893
21
-4.1207
0
LINE
8
BLACK
6
CONTINUOUS
10
4.48893
20
-4.1207
11
4.4736
21
-4.1258
0
LINE
8
BLACK
6
CONTINUOUS
10
4.4736
20
-4.1258
11
4.45785
21
-4.12938
0
LINE
8
BLACK
6
CONTINUOUS
10
4.45785
20
-4.12938
11
4.44182
21
-4.1314
0
LINE
8
BLACK
6
CONTINUOUS
10
4.44182
20
-4.1314
11
4.42567
21
-4.13185
0
LINE
8
BLACK
6
CONTINUOUS
10
4.42567
20
-4.13185
11
4.40956
21
-4.13073
0
LINE
8
BLACK
6
CONTINUOUS
10
4.40956
20
-4.13073
11
4.39363
21
-4.12803
0
LINE
8
BLACK
6
CONTINUOUS
10
4.39363
20
-4.12803
11
4.37804
21
-4.1238
0
LINE
8
BLACK
6
CONTINUOUS
10
4.37804
20
-4.1238
11
4.36293
21
-4.11806
0
LINE
8
BLACK
6
CONTINUOUS
10
4.36293
20
-4.11806
11
4.34846
21
-4.11088
0
LINE
8
BLACK
6
CONTINUOUS
10
4.34846
20
-4.11088
11
4.33476
21
-4.10232
0
LINE
8
BLACK
6
CONTINUOUS
10
4.33476
20
-4.10232
11
4.32196
21
-4.09246
0
LINE
8
BLACK
6
CONTINUOUS
10
4.32196
20
-4.09246
11
4.31019
21
-4.0814
0
LINE
8
BLACK
6
CONTINUOUS
10
4.31019
20
-4.0814
11
4.29955
21
-4.06924
0
LINE
8
BLACK
6
CONTINUOUS
10
4.29955
20
-4.06924
11
4.29014
21
-4.05611
0
LINE
8
BLACK
6
CONTINUOUS
10
4.29014
20
-4.05611
11
4.28207
21
-4.04212
0
LINE
8
BLACK
6
CONTINUOUS
10
4.28207
20
-4.04212
11
4.27539
21
-4.02741
0
LINE
8
BLACK
6
CONTINUOUS
10
4.27539
20
-4.02741
11
4.27019
21
-4.01211
0
LINE
8
BLACK
6
CONTINUOUS
10
4.27019
20
-4.01211
11
4.2665
21
-3.99639
0
LINE
8
BLACK
6
CONTINUOUS
10
4.2665
20
-3.99639
11
4.26436
21
-3.98037
0
LINE
8
BLACK
6
CONTINUOUS
10
4.26436
20
-3.98037
11
4.2638
21
-3.96423
0
LINE
8
BLACK
6
CONTINUOUS
10
4.2638
20
-3.96423
11
4.26481
21
-3.9481
0
LINE
8
BLACK
6
CONTINUOUS
10
4.26481
20
-3.9481
11
4.26739
21
-3.93216
0
LINE
8
BLACK
6
CONTINUOUS
10
4.26739
20
-3.93216
11
4.27152
21
-3.91654
0
LINE
8
BLACK
6
CONTINUOUS
10
4.27152
20
-3.91654
11
4.27715
21
-3.9014
0
LINE
8
BLACK
6
CONTINUOUS
10
4.27715
20
-3.9014
11
4.28423
21
-3.88688
0
LINE
8
BLACK
6
CONTINUOUS
10
4.28423
20
-3.88688
11
4.2927
21
-3.87312
0
LINE
8
BLACK
6
CONTINUOUS
10
4.2927
20
-3.87312
11
4.30247
21
-3.86025
0
LINE
8
BLACK
6
CONTINUOUS
10
4.30247
20
-3.86025
11
4.31344
21
-3.84839
0
LINE
8
BLACK
6
CONTINUOUS
10
4.31344
20
-3.84839
11
4.32552
21
-3.83767
0
LINE
8
BLACK
6
CONTINUOUS
10
4.32552
20
-3.83767
11
4.33859
21
-3.82817
0
LINE
8
BLACK
6
CONTINUOUS
10
4.33859
20
-3.82817
11
4.35253
21
-3.82
0
LINE
8
BLACK
6
CONTINUOUS
10
4.35253
20
-3.82
11
4.36719
21
-3.81322
0
LINE
8
BLACK
6
CONTINUOUS
10
4.36719
20
-3.81322
11
4.38245
21
-3.80791
0
LINE
8
BLACK
6
CONTINUOUS
10
4.38245
20
-3.80791
11
4.39815
21
-3.80411
0
LINE
8
BLACK
6
CONTINUOUS
10
4.39815
20
-3.80411
11
4.41415
21
-3.80186
0
LINE
8
BLACK
6
CONTINUOUS
10
4.41415
20
-3.80186
11
4.43029
21
-3.80119
0
LINE
8
BLACK
6
CONTINUOUS
10
4.43029
20
-3.80119
11
4.44642
21
-3.80209
0
LINE
8
BLACK
6
CONTINUOUS
10
3.46217
20
-3.80209
11
3.47813
21
-3.80456
0
LINE
8
BLACK
6
CONTINUOUS
10
3.47813
20
-3.80456
11
3.49378
21
-3.80858
0
LINE
8
BLACK
6
CONTINUOUS
10
3.49378
20
-3.80858
11
3.50896
21
-3.8141
0
LINE
8
BLACK
6
CONTINUOUS
10
3.50896
20
-3.8141
11
3.52353
21
-3.82108
0
LINE
8
BLACK
6
CONTINUOUS
10
3.52353
20
-3.82108
11
3.53735
21
-3.82945
0
LINE
8
BLACK
6
CONTINUOUS
10
3.53735
20
-3.82945
11
3.55028
21
-3.83913
0
LINE
8
BLACK
6
CONTINUOUS
10
3.55028
20
-3.83913
11
3.56221
21
-3.85002
0
LINE
8
BLACK
6
CONTINUOUS
10
3.56221
20
-3.85002
11
3.57302
21
-3.86203
0
LINE
8
BLACK
6
CONTINUOUS
10
3.57302
20
-3.86203
11
3.58261
21
-3.87503
0
LINE
8
BLACK
6
CONTINUOUS
10
3.58261
20
-3.87503
11
3.59088
21
-3.88891
0
LINE
8
BLACK
6
CONTINUOUS
10
3.59088
20
-3.88891
11
3.59776
21
-3.90352
0
LINE
8
BLACK
6
CONTINUOUS
10
3.59776
20
-3.90352
11
3.60318
21
-3.91874
0
LINE
8
BLACK
6
CONTINUOUS
10
3.60318
20
-3.91874
11
3.60709
21
-3.93442
0
LINE
8
BLACK
6
CONTINUOUS
10
3.60709
20
-3.93442
11
3.60945
21
-3.9504
0
LINE
8
BLACK
6
CONTINUOUS
10
3.60945
20
-3.9504
11
3.61024
21
-3.96654
0
LINE
8
BLACK
6
CONTINUOUS
10
3.61024
20
-3.96654
11
3.61017
21
-3.97115
0
LINE
8
BLACK
6
CONTINUOUS
10
3.61017
20
-3.97115
11
3.60893
21
-3.98726
0
LINE
8
BLACK
6
CONTINUOUS
10
3.60893
20
-3.98726
11
3.60613
21
-4.00317
0
LINE
8
BLACK
6
CONTINUOUS
10
3.60613
20
-4.00317
11
3.60178
21
-4.01873
0
LINE
8
BLACK
6
CONTINUOUS
10
3.60178
20
-4.01873
11
3.59594
21
-4.03379
0
LINE
8
BLACK
6
CONTINUOUS
10
3.59594
20
-4.03379
11
3.58866
21
-4.04821
0
LINE
8
BLACK
6
CONTINUOUS
10
3.58866
20
-4.04821
11
3.58
21
-4.06185
0
LINE
8
BLACK
6
CONTINUOUS
10
3.58
20
-4.06185
11
3.57005
21
-4.07458
0
LINE
8
BLACK
6
CONTINUOUS
10
3.57005
20
-4.07458
11
3.55891
21
-4.08628
0
LINE
8
BLACK
6
CONTINUOUS
10
3.55891
20
-4.08628
11
3.54668
21
-4.09684
0
LINE
8
BLACK
6
CONTINUOUS
10
3.54668
20
-4.09684
11
3.53348
21
-4.10615
0
LINE
8
BLACK
6
CONTINUOUS
10
3.53348
20
-4.10615
11
3.51944
21
-4.11413
0
LINE
8
BLACK
6
CONTINUOUS
10
3.51944
20
-4.11413
11
3.50468
21
-4.1207
0
LINE
8
BLACK
6
CONTINUOUS
10
3.50468
20
-4.1207
11
3.48935
21
-4.1258
0
LINE
8
BLACK
6
CONTINUOUS
10
3.48935
20
-4.1258
11
3.4736
21
-4.12938
0
LINE
8
BLACK
6
CONTINUOUS
10
3.4736
20
-4.12938
11
3.45757
21
-4.1314
0
LINE
8
BLACK
6
CONTINUOUS
10
3.45757
20
-4.1314
11
3.44142
21
-4.13185
0
LINE
8
BLACK
6
CONTINUOUS
10
3.44142
20
-4.13185
11
3.4253
21
-4.13073
0
LINE
8
BLACK
6
CONTINUOUS
10
3.4253
20
-4.13073
11
3.40937
21
-4.12803
0
LINE
8
BLACK
6
CONTINUOUS
10
3.40937
20
-4.12803
11
3.39378
21
-4.1238
0
LINE
8
BLACK
6
CONTINUOUS
10
3.39378
20
-4.1238
11
3.37868
21
-4.11806
0
LINE
8
BLACK
6
CONTINUOUS
10
3.37868
20
-4.11806
11
3.36421
21
-4.11088
0
LINE
8
BLACK
6
CONTINUOUS
10
3.36421
20
-4.11088
11
3.35051
21
-4.10232
0
LINE
8
BLACK
6
CONTINUOUS
10
3.35051
20
-4.10232
11
3.33771
21
-4.09246
0
LINE
8
BLACK
6
CONTINUOUS
10
3.33771
20
-4.09246
11
3.32594
21
-4.0814
0
LINE
8
BLACK
6
CONTINUOUS
10
3.32594
20
-4.0814
11
3.31529
21
-4.06924
0
LINE
8
BLACK
6
CONTINUOUS
10
3.31529
20
-4.06924
11
3.30589
21
-4.05611
0
LINE
8
BLACK
6
CONTINUOUS
10
3.30589
20
-4.05611
11
3.29781
21
-4.04212
0
LINE
8
BLACK
6
CONTINUOUS
10
3.29781
20
-4.04212
11
3.29114
21
-4.02741
0
LINE
8
BLACK
6
CONTINUOUS
10
3.29114
20
-4.02741
11
3.28593
21
-4.01211
0
LINE
8
BLACK
6
CONTINUOUS
10
3.28593
20
-4.01211
11
3.28224
21
-3.99639
0
LINE
8
BLACK
6
CONTINUOUS
10
3.28224
20
-3.99639
11
3.28011
21
-3.98037
0
LINE
8
BLACK
6
CONTINUOUS
10
3.28011
20
-3.98037
11
3.27954
21
-3.96423
0
LINE
8
BLACK
6
CONTINUOUS
10
3.27954
20
-3.96423
11
3.28056
21
-3.9481
0
LINE
8
BLACK
6
CONTINUOUS
10
3.28056
20
-3.9481
11
3.28314
21
-3.93216
0
LINE
8
BLACK
6
CONTINUOUS
10
3.28314
20
-3.93216
11
3.28727
21
-3.91654
0
LINE
8
BLACK
6
CONTINUOUS
10
3.28727
20
-3.91654
11
3.2929
21
-3.9014
0
LINE
8
BLACK
6
CONTINUOUS
10
3.2929
20
-3.9014
11
3.29998
21
-3.88688
0
LINE
8
BLACK
6
CONTINUOUS
10
3.29998
20
-3.88688
11
3.30845
21
-3.87312
0
LINE
8
BLACK
6
CONTINUOUS
10
3.30845
20
-3.87312
11
3.31821
21
-3.86025
0
LINE
8
BLACK
6
CONTINUOUS
10
3.31821
20
-3.86025
11
3.32919
21
-3.84839
0
LINE
8
BLACK
6
CONTINUOUS
10
3.32919
20
-3.84839
11
3.34127
21
-3.83767
0
LINE
8
BLACK
6
CONTINUOUS
10
3.34127
20
-3.83767
11
3.35434
21
-3.82817
0
LINE
8
BLACK
6
CONTINUOUS
10
3.35434
20
-3.82817
11
3.36827
21
-3.82
0
LINE
8
BLACK
6
CONTINUOUS
10
3.36827
20
-3.82
11
3.38294
21
-3.81322
0
LINE
8
BLACK
6
CONTINUOUS
10
3.38294
20
-3.81322
11
3.3982
21
-3.80791
0
LINE
8
BLACK
6
CONTINUOUS
10
3.3982
20
-3.80791
11
3.4139
21
-3.80411
0
LINE
8
BLACK
6
CONTINUOUS
10
3.4139
20
-3.80411
11
3.4299
21
-3.80186
0
LINE
8
BLACK
6
CONTINUOUS
10
3.4299
20
-3.80186
11
3.44604
21
-3.80119
0
LINE
8
BLACK
6
CONTINUOUS
10
3.44604
20
-3.80119
11
3.46217
21
-3.80209
0
LINE
8
BLACK
6
CONTINUOUS
10
3.94391
20
-3.91955
11
3.95239
21
-3.92124
0
LINE
8
BLACK
6
CONTINUOUS
10
3.95239
20
-3.92124
11
3.96042
21
-3.92444
0
LINE
8
BLACK
6
CONTINUOUS
10
3.96042
20
-3.92444
11
3.96774
21
-3.92905
0
LINE
8
BLACK
6
CONTINUOUS
10
3.96774
20
-3.92905
11
3.97409
21
-3.93492
0
LINE
8
BLACK
6
CONTINUOUS
10
3.97409
20
-3.93492
11
3.97926
21
-3.94185
0
LINE
8
BLACK
6
CONTINUOUS
10
3.97926
20
-3.94185
11
3.98308
21
-3.9496
0
LINE
8
BLACK
6
CONTINUOUS
10
3.98308
20
-3.9496
11
3.98543
21
-3.95793
0
LINE
8
BLACK
6
CONTINUOUS
10
3.98543
20
-3.95793
11
3.98622
21
-3.96654
0
LINE
8
BLACK
6
CONTINUOUS
10
3.98622
20
-3.96654
11
3.98616
21
-3.96901
0
LINE
8
BLACK
6
CONTINUOUS
10
3.98616
20
-3.96901
11
3.98492
21
-3.97756
0
LINE
8
BLACK
6
CONTINUOUS
10
3.98492
20
-3.97756
11
3.98214
21
-3.98575
0
LINE
8
BLACK
6
CONTINUOUS
10
3.98214
20
-3.98575
11
3.97791
21
-3.99329
0
LINE
8
BLACK
6
CONTINUOUS
10
3.97791
20
-3.99329
11
3.97238
21
-3.99994
0
LINE
8
BLACK
6
CONTINUOUS
10
3.97238
20
-3.99994
11
3.96574
21
-4.00547
0
LINE
8
BLACK
6
CONTINUOUS
10
3.96574
20
-4.00547
11
3.95819
21
-4.0097
0
LINE
8
BLACK
6
CONTINUOUS
10
3.95819
20
-4.0097
11
3.95001
21
-4.01247
0
LINE
8
BLACK
6
CONTINUOUS
10
3.95001
20
-4.01247
11
3.94145
21
-4.01371
0
LINE
8
BLACK
6
CONTINUOUS
10
3.94145
20
-4.01371
11
3.93281
21
-4.01338
0
LINE
8
BLACK
6
CONTINUOUS
10
3.93281
20
-4.01338
11
3.92438
21
-4.01147
0
LINE
8
BLACK
6
CONTINUOUS
10
3.92438
20
-4.01147
11
3.91643
21
-4.00805
0
LINE
8
BLACK
6
CONTINUOUS
10
3.91643
20
-4.00805
11
3.90924
21
-4.00325
0
LINE
8
BLACK
6
CONTINUOUS
10
3.90924
20
-4.00325
11
3.90305
21
-3.99722
0
LINE
8
BLACK
6
CONTINUOUS
10
3.90305
20
-3.99722
11
3.89806
21
-3.99016
0
LINE
8
BLACK
6
CONTINUOUS
10
3.89806
20
-3.99016
11
3.89444
21
-3.98231
0
LINE
8
BLACK
6
CONTINUOUS
10
3.89444
20
-3.98231
11
3.89231
21
-3.97393
0
LINE
8
BLACK
6
CONTINUOUS
10
3.89231
20
-3.97393
11
3.89175
21
-3.9653
0
LINE
8
BLACK
6
CONTINUOUS
10
3.89175
20
-3.9653
11
3.89276
21
-3.95671
0
LINE
8
BLACK
6
CONTINUOUS
10
3.89276
20
-3.95671
11
3.89533
21
-3.94846
0
LINE
8
BLACK
6
CONTINUOUS
10
3.89533
20
-3.94846
11
3.89935
21
-3.9408
0
LINE
8
BLACK
6
CONTINUOUS
10
3.89935
20
-3.9408
11
3.90471
21
-3.93401
0
LINE
8
BLACK
6
CONTINUOUS
10
3.90471
20
-3.93401
11
3.91121
21
-3.92831
0
LINE
8
BLACK
6
CONTINUOUS
10
3.91121
20
-3.92831
11
3.91864
21
-3.92389
0
LINE
8
BLACK
6
CONTINUOUS
10
3.91864
20
-3.92389
11
3.92675
21
-3.9209
0
LINE
8
BLACK
6
CONTINUOUS
10
3.92675
20
-3.9209
11
3.93527
21
-3.91944
0
LINE
8
BLACK
6
CONTINUOUS
10
3.93527
20
-3.91944
11
3.94391
21
-3.91955
0
LINE
8
BLACK
6
CONTINUOUS
10
4.44682
20
-3.65965
11
4.45422
21
-3.6612
0
LINE
8
BLACK
6
CONTINUOUS
10
4.45422
20
-3.6612
11
4.46116
21
-3.6642
0
LINE
8
BLACK
6
CONTINUOUS
10
4.46116
20
-3.6642
11
4.46735
21
-3.66854
0
LINE
8
BLACK
6
CONTINUOUS
10
4.46735
20
-3.66854
11
4.47255
21
-3.67403
0
LINE
8
BLACK
6
CONTINUOUS
10
4.47255
20
-3.67403
11
4.47653
21
-3.68045
0
LINE
8
BLACK
6
CONTINUOUS
10
4.47653
20
-3.68045
11
4.47914
21
-3.68755
0
LINE
8
BLACK
6
CONTINUOUS
10
4.47914
20
-3.68755
11
4.48027
21
-3.69502
0
LINE
8
BLACK
6
CONTINUOUS
10
4.48027
20
-3.69502
11
4.47987
21
-3.70257
0
LINE
8
BLACK
6
CONTINUOUS
10
4.47987
20
-3.70257
11
4.47797
21
-3.70989
0
LINE
8
BLACK
6
CONTINUOUS
10
4.47797
20
-3.70989
11
4.47463
21
-3.71667
0
LINE
8
BLACK
6
CONTINUOUS
10
4.47463
20
-3.71667
11
4.47
21
-3.72264
0
LINE
8
BLACK
6
CONTINUOUS
10
4.47
20
-3.72264
11
4.46426
21
-3.72756
0
LINE
8
BLACK
6
CONTINUOUS
10
4.46426
20
-3.72756
11
4.45765
21
-3.73123
0
LINE
8
BLACK
6
CONTINUOUS
10
4.45765
20
-3.73123
11
4.45043
21
-3.73349
0
LINE
8
BLACK
6
CONTINUOUS
10
4.45043
20
-3.73349
11
4.44291
21
-3.73425
0
LINE
8
BLACK
6
CONTINUOUS
10
4.44291
20
-3.73425
11
4.41535
21
-3.73425
0
LINE
8
BLACK
6
CONTINUOUS
10
4.41535
20
-3.73425
11
4.41144
21
-3.73405
0
LINE
8
BLACK
6
CONTINUOUS
10
4.41144
20
-3.73405
11
4.40405
21
-3.7325
0
LINE
8
BLACK
6
CONTINUOUS
10
4.40405
20
-3.7325
11
4.39711
21
-3.7295
0
LINE
8
BLACK
6
CONTINUOUS
10
4.39711
20
-3.7295
11
4.39092
21
-3.72516
0
LINE
8
BLACK
6
CONTINUOUS
10
4.39092
20
-3.72516
11
4.38572
21
-3.71967
0
LINE
8
BLACK
6
CONTINUOUS
10
4.38572
20
-3.71967
11
4.38174
21
-3.71325
0
LINE
8
BLACK
6
CONTINUOUS
10
4.38174
20
-3.71325
11
4.37913
21
-3.70615
0
LINE
8
BLACK
6
CONTINUOUS
10
4.37913
20
-3.70615
11
4.378
21
-3.69868
0
LINE
8
BLACK
6
CONTINUOUS
10
4.378
20
-3.69868
11
4.37839
21
-3.69113
0
LINE
8
BLACK
6
CONTINUOUS
10
4.37839
20
-3.69113
11
4.3803
21
-3.68381
0
LINE
8
BLACK
6
CONTINUOUS
10
4.3803
20
-3.68381
11
4.38364
21
-3.67703
0
LINE
8
BLACK
6
CONTINUOUS
10
4.38364
20
-3.67703
11
4.38827
21
-3.67106
0
LINE
8
BLACK
6
CONTINUOUS
10
4.38827
20
-3.67106
11
4.39401
21
-3.66614
0
LINE
8
BLACK
6
CONTINUOUS
10
4.39401
20
-3.66614
11
4.40062
21
-3.66247
0
LINE
8
BLACK
6
CONTINUOUS
10
4.40062
20
-3.66247
11
4.40783
21
-3.66021
0
LINE
8
BLACK
6
CONTINUOUS
10
4.40783
20
-3.66021
11
4.41535
21
-3.65945
0
LINE
8
BLACK
6
CONTINUOUS
10
4.41535
20
-3.65945
11
4.44291
21
-3.65945
0
LINE
8
BLACK
6
CONTINUOUS
10
4.44291
20
-3.65945
11
4.44682
21
-3.65965
0
LINE
8
BLACK
6
CONTINUOUS
10
3.46257
20
-3.65965
11
3.46997
21
-3.6612
0
LINE
8
BLACK
6
CONTINUOUS
10
3.46997
20
-3.6612
11
3.47691
21
-3.6642
0
LINE
8
BLACK
6
CONTINUOUS
10
3.47691
20
-3.6642
11
3.4831
21
-3.66854
0
LINE
8
BLACK
6
CONTINUOUS
10
3.4831
20
-3.66854
11
3.48829
21
-3.67403
0
LINE
8
BLACK
6
CONTINUOUS
10
3.48829
20
-3.67403
11
3.49228
21
-3.68045
0
LINE
8
BLACK
6
CONTINUOUS
10
3.49228
20
-3.68045
11
3.49489
21
-3.68755
0
LINE
8
BLACK
6
CONTINUOUS
10
3.49489
20
-3.68755
11
3.49602
21
-3.69502
0
LINE
8
BLACK
6
CONTINUOUS
10
3.49602
20
-3.69502
11
3.49562
21
-3.70257
0
LINE
8
BLACK
6
CONTINUOUS
10
3.49562
20
-3.70257
11
3.49372
21
-3.70989
0
LINE
8
BLACK
6
CONTINUOUS
10
3.49372
20
-3.70989
11
3.49038
21
-3.71667
0
LINE
8
BLACK
6
CONTINUOUS
10
3.49038
20
-3.71667
11
3.48575
21
-3.72264
0
LINE
8
BLACK
6
CONTINUOUS
10
3.48575
20
-3.72264
11
3.48001
21
-3.72756
0
LINE
8
BLACK
6
CONTINUOUS
10
3.48001
20
-3.72756
11
3.4734
21
-3.73123
0
LINE
8
BLACK
6
CONTINUOUS
10
3.4734
20
-3.73123
11
3.46618
21
-3.73349
0
LINE
8
BLACK
6
CONTINUOUS
10
3.46618
20
-3.73349
11
3.45866
21
-3.73425
0
LINE
8
BLACK
6
CONTINUOUS
10
3.45866
20
-3.73425
11
3.4311
21
-3.73425
0
LINE
8
BLACK
6
CONTINUOUS
10
3.4311
20
-3.73425
11
3.42719
21
-3.73405
0
LINE
8
BLACK
6
CONTINUOUS
10
3.42719
20
-3.73405
11
3.41979
21
-3.7325
0
LINE
8
BLACK
6
CONTINUOUS
10
3.41979
20
-3.7325
11
3.41286
21
-3.7295
0
LINE
8
BLACK
6
CONTINUOUS
10
3.41286
20
-3.7295
11
3.40666
21
-3.72516
0
LINE
8
BLACK
6
CONTINUOUS
10
3.40666
20
-3.72516
11
3.40147
21
-3.71967
0
LINE
8
BLACK
6
CONTINUOUS
10
3.40147
20
-3.71967
11
3.39749
21
-3.71325
0
LINE
8
BLACK
6
CONTINUOUS
10
3.39749
20
-3.71325
11
3.39488
21
-3.70615
0
LINE
8
BLACK
6
CONTINUOUS
10
3.39488
20
-3.70615
11
3.39375
21
-3.69868
0
LINE
8
BLACK
6
CONTINUOUS
10
3.39375
20
-3.69868
11
3.39414
21
-3.69113
0
LINE
8
BLACK
6
CONTINUOUS
10
3.39414
20
-3.69113
11
3.39605
21
-3.68381
0
LINE
8
BLACK
6
CONTINUOUS
10
3.39605
20
-3.68381
11
3.39938
21
-3.67703
0
LINE
8
BLACK
6
CONTINUOUS
10
3.39938
20
-3.67703
11
3.40402
21
-3.67106
0
LINE
8
BLACK
6
CONTINUOUS
10
3.40402
20
-3.67106
11
3.40976
21
-3.66614
0
LINE
8
BLACK
6
CONTINUOUS
10
3.40976
20
-3.66614
11
3.41637
21
-3.66247
0
LINE
8
BLACK
6
CONTINUOUS
10
3.41637
20
-3.66247
11
3.42358
21
-3.66021
0
LINE
8
BLACK
6
CONTINUOUS
10
3.42358
20
-3.66021
11
3.4311
21
-3.65945
0
LINE
8
BLACK
6
CONTINUOUS
10
3.4311
20
-3.65945
11
3.45866
21
-3.65945
0
LINE
8
BLACK
6
CONTINUOUS
10
3.45866
20
-3.65945
11
3.46257
21
-3.65965
0
LINE
8
BLACK
6
CONTINUOUS
10
4.44682
20
-3.21477
11
4.45422
21
-3.21632
0
LINE
8
BLACK
6
CONTINUOUS
10
4.45422
20
-3.21632
11
4.46116
21
-3.21932
0
LINE
8
BLACK
6
CONTINUOUS
10
4.46116
20
-3.21932
11
4.46735
21
-3.22366
0
LINE
8
BLACK
6
CONTINUOUS
10
4.46735
20
-3.22366
11
4.47255
21
-3.22915
0
LINE
8
BLACK
6
CONTINUOUS
10
4.47255
20
-3.22915
11
4.47653
21
-3.23557
0
LINE
8
BLACK
6
CONTINUOUS
10
4.47653
20
-3.23557
11
4.47914
21
-3.24267
0
LINE
8
BLACK
6
CONTINUOUS
10
4.47914
20
-3.24267
11
4.48027
21
-3.25014
0
LINE
8
BLACK
6
CONTINUOUS
10
4.48027
20
-3.25014
11
4.47987
21
-3.25769
0
LINE
8
BLACK
6
CONTINUOUS
10
4.47987
20
-3.25769
11
4.47797
21
-3.26501
0
LINE
8
BLACK
6
CONTINUOUS
10
4.47797
20
-3.26501
11
4.47463
21
-3.27179
0
LINE
8
BLACK
6
CONTINUOUS
10
4.47463
20
-3.27179
11
4.47
21
-3.27776
0
LINE
8
BLACK
6
CONTINUOUS
10
4.47
20
-3.27776
11
4.46426
21
-3.28268
0
LINE
8
BLACK
6
CONTINUOUS
10
4.46426
20
-3.28268
11
4.45765
21
-3.28635
0
LINE
8
BLACK
6
CONTINUOUS
10
4.45765
20
-3.28635
11
4.45043
21
-3.28861
0
LINE
8
BLACK
6
CONTINUOUS
10
4.45043
20
-3.28861
11
4.44291
21
-3.28937
0
LINE
8
BLACK
6
CONTINUOUS
10
4.44291
20
-3.28937
11
4.41535
21
-3.28937
0
LINE
8
BLACK
6
CONTINUOUS
10
4.41535
20
-3.28937
11
4.41144
21
-3.28917
0
LINE
8
BLACK
6
CONTINUOUS
10
4.41144
20
-3.28917
11
4.40405
21
-3.28762
0
LINE
8
BLACK
6
CONTINUOUS
10
4.40405
20
-3.28762
11
4.39711
21
-3.28462
0
LINE
8
BLACK
6
CONTINUOUS
10
4.39711
20
-3.28462
11
4.39092
21
-3.28028
0
LINE
8
BLACK
6
CONTINUOUS
10
4.39092
20
-3.28028
11
4.38572
21
-3.27479
0
LINE
8
BLACK
6
CONTINUOUS
10
4.38572
20
-3.27479
11
4.38174
21
-3.26836
0
LINE
8
BLACK
6
CONTINUOUS
10
4.38174
20
-3.26836
11
4.37913
21
-3.26127
0
LINE
8
BLACK
6
CONTINUOUS
10
4.37913
20
-3.26127
11
4.378
21
-3.2538
0
LINE
8
BLACK
6
CONTINUOUS
10
4.378
20
-3.2538
11
4.37839
21
-3.24625
0
LINE
8
BLACK
6
CONTINUOUS
10
4.37839
20
-3.24625
11
4.3803
21
-3.23893
0
LINE
8
BLACK
6
CONTINUOUS
10
4.3803
20
-3.23893
11
4.38364
21
-3.23215
0
LINE
8
BLACK
6
CONTINUOUS
10
4.38364
20
-3.23215
11
4.38827
21
-3.22618
0
LINE
8
BLACK
6
CONTINUOUS
10
4.38827
20
-3.22618
11
4.39401
21
-3.22126
0
LINE
8
BLACK
6
CONTINUOUS
10
4.39401
20
-3.22126
11
4.40062
21
-3.21759
0
LINE
8
BLACK
6
CONTINUOUS
10
4.40062
20
-3.21759
11
4.40783
21
-3.21533
0
LINE
8
BLACK
6
CONTINUOUS
10
4.40783
20
-3.21533
11
4.41535
21
-3.21457
0
LINE
8
BLACK
6
CONTINUOUS
10
4.41535
20
-3.21457
11
4.44291
21
-3.21457
0
LINE
8
BLACK
6
CONTINUOUS
10
4.44291
20
-3.21457
11
4.44682
21
-3.21477
0
LINE
8
BLACK
6
CONTINUOUS
10
3.46257
20
-3.21477
11
3.46997
21
-3.21632
0
LINE
8
BLACK
6
CONTINUOUS
10
3.46997
20
-3.21632
11
3.47691
21
-3.21932
0
LINE
8
BLACK
6
CONTINUOUS
10
3.47691
20
-3.21932
11
3.4831
21
-3.22366
0
LINE
8
BLACK
6
CONTINUOUS
10
3.4831
20
-3.22366
11
3.48829
21
-3.22915
0
LINE
8
BLACK
6
CONTINUOUS
10
3.48829
20
-3.22915
11
3.49228
21
-3.23557
0
LINE
8
BLACK
6
CONTINUOUS
10
3.49228
20
-3.23557
11
3.49489
21
-3.24267
0
LINE
8
BLACK
6
CONTINUOUS
10
3.49489
20
-3.24267
11
3.49602
21
-3.25014
0
LINE
8
BLACK
6
CONTINUOUS
10
3.49602
20
-3.25014
11
3.49562
21
-3.25769
0
LINE
8
BLACK
6
CONTINUOUS
10
3.49562
20
-3.25769
11
3.49372
21
-3.26501
0
LINE
8
BLACK
6
CONTINUOUS
10
3.49372
20
-3.26501
11
3.49038
21
-3.27179
0
LINE
8
BLACK
6
CONTINUOUS
10
3.49038
20
-3.27179
11
3.48575
21
-3.27776
0
LINE
8
BLACK
6
CONTINUOUS
10
3.48575
20
-3.27776
11
3.48001
21
-3.28268
0
LINE
8
BLACK
6
CONTINUOUS
10
3.48001
20
-3.28268
11
3.4734
21
-3.28635
0
LINE
8
BLACK
6
CONTINUOUS
10
3.4734
20
-3.28635
11
3.46618
21
-3.28861
0
LINE
8
BLACK
6
CONTINUOUS
10
3.46618
20
-3.28861
11
3.45866
21
-3.28937
0
LINE
8
BLACK
6
CONTINUOUS
10
3.45866
20
-3.28937
11
3.4311
21
-3.28937
0
LINE
8
BLACK
6
CONTINUOUS
10
3.4311
20
-3.28937
11
3.42719
21
-3.28917
0
LINE
8
BLACK
6
CONTINUOUS
10
3.42719
20
-3.28917
11
3.41979
21
-3.28762
0
LINE
8
BLACK
6
CONTINUOUS
10
3.41979
20
-3.28762
11
3.41286
21
-3.28462
0
LINE
8
BLACK
6
CONTINUOUS
10
3.41286
20
-3.28462
11
3.40666
21
-3.28028
0
LINE
8
BLACK
6
CONTINUOUS
10
3.40666
20
-3.28028
11
3.40147
21
-3.27479
0
LINE
8
BLACK
6
CONTINUOUS
10
3.40147
20
-3.27479
11
3.39749
21
-3.26836
0
LINE
8
BLACK
6
CONTINUOUS
10
3.39749
20
-3.26836
11
3.39488
21
-3.26127
0
LINE
8
BLACK
6
CONTINUOUS
10
3.39488
20
-3.26127
11
3.39375
21
-3.2538
0
LINE
8
BLACK
6
CONTINUOUS
10
3.39375
20
-3.2538
11
3.39414
21
-3.24625
0
LINE
8
BLACK
6
CONTINUOUS
10
3.39414
20
-3.24625
11
3.39605
21
-3.23893
0
LINE
8
BLACK
6
CONTINUOUS
10
3.39605
20
-3.23893
11
3.39938
21
-3.23215
0
LINE
8
BLACK
6
CONTINUOUS
10
3.39938
20
-3.23215
11
3.40402
21
-3.22618
0
LINE
8
BLACK
6
CONTINUOUS
10
3.40402
20
-3.22618
11
3.40976
21
-3.22126
0
LINE
8
BLACK
6
CONTINUOUS
10
3.40976
20
-3.22126
11
3.41637
21
-3.21759
0
LINE
8
BLACK
6
CONTINUOUS
10
3.41637
20
-3.21759
11
3.42358
21
-3.21533
0
LINE
8
BLACK
6
CONTINUOUS
10
3.42358
20
-3.21533
11
3.4311
21
-3.21457
0
LINE
8
BLACK
6
CONTINUOUS
10
3.4311
20
-3.21457
11
3.45866
21
-3.21457
0
LINE
8
BLACK
6
CONTINUOUS
10
3.45866
20
-3.21457
11
3.46257
21
-3.21477
0
LINE
8
BLACK
6
CONTINUOUS
10
4.44642
20
-2.81783
11
4.46238
21
-2.82031
0
LINE
8
BLACK
6
CONTINUOUS
10
4.46238
20
-2.82031
11
4.47803
21
-2.82432
0
LINE
8
BLACK
6
CONTINUOUS
10
4.47803
20
-2.82432
11
4.49321
21
-2.82985
0
LINE
8
BLACK
6
CONTINUOUS
10
4.49321
20
-2.82985
11
4.50778
21
-2.83683
0
LINE
8
BLACK
6
CONTINUOUS
10
4.50778
20
-2.83683
11
4.5216
21
-2.8452
0
LINE
8
BLACK
6
CONTINUOUS
10
4.5216
20
-2.8452
11
4.53453
21
-2.85488
0
LINE
8
BLACK
6
CONTINUOUS
10
4.53453
20
-2.85488
11
4.54646
21
-2.86577
0
LINE
8
BLACK
6
CONTINUOUS
10
4.54646
20
-2.86577
11
4.55727
21
-2.87777
0
LINE
8
BLACK
6
CONTINUOUS
10
4.55727
20
-2.87777
11
4.56686
21
-2.89078
0
LINE
8
BLACK
6
CONTINUOUS
10
4.56686
20
-2.89078
11
4.57513
21
-2.90465
0
LINE
8
BLACK
6
CONTINUOUS
10
4.57513
20
-2.90465
11
4.58201
21
-2.91927
0
LINE
8
BLACK
6
CONTINUOUS
10
4.58201
20
-2.91927
11
4.58743
21
-2.93449
0
LINE
8
BLACK
6
CONTINUOUS
10
4.58743
20
-2.93449
11
4.59134
21
-2.95017
0
LINE
8
BLACK
6
CONTINUOUS
10
4.59134
20
-2.95017
11
4.5937
21
-2.96615
0
LINE
8
BLACK
6
CONTINUOUS
10
4.5937
20
-2.96615
11
4.59449
21
-2.98228
0
LINE
8
BLACK
6
CONTINUOUS
10
4.59449
20
-2.98228
11
4.59442
21
-2.9869
0
LINE
8
BLACK
6
CONTINUOUS
10
4.59442
20
-2.9869
11
4.59318
21
-3.00301
0
LINE
8
BLACK
6
CONTINUOUS
10
4.59318
20
-3.00301
11
4.59038
21
-3.01892
0
LINE
8
BLACK
6
CONTINUOUS
10
4.59038
20
-3.01892
11
4.58603
21
-3.03448
0
LINE
8
BLACK
6
CONTINUOUS
10
4.58603
20
-3.03448
11
4.58019
21
-3.04954
0
LINE
8
BLACK
6
CONTINUOUS
10
4.58019
20
-3.04954
11
4.57291
21
-3.06396
0
LINE
8
BLACK
6
CONTINUOUS
10
4.57291
20
-3.06396
11
4.56425
21
-3.0776
0
LINE
8
BLACK
6
CONTINUOUS
10
4.56425
20
-3.0776
11
4.55431
21
-3.09033
0
LINE
8
BLACK
6
CONTINUOUS
10
4.55431
20
-3.09033
11
4.54317
21
-3.10203
0
LINE
8
BLACK
6
CONTINUOUS
10
4.54317
20
-3.10203
11
4.53094
21
-3.11258
0
LINE
8
BLACK
6
CONTINUOUS
10
4.53094
20
-3.11258
11
4.51774
21
-3.1219
0
LINE
8
BLACK
6
CONTINUOUS
10
4.51774
20
-3.1219
11
4.50369
21
-3.12988
0
LINE
8
BLACK
6
CONTINUOUS
10
4.50369
20
-3.12988
11
4.48893
21
-3.13645
0
LINE
8
BLACK
6
CONTINUOUS
10
4.48893
20
-3.13645
11
4.4736
21
-3.14155
0
LINE
8
BLACK
6
CONTINUOUS
10
4.4736
20
-3.14155
11
4.45785
21
-3.14513
0
LINE
8
BLACK
6
CONTINUOUS
10
4.45785
20
-3.14513
11
4.44182
21
-3.14715
0
LINE
8
BLACK
6
CONTINUOUS
10
4.44182
20
-3.14715
11
4.42567
21
-3.1476
0
LINE
8
BLACK
6
CONTINUOUS
10
4.42567
20
-3.1476
11
4.40956
21
-3.14647
0
LINE
8
BLACK
6
CONTINUOUS
10
4.40956
20
-3.14647
11
4.39363
21
-3.14378
0
LINE
8
BLACK
6
CONTINUOUS
10
4.39363
20
-3.14378
11
4.37804
21
-3.13954
0
LINE
8
BLACK
6
CONTINUOUS
10
4.37804
20
-3.13954
11
4.36293
21
-3.13381
0
LINE
8
BLACK
6
CONTINUOUS
10
4.36293
20
-3.13381
11
4.34846
21
-3.12662
0
LINE
8
BLACK
6
CONTINUOUS
10
4.34846
20
-3.12662
11
4.33476
21
-3.11806
0
LINE
8
BLACK
6
CONTINUOUS
10
4.33476
20
-3.11806
11
4.32196
21
-3.10821
0
LINE
8
BLACK
6
CONTINUOUS
10
4.32196
20
-3.10821
11
4.31019
21
-3.09715
0
LINE
8
BLACK
6
CONTINUOUS
10
4.31019
20
-3.09715
11
4.29955
21
-3.08499
0
LINE
8
BLACK
6
CONTINUOUS
10
4.29955
20
-3.08499
11
4.29014
21
-3.07186
0
LINE
8
BLACK
6
CONTINUOUS
10
4.29014
20
-3.07186
11
4.28207
21
-3.05787
0
LINE
8
BLACK
6
CONTINUOUS
10
4.28207
20
-3.05787
11
4.27539
21
-3.04315
0
LINE
8
BLACK
6
CONTINUOUS
10
4.27539
20
-3.04315
11
4.27019
21
-3.02786
0
LINE
8
BLACK
6
CONTINUOUS
10
4.27019
20
-3.02786
11
4.2665
21
-3.01213
0
LINE
8
BLACK
6
CONTINUOUS
10
4.2665
20
-3.01213
11
4.26436
21
-2.99612
0
LINE
8
BLACK
6
CONTINUOUS
10
4.26436
20
-2.99612
11
4.2638
21
-2.97997
0
LINE
8
BLACK
6
CONTINUOUS
10
4.2638
20
-2.97997
11
4.26481
21
-2.96385
0
LINE
8
BLACK
6
CONTINUOUS
10
4.26481
20
-2.96385
11
4.26739
21
-2.9479
0
LINE
8
BLACK
6
CONTINUOUS
10
4.26739
20
-2.9479
11
4.27152
21
-2.93229
0
LINE
8
BLACK
6
CONTINUOUS
10
4.27152
20
-2.93229
11
4.27715
21
-2.91714
0
LINE
8
BLACK
6
CONTINUOUS
10
4.27715
20
-2.91714
11
4.28423
21
-2.90262
0
LINE
8
BLACK
6
CONTINUOUS
10
4.28423
20
-2.90262
11
4.2927
21
-2.88886
0
LINE
8
BLACK
6
CONTINUOUS
10
4.2927
20
-2.88886
11
4.30247
21
-2.876
0
LINE
8
BLACK
6
CONTINUOUS
10
4.30247
20
-2.876
11
4.31344
21
-2.86414
0
LINE
8
BLACK
6
CONTINUOUS
10
4.31344
20
-2.86414
11
4.32552
21
-2.85342
0
LINE
8
BLACK
6
CONTINUOUS
10
4.32552
20
-2.85342
11
4.33859
21
-2.84392
0
LINE
8
BLACK
6
CONTINUOUS
10
4.33859
20
-2.84392
11
4.35253
21
-2.83575
0
LINE
8
BLACK
6
CONTINUOUS
10
4.35253
20
-2.83575
11
4.36719
21
-2.82897
0
LINE
8
BLACK
6
CONTINUOUS
10
4.36719
20
-2.82897
11
4.38245
21
-2.82366
0
LINE
8
BLACK
6
CONTINUOUS
10
4.38245
20
-2.82366
11
4.39815
21
-2.81986
0
LINE
8
BLACK
6
CONTINUOUS
10
4.39815
20
-2.81986
11
4.41415
21
-2.81761
0
LINE
8
BLACK
6
CONTINUOUS
10
4.41415
20
-2.81761
11
4.43029
21
-2.81693
0
LINE
8
BLACK
6
CONTINUOUS
10
4.43029
20
-2.81693
11
4.44642
21
-2.81783
0
LINE
8
BLACK
6
CONTINUOUS
10
3.46217
20
-2.81783
11
3.47813
21
-2.82031
0
LINE
8
BLACK
6
CONTINUOUS
10
3.47813
20
-2.82031
11
3.49378
21
-2.82432
0
LINE
8
BLACK
6
CONTINUOUS
10
3.49378
20
-2.82432
11
3.50896
21
-2.82985
0
LINE
8
BLACK
6
CONTINUOUS
10
3.50896
20
-2.82985
11
3.52353
21
-2.83683
0
LINE
8
BLACK
6
CONTINUOUS
10
3.52353
20
-2.83683
11
3.53735
21
-2.8452
0
LINE
8
BLACK
6
CONTINUOUS
10
3.53735
20
-2.8452
11
3.55028
21
-2.85488
0
LINE
8
BLACK
6
CONTINUOUS
10
3.55028
20
-2.85488
11
3.56221
21
-2.86577
0
LINE
8
BLACK
6
CONTINUOUS
10
3.56221
20
-2.86577
11
3.57302
21
-2.87777
0
LINE
8
BLACK
6
CONTINUOUS
10
3.57302
20
-2.87777
11
3.58261
21
-2.89078
0
LINE
8
BLACK
6
CONTINUOUS
10
3.58261
20
-2.89078
11
3.59088
21
-2.90465
0
LINE
8
BLACK
6
CONTINUOUS
10
3.59088
20
-2.90465
11
3.59776
21
-2.91927
0
LINE
8
BLACK
6
CONTINUOUS
10
3.59776
20
-2.91927
11
3.60318
21
-2.93449
0
LINE
8
BLACK
6
CONTINUOUS
10
3.60318
20
-2.93449
11
3.60709
21
-2.95017
0
LINE
8
BLACK
6
CONTINUOUS
10
3.60709
20
-2.95017
11
3.60945
21
-2.96615
0
LINE
8
BLACK
6
CONTINUOUS
10
3.60945
20
-2.96615
11
3.61024
21
-2.98228
0
LINE
8
BLACK
6
CONTINUOUS
10
3.61024
20
-2.98228
11
3.61017
21
-2.9869
0
LINE
8
BLACK
6
CONTINUOUS
10
3.61017
20
-2.9869
11
3.60893
21
-3.00301
0
LINE
8
BLACK
6
CONTINUOUS
10
3.60893
20
-3.00301
11
3.60613
21
-3.01892
0
LINE
8
BLACK
6
CONTINUOUS
10
3.60613
20
-3.01892
11
3.60178
21
-3.03448
0
LINE
8
BLACK
6
CONTINUOUS
10
3.60178
20
-3.03448
11
3.59594
21
-3.04954
0
LINE
8
BLACK
6
CONTINUOUS
10
3.59594
20
-3.04954
11
3.58866
21
-3.06396
0
LINE
8
BLACK
6
CONTINUOUS
10
3.58866
20
-3.06396
11
3.58
21
-3.0776
0
LINE
8
BLACK
6
CONTINUOUS
10
3.58
20
-3.0776
11
3.57005
21
-3.09033
0
LINE
8
BLACK
6
CONTINUOUS
10
3.57005
20
-3.09033
11
3.55891
21
-3.10203
0
LINE
8
BLACK
6
CONTINUOUS
10
3.55891
20
-3.10203
11
3.54668
21
-3.11258
0
LINE
8
BLACK
6
CONTINUOUS
10
3.54668
20
-3.11258
11
3.53348
21
-3.1219
0
LINE
8
BLACK
6
CONTINUOUS
10
3.53348
20
-3.1219
11
3.51944
21
-3.12988
0
LINE
8
BLACK
6
CONTINUOUS
10
3.51944
20
-3.12988
11
3.50468
21
-3.13645
0
LINE
8
BLACK
6
CONTINUOUS
10
3.50468
20
-3.13645
11
3.48935
21
-3.14155
0
LINE
8
BLACK
6
CONTINUOUS
10
3.48935
20
-3.14155
11
3.4736
21
-3.14513
0
LINE
8
BLACK
6
CONTINUOUS
10
3.4736
20
-3.14513
11
3.45757
21
-3.14715
0
LINE
8
BLACK
6
CONTINUOUS
10
3.45757
20
-3.14715
11
3.44142
21
-3.1476
0
LINE
8
BLACK
6
CONTINUOUS
10
3.44142
20
-3.1476
11
3.4253
21
-3.14647
0
LINE
8
BLACK
6
CONTINUOUS
10
3.4253
20
-3.14647
11
3.40937
21
-3.14378
0
LINE
8
BLACK
6
CONTINUOUS
10
3.40937
20
-3.14378
11
3.39378
21
-3.13954
0
LINE
8
BLACK
6
CONTINUOUS
10
3.39378
20
-3.13954
11
3.37868
21
-3.13381
0
LINE
8
BLACK
6
CONTINUOUS
10
3.37868
20
-3.13381
11
3.36421
21
-3.12662
0
LINE
8
BLACK
6
CONTINUOUS
10
3.36421
20
-3.12662
11
3.35051
21
-3.11806
0
LINE
8
BLACK
6
CONTINUOUS
10
3.35051
20
-3.11806
11
3.33771
21
-3.10821
0
LINE
8
BLACK
6
CONTINUOUS
10
3.33771
20
-3.10821
11
3.32594
21
-3.09715
0
LINE
8
BLACK
6
CONTINUOUS
10
3.32594
20
-3.09715
11
3.31529
21
-3.08499
0
LINE
8
BLACK
6
CONTINUOUS
10
3.31529
20
-3.08499
11
3.30589
21
-3.07186
0
LINE
8
BLACK
6
CONTINUOUS
10
3.30589
20
-3.07186
11
3.29781
21
-3.05787
0
LINE
8
BLACK
6
CONTINUOUS
10
3.29781
20
-3.05787
11
3.29114
21
-3.04315
0
LINE
8
BLACK
6
CONTINUOUS
10
3.29114
20
-3.04315
11
3.28593
21
-3.02786
0
LINE
8
BLACK
6
CONTINUOUS
10
3.28593
20
-3.02786
11
3.28224
21
-3.01213
0
LINE
8
BLACK
6
CONTINUOUS
10
3.28224
20
-3.01213
11
3.28011
21
-2.99612
0
LINE
8
BLACK
6
CONTINUOUS
10
3.28011
20
-2.99612
11
3.27954
21
-2.97997
0
LINE
8
BLACK
6
CONTINUOUS
10
3.27954
20
-2.97997
11
3.28056
21
-2.96385
0
LINE
8
BLACK
6
CONTINUOUS
10
3.28056
20
-2.96385
11
3.28314
21
-2.9479
0
LINE
8
BLACK
6
CONTINUOUS
10
3.28314
20
-2.9479
11
3.28727
21
-2.93229
0
LINE
8
BLACK
6
CONTINUOUS
10
3.28727
20
-2.93229
11
3.2929
21
-2.91714
0
LINE
8
BLACK
6
CONTINUOUS
10
3.2929
20
-2.91714
11
3.29998
21
-2.90262
0
LINE
8
BLACK
6
CONTINUOUS
10
3.29998
20
-2.90262
11
3.30845
21
-2.88886
0
LINE
8
BLACK
6
CONTINUOUS
10
3.30845
20
-2.88886
11
3.31821
21
-2.876
0
LINE
8
BLACK
6
CONTINUOUS
10
3.31821
20
-2.876
11
3.32919
21
-2.86414
0
LINE
8
BLACK
6
CONTINUOUS
10
3.32919
20
-2.86414
11
3.34127
21
-2.85342
0
LINE
8
BLACK
6
CONTINUOUS
10
3.34127
20
-2.85342
11
3.35434
21
-2.84392
0
LINE
8
BLACK
6
CONTINUOUS
10
3.35434
20
-2.84392
11
3.36827
21
-2.83575
0
LINE
8
BLACK
6
CONTINUOUS
10
3.36827
20
-2.83575
11
3.38294
21
-2.82897
0
LINE
8
BLACK
6
CONTINUOUS
10
3.38294
20
-2.82897
11
3.3982
21
-2.82366
0
LINE
8
BLACK
6
CONTINUOUS
10
3.3982
20
-2.82366
11
3.4139
21
-2.81986
0
LINE
8
BLACK
6
CONTINUOUS
10
3.4139
20
-2.81986
11
3.4299
21
-2.81761
0
LINE
8
BLACK
6
CONTINUOUS
10
3.4299
20
-2.81761
11
3.44604
21
-2.81693
0
LINE
8
BLACK
6
CONTINUOUS
10
3.44604
20
-2.81693
11
3.46217
21
-2.81783
0
LINE
8
BLACK
6
CONTINUOUS
10
4.44682
20
-2.6754
11
4.45422
21
-2.67695
0
LINE
8
BLACK
6
CONTINUOUS
10
4.45422
20
-2.67695
11
4.46116
21
-2.67995
0
LINE
8
BLACK
6
CONTINUOUS
10
4.46116
20
-2.67995
11
4.46735
21
-2.68429
0
LINE
8
BLACK
6
CONTINUOUS
10
4.46735
20
-2.68429
11
4.47255
21
-2.68978
0
LINE
8
BLACK
6
CONTINUOUS
10
4.47255
20
-2.68978
11
4.47653
21
-2.6962
0
LINE
8
BLACK
6
CONTINUOUS
10
4.47653
20
-2.6962
11
4.47914
21
-2.7033
0
LINE
8
BLACK
6
CONTINUOUS
10
4.47914
20
-2.7033
11
4.48027
21
-2.71077
0
LINE
8
BLACK
6
CONTINUOUS
10
4.48027
20
-2.71077
11
4.47987
21
-2.71832
0
LINE
8
BLACK
6
CONTINUOUS
10
4.47987
20
-2.71832
11
4.47797
21
-2.72564
0
LINE
8
BLACK
6
CONTINUOUS
10
4.47797
20
-2.72564
11
4.47463
21
-2.73242
0
LINE
8
BLACK
6
CONTINUOUS
10
4.47463
20
-2.73242
11
4.47
21
-2.73839
0
LINE
8
BLACK
6
CONTINUOUS
10
4.47
20
-2.73839
11
4.46426
21
-2.74331
0
LINE
8
BLACK
6
CONTINUOUS
10
4.46426
20
-2.74331
11
4.45765
21
-2.74698
0
LINE
8
BLACK
6
CONTINUOUS
10
4.45765
20
-2.74698
11
4.45043
21
-2.74924
0
LINE
8
BLACK
6
CONTINUOUS
10
4.45043
20
-2.74924
11
4.44291
21
-2.75
0
LINE
8
BLACK
6
CONTINUOUS
10
4.44291
20
-2.75
11
4.41535
21
-2.75
0
LINE
8
BLACK
6
CONTINUOUS
10
4.41535
20
-2.75
11
4.41144
21
-2.7498
0
LINE
8
BLACK
6
CONTINUOUS
10
4.41144
20
-2.7498
11
4.40405
21
-2.74825
0
LINE
8
BLACK
6
CONTINUOUS
10
4.40405
20
-2.74825
11
4.39711
21
-2.74525
0
LINE
8
BLACK
6
CONTINUOUS
10
4.39711
20
-2.74525
11
4.39092
21
-2.74091
0
LINE
8
BLACK
6
CONTINUOUS
10
4.39092
20
-2.74091
11
4.38572
21
-2.73542
0
LINE
8
BLACK
6
CONTINUOUS
10
4.38572
20
-2.73542
11
4.38174
21
-2.72899
0
LINE
8
BLACK
6
CONTINUOUS
10
4.38174
20
-2.72899
11
4.37913
21
-2.7219
0
LINE
8
BLACK
6
CONTINUOUS
10
4.37913
20
-2.7219
11
4.378
21
-2.71443
0
LINE
8
BLACK
6
CONTINUOUS
10
4.378
20
-2.71443
11
4.37839
21
-2.70688
0
LINE
8
BLACK
6
CONTINUOUS
10
4.37839
20
-2.70688
11
4.3803
21
-2.69956
0
LINE
8
BLACK
6
CONTINUOUS
10
4.3803
20
-2.69956
11
4.38364
21
-2.69278
0
LINE
8
BLACK
6
CONTINUOUS
10
4.38364
20
-2.69278
11
4.38827
21
-2.68681
0
LINE
8
BLACK
6
CONTINUOUS
10
4.38827
20
-2.68681
11
4.39401
21
-2.68189
0
LINE
8
BLACK
6
CONTINUOUS
10
4.39401
20
-2.68189
11
4.40062
21
-2.67822
0
LINE
8
BLACK
6
CONTINUOUS
10
4.40062
20
-2.67822
11
4.40783
21
-2.67596
0
LINE
8
BLACK
6
CONTINUOUS
10
4.40783
20
-2.67596
11
4.41535
21
-2.6752
0
LINE
8
BLACK
6
CONTINUOUS
10
4.41535
20
-2.6752
11
4.44291
21
-2.6752
0
LINE
8
BLACK
6
CONTINUOUS
10
4.44291
20
-2.6752
11
4.44682
21
-2.6754
0
LINE
8
BLACK
6
CONTINUOUS
10
3.46257
20
-2.6754
11
3.46997
21
-2.67695
0
LINE
8
BLACK
6
CONTINUOUS
10
3.46997
20
-2.67695
11
3.47691
21
-2.67995
0
LINE
8
BLACK
6
CONTINUOUS
10
3.47691
20
-2.67995
11
3.4831
21
-2.68429
0
LINE
8
BLACK
6
CONTINUOUS
10
3.4831
20
-2.68429
11
3.48829
21
-2.68978
0
LINE
8
BLACK
6
CONTINUOUS
10
3.48829
20
-2.68978
11
3.49228
21
-2.6962
0
LINE
8
BLACK
6
CONTINUOUS
10
3.49228
20
-2.6962
11
3.49489
21
-2.7033
0
LINE
8
BLACK
6
CONTINUOUS
10
3.49489
20
-2.7033
11
3.49602
21
-2.71077
0
LINE
8
BLACK
6
CONTINUOUS
10
3.49602
20
-2.71077
11
3.49562
21
-2.71832
0
LINE
8
BLACK
6
CONTINUOUS
10
3.49562
20
-2.71832
11
3.49372
21
-2.72564
0
LINE
8
BLACK
6
CONTINUOUS
10
3.49372
20
-2.72564
11
3.49038
21
-2.73242
0
LINE
8
BLACK
6
CONTINUOUS
10
3.49038
20
-2.73242
11
3.48575
21
-2.73839
0
LINE
8
BLACK
6
CONTINUOUS
10
3.48575
20
-2.73839
11
3.48001
21
-2.74331
0
LINE
8
BLACK
6
CONTINUOUS
10
3.48001
20
-2.74331
11
3.4734
21
-2.74698
0
LINE
8
BLACK
6
CONTINUOUS
10
3.4734
20
-2.74698
11
3.46618
21
-2.74924
0
LINE
8
BLACK
6
CONTINUOUS
10
3.46618
20
-2.74924
11
3.45866
21
-2.75
0
LINE
8
BLACK
6
CONTINUOUS
10
3.45866
20
-2.75
11
3.4311
21
-2.75
0
LINE
8
BLACK
6
CONTINUOUS
10
3.4311
20
-2.75
11
3.42719
21
-2.7498
0
LINE
8
BLACK
6
CONTINUOUS
10
3.42719
20
-2.7498
11
3.41979
21
-2.74825
0
LINE
8
BLACK
6
CONTINUOUS
10
3.41979
20
-2.74825
11
3.41286
21
-2.74525
0
LINE
8
BLACK
6
CONTINUOUS
10
3.41286
20
-2.74525
11
3.40666
21
-2.74091
0
LINE
8
BLACK
6
CONTINUOUS
10
3.40666
20
-2.74091
11
3.40147
21
-2.73542
0
LINE
8
BLACK
6
CONTINUOUS
10
3.40147
20
-2.73542
11
3.39749
21
-2.72899
0
LINE
8
BLACK
6
CONTINUOUS
10
3.39749
20
-2.72899
11
3.39488
21
-2.7219
0
LINE
8
BLACK
6
CONTINUOUS
10
3.39488
20
-2.7219
11
3.39375
21
-2.71443
0
LINE
8
BLACK
6
CONTINUOUS
10
3.39375
20
-2.71443
11
3.39414
21
-2.70688
0
LINE
8
BLACK
6
CONTINUOUS
10
3.39414
20
-2.70688
11
3.39605
21
-2.69956
0
LINE
8
BLACK
6
CONTINUOUS
10
3.39605
20
-2.69956
11
3.39938
21
-2.69278
0
LINE
8
BLACK
6
CONTINUOUS
10
3.39938
20
-2.69278
11
3.40402
21
-2.68681
0
LINE
8
BLACK
6
CONTINUOUS
10
3.40402
20
-2.68681
11
3.40976
21
-2.68189
0
LINE
8
BLACK
6
CONTINUOUS
10
3.40976
20
-2.68189
11
3.41637
21
-2.67822
0
LINE
8
BLACK
6
CONTINUOUS
10
3.41637
20
-2.67822
11
3.42358
21
-2.67596
0
LINE
8
BLACK
6
CONTINUOUS
10
3.42358
20
-2.67596
11
3.4311
21
-2.6752
0
LINE
8
BLACK
6
CONTINUOUS
10
3.4311
20
-2.6752
11
3.45866
21
-2.6752
0
LINE
8
BLACK
6
CONTINUOUS
10
3.45866
20
-2.6752
11
3.46257
21
-2.6754
0
LINE
8
BLACK
6
CONTINUOUS
10
4.44405
20
-2.06978
11
4.4579
21
-2.07223
0
LINE
8
BLACK
6
CONTINUOUS
10
4.4579
20
-2.07223
11
4.4714
21
-2.0762
0
LINE
8
BLACK
6
CONTINUOUS
10
4.4714
20
-2.0762
11
4.48436
21
-2.08165
0
LINE
8
BLACK
6
CONTINUOUS
10
4.48436
20
-2.08165
11
4.49664
21
-2.08851
0
LINE
8
BLACK
6
CONTINUOUS
10
4.49664
20
-2.08851
11
4.50808
21
-2.0967
0
LINE
8
BLACK
6
CONTINUOUS
10
4.50808
20
-2.0967
11
4.51853
21
-2.10611
0
LINE
8
BLACK
6
CONTINUOUS
10
4.51853
20
-2.10611
11
4.52787
21
-2.11663
0
LINE
8
BLACK
6
CONTINUOUS
10
4.52787
20
-2.11663
11
4.53597
21
-2.12812
0
LINE
8
BLACK
6
CONTINUOUS
10
4.53597
20
-2.12812
11
4.54275
21
-2.14045
0
LINE
8
BLACK
6
CONTINUOUS
10
4.54275
20
-2.14045
11
4.54811
21
-2.15345
0
LINE
8
BLACK
6
CONTINUOUS
10
4.54811
20
-2.15345
11
4.55199
21
-2.16697
0
LINE
8
BLACK
6
CONTINUOUS
10
4.55199
20
-2.16697
11
4.55433
21
-2.18084
0
LINE
8
BLACK
6
CONTINUOUS
10
4.55433
20
-2.18084
11
4.55512
21
-2.19488
0
LINE
8
BLACK
6
CONTINUOUS
10
4.55512
20
-2.19488
11
4.55507
21
-2.1984
0
LINE
8
BLACK
6
CONTINUOUS
10
4.55507
20
-2.1984
11
4.55389
21
-2.21242
0
LINE
8
BLACK
6
CONTINUOUS
10
4.55389
20
-2.21242
11
4.55116
21
-2.22621
0
LINE
8
BLACK
6
CONTINUOUS
10
4.55116
20
-2.22621
11
4.54691
21
-2.23962
0
LINE
8
BLACK
6
CONTINUOUS
10
4.54691
20
-2.23962
11
4.54119
21
-2.25247
0
LINE
8
BLACK
6
CONTINUOUS
10
4.54119
20
-2.25247
11
4.53407
21
-2.2646
0
LINE
8
BLACK
6
CONTINUOUS
10
4.53407
20
-2.2646
11
4.52564
21
-2.27586
0
LINE
8
BLACK
6
CONTINUOUS
10
4.52564
20
-2.27586
11
4.51602
21
-2.28612
0
LINE
8
BLACK
6
CONTINUOUS
10
4.51602
20
-2.28612
11
4.5053
21
-2.29523
0
LINE
8
BLACK
6
CONTINUOUS
10
4.5053
20
-2.29523
11
4.49364
21
-2.3031
0
LINE
8
BLACK
6
CONTINUOUS
10
4.49364
20
-2.3031
11
4.48118
21
-2.30961
0
LINE
8
BLACK
6
CONTINUOUS
10
4.48118
20
-2.30961
11
4.46807
21
-2.3147
0
LINE
8
BLACK
6
CONTINUOUS
10
4.46807
20
-2.3147
11
4.45447
21
-2.31829
0
LINE
8
BLACK
6
CONTINUOUS
10
4.45447
20
-2.31829
11
4.44055
21
-2.32035
0
LINE
8
BLACK
6
CONTINUOUS
10
4.44055
20
-2.32035
11
4.4265
21
-2.32084
0
LINE
8
BLACK
6
CONTINUOUS
10
4.4265
20
-2.32084
11
4.41247
21
-2.31976
0
LINE
8
BLACK
6
CONTINUOUS
10
4.41247
20
-2.31976
11
4.39866
21
-2.31712
0
LINE
8
BLACK
6
CONTINUOUS
10
4.39866
20
-2.31712
11
4.38522
21
-2.31296
0
LINE
8
BLACK
6
CONTINUOUS
10
4.38522
20
-2.31296
11
4.37233
21
-2.30733
0
LINE
8
BLACK
6
CONTINUOUS
10
4.37233
20
-2.30733
11
4.36015
21
-2.3003
0
LINE
8
BLACK
6
CONTINUOUS
10
4.36015
20
-2.3003
11
4.34883
21
-2.29195
0
LINE
8
BLACK
6
CONTINUOUS
10
4.34883
20
-2.29195
11
4.33851
21
-2.2824
0
LINE
8
BLACK
6
CONTINUOUS
10
4.33851
20
-2.2824
11
4.32932
21
-2.27175
0
LINE
8
BLACK
6
CONTINUOUS
10
4.32932
20
-2.27175
11
4.32137
21
-2.26015
0
LINE
8
BLACK
6
CONTINUOUS
10
4.32137
20
-2.26015
11
4.31477
21
-2.24773
0
LINE
8
BLACK
6
CONTINUOUS
10
4.31477
20
-2.24773
11
4.30959
21
-2.23465
0
LINE
8
BLACK
6
CONTINUOUS
10
4.30959
20
-2.23465
11
4.3059
21
-2.22108
0
LINE
8
BLACK
6
CONTINUOUS
10
4.3059
20
-2.22108
11
4.30375
21
-2.20718
0
LINE
8
BLACK
6
CONTINUOUS
10
4.30375
20
-2.20718
11
4.30316
21
-2.19312
0
LINE
8
BLACK
6
CONTINUOUS
10
4.30316
20
-2.19312
11
4.30414
21
-2.17909
0
LINE
8
BLACK
6
CONTINUOUS
10
4.30414
20
-2.17909
11
4.30668
21
-2.16526
0
LINE
8
BLACK
6
CONTINUOUS
10
4.30668
20
-2.16526
11
4.31075
21
-2.15179
0
LINE
8
BLACK
6
CONTINUOUS
10
4.31075
20
-2.15179
11
4.31629
21
-2.13886
0
LINE
8
BLACK
6
CONTINUOUS
10
4.31629
20
-2.13886
11
4.32324
21
-2.12664
0
LINE
8
BLACK
6
CONTINUOUS
10
4.32324
20
-2.12664
11
4.3315
21
-2.11526
0
LINE
8
BLACK
6
CONTINUOUS
10
4.3315
20
-2.11526
11
4.34099
21
-2.10487
0
LINE
8
BLACK
6
CONTINUOUS
10
4.34099
20
-2.10487
11
4.35157
21
-2.0956
0
LINE
8
BLACK
6
CONTINUOUS
10
4.35157
20
-2.0956
11
4.36312
21
-2.08758
0
LINE
8
BLACK
6
CONTINUOUS
10
4.36312
20
-2.08758
11
4.37549
21
-2.08089
0
LINE
8
BLACK
6
CONTINUOUS
10
4.37549
20
-2.08089
11
4.38853
21
-2.07562
0
LINE
8
BLACK
6
CONTINUOUS
10
4.38853
20
-2.07562
11
4.40208
21
-2.07184
0
LINE
8
BLACK
6
CONTINUOUS
10
4.40208
20
-2.07184
11
4.41596
21
-2.06959
0
LINE
8
BLACK
6
CONTINUOUS
10
4.41596
20
-2.06959
11
4.43001
21
-2.0689
0
LINE
8
BLACK
6
CONTINUOUS
10
4.43001
20
-2.0689
11
4.44405
21
-2.06978
0
LINE
8
BLACK
6
CONTINUOUS
10
3.4598
20
-2.06978
11
3.47365
21
-2.07223
0
LINE
8
BLACK
6
CONTINUOUS
10
3.47365
20
-2.07223
11
3.48714
21
-2.0762
0
LINE
8
BLACK
6
CONTINUOUS
10
3.48714
20
-2.0762
11
3.50011
21
-2.08165
0
LINE
8
BLACK
6
CONTINUOUS
10
3.50011
20
-2.08165
11
3.51239
21
-2.08851
0
LINE
8
BLACK
6
CONTINUOUS
10
3.51239
20
-2.08851
11
3.52382
21
-2.0967
0
LINE
8
BLACK
6
CONTINUOUS
10
3.52382
20
-2.0967
11
3.53428
21
-2.10611
0
LINE
8
BLACK
6
CONTINUOUS
10
3.53428
20
-2.10611
11
3.54361
21
-2.11663
0
LINE
8
BLACK
6
CONTINUOUS
10
3.54361
20
-2.11663
11
3.55172
21
-2.12812
0
LINE
8
BLACK
6
CONTINUOUS
10
3.55172
20
-2.12812
11
3.5585
21
-2.14045
0
LINE
8
BLACK
6
CONTINUOUS
10
3.5585
20
-2.14045
11
3.56386
21
-2.15345
0
LINE
8
BLACK
6
CONTINUOUS
10
3.56386
20
-2.15345
11
3.56774
21
-2.16697
0
LINE
8
BLACK
6
CONTINUOUS
10
3.56774
20
-2.16697
11
3.57008
21
-2.18084
0
LINE
8
BLACK
6
CONTINUOUS
10
3.57008
20
-2.18084
11
3.57087
21
-2.19488
0
LINE
8
BLACK
6
CONTINUOUS
10
3.57087
20
-2.19488
11
3.57082
21
-2.1984
0
LINE
8
BLACK
6
CONTINUOUS
10
3.57082
20
-2.1984
11
3.56964
21
-2.21242
0
LINE
8
BLACK
6
CONTINUOUS
10
3.56964
20
-2.21242
11
3.56691
21
-2.22621
0
LINE
8
BLACK
6
CONTINUOUS
10
3.56691
20
-2.22621
11
3.56266
21
-2.23962
0
LINE
8
BLACK
6
CONTINUOUS
10
3.56266
20
-2.23962
11
3.55693
21
-2.25247
0
LINE
8
BLACK
6
CONTINUOUS
10
3.55693
20
-2.25247
11
3.54982
21
-2.2646
0
LINE
8
BLACK
6
CONTINUOUS
10
3.54982
20
-2.2646
11
3.54139
21
-2.27586
0
LINE
8
BLACK
6
CONTINUOUS
10
3.54139
20
-2.27586
11
3.53176
21
-2.28612
0
LINE
8
BLACK
6
CONTINUOUS
10
3.53176
20
-2.28612
11
3.52105
21
-2.29523
0
LINE
8
BLACK
6
CONTINUOUS
10
3.52105
20
-2.29523
11
3.50939
21
-2.3031
0
LINE
8
BLACK
6
CONTINUOUS
10
3.50939
20
-2.3031
11
3.49693
21
-2.30961
0
LINE
8
BLACK
6
CONTINUOUS
10
3.49693
20
-2.30961
11
3.48381
21
-2.3147
0
LINE
8
BLACK
6
CONTINUOUS
10
3.48381
20
-2.3147
11
3.47021
21
-2.31829
0
LINE
8
BLACK
6
CONTINUOUS
10
3.47021
20
-2.31829
11
3.4563
21
-2.32035
0
LINE
8
BLACK
6
CONTINUOUS
10
3.4563
20
-2.32035
11
3.44224
21
-2.32084
0
LINE
8
BLACK
6
CONTINUOUS
10
3.44224
20
-2.32084
11
3.42822
21
-2.31976
0
LINE
8
BLACK
6
CONTINUOUS
10
3.42822
20
-2.31976
11
3.4144
21
-2.31712
0
LINE
8
BLACK
6
CONTINUOUS
10
3.4144
20
-2.31712
11
3.40097
21
-2.31296
0
LINE
8
BLACK
6
CONTINUOUS
10
3.40097
20
-2.31296
11
3.38808
21
-2.30733
0
LINE
8
BLACK
6
CONTINUOUS
10
3.38808
20
-2.30733
11
3.3759
21
-2.3003
0
LINE
8
BLACK
6
CONTINUOUS
10
3.3759
20
-2.3003
11
3.36458
21
-2.29195
0
LINE
8
BLACK
6
CONTINUOUS
10
3.36458
20
-2.29195
11
3.35426
21
-2.2824
0
LINE
8
BLACK
6
CONTINUOUS
10
3.35426
20
-2.2824
11
3.34507
21
-2.27175
0
LINE
8
BLACK
6
CONTINUOUS
10
3.34507
20
-2.27175
11
3.33712
21
-2.26015
0
LINE
8
BLACK
6
CONTINUOUS
10
3.33712
20
-2.26015
11
3.33052
21
-2.24773
0
LINE
8
BLACK
6
CONTINUOUS
10
3.33052
20
-2.24773
11
3.32534
21
-2.23465
0
LINE
8
BLACK
6
CONTINUOUS
10
3.32534
20
-2.23465
11
3.32165
21
-2.22108
0
LINE
8
BLACK
6
CONTINUOUS
10
3.32165
20
-2.22108
11
3.3195
21
-2.20718
0
LINE
8
BLACK
6
CONTINUOUS
10
3.3195
20
-2.20718
11
3.31891
21
-2.19312
0
LINE
8
BLACK
6
CONTINUOUS
10
3.31891
20
-2.19312
11
3.31989
21
-2.17909
0
LINE
8
BLACK
6
CONTINUOUS
10
3.31989
20
-2.17909
11
3.32243
21
-2.16526
0
LINE
8
BLACK
6
CONTINUOUS
10
3.32243
20
-2.16526
11
3.3265
21
-2.15179
0
LINE
8
BLACK
6
CONTINUOUS
10
3.3265
20
-2.15179
11
3.33204
21
-2.13886
0
LINE
8
BLACK
6
CONTINUOUS
10
3.33204
20
-2.13886
11
3.33898
21
-2.12664
0
LINE
8
BLACK
6
CONTINUOUS
10
3.33898
20
-2.12664
11
3.34725
21
-2.11526
0
LINE
8
BLACK
6
CONTINUOUS
10
3.34725
20
-2.11526
11
3.35674
21
-2.10487
0
LINE
8
BLACK
6
CONTINUOUS
10
3.35674
20
-2.10487
11
3.36732
21
-2.0956
0
LINE
8
BLACK
6
CONTINUOUS
10
3.36732
20
-2.0956
11
3.37887
21
-2.08758
0
LINE
8
BLACK
6
CONTINUOUS
10
3.37887
20
-2.08758
11
3.39124
21
-2.08089
0
LINE
8
BLACK
6
CONTINUOUS
10
3.39124
20
-2.08089
11
3.40428
21
-2.07562
0
LINE
8
BLACK
6
CONTINUOUS
10
3.40428
20
-2.07562
11
3.41783
21
-2.07184
0
LINE
8
BLACK
6
CONTINUOUS
10
3.41783
20
-2.07184
11
3.43171
21
-2.06959
0
LINE
8
BLACK
6
CONTINUOUS
10
3.43171
20
-2.06959
11
3.44576
21
-2.0689
0
LINE
8
BLACK
6
CONTINUOUS
10
3.44576
20
-2.0689
11
3.4598
21
-2.06978
  0
ENDSEC
  0
EOF
