  0
SECTION
  2
HEADER
  9
$ANGBASE
  50
0.0
  9
$ANGDIR
  70
1
  9
$MEASUREMENT
  70
0
  0
ENDSEC
  0
SECTION
  2
TABLES
  0
TABLE
  2
LTYPE
  70
4
  0
LTYPE
  5
40F
  2
CONTINUOUS
  70
0
  3
Solid line
  72
65
  73
0
  40
0.0
  0
LTYPE
  5
410
  2
DASHDOT
 70
0
  3
Dash Dot ____ _ ____ _
 72
65
 73
4
 40
2.0
 49
1.25
 49
-0.25
 49
0.25
 49
-0.25
  0
LTYPE
  5
411
  2
DASHED
 70
0
  3
Dashed __ __ __ __ __
 72
65
 73
2
 40
0.75
 49
0.5
 49
-0.25
  0
LTYPE
  5
43B
  2
DOTTED
 70
0
  3
Dotted .  .  .  .
 72
65
 73
2
 40
0.2
 49
0.0
 49
-0.2
  0
ENDTAB
  0
TABLE
  2
STYLE
  70
4
  0
STYLE
  2
KICAD
  70
0
  40
0
  41
1
  42
1
  50
0
  71
0
  3
isocp.shx
  0
STYLE
  2
KICADB
  70
0
  40
0
  41
1
  42
1
  50
0
  71
0
  3
isocp.shx
  0
STYLE
  2
KICADI
  70
0
  40
0
  41
1
  42
1
  50
15
  71
0
  3
isocp.shx
  0
STYLE
  2
KICADBI
  70
0
  40
0
  41
1
  42
1
  50
15
  71
0
  3
isocp.shx
  0
ENDTAB
  0
TABLE
  2
LAYER
  70
1
  0
LAYER
  2
BLACK
  70
0
  62
7
  6
CONTINUOUS
  0
ENDTAB
  0
ENDSEC
  0
SECTION
  2
ENTITIES
0
LINE
8
BLACK
6
CONTINUOUS
10
0.226535
20
0.781458
11
0.227257
21
0.781493
0
LINE
8
BLACK
6
CONTINUOUS
10
0.227257
20
0.781493
11
0.241295
21
0.78061
0
LINE
8
BLACK
6
CONTINUOUS
10
0.241295
20
0.78061
11
0.255147
21
0.778167
0
LINE
8
BLACK
6
CONTINUOUS
10
0.255147
20
0.778167
11
0.26864
21
0.774196
0
LINE
8
BLACK
6
CONTINUOUS
10
0.26864
20
0.774196
11
0.281606
21
0.768746
0
LINE
8
BLACK
6
CONTINUOUS
10
0.281606
20
0.768746
11
0.293884
21
0.761884
0
LINE
8
BLACK
6
CONTINUOUS
10
0.293884
20
0.761884
11
0.30532
21
0.753696
0
LINE
8
BLACK
6
CONTINUOUS
10
0.30532
20
0.753696
11
0.315773
21
0.744285
0
LINE
8
BLACK
6
CONTINUOUS
10
0.315773
20
0.744285
11
0.325111
21
0.733767
0
LINE
8
BLACK
6
CONTINUOUS
10
0.325111
20
0.733767
11
0.333219
21
0.722273
0
LINE
8
BLACK
6
CONTINUOUS
10
0.333219
20
0.722273
11
0.339995
21
0.709948
0
LINE
8
BLACK
6
CONTINUOUS
10
0.339995
20
0.709948
11
0.345354
21
0.696944
0
LINE
8
BLACK
6
CONTINUOUS
10
0.345354
20
0.696944
11
0.349231
21
0.683423
0
LINE
8
BLACK
6
CONTINUOUS
10
0.349231
20
0.683423
11
0.351577
21
0.669555
0
LINE
8
BLACK
6
CONTINUOUS
10
0.351577
20
0.669555
11
0.352362
21
0.655512
0
LINE
8
BLACK
6
CONTINUOUS
10
0.352362
20
0.655512
11
0.352313
21
0.651994
0
LINE
8
BLACK
6
CONTINUOUS
10
0.352313
20
0.651994
11
0.351136
21
0.637978
0
LINE
8
BLACK
6
CONTINUOUS
10
0.351136
20
0.637978
11
0.348404
21
0.624181
0
LINE
8
BLACK
6
CONTINUOUS
10
0.348404
20
0.624181
11
0.344151
21
0.610774
0
LINE
8
BLACK
6
CONTINUOUS
10
0.344151
20
0.610774
11
0.33843
21
0.597925
0
LINE
8
BLACK
6
CONTINUOUS
10
0.33843
20
0.597925
11
0.331313
21
0.585793
0
LINE
8
BLACK
6
CONTINUOUS
10
0.331313
20
0.585793
11
0.322887
21
0.574531
0
LINE
8
BLACK
6
CONTINUOUS
10
0.322887
20
0.574531
11
0.313259
21
0.564278
0
LINE
8
BLACK
6
CONTINUOUS
10
0.313259
20
0.564278
11
0.302548
21
0.555162
0
LINE
8
BLACK
6
CONTINUOUS
10
0.302548
20
0.555162
11
0.290887
21
0.547296
0
LINE
8
BLACK
6
CONTINUOUS
10
0.290887
20
0.547296
11
0.278423
21
0.54078
0
LINE
8
BLACK
6
CONTINUOUS
10
0.278423
20
0.54078
11
0.265309
21
0.535694
0
LINE
8
BLACK
6
CONTINUOUS
10
0.265309
20
0.535694
11
0.251711
21
0.532101
0
LINE
8
BLACK
6
CONTINUOUS
10
0.251711
20
0.532101
11
0.237796
21
0.530046
0
LINE
8
BLACK
6
CONTINUOUS
10
0.237796
20
0.530046
11
0.22374
21
0.529555
0
LINE
8
BLACK
6
CONTINUOUS
10
0.22374
20
0.529555
11
0.209716
21
0.530634
0
LINE
8
BLACK
6
CONTINUOUS
10
0.209716
20
0.530634
11
0.1959
21
0.53327
0
LINE
8
BLACK
6
CONTINUOUS
10
0.1959
20
0.53327
11
0.188911
21
0.535433
0
LINE
8
BLACK
6
CONTINUOUS
10
0.188911
20
0.535433
11
0.0334252
21
0.535433
0
LINE
8
BLACK
6
CONTINUOUS
10
0.0334252
20
0.535433
11
0.0311342
21
0.536177
0
LINE
8
BLACK
6
CONTINUOUS
10
0.0311342
20
0.536177
11
0.0297183
21
0.538126
0
LINE
8
BLACK
6
CONTINUOUS
10
0.0297183
20
0.538126
11
0.0295276
21
0.539331
0
LINE
8
BLACK
6
CONTINUOUS
10
0.0295276
20
0.539331
11
0.0295276
21
0.777598
0
LINE
8
BLACK
6
CONTINUOUS
10
0.0295276
20
0.777598
11
0.0302719
21
0.779889
0
LINE
8
BLACK
6
CONTINUOUS
10
0.0302719
20
0.779889
11
0.0322207
21
0.781305
0
LINE
8
BLACK
6
CONTINUOUS
10
0.0322207
20
0.781305
11
0.0334252
21
0.781496
0
LINE
8
BLACK
6
CONTINUOUS
10
0.0334252
20
0.781496
11
0.226417
21
0.781496
0
LINE
8
BLACK
6
CONTINUOUS
10
0.226417
20
0.781496
11
0.226535
21
0.781458
0
LINE
8
BLACK
6
CONTINUOUS
10
1.51225
20
0.800337
11
1.51996
21
0.797951
0
LINE
8
BLACK
6
CONTINUOUS
10
1.51996
20
0.797951
11
1.52705
21
0.794114
0
LINE
8
BLACK
6
CONTINUOUS
10
1.52705
20
0.794114
11
1.53327
21
0.788971
0
LINE
8
BLACK
6
CONTINUOUS
10
1.53327
20
0.788971
11
1.53837
21
0.782719
0
LINE
8
BLACK
6
CONTINUOUS
10
1.53837
20
0.782719
11
1.54216
21
0.775595
0
LINE
8
BLACK
6
CONTINUOUS
10
1.54216
20
0.775595
11
1.54449
21
0.767872
0
LINE
8
BLACK
6
CONTINUOUS
10
1.54449
20
0.767872
11
1.54528
21
0.759843
0
LINE
8
BLACK
6
CONTINUOUS
10
1.54528
20
0.759843
11
1.54526
21
0.758688
0
LINE
8
BLACK
6
CONTINUOUS
10
1.54526
20
0.758688
11
1.54425
21
0.750684
0
LINE
8
BLACK
6
CONTINUOUS
10
1.54425
20
0.750684
11
1.5417
21
0.743029
0
LINE
8
BLACK
6
CONTINUOUS
10
1.5417
20
0.743029
11
1.53772
21
0.736014
0
LINE
8
BLACK
6
CONTINUOUS
10
1.53772
20
0.736014
11
1.53244
21
0.729906
0
LINE
8
BLACK
6
CONTINUOUS
10
1.53244
20
0.729906
11
1.52609
21
0.724939
0
LINE
8
BLACK
6
CONTINUOUS
10
1.52609
20
0.724939
11
1.51889
21
0.721302
0
LINE
8
BLACK
6
CONTINUOUS
10
1.51889
20
0.721302
11
1.51112
21
0.719132
0
LINE
8
BLACK
6
CONTINUOUS
10
1.51112
20
0.719132
11
1.50307
21
0.718513
0
LINE
8
BLACK
6
CONTINUOUS
10
1.50307
20
0.718513
11
1.49506
21
0.719468
0
LINE
8
BLACK
6
CONTINUOUS
10
1.49506
20
0.719468
11
1.48739
21
0.721961
0
LINE
8
BLACK
6
CONTINUOUS
10
1.48739
20
0.721961
11
1.48034
21
0.725897
0
LINE
8
BLACK
6
CONTINUOUS
10
1.48034
20
0.725897
11
1.4742
21
0.731126
0
LINE
8
BLACK
6
CONTINUOUS
10
1.4742
20
0.731126
11
1.46919
21
0.737449
0
LINE
8
BLACK
6
CONTINUOUS
10
1.46919
20
0.737449
11
1.4655
21
0.744625
0
LINE
8
BLACK
6
CONTINUOUS
10
1.4655
20
0.744625
11
1.46328
21
0.75238
0
LINE
8
BLACK
6
CONTINUOUS
10
1.46328
20
0.75238
11
1.4626
21
0.76042
0
LINE
8
BLACK
6
CONTINUOUS
10
1.4626
20
0.76042
11
1.4635
21
0.768437
0
LINE
8
BLACK
6
CONTINUOUS
10
1.4635
20
0.768437
11
1.46594
21
0.776128
0
LINE
8
BLACK
6
CONTINUOUS
10
1.46594
20
0.776128
11
1.46983
21
0.783197
0
LINE
8
BLACK
6
CONTINUOUS
10
1.46983
20
0.783197
11
1.47501
21
0.789378
0
LINE
8
BLACK
6
CONTINUOUS
10
1.47501
20
0.789378
11
1.4813
21
0.794433
0
LINE
8
BLACK
6
CONTINUOUS
10
1.4813
20
0.794433
11
1.48845
21
0.798171
0
LINE
8
BLACK
6
CONTINUOUS
10
1.48845
20
0.798171
11
1.49619
21
0.800449
0
LINE
8
BLACK
6
CONTINUOUS
10
1.49619
20
0.800449
11
1.50423
21
0.80118
0
LINE
8
BLACK
6
CONTINUOUS
10
1.50423
20
0.80118
11
1.51225
21
0.800337
0
LINE
8
BLACK
6
CONTINUOUS
10
1.78784
20
0.800337
11
1.79555
21
0.797951
0
LINE
8
BLACK
6
CONTINUOUS
10
1.79555
20
0.797951
11
1.80264
21
0.794114
0
LINE
8
BLACK
6
CONTINUOUS
10
1.80264
20
0.794114
11
1.80886
21
0.788971
0
LINE
8
BLACK
6
CONTINUOUS
10
1.80886
20
0.788971
11
1.81396
21
0.782719
0
LINE
8
BLACK
6
CONTINUOUS
10
1.81396
20
0.782719
11
1.81775
21
0.775595
0
LINE
8
BLACK
6
CONTINUOUS
10
1.81775
20
0.775595
11
1.82008
21
0.767872
0
LINE
8
BLACK
6
CONTINUOUS
10
1.82008
20
0.767872
11
1.82087
21
0.759843
0
LINE
8
BLACK
6
CONTINUOUS
10
1.82087
20
0.759843
11
1.82085
21
0.758688
0
LINE
8
BLACK
6
CONTINUOUS
10
1.82085
20
0.758688
11
1.81984
21
0.750684
0
LINE
8
BLACK
6
CONTINUOUS
10
1.81984
20
0.750684
11
1.81729
21
0.743029
0
LINE
8
BLACK
6
CONTINUOUS
10
1.81729
20
0.743029
11
1.81331
21
0.736014
0
LINE
8
BLACK
6
CONTINUOUS
10
1.81331
20
0.736014
11
1.80804
21
0.729906
0
LINE
8
BLACK
6
CONTINUOUS
10
1.80804
20
0.729906
11
1.80168
21
0.724939
0
LINE
8
BLACK
6
CONTINUOUS
10
1.80168
20
0.724939
11
1.79448
21
0.721302
0
LINE
8
BLACK
6
CONTINUOUS
10
1.79448
20
0.721302
11
1.78671
21
0.719132
0
LINE
8
BLACK
6
CONTINUOUS
10
1.78671
20
0.719132
11
1.77866
21
0.718513
0
LINE
8
BLACK
6
CONTINUOUS
10
1.77866
20
0.718513
11
1.77065
21
0.719468
0
LINE
8
BLACK
6
CONTINUOUS
10
1.77065
20
0.719468
11
1.76298
21
0.721961
0
LINE
8
BLACK
6
CONTINUOUS
10
1.76298
20
0.721961
11
1.75594
21
0.725897
0
LINE
8
BLACK
6
CONTINUOUS
10
1.75594
20
0.725897
11
1.74979
21
0.731126
0
LINE
8
BLACK
6
CONTINUOUS
10
1.74979
20
0.731126
11
1.74478
21
0.737449
0
LINE
8
BLACK
6
CONTINUOUS
10
1.74478
20
0.737449
11
1.74109
21
0.744625
0
LINE
8
BLACK
6
CONTINUOUS
10
1.74109
20
0.744625
11
1.73887
21
0.75238
0
LINE
8
BLACK
6
CONTINUOUS
10
1.73887
20
0.75238
11
1.73819
21
0.76042
0
LINE
8
BLACK
6
CONTINUOUS
10
1.73819
20
0.76042
11
1.73909
21
0.768437
0
LINE
8
BLACK
6
CONTINUOUS
10
1.73909
20
0.768437
11
1.74153
21
0.776128
0
LINE
8
BLACK
6
CONTINUOUS
10
1.74153
20
0.776128
11
1.74542
21
0.783197
0
LINE
8
BLACK
6
CONTINUOUS
10
1.74542
20
0.783197
11
1.7506
21
0.789378
0
LINE
8
BLACK
6
CONTINUOUS
10
1.7506
20
0.789378
11
1.75689
21
0.794433
0
LINE
8
BLACK
6
CONTINUOUS
10
1.75689
20
0.794433
11
1.76404
21
0.798171
0
LINE
8
BLACK
6
CONTINUOUS
10
1.76404
20
0.798171
11
1.77178
21
0.800449
0
LINE
8
BLACK
6
CONTINUOUS
10
1.77178
20
0.800449
11
1.77982
21
0.80118
0
LINE
8
BLACK
6
CONTINUOUS
10
1.77982
20
0.80118
11
1.78784
21
0.800337
0
LINE
8
BLACK
6
CONTINUOUS
10
1.51225
20
1.27475
11
1.51996
21
1.27236
0
LINE
8
BLACK
6
CONTINUOUS
10
1.51996
20
1.27236
11
1.52705
21
1.26852
0
LINE
8
BLACK
6
CONTINUOUS
10
1.52705
20
1.26852
11
1.53327
21
1.26338
0
LINE
8
BLACK
6
CONTINUOUS
10
1.53327
20
1.26338
11
1.53837
21
1.25713
0
LINE
8
BLACK
6
CONTINUOUS
10
1.53837
20
1.25713
11
1.54216
21
1.25
0
LINE
8
BLACK
6
CONTINUOUS
10
1.54216
20
1.25
11
1.54449
21
1.24228
0
LINE
8
BLACK
6
CONTINUOUS
10
1.54449
20
1.24228
11
1.54528
21
1.23425
0
LINE
8
BLACK
6
CONTINUOUS
10
1.54528
20
1.23425
11
1.54526
21
1.2331
0
LINE
8
BLACK
6
CONTINUOUS
10
1.54526
20
1.2331
11
1.54425
21
1.22509
0
LINE
8
BLACK
6
CONTINUOUS
10
1.54425
20
1.22509
11
1.5417
21
1.21744
0
LINE
8
BLACK
6
CONTINUOUS
10
1.5417
20
1.21744
11
1.53772
21
1.21042
0
LINE
8
BLACK
6
CONTINUOUS
10
1.53772
20
1.21042
11
1.53244
21
1.20432
0
LINE
8
BLACK
6
CONTINUOUS
10
1.53244
20
1.20432
11
1.52609
21
1.19935
0
LINE
8
BLACK
6
CONTINUOUS
10
1.52609
20
1.19935
11
1.51889
21
1.19571
0
LINE
8
BLACK
6
CONTINUOUS
10
1.51889
20
1.19571
11
1.51112
21
1.19354
0
LINE
8
BLACK
6
CONTINUOUS
10
1.51112
20
1.19354
11
1.50307
21
1.19292
0
LINE
8
BLACK
6
CONTINUOUS
10
1.50307
20
1.19292
11
1.49506
21
1.19388
0
LINE
8
BLACK
6
CONTINUOUS
10
1.49506
20
1.19388
11
1.48739
21
1.19637
0
LINE
8
BLACK
6
CONTINUOUS
10
1.48739
20
1.19637
11
1.48034
21
1.20031
0
LINE
8
BLACK
6
CONTINUOUS
10
1.48034
20
1.20031
11
1.4742
21
1.20554
0
LINE
8
BLACK
6
CONTINUOUS
10
1.4742
20
1.20554
11
1.46919
21
1.21186
0
LINE
8
BLACK
6
CONTINUOUS
10
1.46919
20
1.21186
11
1.4655
21
1.21903
0
LINE
8
BLACK
6
CONTINUOUS
10
1.4655
20
1.21903
11
1.46328
21
1.22679
0
LINE
8
BLACK
6
CONTINUOUS
10
1.46328
20
1.22679
11
1.4626
21
1.23483
0
LINE
8
BLACK
6
CONTINUOUS
10
1.4626
20
1.23483
11
1.4635
21
1.24285
0
LINE
8
BLACK
6
CONTINUOUS
10
1.4635
20
1.24285
11
1.46594
21
1.25054
0
LINE
8
BLACK
6
CONTINUOUS
10
1.46594
20
1.25054
11
1.46983
21
1.25761
0
LINE
8
BLACK
6
CONTINUOUS
10
1.46983
20
1.25761
11
1.47501
21
1.26379
0
LINE
8
BLACK
6
CONTINUOUS
10
1.47501
20
1.26379
11
1.4813
21
1.26884
0
LINE
8
BLACK
6
CONTINUOUS
10
1.4813
20
1.26884
11
1.48845
21
1.27258
0
LINE
8
BLACK
6
CONTINUOUS
10
1.48845
20
1.27258
11
1.49619
21
1.27486
0
LINE
8
BLACK
6
CONTINUOUS
10
1.49619
20
1.27486
11
1.50423
21
1.27559
0
LINE
8
BLACK
6
CONTINUOUS
10
1.50423
20
1.27559
11
1.51225
21
1.27475
0
LINE
8
BLACK
6
CONTINUOUS
10
1.78784
20
1.27475
11
1.79555
21
1.27236
0
LINE
8
BLACK
6
CONTINUOUS
10
1.79555
20
1.27236
11
1.80264
21
1.26852
0
LINE
8
BLACK
6
CONTINUOUS
10
1.80264
20
1.26852
11
1.80886
21
1.26338
0
LINE
8
BLACK
6
CONTINUOUS
10
1.80886
20
1.26338
11
1.81396
21
1.25713
0
LINE
8
BLACK
6
CONTINUOUS
10
1.81396
20
1.25713
11
1.81775
21
1.25
0
LINE
8
BLACK
6
CONTINUOUS
10
1.81775
20
1.25
11
1.82008
21
1.24228
0
LINE
8
BLACK
6
CONTINUOUS
10
1.82008
20
1.24228
11
1.82087
21
1.23425
0
LINE
8
BLACK
6
CONTINUOUS
10
1.82087
20
1.23425
11
1.82085
21
1.2331
0
LINE
8
BLACK
6
CONTINUOUS
10
1.82085
20
1.2331
11
1.81984
21
1.22509
0
LINE
8
BLACK
6
CONTINUOUS
10
1.81984
20
1.22509
11
1.81729
21
1.21744
0
LINE
8
BLACK
6
CONTINUOUS
10
1.81729
20
1.21744
11
1.81331
21
1.21042
0
LINE
8
BLACK
6
CONTINUOUS
10
1.81331
20
1.21042
11
1.80804
21
1.20432
0
LINE
8
BLACK
6
CONTINUOUS
10
1.80804
20
1.20432
11
1.80168
21
1.19935
0
LINE
8
BLACK
6
CONTINUOUS
10
1.80168
20
1.19935
11
1.79448
21
1.19571
0
LINE
8
BLACK
6
CONTINUOUS
10
1.79448
20
1.19571
11
1.78671
21
1.19354
0
LINE
8
BLACK
6
CONTINUOUS
10
1.78671
20
1.19354
11
1.77866
21
1.19292
0
LINE
8
BLACK
6
CONTINUOUS
10
1.77866
20
1.19292
11
1.77065
21
1.19388
0
LINE
8
BLACK
6
CONTINUOUS
10
1.77065
20
1.19388
11
1.76298
21
1.19637
0
LINE
8
BLACK
6
CONTINUOUS
10
1.76298
20
1.19637
11
1.75594
21
1.20031
0
LINE
8
BLACK
6
CONTINUOUS
10
1.75594
20
1.20031
11
1.74979
21
1.20554
0
LINE
8
BLACK
6
CONTINUOUS
10
1.74979
20
1.20554
11
1.74478
21
1.21186
0
LINE
8
BLACK
6
CONTINUOUS
10
1.74478
20
1.21186
11
1.74109
21
1.21903
0
LINE
8
BLACK
6
CONTINUOUS
10
1.74109
20
1.21903
11
1.73887
21
1.22679
0
LINE
8
BLACK
6
CONTINUOUS
10
1.73887
20
1.22679
11
1.73819
21
1.23483
0
LINE
8
BLACK
6
CONTINUOUS
10
1.73819
20
1.23483
11
1.73909
21
1.24285
0
LINE
8
BLACK
6
CONTINUOUS
10
1.73909
20
1.24285
11
1.74153
21
1.25054
0
LINE
8
BLACK
6
CONTINUOUS
10
1.74153
20
1.25054
11
1.74542
21
1.25761
0
LINE
8
BLACK
6
CONTINUOUS
10
1.74542
20
1.25761
11
1.7506
21
1.26379
0
LINE
8
BLACK
6
CONTINUOUS
10
1.7506
20
1.26379
11
1.75689
21
1.26884
0
LINE
8
BLACK
6
CONTINUOUS
10
1.75689
20
1.26884
11
1.76404
21
1.27258
0
LINE
8
BLACK
6
CONTINUOUS
10
1.76404
20
1.27258
11
1.77178
21
1.27486
0
LINE
8
BLACK
6
CONTINUOUS
10
1.77178
20
1.27486
11
1.77982
21
1.27559
0
LINE
8
BLACK
6
CONTINUOUS
10
1.77982
20
1.27559
11
1.78784
21
1.27475
0
LINE
8
BLACK
6
CONTINUOUS
10
0.563184
20
1.84676
11
0.584137
21
1.84382
0
LINE
8
BLACK
6
CONTINUOUS
10
0.584137
20
1.84382
11
0.604835
21
1.83942
0
LINE
8
BLACK
6
CONTINUOUS
10
0.604835
20
1.83942
11
0.625174
21
1.83359
0
LINE
8
BLACK
6
CONTINUOUS
10
0.625174
20
1.83359
11
0.645058
21
1.82635
0
LINE
8
BLACK
6
CONTINUOUS
10
0.645058
20
1.82635
11
0.664388
21
1.81774
0
LINE
8
BLACK
6
CONTINUOUS
10
0.664388
20
1.81774
11
0.683071
21
1.80781
0
LINE
8
BLACK
6
CONTINUOUS
10
0.683071
20
1.80781
11
0.701015
21
1.7966
0
LINE
8
BLACK
6
CONTINUOUS
10
0.701015
20
1.7966
11
0.718134
21
1.78416
0
LINE
8
BLACK
6
CONTINUOUS
10
0.718134
20
1.78416
11
0.734343
21
1.77056
0
LINE
8
BLACK
6
CONTINUOUS
10
0.734343
20
1.77056
11
0.749564
21
1.75586
0
LINE
8
BLACK
6
CONTINUOUS
10
0.749564
20
1.75586
11
0.763722
21
1.74014
0
LINE
8
BLACK
6
CONTINUOUS
10
0.763722
20
1.74014
11
0.776749
21
1.72346
0
LINE
8
BLACK
6
CONTINUOUS
10
0.776749
20
1.72346
11
0.788581
21
1.70592
0
LINE
8
BLACK
6
CONTINUOUS
10
0.788581
20
1.70592
11
0.799161
21
1.6876
0
LINE
8
BLACK
6
CONTINUOUS
10
0.799161
20
1.6876
11
0.808437
21
1.66858
0
LINE
8
BLACK
6
CONTINUOUS
10
0.808437
20
1.66858
11
0.816364
21
1.64896
0
LINE
8
BLACK
6
CONTINUOUS
10
0.816364
20
1.64896
11
0.822902
21
1.62883
0
LINE
8
BLACK
6
CONTINUOUS
10
0.822902
20
1.62883
11
0.828021
21
1.6083
0
LINE
8
BLACK
6
CONTINUOUS
10
0.828021
20
1.6083
11
0.831695
21
1.58747
0
LINE
8
BLACK
6
CONTINUOUS
10
0.831695
20
1.58747
11
0.833907
21
1.56642
0
LINE
8
BLACK
6
CONTINUOUS
10
0.833907
20
1.56642
11
0.834646
21
1.54528
0
LINE
8
BLACK
6
CONTINUOUS
10
0.834646
20
1.54528
11
0.833907
21
1.52413
0
LINE
8
BLACK
6
CONTINUOUS
10
0.833907
20
1.52413
11
0.831695
21
1.50309
0
LINE
8
BLACK
6
CONTINUOUS
10
0.831695
20
1.50309
11
0.828021
21
1.48225
0
LINE
8
BLACK
6
CONTINUOUS
10
0.828021
20
1.48225
11
0.822902
21
1.46172
0
LINE
8
BLACK
6
CONTINUOUS
10
0.822902
20
1.46172
11
0.816364
21
1.44159
0
LINE
8
BLACK
6
CONTINUOUS
10
0.816364
20
1.44159
11
0.808437
21
1.42197
0
LINE
8
BLACK
6
CONTINUOUS
10
0.808437
20
1.42197
11
0.799161
21
1.40296
0
LINE
8
BLACK
6
CONTINUOUS
10
0.799161
20
1.40296
11
0.788581
21
1.38463
0
LINE
8
BLACK
6
CONTINUOUS
10
0.788581
20
1.38463
11
0.776749
21
1.36709
0
LINE
8
BLACK
6
CONTINUOUS
10
0.776749
20
1.36709
11
0.763722
21
1.35041
0
LINE
8
BLACK
6
CONTINUOUS
10
0.763722
20
1.35041
11
0.749564
21
1.33469
0
LINE
8
BLACK
6
CONTINUOUS
10
0.749564
20
1.33469
11
0.734343
21
1.31999
0
LINE
8
BLACK
6
CONTINUOUS
10
0.734343
20
1.31999
11
0.718134
21
1.30639
0
LINE
8
BLACK
6
CONTINUOUS
10
0.718134
20
1.30639
11
0.701015
21
1.29395
0
LINE
8
BLACK
6
CONTINUOUS
10
0.701015
20
1.29395
11
0.683071
21
1.28274
0
LINE
8
BLACK
6
CONTINUOUS
10
0.683071
20
1.28274
11
0.664388
21
1.27281
0
LINE
8
BLACK
6
CONTINUOUS
10
0.664388
20
1.27281
11
0.645058
21
1.2642
0
LINE
8
BLACK
6
CONTINUOUS
10
0.645058
20
1.2642
11
0.625174
21
1.25696
0
LINE
8
BLACK
6
CONTINUOUS
10
0.625174
20
1.25696
11
0.604835
21
1.25113
0
LINE
8
BLACK
6
CONTINUOUS
10
0.604835
20
1.25113
11
0.584137
21
1.24673
0
LINE
8
BLACK
6
CONTINUOUS
10
0.584137
20
1.24673
11
0.563184
21
1.24379
0
LINE
8
BLACK
6
CONTINUOUS
10
0.563184
20
1.24379
11
0.542076
21
1.24231
0
LINE
8
BLACK
6
CONTINUOUS
10
0.542076
20
1.24231
11
0.520916
21
1.24231
0
LINE
8
BLACK
6
CONTINUOUS
10
0.520916
20
1.24231
11
0.499808
21
1.24379
0
LINE
8
BLACK
6
CONTINUOUS
10
0.499808
20
1.24379
11
0.478855
21
1.24673
0
LINE
8
BLACK
6
CONTINUOUS
10
0.478855
20
1.24673
11
0.458158
21
1.25113
0
LINE
8
BLACK
6
CONTINUOUS
10
0.458158
20
1.25113
11
0.437818
21
1.25696
0
LINE
8
BLACK
6
CONTINUOUS
10
0.437818
20
1.25696
11
0.417934
21
1.2642
0
LINE
8
BLACK
6
CONTINUOUS
10
0.417934
20
1.2642
11
0.398604
21
1.27281
0
LINE
8
BLACK
6
CONTINUOUS
10
0.398604
20
1.27281
11
0.379921
21
1.28274
0
LINE
8
BLACK
6
CONTINUOUS
10
0.379921
20
1.28274
11
0.361977
21
1.29395
0
LINE
8
BLACK
6
CONTINUOUS
10
0.361977
20
1.29395
11
0.344859
21
1.30639
0
LINE
8
BLACK
6
CONTINUOUS
10
0.344859
20
1.30639
11
0.328649
21
1.31999
0
LINE
8
BLACK
6
CONTINUOUS
10
0.328649
20
1.31999
11
0.313429
21
1.33469
0
LINE
8
BLACK
6
CONTINUOUS
10
0.313429
20
1.33469
11
0.29927
21
1.35041
0
LINE
8
BLACK
6
CONTINUOUS
10
0.29927
20
1.35041
11
0.286243
21
1.36709
0
LINE
8
BLACK
6
CONTINUOUS
10
0.286243
20
1.36709
11
0.274411
21
1.38463
0
LINE
8
BLACK
6
CONTINUOUS
10
0.274411
20
1.38463
11
0.263831
21
1.40296
0
LINE
8
BLACK
6
CONTINUOUS
10
0.263831
20
1.40296
11
0.254555
21
1.42197
0
LINE
8
BLACK
6
CONTINUOUS
10
0.254555
20
1.42197
11
0.246629
21
1.44159
0
LINE
8
BLACK
6
CONTINUOUS
10
0.246629
20
1.44159
11
0.24009
21
1.46172
0
LINE
8
BLACK
6
CONTINUOUS
10
0.24009
20
1.46172
11
0.234971
21
1.48225
0
LINE
8
BLACK
6
CONTINUOUS
10
0.234971
20
1.48225
11
0.231297
21
1.50309
0
LINE
8
BLACK
6
CONTINUOUS
10
0.231297
20
1.50309
11
0.229085
21
1.52413
0
LINE
8
BLACK
6
CONTINUOUS
10
0.229085
20
1.52413
11
0.228346
21
1.54528
0
LINE
8
BLACK
6
CONTINUOUS
10
0.228346
20
1.54528
11
0.229085
21
1.56642
0
LINE
8
BLACK
6
CONTINUOUS
10
0.229085
20
1.56642
11
0.231297
21
1.58747
0
LINE
8
BLACK
6
CONTINUOUS
10
0.231297
20
1.58747
11
0.234971
21
1.6083
0
LINE
8
BLACK
6
CONTINUOUS
10
0.234971
20
1.6083
11
0.24009
21
1.62883
0
LINE
8
BLACK
6
CONTINUOUS
10
0.24009
20
1.62883
11
0.246629
21
1.64896
0
LINE
8
BLACK
6
CONTINUOUS
10
0.246629
20
1.64896
11
0.254555
21
1.66858
0
LINE
8
BLACK
6
CONTINUOUS
10
0.254555
20
1.66858
11
0.263831
21
1.6876
0
LINE
8
BLACK
6
CONTINUOUS
10
0.263831
20
1.6876
11
0.274411
21
1.70592
0
LINE
8
BLACK
6
CONTINUOUS
10
0.274411
20
1.70592
11
0.286243
21
1.72346
0
LINE
8
BLACK
6
CONTINUOUS
10
0.286243
20
1.72346
11
0.29927
21
1.74014
0
LINE
8
BLACK
6
CONTINUOUS
10
0.29927
20
1.74014
11
0.313429
21
1.75586
0
LINE
8
BLACK
6
CONTINUOUS
10
0.313429
20
1.75586
11
0.328649
21
1.77056
0
LINE
8
BLACK
6
CONTINUOUS
10
0.328649
20
1.77056
11
0.344859
21
1.78416
0
LINE
8
BLACK
6
CONTINUOUS
10
0.344859
20
1.78416
11
0.361977
21
1.7966
0
LINE
8
BLACK
6
CONTINUOUS
10
0.361977
20
1.7966
11
0.379921
21
1.80781
0
LINE
8
BLACK
6
CONTINUOUS
10
0.379921
20
1.80781
11
0.398604
21
1.81774
0
LINE
8
BLACK
6
CONTINUOUS
10
0.398604
20
1.81774
11
0.417934
21
1.82635
0
LINE
8
BLACK
6
CONTINUOUS
10
0.417934
20
1.82635
11
0.437818
21
1.83359
0
LINE
8
BLACK
6
CONTINUOUS
10
0.437818
20
1.83359
11
0.458158
21
1.83942
0
LINE
8
BLACK
6
CONTINUOUS
10
0.458158
20
1.83942
11
0.478855
21
1.84382
0
LINE
8
BLACK
6
CONTINUOUS
10
0.478855
20
1.84382
11
0.499808
21
1.84676
0
LINE
8
BLACK
6
CONTINUOUS
10
0.499808
20
1.84676
11
0.520916
21
1.84824
0
LINE
8
BLACK
6
CONTINUOUS
10
0.520916
20
1.84824
11
0.542076
21
1.84824
0
LINE
8
BLACK
6
CONTINUOUS
10
0.542076
20
1.84824
11
0.563184
21
1.84676
0
LINE
8
BLACK
6
CONTINUOUS
10
1.77695
20
1.56691
11
1.78337
21
1.56534
0
LINE
8
BLACK
6
CONTINUOUS
10
1.78337
20
1.56534
11
1.78926
21
1.56233
0
LINE
8
BLACK
6
CONTINUOUS
10
1.78926
20
1.56233
11
1.7943
21
1.55805
0
LINE
8
BLACK
6
CONTINUOUS
10
1.7943
20
1.55805
11
1.79822
21
1.55272
0
LINE
8
BLACK
6
CONTINUOUS
10
1.79822
20
1.55272
11
1.80081
21
1.54664
0
LINE
8
BLACK
6
CONTINUOUS
10
1.80081
20
1.54664
11
1.80193
21
1.54013
0
LINE
8
BLACK
6
CONTINUOUS
10
1.80193
20
1.54013
11
1.80152
21
1.53353
0
LINE
8
BLACK
6
CONTINUOUS
10
1.80152
20
1.53353
11
1.7996
21
1.5272
0
LINE
8
BLACK
6
CONTINUOUS
10
1.7996
20
1.5272
11
1.79628
21
1.52148
0
LINE
8
BLACK
6
CONTINUOUS
10
1.79628
20
1.52148
11
1.79173
21
1.51669
0
LINE
8
BLACK
6
CONTINUOUS
10
1.79173
20
1.51669
11
1.78621
21
1.51306
0
LINE
8
BLACK
6
CONTINUOUS
10
1.78621
20
1.51306
11
1.77999
21
1.5108
0
LINE
8
BLACK
6
CONTINUOUS
10
1.77999
20
1.5108
11
1.77343
21
1.51004
0
LINE
8
BLACK
6
CONTINUOUS
10
1.77343
20
1.51004
11
1.73209
21
1.51004
0
LINE
8
BLACK
6
CONTINUOUS
10
1.73209
20
1.51004
11
1.72856
21
1.51026
0
LINE
8
BLACK
6
CONTINUOUS
10
1.72856
20
1.51026
11
1.72214
21
1.51183
0
LINE
8
BLACK
6
CONTINUOUS
10
1.72214
20
1.51183
11
1.71625
21
1.51484
0
LINE
8
BLACK
6
CONTINUOUS
10
1.71625
20
1.51484
11
1.71121
21
1.51912
0
LINE
8
BLACK
6
CONTINUOUS
10
1.71121
20
1.51912
11
1.70729
21
1.52444
0
LINE
8
BLACK
6
CONTINUOUS
10
1.70729
20
1.52444
11
1.7047
21
1.53052
0
LINE
8
BLACK
6
CONTINUOUS
10
1.7047
20
1.53052
11
1.70359
21
1.53704
0
LINE
8
BLACK
6
CONTINUOUS
10
1.70359
20
1.53704
11
1.70399
21
1.54364
0
LINE
8
BLACK
6
CONTINUOUS
10
1.70399
20
1.54364
11
1.70591
21
1.54996
0
LINE
8
BLACK
6
CONTINUOUS
10
1.70591
20
1.54996
11
1.70923
21
1.55568
0
LINE
8
BLACK
6
CONTINUOUS
10
1.70923
20
1.55568
11
1.71378
21
1.56048
0
LINE
8
BLACK
6
CONTINUOUS
10
1.71378
20
1.56048
11
1.71931
21
1.5641
0
LINE
8
BLACK
6
CONTINUOUS
10
1.71931
20
1.5641
11
1.72552
21
1.56636
0
LINE
8
BLACK
6
CONTINUOUS
10
1.72552
20
1.56636
11
1.73209
21
1.56713
0
LINE
8
BLACK
6
CONTINUOUS
10
1.73209
20
1.56713
11
1.77343
21
1.56713
0
LINE
8
BLACK
6
CONTINUOUS
10
1.77343
20
1.56713
11
1.77695
21
1.56691
0
LINE
8
BLACK
6
CONTINUOUS
10
1.9373
20
1.56614
11
1.94386
21
1.56528
0
LINE
8
BLACK
6
CONTINUOUS
10
1.94386
20
1.56528
11
1.95003
21
1.56287
0
LINE
8
BLACK
6
CONTINUOUS
10
1.95003
20
1.56287
11
1.95545
21
1.55906
0
LINE
8
BLACK
6
CONTINUOUS
10
1.95545
20
1.55906
11
1.9598
21
1.55407
0
LINE
8
BLACK
6
CONTINUOUS
10
1.9598
20
1.55407
11
1.96284
21
1.54819
0
LINE
8
BLACK
6
CONTINUOUS
10
1.96284
20
1.54819
11
1.96438
21
1.54175
0
LINE
8
BLACK
6
CONTINUOUS
10
1.96438
20
1.54175
11
1.96435
21
1.53513
0
LINE
8
BLACK
6
CONTINUOUS
10
1.96435
20
1.53513
11
1.96274
21
1.52871
0
LINE
8
BLACK
6
CONTINUOUS
10
1.96274
20
1.52871
11
1.95964
21
1.52285
0
LINE
8
BLACK
6
CONTINUOUS
10
1.95964
20
1.52285
11
1.95523
21
1.51791
0
LINE
8
BLACK
6
CONTINUOUS
10
1.95523
20
1.51791
11
1.94978
21
1.51416
0
LINE
8
BLACK
6
CONTINUOUS
10
1.94978
20
1.51416
11
1.94358
21
1.51182
0
LINE
8
BLACK
6
CONTINUOUS
10
1.94358
20
1.51182
11
1.93701
21
1.51102
0
LINE
8
BLACK
6
CONTINUOUS
10
1.93701
20
1.51102
11
1.89764
21
1.51102
0
LINE
8
BLACK
6
CONTINUOUS
10
1.89764
20
1.51102
11
1.89735
21
1.51103
0
LINE
8
BLACK
6
CONTINUOUS
10
1.89735
20
1.51103
11
1.89078
21
1.51189
0
LINE
8
BLACK
6
CONTINUOUS
10
1.89078
20
1.51189
11
1.88461
21
1.51429
0
LINE
8
BLACK
6
CONTINUOUS
10
1.88461
20
1.51429
11
1.8792
21
1.5181
0
LINE
8
BLACK
6
CONTINUOUS
10
1.8792
20
1.5181
11
1.87484
21
1.52309
0
LINE
8
BLACK
6
CONTINUOUS
10
1.87484
20
1.52309
11
1.87181
21
1.52898
0
LINE
8
BLACK
6
CONTINUOUS
10
1.87181
20
1.52898
11
1.87026
21
1.53542
0
LINE
8
BLACK
6
CONTINUOUS
10
1.87026
20
1.53542
11
1.8703
21
1.54204
0
LINE
8
BLACK
6
CONTINUOUS
10
1.8703
20
1.54204
11
1.87191
21
1.54846
0
LINE
8
BLACK
6
CONTINUOUS
10
1.87191
20
1.54846
11
1.87501
21
1.55431
0
LINE
8
BLACK
6
CONTINUOUS
10
1.87501
20
1.55431
11
1.87941
21
1.55926
0
LINE
8
BLACK
6
CONTINUOUS
10
1.87941
20
1.55926
11
1.88487
21
1.56301
0
LINE
8
BLACK
6
CONTINUOUS
10
1.88487
20
1.56301
11
1.89106
21
1.56535
0
LINE
8
BLACK
6
CONTINUOUS
10
1.89106
20
1.56535
11
1.89764
21
1.56614
0
LINE
8
BLACK
6
CONTINUOUS
10
1.89764
20
1.56614
11
1.93701
21
1.56614
0
LINE
8
BLACK
6
CONTINUOUS
10
1.93701
20
1.56614
11
1.9373
21
1.56614
0
LINE
8
BLACK
6
CONTINUOUS
10
1.48205
20
1.56684
11
1.48843
21
1.56524
0
LINE
8
BLACK
6
CONTINUOUS
10
1.48843
20
1.56524
11
1.49424
21
1.56216
0
LINE
8
BLACK
6
CONTINUOUS
10
1.49424
20
1.56216
11
1.49916
21
1.55779
0
LINE
8
BLACK
6
CONTINUOUS
10
1.49916
20
1.55779
11
1.50288
21
1.55237
0
LINE
8
BLACK
6
CONTINUOUS
10
1.50288
20
1.55237
11
1.50521
21
1.54621
0
LINE
8
BLACK
6
CONTINUOUS
10
1.50521
20
1.54621
11
1.506
21
1.53969
0
LINE
8
BLACK
6
CONTINUOUS
10
1.506
20
1.53969
11
1.50599
21
1.53911
0
LINE
8
BLACK
6
CONTINUOUS
10
1.50599
20
1.53911
11
1.50506
21
1.5326
0
LINE
8
BLACK
6
CONTINUOUS
10
1.50506
20
1.5326
11
1.50261
21
1.5265
0
LINE
8
BLACK
6
CONTINUOUS
10
1.50261
20
1.5265
11
1.49877
21
1.52116
0
LINE
8
BLACK
6
CONTINUOUS
10
1.49877
20
1.52116
11
1.49377
21
1.51688
0
LINE
8
BLACK
6
CONTINUOUS
10
1.49377
20
1.51688
11
1.48789
21
1.51393
0
LINE
8
BLACK
6
CONTINUOUS
10
1.48789
20
1.51393
11
1.48148
21
1.51246
0
LINE
8
BLACK
6
CONTINUOUS
10
1.48148
20
1.51246
11
1.47491
21
1.51256
0
LINE
8
BLACK
6
CONTINUOUS
10
1.47491
20
1.51256
11
1.46854
21
1.51423
0
LINE
8
BLACK
6
CONTINUOUS
10
1.46854
20
1.51423
11
1.46276
21
1.51737
0
LINE
8
BLACK
6
CONTINUOUS
10
1.46276
20
1.51737
11
1.4579
21
1.5218
0
LINE
8
BLACK
6
CONTINUOUS
10
1.4579
20
1.5218
11
1.45423
21
1.52726
0
LINE
8
BLACK
6
CONTINUOUS
10
1.45423
20
1.52726
11
1.45197
21
1.53343
0
LINE
8
BLACK
6
CONTINUOUS
10
1.45197
20
1.53343
11
1.45125
21
1.53997
0
LINE
8
BLACK
6
CONTINUOUS
10
1.45125
20
1.53997
11
1.45211
21
1.54649
0
LINE
8
BLACK
6
CONTINUOUS
10
1.45211
20
1.54649
11
1.4545
21
1.55262
0
LINE
8
BLACK
6
CONTINUOUS
10
1.4545
20
1.55262
11
1.45828
21
1.558
0
LINE
8
BLACK
6
CONTINUOUS
10
1.45828
20
1.558
11
1.46324
21
1.56233
0
LINE
8
BLACK
6
CONTINUOUS
10
1.46324
20
1.56233
11
1.46908
21
1.56534
0
LINE
8
BLACK
6
CONTINUOUS
10
1.46908
20
1.56534
11
1.47548
21
1.56688
0
LINE
8
BLACK
6
CONTINUOUS
10
1.47548
20
1.56688
11
1.48205
21
1.56684
0
LINE
8
BLACK
6
CONTINUOUS
10
1.40205
20
1.56684
11
1.40843
21
1.56524
0
LINE
8
BLACK
6
CONTINUOUS
10
1.40843
20
1.56524
11
1.41424
21
1.56216
0
LINE
8
BLACK
6
CONTINUOUS
10
1.41424
20
1.56216
11
1.41916
21
1.55779
0
LINE
8
BLACK
6
CONTINUOUS
10
1.41916
20
1.55779
11
1.42288
21
1.55237
0
LINE
8
BLACK
6
CONTINUOUS
10
1.42288
20
1.55237
11
1.42521
21
1.54621
0
LINE
8
BLACK
6
CONTINUOUS
10
1.42521
20
1.54621
11
1.426
21
1.53969
0
LINE
8
BLACK
6
CONTINUOUS
10
1.426
20
1.53969
11
1.42599
21
1.53911
0
LINE
8
BLACK
6
CONTINUOUS
10
1.42599
20
1.53911
11
1.42506
21
1.5326
0
LINE
8
BLACK
6
CONTINUOUS
10
1.42506
20
1.5326
11
1.42261
21
1.5265
0
LINE
8
BLACK
6
CONTINUOUS
10
1.42261
20
1.5265
11
1.41877
21
1.52116
0
LINE
8
BLACK
6
CONTINUOUS
10
1.41877
20
1.52116
11
1.41377
21
1.51688
0
LINE
8
BLACK
6
CONTINUOUS
10
1.41377
20
1.51688
11
1.40789
21
1.51393
0
LINE
8
BLACK
6
CONTINUOUS
10
1.40789
20
1.51393
11
1.40148
21
1.51246
0
LINE
8
BLACK
6
CONTINUOUS
10
1.40148
20
1.51246
11
1.39491
21
1.51256
0
LINE
8
BLACK
6
CONTINUOUS
10
1.39491
20
1.51256
11
1.38854
21
1.51423
0
LINE
8
BLACK
6
CONTINUOUS
10
1.38854
20
1.51423
11
1.38276
21
1.51737
0
LINE
8
BLACK
6
CONTINUOUS
10
1.38276
20
1.51737
11
1.3779
21
1.5218
0
LINE
8
BLACK
6
CONTINUOUS
10
1.3779
20
1.5218
11
1.37423
21
1.52726
0
LINE
8
BLACK
6
CONTINUOUS
10
1.37423
20
1.52726
11
1.37197
21
1.53343
0
LINE
8
BLACK
6
CONTINUOUS
10
1.37197
20
1.53343
11
1.37125
21
1.53997
0
LINE
8
BLACK
6
CONTINUOUS
10
1.37125
20
1.53997
11
1.37211
21
1.54649
0
LINE
8
BLACK
6
CONTINUOUS
10
1.37211
20
1.54649
11
1.3745
21
1.55262
0
LINE
8
BLACK
6
CONTINUOUS
10
1.3745
20
1.55262
11
1.37828
21
1.558
0
LINE
8
BLACK
6
CONTINUOUS
10
1.37828
20
1.558
11
1.38324
21
1.56233
0
LINE
8
BLACK
6
CONTINUOUS
10
1.38324
20
1.56233
11
1.38908
21
1.56534
0
LINE
8
BLACK
6
CONTINUOUS
10
1.38908
20
1.56534
11
1.39548
21
1.56688
0
LINE
8
BLACK
6
CONTINUOUS
10
1.39548
20
1.56688
11
1.40205
21
1.56684
0
LINE
8
BLACK
6
CONTINUOUS
10
1.77779
20
1.61485
11
1.78278
21
1.61278
0
LINE
8
BLACK
6
CONTINUOUS
10
1.78278
20
1.61278
11
1.78706
21
1.6095
0
LINE
8
BLACK
6
CONTINUOUS
10
1.78706
20
1.6095
11
1.79034
21
1.60522
0
LINE
8
BLACK
6
CONTINUOUS
10
1.79034
20
1.60522
11
1.79241
21
1.60023
0
LINE
8
BLACK
6
CONTINUOUS
10
1.79241
20
1.60023
11
1.79311
21
1.59488
0
LINE
8
BLACK
6
CONTINUOUS
10
1.79311
20
1.59488
11
1.79241
21
1.58953
0
LINE
8
BLACK
6
CONTINUOUS
10
1.79241
20
1.58953
11
1.79034
21
1.58455
0
LINE
8
BLACK
6
CONTINUOUS
10
1.79034
20
1.58455
11
1.78706
21
1.58027
0
LINE
8
BLACK
6
CONTINUOUS
10
1.78706
20
1.58027
11
1.78278
21
1.57698
0
LINE
8
BLACK
6
CONTINUOUS
10
1.78278
20
1.57698
11
1.77779
21
1.57492
0
LINE
8
BLACK
6
CONTINUOUS
10
1.77779
20
1.57492
11
1.77244
21
1.57421
0
LINE
8
BLACK
6
CONTINUOUS
10
1.77244
20
1.57421
11
1.76709
21
1.57492
0
LINE
8
BLACK
6
CONTINUOUS
10
1.76709
20
1.57492
11
1.76211
21
1.57698
0
LINE
8
BLACK
6
CONTINUOUS
10
1.76211
20
1.57698
11
1.75783
21
1.58027
0
LINE
8
BLACK
6
CONTINUOUS
10
1.75783
20
1.58027
11
1.75454
21
1.58455
0
LINE
8
BLACK
6
CONTINUOUS
10
1.75454
20
1.58455
11
1.75248
21
1.58953
0
LINE
8
BLACK
6
CONTINUOUS
10
1.75248
20
1.58953
11
1.75177
21
1.59488
0
LINE
8
BLACK
6
CONTINUOUS
10
1.75177
20
1.59488
11
1.75248
21
1.60023
0
LINE
8
BLACK
6
CONTINUOUS
10
1.75248
20
1.60023
11
1.75454
21
1.60522
0
LINE
8
BLACK
6
CONTINUOUS
10
1.75454
20
1.60522
11
1.75783
21
1.6095
0
LINE
8
BLACK
6
CONTINUOUS
10
1.75783
20
1.6095
11
1.76211
21
1.61278
0
LINE
8
BLACK
6
CONTINUOUS
10
1.76211
20
1.61278
11
1.76709
21
1.61485
0
LINE
8
BLACK
6
CONTINUOUS
10
1.76709
20
1.61485
11
1.77244
21
1.61555
0
LINE
8
BLACK
6
CONTINUOUS
10
1.77244
20
1.61555
11
1.77779
21
1.61485
0
LINE
8
BLACK
6
CONTINUOUS
10
1.44205
20
1.76684
11
1.44843
21
1.76524
0
LINE
8
BLACK
6
CONTINUOUS
10
1.44843
20
1.76524
11
1.45424
21
1.76216
0
LINE
8
BLACK
6
CONTINUOUS
10
1.45424
20
1.76216
11
1.45916
21
1.75779
0
LINE
8
BLACK
6
CONTINUOUS
10
1.45916
20
1.75779
11
1.46288
21
1.75237
0
LINE
8
BLACK
6
CONTINUOUS
10
1.46288
20
1.75237
11
1.46521
21
1.74621
0
LINE
8
BLACK
6
CONTINUOUS
10
1.46521
20
1.74621
11
1.466
21
1.73969
0
LINE
8
BLACK
6
CONTINUOUS
10
1.466
20
1.73969
11
1.46599
21
1.73911
0
LINE
8
BLACK
6
CONTINUOUS
10
1.46599
20
1.73911
11
1.46506
21
1.7326
0
LINE
8
BLACK
6
CONTINUOUS
10
1.46506
20
1.7326
11
1.46261
21
1.7265
0
LINE
8
BLACK
6
CONTINUOUS
10
1.46261
20
1.7265
11
1.45877
21
1.72116
0
LINE
8
BLACK
6
CONTINUOUS
10
1.45877
20
1.72116
11
1.45377
21
1.71688
0
LINE
8
BLACK
6
CONTINUOUS
10
1.45377
20
1.71688
11
1.44789
21
1.71393
0
LINE
8
BLACK
6
CONTINUOUS
10
1.44789
20
1.71393
11
1.44148
21
1.71246
0
LINE
8
BLACK
6
CONTINUOUS
10
1.44148
20
1.71246
11
1.43491
21
1.71256
0
LINE
8
BLACK
6
CONTINUOUS
10
1.43491
20
1.71256
11
1.42854
21
1.71423
0
LINE
8
BLACK
6
CONTINUOUS
10
1.42854
20
1.71423
11
1.42276
21
1.71737
0
LINE
8
BLACK
6
CONTINUOUS
10
1.42276
20
1.71737
11
1.4179
21
1.7218
0
LINE
8
BLACK
6
CONTINUOUS
10
1.4179
20
1.7218
11
1.41423
21
1.72726
0
LINE
8
BLACK
6
CONTINUOUS
10
1.41423
20
1.72726
11
1.41197
21
1.73343
0
LINE
8
BLACK
6
CONTINUOUS
10
1.41197
20
1.73343
11
1.41125
21
1.73997
0
LINE
8
BLACK
6
CONTINUOUS
10
1.41125
20
1.73997
11
1.41211
21
1.74649
0
LINE
8
BLACK
6
CONTINUOUS
10
1.41211
20
1.74649
11
1.4145
21
1.75262
0
LINE
8
BLACK
6
CONTINUOUS
10
1.4145
20
1.75262
11
1.41828
21
1.758
0
LINE
8
BLACK
6
CONTINUOUS
10
1.41828
20
1.758
11
1.42324
21
1.76233
0
LINE
8
BLACK
6
CONTINUOUS
10
1.42324
20
1.76233
11
1.42908
21
1.76534
0
LINE
8
BLACK
6
CONTINUOUS
10
1.42908
20
1.76534
11
1.43548
21
1.76688
0
LINE
8
BLACK
6
CONTINUOUS
10
1.43548
20
1.76688
11
1.44205
21
1.76684
0
LINE
8
BLACK
6
CONTINUOUS
10
0.796973
20
1.85002
11
0.805453
21
1.84833
0
LINE
8
BLACK
6
CONTINUOUS
10
0.805453
20
1.84833
11
0.813483
21
1.84512
0
LINE
8
BLACK
6
CONTINUOUS
10
0.813483
20
1.84512
11
0.820795
21
1.84051
0
LINE
8
BLACK
6
CONTINUOUS
10
0.820795
20
1.84051
11
0.827144
21
1.83464
0
LINE
8
BLACK
6
CONTINUOUS
10
0.827144
20
1.83464
11
0.832317
21
1.82772
0
LINE
8
BLACK
6
CONTINUOUS
10
0.832317
20
1.82772
11
0.836141
21
1.81996
0
LINE
8
BLACK
6
CONTINUOUS
10
0.836141
20
1.81996
11
0.838488
21
1.81164
0
LINE
8
BLACK
6
CONTINUOUS
10
0.838488
20
1.81164
11
0.839279
21
1.80303
0
LINE
8
BLACK
6
CONTINUOUS
10
0.839279
20
1.80303
11
0.839214
21
1.80056
0
LINE
8
BLACK
6
CONTINUOUS
10
0.839214
20
1.80056
11
0.837973
21
1.792
0
LINE
8
BLACK
6
CONTINUOUS
10
0.837973
20
1.792
11
0.835194
21
1.78381
0
LINE
8
BLACK
6
CONTINUOUS
10
0.835194
20
1.78381
11
0.83097
21
1.77627
0
LINE
8
BLACK
6
CONTINUOUS
10
0.83097
20
1.77627
11
0.825441
21
1.76962
0
LINE
8
BLACK
6
CONTINUOUS
10
0.825441
20
1.76962
11
0.818794
21
1.7641
0
LINE
8
BLACK
6
CONTINUOUS
10
0.818794
20
1.7641
11
0.81125
21
1.75987
0
LINE
8
BLACK
6
CONTINUOUS
10
0.81125
20
1.75987
11
0.803063
21
1.75709
0
LINE
8
BLACK
6
CONTINUOUS
10
0.803063
20
1.75709
11
0.794507
21
1.75585
0
LINE
8
BLACK
6
CONTINUOUS
10
0.794507
20
1.75585
11
0.785868
21
1.75619
0
LINE
8
BLACK
6
CONTINUOUS
10
0.785868
20
1.75619
11
0.777435
21
1.7581
0
LINE
8
BLACK
6
CONTINUOUS
10
0.777435
20
1.7581
11
0.769492
21
1.76151
0
LINE
8
BLACK
6
CONTINUOUS
10
0.769492
20
1.76151
11
0.762303
21
1.76631
0
LINE
8
BLACK
6
CONTINUOUS
10
0.762303
20
1.76631
11
0.75611
21
1.77235
0
LINE
8
BLACK
6
CONTINUOUS
10
0.75611
20
1.77235
11
0.75112
21
1.77941
0
LINE
8
BLACK
6
CONTINUOUS
10
0.75112
20
1.77941
11
0.7475
21
1.78726
0
LINE
8
BLACK
6
CONTINUOUS
10
0.7475
20
1.78726
11
0.745372
21
1.79564
0
LINE
8
BLACK
6
CONTINUOUS
10
0.745372
20
1.79564
11
0.744807
21
1.80427
0
LINE
8
BLACK
6
CONTINUOUS
10
0.744807
20
1.80427
11
0.745823
21
1.81285
0
LINE
8
BLACK
6
CONTINUOUS
10
0.745823
20
1.81285
11
0.748387
21
1.82111
0
LINE
8
BLACK
6
CONTINUOUS
10
0.748387
20
1.82111
11
0.752412
21
1.82876
0
LINE
8
BLACK
6
CONTINUOUS
10
0.752412
20
1.82876
11
0.757765
21
1.83555
0
LINE
8
BLACK
6
CONTINUOUS
10
0.757765
20
1.83555
11
0.764265
21
1.84125
0
LINE
8
BLACK
6
CONTINUOUS
10
0.764265
20
1.84125
11
0.771695
21
1.84567
0
LINE
8
BLACK
6
CONTINUOUS
10
0.771695
20
1.84567
11
0.779807
21
1.84866
0
LINE
8
BLACK
6
CONTINUOUS
10
0.779807
20
1.84866
11
0.788328
21
1.85013
0
LINE
8
BLACK
6
CONTINUOUS
10
0.788328
20
1.85013
11
0.796973
21
1.85002
0
LINE
8
BLACK
6
CONTINUOUS
10
1.77779
20
1.84241
11
1.78278
21
1.84034
0
LINE
8
BLACK
6
CONTINUOUS
10
1.78278
20
1.84034
11
1.78706
21
1.83706
0
LINE
8
BLACK
6
CONTINUOUS
10
1.78706
20
1.83706
11
1.79034
21
1.83278
0
LINE
8
BLACK
6
CONTINUOUS
10
1.79034
20
1.83278
11
1.79241
21
1.82779
0
LINE
8
BLACK
6
CONTINUOUS
10
1.79241
20
1.82779
11
1.79311
21
1.82244
0
LINE
8
BLACK
6
CONTINUOUS
10
1.79311
20
1.82244
11
1.79241
21
1.81709
0
LINE
8
BLACK
6
CONTINUOUS
10
1.79241
20
1.81709
11
1.79034
21
1.81211
0
LINE
8
BLACK
6
CONTINUOUS
10
1.79034
20
1.81211
11
1.78706
21
1.80783
0
LINE
8
BLACK
6
CONTINUOUS
10
1.78706
20
1.80783
11
1.78278
21
1.80454
0
LINE
8
BLACK
6
CONTINUOUS
10
1.78278
20
1.80454
11
1.77779
21
1.80248
0
LINE
8
BLACK
6
CONTINUOUS
10
1.77779
20
1.80248
11
1.77244
21
1.80177
0
LINE
8
BLACK
6
CONTINUOUS
10
1.77244
20
1.80177
11
1.76709
21
1.80248
0
LINE
8
BLACK
6
CONTINUOUS
10
1.76709
20
1.80248
11
1.76211
21
1.80454
0
LINE
8
BLACK
6
CONTINUOUS
10
1.76211
20
1.80454
11
1.75783
21
1.80783
0
LINE
8
BLACK
6
CONTINUOUS
10
1.75783
20
1.80783
11
1.75454
21
1.81211
0
LINE
8
BLACK
6
CONTINUOUS
10
1.75454
20
1.81211
11
1.75248
21
1.81709
0
LINE
8
BLACK
6
CONTINUOUS
10
1.75248
20
1.81709
11
1.75177
21
1.82244
0
LINE
8
BLACK
6
CONTINUOUS
10
1.75177
20
1.82244
11
1.75248
21
1.82779
0
LINE
8
BLACK
6
CONTINUOUS
10
1.75248
20
1.82779
11
1.75454
21
1.83278
0
LINE
8
BLACK
6
CONTINUOUS
10
1.75454
20
1.83278
11
1.75783
21
1.83706
0
LINE
8
BLACK
6
CONTINUOUS
10
1.75783
20
1.83706
11
1.76211
21
1.84034
0
LINE
8
BLACK
6
CONTINUOUS
10
1.76211
20
1.84034
11
1.76709
21
1.84241
0
LINE
8
BLACK
6
CONTINUOUS
10
1.76709
20
1.84241
11
1.77244
21
1.84311
0
LINE
8
BLACK
6
CONTINUOUS
10
1.77244
20
1.84311
11
1.77779
21
1.84241
0
LINE
8
BLACK
6
CONTINUOUS
10
1.77695
20
1.90706
11
1.78337
21
1.90549
0
LINE
8
BLACK
6
CONTINUOUS
10
1.78337
20
1.90549
11
1.78926
21
1.90249
0
LINE
8
BLACK
6
CONTINUOUS
10
1.78926
20
1.90249
11
1.7943
21
1.89821
0
LINE
8
BLACK
6
CONTINUOUS
10
1.7943
20
1.89821
11
1.79822
21
1.89288
0
LINE
8
BLACK
6
CONTINUOUS
10
1.79822
20
1.89288
11
1.80081
21
1.8868
0
LINE
8
BLACK
6
CONTINUOUS
10
1.80081
20
1.8868
11
1.80193
21
1.88028
0
LINE
8
BLACK
6
CONTINUOUS
10
1.80193
20
1.88028
11
1.80152
21
1.87369
0
LINE
8
BLACK
6
CONTINUOUS
10
1.80152
20
1.87369
11
1.7996
21
1.86736
0
LINE
8
BLACK
6
CONTINUOUS
10
1.7996
20
1.86736
11
1.79628
21
1.86164
0
LINE
8
BLACK
6
CONTINUOUS
10
1.79628
20
1.86164
11
1.79173
21
1.85684
0
LINE
8
BLACK
6
CONTINUOUS
10
1.79173
20
1.85684
11
1.78621
21
1.85322
0
LINE
8
BLACK
6
CONTINUOUS
10
1.78621
20
1.85322
11
1.77999
21
1.85096
0
LINE
8
BLACK
6
CONTINUOUS
10
1.77999
20
1.85096
11
1.77343
21
1.8502
0
LINE
8
BLACK
6
CONTINUOUS
10
1.77343
20
1.8502
11
1.73209
21
1.8502
0
LINE
8
BLACK
6
CONTINUOUS
10
1.73209
20
1.8502
11
1.72856
21
1.85042
0
LINE
8
BLACK
6
CONTINUOUS
10
1.72856
20
1.85042
11
1.72214
21
1.85199
0
LINE
8
BLACK
6
CONTINUOUS
10
1.72214
20
1.85199
11
1.71625
21
1.85499
0
LINE
8
BLACK
6
CONTINUOUS
10
1.71625
20
1.85499
11
1.71121
21
1.85927
0
LINE
8
BLACK
6
CONTINUOUS
10
1.71121
20
1.85927
11
1.70729
21
1.8646
0
LINE
8
BLACK
6
CONTINUOUS
10
1.70729
20
1.8646
11
1.7047
21
1.87068
0
LINE
8
BLACK
6
CONTINUOUS
10
1.7047
20
1.87068
11
1.70359
21
1.8772
0
LINE
8
BLACK
6
CONTINUOUS
10
1.70359
20
1.8772
11
1.70399
21
1.88379
0
LINE
8
BLACK
6
CONTINUOUS
10
1.70399
20
1.88379
11
1.70591
21
1.89012
0
LINE
8
BLACK
6
CONTINUOUS
10
1.70591
20
1.89012
11
1.70923
21
1.89584
0
LINE
8
BLACK
6
CONTINUOUS
10
1.70923
20
1.89584
11
1.71378
21
1.90064
0
LINE
8
BLACK
6
CONTINUOUS
10
1.71378
20
1.90064
11
1.71931
21
1.90426
0
LINE
8
BLACK
6
CONTINUOUS
10
1.71931
20
1.90426
11
1.72552
21
1.90652
0
LINE
8
BLACK
6
CONTINUOUS
10
1.72552
20
1.90652
11
1.73209
21
1.90728
0
LINE
8
BLACK
6
CONTINUOUS
10
1.73209
20
1.90728
11
1.77343
21
1.90728
0
LINE
8
BLACK
6
CONTINUOUS
10
1.77343
20
1.90728
11
1.77695
21
1.90706
0
LINE
8
BLACK
6
CONTINUOUS
10
1.9373
20
1.9063
11
1.94386
21
1.90543
0
LINE
8
BLACK
6
CONTINUOUS
10
1.94386
20
1.90543
11
1.95003
21
1.90303
0
LINE
8
BLACK
6
CONTINUOUS
10
1.95003
20
1.90303
11
1.95545
21
1.89922
0
LINE
8
BLACK
6
CONTINUOUS
10
1.95545
20
1.89922
11
1.9598
21
1.89423
0
LINE
8
BLACK
6
CONTINUOUS
10
1.9598
20
1.89423
11
1.96284
21
1.88835
0
LINE
8
BLACK
6
CONTINUOUS
10
1.96284
20
1.88835
11
1.96438
21
1.88191
0
LINE
8
BLACK
6
CONTINUOUS
10
1.96438
20
1.88191
11
1.96435
21
1.87529
0
LINE
8
BLACK
6
CONTINUOUS
10
1.96435
20
1.87529
11
1.96274
21
1.86886
0
LINE
8
BLACK
6
CONTINUOUS
10
1.96274
20
1.86886
11
1.95964
21
1.86301
0
LINE
8
BLACK
6
CONTINUOUS
10
1.95964
20
1.86301
11
1.95523
21
1.85807
0
LINE
8
BLACK
6
CONTINUOUS
10
1.95523
20
1.85807
11
1.94978
21
1.85432
0
LINE
8
BLACK
6
CONTINUOUS
10
1.94978
20
1.85432
11
1.94358
21
1.85198
0
LINE
8
BLACK
6
CONTINUOUS
10
1.94358
20
1.85198
11
1.93701
21
1.85118
0
LINE
8
BLACK
6
CONTINUOUS
10
1.93701
20
1.85118
11
1.89764
21
1.85118
0
LINE
8
BLACK
6
CONTINUOUS
10
1.89764
20
1.85118
11
1.89735
21
1.85118
0
LINE
8
BLACK
6
CONTINUOUS
10
1.89735
20
1.85118
11
1.89078
21
1.85205
0
LINE
8
BLACK
6
CONTINUOUS
10
1.89078
20
1.85205
11
1.88461
21
1.85445
0
LINE
8
BLACK
6
CONTINUOUS
10
1.88461
20
1.85445
11
1.8792
21
1.85826
0
LINE
8
BLACK
6
CONTINUOUS
10
1.8792
20
1.85826
11
1.87484
21
1.86325
0
LINE
8
BLACK
6
CONTINUOUS
10
1.87484
20
1.86325
11
1.87181
21
1.86913
0
LINE
8
BLACK
6
CONTINUOUS
10
1.87181
20
1.86913
11
1.87026
21
1.87557
0
LINE
8
BLACK
6
CONTINUOUS
10
1.87026
20
1.87557
11
1.8703
21
1.88219
0
LINE
8
BLACK
6
CONTINUOUS
10
1.8703
20
1.88219
11
1.87191
21
1.88862
0
LINE
8
BLACK
6
CONTINUOUS
10
1.87191
20
1.88862
11
1.87501
21
1.89447
0
LINE
8
BLACK
6
CONTINUOUS
10
1.87501
20
1.89447
11
1.87941
21
1.89941
0
LINE
8
BLACK
6
CONTINUOUS
10
1.87941
20
1.89941
11
1.88487
21
1.90316
0
LINE
8
BLACK
6
CONTINUOUS
10
1.88487
20
1.90316
11
1.89106
21
1.9055
0
LINE
8
BLACK
6
CONTINUOUS
10
1.89106
20
1.9055
11
1.89764
21
1.9063
0
LINE
8
BLACK
6
CONTINUOUS
10
1.89764
20
1.9063
11
1.93701
21
1.9063
0
LINE
8
BLACK
6
CONTINUOUS
10
1.93701
20
1.9063
11
1.9373
21
1.9063
0
LINE
8
BLACK
6
CONTINUOUS
10
1.53344
20
2.29704
11
1.54084
21
2.29549
0
LINE
8
BLACK
6
CONTINUOUS
10
1.54084
20
2.29549
11
1.54777
21
2.29249
0
LINE
8
BLACK
6
CONTINUOUS
10
1.54777
20
2.29249
11
1.55397
21
2.28816
0
LINE
8
BLACK
6
CONTINUOUS
10
1.55397
20
2.28816
11
1.55916
21
2.28266
0
LINE
8
BLACK
6
CONTINUOUS
10
1.55916
20
2.28266
11
1.56314
21
2.27624
0
LINE
8
BLACK
6
CONTINUOUS
10
1.56314
20
2.27624
11
1.56575
21
2.26914
0
LINE
8
BLACK
6
CONTINUOUS
10
1.56575
20
2.26914
11
1.56688
21
2.26167
0
LINE
8
BLACK
6
CONTINUOUS
10
1.56688
20
2.26167
11
1.56649
21
2.25412
0
LINE
8
BLACK
6
CONTINUOUS
10
1.56649
20
2.25412
11
1.56458
21
2.24681
0
LINE
8
BLACK
6
CONTINUOUS
10
1.56458
20
2.24681
11
1.56125
21
2.24002
0
LINE
8
BLACK
6
CONTINUOUS
10
1.56125
20
2.24002
11
1.55661
21
2.23405
0
LINE
8
BLACK
6
CONTINUOUS
10
1.55661
20
2.23405
11
1.55087
21
2.22913
0
LINE
8
BLACK
6
CONTINUOUS
10
1.55087
20
2.22913
11
1.54426
21
2.22547
0
LINE
8
BLACK
6
CONTINUOUS
10
1.54426
20
2.22547
11
1.53705
21
2.2232
0
LINE
8
BLACK
6
CONTINUOUS
10
1.53705
20
2.2232
11
1.52953
21
2.22244
0
LINE
8
BLACK
6
CONTINUOUS
10
1.52953
20
2.22244
11
1.50197
21
2.22244
0
LINE
8
BLACK
6
CONTINUOUS
10
1.50197
20
2.22244
11
1.49806
21
2.22265
0
LINE
8
BLACK
6
CONTINUOUS
10
1.49806
20
2.22265
11
1.49066
21
2.22419
0
LINE
8
BLACK
6
CONTINUOUS
10
1.49066
20
2.22419
11
1.48372
21
2.22719
0
LINE
8
BLACK
6
CONTINUOUS
10
1.48372
20
2.22719
11
1.47753
21
2.23153
0
LINE
8
BLACK
6
CONTINUOUS
10
1.47753
20
2.23153
11
1.47234
21
2.23702
0
LINE
8
BLACK
6
CONTINUOUS
10
1.47234
20
2.23702
11
1.46835
21
2.24345
0
LINE
8
BLACK
6
CONTINUOUS
10
1.46835
20
2.24345
11
1.46574
21
2.25054
0
LINE
8
BLACK
6
CONTINUOUS
10
1.46574
20
2.25054
11
1.46461
21
2.25802
0
LINE
8
BLACK
6
CONTINUOUS
10
1.46461
20
2.25802
11
1.46501
21
2.26556
0
LINE
8
BLACK
6
CONTINUOUS
10
1.46501
20
2.26556
11
1.46691
21
2.27288
0
LINE
8
BLACK
6
CONTINUOUS
10
1.46691
20
2.27288
11
1.47025
21
2.27966
0
LINE
8
BLACK
6
CONTINUOUS
10
1.47025
20
2.27966
11
1.47488
21
2.28564
0
LINE
8
BLACK
6
CONTINUOUS
10
1.47488
20
2.28564
11
1.48062
21
2.29055
0
LINE
8
BLACK
6
CONTINUOUS
10
1.48062
20
2.29055
11
1.48723
21
2.29422
0
LINE
8
BLACK
6
CONTINUOUS
10
1.48723
20
2.29422
11
1.49445
21
2.29648
0
LINE
8
BLACK
6
CONTINUOUS
10
1.49445
20
2.29648
11
1.50197
21
2.29724
0
LINE
8
BLACK
6
CONTINUOUS
10
1.50197
20
2.29724
11
1.52953
21
2.29724
0
LINE
8
BLACK
6
CONTINUOUS
10
1.52953
20
2.29724
11
1.53344
21
2.29704
0
LINE
8
BLACK
6
CONTINUOUS
10
0.549185
20
2.29704
11
0.556585
21
2.29549
0
LINE
8
BLACK
6
CONTINUOUS
10
0.556585
20
2.29549
11
0.563522
21
2.29249
0
LINE
8
BLACK
6
CONTINUOUS
10
0.563522
20
2.29249
11
0.569715
21
2.28816
0
LINE
8
BLACK
6
CONTINUOUS
10
0.569715
20
2.28816
11
0.574908
21
2.28266
0
LINE
8
BLACK
6
CONTINUOUS
10
0.574908
20
2.28266
11
0.578892
21
2.27624
0
LINE
8
BLACK
6
CONTINUOUS
10
0.578892
20
2.27624
11
0.581502
21
2.26914
0
LINE
8
BLACK
6
CONTINUOUS
10
0.581502
20
2.26914
11
0.582633
21
2.26167
0
LINE
8
BLACK
6
CONTINUOUS
10
0.582633
20
2.26167
11
0.582237
21
2.25412
0
LINE
8
BLACK
6
CONTINUOUS
10
0.582237
20
2.25412
11
0.580331
21
2.24681
0
LINE
8
BLACK
6
CONTINUOUS
10
0.580331
20
2.24681
11
0.576994
21
2.24002
0
LINE
8
BLACK
6
CONTINUOUS
10
0.576994
20
2.24002
11
0.572361
21
2.23405
0
LINE
8
BLACK
6
CONTINUOUS
10
0.572361
20
2.23405
11
0.566621
21
2.22913
0
LINE
8
BLACK
6
CONTINUOUS
10
0.566621
20
2.22913
11
0.56001
21
2.22547
0
LINE
8
BLACK
6
CONTINUOUS
10
0.56001
20
2.22547
11
0.552796
21
2.2232
0
LINE
8
BLACK
6
CONTINUOUS
10
0.552796
20
2.2232
11
0.545276
21
2.22244
0
LINE
8
BLACK
6
CONTINUOUS
10
0.545276
20
2.22244
11
0.517717
21
2.22244
0
LINE
8
BLACK
6
CONTINUOUS
10
0.517717
20
2.22244
11
0.513807
21
2.22265
0
LINE
8
BLACK
6
CONTINUOUS
10
0.513807
20
2.22265
11
0.506407
21
2.22419
0
LINE
8
BLACK
6
CONTINUOUS
10
0.506407
20
2.22419
11
0.49947
21
2.22719
0
LINE
8
BLACK
6
CONTINUOUS
10
0.49947
20
2.22719
11
0.493278
21
2.23153
0
LINE
8
BLACK
6
CONTINUOUS
10
0.493278
20
2.23153
11
0.488084
21
2.23702
0
LINE
8
BLACK
6
CONTINUOUS
10
0.488084
20
2.23702
11
0.4841
21
2.24345
0
LINE
8
BLACK
6
CONTINUOUS
10
0.4841
20
2.24345
11
0.48149
21
2.25054
0
LINE
8
BLACK
6
CONTINUOUS
10
0.48149
20
2.25054
11
0.48036
21
2.25802
0
LINE
8
BLACK
6
CONTINUOUS
10
0.48036
20
2.25802
11
0.480755
21
2.26556
0
LINE
8
BLACK
6
CONTINUOUS
10
0.480755
20
2.26556
11
0.482661
21
2.27288
0
LINE
8
BLACK
6
CONTINUOUS
10
0.482661
20
2.27288
11
0.485998
21
2.27966
0
LINE
8
BLACK
6
CONTINUOUS
10
0.485998
20
2.27966
11
0.490631
21
2.28564
0
LINE
8
BLACK
6
CONTINUOUS
10
0.490631
20
2.28564
11
0.496371
21
2.29055
0
LINE
8
BLACK
6
CONTINUOUS
10
0.496371
20
2.29055
11
0.502982
21
2.29422
0
LINE
8
BLACK
6
CONTINUOUS
10
0.502982
20
2.29422
11
0.510196
21
2.29648
0
LINE
8
BLACK
6
CONTINUOUS
10
0.510196
20
2.29648
11
0.517717
21
2.29724
0
LINE
8
BLACK
6
CONTINUOUS
10
0.517717
20
2.29724
11
0.545276
21
2.29724
0
LINE
8
BLACK
6
CONTINUOUS
10
0.545276
20
2.29724
11
0.549185
21
2.29704
0
LINE
8
BLACK
6
CONTINUOUS
10
1.53303
20
2.69398
11
1.549
21
2.6915
0
LINE
8
BLACK
6
CONTINUOUS
10
1.549
20
2.6915
11
1.56464
21
2.68749
0
LINE
8
BLACK
6
CONTINUOUS
10
1.56464
20
2.68749
11
1.57983
21
2.68196
0
LINE
8
BLACK
6
CONTINUOUS
10
1.57983
20
2.68196
11
1.59439
21
2.67498
0
LINE
8
BLACK
6
CONTINUOUS
10
1.59439
20
2.67498
11
1.60821
21
2.66661
0
LINE
8
BLACK
6
CONTINUOUS
10
1.60821
20
2.66661
11
1.62115
21
2.65694
0
LINE
8
BLACK
6
CONTINUOUS
10
1.62115
20
2.65694
11
1.63308
21
2.64604
0
LINE
8
BLACK
6
CONTINUOUS
10
1.63308
20
2.64604
11
1.64389
21
2.63404
0
LINE
8
BLACK
6
CONTINUOUS
10
1.64389
20
2.63404
11
1.65348
21
2.62103
0
LINE
8
BLACK
6
CONTINUOUS
10
1.65348
20
2.62103
11
1.66175
21
2.60716
0
LINE
8
BLACK
6
CONTINUOUS
10
1.66175
20
2.60716
11
1.66863
21
2.59254
0
LINE
8
BLACK
6
CONTINUOUS
10
1.66863
20
2.59254
11
1.67404
21
2.57732
0
LINE
8
BLACK
6
CONTINUOUS
10
1.67404
20
2.57732
11
1.67795
21
2.56165
0
LINE
8
BLACK
6
CONTINUOUS
10
1.67795
20
2.56165
11
1.68031
21
2.54566
0
LINE
8
BLACK
6
CONTINUOUS
10
1.68031
20
2.54566
11
1.6811
21
2.52953
0
LINE
8
BLACK
6
CONTINUOUS
10
1.6811
20
2.52953
11
1.68104
21
2.52491
0
LINE
8
BLACK
6
CONTINUOUS
10
1.68104
20
2.52491
11
1.6798
21
2.5088
0
LINE
8
BLACK
6
CONTINUOUS
10
1.6798
20
2.5088
11
1.67699
21
2.49289
0
LINE
8
BLACK
6
CONTINUOUS
10
1.67699
20
2.49289
11
1.67265
21
2.47733
0
LINE
8
BLACK
6
CONTINUOUS
10
1.67265
20
2.47733
11
1.66681
21
2.46227
0
LINE
8
BLACK
6
CONTINUOUS
10
1.66681
20
2.46227
11
1.65952
21
2.44785
0
LINE
8
BLACK
6
CONTINUOUS
10
1.65952
20
2.44785
11
1.65087
21
2.43421
0
LINE
8
BLACK
6
CONTINUOUS
10
1.65087
20
2.43421
11
1.64092
21
2.42148
0
LINE
8
BLACK
6
CONTINUOUS
10
1.64092
20
2.42148
11
1.62978
21
2.40978
0
LINE
8
BLACK
6
CONTINUOUS
10
1.62978
20
2.40978
11
1.61755
21
2.39923
0
LINE
8
BLACK
6
CONTINUOUS
10
1.61755
20
2.39923
11
1.60435
21
2.38991
0
LINE
8
BLACK
6
CONTINUOUS
10
1.60435
20
2.38991
11
1.5903
21
2.38193
0
LINE
8
BLACK
6
CONTINUOUS
10
1.5903
20
2.38193
11
1.57554
21
2.37536
0
LINE
8
BLACK
6
CONTINUOUS
10
1.57554
20
2.37536
11
1.56022
21
2.37026
0
LINE
8
BLACK
6
CONTINUOUS
10
1.56022
20
2.37026
11
1.54446
21
2.36669
0
LINE
8
BLACK
6
CONTINUOUS
10
1.54446
20
2.36669
11
1.52843
21
2.36466
0
LINE
8
BLACK
6
CONTINUOUS
10
1.52843
20
2.36466
11
1.51229
21
2.36421
0
LINE
8
BLACK
6
CONTINUOUS
10
1.51229
20
2.36421
11
1.49617
21
2.36534
0
LINE
8
BLACK
6
CONTINUOUS
10
1.49617
20
2.36534
11
1.48024
21
2.36803
0
LINE
8
BLACK
6
CONTINUOUS
10
1.48024
20
2.36803
11
1.46465
21
2.37227
0
LINE
8
BLACK
6
CONTINUOUS
10
1.46465
20
2.37227
11
1.44955
21
2.378
0
LINE
8
BLACK
6
CONTINUOUS
10
1.44955
20
2.378
11
1.43508
21
2.38519
0
LINE
8
BLACK
6
CONTINUOUS
10
1.43508
20
2.38519
11
1.42138
21
2.39375
0
LINE
8
BLACK
6
CONTINUOUS
10
1.42138
20
2.39375
11
1.40858
21
2.4036
0
LINE
8
BLACK
6
CONTINUOUS
10
1.40858
20
2.4036
11
1.3968
21
2.41466
0
LINE
8
BLACK
6
CONTINUOUS
10
1.3968
20
2.41466
11
1.38616
21
2.42682
0
LINE
8
BLACK
6
CONTINUOUS
10
1.38616
20
2.42682
11
1.37676
21
2.43995
0
LINE
8
BLACK
6
CONTINUOUS
10
1.37676
20
2.43995
11
1.36868
21
2.45394
0
LINE
8
BLACK
6
CONTINUOUS
10
1.36868
20
2.45394
11
1.36201
21
2.46866
0
LINE
8
BLACK
6
CONTINUOUS
10
1.36201
20
2.46866
11
1.3568
21
2.48395
0
LINE
8
BLACK
6
CONTINUOUS
10
1.3568
20
2.48395
11
1.35311
21
2.49968
0
LINE
8
BLACK
6
CONTINUOUS
10
1.35311
20
2.49968
11
1.35097
21
2.51569
0
LINE
8
BLACK
6
CONTINUOUS
10
1.35097
20
2.51569
11
1.35041
21
2.53184
0
LINE
8
BLACK
6
CONTINUOUS
10
1.35041
20
2.53184
11
1.35142
21
2.54796
0
LINE
8
BLACK
6
CONTINUOUS
10
1.35142
20
2.54796
11
1.35401
21
2.56391
0
LINE
8
BLACK
6
CONTINUOUS
10
1.35401
20
2.56391
11
1.35813
21
2.57953
0
LINE
8
BLACK
6
CONTINUOUS
10
1.35813
20
2.57953
11
1.36377
21
2.59467
0
LINE
8
BLACK
6
CONTINUOUS
10
1.36377
20
2.59467
11
1.37085
21
2.60919
0
LINE
8
BLACK
6
CONTINUOUS
10
1.37085
20
2.60919
11
1.37931
21
2.62295
0
LINE
8
BLACK
6
CONTINUOUS
10
1.37931
20
2.62295
11
1.38908
21
2.63582
0
LINE
8
BLACK
6
CONTINUOUS
10
1.38908
20
2.63582
11
1.40006
21
2.64767
0
LINE
8
BLACK
6
CONTINUOUS
10
1.40006
20
2.64767
11
1.41214
21
2.65839
0
LINE
8
BLACK
6
CONTINUOUS
10
1.41214
20
2.65839
11
1.42521
21
2.66789
0
LINE
8
BLACK
6
CONTINUOUS
10
1.42521
20
2.66789
11
1.43914
21
2.67607
0
LINE
8
BLACK
6
CONTINUOUS
10
1.43914
20
2.67607
11
1.45381
21
2.68284
0
LINE
8
BLACK
6
CONTINUOUS
10
1.45381
20
2.68284
11
1.46906
21
2.68815
0
LINE
8
BLACK
6
CONTINUOUS
10
1.46906
20
2.68815
11
1.48476
21
2.69195
0
LINE
8
BLACK
6
CONTINUOUS
10
1.48476
20
2.69195
11
1.50076
21
2.6942
0
LINE
8
BLACK
6
CONTINUOUS
10
1.50076
20
2.6942
11
1.5169
21
2.69488
0
LINE
8
BLACK
6
CONTINUOUS
10
1.5169
20
2.69488
11
1.53303
21
2.69398
0
LINE
8
BLACK
6
CONTINUOUS
10
0.54878
20
2.69398
11
0.564745
21
2.6915
0
LINE
8
BLACK
6
CONTINUOUS
10
0.564745
20
2.6915
11
0.580393
21
2.68749
0
LINE
8
BLACK
6
CONTINUOUS
10
0.580393
20
2.68749
11
0.595573
21
2.68196
0
LINE
8
BLACK
6
CONTINUOUS
10
0.595573
20
2.68196
11
0.610143
21
2.67498
0
LINE
8
BLACK
6
CONTINUOUS
10
0.610143
20
2.67498
11
0.623961
21
2.66661
0
LINE
8
BLACK
6
CONTINUOUS
10
0.623961
20
2.66661
11
0.636897
21
2.65694
0
LINE
8
BLACK
6
CONTINUOUS
10
0.636897
20
2.65694
11
0.648827
21
2.64604
0
LINE
8
BLACK
6
CONTINUOUS
10
0.648827
20
2.64604
11
0.659636
21
2.63404
0
LINE
8
BLACK
6
CONTINUOUS
10
0.659636
20
2.63404
11
0.669223
21
2.62103
0
LINE
8
BLACK
6
CONTINUOUS
10
0.669223
20
2.62103
11
0.677495
21
2.60716
0
LINE
8
BLACK
6
CONTINUOUS
10
0.677495
20
2.60716
11
0.684374
21
2.59254
0
LINE
8
BLACK
6
CONTINUOUS
10
0.684374
20
2.59254
11
0.689793
21
2.57732
0
LINE
8
BLACK
6
CONTINUOUS
10
0.689793
20
2.57732
11
0.693701
21
2.56165
0
LINE
8
BLACK
6
CONTINUOUS
10
0.693701
20
2.56165
11
0.696061
21
2.54566
0
LINE
8
BLACK
6
CONTINUOUS
10
0.696061
20
2.54566
11
0.69685
21
2.52953
0
LINE
8
BLACK
6
CONTINUOUS
10
0.69685
20
2.52953
11
0.696786
21
2.52491
0
LINE
8
BLACK
6
CONTINUOUS
10
0.696786
20
2.52491
11
0.695547
21
2.5088
0
LINE
8
BLACK
6
CONTINUOUS
10
0.695547
20
2.5088
11
0.692741
21
2.49289
0
LINE
8
BLACK
6
CONTINUOUS
10
0.692741
20
2.49289
11
0.688397
21
2.47733
0
LINE
8
BLACK
6
CONTINUOUS
10
0.688397
20
2.47733
11
0.682555
21
2.46227
0
LINE
8
BLACK
6
CONTINUOUS
10
0.682555
20
2.46227
11
0.675271
21
2.44785
0
LINE
8
BLACK
6
CONTINUOUS
10
0.675271
20
2.44785
11
0.666615
21
2.43421
0
LINE
8
BLACK
6
CONTINUOUS
10
0.666615
20
2.43421
11
0.656668
21
2.42148
0
LINE
8
BLACK
6
CONTINUOUS
10
0.656668
20
2.42148
11
0.645528
21
2.40978
0
LINE
8
BLACK
6
CONTINUOUS
10
0.645528
20
2.40978
11
0.633298
21
2.39923
0
LINE
8
BLACK
6
CONTINUOUS
10
0.633298
20
2.39923
11
0.620097
21
2.38991
0
LINE
8
BLACK
6
CONTINUOUS
10
0.620097
20
2.38991
11
0.606051
21
2.38193
0
LINE
8
BLACK
6
CONTINUOUS
10
0.606051
20
2.38193
11
0.591292
21
2.37536
0
LINE
8
BLACK
6
CONTINUOUS
10
0.591292
20
2.37536
11
0.575963
21
2.37026
0
LINE
8
BLACK
6
CONTINUOUS
10
0.575963
20
2.37026
11
0.56021
21
2.36669
0
LINE
8
BLACK
6
CONTINUOUS
10
0.56021
20
2.36669
11
0.544182
21
2.36466
0
LINE
8
BLACK
6
CONTINUOUS
10
0.544182
20
2.36466
11
0.528033
21
2.36421
0
LINE
8
BLACK
6
CONTINUOUS
10
0.528033
20
2.36421
11
0.511917
21
2.36534
0
LINE
8
BLACK
6
CONTINUOUS
10
0.511917
20
2.36534
11
0.495989
21
2.36803
0
LINE
8
BLACK
6
CONTINUOUS
10
0.495989
20
2.36803
11
0.480399
21
2.37227
0
LINE
8
BLACK
6
CONTINUOUS
10
0.480399
20
2.37227
11
0.465297
21
2.378
0
LINE
8
BLACK
6
CONTINUOUS
10
0.465297
20
2.378
11
0.450826
21
2.38519
0
LINE
8
BLACK
6
CONTINUOUS
10
0.450826
20
2.38519
11
0.437126
21
2.39375
0
LINE
8
BLACK
6
CONTINUOUS
10
0.437126
20
2.39375
11
0.424327
21
2.4036
0
LINE
8
BLACK
6
CONTINUOUS
10
0.424327
20
2.4036
11
0.41255
21
2.41466
0
LINE
8
BLACK
6
CONTINUOUS
10
0.41255
20
2.41466
11
0.401909
21
2.42682
0
LINE
8
BLACK
6
CONTINUOUS
10
0.401909
20
2.42682
11
0.392505
21
2.43995
0
LINE
8
BLACK
6
CONTINUOUS
10
0.392505
20
2.43995
11
0.384427
21
2.45394
0
LINE
8
BLACK
6
CONTINUOUS
10
0.384427
20
2.45394
11
0.377754
21
2.46866
0
LINE
8
BLACK
6
CONTINUOUS
10
0.377754
20
2.46866
11
0.372547
21
2.48395
0
LINE
8
BLACK
6
CONTINUOUS
10
0.372547
20
2.48395
11
0.368858
21
2.49968
0
LINE
8
BLACK
6
CONTINUOUS
10
0.368858
20
2.49968
11
0.366722
21
2.51569
0
LINE
8
BLACK
6
CONTINUOUS
10
0.366722
20
2.51569
11
0.366158
21
2.53184
0
LINE
8
BLACK
6
CONTINUOUS
10
0.366158
20
2.53184
11
0.367172
21
2.54796
0
LINE
8
BLACK
6
CONTINUOUS
10
0.367172
20
2.54796
11
0.369755
21
2.56391
0
LINE
8
BLACK
6
CONTINUOUS
10
0.369755
20
2.56391
11
0.373882
21
2.57953
0
LINE
8
BLACK
6
CONTINUOUS
10
0.373882
20
2.57953
11
0.379513
21
2.59467
0
LINE
8
BLACK
6
CONTINUOUS
10
0.379513
20
2.59467
11
0.386595
21
2.60919
0
LINE
8
BLACK
6
CONTINUOUS
10
0.386595
20
2.60919
11
0.39506
21
2.62295
0
LINE
8
BLACK
6
CONTINUOUS
10
0.39506
20
2.62295
11
0.404827
21
2.63582
0
LINE
8
BLACK
6
CONTINUOUS
10
0.404827
20
2.63582
11
0.415804
21
2.64767
0
LINE
8
BLACK
6
CONTINUOUS
10
0.415804
20
2.64767
11
0.427884
21
2.65839
0
LINE
8
BLACK
6
CONTINUOUS
10
0.427884
20
2.65839
11
0.440954
21
2.66789
0
LINE
8
BLACK
6
CONTINUOUS
10
0.440954
20
2.66789
11
0.454888
21
2.67607
0
LINE
8
BLACK
6
CONTINUOUS
10
0.454888
20
2.67607
11
0.469553
21
2.68284
0
LINE
8
BLACK
6
CONTINUOUS
10
0.469553
20
2.68284
11
0.48481
21
2.68815
0
LINE
8
BLACK
6
CONTINUOUS
10
0.48481
20
2.68815
11
0.500512
21
2.69195
0
LINE
8
BLACK
6
CONTINUOUS
10
0.500512
20
2.69195
11
0.51651
21
2.6942
0
LINE
8
BLACK
6
CONTINUOUS
10
0.51651
20
2.6942
11
0.53265
21
2.69488
0
LINE
8
BLACK
6
CONTINUOUS
10
0.53265
20
2.69488
11
0.54878
21
2.69398
0
LINE
8
BLACK
6
CONTINUOUS
10
1.03053
20
2.57651
11
1.03901
21
2.57483
0
LINE
8
BLACK
6
CONTINUOUS
10
1.03901
20
2.57483
11
1.04704
21
2.57162
0
LINE
8
BLACK
6
CONTINUOUS
10
1.04704
20
2.57162
11
1.05435
21
2.56701
0
LINE
8
BLACK
6
CONTINUOUS
10
1.05435
20
2.56701
11
1.0607
21
2.56114
0
LINE
8
BLACK
6
CONTINUOUS
10
1.0607
20
2.56114
11
1.06587
21
2.55421
0
LINE
8
BLACK
6
CONTINUOUS
10
1.06587
20
2.55421
11
1.0697
21
2.54646
0
LINE
8
BLACK
6
CONTINUOUS
10
1.0697
20
2.54646
11
1.07204
21
2.53814
0
LINE
8
BLACK
6
CONTINUOUS
10
1.07204
20
2.53814
11
1.07283
21
2.52953
0
LINE
8
BLACK
6
CONTINUOUS
10
1.07283
20
2.52953
11
1.07277
21
2.52705
0
LINE
8
BLACK
6
CONTINUOUS
10
1.07277
20
2.52705
11
1.07153
21
2.5185
0
LINE
8
BLACK
6
CONTINUOUS
10
1.07153
20
2.5185
11
1.06875
21
2.51031
0
LINE
8
BLACK
6
CONTINUOUS
10
1.06875
20
2.51031
11
1.06453
21
2.50277
0
LINE
8
BLACK
6
CONTINUOUS
10
1.06453
20
2.50277
11
1.059
21
2.49612
0
LINE
8
BLACK
6
CONTINUOUS
10
1.059
20
2.49612
11
1.05235
21
2.49059
0
LINE
8
BLACK
6
CONTINUOUS
10
1.05235
20
2.49059
11
1.04481
21
2.48637
0
LINE
8
BLACK
6
CONTINUOUS
10
1.04481
20
2.48637
11
1.03662
21
2.48359
0
LINE
8
BLACK
6
CONTINUOUS
10
1.03662
20
2.48359
11
1.02806
21
2.48235
0
LINE
8
BLACK
6
CONTINUOUS
10
1.02806
20
2.48235
11
1.01942
21
2.48269
0
LINE
8
BLACK
6
CONTINUOUS
10
1.01942
20
2.48269
11
1.01099
21
2.4846
0
LINE
8
BLACK
6
CONTINUOUS
10
1.01099
20
2.4846
11
1.00305
21
2.48801
0
LINE
8
BLACK
6
CONTINUOUS
10
1.00305
20
2.48801
11
0.995859
21
2.49281
0
LINE
8
BLACK
6
CONTINUOUS
10
0.995859
20
2.49281
11
0.989666
21
2.49884
0
LINE
8
BLACK
6
CONTINUOUS
10
0.989666
20
2.49884
11
0.984676
21
2.50591
0
LINE
8
BLACK
6
CONTINUOUS
10
0.984676
20
2.50591
11
0.981056
21
2.51376
0
LINE
8
BLACK
6
CONTINUOUS
10
0.981056
20
2.51376
11
0.978928
21
2.52214
0
LINE
8
BLACK
6
CONTINUOUS
10
0.978928
20
2.52214
11
0.978363
21
2.53076
0
LINE
8
BLACK
6
CONTINUOUS
10
0.978363
20
2.53076
11
0.979379
21
2.53935
0
LINE
8
BLACK
6
CONTINUOUS
10
0.979379
20
2.53935
11
0.981943
21
2.54761
0
LINE
8
BLACK
6
CONTINUOUS
10
0.981943
20
2.54761
11
0.985968
21
2.55526
0
LINE
8
BLACK
6
CONTINUOUS
10
0.985968
20
2.55526
11
0.991321
21
2.56205
0
LINE
8
BLACK
6
CONTINUOUS
10
0.991321
20
2.56205
11
0.997821
21
2.56775
0
LINE
8
BLACK
6
CONTINUOUS
10
0.997821
20
2.56775
11
1.00525
21
2.57217
0
LINE
8
BLACK
6
CONTINUOUS
10
1.00525
20
2.57217
11
1.01336
21
2.57516
0
LINE
8
BLACK
6
CONTINUOUS
10
1.01336
20
2.57516
11
1.02188
21
2.57663
0
LINE
8
BLACK
6
CONTINUOUS
10
1.02188
20
2.57663
11
1.03053
21
2.57651
0
LINE
8
BLACK
6
CONTINUOUS
10
1.53344
20
2.83641
11
1.54084
21
2.83486
0
LINE
8
BLACK
6
CONTINUOUS
10
1.54084
20
2.83486
11
1.54777
21
2.83186
0
LINE
8
BLACK
6
CONTINUOUS
10
1.54777
20
2.83186
11
1.55397
21
2.82753
0
LINE
8
BLACK
6
CONTINUOUS
10
1.55397
20
2.82753
11
1.55916
21
2.82203
0
LINE
8
BLACK
6
CONTINUOUS
10
1.55916
20
2.82203
11
1.56314
21
2.81561
0
LINE
8
BLACK
6
CONTINUOUS
10
1.56314
20
2.81561
11
1.56575
21
2.80851
0
LINE
8
BLACK
6
CONTINUOUS
10
1.56575
20
2.80851
11
1.56688
21
2.80104
0
LINE
8
BLACK
6
CONTINUOUS
10
1.56688
20
2.80104
11
1.56649
21
2.79349
0
LINE
8
BLACK
6
CONTINUOUS
10
1.56649
20
2.79349
11
1.56458
21
2.78618
0
LINE
8
BLACK
6
CONTINUOUS
10
1.56458
20
2.78618
11
1.56125
21
2.77939
0
LINE
8
BLACK
6
CONTINUOUS
10
1.56125
20
2.77939
11
1.55661
21
2.77342
0
LINE
8
BLACK
6
CONTINUOUS
10
1.55661
20
2.77342
11
1.55087
21
2.7685
0
LINE
8
BLACK
6
CONTINUOUS
10
1.55087
20
2.7685
11
1.54426
21
2.76484
0
LINE
8
BLACK
6
CONTINUOUS
10
1.54426
20
2.76484
11
1.53705
21
2.76257
0
LINE
8
BLACK
6
CONTINUOUS
10
1.53705
20
2.76257
11
1.52953
21
2.76181
0
LINE
8
BLACK
6
CONTINUOUS
10
1.52953
20
2.76181
11
1.50197
21
2.76181
0
LINE
8
BLACK
6
CONTINUOUS
10
1.50197
20
2.76181
11
1.49806
21
2.76202
0
LINE
8
BLACK
6
CONTINUOUS
10
1.49806
20
2.76202
11
1.49066
21
2.76356
0
LINE
8
BLACK
6
CONTINUOUS
10
1.49066
20
2.76356
11
1.48372
21
2.76656
0
LINE
8
BLACK
6
CONTINUOUS
10
1.48372
20
2.76656
11
1.47753
21
2.7709
0
LINE
8
BLACK
6
CONTINUOUS
10
1.47753
20
2.7709
11
1.47234
21
2.77639
0
LINE
8
BLACK
6
CONTINUOUS
10
1.47234
20
2.77639
11
1.46835
21
2.78282
0
LINE
8
BLACK
6
CONTINUOUS
10
1.46835
20
2.78282
11
1.46574
21
2.78991
0
LINE
8
BLACK
6
CONTINUOUS
10
1.46574
20
2.78991
11
1.46461
21
2.79739
0
LINE
8
BLACK
6
CONTINUOUS
10
1.46461
20
2.79739
11
1.46501
21
2.80493
0
LINE
8
BLACK
6
CONTINUOUS
10
1.46501
20
2.80493
11
1.46691
21
2.81225
0
LINE
8
BLACK
6
CONTINUOUS
10
1.46691
20
2.81225
11
1.47025
21
2.81903
0
LINE
8
BLACK
6
CONTINUOUS
10
1.47025
20
2.81903
11
1.47488
21
2.82501
0
LINE
8
BLACK
6
CONTINUOUS
10
1.47488
20
2.82501
11
1.48062
21
2.82992
0
LINE
8
BLACK
6
CONTINUOUS
10
1.48062
20
2.82992
11
1.48723
21
2.83359
0
LINE
8
BLACK
6
CONTINUOUS
10
1.48723
20
2.83359
11
1.49445
21
2.83585
0
LINE
8
BLACK
6
CONTINUOUS
10
1.49445
20
2.83585
11
1.50197
21
2.83661
0
LINE
8
BLACK
6
CONTINUOUS
10
1.50197
20
2.83661
11
1.52953
21
2.83661
0
LINE
8
BLACK
6
CONTINUOUS
10
1.52953
20
2.83661
11
1.53344
21
2.83641
0
LINE
8
BLACK
6
CONTINUOUS
10
0.549185
20
2.83641
11
0.556585
21
2.83486
0
LINE
8
BLACK
6
CONTINUOUS
10
0.556585
20
2.83486
11
0.563522
21
2.83186
0
LINE
8
BLACK
6
CONTINUOUS
10
0.563522
20
2.83186
11
0.569715
21
2.82753
0
LINE
8
BLACK
6
CONTINUOUS
10
0.569715
20
2.82753
11
0.574908
21
2.82203
0
LINE
8
BLACK
6
CONTINUOUS
10
0.574908
20
2.82203
11
0.578892
21
2.81561
0
LINE
8
BLACK
6
CONTINUOUS
10
0.578892
20
2.81561
11
0.581502
21
2.80851
0
LINE
8
BLACK
6
CONTINUOUS
10
0.581502
20
2.80851
11
0.582633
21
2.80104
0
LINE
8
BLACK
6
CONTINUOUS
10
0.582633
20
2.80104
11
0.582237
21
2.79349
0
LINE
8
BLACK
6
CONTINUOUS
10
0.582237
20
2.79349
11
0.580331
21
2.78618
0
LINE
8
BLACK
6
CONTINUOUS
10
0.580331
20
2.78618
11
0.576994
21
2.77939
0
LINE
8
BLACK
6
CONTINUOUS
10
0.576994
20
2.77939
11
0.572361
21
2.77342
0
LINE
8
BLACK
6
CONTINUOUS
10
0.572361
20
2.77342
11
0.566621
21
2.7685
0
LINE
8
BLACK
6
CONTINUOUS
10
0.566621
20
2.7685
11
0.56001
21
2.76484
0
LINE
8
BLACK
6
CONTINUOUS
10
0.56001
20
2.76484
11
0.552796
21
2.76257
0
LINE
8
BLACK
6
CONTINUOUS
10
0.552796
20
2.76257
11
0.545276
21
2.76181
0
LINE
8
BLACK
6
CONTINUOUS
10
0.545276
20
2.76181
11
0.517717
21
2.76181
0
LINE
8
BLACK
6
CONTINUOUS
10
0.517717
20
2.76181
11
0.513807
21
2.76202
0
LINE
8
BLACK
6
CONTINUOUS
10
0.513807
20
2.76202
11
0.506407
21
2.76356
0
LINE
8
BLACK
6
CONTINUOUS
10
0.506407
20
2.76356
11
0.49947
21
2.76656
0
LINE
8
BLACK
6
CONTINUOUS
10
0.49947
20
2.76656
11
0.493278
21
2.7709
0
LINE
8
BLACK
6
CONTINUOUS
10
0.493278
20
2.7709
11
0.488084
21
2.77639
0
LINE
8
BLACK
6
CONTINUOUS
10
0.488084
20
2.77639
11
0.4841
21
2.78282
0
LINE
8
BLACK
6
CONTINUOUS
10
0.4841
20
2.78282
11
0.48149
21
2.78991
0
LINE
8
BLACK
6
CONTINUOUS
10
0.48149
20
2.78991
11
0.48036
21
2.79739
0
LINE
8
BLACK
6
CONTINUOUS
10
0.48036
20
2.79739
11
0.480755
21
2.80493
0
LINE
8
BLACK
6
CONTINUOUS
10
0.480755
20
2.80493
11
0.482661
21
2.81225
0
LINE
8
BLACK
6
CONTINUOUS
10
0.482661
20
2.81225
11
0.485998
21
2.81903
0
LINE
8
BLACK
6
CONTINUOUS
10
0.485998
20
2.81903
11
0.490631
21
2.82501
0
LINE
8
BLACK
6
CONTINUOUS
10
0.490631
20
2.82501
11
0.496371
21
2.82992
0
LINE
8
BLACK
6
CONTINUOUS
10
0.496371
20
2.82992
11
0.502982
21
2.83359
0
LINE
8
BLACK
6
CONTINUOUS
10
0.502982
20
2.83359
11
0.510196
21
2.83585
0
LINE
8
BLACK
6
CONTINUOUS
10
0.510196
20
2.83585
11
0.517717
21
2.83661
0
LINE
8
BLACK
6
CONTINUOUS
10
0.517717
20
2.83661
11
0.545276
21
2.83661
0
LINE
8
BLACK
6
CONTINUOUS
10
0.545276
20
2.83661
11
0.549185
21
2.83641
0
LINE
8
BLACK
6
CONTINUOUS
10
1.53344
20
3.28129
11
1.54084
21
3.27975
0
LINE
8
BLACK
6
CONTINUOUS
10
1.54084
20
3.27975
11
1.54777
21
3.27674
0
LINE
8
BLACK
6
CONTINUOUS
10
1.54777
20
3.27674
11
1.55397
21
3.27241
0
LINE
8
BLACK
6
CONTINUOUS
10
1.55397
20
3.27241
11
1.55916
21
3.26691
0
LINE
8
BLACK
6
CONTINUOUS
10
1.55916
20
3.26691
11
1.56314
21
3.26049
0
LINE
8
BLACK
6
CONTINUOUS
10
1.56314
20
3.26049
11
1.56575
21
3.2534
0
LINE
8
BLACK
6
CONTINUOUS
10
1.56575
20
3.2534
11
1.56688
21
3.24592
0
LINE
8
BLACK
6
CONTINUOUS
10
1.56688
20
3.24592
11
1.56649
21
3.23837
0
LINE
8
BLACK
6
CONTINUOUS
10
1.56649
20
3.23837
11
1.56458
21
3.23106
0
LINE
8
BLACK
6
CONTINUOUS
10
1.56458
20
3.23106
11
1.56125
21
3.22427
0
LINE
8
BLACK
6
CONTINUOUS
10
1.56125
20
3.22427
11
1.55661
21
3.2183
0
LINE
8
BLACK
6
CONTINUOUS
10
1.55661
20
3.2183
11
1.55087
21
3.21338
0
LINE
8
BLACK
6
CONTINUOUS
10
1.55087
20
3.21338
11
1.54426
21
3.20972
0
LINE
8
BLACK
6
CONTINUOUS
10
1.54426
20
3.20972
11
1.53705
21
3.20746
0
LINE
8
BLACK
6
CONTINUOUS
10
1.53705
20
3.20746
11
1.52953
21
3.20669
0
LINE
8
BLACK
6
CONTINUOUS
10
1.52953
20
3.20669
11
1.50197
21
3.20669
0
LINE
8
BLACK
6
CONTINUOUS
10
1.50197
20
3.20669
11
1.49806
21
3.2069
0
LINE
8
BLACK
6
CONTINUOUS
10
1.49806
20
3.2069
11
1.49066
21
3.20844
0
LINE
8
BLACK
6
CONTINUOUS
10
1.49066
20
3.20844
11
1.48372
21
3.21145
0
LINE
8
BLACK
6
CONTINUOUS
10
1.48372
20
3.21145
11
1.47753
21
3.21578
0
LINE
8
BLACK
6
CONTINUOUS
10
1.47753
20
3.21578
11
1.47234
21
3.22127
0
LINE
8
BLACK
6
CONTINUOUS
10
1.47234
20
3.22127
11
1.46835
21
3.2277
0
LINE
8
BLACK
6
CONTINUOUS
10
1.46835
20
3.2277
11
1.46574
21
3.23479
0
LINE
8
BLACK
6
CONTINUOUS
10
1.46574
20
3.23479
11
1.46461
21
3.24227
0
LINE
8
BLACK
6
CONTINUOUS
10
1.46461
20
3.24227
11
1.46501
21
3.24982
0
LINE
8
BLACK
6
CONTINUOUS
10
1.46501
20
3.24982
11
1.46691
21
3.25713
0
LINE
8
BLACK
6
CONTINUOUS
10
1.46691
20
3.25713
11
1.47025
21
3.26391
0
LINE
8
BLACK
6
CONTINUOUS
10
1.47025
20
3.26391
11
1.47488
21
3.26989
0
LINE
8
BLACK
6
CONTINUOUS
10
1.47488
20
3.26989
11
1.48062
21
3.27481
0
LINE
8
BLACK
6
CONTINUOUS
10
1.48062
20
3.27481
11
1.48723
21
3.27847
0
LINE
8
BLACK
6
CONTINUOUS
10
1.48723
20
3.27847
11
1.49445
21
3.28073
0
LINE
8
BLACK
6
CONTINUOUS
10
1.49445
20
3.28073
11
1.50197
21
3.2815
0
LINE
8
BLACK
6
CONTINUOUS
10
1.50197
20
3.2815
11
1.52953
21
3.2815
0
LINE
8
BLACK
6
CONTINUOUS
10
1.52953
20
3.2815
11
1.53344
21
3.28129
0
LINE
8
BLACK
6
CONTINUOUS
10
0.549185
20
3.28129
11
0.556585
21
3.27975
0
LINE
8
BLACK
6
CONTINUOUS
10
0.556585
20
3.27975
11
0.563522
21
3.27674
0
LINE
8
BLACK
6
CONTINUOUS
10
0.563522
20
3.27674
11
0.569715
21
3.27241
0
LINE
8
BLACK
6
CONTINUOUS
10
0.569715
20
3.27241
11
0.574908
21
3.26691
0
LINE
8
BLACK
6
CONTINUOUS
10
0.574908
20
3.26691
11
0.578892
21
3.26049
0
LINE
8
BLACK
6
CONTINUOUS
10
0.578892
20
3.26049
11
0.581502
21
3.2534
0
LINE
8
BLACK
6
CONTINUOUS
10
0.581502
20
3.2534
11
0.582633
21
3.24592
0
LINE
8
BLACK
6
CONTINUOUS
10
0.582633
20
3.24592
11
0.582237
21
3.23837
0
LINE
8
BLACK
6
CONTINUOUS
10
0.582237
20
3.23837
11
0.580331
21
3.23106
0
LINE
8
BLACK
6
CONTINUOUS
10
0.580331
20
3.23106
11
0.576994
21
3.22427
0
LINE
8
BLACK
6
CONTINUOUS
10
0.576994
20
3.22427
11
0.572361
21
3.2183
0
LINE
8
BLACK
6
CONTINUOUS
10
0.572361
20
3.2183
11
0.566621
21
3.21338
0
LINE
8
BLACK
6
CONTINUOUS
10
0.566621
20
3.21338
11
0.56001
21
3.20972
0
LINE
8
BLACK
6
CONTINUOUS
10
0.56001
20
3.20972
11
0.552796
21
3.20746
0
LINE
8
BLACK
6
CONTINUOUS
10
0.552796
20
3.20746
11
0.545276
21
3.20669
0
LINE
8
BLACK
6
CONTINUOUS
10
0.545276
20
3.20669
11
0.517717
21
3.20669
0
LINE
8
BLACK
6
CONTINUOUS
10
0.517717
20
3.20669
11
0.513807
21
3.2069
0
LINE
8
BLACK
6
CONTINUOUS
10
0.513807
20
3.2069
11
0.506407
21
3.20844
0
LINE
8
BLACK
6
CONTINUOUS
10
0.506407
20
3.20844
11
0.49947
21
3.21145
0
LINE
8
BLACK
6
CONTINUOUS
10
0.49947
20
3.21145
11
0.493278
21
3.21578
0
LINE
8
BLACK
6
CONTINUOUS
10
0.493278
20
3.21578
11
0.488084
21
3.22127
0
LINE
8
BLACK
6
CONTINUOUS
10
0.488084
20
3.22127
11
0.4841
21
3.2277
0
LINE
8
BLACK
6
CONTINUOUS
10
0.4841
20
3.2277
11
0.48149
21
3.23479
0
LINE
8
BLACK
6
CONTINUOUS
10
0.48149
20
3.23479
11
0.48036
21
3.24227
0
LINE
8
BLACK
6
CONTINUOUS
10
0.48036
20
3.24227
11
0.480755
21
3.24982
0
LINE
8
BLACK
6
CONTINUOUS
10
0.480755
20
3.24982
11
0.482661
21
3.25713
0
LINE
8
BLACK
6
CONTINUOUS
10
0.482661
20
3.25713
11
0.485998
21
3.26391
0
LINE
8
BLACK
6
CONTINUOUS
10
0.485998
20
3.26391
11
0.490631
21
3.26989
0
LINE
8
BLACK
6
CONTINUOUS
10
0.490631
20
3.26989
11
0.496371
21
3.27481
0
LINE
8
BLACK
6
CONTINUOUS
10
0.496371
20
3.27481
11
0.502982
21
3.27847
0
LINE
8
BLACK
6
CONTINUOUS
10
0.502982
20
3.27847
11
0.510196
21
3.28073
0
LINE
8
BLACK
6
CONTINUOUS
10
0.510196
20
3.28073
11
0.517717
21
3.2815
0
LINE
8
BLACK
6
CONTINUOUS
10
0.517717
20
3.2815
11
0.545276
21
3.2815
0
LINE
8
BLACK
6
CONTINUOUS
10
0.545276
20
3.2815
11
0.549185
21
3.28129
0
LINE
8
BLACK
6
CONTINUOUS
10
1.53303
20
3.67823
11
1.549
21
3.67576
0
LINE
8
BLACK
6
CONTINUOUS
10
1.549
20
3.67576
11
1.56464
21
3.67174
0
LINE
8
BLACK
6
CONTINUOUS
10
1.56464
20
3.67174
11
1.57983
21
3.66621
0
LINE
8
BLACK
6
CONTINUOUS
10
1.57983
20
3.66621
11
1.59439
21
3.65923
0
LINE
8
BLACK
6
CONTINUOUS
10
1.59439
20
3.65923
11
1.60821
21
3.65086
0
LINE
8
BLACK
6
CONTINUOUS
10
1.60821
20
3.65086
11
1.62115
21
3.64119
0
LINE
8
BLACK
6
CONTINUOUS
10
1.62115
20
3.64119
11
1.63308
21
3.63029
0
LINE
8
BLACK
6
CONTINUOUS
10
1.63308
20
3.63029
11
1.64389
21
3.61829
0
LINE
8
BLACK
6
CONTINUOUS
10
1.64389
20
3.61829
11
1.65348
21
3.60529
0
LINE
8
BLACK
6
CONTINUOUS
10
1.65348
20
3.60529
11
1.66175
21
3.59141
0
LINE
8
BLACK
6
CONTINUOUS
10
1.66175
20
3.59141
11
1.66863
21
3.57679
0
LINE
8
BLACK
6
CONTINUOUS
10
1.66863
20
3.57679
11
1.67404
21
3.56157
0
LINE
8
BLACK
6
CONTINUOUS
10
1.67404
20
3.56157
11
1.67795
21
3.5459
0
LINE
8
BLACK
6
CONTINUOUS
10
1.67795
20
3.5459
11
1.68031
21
3.52992
0
LINE
8
BLACK
6
CONTINUOUS
10
1.68031
20
3.52992
11
1.6811
21
3.51378
0
LINE
8
BLACK
6
CONTINUOUS
10
1.6811
20
3.51378
11
1.68104
21
3.50916
0
LINE
8
BLACK
6
CONTINUOUS
10
1.68104
20
3.50916
11
1.6798
21
3.49306
0
LINE
8
BLACK
6
CONTINUOUS
10
1.6798
20
3.49306
11
1.67699
21
3.47715
0
LINE
8
BLACK
6
CONTINUOUS
10
1.67699
20
3.47715
11
1.67265
21
3.46159
0
LINE
8
BLACK
6
CONTINUOUS
10
1.67265
20
3.46159
11
1.66681
21
3.44652
0
LINE
8
BLACK
6
CONTINUOUS
10
1.66681
20
3.44652
11
1.65952
21
3.4321
0
LINE
8
BLACK
6
CONTINUOUS
10
1.65952
20
3.4321
11
1.65087
21
3.41846
0
LINE
8
BLACK
6
CONTINUOUS
10
1.65087
20
3.41846
11
1.64092
21
3.40573
0
LINE
8
BLACK
6
CONTINUOUS
10
1.64092
20
3.40573
11
1.62978
21
3.39403
0
LINE
8
BLACK
6
CONTINUOUS
10
1.62978
20
3.39403
11
1.61755
21
3.38348
0
LINE
8
BLACK
6
CONTINUOUS
10
1.61755
20
3.38348
11
1.60435
21
3.37417
0
LINE
8
BLACK
6
CONTINUOUS
10
1.60435
20
3.37417
11
1.5903
21
3.36619
0
LINE
8
BLACK
6
CONTINUOUS
10
1.5903
20
3.36619
11
1.57554
21
3.35962
0
LINE
8
BLACK
6
CONTINUOUS
10
1.57554
20
3.35962
11
1.56022
21
3.35452
0
LINE
8
BLACK
6
CONTINUOUS
10
1.56022
20
3.35452
11
1.54446
21
3.35094
0
LINE
8
BLACK
6
CONTINUOUS
10
1.54446
20
3.35094
11
1.52843
21
3.34891
0
LINE
8
BLACK
6
CONTINUOUS
10
1.52843
20
3.34891
11
1.51229
21
3.34846
0
LINE
8
BLACK
6
CONTINUOUS
10
1.51229
20
3.34846
11
1.49617
21
3.34959
0
LINE
8
BLACK
6
CONTINUOUS
10
1.49617
20
3.34959
11
1.48024
21
3.35228
0
LINE
8
BLACK
6
CONTINUOUS
10
1.48024
20
3.35228
11
1.46465
21
3.35652
0
LINE
8
BLACK
6
CONTINUOUS
10
1.46465
20
3.35652
11
1.44955
21
3.36225
0
LINE
8
BLACK
6
CONTINUOUS
10
1.44955
20
3.36225
11
1.43508
21
3.36944
0
LINE
8
BLACK
6
CONTINUOUS
10
1.43508
20
3.36944
11
1.42138
21
3.378
0
LINE
8
BLACK
6
CONTINUOUS
10
1.42138
20
3.378
11
1.40858
21
3.38786
0
LINE
8
BLACK
6
CONTINUOUS
10
1.40858
20
3.38786
11
1.3968
21
3.39891
0
LINE
8
BLACK
6
CONTINUOUS
10
1.3968
20
3.39891
11
1.38616
21
3.41107
0
LINE
8
BLACK
6
CONTINUOUS
10
1.38616
20
3.41107
11
1.37676
21
3.42421
0
LINE
8
BLACK
6
CONTINUOUS
10
1.37676
20
3.42421
11
1.36868
21
3.4382
0
LINE
8
BLACK
6
CONTINUOUS
10
1.36868
20
3.4382
11
1.36201
21
3.45291
0
LINE
8
BLACK
6
CONTINUOUS
10
1.36201
20
3.45291
11
1.3568
21
3.4682
0
LINE
8
BLACK
6
CONTINUOUS
10
1.3568
20
3.4682
11
1.35311
21
3.48393
0
LINE
8
BLACK
6
CONTINUOUS
10
1.35311
20
3.48393
11
1.35097
21
3.49994
0
LINE
8
BLACK
6
CONTINUOUS
10
1.35097
20
3.49994
11
1.35041
21
3.51609
0
LINE
8
BLACK
6
CONTINUOUS
10
1.35041
20
3.51609
11
1.35142
21
3.53221
0
LINE
8
BLACK
6
CONTINUOUS
10
1.35142
20
3.53221
11
1.35401
21
3.54816
0
LINE
8
BLACK
6
CONTINUOUS
10
1.35401
20
3.54816
11
1.35813
21
3.56378
0
LINE
8
BLACK
6
CONTINUOUS
10
1.35813
20
3.56378
11
1.36377
21
3.57892
0
LINE
8
BLACK
6
CONTINUOUS
10
1.36377
20
3.57892
11
1.37085
21
3.59344
0
LINE
8
BLACK
6
CONTINUOUS
10
1.37085
20
3.59344
11
1.37931
21
3.6072
0
LINE
8
BLACK
6
CONTINUOUS
10
1.37931
20
3.6072
11
1.38908
21
3.62007
0
LINE
8
BLACK
6
CONTINUOUS
10
1.38908
20
3.62007
11
1.40006
21
3.63192
0
LINE
8
BLACK
6
CONTINUOUS
10
1.40006
20
3.63192
11
1.41214
21
3.64265
0
LINE
8
BLACK
6
CONTINUOUS
10
1.41214
20
3.64265
11
1.42521
21
3.65214
0
LINE
8
BLACK
6
CONTINUOUS
10
1.42521
20
3.65214
11
1.43914
21
3.66032
0
LINE
8
BLACK
6
CONTINUOUS
10
1.43914
20
3.66032
11
1.45381
21
3.66709
0
LINE
8
BLACK
6
CONTINUOUS
10
1.45381
20
3.66709
11
1.46906
21
3.67241
0
LINE
8
BLACK
6
CONTINUOUS
10
1.46906
20
3.67241
11
1.48476
21
3.6762
0
LINE
8
BLACK
6
CONTINUOUS
10
1.48476
20
3.6762
11
1.50076
21
3.67845
0
LINE
8
BLACK
6
CONTINUOUS
10
1.50076
20
3.67845
11
1.5169
21
3.67913
0
LINE
8
BLACK
6
CONTINUOUS
10
1.5169
20
3.67913
11
1.53303
21
3.67823
0
LINE
8
BLACK
6
CONTINUOUS
10
0.54878
20
3.67823
11
0.564745
21
3.67576
0
LINE
8
BLACK
6
CONTINUOUS
10
0.564745
20
3.67576
11
0.580393
21
3.67174
0
LINE
8
BLACK
6
CONTINUOUS
10
0.580393
20
3.67174
11
0.595573
21
3.66621
0
LINE
8
BLACK
6
CONTINUOUS
10
0.595573
20
3.66621
11
0.610143
21
3.65923
0
LINE
8
BLACK
6
CONTINUOUS
10
0.610143
20
3.65923
11
0.623961
21
3.65086
0
LINE
8
BLACK
6
CONTINUOUS
10
0.623961
20
3.65086
11
0.636897
21
3.64119
0
LINE
8
BLACK
6
CONTINUOUS
10
0.636897
20
3.64119
11
0.648827
21
3.63029
0
LINE
8
BLACK
6
CONTINUOUS
10
0.648827
20
3.63029
11
0.659636
21
3.61829
0
LINE
8
BLACK
6
CONTINUOUS
10
0.659636
20
3.61829
11
0.669223
21
3.60529
0
LINE
8
BLACK
6
CONTINUOUS
10
0.669223
20
3.60529
11
0.677495
21
3.59141
0
LINE
8
BLACK
6
CONTINUOUS
10
0.677495
20
3.59141
11
0.684374
21
3.57679
0
LINE
8
BLACK
6
CONTINUOUS
10
0.684374
20
3.57679
11
0.689793
21
3.56157
0
LINE
8
BLACK
6
CONTINUOUS
10
0.689793
20
3.56157
11
0.693701
21
3.5459
0
LINE
8
BLACK
6
CONTINUOUS
10
0.693701
20
3.5459
11
0.696061
21
3.52992
0
LINE
8
BLACK
6
CONTINUOUS
10
0.696061
20
3.52992
11
0.69685
21
3.51378
0
LINE
8
BLACK
6
CONTINUOUS
10
0.69685
20
3.51378
11
0.696786
21
3.50916
0
LINE
8
BLACK
6
CONTINUOUS
10
0.696786
20
3.50916
11
0.695547
21
3.49306
0
LINE
8
BLACK
6
CONTINUOUS
10
0.695547
20
3.49306
11
0.692741
21
3.47715
0
LINE
8
BLACK
6
CONTINUOUS
10
0.692741
20
3.47715
11
0.688397
21
3.46159
0
LINE
8
BLACK
6
CONTINUOUS
10
0.688397
20
3.46159
11
0.682555
21
3.44652
0
LINE
8
BLACK
6
CONTINUOUS
10
0.682555
20
3.44652
11
0.675271
21
3.4321
0
LINE
8
BLACK
6
CONTINUOUS
10
0.675271
20
3.4321
11
0.666615
21
3.41846
0
LINE
8
BLACK
6
CONTINUOUS
10
0.666615
20
3.41846
11
0.656668
21
3.40573
0
LINE
8
BLACK
6
CONTINUOUS
10
0.656668
20
3.40573
11
0.645528
21
3.39403
0
LINE
8
BLACK
6
CONTINUOUS
10
0.645528
20
3.39403
11
0.633298
21
3.38348
0
LINE
8
BLACK
6
CONTINUOUS
10
0.633298
20
3.38348
11
0.620097
21
3.37417
0
LINE
8
BLACK
6
CONTINUOUS
10
0.620097
20
3.37417
11
0.606051
21
3.36619
0
LINE
8
BLACK
6
CONTINUOUS
10
0.606051
20
3.36619
11
0.591292
21
3.35962
0
LINE
8
BLACK
6
CONTINUOUS
10
0.591292
20
3.35962
11
0.575963
21
3.35452
0
LINE
8
BLACK
6
CONTINUOUS
10
0.575963
20
3.35452
11
0.56021
21
3.35094
0
LINE
8
BLACK
6
CONTINUOUS
10
0.56021
20
3.35094
11
0.544182
21
3.34891
0
LINE
8
BLACK
6
CONTINUOUS
10
0.544182
20
3.34891
11
0.528033
21
3.34846
0
LINE
8
BLACK
6
CONTINUOUS
10
0.528033
20
3.34846
11
0.511917
21
3.34959
0
LINE
8
BLACK
6
CONTINUOUS
10
0.511917
20
3.34959
11
0.495989
21
3.35228
0
LINE
8
BLACK
6
CONTINUOUS
10
0.495989
20
3.35228
11
0.480399
21
3.35652
0
LINE
8
BLACK
6
CONTINUOUS
10
0.480399
20
3.35652
11
0.465297
21
3.36225
0
LINE
8
BLACK
6
CONTINUOUS
10
0.465297
20
3.36225
11
0.450826
21
3.36944
0
LINE
8
BLACK
6
CONTINUOUS
10
0.450826
20
3.36944
11
0.437126
21
3.378
0
LINE
8
BLACK
6
CONTINUOUS
10
0.437126
20
3.378
11
0.424327
21
3.38786
0
LINE
8
BLACK
6
CONTINUOUS
10
0.424327
20
3.38786
11
0.41255
21
3.39891
0
LINE
8
BLACK
6
CONTINUOUS
10
0.41255
20
3.39891
11
0.401909
21
3.41107
0
LINE
8
BLACK
6
CONTINUOUS
10
0.401909
20
3.41107
11
0.392505
21
3.42421
0
LINE
8
BLACK
6
CONTINUOUS
10
0.392505
20
3.42421
11
0.384427
21
3.4382
0
LINE
8
BLACK
6
CONTINUOUS
10
0.384427
20
3.4382
11
0.377754
21
3.45291
0
LINE
8
BLACK
6
CONTINUOUS
10
0.377754
20
3.45291
11
0.372547
21
3.4682
0
LINE
8
BLACK
6
CONTINUOUS
10
0.372547
20
3.4682
11
0.368858
21
3.48393
0
LINE
8
BLACK
6
CONTINUOUS
10
0.368858
20
3.48393
11
0.366722
21
3.49994
0
LINE
8
BLACK
6
CONTINUOUS
10
0.366722
20
3.49994
11
0.366158
21
3.51609
0
LINE
8
BLACK
6
CONTINUOUS
10
0.366158
20
3.51609
11
0.367172
21
3.53221
0
LINE
8
BLACK
6
CONTINUOUS
10
0.367172
20
3.53221
11
0.369755
21
3.54816
0
LINE
8
BLACK
6
CONTINUOUS
10
0.369755
20
3.54816
11
0.373882
21
3.56378
0
LINE
8
BLACK
6
CONTINUOUS
10
0.373882
20
3.56378
11
0.379513
21
3.57892
0
LINE
8
BLACK
6
CONTINUOUS
10
0.379513
20
3.57892
11
0.386595
21
3.59344
0
LINE
8
BLACK
6
CONTINUOUS
10
0.386595
20
3.59344
11
0.39506
21
3.6072
0
LINE
8
BLACK
6
CONTINUOUS
10
0.39506
20
3.6072
11
0.404827
21
3.62007
0
LINE
8
BLACK
6
CONTINUOUS
10
0.404827
20
3.62007
11
0.415804
21
3.63192
0
LINE
8
BLACK
6
CONTINUOUS
10
0.415804
20
3.63192
11
0.427884
21
3.64265
0
LINE
8
BLACK
6
CONTINUOUS
10
0.427884
20
3.64265
11
0.440954
21
3.65214
0
LINE
8
BLACK
6
CONTINUOUS
10
0.440954
20
3.65214
11
0.454888
21
3.66032
0
LINE
8
BLACK
6
CONTINUOUS
10
0.454888
20
3.66032
11
0.469553
21
3.66709
0
LINE
8
BLACK
6
CONTINUOUS
10
0.469553
20
3.66709
11
0.48481
21
3.67241
0
LINE
8
BLACK
6
CONTINUOUS
10
0.48481
20
3.67241
11
0.500512
21
3.6762
0
LINE
8
BLACK
6
CONTINUOUS
10
0.500512
20
3.6762
11
0.51651
21
3.67845
0
LINE
8
BLACK
6
CONTINUOUS
10
0.51651
20
3.67845
11
0.53265
21
3.67913
0
LINE
8
BLACK
6
CONTINUOUS
10
0.53265
20
3.67913
11
0.54878
21
3.67823
0
LINE
8
BLACK
6
CONTINUOUS
10
1.53344
20
3.82066
11
1.54084
21
3.81912
0
LINE
8
BLACK
6
CONTINUOUS
10
1.54084
20
3.81912
11
1.54777
21
3.81611
0
LINE
8
BLACK
6
CONTINUOUS
10
1.54777
20
3.81611
11
1.55397
21
3.81178
0
LINE
8
BLACK
6
CONTINUOUS
10
1.55397
20
3.81178
11
1.55916
21
3.80628
0
LINE
8
BLACK
6
CONTINUOUS
10
1.55916
20
3.80628
11
1.56314
21
3.79986
0
LINE
8
BLACK
6
CONTINUOUS
10
1.56314
20
3.79986
11
1.56575
21
3.79277
0
LINE
8
BLACK
6
CONTINUOUS
10
1.56575
20
3.79277
11
1.56688
21
3.78529
0
LINE
8
BLACK
6
CONTINUOUS
10
1.56688
20
3.78529
11
1.56649
21
3.77774
0
LINE
8
BLACK
6
CONTINUOUS
10
1.56649
20
3.77774
11
1.56458
21
3.77043
0
LINE
8
BLACK
6
CONTINUOUS
10
1.56458
20
3.77043
11
1.56125
21
3.76364
0
LINE
8
BLACK
6
CONTINUOUS
10
1.56125
20
3.76364
11
1.55661
21
3.75767
0
LINE
8
BLACK
6
CONTINUOUS
10
1.55661
20
3.75767
11
1.55087
21
3.75275
0
LINE
8
BLACK
6
CONTINUOUS
10
1.55087
20
3.75275
11
1.54426
21
3.74909
0
LINE
8
BLACK
6
CONTINUOUS
10
1.54426
20
3.74909
11
1.53705
21
3.74683
0
LINE
8
BLACK
6
CONTINUOUS
10
1.53705
20
3.74683
11
1.52953
21
3.74606
0
LINE
8
BLACK
6
CONTINUOUS
10
1.52953
20
3.74606
11
1.50197
21
3.74606
0
LINE
8
BLACK
6
CONTINUOUS
10
1.50197
20
3.74606
11
1.49806
21
3.74627
0
LINE
8
BLACK
6
CONTINUOUS
10
1.49806
20
3.74627
11
1.49066
21
3.74781
0
LINE
8
BLACK
6
CONTINUOUS
10
1.49066
20
3.74781
11
1.48372
21
3.75082
0
LINE
8
BLACK
6
CONTINUOUS
10
1.48372
20
3.75082
11
1.47753
21
3.75515
0
LINE
8
BLACK
6
CONTINUOUS
10
1.47753
20
3.75515
11
1.47234
21
3.76064
0
LINE
8
BLACK
6
CONTINUOUS
10
1.47234
20
3.76064
11
1.46835
21
3.76707
0
LINE
8
BLACK
6
CONTINUOUS
10
1.46835
20
3.76707
11
1.46574
21
3.77416
0
LINE
8
BLACK
6
CONTINUOUS
10
1.46574
20
3.77416
11
1.46461
21
3.78164
0
LINE
8
BLACK
6
CONTINUOUS
10
1.46461
20
3.78164
11
1.46501
21
3.78919
0
LINE
8
BLACK
6
CONTINUOUS
10
1.46501
20
3.78919
11
1.46691
21
3.7965
0
LINE
8
BLACK
6
CONTINUOUS
10
1.46691
20
3.7965
11
1.47025
21
3.80328
0
LINE
8
BLACK
6
CONTINUOUS
10
1.47025
20
3.80328
11
1.47488
21
3.80926
0
LINE
8
BLACK
6
CONTINUOUS
10
1.47488
20
3.80926
11
1.48062
21
3.81418
0
LINE
8
BLACK
6
CONTINUOUS
10
1.48062
20
3.81418
11
1.48723
21
3.81784
0
LINE
8
BLACK
6
CONTINUOUS
10
1.48723
20
3.81784
11
1.49445
21
3.8201
0
LINE
8
BLACK
6
CONTINUOUS
10
1.49445
20
3.8201
11
1.50197
21
3.82087
0
LINE
8
BLACK
6
CONTINUOUS
10
1.50197
20
3.82087
11
1.52953
21
3.82087
0
LINE
8
BLACK
6
CONTINUOUS
10
1.52953
20
3.82087
11
1.53344
21
3.82066
0
LINE
8
BLACK
6
CONTINUOUS
10
0.549185
20
3.82066
11
0.556585
21
3.81912
0
LINE
8
BLACK
6
CONTINUOUS
10
0.556585
20
3.81912
11
0.563522
21
3.81611
0
LINE
8
BLACK
6
CONTINUOUS
10
0.563522
20
3.81611
11
0.569715
21
3.81178
0
LINE
8
BLACK
6
CONTINUOUS
10
0.569715
20
3.81178
11
0.574908
21
3.80628
0
LINE
8
BLACK
6
CONTINUOUS
10
0.574908
20
3.80628
11
0.578892
21
3.79986
0
LINE
8
BLACK
6
CONTINUOUS
10
0.578892
20
3.79986
11
0.581502
21
3.79277
0
LINE
8
BLACK
6
CONTINUOUS
10
0.581502
20
3.79277
11
0.582633
21
3.78529
0
LINE
8
BLACK
6
CONTINUOUS
10
0.582633
20
3.78529
11
0.582237
21
3.77774
0
LINE
8
BLACK
6
CONTINUOUS
10
0.582237
20
3.77774
11
0.580331
21
3.77043
0
LINE
8
BLACK
6
CONTINUOUS
10
0.580331
20
3.77043
11
0.576994
21
3.76364
0
LINE
8
BLACK
6
CONTINUOUS
10
0.576994
20
3.76364
11
0.572361
21
3.75767
0
LINE
8
BLACK
6
CONTINUOUS
10
0.572361
20
3.75767
11
0.566621
21
3.75275
0
LINE
8
BLACK
6
CONTINUOUS
10
0.566621
20
3.75275
11
0.56001
21
3.74909
0
LINE
8
BLACK
6
CONTINUOUS
10
0.56001
20
3.74909
11
0.552796
21
3.74683
0
LINE
8
BLACK
6
CONTINUOUS
10
0.552796
20
3.74683
11
0.545276
21
3.74606
0
LINE
8
BLACK
6
CONTINUOUS
10
0.545276
20
3.74606
11
0.517717
21
3.74606
0
LINE
8
BLACK
6
CONTINUOUS
10
0.517717
20
3.74606
11
0.513807
21
3.74627
0
LINE
8
BLACK
6
CONTINUOUS
10
0.513807
20
3.74627
11
0.506407
21
3.74781
0
LINE
8
BLACK
6
CONTINUOUS
10
0.506407
20
3.74781
11
0.49947
21
3.75082
0
LINE
8
BLACK
6
CONTINUOUS
10
0.49947
20
3.75082
11
0.493278
21
3.75515
0
LINE
8
BLACK
6
CONTINUOUS
10
0.493278
20
3.75515
11
0.488084
21
3.76064
0
LINE
8
BLACK
6
CONTINUOUS
10
0.488084
20
3.76064
11
0.4841
21
3.76707
0
LINE
8
BLACK
6
CONTINUOUS
10
0.4841
20
3.76707
11
0.48149
21
3.77416
0
LINE
8
BLACK
6
CONTINUOUS
10
0.48149
20
3.77416
11
0.48036
21
3.78164
0
LINE
8
BLACK
6
CONTINUOUS
10
0.48036
20
3.78164
11
0.480755
21
3.78919
0
LINE
8
BLACK
6
CONTINUOUS
10
0.480755
20
3.78919
11
0.482661
21
3.7965
0
LINE
8
BLACK
6
CONTINUOUS
10
0.482661
20
3.7965
11
0.485998
21
3.80328
0
LINE
8
BLACK
6
CONTINUOUS
10
0.485998
20
3.80328
11
0.490631
21
3.80926
0
LINE
8
BLACK
6
CONTINUOUS
10
0.490631
20
3.80926
11
0.496371
21
3.81418
0
LINE
8
BLACK
6
CONTINUOUS
10
0.496371
20
3.81418
11
0.502982
21
3.81784
0
LINE
8
BLACK
6
CONTINUOUS
10
0.502982
20
3.81784
11
0.510196
21
3.8201
0
LINE
8
BLACK
6
CONTINUOUS
10
0.510196
20
3.8201
11
0.517717
21
3.82087
0
LINE
8
BLACK
6
CONTINUOUS
10
0.517717
20
3.82087
11
0.545276
21
3.82087
0
LINE
8
BLACK
6
CONTINUOUS
10
0.545276
20
3.82087
11
0.549185
21
3.82066
0
LINE
8
BLACK
6
CONTINUOUS
10
1.53067
20
4.42628
11
1.54452
21
4.42384
0
LINE
8
BLACK
6
CONTINUOUS
10
1.54452
20
4.42384
11
1.55801
21
4.41987
0
LINE
8
BLACK
6
CONTINUOUS
10
1.55801
20
4.41987
11
1.57098
21
4.41441
0
LINE
8
BLACK
6
CONTINUOUS
10
1.57098
20
4.41441
11
1.58325
21
4.40755
0
LINE
8
BLACK
6
CONTINUOUS
10
1.58325
20
4.40755
11
1.59469
21
4.39937
0
LINE
8
BLACK
6
CONTINUOUS
10
1.59469
20
4.39937
11
1.60514
21
4.38995
0
LINE
8
BLACK
6
CONTINUOUS
10
1.60514
20
4.38995
11
1.61448
21
4.37944
0
LINE
8
BLACK
6
CONTINUOUS
10
1.61448
20
4.37944
11
1.62259
21
4.36794
0
LINE
8
BLACK
6
CONTINUOUS
10
1.62259
20
4.36794
11
1.62936
21
4.35562
0
LINE
8
BLACK
6
CONTINUOUS
10
1.62936
20
4.35562
11
1.63472
21
4.34261
0
LINE
8
BLACK
6
CONTINUOUS
10
1.63472
20
4.34261
11
1.6386
21
4.32909
0
LINE
8
BLACK
6
CONTINUOUS
10
1.6386
20
4.32909
11
1.64095
21
4.31522
0
LINE
8
BLACK
6
CONTINUOUS
10
1.64095
20
4.31522
11
1.64173
21
4.30118
0
LINE
8
BLACK
6
CONTINUOUS
10
1.64173
20
4.30118
11
1.64168
21
4.29766
0
LINE
8
BLACK
6
CONTINUOUS
10
1.64168
20
4.29766
11
1.64051
21
4.28365
0
LINE
8
BLACK
6
CONTINUOUS
10
1.64051
20
4.28365
11
1.63777
21
4.26985
0
LINE
8
BLACK
6
CONTINUOUS
10
1.63777
20
4.26985
11
1.63352
21
4.25644
0
LINE
8
BLACK
6
CONTINUOUS
10
1.63352
20
4.25644
11
1.6278
21
4.24359
0
LINE
8
BLACK
6
CONTINUOUS
10
1.6278
20
4.24359
11
1.62068
21
4.23146
0
LINE
8
BLACK
6
CONTINUOUS
10
1.62068
20
4.23146
11
1.61226
21
4.2202
0
LINE
8
BLACK
6
CONTINUOUS
10
1.61226
20
4.2202
11
1.60263
21
4.20995
0
LINE
8
BLACK
6
CONTINUOUS
10
1.60263
20
4.20995
11
1.59192
21
4.20083
0
LINE
8
BLACK
6
CONTINUOUS
10
1.59192
20
4.20083
11
1.58026
21
4.19297
0
LINE
8
BLACK
6
CONTINUOUS
10
1.58026
20
4.19297
11
1.56779
21
4.18645
0
LINE
8
BLACK
6
CONTINUOUS
10
1.56779
20
4.18645
11
1.55468
21
4.18136
0
LINE
8
BLACK
6
CONTINUOUS
10
1.55468
20
4.18136
11
1.54108
21
4.17777
0
LINE
8
BLACK
6
CONTINUOUS
10
1.54108
20
4.17777
11
1.52717
21
4.17572
0
LINE
8
BLACK
6
CONTINUOUS
10
1.52717
20
4.17572
11
1.51311
21
4.17522
0
LINE
8
BLACK
6
CONTINUOUS
10
1.51311
20
4.17522
11
1.49909
21
4.1763
0
LINE
8
BLACK
6
CONTINUOUS
10
1.49909
20
4.1763
11
1.48527
21
4.17894
0
LINE
8
BLACK
6
CONTINUOUS
10
1.48527
20
4.17894
11
1.47183
21
4.1831
0
LINE
8
BLACK
6
CONTINUOUS
10
1.47183
20
4.1831
11
1.45894
21
4.18873
0
LINE
8
BLACK
6
CONTINUOUS
10
1.45894
20
4.18873
11
1.44676
21
4.19576
0
LINE
8
BLACK
6
CONTINUOUS
10
1.44676
20
4.19576
11
1.43544
21
4.20411
0
LINE
8
BLACK
6
CONTINUOUS
10
1.43544
20
4.20411
11
1.42512
21
4.21367
0
LINE
8
BLACK
6
CONTINUOUS
10
1.42512
20
4.21367
11
1.41593
21
4.22431
0
LINE
8
BLACK
6
CONTINUOUS
10
1.41593
20
4.22431
11
1.40799
21
4.23592
0
LINE
8
BLACK
6
CONTINUOUS
10
1.40799
20
4.23592
11
1.40138
21
4.24834
0
LINE
8
BLACK
6
CONTINUOUS
10
1.40138
20
4.24834
11
1.3962
21
4.26141
0
LINE
8
BLACK
6
CONTINUOUS
10
1.3962
20
4.26141
11
1.39252
21
4.27499
0
LINE
8
BLACK
6
CONTINUOUS
10
1.39252
20
4.27499
11
1.39037
21
4.28889
0
LINE
8
BLACK
6
CONTINUOUS
10
1.39037
20
4.28889
11
1.38978
21
4.30294
0
LINE
8
BLACK
6
CONTINUOUS
10
1.38978
20
4.30294
11
1.39076
21
4.31697
0
LINE
8
BLACK
6
CONTINUOUS
10
1.39076
20
4.31697
11
1.3933
21
4.33081
0
LINE
8
BLACK
6
CONTINUOUS
10
1.3933
20
4.33081
11
1.39736
21
4.34427
0
LINE
8
BLACK
6
CONTINUOUS
10
1.39736
20
4.34427
11
1.4029
21
4.3572
0
LINE
8
BLACK
6
CONTINUOUS
10
1.4029
20
4.3572
11
1.40985
21
4.36943
0
LINE
8
BLACK
6
CONTINUOUS
10
1.40985
20
4.36943
11
1.41812
21
4.38081
0
LINE
8
BLACK
6
CONTINUOUS
10
1.41812
20
4.38081
11
1.4276
21
4.39119
0
LINE
8
BLACK
6
CONTINUOUS
10
1.4276
20
4.39119
11
1.43818
21
4.40046
0
LINE
8
BLACK
6
CONTINUOUS
10
1.43818
20
4.40046
11
1.44973
21
4.40849
0
LINE
8
BLACK
6
CONTINUOUS
10
1.44973
20
4.40849
11
1.46211
21
4.41518
0
LINE
8
BLACK
6
CONTINUOUS
10
1.46211
20
4.41518
11
1.47515
21
4.42044
0
LINE
8
BLACK
6
CONTINUOUS
10
1.47515
20
4.42044
11
1.48869
21
4.42423
0
LINE
8
BLACK
6
CONTINUOUS
10
1.48869
20
4.42423
11
1.50258
21
4.42648
0
LINE
8
BLACK
6
CONTINUOUS
10
1.50258
20
4.42648
11
1.51663
21
4.42716
0
LINE
8
BLACK
6
CONTINUOUS
10
1.51663
20
4.42716
11
1.53067
21
4.42628
0
LINE
8
BLACK
6
CONTINUOUS
10
0.546413
20
4.42628
11
0.560265
21
4.42384
0
LINE
8
BLACK
6
CONTINUOUS
10
0.560265
20
4.42384
11
0.573758
21
4.41987
0
LINE
8
BLACK
6
CONTINUOUS
10
0.573758
20
4.41987
11
0.586724
21
4.41441
0
LINE
8
BLACK
6
CONTINUOUS
10
0.586724
20
4.41441
11
0.599002
21
4.40755
0
LINE
8
BLACK
6
CONTINUOUS
10
0.599002
20
4.40755
11
0.610438
21
4.39937
0
LINE
8
BLACK
6
CONTINUOUS
10
0.610438
20
4.39937
11
0.620891
21
4.38995
0
LINE
8
BLACK
6
CONTINUOUS
10
0.620891
20
4.38995
11
0.630229
21
4.37944
0
LINE
8
BLACK
6
CONTINUOUS
10
0.630229
20
4.37944
11
0.638337
21
4.36794
0
LINE
8
BLACK
6
CONTINUOUS
10
0.638337
20
4.36794
11
0.645113
21
4.35562
0
LINE
8
BLACK
6
CONTINUOUS
10
0.645113
20
4.35562
11
0.650473
21
4.34261
0
LINE
8
BLACK
6
CONTINUOUS
10
0.650473
20
4.34261
11
0.65435
21
4.32909
0
LINE
8
BLACK
6
CONTINUOUS
10
0.65435
20
4.32909
11
0.656695
21
4.31522
0
LINE
8
BLACK
6
CONTINUOUS
10
0.656695
20
4.31522
11
0.65748
21
4.30118
0
LINE
8
BLACK
6
CONTINUOUS
10
0.65748
20
4.30118
11
0.657431
21
4.29766
0
LINE
8
BLACK
6
CONTINUOUS
10
0.657431
20
4.29766
11
0.656254
21
4.28365
0
LINE
8
BLACK
6
CONTINUOUS
10
0.656254
20
4.28365
11
0.653522
21
4.26985
0
LINE
8
BLACK
6
CONTINUOUS
10
0.653522
20
4.26985
11
0.649269
21
4.25644
0
LINE
8
BLACK
6
CONTINUOUS
10
0.649269
20
4.25644
11
0.643549
21
4.24359
0
LINE
8
BLACK
6
CONTINUOUS
10
0.643549
20
4.24359
11
0.636431
21
4.23146
0
LINE
8
BLACK
6
CONTINUOUS
10
0.636431
20
4.23146
11
0.628006
21
4.2202
0
LINE
8
BLACK
6
CONTINUOUS
10
0.628006
20
4.2202
11
0.618377
21
4.20995
0
LINE
8
BLACK
6
CONTINUOUS
10
0.618377
20
4.20995
11
0.607666
21
4.20083
0
LINE
8
BLACK
6
CONTINUOUS
10
0.607666
20
4.20083
11
0.596005
21
4.19297
0
LINE
8
BLACK
6
CONTINUOUS
10
0.596005
20
4.19297
11
0.583541
21
4.18645
0
LINE
8
BLACK
6
CONTINUOUS
10
0.583541
20
4.18645
11
0.570427
21
4.18136
0
LINE
8
BLACK
6
CONTINUOUS
10
0.570427
20
4.18136
11
0.556829
21
4.17777
0
LINE
8
BLACK
6
CONTINUOUS
10
0.556829
20
4.17777
11
0.542914
21
4.17572
0
LINE
8
BLACK
6
CONTINUOUS
10
0.542914
20
4.17572
11
0.528858
21
4.17522
0
LINE
8
BLACK
6
CONTINUOUS
10
0.528858
20
4.17522
11
0.514834
21
4.1763
0
LINE
8
BLACK
6
CONTINUOUS
10
0.514834
20
4.1763
11
0.501018
21
4.17894
0
LINE
8
BLACK
6
CONTINUOUS
10
0.501018
20
4.17894
11
0.487581
21
4.1831
0
LINE
8
BLACK
6
CONTINUOUS
10
0.487581
20
4.1831
11
0.474693
21
4.18873
0
LINE
8
BLACK
6
CONTINUOUS
10
0.474693
20
4.18873
11
0.462512
21
4.19576
0
LINE
8
BLACK
6
CONTINUOUS
10
0.462512
20
4.19576
11
0.451191
21
4.20411
0
LINE
8
BLACK
6
CONTINUOUS
10
0.451191
20
4.20411
11
0.440871
21
4.21367
0
LINE
8
BLACK
6
CONTINUOUS
10
0.440871
20
4.21367
11
0.43168
21
4.22431
0
LINE
8
BLACK
6
CONTINUOUS
10
0.43168
20
4.22431
11
0.423734
21
4.23592
0
LINE
8
BLACK
6
CONTINUOUS
10
0.423734
20
4.23592
11
0.41713
21
4.24834
0
LINE
8
BLACK
6
CONTINUOUS
10
0.41713
20
4.24834
11
0.411953
21
4.26141
0
LINE
8
BLACK
6
CONTINUOUS
10
0.411953
20
4.26141
11
0.408265
21
4.27499
0
LINE
8
BLACK
6
CONTINUOUS
10
0.408265
20
4.27499
11
0.406113
21
4.28889
0
LINE
8
BLACK
6
CONTINUOUS
10
0.406113
20
4.28889
11
0.405524
21
4.30294
0
LINE
8
BLACK
6
CONTINUOUS
10
0.405524
20
4.30294
11
0.406505
21
4.31697
0
LINE
8
BLACK
6
CONTINUOUS
10
0.406505
20
4.31697
11
0.409044
21
4.33081
0
LINE
8
BLACK
6
CONTINUOUS
10
0.409044
20
4.33081
11
0.41311
21
4.34427
0
LINE
8
BLACK
6
CONTINUOUS
10
0.41311
20
4.34427
11
0.41865
21
4.3572
0
LINE
8
BLACK
6
CONTINUOUS
10
0.41865
20
4.3572
11
0.425598
21
4.36943
0
LINE
8
BLACK
6
CONTINUOUS
10
0.425598
20
4.36943
11
0.433865
21
4.38081
0
LINE
8
BLACK
6
CONTINUOUS
10
0.433865
20
4.38081
11
0.443349
21
4.39119
0
LINE
8
BLACK
6
CONTINUOUS
10
0.443349
20
4.39119
11
0.453932
21
4.40046
0
LINE
8
BLACK
6
CONTINUOUS
10
0.453932
20
4.40046
11
0.465482
21
4.40849
0
LINE
8
BLACK
6
CONTINUOUS
10
0.465482
20
4.40849
11
0.477855
21
4.41518
0
LINE
8
BLACK
6
CONTINUOUS
10
0.477855
20
4.41518
11
0.490896
21
4.42044
0
LINE
8
BLACK
6
CONTINUOUS
10
0.490896
20
4.42044
11
0.504443
21
4.42423
0
LINE
8
BLACK
6
CONTINUOUS
10
0.504443
20
4.42423
11
0.518327
21
4.42648
0
LINE
8
BLACK
6
CONTINUOUS
10
0.518327
20
4.42648
11
0.532376
21
4.42716
0
LINE
8
BLACK
6
CONTINUOUS
10
0.532376
20
4.42716
11
0.546413
21
4.42628
  0
ENDSEC
  0
EOF
