M48
; DRILL file {KiCad 6.0.10+dfsg-1~bpo11+1} date Thu Mar  2 20:46:35 2023
; FORMAT={-:-/ absolute / metric / decimal}
; #@! TF.CreationDate,2023-03-02T20:46:35+00:00
; #@! TF.GenerationSoftware,Kicad,Pcbnew,6.0.10+dfsg-1~bpo11+1
; #@! TF.FileFunction,Plated,1,2,PTH
FMAT,2
METRIC
; #@! TA.AperFunction,Plated,PTH,ViaDrill
T1C0.300
; #@! TA.AperFunction,Plated,PTH,ViaDrill
T2C0.400
; #@! TA.AperFunction,Plated,PTH,ComponentDrill
T3C0.500
; #@! TA.AperFunction,Plated,PTH,ComponentDrill
T4C0.600
; #@! TA.AperFunction,Plated,PTH,ComponentDrill
T5C1.750
; #@! TA.AperFunction,Plated,PTH,ComponentDrill
T6C3.000
; #@! TA.AperFunction,Plated,PTH,ComponentDrill
T7C3.300
; #@! TA.AperFunction,Plated,PTH,ComponentDrill
T8C6.400
%
G90
G05
T1
X3.775Y38.076
X3.978Y75.058
X5.467Y42.47
X5.5Y41.3
X5.87Y27.345
X6.3Y43.8
X6.85Y87.05
X7.077Y53.189
X7.331Y60.301
X7.636Y66.727
X8.7Y48.4
X9.3Y46.9
X9.49Y55.91
X10.1Y51.06
X11.268Y56.268
X11.585Y19.979
X12.05Y47.85
X14.3Y16.05
X14.951Y29.44
X16.221Y59.285
X16.678Y58.167
X17.6Y52.849
X18.1Y69.318
X18.2Y73.1
X19.2Y70.0
X20.063Y25.763
X20.7Y51.1
X21.23Y34.8
X21.6Y43.5
X21.62Y17.56
X21.794Y35.674
X21.8Y30.5
X22.1Y67.5
X22.395Y43.895
X22.4Y71.9
X22.45Y25.0
X22.95Y31.25
X23.051Y36.699
X23.3Y33.8
X23.333Y45.315
X23.5Y28.75
X23.55Y25.0
X23.6Y40.9
X23.6Y21.3
X23.968Y46.458
X24.397Y40.997
X24.434Y28.012
X24.45Y30.6
X24.572Y42.171
X25.0Y32.1
X25.0Y27.6
X25.377Y47.477
X25.534Y41.3
X25.7Y12.8
X26.0Y67.0
X26.028Y56.872
X26.04Y47.253
X26.102Y34.8
X26.102Y42.942
X26.134Y43.75
X26.135Y72.866
X26.214Y22.914
X26.243Y41.034
X26.4Y72.1
X26.4Y29.3
X26.718Y33.68
X26.8Y57.9
X27.179Y44.979
X27.2Y49.8
X27.439Y39.839
X27.447Y40.796
X27.5Y30.8
X27.524Y75.033
X27.893Y24.501
X28.1Y17.92
X28.351Y51.6
X28.549Y39.923
X28.6Y58.9
X29.13Y43.667
X29.15Y52.149
X29.4Y32.1
X29.549Y42.3
X29.659Y77.041
X29.661Y80.56
X29.958Y39.16
X30.2Y57.5
X30.3Y19.8
X30.3Y13.2
X30.98Y36.88
X31.182Y24.782
X31.588Y40.87
X31.693Y37.48
X32.2Y51.5
X32.2Y49.5
X32.7Y38.1
X33.05Y38.871
X33.2Y42.838
X33.605Y43.408
X33.721Y73.178
X33.8Y46.0
X34.001Y67.8
X34.3Y38.2
X35.75Y27.15
X35.75Y14.5
X35.8Y28.65
X35.9Y16.5
X36.4Y37.9
X37.13Y36.28
X37.9Y16.55
X37.95Y14.55
X38.05Y28.65
X38.05Y27.15
X38.3Y39.8
X38.527Y41.127
X38.6Y43.6
X39.38Y36.17
X39.83Y26.5
X40.1Y19.2
X40.2Y47.1
X40.4Y39.9
X40.5Y49.1
X41.4Y42.2
X41.7Y55.1
X42.5Y43.85
X42.601Y42.5
X42.9Y47.3
X44.288Y53.468
X44.527Y66.2
X44.923Y85.828
X45.45Y28.6
X45.45Y26.35
X45.55Y16.65
X45.55Y14.5
X46.472Y48.372
X46.472Y44.928
X47.1Y56.678
X47.1Y28.65
X47.1Y16.7
X47.15Y26.45
X47.15Y14.5
X49.647Y80.672
X49.851Y57.431
T2
X5.807Y30.71
X6.696Y70.715
X9.109Y73.255
X10.348Y29.948
X10.76Y16.677
X13.3Y53.316
X13.808Y74.525
X13.808Y13.628
X13.845Y51.956
X14.252Y79.732
X14.252Y77.192
X14.57Y49.125
X18.7Y25.5
X18.888Y53.488
X19.015Y32.488
X20.285Y72.747
X21.7Y66.2
X21.871Y33.609
X22.4Y26.8
X22.698Y56.11
X23.384Y61.19
X23.739Y84.558
X24.5Y35.1
X25.1Y51.338
X25.8Y39.0
X26.127Y54.459
X26.127Y52.935
X27.856Y48.744
X28.642Y26.658
X29.785Y70.8
X30.4Y31.35
X30.953Y41.378
X31.969Y72.874
X32.6Y54.0
X33.83Y27.67
X34.639Y45.439
X35.37Y33.64
X35.398Y43.426
X38.065Y74.525
X38.9Y50.1
X39.208Y79.033
X39.208Y77.319
X39.73Y24.76
X39.79Y42.0
X42.0Y13.7
X42.184Y39.8
X42.3Y73.219
X42.3Y45.8
X43.908Y68.708
X44.103Y69.597
X44.25Y26.4
X45.126Y58.091
X45.812Y71.604
X45.99Y58.015
X47.031Y59.183
T3
X3.5Y16.65
X4.159Y18.241
X4.159Y15.059
X5.75Y18.9
X5.75Y14.4
X7.341Y18.241
X7.341Y15.059
X8.0Y16.65
T5
X20.118Y45.797
X26.05Y64.25
T6
X5.75Y16.65
T7
X13.5Y109.25
X38.5Y109.25
T8
X13.5Y89.25
X13.5Y64.25
X38.5Y89.25
X38.5Y64.25
T4
G00X13.8Y96.1
M15
G01X13.2Y96.1
M16
G05
G00X13.8Y82.4
M15
G01X13.2Y82.4
M16
G05
G00X13.8Y71.1
M15
G01X13.2Y71.1
M16
G05
G00X13.8Y57.4
M15
G01X13.2Y57.4
M16
G05
G00X38.2Y96.1
M15
G01X38.8Y96.1
M16
G05
G00X38.2Y82.4
M15
G01X38.8Y82.4
M16
G05
G00X38.2Y71.1
M15
G01X38.8Y71.1
M16
G05
G00X38.2Y57.4
M15
G01X38.8Y57.4
M16
G05
G00X45.07Y47.72
M15
G01X43.97Y47.72
M16
G05
G00X45.07Y39.08
M15
G01X43.97Y39.08
M16
G05
G00X49.1Y47.72
M15
G01X48.3Y47.72
M16
G05
G00X49.1Y39.08
M15
G01X48.3Y39.08
M16
G05
T0
M30
