%TF.GenerationSoftware,KiCad,Pcbnew,6.0.9+dfsg-1~bpo11+1*%
%TF.CreationDate,2022-11-25T18:00:49+00:00*%
%TF.ProjectId,OpenThereminV4,4f70656e-5468-4657-9265-6d696e56342e,rev?*%
%TF.SameCoordinates,Original*%
%TF.FileFunction,Soldermask,Top*%
%TF.FilePolarity,Negative*%
%FSLAX46Y46*%
G04 Gerber Fmt 4.6, Leading zero omitted, Abs format (unit mm)*
G04 Created by KiCad (PCBNEW 6.0.9+dfsg-1~bpo11+1) date 2022-11-25 18:00:49*
%MOMM*%
%LPD*%
G01*
G04 APERTURE LIST*
%ADD10C,6.400000*%
%ADD11C,15.400000*%
%ADD12C,1.200000*%
%ADD13O,2.600000X1.900000*%
%ADD14C,8.400000*%
%ADD15C,1.050000*%
%ADD16O,2.400000X1.400000*%
%ADD17O,2.500000X1.450000*%
%ADD18C,2.400000*%
%ADD19C,1.390600*%
%ADD20C,2.100000*%
G04 APERTURE END LIST*
D10*
%TO.C,Y1*%
X112500000Y-55750000D03*
%TD*%
%TO.C,Y2*%
X87500000Y-55750000D03*
%TD*%
D11*
%TO.C,P10*%
X87500000Y-125750000D03*
%TD*%
D12*
%TO.C,GND1*%
X77500000Y-148350000D03*
X79750000Y-150600000D03*
X79750000Y-146100000D03*
D10*
X79750000Y-148350000D03*
D12*
X78159010Y-146759010D03*
X81340990Y-149940990D03*
X81340990Y-146759010D03*
X78159010Y-149940990D03*
X82000000Y-148350000D03*
%TD*%
D13*
%TO.C,P4*%
X87500000Y-93900000D03*
D14*
X87500000Y-100750000D03*
D13*
X87500000Y-107600000D03*
%TD*%
%TO.C,P2*%
X112500000Y-82600000D03*
X112500000Y-68900000D03*
D14*
X112500000Y-75750000D03*
%TD*%
D15*
%TO.C,J1*%
X119020000Y-124490000D03*
X119020000Y-118710000D03*
D16*
X122700000Y-117280000D03*
X122700000Y-125920000D03*
D17*
X118520000Y-117280000D03*
X118520000Y-125920000D03*
%TD*%
D13*
%TO.C,P3*%
X112500000Y-107600000D03*
X112500000Y-93900000D03*
D14*
X112500000Y-100750000D03*
%TD*%
D18*
%TO.C,D3*%
X94117678Y-119203033D03*
%TD*%
D19*
%TO.C,J2*%
X109525000Y-125892000D03*
X111557000Y-125892000D03*
X110541000Y-120812000D03*
%TD*%
D20*
%TO.C,Y3*%
X112200000Y-145700000D03*
X119200000Y-145700000D03*
%TD*%
%TO.C,Y7*%
X119200000Y-133650000D03*
X112200000Y-133650000D03*
%TD*%
D13*
%TO.C,P1*%
X87500000Y-68900000D03*
D14*
X87500000Y-75750000D03*
D13*
X87500000Y-82600000D03*
%TD*%
D18*
%TO.C,D4*%
X100050000Y-100750000D03*
%TD*%
G36*
X79809191Y-145168907D02*
G01*
X79845155Y-145218407D01*
X79850000Y-145249000D01*
X79850000Y-151301000D01*
X79831093Y-151359191D01*
X79781593Y-151395155D01*
X79751000Y-151400000D01*
X74849000Y-151400000D01*
X74790809Y-151381093D01*
X74754845Y-151331593D01*
X74750000Y-151301000D01*
X74750000Y-145249000D01*
X74768907Y-145190809D01*
X74818407Y-145154845D01*
X74849000Y-145150000D01*
X79751000Y-145150000D01*
X79809191Y-145168907D01*
G37*
M02*
