M48
; DRILL file {KiCad 6.0.9+dfsg-1~bpo11+1} date Tue Nov 22 06:03:41 2022
; FORMAT={-:-/ absolute / metric / decimal}
; #@! TF.CreationDate,2022-11-22T06:03:41+00:00
; #@! TF.GenerationSoftware,Kicad,Pcbnew,6.0.9+dfsg-1~bpo11+1
; #@! TF.FileFunction,Plated,1,2,PTH
FMAT,2
METRIC
; #@! TA.AperFunction,Plated,PTH,ViaDrill
T1C0.300
; #@! TA.AperFunction,Plated,PTH,ViaDrill
T2C0.400
; #@! TA.AperFunction,Plated,PTH,ComponentDrill
T3C0.500
; #@! TA.AperFunction,Plated,PTH,ComponentDrill
T4C0.600
; #@! TA.AperFunction,Plated,PTH,ComponentDrill
T5C1.750
; #@! TA.AperFunction,Plated,PTH,ComponentDrill
T6C3.000
; #@! TA.AperFunction,Plated,PTH,ComponentDrill
T7C3.300
; #@! TA.AperFunction,Plated,PTH,ComponentDrill
T8C6.400
%
G90
G05
T1
X77.775Y-126.924
X77.978Y-89.942
X79.468Y-122.53
X79.5Y-123.7
X79.87Y-137.655
X80.3Y-121.2
X80.85Y-77.95
X81.077Y-111.811
X81.331Y-104.699
X81.636Y-98.273
X82.7Y-116.6
X83.3Y-118.1
X83.49Y-109.09
X84.1Y-113.94
X85.268Y-108.732
X85.585Y-145.022
X86.05Y-117.149
X88.3Y-148.95
X88.951Y-135.56
X90.221Y-105.715
X90.678Y-106.833
X91.6Y-112.15
X92.1Y-95.682
X92.2Y-91.9
X93.2Y-95.0
X94.063Y-139.237
X94.7Y-113.9
X95.23Y-130.2
X95.6Y-121.5
X95.62Y-147.44
X95.794Y-129.326
X95.8Y-134.5
X96.1Y-97.5
X96.395Y-121.105
X96.4Y-93.1
X96.45Y-140.0
X96.95Y-133.75
X97.051Y-128.301
X97.3Y-131.2
X97.333Y-119.685
X97.5Y-136.25
X97.55Y-140.0
X97.6Y-124.1
X97.6Y-143.7
X97.968Y-118.542
X98.397Y-124.003
X98.434Y-136.988
X98.45Y-134.4
X98.572Y-122.828
X99.0Y-132.9
X99.0Y-137.4
X99.377Y-117.523
X99.533Y-123.7
X99.7Y-152.2
X100.0Y-98.0
X100.028Y-108.128
X100.04Y-117.747
X100.102Y-130.2
X100.102Y-122.058
X100.134Y-121.249
X100.135Y-92.134
X100.214Y-142.086
X100.243Y-123.966
X100.4Y-92.9
X100.4Y-135.7
X100.718Y-131.32
X100.8Y-107.1
X101.179Y-120.021
X101.2Y-115.2
X101.439Y-125.161
X101.447Y-124.204
X101.5Y-134.2
X101.524Y-89.967
X101.893Y-140.499
X102.1Y-147.08
X102.35Y-113.4
X102.549Y-125.077
X102.6Y-106.1
X103.13Y-121.333
X103.15Y-112.85
X103.4Y-132.9
X103.549Y-122.7
X103.659Y-87.959
X103.661Y-84.44
X103.959Y-125.84
X104.2Y-107.5
X104.3Y-145.2
X104.3Y-151.8
X104.98Y-128.12
X105.182Y-140.218
X105.588Y-124.13
X105.693Y-127.52
X106.2Y-113.5
X106.2Y-115.5
X106.7Y-126.9
X107.05Y-126.129
X107.2Y-122.162
X107.605Y-121.592
X107.721Y-91.822
X107.8Y-119.0
X108.001Y-97.2
X108.3Y-126.8
X109.75Y-137.85
X109.75Y-150.5
X109.8Y-136.35
X109.9Y-148.5
X110.4Y-127.1
X111.13Y-128.72
X111.9Y-148.45
X111.95Y-150.45
X112.05Y-136.35
X112.05Y-137.85
X112.3Y-125.2
X112.527Y-123.873
X112.6Y-121.4
X113.38Y-128.83
X113.83Y-138.5
X114.1Y-145.8
X114.2Y-117.9
X114.4Y-125.1
X114.5Y-115.9
X115.4Y-122.8
X115.7Y-109.9
X116.5Y-121.149
X116.601Y-122.5
X116.9Y-117.7
X118.288Y-111.532
X118.527Y-98.8
X118.923Y-79.172
X119.45Y-136.4
X119.45Y-138.65
X119.55Y-148.35
X119.55Y-150.5
X120.472Y-116.628
X120.472Y-120.072
X121.1Y-108.322
X121.1Y-136.35
X121.1Y-148.3
X121.15Y-138.55
X121.15Y-150.5
X123.647Y-84.328
X123.851Y-107.569
T2
X79.807Y-134.29
X80.696Y-94.285
X83.109Y-91.745
X84.348Y-135.052
X84.76Y-148.323
X87.3Y-111.684
X87.808Y-90.475
X87.808Y-151.371
X87.844Y-113.044
X88.252Y-85.268
X88.252Y-87.808
X88.57Y-115.875
X92.7Y-139.5
X92.888Y-111.512
X93.015Y-132.512
X94.285Y-92.253
X95.7Y-98.8
X95.871Y-131.391
X96.4Y-138.2
X96.698Y-108.89
X97.384Y-103.81
X97.739Y-80.442
X98.5Y-129.9
X99.1Y-113.662
X99.8Y-126.0
X100.127Y-110.541
X100.127Y-112.065
X101.856Y-116.256
X102.642Y-138.342
X103.785Y-94.2
X104.4Y-133.65
X104.953Y-123.622
X105.969Y-92.126
X106.6Y-111.0
X107.83Y-137.33
X108.639Y-119.561
X109.37Y-131.36
X109.398Y-121.574
X112.065Y-90.475
X112.9Y-114.9
X113.208Y-85.966
X113.208Y-87.681
X113.73Y-140.24
X113.79Y-123.0
X116.0Y-151.3
X116.184Y-125.2
X116.3Y-91.78
X116.3Y-119.2
X117.908Y-96.292
X118.103Y-95.403
X118.25Y-138.6
X119.126Y-106.909
X119.812Y-93.396
X119.99Y-106.985
X121.031Y-105.817
T3
X77.5Y-148.35
X78.159Y-146.759
X78.159Y-149.941
X79.75Y-146.1
X79.75Y-150.6
X81.341Y-146.759
X81.341Y-149.941
X82.0Y-148.35
T5
X94.118Y-119.203
X100.05Y-100.75
T6
X79.75Y-148.35
T7
X87.5Y-55.75
X112.5Y-55.75
T8
X87.5Y-75.75
X87.5Y-100.75
X112.5Y-75.75
X112.5Y-100.75
T4
G00X87.8Y-68.9
M15
G01X87.2Y-68.9
M16
G05
G00X87.8Y-82.6
M15
G01X87.2Y-82.6
M16
G05
G00X87.8Y-93.9
M15
G01X87.2Y-93.9
M16
G05
G00X87.8Y-107.6
M15
G01X87.2Y-107.6
M16
G05
G00X112.2Y-68.9
M15
G01X112.8Y-68.9
M16
G05
G00X112.2Y-82.6
M15
G01X112.8Y-82.6
M16
G05
G00X112.2Y-93.9
M15
G01X112.8Y-93.9
M16
G05
G00X112.2Y-107.6
M15
G01X112.8Y-107.6
M16
G05
G00X119.07Y-117.28
M15
G01X117.97Y-117.28
M16
G05
G00X119.07Y-125.92
M15
G01X117.97Y-125.92
M16
G05
G00X123.1Y-117.28
M15
G01X122.3Y-117.28
M16
G05
G00X123.1Y-125.92
M15
G01X122.3Y-125.92
M16
G05
T0
M30
