%TF.GenerationSoftware,KiCad,Pcbnew,6.0.10+dfsg-1~bpo11+1*%
%TF.CreationDate,2023-03-02T20:38:38+00:00*%
%TF.ProjectId,OpenThereminV4,4f70656e-5468-4657-9265-6d696e56342e,rev?*%
%TF.SameCoordinates,Original*%
%TF.FileFunction,Paste,Bot*%
%TF.FilePolarity,Positive*%
%FSLAX46Y46*%
G04 Gerber Fmt 4.6, Leading zero omitted, Abs format (unit mm)*
G04 Created by KiCad (PCBNEW 6.0.10+dfsg-1~bpo11+1) date 2023-03-02 20:38:38*
%MOMM*%
%LPD*%
G01*
G04 APERTURE LIST*
G04 Aperture macros list*
%AMRoundRect*
0 Rectangle with rounded corners*
0 $1 Rounding radius*
0 $2 $3 $4 $5 $6 $7 $8 $9 X,Y pos of 4 corners*
0 Add a 4 corners polygon primitive as box body*
4,1,4,$2,$3,$4,$5,$6,$7,$8,$9,$2,$3,0*
0 Add four circle primitives for the rounded corners*
1,1,$1+$1,$2,$3*
1,1,$1+$1,$4,$5*
1,1,$1+$1,$6,$7*
1,1,$1+$1,$8,$9*
0 Add four rect primitives between the rounded corners*
20,1,$1+$1,$2,$3,$4,$5,0*
20,1,$1+$1,$4,$5,$6,$7,0*
20,1,$1+$1,$6,$7,$8,$9,0*
20,1,$1+$1,$8,$9,$2,$3,0*%
%AMRotRect*
0 Rectangle, with rotation*
0 The origin of the aperture is its center*
0 $1 length*
0 $2 width*
0 $3 Rotation angle, in degrees counterclockwise*
0 Add horizontal line*
21,1,$1,$2,0,0,$3*%
G04 Aperture macros list end*
%ADD10O,2.200000X1.500000*%
%ADD11R,3.500000X3.000000*%
%ADD12R,1.150000X0.600000*%
%ADD13R,1.150000X0.300000*%
%ADD14RoundRect,0.250000X-1.450000X0.312500X-1.450000X-0.312500X1.450000X-0.312500X1.450000X0.312500X0*%
%ADD15R,0.800100X0.800100*%
%ADD16RoundRect,0.218750X0.256250X-0.218750X0.256250X0.218750X-0.256250X0.218750X-0.256250X-0.218750X0*%
%ADD17RoundRect,0.218750X-0.256250X0.218750X-0.256250X-0.218750X0.256250X-0.218750X0.256250X0.218750X0*%
%ADD18RoundRect,0.218750X0.218750X0.256250X-0.218750X0.256250X-0.218750X-0.256250X0.218750X-0.256250X0*%
%ADD19RoundRect,0.218750X-0.218750X-0.256250X0.218750X-0.256250X0.218750X0.256250X-0.218750X0.256250X0*%
%ADD20R,0.450000X1.750000*%
%ADD21RoundRect,0.150000X-0.825000X-0.150000X0.825000X-0.150000X0.825000X0.150000X-0.825000X0.150000X0*%
%ADD22RoundRect,0.150000X0.825000X0.150000X-0.825000X0.150000X-0.825000X-0.150000X0.825000X-0.150000X0*%
%ADD23RoundRect,0.150000X0.150000X-0.825000X0.150000X0.825000X-0.150000X0.825000X-0.150000X-0.825000X0*%
%ADD24R,1.060000X0.650000*%
%ADD25R,4.500000X2.000000*%
%ADD26RotRect,0.900000X0.850000X135.000000*%
%ADD27RoundRect,0.150000X-0.150000X0.825000X-0.150000X-0.825000X0.150000X-0.825000X0.150000X0.825000X0*%
%ADD28R,2.600000X2.800000*%
%ADD29R,2.200000X2.800000*%
%ADD30R,2.800000X2.800000*%
%ADD31RoundRect,0.243750X-0.243750X-0.456250X0.243750X-0.456250X0.243750X0.456250X-0.243750X0.456250X0*%
%ADD32RoundRect,0.250000X-0.375000X-0.625000X0.375000X-0.625000X0.375000X0.625000X-0.375000X0.625000X0*%
%ADD33RotRect,1.600000X0.550000X45.000000*%
%ADD34RotRect,1.600000X0.550000X315.000000*%
%ADD35RoundRect,0.200000X-0.275000X0.200000X-0.275000X-0.200000X0.275000X-0.200000X0.275000X0.200000X0*%
%ADD36R,0.850000X0.900000*%
G04 APERTURE END LIST*
D10*
%TO.C,P4*%
X13500000Y71100000D03*
X13500000Y57400000D03*
D11*
X20650000Y68750000D03*
X6850000Y64250000D03*
X20650000Y59750000D03*
%TD*%
D10*
%TO.C,P2*%
X38500000Y82400000D03*
X38500000Y96100000D03*
D11*
X31350000Y84750000D03*
X45150000Y89250000D03*
X31350000Y93750000D03*
%TD*%
D12*
%TO.C,J1*%
X43945000Y46600000D03*
X43945000Y45800000D03*
D13*
X43945000Y44650000D03*
X43945000Y43650000D03*
X43945000Y43150000D03*
X43945000Y42150000D03*
D12*
X43945000Y40200000D03*
X43945000Y41000000D03*
D13*
X43945000Y41650000D03*
X43945000Y42650000D03*
X43945000Y44150000D03*
X43945000Y45150000D03*
%TD*%
D14*
%TO.C,L2*%
X6200000Y82675000D03*
X6200000Y78400000D03*
%TD*%
D15*
%TO.C,D2*%
X14824000Y73763000D03*
X12924000Y73763000D03*
X13874000Y75761980D03*
%TD*%
D16*
%TO.C,C7*%
X11014000Y78081000D03*
X11014000Y79656000D03*
%TD*%
%TO.C,C8*%
X9236000Y78081000D03*
X9236000Y79656000D03*
%TD*%
D17*
%TO.C,C9*%
X7204000Y76836500D03*
X7204000Y75261500D03*
%TD*%
%TO.C,C11*%
X9109000Y75465000D03*
X9109000Y73890000D03*
%TD*%
D16*
%TO.C,C16*%
X14697000Y14936500D03*
X14697000Y16511500D03*
%TD*%
D17*
%TO.C,C24*%
X19500000Y19787500D03*
X19500000Y18212500D03*
%TD*%
%TO.C,C26*%
X3648000Y53087500D03*
X3648000Y51512500D03*
%TD*%
%TO.C,C27*%
X27079500Y55310000D03*
X27079500Y53735000D03*
%TD*%
D18*
%TO.C,C28*%
X26762000Y82526000D03*
X25187000Y82526000D03*
%TD*%
%TO.C,R2*%
X35550500Y78081000D03*
X33975500Y78081000D03*
%TD*%
%TO.C,R4*%
X35296500Y73890000D03*
X33721500Y73890000D03*
%TD*%
D17*
%TO.C,R5*%
X20158000Y79656000D03*
X20158000Y78081000D03*
%TD*%
D18*
%TO.C,R7*%
X18253000Y75668000D03*
X16678000Y75668000D03*
%TD*%
D19*
%TO.C,R8*%
X16678000Y73890000D03*
X18253000Y73890000D03*
%TD*%
D18*
%TO.C,R12*%
X14214500Y19534000D03*
X12639500Y19534000D03*
%TD*%
%TO.C,R14*%
X17487500Y18010000D03*
X15912500Y18010000D03*
%TD*%
D19*
%TO.C,R17*%
X34142500Y23710000D03*
X35717500Y23710000D03*
%TD*%
D14*
%TO.C,L1*%
X45800000Y82475000D03*
X45800000Y78200000D03*
%TD*%
D15*
%TO.C,D1*%
X39076000Y73749240D03*
X37176000Y73749240D03*
X38126000Y75748220D03*
%TD*%
D19*
%TO.C,R6*%
X16678000Y78081000D03*
X18253000Y78081000D03*
%TD*%
D17*
%TO.C,C2*%
X44796000Y76227000D03*
X44796000Y74652000D03*
%TD*%
D16*
%TO.C,C1*%
X40986000Y78081000D03*
X40986000Y79656000D03*
%TD*%
D10*
%TO.C,P3*%
X38500000Y57400000D03*
X38500000Y71100000D03*
D11*
X31350000Y59750000D03*
X45150000Y64250000D03*
X31350000Y68750000D03*
%TD*%
D17*
%TO.C,C4*%
X42891000Y75439500D03*
X42891000Y73864500D03*
%TD*%
D16*
%TO.C,C5*%
X40986000Y73864500D03*
X40986000Y75439500D03*
%TD*%
%TO.C,C14*%
X42891000Y78081000D03*
X42891000Y79656000D03*
%TD*%
D20*
%TO.C,U10*%
X30675000Y55200000D03*
X31325000Y55200000D03*
X31975000Y55200000D03*
X32625000Y55200000D03*
X33275000Y55200000D03*
X33925000Y55200000D03*
X34575000Y55200000D03*
X35225000Y55200000D03*
X35875000Y55200000D03*
X36525000Y55200000D03*
X37175000Y55200000D03*
X37825000Y55200000D03*
X38475000Y55200000D03*
X39125000Y55200000D03*
X39125000Y48000000D03*
X38475000Y48000000D03*
X37825000Y48000000D03*
X37175000Y48000000D03*
X36525000Y48000000D03*
X35875000Y48000000D03*
X35225000Y48000000D03*
X34575000Y48000000D03*
X33925000Y48000000D03*
X33275000Y48000000D03*
X32625000Y48000000D03*
X31975000Y48000000D03*
X31325000Y48000000D03*
X30675000Y48000000D03*
%TD*%
D19*
%TO.C,C23*%
X31562500Y46000000D03*
X33137500Y46000000D03*
%TD*%
D21*
%TO.C,U5*%
X23525000Y72940000D03*
X23525000Y74210000D03*
X23525000Y75480000D03*
X23525000Y76750000D03*
X23525000Y78020000D03*
X23525000Y79290000D03*
X23525000Y80560000D03*
X28475000Y80560000D03*
X28475000Y79290000D03*
X28475000Y78020000D03*
X28475000Y76750000D03*
X28475000Y75480000D03*
X28475000Y74210000D03*
X28475000Y72940000D03*
%TD*%
D22*
%TO.C,U6*%
X26275000Y32720000D03*
X26275000Y31450000D03*
X26275000Y30180000D03*
X26275000Y28910000D03*
X26275000Y27640000D03*
X26275000Y26370000D03*
X26275000Y25100000D03*
X21325000Y25100000D03*
X21325000Y26370000D03*
X21325000Y27640000D03*
X21325000Y28910000D03*
X21325000Y30180000D03*
X21325000Y31450000D03*
X21325000Y32720000D03*
%TD*%
D16*
%TO.C,C32*%
X44300000Y53912500D03*
X44300000Y55487500D03*
%TD*%
D19*
%TO.C,R20*%
X39960000Y36000000D03*
X41535000Y36000000D03*
%TD*%
D23*
%TO.C,U4*%
X13300000Y49825000D03*
X12030000Y49825000D03*
X10760000Y49825000D03*
X9490000Y49825000D03*
X8220000Y49825000D03*
X6950000Y49825000D03*
X5680000Y49825000D03*
X5680000Y54775000D03*
X6950000Y54775000D03*
X8220000Y54775000D03*
X9490000Y54775000D03*
X10760000Y54775000D03*
X12030000Y54775000D03*
X13300000Y54775000D03*
%TD*%
D16*
%TO.C,C35*%
X3648000Y39574500D03*
X3648000Y41149500D03*
%TD*%
D24*
%TO.C,U1*%
X5934000Y46900000D03*
X5934000Y45950000D03*
X5934000Y45000000D03*
X3734000Y45000000D03*
X3734000Y45950000D03*
X3734000Y46900000D03*
%TD*%
D19*
%TO.C,R13*%
X15912500Y19534000D03*
X17487500Y19534000D03*
%TD*%
D25*
%TO.C,X1*%
X10007000Y10009000D03*
X18507000Y10009000D03*
%TD*%
D16*
%TO.C,R15*%
X15586000Y53290500D03*
X15586000Y54865500D03*
%TD*%
D26*
%TO.C,D3*%
X21690990Y45036827D03*
X20877817Y44223654D03*
X18544365Y46557107D03*
X19357538Y47370280D03*
%TD*%
D24*
%TO.C,U11*%
X46320000Y50530000D03*
X46320000Y51480000D03*
X46320000Y52430000D03*
X48520000Y52430000D03*
X48520000Y50530000D03*
%TD*%
D19*
%TO.C,C33*%
X36525000Y45900000D03*
X38100000Y45900000D03*
%TD*%
D17*
%TO.C,C20*%
X15586000Y51309500D03*
X15586000Y49734500D03*
%TD*%
%TO.C,C18*%
X28300000Y12400000D03*
X28300000Y10825000D03*
%TD*%
D16*
%TO.C,C15*%
X12665000Y14912500D03*
X12665000Y16487500D03*
%TD*%
D19*
%TO.C,R11*%
X12639500Y18010000D03*
X14214500Y18010000D03*
%TD*%
D22*
%TO.C,U2*%
X8775000Y31218000D03*
X8775000Y29948000D03*
X8775000Y28678000D03*
X8775000Y27408000D03*
X8775000Y26138000D03*
X8775000Y24868000D03*
X8775000Y23598000D03*
X8775000Y22328000D03*
X3825000Y22328000D03*
X3825000Y23598000D03*
X3825000Y24868000D03*
X3825000Y26138000D03*
X3825000Y27408000D03*
X3825000Y28678000D03*
X3825000Y29948000D03*
X3825000Y31218000D03*
%TD*%
D19*
%TO.C,C25*%
X3876500Y33123000D03*
X5451500Y33123000D03*
%TD*%
D18*
%TO.C,C21*%
X21587500Y23400000D03*
X20012500Y23400000D03*
%TD*%
%TO.C,R16*%
X22487500Y21900000D03*
X20912500Y21900000D03*
%TD*%
D19*
%TO.C,R19*%
X15624000Y47855000D03*
X17199000Y47855000D03*
%TD*%
%TO.C,R18*%
X21999500Y47347000D03*
X23574500Y47347000D03*
%TD*%
%TO.C,R3*%
X33721500Y75668000D03*
X35296500Y75668000D03*
%TD*%
D17*
%TO.C,C13*%
X20158000Y75465000D03*
X20158000Y73890000D03*
%TD*%
D16*
%TO.C,C12*%
X11014000Y73890000D03*
X11014000Y75465000D03*
%TD*%
D17*
%TO.C,C3*%
X44796000Y73128000D03*
X44796000Y71553000D03*
%TD*%
D18*
%TO.C,C37*%
X47996400Y54255800D03*
X46421400Y54255800D03*
%TD*%
D17*
%TO.C,R1*%
X31842000Y79656000D03*
X31842000Y78081000D03*
%TD*%
%TO.C,C6*%
X31842000Y75487500D03*
X31842000Y73912500D03*
%TD*%
%TO.C,C10*%
X7204000Y73636000D03*
X7204000Y72061000D03*
%TD*%
D27*
%TO.C,U12*%
X21047000Y19723000D03*
X22317000Y19723000D03*
X23587000Y19723000D03*
X24857000Y19723000D03*
X26127000Y19723000D03*
X27397000Y19723000D03*
X28667000Y19723000D03*
X28667000Y14773000D03*
X27397000Y14773000D03*
X26127000Y14773000D03*
X24857000Y14773000D03*
X23587000Y14773000D03*
X22317000Y14773000D03*
X21047000Y14773000D03*
%TD*%
D17*
%TO.C,R21*%
X48923500Y36875000D03*
X48923500Y35300000D03*
%TD*%
D28*
%TO.C,Y3*%
X32900000Y20050000D03*
D29*
X44300000Y23000000D03*
X46300000Y15600000D03*
D30*
X36900000Y15600000D03*
%TD*%
D18*
%TO.C,C34*%
X5197500Y42902000D03*
X3622500Y42902000D03*
%TD*%
D23*
%TO.C,U7*%
X25238000Y49890000D03*
X23968000Y49890000D03*
X22698000Y49890000D03*
X21428000Y49890000D03*
X20158000Y49890000D03*
X18888000Y49890000D03*
X17618000Y49890000D03*
X17618000Y54840000D03*
X18888000Y54840000D03*
X20158000Y54840000D03*
X21428000Y54840000D03*
X22698000Y54840000D03*
X23968000Y54840000D03*
X25238000Y54840000D03*
%TD*%
D27*
%TO.C,U8*%
X28642000Y28619500D03*
X29912000Y28619500D03*
X31182000Y28619500D03*
X32452000Y28619500D03*
X32452000Y23669500D03*
X31182000Y23669500D03*
X29912000Y23669500D03*
X28642000Y23669500D03*
%TD*%
D28*
%TO.C,Y7*%
X32900000Y32100000D03*
D29*
X44300000Y35050000D03*
X46300000Y27650000D03*
D30*
X36900000Y27650000D03*
%TD*%
D31*
%TO.C,C29*%
X40747000Y26511500D03*
X42622000Y26511500D03*
%TD*%
D32*
%TO.C,C36*%
X41430000Y50780000D03*
X44230000Y50780000D03*
%TD*%
D25*
%TO.C,X2*%
X33493000Y10009000D03*
X41993000Y10009000D03*
%TD*%
D22*
%TO.C,U3*%
X16675000Y30456000D03*
X16675000Y29186000D03*
X16675000Y27916000D03*
X16675000Y26646000D03*
X16675000Y25376000D03*
X16675000Y24106000D03*
X16675000Y22836000D03*
X16675000Y21566000D03*
X11725000Y21566000D03*
X11725000Y22836000D03*
X11725000Y24106000D03*
X11725000Y25376000D03*
X11725000Y26646000D03*
X11725000Y27916000D03*
X11725000Y29186000D03*
X11725000Y30456000D03*
%TD*%
D17*
%TO.C,C17*%
X29850000Y11200000D03*
X29850000Y9625000D03*
%TD*%
D10*
%TO.C,P1*%
X13500000Y96100000D03*
X13500000Y82400000D03*
D11*
X20650000Y93750000D03*
X6850000Y89250000D03*
X20650000Y84750000D03*
%TD*%
D17*
%TO.C,C30*%
X41300000Y47887500D03*
X41300000Y46312500D03*
%TD*%
D19*
%TO.C,C22*%
X37612500Y23690000D03*
X39187500Y23690000D03*
%TD*%
D17*
%TO.C,R22*%
X47399500Y36875000D03*
X47399500Y35300000D03*
%TD*%
D33*
%TO.C,U9*%
X26468734Y36074144D03*
X25903049Y36639830D03*
X25337363Y37205515D03*
X24771678Y37771200D03*
X24205992Y38336886D03*
X23640307Y38902571D03*
X23074622Y39468257D03*
X22508936Y40033942D03*
D34*
X22508936Y42084552D03*
X23074622Y42650237D03*
X23640307Y43215923D03*
X24205992Y43781608D03*
X24771678Y44347294D03*
X25337363Y44912979D03*
X25903049Y45478664D03*
X26468734Y46044350D03*
D33*
X28519344Y46044350D03*
X29085029Y45478664D03*
X29650715Y44912979D03*
X30216400Y44347294D03*
X30782086Y43781608D03*
X31347771Y43215923D03*
X31913456Y42650237D03*
X32479142Y42084552D03*
D34*
X32479142Y40033942D03*
X31913456Y39468257D03*
X31347771Y38902571D03*
X30782086Y38336886D03*
X30216400Y37771200D03*
X29650715Y37205515D03*
X29085029Y36639830D03*
X28519344Y36074144D03*
%TD*%
D35*
%TO.C,R24*%
X26900000Y60850000D03*
X26900000Y59200000D03*
%TD*%
D36*
%TO.C,D4*%
X25475000Y65900000D03*
X26625000Y65900000D03*
X26625000Y62600000D03*
X25475000Y62600000D03*
%TD*%
D35*
%TO.C,R23*%
X25300000Y60850000D03*
X25300000Y59200000D03*
%TD*%
M02*
