%TF.GenerationSoftware,KiCad,Pcbnew,6.0.10+dfsg-1~bpo11+1*%
%TF.CreationDate,2023-02-22T00:56:27+00:00*%
%TF.ProjectId,OpenThereminV4,4f70656e-5468-4657-9265-6d696e56342e,rev?*%
%TF.SameCoordinates,Original*%
%TF.FileFunction,Legend,Top*%
%TF.FilePolarity,Positive*%
%FSLAX46Y46*%
G04 Gerber Fmt 4.6, Leading zero omitted, Abs format (unit mm)*
G04 Created by KiCad (PCBNEW 6.0.10+dfsg-1~bpo11+1) date 2023-02-22 00:56:27*
%MOMM*%
%LPD*%
G01*
G04 APERTURE LIST*
%ADD10C,0.300000*%
G04 APERTURE END LIST*
D10*
X21212087Y39250000D02*
G75*
G03*
X21212087Y39250000I-7762087J0D01*
G01*
X40238095Y44845239D02*
X40238095Y43226191D01*
X40333333Y43035715D01*
X40428571Y42940477D01*
X40619047Y42845239D01*
X41000000Y42845239D01*
X41190476Y42940477D01*
X41285714Y43035715D01*
X41380952Y43226191D01*
X41380952Y44845239D01*
X42238095Y42940477D02*
X42523809Y42845239D01*
X43000000Y42845239D01*
X43190476Y42940477D01*
X43285714Y43035715D01*
X43380952Y43226191D01*
X43380952Y43416667D01*
X43285714Y43607143D01*
X43190476Y43702381D01*
X43000000Y43797620D01*
X42619047Y43892858D01*
X42428571Y43988096D01*
X42333333Y44083334D01*
X42238095Y44273810D01*
X42238095Y44464286D01*
X42333333Y44654762D01*
X42428571Y44750000D01*
X42619047Y44845239D01*
X43095238Y44845239D01*
X43380952Y44750000D01*
X44904761Y43892858D02*
X45190476Y43797620D01*
X45285714Y43702381D01*
X45380952Y43511905D01*
X45380952Y43226191D01*
X45285714Y43035715D01*
X45190476Y42940477D01*
X45000000Y42845239D01*
X44238095Y42845239D01*
X44238095Y44845239D01*
X44904761Y44845239D01*
X45095238Y44750000D01*
X45190476Y44654762D01*
X45285714Y44464286D01*
X45285714Y44273810D01*
X45190476Y44083334D01*
X45095238Y43988096D01*
X44904761Y43892858D01*
X44238095Y43892858D01*
X46238095Y43607143D02*
X47761904Y43607143D01*
X49857142Y43035715D02*
X49761904Y42940477D01*
X49476190Y42845239D01*
X49285714Y42845239D01*
X49000000Y42940477D01*
X48809523Y43130953D01*
X48714285Y43321429D01*
X48619047Y43702381D01*
X48619047Y43988096D01*
X48714285Y44369048D01*
X48809523Y44559524D01*
X49000000Y44750000D01*
X49285714Y44845239D01*
X49476190Y44845239D01*
X49761904Y44750000D01*
X49857142Y44654762D01*
X30380952Y75095239D02*
X31523809Y75095239D01*
X30952380Y73095239D02*
X30952380Y75095239D01*
X32190476Y73095239D02*
X32190476Y74428572D01*
X32190476Y75095239D02*
X32095237Y75000000D01*
X32190476Y74904762D01*
X32285714Y75000000D01*
X32190476Y75095239D01*
X32190476Y74904762D01*
X33142857Y73095239D02*
X33142857Y74428572D01*
X33142857Y74238096D02*
X33238095Y74333334D01*
X33428571Y74428572D01*
X33714285Y74428572D01*
X33904761Y74333334D01*
X33999999Y74142858D01*
X33999999Y73095239D01*
X33999999Y74142858D02*
X34095237Y74333334D01*
X34285714Y74428572D01*
X34571428Y74428572D01*
X34761904Y74333334D01*
X34857142Y74142858D01*
X34857142Y73095239D01*
X35809523Y73095239D02*
X35809523Y75095239D01*
X35809523Y74333334D02*
X35999999Y74428572D01*
X36380952Y74428572D01*
X36571428Y74333334D01*
X36666666Y74238096D01*
X36761904Y74047620D01*
X36761904Y73476191D01*
X36666666Y73285715D01*
X36571428Y73190477D01*
X36380952Y73095239D01*
X35999999Y73095239D01*
X35809523Y73190477D01*
X38380952Y73190477D02*
X38190476Y73095239D01*
X37809523Y73095239D01*
X37619047Y73190477D01*
X37523809Y73380953D01*
X37523809Y74142858D01*
X37619047Y74333334D01*
X37809523Y74428572D01*
X38190476Y74428572D01*
X38380952Y74333334D01*
X38476190Y74142858D01*
X38476190Y73952381D01*
X37523809Y73761905D01*
X39333333Y73095239D02*
X39333333Y74428572D01*
X39333333Y74047620D02*
X39428571Y74238096D01*
X39523809Y74333334D01*
X39714285Y74428572D01*
X39904761Y74428572D01*
X5238095Y73595239D02*
X4571428Y74547620D01*
X4095238Y73595239D02*
X4095238Y75595239D01*
X4857143Y75595239D01*
X5047619Y75500000D01*
X5142857Y75404762D01*
X5238095Y75214286D01*
X5238095Y74928572D01*
X5142857Y74738096D01*
X5047619Y74642858D01*
X4857143Y74547620D01*
X4095238Y74547620D01*
X6857143Y73690477D02*
X6666666Y73595239D01*
X6285714Y73595239D01*
X6095238Y73690477D01*
X6000000Y73880953D01*
X6000000Y74642858D01*
X6095238Y74833334D01*
X6285714Y74928572D01*
X6666666Y74928572D01*
X6857143Y74833334D01*
X6952381Y74642858D01*
X6952381Y74452381D01*
X6000000Y74261905D01*
X8666666Y74928572D02*
X8666666Y73309524D01*
X8571428Y73119048D01*
X8476190Y73023810D01*
X8285714Y72928572D01*
X8000000Y72928572D01*
X7809524Y73023810D01*
X8666666Y73690477D02*
X8476190Y73595239D01*
X8095238Y73595239D01*
X7904762Y73690477D01*
X7809524Y73785715D01*
X7714286Y73976191D01*
X7714286Y74547620D01*
X7809524Y74738096D01*
X7904762Y74833334D01*
X8095238Y74928572D01*
X8476190Y74928572D01*
X8666666Y74833334D01*
X9619047Y73595239D02*
X9619047Y74928572D01*
X9619047Y75595239D02*
X9523809Y75500000D01*
X9619047Y75404762D01*
X9714286Y75500000D01*
X9619047Y75595239D01*
X9619047Y75404762D01*
X10476190Y73690477D02*
X10666666Y73595239D01*
X11047619Y73595239D01*
X11238095Y73690477D01*
X11333333Y73880953D01*
X11333333Y73976191D01*
X11238095Y74166667D01*
X11047619Y74261905D01*
X10761905Y74261905D01*
X10571428Y74357143D01*
X10476190Y74547620D01*
X10476190Y74642858D01*
X10571428Y74833334D01*
X10761905Y74928572D01*
X11047619Y74928572D01*
X11238095Y74833334D01*
X11904762Y74928572D02*
X12666666Y74928572D01*
X12190476Y75595239D02*
X12190476Y73880953D01*
X12285714Y73690477D01*
X12476190Y73595239D01*
X12666666Y73595239D01*
X14095238Y73690477D02*
X13904762Y73595239D01*
X13523809Y73595239D01*
X13333333Y73690477D01*
X13238095Y73880953D01*
X13238095Y74642858D01*
X13333333Y74833334D01*
X13523809Y74928572D01*
X13904762Y74928572D01*
X14095238Y74833334D01*
X14190476Y74642858D01*
X14190476Y74452381D01*
X13238095Y74261905D01*
X15047619Y73595239D02*
X15047619Y74928572D01*
X15047619Y74547620D02*
X15142857Y74738096D01*
X15238095Y74833334D01*
X15428571Y74928572D01*
X15619047Y74928572D01*
X12728571Y126845239D02*
X13109523Y126845239D01*
X13300000Y126750000D01*
X13490476Y126559524D01*
X13585714Y126178572D01*
X13585714Y125511905D01*
X13490476Y125130953D01*
X13300000Y124940477D01*
X13109523Y124845239D01*
X12728571Y124845239D01*
X12538095Y124940477D01*
X12347619Y125130953D01*
X12252380Y125511905D01*
X12252380Y126178572D01*
X12347619Y126559524D01*
X12538095Y126750000D01*
X12728571Y126845239D01*
X14442857Y126178572D02*
X14442857Y124178572D01*
X14442857Y126083334D02*
X14633333Y126178572D01*
X15014285Y126178572D01*
X15204761Y126083334D01*
X15300000Y125988096D01*
X15395238Y125797620D01*
X15395238Y125226191D01*
X15300000Y125035715D01*
X15204761Y124940477D01*
X15014285Y124845239D01*
X14633333Y124845239D01*
X14442857Y124940477D01*
X17014285Y124940477D02*
X16823809Y124845239D01*
X16442857Y124845239D01*
X16252380Y124940477D01*
X16157142Y125130953D01*
X16157142Y125892858D01*
X16252380Y126083334D01*
X16442857Y126178572D01*
X16823809Y126178572D01*
X17014285Y126083334D01*
X17109523Y125892858D01*
X17109523Y125702381D01*
X16157142Y125511905D01*
X17966666Y126178572D02*
X17966666Y124845239D01*
X17966666Y125988096D02*
X18061904Y126083334D01*
X18252380Y126178572D01*
X18538095Y126178572D01*
X18728571Y126083334D01*
X18823809Y125892858D01*
X18823809Y124845239D01*
X19490476Y126845239D02*
X20633333Y126845239D01*
X20061904Y124845239D02*
X20061904Y126845239D01*
X21300000Y124845239D02*
X21300000Y126845239D01*
X22157142Y124845239D02*
X22157142Y125892858D01*
X22061904Y126083334D01*
X21871428Y126178572D01*
X21585714Y126178572D01*
X21395238Y126083334D01*
X21300000Y125988096D01*
X23871428Y124940477D02*
X23680952Y124845239D01*
X23300000Y124845239D01*
X23109523Y124940477D01*
X23014285Y125130953D01*
X23014285Y125892858D01*
X23109523Y126083334D01*
X23300000Y126178572D01*
X23680952Y126178572D01*
X23871428Y126083334D01*
X23966666Y125892858D01*
X23966666Y125702381D01*
X23014285Y125511905D01*
X24823809Y124845239D02*
X24823809Y126178572D01*
X24823809Y125797620D02*
X24919047Y125988096D01*
X25014285Y126083334D01*
X25204761Y126178572D01*
X25395238Y126178572D01*
X26823809Y124940477D02*
X26633333Y124845239D01*
X26252380Y124845239D01*
X26061904Y124940477D01*
X25966666Y125130953D01*
X25966666Y125892858D01*
X26061904Y126083334D01*
X26252380Y126178572D01*
X26633333Y126178572D01*
X26823809Y126083334D01*
X26919047Y125892858D01*
X26919047Y125702381D01*
X25966666Y125511905D01*
X27776190Y124845239D02*
X27776190Y126178572D01*
X27776190Y125988096D02*
X27871428Y126083334D01*
X28061904Y126178572D01*
X28347619Y126178572D01*
X28538095Y126083334D01*
X28633333Y125892858D01*
X28633333Y124845239D01*
X28633333Y125892858D02*
X28728571Y126083334D01*
X28919047Y126178572D01*
X29204761Y126178572D01*
X29395238Y126083334D01*
X29490476Y125892858D01*
X29490476Y124845239D01*
X30442857Y124845239D02*
X30442857Y126178572D01*
X30442857Y126845239D02*
X30347619Y126750000D01*
X30442857Y126654762D01*
X30538095Y126750000D01*
X30442857Y126845239D01*
X30442857Y126654762D01*
X31395238Y126178572D02*
X31395238Y124845239D01*
X31395238Y125988096D02*
X31490476Y126083334D01*
X31680952Y126178572D01*
X31966666Y126178572D01*
X32157142Y126083334D01*
X32252380Y125892858D01*
X32252380Y124845239D01*
X34442857Y126845239D02*
X35109523Y124845239D01*
X35776190Y126845239D01*
X37300000Y126178572D02*
X37300000Y124845239D01*
X36823809Y126940477D02*
X36347619Y125511905D01*
X37585714Y125511905D01*
X38347619Y125035715D02*
X38442857Y124940477D01*
X38347619Y124845239D01*
X38252380Y124940477D01*
X38347619Y125035715D01*
X38347619Y124845239D01*
X39204761Y126654762D02*
X39300000Y126750000D01*
X39490476Y126845239D01*
X39966666Y126845239D01*
X40157142Y126750000D01*
X40252380Y126654762D01*
X40347619Y126464286D01*
X40347619Y126273810D01*
X40252380Y125988096D01*
X39109523Y124845239D01*
X40347619Y124845239D01*
X41261904Y18535715D02*
X41166666Y18440477D01*
X40880952Y18345239D01*
X40690476Y18345239D01*
X40404761Y18440477D01*
X40214285Y18630953D01*
X40119047Y18821429D01*
X40023809Y19202381D01*
X40023809Y19488096D01*
X40119047Y19869048D01*
X40214285Y20059524D01*
X40404761Y20250000D01*
X40690476Y20345239D01*
X40880952Y20345239D01*
X41166666Y20250000D01*
X41261904Y20154762D01*
X41833333Y20345239D02*
X42500000Y18345239D01*
X43166666Y20345239D01*
X40083333Y32345239D02*
X40464285Y32345239D01*
X40654761Y32250000D01*
X40845238Y32059524D01*
X40940476Y31678572D01*
X40940476Y31011905D01*
X40845238Y30630953D01*
X40654761Y30440477D01*
X40464285Y30345239D01*
X40083333Y30345239D01*
X39892857Y30440477D01*
X39702380Y30630953D01*
X39607142Y31011905D01*
X39607142Y31678572D01*
X39702380Y32059524D01*
X39892857Y32250000D01*
X40083333Y32345239D01*
X42654761Y31678572D02*
X42654761Y30345239D01*
X41797619Y31678572D02*
X41797619Y30630953D01*
X41892857Y30440477D01*
X42083333Y30345239D01*
X42369047Y30345239D01*
X42559523Y30440477D01*
X42654761Y30535715D01*
X43321428Y31678572D02*
X44083333Y31678572D01*
X43607142Y32345239D02*
X43607142Y30630953D01*
X43702380Y30440477D01*
X43892857Y30345239D01*
X44083333Y30345239D01*
X30666666Y98095239D02*
X30666666Y100095239D01*
X31428571Y100095239D01*
X31619047Y100000000D01*
X31714285Y99904762D01*
X31809523Y99714286D01*
X31809523Y99428572D01*
X31714285Y99238096D01*
X31619047Y99142858D01*
X31428571Y99047620D01*
X30666666Y99047620D01*
X32666666Y98095239D02*
X32666666Y99428572D01*
X32666666Y100095239D02*
X32571428Y100000000D01*
X32666666Y99904762D01*
X32761904Y100000000D01*
X32666666Y100095239D01*
X32666666Y99904762D01*
X33333333Y99428572D02*
X34095238Y99428572D01*
X33619047Y100095239D02*
X33619047Y98380953D01*
X33714285Y98190477D01*
X33904761Y98095239D01*
X34095238Y98095239D01*
X35619047Y98190477D02*
X35428571Y98095239D01*
X35047619Y98095239D01*
X34857142Y98190477D01*
X34761904Y98285715D01*
X34666666Y98476191D01*
X34666666Y99047620D01*
X34761904Y99238096D01*
X34857142Y99333334D01*
X35047619Y99428572D01*
X35428571Y99428572D01*
X35619047Y99333334D01*
X36476190Y98095239D02*
X36476190Y100095239D01*
X37333333Y98095239D02*
X37333333Y99142858D01*
X37238095Y99333334D01*
X37047619Y99428572D01*
X36761904Y99428572D01*
X36571428Y99333334D01*
X36476190Y99238096D01*
X3809523Y100095239D02*
X4476190Y98095239D01*
X5142857Y100095239D01*
X6095238Y98095239D02*
X5904761Y98190477D01*
X5809523Y98285715D01*
X5714285Y98476191D01*
X5714285Y99047620D01*
X5809523Y99238096D01*
X5904761Y99333334D01*
X6095238Y99428572D01*
X6380952Y99428572D01*
X6571428Y99333334D01*
X6666666Y99238096D01*
X6761904Y99047620D01*
X6761904Y98476191D01*
X6666666Y98285715D01*
X6571428Y98190477D01*
X6380952Y98095239D01*
X6095238Y98095239D01*
X7904761Y98095239D02*
X7714285Y98190477D01*
X7619047Y98380953D01*
X7619047Y100095239D01*
X9523809Y99428572D02*
X9523809Y98095239D01*
X8666666Y99428572D02*
X8666666Y98380953D01*
X8761904Y98190477D01*
X8952380Y98095239D01*
X9238095Y98095239D01*
X9428571Y98190477D01*
X9523809Y98285715D01*
X10476190Y98095239D02*
X10476190Y99428572D01*
X10476190Y99238096D02*
X10571428Y99333334D01*
X10761904Y99428572D01*
X11047619Y99428572D01*
X11238095Y99333334D01*
X11333333Y99142858D01*
X11333333Y98095239D01*
X11333333Y99142858D02*
X11428571Y99333334D01*
X11619047Y99428572D01*
X11904761Y99428572D01*
X12095238Y99333334D01*
X12190476Y99142858D01*
X12190476Y98095239D01*
X13904761Y98190477D02*
X13714285Y98095239D01*
X13333333Y98095239D01*
X13142857Y98190477D01*
X13047619Y98380953D01*
X13047619Y99142858D01*
X13142857Y99333334D01*
X13333333Y99428572D01*
X13714285Y99428572D01*
X13904761Y99333334D01*
X14000000Y99142858D01*
X14000000Y98952381D01*
X13047619Y98761905D01*
X4761904Y50142858D02*
X4095238Y50142858D01*
X4095238Y49095239D02*
X4095238Y51095239D01*
X5047619Y51095239D01*
X6666666Y50428572D02*
X6666666Y49095239D01*
X5809523Y50428572D02*
X5809523Y49380953D01*
X5904761Y49190477D01*
X6095238Y49095239D01*
X6380952Y49095239D01*
X6571428Y49190477D01*
X6666666Y49285715D01*
X7619047Y50428572D02*
X7619047Y49095239D01*
X7619047Y50238096D02*
X7714285Y50333334D01*
X7904761Y50428572D01*
X8190476Y50428572D01*
X8380952Y50333334D01*
X8476190Y50142858D01*
X8476190Y49095239D01*
X10285714Y49190477D02*
X10095238Y49095239D01*
X9714285Y49095239D01*
X9523809Y49190477D01*
X9428571Y49285715D01*
X9333333Y49476191D01*
X9333333Y50047620D01*
X9428571Y50238096D01*
X9523809Y50333334D01*
X9714285Y50428572D01*
X10095238Y50428572D01*
X10285714Y50333334D01*
X10857142Y50428572D02*
X11619047Y50428572D01*
X11142857Y51095239D02*
X11142857Y49380953D01*
X11238095Y49190477D01*
X11428571Y49095239D01*
X11619047Y49095239D01*
X12285714Y49095239D02*
X12285714Y50428572D01*
X12285714Y51095239D02*
X12190476Y51000000D01*
X12285714Y50904762D01*
X12380952Y51000000D01*
X12285714Y51095239D01*
X12285714Y50904762D01*
X13523809Y49095239D02*
X13333333Y49190477D01*
X13238095Y49285715D01*
X13142857Y49476191D01*
X13142857Y50047620D01*
X13238095Y50238096D01*
X13333333Y50333334D01*
X13523809Y50428572D01*
X13809523Y50428572D01*
X14000000Y50333334D01*
X14095238Y50238096D01*
X14190476Y50047620D01*
X14190476Y49476191D01*
X14095238Y49285715D01*
X14000000Y49190477D01*
X13809523Y49095239D01*
X13523809Y49095239D01*
X15047619Y50428572D02*
X15047619Y49095239D01*
X15047619Y50238096D02*
X15142857Y50333334D01*
X15333333Y50428572D01*
X15619047Y50428572D01*
X15809523Y50333334D01*
X15904761Y50142858D01*
X15904761Y49095239D01*
X5035714Y23250000D02*
X4845238Y23345239D01*
X4559523Y23345239D01*
X4273809Y23250000D01*
X4083333Y23059524D01*
X3988095Y22869048D01*
X3892857Y22488096D01*
X3892857Y22202381D01*
X3988095Y21821429D01*
X4083333Y21630953D01*
X4273809Y21440477D01*
X4559523Y21345239D01*
X4750000Y21345239D01*
X5035714Y21440477D01*
X5130952Y21535715D01*
X5130952Y22202381D01*
X4750000Y22202381D01*
X5988095Y21345239D02*
X5988095Y22678572D01*
X5988095Y22297620D02*
X6083333Y22488096D01*
X6178571Y22583334D01*
X6369047Y22678572D01*
X6559523Y22678572D01*
X7511904Y21345239D02*
X7321428Y21440477D01*
X7226190Y21535715D01*
X7130952Y21726191D01*
X7130952Y22297620D01*
X7226190Y22488096D01*
X7321428Y22583334D01*
X7511904Y22678572D01*
X7797619Y22678572D01*
X7988095Y22583334D01*
X8083333Y22488096D01*
X8178571Y22297620D01*
X8178571Y21726191D01*
X8083333Y21535715D01*
X7988095Y21440477D01*
X7797619Y21345239D01*
X7511904Y21345239D01*
X9892857Y22678572D02*
X9892857Y21345239D01*
X9035714Y22678572D02*
X9035714Y21630953D01*
X9130952Y21440477D01*
X9321428Y21345239D01*
X9607142Y21345239D01*
X9797619Y21440477D01*
X9892857Y21535715D01*
X10845238Y22678572D02*
X10845238Y21345239D01*
X10845238Y22488096D02*
X10940476Y22583334D01*
X11130952Y22678572D01*
X11416666Y22678572D01*
X11607142Y22583334D01*
X11702380Y22392858D01*
X11702380Y21345239D01*
X13511904Y21345239D02*
X13511904Y23345239D01*
X13511904Y21440477D02*
X13321428Y21345239D01*
X12940476Y21345239D01*
X12750000Y21440477D01*
X12654761Y21535715D01*
X12559523Y21726191D01*
X12559523Y22297620D01*
X12654761Y22488096D01*
X12750000Y22583334D01*
X12940476Y22678572D01*
X13321428Y22678572D01*
X13511904Y22583334D01*
M02*
