%TF.GenerationSoftware,KiCad,Pcbnew,6.0.9+dfsg-1~bpo11+1*%
%TF.CreationDate,2022-11-22T06:03:41+00:00*%
%TF.ProjectId,OpenThereminV4,4f70656e-5468-4657-9265-6d696e56342e,rev?*%
%TF.SameCoordinates,Original*%
%TF.FileFunction,Legend,Top*%
%TF.FilePolarity,Positive*%
%FSLAX46Y46*%
G04 Gerber Fmt 4.6, Leading zero omitted, Abs format (unit mm)*
G04 Created by KiCad (PCBNEW 6.0.9+dfsg-1~bpo11+1) date 2022-11-22 06:03:41*
%MOMM*%
%LPD*%
G01*
G04 APERTURE LIST*
%ADD10C,0.300000*%
G04 APERTURE END LIST*
D10*
X95212087Y-125750000D02*
G75*
G03*
X95212087Y-125750000I-7762087J0D01*
G01*
X114238095Y-120154761D02*
X114238095Y-121773809D01*
X114333333Y-121964285D01*
X114428571Y-122059523D01*
X114619047Y-122154761D01*
X115000000Y-122154761D01*
X115190476Y-122059523D01*
X115285714Y-121964285D01*
X115380952Y-121773809D01*
X115380952Y-120154761D01*
X116238095Y-122059523D02*
X116523809Y-122154761D01*
X117000000Y-122154761D01*
X117190476Y-122059523D01*
X117285714Y-121964285D01*
X117380952Y-121773809D01*
X117380952Y-121583333D01*
X117285714Y-121392857D01*
X117190476Y-121297619D01*
X117000000Y-121202380D01*
X116619047Y-121107142D01*
X116428571Y-121011904D01*
X116333333Y-120916666D01*
X116238095Y-120726190D01*
X116238095Y-120535714D01*
X116333333Y-120345238D01*
X116428571Y-120250000D01*
X116619047Y-120154761D01*
X117095238Y-120154761D01*
X117380952Y-120250000D01*
X118904761Y-121107142D02*
X119190476Y-121202380D01*
X119285714Y-121297619D01*
X119380952Y-121488095D01*
X119380952Y-121773809D01*
X119285714Y-121964285D01*
X119190476Y-122059523D01*
X119000000Y-122154761D01*
X118238095Y-122154761D01*
X118238095Y-120154761D01*
X118904761Y-120154761D01*
X119095238Y-120250000D01*
X119190476Y-120345238D01*
X119285714Y-120535714D01*
X119285714Y-120726190D01*
X119190476Y-120916666D01*
X119095238Y-121011904D01*
X118904761Y-121107142D01*
X118238095Y-121107142D01*
X120238095Y-121392857D02*
X121761904Y-121392857D01*
X123857142Y-121964285D02*
X123761904Y-122059523D01*
X123476190Y-122154761D01*
X123285714Y-122154761D01*
X123000000Y-122059523D01*
X122809523Y-121869047D01*
X122714285Y-121678571D01*
X122619047Y-121297619D01*
X122619047Y-121011904D01*
X122714285Y-120630952D01*
X122809523Y-120440476D01*
X123000000Y-120250000D01*
X123285714Y-120154761D01*
X123476190Y-120154761D01*
X123761904Y-120250000D01*
X123857142Y-120345238D01*
X104380952Y-89904761D02*
X105523809Y-89904761D01*
X104952380Y-91904761D02*
X104952380Y-89904761D01*
X106190476Y-91904761D02*
X106190476Y-90571428D01*
X106190476Y-89904761D02*
X106095237Y-90000000D01*
X106190476Y-90095238D01*
X106285714Y-90000000D01*
X106190476Y-89904761D01*
X106190476Y-90095238D01*
X107142857Y-91904761D02*
X107142857Y-90571428D01*
X107142857Y-90761904D02*
X107238095Y-90666666D01*
X107428571Y-90571428D01*
X107714285Y-90571428D01*
X107904761Y-90666666D01*
X107999999Y-90857142D01*
X107999999Y-91904761D01*
X107999999Y-90857142D02*
X108095237Y-90666666D01*
X108285714Y-90571428D01*
X108571428Y-90571428D01*
X108761904Y-90666666D01*
X108857142Y-90857142D01*
X108857142Y-91904761D01*
X109809523Y-91904761D02*
X109809523Y-89904761D01*
X109809523Y-90666666D02*
X109999999Y-90571428D01*
X110380952Y-90571428D01*
X110571428Y-90666666D01*
X110666666Y-90761904D01*
X110761904Y-90952380D01*
X110761904Y-91523809D01*
X110666666Y-91714285D01*
X110571428Y-91809523D01*
X110380952Y-91904761D01*
X109999999Y-91904761D01*
X109809523Y-91809523D01*
X112380952Y-91809523D02*
X112190476Y-91904761D01*
X111809523Y-91904761D01*
X111619047Y-91809523D01*
X111523809Y-91619047D01*
X111523809Y-90857142D01*
X111619047Y-90666666D01*
X111809523Y-90571428D01*
X112190476Y-90571428D01*
X112380952Y-90666666D01*
X112476190Y-90857142D01*
X112476190Y-91047619D01*
X111523809Y-91238095D01*
X113333333Y-91904761D02*
X113333333Y-90571428D01*
X113333333Y-90952380D02*
X113428571Y-90761904D01*
X113523809Y-90666666D01*
X113714285Y-90571428D01*
X113904761Y-90571428D01*
X79238095Y-91404761D02*
X78571428Y-90452380D01*
X78095238Y-91404761D02*
X78095238Y-89404761D01*
X78857143Y-89404761D01*
X79047619Y-89500000D01*
X79142857Y-89595238D01*
X79238095Y-89785714D01*
X79238095Y-90071428D01*
X79142857Y-90261904D01*
X79047619Y-90357142D01*
X78857143Y-90452380D01*
X78095238Y-90452380D01*
X80857143Y-91309523D02*
X80666666Y-91404761D01*
X80285714Y-91404761D01*
X80095238Y-91309523D01*
X80000000Y-91119047D01*
X80000000Y-90357142D01*
X80095238Y-90166666D01*
X80285714Y-90071428D01*
X80666666Y-90071428D01*
X80857143Y-90166666D01*
X80952381Y-90357142D01*
X80952381Y-90547619D01*
X80000000Y-90738095D01*
X82666666Y-90071428D02*
X82666666Y-91690476D01*
X82571428Y-91880952D01*
X82476190Y-91976190D01*
X82285714Y-92071428D01*
X82000000Y-92071428D01*
X81809524Y-91976190D01*
X82666666Y-91309523D02*
X82476190Y-91404761D01*
X82095238Y-91404761D01*
X81904762Y-91309523D01*
X81809524Y-91214285D01*
X81714286Y-91023809D01*
X81714286Y-90452380D01*
X81809524Y-90261904D01*
X81904762Y-90166666D01*
X82095238Y-90071428D01*
X82476190Y-90071428D01*
X82666666Y-90166666D01*
X83619047Y-91404761D02*
X83619047Y-90071428D01*
X83619047Y-89404761D02*
X83523809Y-89500000D01*
X83619047Y-89595238D01*
X83714286Y-89500000D01*
X83619047Y-89404761D01*
X83619047Y-89595238D01*
X84476190Y-91309523D02*
X84666666Y-91404761D01*
X85047619Y-91404761D01*
X85238095Y-91309523D01*
X85333333Y-91119047D01*
X85333333Y-91023809D01*
X85238095Y-90833333D01*
X85047619Y-90738095D01*
X84761905Y-90738095D01*
X84571428Y-90642857D01*
X84476190Y-90452380D01*
X84476190Y-90357142D01*
X84571428Y-90166666D01*
X84761905Y-90071428D01*
X85047619Y-90071428D01*
X85238095Y-90166666D01*
X85904762Y-90071428D02*
X86666666Y-90071428D01*
X86190476Y-89404761D02*
X86190476Y-91119047D01*
X86285714Y-91309523D01*
X86476190Y-91404761D01*
X86666666Y-91404761D01*
X88095238Y-91309523D02*
X87904762Y-91404761D01*
X87523809Y-91404761D01*
X87333333Y-91309523D01*
X87238095Y-91119047D01*
X87238095Y-90357142D01*
X87333333Y-90166666D01*
X87523809Y-90071428D01*
X87904762Y-90071428D01*
X88095238Y-90166666D01*
X88190476Y-90357142D01*
X88190476Y-90547619D01*
X87238095Y-90738095D01*
X89047619Y-91404761D02*
X89047619Y-90071428D01*
X89047619Y-90452380D02*
X89142857Y-90261904D01*
X89238095Y-90166666D01*
X89428571Y-90071428D01*
X89619047Y-90071428D01*
X86728571Y-38154761D02*
X87109523Y-38154761D01*
X87300000Y-38250000D01*
X87490476Y-38440476D01*
X87585714Y-38821428D01*
X87585714Y-39488095D01*
X87490476Y-39869047D01*
X87300000Y-40059523D01*
X87109523Y-40154761D01*
X86728571Y-40154761D01*
X86538095Y-40059523D01*
X86347619Y-39869047D01*
X86252380Y-39488095D01*
X86252380Y-38821428D01*
X86347619Y-38440476D01*
X86538095Y-38250000D01*
X86728571Y-38154761D01*
X88442857Y-38821428D02*
X88442857Y-40821428D01*
X88442857Y-38916666D02*
X88633333Y-38821428D01*
X89014285Y-38821428D01*
X89204761Y-38916666D01*
X89300000Y-39011904D01*
X89395238Y-39202380D01*
X89395238Y-39773809D01*
X89300000Y-39964285D01*
X89204761Y-40059523D01*
X89014285Y-40154761D01*
X88633333Y-40154761D01*
X88442857Y-40059523D01*
X91014285Y-40059523D02*
X90823809Y-40154761D01*
X90442857Y-40154761D01*
X90252380Y-40059523D01*
X90157142Y-39869047D01*
X90157142Y-39107142D01*
X90252380Y-38916666D01*
X90442857Y-38821428D01*
X90823809Y-38821428D01*
X91014285Y-38916666D01*
X91109523Y-39107142D01*
X91109523Y-39297619D01*
X90157142Y-39488095D01*
X91966666Y-38821428D02*
X91966666Y-40154761D01*
X91966666Y-39011904D02*
X92061904Y-38916666D01*
X92252380Y-38821428D01*
X92538095Y-38821428D01*
X92728571Y-38916666D01*
X92823809Y-39107142D01*
X92823809Y-40154761D01*
X93490476Y-38154761D02*
X94633333Y-38154761D01*
X94061904Y-40154761D02*
X94061904Y-38154761D01*
X95300000Y-40154761D02*
X95300000Y-38154761D01*
X96157142Y-40154761D02*
X96157142Y-39107142D01*
X96061904Y-38916666D01*
X95871428Y-38821428D01*
X95585714Y-38821428D01*
X95395238Y-38916666D01*
X95300000Y-39011904D01*
X97871428Y-40059523D02*
X97680952Y-40154761D01*
X97300000Y-40154761D01*
X97109523Y-40059523D01*
X97014285Y-39869047D01*
X97014285Y-39107142D01*
X97109523Y-38916666D01*
X97300000Y-38821428D01*
X97680952Y-38821428D01*
X97871428Y-38916666D01*
X97966666Y-39107142D01*
X97966666Y-39297619D01*
X97014285Y-39488095D01*
X98823809Y-40154761D02*
X98823809Y-38821428D01*
X98823809Y-39202380D02*
X98919047Y-39011904D01*
X99014285Y-38916666D01*
X99204761Y-38821428D01*
X99395238Y-38821428D01*
X100823809Y-40059523D02*
X100633333Y-40154761D01*
X100252380Y-40154761D01*
X100061904Y-40059523D01*
X99966666Y-39869047D01*
X99966666Y-39107142D01*
X100061904Y-38916666D01*
X100252380Y-38821428D01*
X100633333Y-38821428D01*
X100823809Y-38916666D01*
X100919047Y-39107142D01*
X100919047Y-39297619D01*
X99966666Y-39488095D01*
X101776190Y-40154761D02*
X101776190Y-38821428D01*
X101776190Y-39011904D02*
X101871428Y-38916666D01*
X102061904Y-38821428D01*
X102347619Y-38821428D01*
X102538095Y-38916666D01*
X102633333Y-39107142D01*
X102633333Y-40154761D01*
X102633333Y-39107142D02*
X102728571Y-38916666D01*
X102919047Y-38821428D01*
X103204761Y-38821428D01*
X103395238Y-38916666D01*
X103490476Y-39107142D01*
X103490476Y-40154761D01*
X104442857Y-40154761D02*
X104442857Y-38821428D01*
X104442857Y-38154761D02*
X104347619Y-38250000D01*
X104442857Y-38345238D01*
X104538095Y-38250000D01*
X104442857Y-38154761D01*
X104442857Y-38345238D01*
X105395238Y-38821428D02*
X105395238Y-40154761D01*
X105395238Y-39011904D02*
X105490476Y-38916666D01*
X105680952Y-38821428D01*
X105966666Y-38821428D01*
X106157142Y-38916666D01*
X106252380Y-39107142D01*
X106252380Y-40154761D01*
X108442857Y-38154761D02*
X109109523Y-40154761D01*
X109776190Y-38154761D01*
X111300000Y-38821428D02*
X111300000Y-40154761D01*
X110823809Y-38059523D02*
X110347619Y-39488095D01*
X111585714Y-39488095D01*
X112347619Y-39964285D02*
X112442857Y-40059523D01*
X112347619Y-40154761D01*
X112252380Y-40059523D01*
X112347619Y-39964285D01*
X112347619Y-40154761D01*
X113204761Y-38345238D02*
X113300000Y-38250000D01*
X113490476Y-38154761D01*
X113966666Y-38154761D01*
X114157142Y-38250000D01*
X114252380Y-38345238D01*
X114347619Y-38535714D01*
X114347619Y-38726190D01*
X114252380Y-39011904D01*
X113109523Y-40154761D01*
X114347619Y-40154761D01*
X115261904Y-146464285D02*
X115166666Y-146559523D01*
X114880952Y-146654761D01*
X114690476Y-146654761D01*
X114404761Y-146559523D01*
X114214285Y-146369047D01*
X114119047Y-146178571D01*
X114023809Y-145797619D01*
X114023809Y-145511904D01*
X114119047Y-145130952D01*
X114214285Y-144940476D01*
X114404761Y-144750000D01*
X114690476Y-144654761D01*
X114880952Y-144654761D01*
X115166666Y-144750000D01*
X115261904Y-144845238D01*
X115833333Y-144654761D02*
X116500000Y-146654761D01*
X117166666Y-144654761D01*
X114083333Y-132654761D02*
X114464285Y-132654761D01*
X114654761Y-132750000D01*
X114845238Y-132940476D01*
X114940476Y-133321428D01*
X114940476Y-133988095D01*
X114845238Y-134369047D01*
X114654761Y-134559523D01*
X114464285Y-134654761D01*
X114083333Y-134654761D01*
X113892857Y-134559523D01*
X113702380Y-134369047D01*
X113607142Y-133988095D01*
X113607142Y-133321428D01*
X113702380Y-132940476D01*
X113892857Y-132750000D01*
X114083333Y-132654761D01*
X116654761Y-133321428D02*
X116654761Y-134654761D01*
X115797619Y-133321428D02*
X115797619Y-134369047D01*
X115892857Y-134559523D01*
X116083333Y-134654761D01*
X116369047Y-134654761D01*
X116559523Y-134559523D01*
X116654761Y-134464285D01*
X117321428Y-133321428D02*
X118083333Y-133321428D01*
X117607142Y-132654761D02*
X117607142Y-134369047D01*
X117702380Y-134559523D01*
X117892857Y-134654761D01*
X118083333Y-134654761D01*
X104666666Y-66904761D02*
X104666666Y-64904761D01*
X105428571Y-64904761D01*
X105619047Y-65000000D01*
X105714285Y-65095238D01*
X105809523Y-65285714D01*
X105809523Y-65571428D01*
X105714285Y-65761904D01*
X105619047Y-65857142D01*
X105428571Y-65952380D01*
X104666666Y-65952380D01*
X106666666Y-66904761D02*
X106666666Y-65571428D01*
X106666666Y-64904761D02*
X106571428Y-65000000D01*
X106666666Y-65095238D01*
X106761904Y-65000000D01*
X106666666Y-64904761D01*
X106666666Y-65095238D01*
X107333333Y-65571428D02*
X108095238Y-65571428D01*
X107619047Y-64904761D02*
X107619047Y-66619047D01*
X107714285Y-66809523D01*
X107904761Y-66904761D01*
X108095238Y-66904761D01*
X109619047Y-66809523D02*
X109428571Y-66904761D01*
X109047619Y-66904761D01*
X108857142Y-66809523D01*
X108761904Y-66714285D01*
X108666666Y-66523809D01*
X108666666Y-65952380D01*
X108761904Y-65761904D01*
X108857142Y-65666666D01*
X109047619Y-65571428D01*
X109428571Y-65571428D01*
X109619047Y-65666666D01*
X110476190Y-66904761D02*
X110476190Y-64904761D01*
X111333333Y-66904761D02*
X111333333Y-65857142D01*
X111238095Y-65666666D01*
X111047619Y-65571428D01*
X110761904Y-65571428D01*
X110571428Y-65666666D01*
X110476190Y-65761904D01*
X77809523Y-64904761D02*
X78476190Y-66904761D01*
X79142857Y-64904761D01*
X80095238Y-66904761D02*
X79904761Y-66809523D01*
X79809523Y-66714285D01*
X79714285Y-66523809D01*
X79714285Y-65952380D01*
X79809523Y-65761904D01*
X79904761Y-65666666D01*
X80095238Y-65571428D01*
X80380952Y-65571428D01*
X80571428Y-65666666D01*
X80666666Y-65761904D01*
X80761904Y-65952380D01*
X80761904Y-66523809D01*
X80666666Y-66714285D01*
X80571428Y-66809523D01*
X80380952Y-66904761D01*
X80095238Y-66904761D01*
X81904761Y-66904761D02*
X81714285Y-66809523D01*
X81619047Y-66619047D01*
X81619047Y-64904761D01*
X83523809Y-65571428D02*
X83523809Y-66904761D01*
X82666666Y-65571428D02*
X82666666Y-66619047D01*
X82761904Y-66809523D01*
X82952380Y-66904761D01*
X83238095Y-66904761D01*
X83428571Y-66809523D01*
X83523809Y-66714285D01*
X84476190Y-66904761D02*
X84476190Y-65571428D01*
X84476190Y-65761904D02*
X84571428Y-65666666D01*
X84761904Y-65571428D01*
X85047619Y-65571428D01*
X85238095Y-65666666D01*
X85333333Y-65857142D01*
X85333333Y-66904761D01*
X85333333Y-65857142D02*
X85428571Y-65666666D01*
X85619047Y-65571428D01*
X85904761Y-65571428D01*
X86095238Y-65666666D01*
X86190476Y-65857142D01*
X86190476Y-66904761D01*
X87904761Y-66809523D02*
X87714285Y-66904761D01*
X87333333Y-66904761D01*
X87142857Y-66809523D01*
X87047619Y-66619047D01*
X87047619Y-65857142D01*
X87142857Y-65666666D01*
X87333333Y-65571428D01*
X87714285Y-65571428D01*
X87904761Y-65666666D01*
X88000000Y-65857142D01*
X88000000Y-66047619D01*
X87047619Y-66238095D01*
X78761904Y-114857142D02*
X78095238Y-114857142D01*
X78095238Y-115904761D02*
X78095238Y-113904761D01*
X79047619Y-113904761D01*
X80666666Y-114571428D02*
X80666666Y-115904761D01*
X79809523Y-114571428D02*
X79809523Y-115619047D01*
X79904761Y-115809523D01*
X80095238Y-115904761D01*
X80380952Y-115904761D01*
X80571428Y-115809523D01*
X80666666Y-115714285D01*
X81619047Y-114571428D02*
X81619047Y-115904761D01*
X81619047Y-114761904D02*
X81714285Y-114666666D01*
X81904761Y-114571428D01*
X82190476Y-114571428D01*
X82380952Y-114666666D01*
X82476190Y-114857142D01*
X82476190Y-115904761D01*
X84285714Y-115809523D02*
X84095238Y-115904761D01*
X83714285Y-115904761D01*
X83523809Y-115809523D01*
X83428571Y-115714285D01*
X83333333Y-115523809D01*
X83333333Y-114952380D01*
X83428571Y-114761904D01*
X83523809Y-114666666D01*
X83714285Y-114571428D01*
X84095238Y-114571428D01*
X84285714Y-114666666D01*
X84857142Y-114571428D02*
X85619047Y-114571428D01*
X85142857Y-113904761D02*
X85142857Y-115619047D01*
X85238095Y-115809523D01*
X85428571Y-115904761D01*
X85619047Y-115904761D01*
X86285714Y-115904761D02*
X86285714Y-114571428D01*
X86285714Y-113904761D02*
X86190476Y-114000000D01*
X86285714Y-114095238D01*
X86380952Y-114000000D01*
X86285714Y-113904761D01*
X86285714Y-114095238D01*
X87523809Y-115904761D02*
X87333333Y-115809523D01*
X87238095Y-115714285D01*
X87142857Y-115523809D01*
X87142857Y-114952380D01*
X87238095Y-114761904D01*
X87333333Y-114666666D01*
X87523809Y-114571428D01*
X87809523Y-114571428D01*
X88000000Y-114666666D01*
X88095238Y-114761904D01*
X88190476Y-114952380D01*
X88190476Y-115523809D01*
X88095238Y-115714285D01*
X88000000Y-115809523D01*
X87809523Y-115904761D01*
X87523809Y-115904761D01*
X89047619Y-114571428D02*
X89047619Y-115904761D01*
X89047619Y-114761904D02*
X89142857Y-114666666D01*
X89333333Y-114571428D01*
X89619047Y-114571428D01*
X89809523Y-114666666D01*
X89904761Y-114857142D01*
X89904761Y-115904761D01*
X79035714Y-141750000D02*
X78845238Y-141654761D01*
X78559523Y-141654761D01*
X78273809Y-141750000D01*
X78083333Y-141940476D01*
X77988095Y-142130952D01*
X77892857Y-142511904D01*
X77892857Y-142797619D01*
X77988095Y-143178571D01*
X78083333Y-143369047D01*
X78273809Y-143559523D01*
X78559523Y-143654761D01*
X78750000Y-143654761D01*
X79035714Y-143559523D01*
X79130952Y-143464285D01*
X79130952Y-142797619D01*
X78750000Y-142797619D01*
X79988095Y-143654761D02*
X79988095Y-142321428D01*
X79988095Y-142702380D02*
X80083333Y-142511904D01*
X80178571Y-142416666D01*
X80369047Y-142321428D01*
X80559523Y-142321428D01*
X81511904Y-143654761D02*
X81321428Y-143559523D01*
X81226190Y-143464285D01*
X81130952Y-143273809D01*
X81130952Y-142702380D01*
X81226190Y-142511904D01*
X81321428Y-142416666D01*
X81511904Y-142321428D01*
X81797619Y-142321428D01*
X81988095Y-142416666D01*
X82083333Y-142511904D01*
X82178571Y-142702380D01*
X82178571Y-143273809D01*
X82083333Y-143464285D01*
X81988095Y-143559523D01*
X81797619Y-143654761D01*
X81511904Y-143654761D01*
X83892857Y-142321428D02*
X83892857Y-143654761D01*
X83035714Y-142321428D02*
X83035714Y-143369047D01*
X83130952Y-143559523D01*
X83321428Y-143654761D01*
X83607142Y-143654761D01*
X83797619Y-143559523D01*
X83892857Y-143464285D01*
X84845238Y-142321428D02*
X84845238Y-143654761D01*
X84845238Y-142511904D02*
X84940476Y-142416666D01*
X85130952Y-142321428D01*
X85416666Y-142321428D01*
X85607142Y-142416666D01*
X85702380Y-142607142D01*
X85702380Y-143654761D01*
X87511904Y-143654761D02*
X87511904Y-141654761D01*
X87511904Y-143559523D02*
X87321428Y-143654761D01*
X86940476Y-143654761D01*
X86750000Y-143559523D01*
X86654761Y-143464285D01*
X86559523Y-143273809D01*
X86559523Y-142702380D01*
X86654761Y-142511904D01*
X86750000Y-142416666D01*
X86940476Y-142321428D01*
X87321428Y-142321428D01*
X87511904Y-142416666D01*
M02*
