%TF.GenerationSoftware,KiCad,Pcbnew,6.0.9+dfsg-1~bpo11+1*%
%TF.CreationDate,2022-11-22T06:03:41+00:00*%
%TF.ProjectId,OpenThereminV4,4f70656e-5468-4657-9265-6d696e56342e,rev?*%
%TF.SameCoordinates,Original*%
%TF.FileFunction,Legend,Bot*%
%TF.FilePolarity,Positive*%
%FSLAX46Y46*%
G04 Gerber Fmt 4.6, Leading zero omitted, Abs format (unit mm)*
G04 Created by KiCad (PCBNEW 6.0.9+dfsg-1~bpo11+1) date 2022-11-22 06:03:41*
%MOMM*%
%LPD*%
G01*
G04 APERTURE LIST*
%ADD10C,0.150000*%
%ADD11C,0.200000*%
%ADD12C,0.100000*%
%ADD13C,0.015000*%
%ADD14C,0.120000*%
G04 APERTURE END LIST*
D10*
X121259800Y-101905000D02*
X121259800Y-97129800D01*
X78700000Y-101905000D02*
X78700000Y-97129800D01*
X74750000Y-159250000D02*
X125250000Y-159250000D01*
X91227076Y-158275552D02*
X91322314Y-158227933D01*
X91369933Y-158180314D01*
X91417552Y-158085076D01*
X91417552Y-158037457D01*
X91369933Y-157942219D01*
X91322314Y-157894600D01*
X91227076Y-157846980D01*
X91036600Y-157846980D01*
X90941361Y-157894600D01*
X90893742Y-157942219D01*
X90846123Y-158037457D01*
X90846123Y-158085076D01*
X90893742Y-158180314D01*
X90941361Y-158227933D01*
X91036600Y-158275552D01*
X91227076Y-158275552D01*
X91322314Y-158323171D01*
X91369933Y-158370790D01*
X91417552Y-158466028D01*
X91417552Y-158656504D01*
X91369933Y-158751742D01*
X91322314Y-158799361D01*
X91227076Y-158846980D01*
X91036600Y-158846980D01*
X90941361Y-158799361D01*
X90893742Y-158751742D01*
X90846123Y-158656504D01*
X90846123Y-158466028D01*
X90893742Y-158370790D01*
X90941361Y-158323171D01*
X91036600Y-158275552D01*
X90417552Y-158751742D02*
X90369933Y-158799361D01*
X90417552Y-158846980D01*
X90465171Y-158799361D01*
X90417552Y-158751742D01*
X90417552Y-158846980D01*
X89750885Y-157846980D02*
X89655647Y-157846980D01*
X89560409Y-157894600D01*
X89512790Y-157942219D01*
X89465171Y-158037457D01*
X89417552Y-158227933D01*
X89417552Y-158466028D01*
X89465171Y-158656504D01*
X89512790Y-158751742D01*
X89560409Y-158799361D01*
X89655647Y-158846980D01*
X89750885Y-158846980D01*
X89846123Y-158799361D01*
X89893742Y-158751742D01*
X89941361Y-158656504D01*
X89988980Y-158466028D01*
X89988980Y-158227933D01*
X89941361Y-158037457D01*
X89893742Y-157942219D01*
X89846123Y-157894600D01*
X89750885Y-157846980D01*
X88798504Y-157846980D02*
X88703266Y-157846980D01*
X88608028Y-157894600D01*
X88560409Y-157942219D01*
X88512790Y-158037457D01*
X88465171Y-158227933D01*
X88465171Y-158466028D01*
X88512790Y-158656504D01*
X88560409Y-158751742D01*
X88608028Y-158799361D01*
X88703266Y-158846980D01*
X88798504Y-158846980D01*
X88893742Y-158799361D01*
X88941361Y-158751742D01*
X88988980Y-158656504D01*
X89036600Y-158466028D01*
X89036600Y-158227933D01*
X88988980Y-158037457D01*
X88941361Y-157942219D01*
X88893742Y-157894600D01*
X88798504Y-157846980D01*
X87846123Y-157846980D02*
X87750885Y-157846980D01*
X87655647Y-157894600D01*
X87608028Y-157942219D01*
X87560409Y-158037457D01*
X87512790Y-158227933D01*
X87512790Y-158466028D01*
X87560409Y-158656504D01*
X87608028Y-158751742D01*
X87655647Y-158799361D01*
X87750885Y-158846980D01*
X87846123Y-158846980D01*
X87941361Y-158799361D01*
X87988980Y-158751742D01*
X88036600Y-158656504D01*
X88084219Y-158466028D01*
X88084219Y-158227933D01*
X88036600Y-158037457D01*
X87988980Y-157942219D01*
X87941361Y-157894600D01*
X87846123Y-157846980D01*
X87084219Y-158846980D02*
X87084219Y-157846980D01*
X86750885Y-158561266D01*
X86417552Y-157846980D01*
X86417552Y-158846980D01*
X85941361Y-158846980D02*
X85941361Y-157846980D01*
X85512790Y-158846980D02*
X85512790Y-158323171D01*
X85560409Y-158227933D01*
X85655647Y-158180314D01*
X85798504Y-158180314D01*
X85893742Y-158227933D01*
X85941361Y-158275552D01*
X85131838Y-158180314D02*
X84608028Y-158180314D01*
X85131838Y-158846980D01*
X84608028Y-158846980D01*
D11*
X90309523Y-60202380D02*
X89976190Y-61202380D01*
X89642857Y-60202380D01*
X89119047Y-60202380D02*
X88928571Y-60202380D01*
X88833333Y-60250000D01*
X88738095Y-60345238D01*
X88690476Y-60535714D01*
X88690476Y-60869047D01*
X88738095Y-61059523D01*
X88833333Y-61154761D01*
X88928571Y-61202380D01*
X89119047Y-61202380D01*
X89214285Y-61154761D01*
X89309523Y-61059523D01*
X89357142Y-60869047D01*
X89357142Y-60535714D01*
X89309523Y-60345238D01*
X89214285Y-60250000D01*
X89119047Y-60202380D01*
X87785714Y-61202380D02*
X88261904Y-61202380D01*
X88261904Y-60202380D01*
X87452380Y-60202380D02*
X87452380Y-61011904D01*
X87404761Y-61107142D01*
X87357142Y-61154761D01*
X87261904Y-61202380D01*
X87071428Y-61202380D01*
X86976190Y-61154761D01*
X86928571Y-61107142D01*
X86880952Y-61011904D01*
X86880952Y-60202380D01*
X86404761Y-61202380D02*
X86404761Y-60202380D01*
X86071428Y-60916666D01*
X85738095Y-60202380D01*
X85738095Y-61202380D01*
X85261904Y-60678571D02*
X84928571Y-60678571D01*
X84785714Y-61202380D02*
X85261904Y-61202380D01*
X85261904Y-60202380D01*
X84785714Y-60202380D01*
X114404761Y-61202380D02*
X114404761Y-60202380D01*
X114023809Y-60202380D01*
X113928571Y-60250000D01*
X113880952Y-60297619D01*
X113833333Y-60392857D01*
X113833333Y-60535714D01*
X113880952Y-60630952D01*
X113928571Y-60678571D01*
X114023809Y-60726190D01*
X114404761Y-60726190D01*
X113404761Y-61202380D02*
X113404761Y-60202380D01*
X113071428Y-60202380D02*
X112500000Y-60202380D01*
X112785714Y-61202380D02*
X112785714Y-60202380D01*
X111595238Y-61107142D02*
X111642857Y-61154761D01*
X111785714Y-61202380D01*
X111880952Y-61202380D01*
X112023809Y-61154761D01*
X112119047Y-61059523D01*
X112166666Y-60964285D01*
X112214285Y-60773809D01*
X112214285Y-60630952D01*
X112166666Y-60440476D01*
X112119047Y-60345238D01*
X112023809Y-60250000D01*
X111880952Y-60202380D01*
X111785714Y-60202380D01*
X111642857Y-60250000D01*
X111595238Y-60297619D01*
X111166666Y-61202380D02*
X111166666Y-60202380D01*
X111166666Y-60678571D02*
X110595238Y-60678571D01*
X110595238Y-61202380D02*
X110595238Y-60202380D01*
X123852380Y-101566666D02*
X124852380Y-101900000D01*
X123852380Y-102233333D01*
X124757142Y-103138095D02*
X124804761Y-103090476D01*
X124852380Y-102947619D01*
X124852380Y-102852380D01*
X124804761Y-102709523D01*
X124709523Y-102614285D01*
X124614285Y-102566666D01*
X124423809Y-102519047D01*
X124280952Y-102519047D01*
X124090476Y-102566666D01*
X123995238Y-102614285D01*
X123900000Y-102709523D01*
X123852380Y-102852380D01*
X123852380Y-102947619D01*
X123900000Y-103090476D01*
X123947619Y-103138095D01*
X124757142Y-104138095D02*
X124804761Y-104090476D01*
X124852380Y-103947619D01*
X124852380Y-103852380D01*
X124804761Y-103709523D01*
X124709523Y-103614285D01*
X124614285Y-103566666D01*
X124423809Y-103519047D01*
X124280952Y-103519047D01*
X124090476Y-103566666D01*
X123995238Y-103614285D01*
X123900000Y-103709523D01*
X123852380Y-103852380D01*
X123852380Y-103947619D01*
X123900000Y-104090476D01*
X123947619Y-104138095D01*
X124466666Y-99685714D02*
X124466666Y-100161904D01*
X124752380Y-99590476D02*
X123752380Y-99923809D01*
X124752380Y-100257142D01*
X123752380Y-100495238D02*
X123752380Y-101114285D01*
X124133333Y-100780952D01*
X124133333Y-100923809D01*
X124180952Y-101019047D01*
X124228571Y-101066666D01*
X124323809Y-101114285D01*
X124561904Y-101114285D01*
X124657142Y-101066666D01*
X124704761Y-101019047D01*
X124752380Y-100923809D01*
X124752380Y-100638095D01*
X124704761Y-100542857D01*
X124657142Y-100495238D01*
X124466666Y-97355314D02*
X124466666Y-97831504D01*
X124752380Y-97260076D02*
X123752380Y-97593409D01*
X124752380Y-97926742D01*
X123752380Y-98450552D02*
X123752380Y-98545790D01*
X123800000Y-98641028D01*
X123847619Y-98688647D01*
X123942857Y-98736266D01*
X124133333Y-98783885D01*
X124371428Y-98783885D01*
X124561904Y-98736266D01*
X124657142Y-98688647D01*
X124704761Y-98641028D01*
X124752380Y-98545790D01*
X124752380Y-98450552D01*
X124704761Y-98355314D01*
X124657142Y-98307695D01*
X124561904Y-98260076D01*
X124371428Y-98212457D01*
X124133333Y-98212457D01*
X123942857Y-98260076D01*
X123847619Y-98307695D01*
X123800000Y-98355314D01*
X123752380Y-98450552D01*
X75433333Y-98914285D02*
X75433333Y-98438095D01*
X75147619Y-99009523D02*
X76147619Y-98676190D01*
X75147619Y-98342857D01*
X75147619Y-97485714D02*
X75147619Y-98057142D01*
X75147619Y-97771428D02*
X76147619Y-97771428D01*
X76004761Y-97866666D01*
X75909523Y-97961904D01*
X75861904Y-98057142D01*
X75433333Y-101400085D02*
X75433333Y-100923895D01*
X75147619Y-101495323D02*
X76147619Y-101161990D01*
X75147619Y-100828657D01*
X76052380Y-100542942D02*
X76100000Y-100495323D01*
X76147619Y-100400085D01*
X76147619Y-100161990D01*
X76100000Y-100066752D01*
X76052380Y-100019133D01*
X75957142Y-99971514D01*
X75861904Y-99971514D01*
X75719047Y-100019133D01*
X75147619Y-100590561D01*
X75147619Y-99971514D01*
X123752380Y-107938095D02*
X123752380Y-108509523D01*
X124752380Y-108223809D02*
X123752380Y-108223809D01*
X123752380Y-108747619D02*
X124752380Y-109414285D01*
X123752380Y-109414285D02*
X124752380Y-108747619D01*
X123800000Y-105138095D02*
X123752380Y-105042857D01*
X123752380Y-104900000D01*
X123800000Y-104757142D01*
X123895238Y-104661904D01*
X123990476Y-104614285D01*
X124180952Y-104566666D01*
X124323809Y-104566666D01*
X124514285Y-104614285D01*
X124609523Y-104661904D01*
X124704761Y-104757142D01*
X124752380Y-104900000D01*
X124752380Y-104995238D01*
X124704761Y-105138095D01*
X124657142Y-105185714D01*
X124323809Y-105185714D01*
X124323809Y-104995238D01*
X124752380Y-105614285D02*
X123752380Y-105614285D01*
X124752380Y-106185714D01*
X123752380Y-106185714D01*
X124752380Y-106661904D02*
X123752380Y-106661904D01*
X123752380Y-106900000D01*
X123800000Y-107042857D01*
X123895238Y-107138095D01*
X123990476Y-107185714D01*
X124180952Y-107233333D01*
X124323809Y-107233333D01*
X124514285Y-107185714D01*
X124609523Y-107138095D01*
X124704761Y-107042857D01*
X124752380Y-106900000D01*
X124752380Y-106661904D01*
X124733333Y-139580952D02*
X124733333Y-139961904D01*
X124961904Y-139504761D02*
X124161904Y-139771428D01*
X124961904Y-140038095D01*
X124161904Y-140304761D02*
X124809523Y-140304761D01*
X124885714Y-140342857D01*
X124923809Y-140380952D01*
X124961904Y-140457142D01*
X124961904Y-140609523D01*
X124923809Y-140685714D01*
X124885714Y-140723809D01*
X124809523Y-140761904D01*
X124161904Y-140761904D01*
X124961904Y-141142857D02*
X124161904Y-141142857D01*
X124161904Y-141333333D01*
X124200000Y-141447619D01*
X124276190Y-141523809D01*
X124352380Y-141561904D01*
X124504761Y-141600000D01*
X124619047Y-141600000D01*
X124771428Y-141561904D01*
X124847619Y-141523809D01*
X124923809Y-141447619D01*
X124961904Y-141333333D01*
X124961904Y-141142857D01*
X124961904Y-141942857D02*
X124161904Y-141942857D01*
X124161904Y-142476190D02*
X124161904Y-142628571D01*
X124200000Y-142704761D01*
X124276190Y-142780952D01*
X124428571Y-142819047D01*
X124695238Y-142819047D01*
X124847619Y-142780952D01*
X124923809Y-142704761D01*
X124961904Y-142628571D01*
X124961904Y-142476190D01*
X124923809Y-142400000D01*
X124847619Y-142323809D01*
X124695238Y-142285714D01*
X124428571Y-142285714D01*
X124276190Y-142323809D01*
X124200000Y-142400000D01*
X124161904Y-142476190D01*
X124200000Y-138109523D02*
X124161904Y-138033333D01*
X124161904Y-137919047D01*
X124200000Y-137804761D01*
X124276190Y-137728571D01*
X124352380Y-137690476D01*
X124504761Y-137652380D01*
X124619047Y-137652380D01*
X124771428Y-137690476D01*
X124847619Y-137728571D01*
X124923809Y-137804761D01*
X124961904Y-137919047D01*
X124961904Y-137995238D01*
X124923809Y-138109523D01*
X124885714Y-138147619D01*
X124619047Y-138147619D01*
X124619047Y-137995238D01*
X124961904Y-138490476D02*
X124161904Y-138490476D01*
X124161904Y-138680952D01*
X124200000Y-138795238D01*
X124276190Y-138871428D01*
X124352380Y-138909523D01*
X124504761Y-138947619D01*
X124619047Y-138947619D01*
X124771428Y-138909523D01*
X124847619Y-138871428D01*
X124923809Y-138795238D01*
X124961904Y-138680952D01*
X124961904Y-138490476D01*
X124757142Y-152004761D02*
X124804761Y-151957142D01*
X124852380Y-151814285D01*
X124852380Y-151719047D01*
X124804761Y-151576190D01*
X124709523Y-151480952D01*
X124614285Y-151433333D01*
X124423809Y-151385714D01*
X124280952Y-151385714D01*
X124090476Y-151433333D01*
X123995238Y-151480952D01*
X123900000Y-151576190D01*
X123852380Y-151719047D01*
X123852380Y-151814285D01*
X123900000Y-151957142D01*
X123947619Y-152004761D01*
X123852380Y-152290476D02*
X124852380Y-152623809D01*
X123852380Y-152957142D01*
X124852380Y-153814285D02*
X124852380Y-153242857D01*
X124852380Y-153528571D02*
X123852380Y-153528571D01*
X123995238Y-153433333D01*
X124090476Y-153338095D01*
X124138095Y-153242857D01*
X124757142Y-154804761D02*
X124804761Y-154757142D01*
X124852380Y-154614285D01*
X124852380Y-154519047D01*
X124804761Y-154376190D01*
X124709523Y-154280952D01*
X124614285Y-154233333D01*
X124423809Y-154185714D01*
X124280952Y-154185714D01*
X124090476Y-154233333D01*
X123995238Y-154280952D01*
X123900000Y-154376190D01*
X123852380Y-154519047D01*
X123852380Y-154614285D01*
X123900000Y-154757142D01*
X123947619Y-154804761D01*
X123852380Y-155090476D02*
X124852380Y-155423809D01*
X123852380Y-155757142D01*
X123947619Y-156042857D02*
X123900000Y-156090476D01*
X123852380Y-156185714D01*
X123852380Y-156423809D01*
X123900000Y-156519047D01*
X123947619Y-156566666D01*
X124042857Y-156614285D01*
X124138095Y-156614285D01*
X124280952Y-156566666D01*
X124852380Y-155995238D01*
X124852380Y-156614285D01*
D10*
X115660190Y-157821580D02*
X114993523Y-157821580D01*
X115422095Y-158821580D01*
X114612571Y-158726342D02*
X114564952Y-158773961D01*
X114612571Y-158821580D01*
X114660190Y-158773961D01*
X114612571Y-158726342D01*
X114612571Y-158821580D01*
X114231619Y-157821580D02*
X113612571Y-157821580D01*
X113945904Y-158202533D01*
X113803047Y-158202533D01*
X113707809Y-158250152D01*
X113660190Y-158297771D01*
X113612571Y-158393009D01*
X113612571Y-158631104D01*
X113660190Y-158726342D01*
X113707809Y-158773961D01*
X113803047Y-158821580D01*
X114088761Y-158821580D01*
X114184000Y-158773961D01*
X114231619Y-158726342D01*
X113279238Y-157821580D02*
X112612571Y-157821580D01*
X113041142Y-158821580D01*
X112279238Y-157916819D02*
X112231619Y-157869200D01*
X112136380Y-157821580D01*
X111898285Y-157821580D01*
X111803047Y-157869200D01*
X111755428Y-157916819D01*
X111707809Y-158012057D01*
X111707809Y-158107295D01*
X111755428Y-158250152D01*
X112326857Y-158821580D01*
X111707809Y-158821580D01*
X110755428Y-158821580D02*
X111326857Y-158821580D01*
X111041142Y-158821580D02*
X111041142Y-157821580D01*
X111136380Y-157964438D01*
X111231619Y-158059676D01*
X111326857Y-158107295D01*
X110326857Y-158821580D02*
X110326857Y-157821580D01*
X109993523Y-158535866D01*
X109660190Y-157821580D01*
X109660190Y-158821580D01*
X109184000Y-158821580D02*
X109184000Y-157821580D01*
X109184000Y-158297771D02*
X108612571Y-158297771D01*
X108612571Y-158821580D02*
X108612571Y-157821580D01*
X108231619Y-158154914D02*
X107707809Y-158154914D01*
X108231619Y-158821580D01*
X107707809Y-158821580D01*
D12*
%TO.C,Y1*%
X110604452Y-60293452D02*
X110604452Y-60674404D01*
X110871119Y-59874404D02*
X110604452Y-60293452D01*
X110337785Y-59874404D01*
X109652071Y-60674404D02*
X110109214Y-60674404D01*
X109880642Y-60674404D02*
X109880642Y-59874404D01*
X109956833Y-59988690D01*
X110033023Y-60064880D01*
X110109214Y-60102976D01*
%TO.C,Y2*%
X90157452Y-60293452D02*
X90157452Y-60674404D01*
X90424119Y-59874404D02*
X90157452Y-60293452D01*
X89890785Y-59874404D01*
X89662214Y-59950595D02*
X89624119Y-59912500D01*
X89547928Y-59874404D01*
X89357452Y-59874404D01*
X89281261Y-59912500D01*
X89243166Y-59950595D01*
X89205071Y-60026785D01*
X89205071Y-60102976D01*
X89243166Y-60217261D01*
X89700309Y-60674404D01*
X89205071Y-60674404D01*
%TO.C,P4*%
X80206976Y-96551904D02*
X80206976Y-95751904D01*
X79902214Y-95751904D01*
X79826023Y-95790000D01*
X79787928Y-95828095D01*
X79749833Y-95904285D01*
X79749833Y-96018571D01*
X79787928Y-96094761D01*
X79826023Y-96132857D01*
X79902214Y-96170952D01*
X80206976Y-96170952D01*
X79064119Y-96018571D02*
X79064119Y-96551904D01*
X79254595Y-95713809D02*
X79445071Y-96285238D01*
X78949833Y-96285238D01*
%TO.C,P2*%
X120084976Y-70135904D02*
X120084976Y-69335904D01*
X119780214Y-69335904D01*
X119704023Y-69374000D01*
X119665928Y-69412095D01*
X119627833Y-69488285D01*
X119627833Y-69602571D01*
X119665928Y-69678761D01*
X119704023Y-69716857D01*
X119780214Y-69754952D01*
X120084976Y-69754952D01*
X119323071Y-69412095D02*
X119284976Y-69374000D01*
X119208785Y-69335904D01*
X119018309Y-69335904D01*
X118942119Y-69374000D01*
X118904023Y-69412095D01*
X118865928Y-69488285D01*
X118865928Y-69564476D01*
X118904023Y-69678761D01*
X119361166Y-70135904D01*
X118865928Y-70135904D01*
D13*
%TO.C,J1*%
X115817380Y-119341666D02*
X116531666Y-119341666D01*
X116674523Y-119294047D01*
X116769761Y-119198809D01*
X116817380Y-119055952D01*
X116817380Y-118960714D01*
X116817380Y-120341666D02*
X116817380Y-119770238D01*
X116817380Y-120055952D02*
X115817380Y-120055952D01*
X115960238Y-119960714D01*
X116055476Y-119865476D01*
X116103095Y-119770238D01*
D10*
%TO.C,L2*%
X78002380Y-84295833D02*
X78002380Y-83819642D01*
X77002380Y-83819642D01*
X77097619Y-84581547D02*
X77050000Y-84629166D01*
X77002380Y-84724404D01*
X77002380Y-84962500D01*
X77050000Y-85057738D01*
X77097619Y-85105357D01*
X77192857Y-85152976D01*
X77288095Y-85152976D01*
X77430952Y-85105357D01*
X78002380Y-84533928D01*
X78002380Y-85152976D01*
D12*
%TO.C,D2*%
X88464476Y-88312144D02*
X88464476Y-87512144D01*
X88274000Y-87512144D01*
X88159714Y-87550240D01*
X88083523Y-87626430D01*
X88045428Y-87702620D01*
X88007333Y-87855001D01*
X88007333Y-87969287D01*
X88045428Y-88121668D01*
X88083523Y-88197859D01*
X88159714Y-88274049D01*
X88274000Y-88312144D01*
X88464476Y-88312144D01*
X87702571Y-87588335D02*
X87664476Y-87550240D01*
X87588285Y-87512144D01*
X87397809Y-87512144D01*
X87321619Y-87550240D01*
X87283523Y-87588335D01*
X87245428Y-87664525D01*
X87245428Y-87740716D01*
X87283523Y-87855001D01*
X87740666Y-88312144D01*
X87245428Y-88312144D01*
%TO.C,C7*%
X85133333Y-84385714D02*
X85171428Y-84423809D01*
X85285714Y-84461904D01*
X85361904Y-84461904D01*
X85476190Y-84423809D01*
X85552380Y-84347619D01*
X85590476Y-84271428D01*
X85628571Y-84119047D01*
X85628571Y-84004761D01*
X85590476Y-83852380D01*
X85552380Y-83776190D01*
X85476190Y-83700000D01*
X85361904Y-83661904D01*
X85285714Y-83661904D01*
X85171428Y-83700000D01*
X85133333Y-83738095D01*
X84866666Y-83661904D02*
X84333333Y-83661904D01*
X84676190Y-84461904D01*
%TO.C,C8*%
X83433333Y-84385714D02*
X83471428Y-84423809D01*
X83585714Y-84461904D01*
X83661904Y-84461904D01*
X83776190Y-84423809D01*
X83852380Y-84347619D01*
X83890476Y-84271428D01*
X83928571Y-84119047D01*
X83928571Y-84004761D01*
X83890476Y-83852380D01*
X83852380Y-83776190D01*
X83776190Y-83700000D01*
X83661904Y-83661904D01*
X83585714Y-83661904D01*
X83471428Y-83700000D01*
X83433333Y-83738095D01*
X82976190Y-84004761D02*
X83052380Y-83966666D01*
X83090476Y-83928571D01*
X83128571Y-83852380D01*
X83128571Y-83814285D01*
X83090476Y-83738095D01*
X83052380Y-83700000D01*
X82976190Y-83661904D01*
X82823809Y-83661904D01*
X82747619Y-83700000D01*
X82709523Y-83738095D01*
X82671428Y-83814285D01*
X82671428Y-83852380D01*
X82709523Y-83928571D01*
X82747619Y-83966666D01*
X82823809Y-84004761D01*
X82976190Y-84004761D01*
X83052380Y-84042857D01*
X83090476Y-84080952D01*
X83128571Y-84157142D01*
X83128571Y-84309523D01*
X83090476Y-84385714D01*
X83052380Y-84423809D01*
X82976190Y-84461904D01*
X82823809Y-84461904D01*
X82747619Y-84423809D01*
X82709523Y-84385714D01*
X82671428Y-84309523D01*
X82671428Y-84157142D01*
X82709523Y-84080952D01*
X82747619Y-84042857D01*
X82823809Y-84004761D01*
%TO.C,C9*%
X79622833Y-89617714D02*
X79660928Y-89655809D01*
X79775214Y-89693904D01*
X79851404Y-89693904D01*
X79965690Y-89655809D01*
X80041880Y-89579619D01*
X80079976Y-89503428D01*
X80118071Y-89351047D01*
X80118071Y-89236761D01*
X80079976Y-89084380D01*
X80041880Y-89008190D01*
X79965690Y-88932000D01*
X79851404Y-88893904D01*
X79775214Y-88893904D01*
X79660928Y-88932000D01*
X79622833Y-88970095D01*
X79241880Y-89693904D02*
X79089500Y-89693904D01*
X79013309Y-89655809D01*
X78975214Y-89617714D01*
X78899023Y-89503428D01*
X78860928Y-89351047D01*
X78860928Y-89046285D01*
X78899023Y-88970095D01*
X78937119Y-88932000D01*
X79013309Y-88893904D01*
X79165690Y-88893904D01*
X79241880Y-88932000D01*
X79279976Y-88970095D01*
X79318071Y-89046285D01*
X79318071Y-89236761D01*
X79279976Y-89312952D01*
X79241880Y-89351047D01*
X79165690Y-89389142D01*
X79013309Y-89389142D01*
X78937119Y-89351047D01*
X78899023Y-89312952D01*
X78860928Y-89236761D01*
%TO.C,C11*%
X83514285Y-88585714D02*
X83552380Y-88623809D01*
X83666666Y-88661904D01*
X83742857Y-88661904D01*
X83857142Y-88623809D01*
X83933333Y-88547619D01*
X83971428Y-88471428D01*
X84009523Y-88319047D01*
X84009523Y-88204761D01*
X83971428Y-88052380D01*
X83933333Y-87976190D01*
X83857142Y-87900000D01*
X83742857Y-87861904D01*
X83666666Y-87861904D01*
X83552380Y-87900000D01*
X83514285Y-87938095D01*
X82752380Y-88661904D02*
X83209523Y-88661904D01*
X82980952Y-88661904D02*
X82980952Y-87861904D01*
X83057142Y-87976190D01*
X83133333Y-88052380D01*
X83209523Y-88090476D01*
X81990476Y-88661904D02*
X82447619Y-88661904D01*
X82219047Y-88661904D02*
X82219047Y-87861904D01*
X82295238Y-87976190D01*
X82371428Y-88052380D01*
X82447619Y-88090476D01*
%TO.C,C16*%
X89914285Y-151685714D02*
X89952380Y-151723809D01*
X90066666Y-151761904D01*
X90142857Y-151761904D01*
X90257142Y-151723809D01*
X90333333Y-151647619D01*
X90371428Y-151571428D01*
X90409523Y-151419047D01*
X90409523Y-151304761D01*
X90371428Y-151152380D01*
X90333333Y-151076190D01*
X90257142Y-151000000D01*
X90142857Y-150961904D01*
X90066666Y-150961904D01*
X89952380Y-151000000D01*
X89914285Y-151038095D01*
X89152380Y-151761904D02*
X89609523Y-151761904D01*
X89380952Y-151761904D02*
X89380952Y-150961904D01*
X89457142Y-151076190D01*
X89533333Y-151152380D01*
X89609523Y-151190476D01*
X88466666Y-150961904D02*
X88619047Y-150961904D01*
X88695238Y-151000000D01*
X88733333Y-151038095D01*
X88809523Y-151152380D01*
X88847619Y-151304761D01*
X88847619Y-151609523D01*
X88809523Y-151685714D01*
X88771428Y-151723809D01*
X88695238Y-151761904D01*
X88542857Y-151761904D01*
X88466666Y-151723809D01*
X88428571Y-151685714D01*
X88390476Y-151609523D01*
X88390476Y-151419047D01*
X88428571Y-151342857D01*
X88466666Y-151304761D01*
X88542857Y-151266666D01*
X88695238Y-151266666D01*
X88771428Y-151304761D01*
X88809523Y-151342857D01*
X88847619Y-151419047D01*
%TO.C,C24*%
X93885714Y-148185714D02*
X93923809Y-148147619D01*
X93961904Y-148033333D01*
X93961904Y-147957142D01*
X93923809Y-147842857D01*
X93847619Y-147766666D01*
X93771428Y-147728571D01*
X93619047Y-147690476D01*
X93504761Y-147690476D01*
X93352380Y-147728571D01*
X93276190Y-147766666D01*
X93200000Y-147842857D01*
X93161904Y-147957142D01*
X93161904Y-148033333D01*
X93200000Y-148147619D01*
X93238095Y-148185714D01*
X93238095Y-148490476D02*
X93200000Y-148528571D01*
X93161904Y-148604761D01*
X93161904Y-148795238D01*
X93200000Y-148871428D01*
X93238095Y-148909523D01*
X93314285Y-148947619D01*
X93390476Y-148947619D01*
X93504761Y-148909523D01*
X93961904Y-148452380D01*
X93961904Y-148947619D01*
X93428571Y-149633333D02*
X93961904Y-149633333D01*
X93123809Y-149442857D02*
X93695238Y-149252380D01*
X93695238Y-149747619D01*
%TO.C,C26*%
X78035285Y-110763214D02*
X78073380Y-110801309D01*
X78187666Y-110839404D01*
X78263857Y-110839404D01*
X78378142Y-110801309D01*
X78454333Y-110725119D01*
X78492428Y-110648928D01*
X78530523Y-110496547D01*
X78530523Y-110382261D01*
X78492428Y-110229880D01*
X78454333Y-110153690D01*
X78378142Y-110077500D01*
X78263857Y-110039404D01*
X78187666Y-110039404D01*
X78073380Y-110077500D01*
X78035285Y-110115595D01*
X77730523Y-110115595D02*
X77692428Y-110077500D01*
X77616238Y-110039404D01*
X77425761Y-110039404D01*
X77349571Y-110077500D01*
X77311476Y-110115595D01*
X77273380Y-110191785D01*
X77273380Y-110267976D01*
X77311476Y-110382261D01*
X77768619Y-110839404D01*
X77273380Y-110839404D01*
X76587666Y-110039404D02*
X76740047Y-110039404D01*
X76816238Y-110077500D01*
X76854333Y-110115595D01*
X76930523Y-110229880D01*
X76968619Y-110382261D01*
X76968619Y-110687023D01*
X76930523Y-110763214D01*
X76892428Y-110801309D01*
X76816238Y-110839404D01*
X76663857Y-110839404D01*
X76587666Y-110801309D01*
X76549571Y-110763214D01*
X76511476Y-110687023D01*
X76511476Y-110496547D01*
X76549571Y-110420357D01*
X76587666Y-110382261D01*
X76663857Y-110344166D01*
X76816238Y-110344166D01*
X76892428Y-110382261D01*
X76930523Y-110420357D01*
X76968619Y-110496547D01*
%TO.C,C27*%
X100958785Y-108604214D02*
X100996880Y-108642309D01*
X101111166Y-108680404D01*
X101187357Y-108680404D01*
X101301642Y-108642309D01*
X101377833Y-108566119D01*
X101415928Y-108489928D01*
X101454023Y-108337547D01*
X101454023Y-108223261D01*
X101415928Y-108070880D01*
X101377833Y-107994690D01*
X101301642Y-107918500D01*
X101187357Y-107880404D01*
X101111166Y-107880404D01*
X100996880Y-107918500D01*
X100958785Y-107956595D01*
X100654023Y-107956595D02*
X100615928Y-107918500D01*
X100539738Y-107880404D01*
X100349261Y-107880404D01*
X100273071Y-107918500D01*
X100234976Y-107956595D01*
X100196880Y-108032785D01*
X100196880Y-108108976D01*
X100234976Y-108223261D01*
X100692119Y-108680404D01*
X100196880Y-108680404D01*
X99930214Y-107880404D02*
X99396880Y-107880404D01*
X99739738Y-108680404D01*
%TO.C,C28*%
X100488785Y-81329714D02*
X100526880Y-81367809D01*
X100641166Y-81405904D01*
X100717357Y-81405904D01*
X100831642Y-81367809D01*
X100907833Y-81291619D01*
X100945928Y-81215428D01*
X100984023Y-81063047D01*
X100984023Y-80948761D01*
X100945928Y-80796380D01*
X100907833Y-80720190D01*
X100831642Y-80644000D01*
X100717357Y-80605904D01*
X100641166Y-80605904D01*
X100526880Y-80644000D01*
X100488785Y-80682095D01*
X100184023Y-80682095D02*
X100145928Y-80644000D01*
X100069738Y-80605904D01*
X99879261Y-80605904D01*
X99803071Y-80644000D01*
X99764976Y-80682095D01*
X99726880Y-80758285D01*
X99726880Y-80834476D01*
X99764976Y-80948761D01*
X100222119Y-81405904D01*
X99726880Y-81405904D01*
X99269738Y-80948761D02*
X99345928Y-80910666D01*
X99384023Y-80872571D01*
X99422119Y-80796380D01*
X99422119Y-80758285D01*
X99384023Y-80682095D01*
X99345928Y-80644000D01*
X99269738Y-80605904D01*
X99117357Y-80605904D01*
X99041166Y-80644000D01*
X99003071Y-80682095D01*
X98964976Y-80758285D01*
X98964976Y-80796380D01*
X99003071Y-80872571D01*
X99041166Y-80910666D01*
X99117357Y-80948761D01*
X99269738Y-80948761D01*
X99345928Y-80986857D01*
X99384023Y-81024952D01*
X99422119Y-81101142D01*
X99422119Y-81253523D01*
X99384023Y-81329714D01*
X99345928Y-81367809D01*
X99269738Y-81405904D01*
X99117357Y-81405904D01*
X99041166Y-81367809D01*
X99003071Y-81329714D01*
X98964976Y-81253523D01*
X98964976Y-81101142D01*
X99003071Y-81024952D01*
X99041166Y-80986857D01*
X99117357Y-80948761D01*
%TO.C,R2*%
X108896333Y-85850904D02*
X109163000Y-85469952D01*
X109353476Y-85850904D02*
X109353476Y-85050904D01*
X109048714Y-85050904D01*
X108972523Y-85089000D01*
X108934428Y-85127095D01*
X108896333Y-85203285D01*
X108896333Y-85317571D01*
X108934428Y-85393761D01*
X108972523Y-85431857D01*
X109048714Y-85469952D01*
X109353476Y-85469952D01*
X108591571Y-85127095D02*
X108553476Y-85089000D01*
X108477285Y-85050904D01*
X108286809Y-85050904D01*
X108210619Y-85089000D01*
X108172523Y-85127095D01*
X108134428Y-85203285D01*
X108134428Y-85279476D01*
X108172523Y-85393761D01*
X108629666Y-85850904D01*
X108134428Y-85850904D01*
%TO.C,R4*%
X108642333Y-92995904D02*
X108909000Y-92614952D01*
X109099476Y-92995904D02*
X109099476Y-92195904D01*
X108794714Y-92195904D01*
X108718523Y-92234000D01*
X108680428Y-92272095D01*
X108642333Y-92348285D01*
X108642333Y-92462571D01*
X108680428Y-92538761D01*
X108718523Y-92576857D01*
X108794714Y-92614952D01*
X109099476Y-92614952D01*
X107956619Y-92462571D02*
X107956619Y-92995904D01*
X108147095Y-92157809D02*
X108337571Y-92729238D01*
X107842333Y-92729238D01*
%TO.C,R5*%
X94233333Y-84461404D02*
X94500000Y-84080452D01*
X94690476Y-84461404D02*
X94690476Y-83661404D01*
X94385714Y-83661404D01*
X94309523Y-83699500D01*
X94271428Y-83737595D01*
X94233333Y-83813785D01*
X94233333Y-83928071D01*
X94271428Y-84004261D01*
X94309523Y-84042357D01*
X94385714Y-84080452D01*
X94690476Y-84080452D01*
X93509523Y-83661404D02*
X93890476Y-83661404D01*
X93928571Y-84042357D01*
X93890476Y-84004261D01*
X93814285Y-83966166D01*
X93623809Y-83966166D01*
X93547619Y-84004261D01*
X93509523Y-84042357D01*
X93471428Y-84118547D01*
X93471428Y-84309023D01*
X93509523Y-84385214D01*
X93547619Y-84423309D01*
X93623809Y-84461404D01*
X93814285Y-84461404D01*
X93890476Y-84423309D01*
X93928571Y-84385214D01*
%TO.C,R7*%
X91598833Y-88561904D02*
X91865500Y-88180952D01*
X92055976Y-88561904D02*
X92055976Y-87761904D01*
X91751214Y-87761904D01*
X91675023Y-87800000D01*
X91636928Y-87838095D01*
X91598833Y-87914285D01*
X91598833Y-88028571D01*
X91636928Y-88104761D01*
X91675023Y-88142857D01*
X91751214Y-88180952D01*
X92055976Y-88180952D01*
X91332166Y-87761904D02*
X90798833Y-87761904D01*
X91141690Y-88561904D01*
%TO.C,R8*%
X91598833Y-92901904D02*
X91865500Y-92520952D01*
X92055976Y-92901904D02*
X92055976Y-92101904D01*
X91751214Y-92101904D01*
X91675023Y-92140000D01*
X91636928Y-92178095D01*
X91598833Y-92254285D01*
X91598833Y-92368571D01*
X91636928Y-92444761D01*
X91675023Y-92482857D01*
X91751214Y-92520952D01*
X92055976Y-92520952D01*
X91141690Y-92444761D02*
X91217880Y-92406666D01*
X91255976Y-92368571D01*
X91294071Y-92292380D01*
X91294071Y-92254285D01*
X91255976Y-92178095D01*
X91217880Y-92140000D01*
X91141690Y-92101904D01*
X90989309Y-92101904D01*
X90913119Y-92140000D01*
X90875023Y-92178095D01*
X90836928Y-92254285D01*
X90836928Y-92292380D01*
X90875023Y-92368571D01*
X90913119Y-92406666D01*
X90989309Y-92444761D01*
X91141690Y-92444761D01*
X91217880Y-92482857D01*
X91255976Y-92520952D01*
X91294071Y-92597142D01*
X91294071Y-92749523D01*
X91255976Y-92825714D01*
X91217880Y-92863809D01*
X91141690Y-92901904D01*
X90989309Y-92901904D01*
X90913119Y-92863809D01*
X90875023Y-92825714D01*
X90836928Y-92749523D01*
X90836928Y-92597142D01*
X90875023Y-92520952D01*
X90913119Y-92482857D01*
X90989309Y-92444761D01*
%TO.C,R12*%
X85314285Y-146161904D02*
X85580952Y-145780952D01*
X85771428Y-146161904D02*
X85771428Y-145361904D01*
X85466666Y-145361904D01*
X85390476Y-145400000D01*
X85352380Y-145438095D01*
X85314285Y-145514285D01*
X85314285Y-145628571D01*
X85352380Y-145704761D01*
X85390476Y-145742857D01*
X85466666Y-145780952D01*
X85771428Y-145780952D01*
X84552380Y-146161904D02*
X85009523Y-146161904D01*
X84780952Y-146161904D02*
X84780952Y-145361904D01*
X84857142Y-145476190D01*
X84933333Y-145552380D01*
X85009523Y-145590476D01*
X84247619Y-145438095D02*
X84209523Y-145400000D01*
X84133333Y-145361904D01*
X83942857Y-145361904D01*
X83866666Y-145400000D01*
X83828571Y-145438095D01*
X83790476Y-145514285D01*
X83790476Y-145590476D01*
X83828571Y-145704761D01*
X84285714Y-146161904D01*
X83790476Y-146161904D01*
%TO.C,R14*%
X92214285Y-150261904D02*
X92480952Y-149880952D01*
X92671428Y-150261904D02*
X92671428Y-149461904D01*
X92366666Y-149461904D01*
X92290476Y-149500000D01*
X92252380Y-149538095D01*
X92214285Y-149614285D01*
X92214285Y-149728571D01*
X92252380Y-149804761D01*
X92290476Y-149842857D01*
X92366666Y-149880952D01*
X92671428Y-149880952D01*
X91452380Y-150261904D02*
X91909523Y-150261904D01*
X91680952Y-150261904D02*
X91680952Y-149461904D01*
X91757142Y-149576190D01*
X91833333Y-149652380D01*
X91909523Y-149690476D01*
X90766666Y-149728571D02*
X90766666Y-150261904D01*
X90957142Y-149423809D02*
X91147619Y-149995238D01*
X90652380Y-149995238D01*
%TO.C,R17*%
X108870904Y-138576314D02*
X108489952Y-138309647D01*
X108870904Y-138119171D02*
X108070904Y-138119171D01*
X108070904Y-138423933D01*
X108109000Y-138500123D01*
X108147095Y-138538219D01*
X108223285Y-138576314D01*
X108337571Y-138576314D01*
X108413761Y-138538219D01*
X108451857Y-138500123D01*
X108489952Y-138423933D01*
X108489952Y-138119171D01*
X108870904Y-139338219D02*
X108870904Y-138881076D01*
X108870904Y-139109647D02*
X108070904Y-139109647D01*
X108185190Y-139033457D01*
X108261380Y-138957266D01*
X108299476Y-138881076D01*
X108070904Y-139604885D02*
X108070904Y-140138219D01*
X108870904Y-139795361D01*
D10*
%TO.C,L1*%
X117602380Y-84495833D02*
X117602380Y-84019642D01*
X116602380Y-84019642D01*
X117602380Y-85352976D02*
X117602380Y-84781547D01*
X117602380Y-85067261D02*
X116602380Y-85067261D01*
X116745238Y-84972023D01*
X116840476Y-84876785D01*
X116888095Y-84781547D01*
D12*
%TO.C,D1*%
X112716476Y-88325904D02*
X112716476Y-87525904D01*
X112526000Y-87525904D01*
X112411714Y-87564000D01*
X112335523Y-87640190D01*
X112297428Y-87716380D01*
X112259333Y-87868761D01*
X112259333Y-87983047D01*
X112297428Y-88135428D01*
X112335523Y-88211619D01*
X112411714Y-88287809D01*
X112526000Y-88325904D01*
X112716476Y-88325904D01*
X111497428Y-88325904D02*
X111954571Y-88325904D01*
X111726000Y-88325904D02*
X111726000Y-87525904D01*
X111802190Y-87640190D01*
X111878380Y-87716380D01*
X111954571Y-87754476D01*
%TO.C,R6*%
X91598833Y-85961904D02*
X91865500Y-85580952D01*
X92055976Y-85961904D02*
X92055976Y-85161904D01*
X91751214Y-85161904D01*
X91675023Y-85200000D01*
X91636928Y-85238095D01*
X91598833Y-85314285D01*
X91598833Y-85428571D01*
X91636928Y-85504761D01*
X91675023Y-85542857D01*
X91751214Y-85580952D01*
X92055976Y-85580952D01*
X90913119Y-85161904D02*
X91065500Y-85161904D01*
X91141690Y-85200000D01*
X91179785Y-85238095D01*
X91255976Y-85352380D01*
X91294071Y-85504761D01*
X91294071Y-85809523D01*
X91255976Y-85885714D01*
X91217880Y-85923809D01*
X91141690Y-85961904D01*
X90989309Y-85961904D01*
X90913119Y-85923809D01*
X90875023Y-85885714D01*
X90836928Y-85809523D01*
X90836928Y-85619047D01*
X90875023Y-85542857D01*
X90913119Y-85504761D01*
X90989309Y-85466666D01*
X91141690Y-85466666D01*
X91217880Y-85504761D01*
X91255976Y-85542857D01*
X91294071Y-85619047D01*
%TO.C,C2*%
X120770833Y-89935214D02*
X120808928Y-89973309D01*
X120923214Y-90011404D01*
X120999404Y-90011404D01*
X121113690Y-89973309D01*
X121189880Y-89897119D01*
X121227976Y-89820928D01*
X121266071Y-89668547D01*
X121266071Y-89554261D01*
X121227976Y-89401880D01*
X121189880Y-89325690D01*
X121113690Y-89249500D01*
X120999404Y-89211404D01*
X120923214Y-89211404D01*
X120808928Y-89249500D01*
X120770833Y-89287595D01*
X120466071Y-89287595D02*
X120427976Y-89249500D01*
X120351785Y-89211404D01*
X120161309Y-89211404D01*
X120085119Y-89249500D01*
X120047023Y-89287595D01*
X120008928Y-89363785D01*
X120008928Y-89439976D01*
X120047023Y-89554261D01*
X120504166Y-90011404D01*
X120008928Y-90011404D01*
%TO.C,C1*%
X115033333Y-84285714D02*
X115071428Y-84323809D01*
X115185714Y-84361904D01*
X115261904Y-84361904D01*
X115376190Y-84323809D01*
X115452380Y-84247619D01*
X115490476Y-84171428D01*
X115528571Y-84019047D01*
X115528571Y-83904761D01*
X115490476Y-83752380D01*
X115452380Y-83676190D01*
X115376190Y-83600000D01*
X115261904Y-83561904D01*
X115185714Y-83561904D01*
X115071428Y-83600000D01*
X115033333Y-83638095D01*
X114271428Y-84361904D02*
X114728571Y-84361904D01*
X114500000Y-84361904D02*
X114500000Y-83561904D01*
X114576190Y-83676190D01*
X114652380Y-83752380D01*
X114728571Y-83790476D01*
%TO.C,P3*%
X120592976Y-95980404D02*
X120592976Y-95180404D01*
X120288214Y-95180404D01*
X120212023Y-95218500D01*
X120173928Y-95256595D01*
X120135833Y-95332785D01*
X120135833Y-95447071D01*
X120173928Y-95523261D01*
X120212023Y-95561357D01*
X120288214Y-95599452D01*
X120592976Y-95599452D01*
X119869166Y-95180404D02*
X119373928Y-95180404D01*
X119640595Y-95485166D01*
X119526309Y-95485166D01*
X119450119Y-95523261D01*
X119412023Y-95561357D01*
X119373928Y-95637547D01*
X119373928Y-95828023D01*
X119412023Y-95904214D01*
X119450119Y-95942309D01*
X119526309Y-95980404D01*
X119754880Y-95980404D01*
X119831071Y-95942309D01*
X119869166Y-95904214D01*
%TO.C,C4*%
X117278333Y-88601714D02*
X117316428Y-88639809D01*
X117430714Y-88677904D01*
X117506904Y-88677904D01*
X117621190Y-88639809D01*
X117697380Y-88563619D01*
X117735476Y-88487428D01*
X117773571Y-88335047D01*
X117773571Y-88220761D01*
X117735476Y-88068380D01*
X117697380Y-87992190D01*
X117621190Y-87916000D01*
X117506904Y-87877904D01*
X117430714Y-87877904D01*
X117316428Y-87916000D01*
X117278333Y-87954095D01*
X116592619Y-88144571D02*
X116592619Y-88677904D01*
X116783095Y-87839809D02*
X116973571Y-88411238D01*
X116478333Y-88411238D01*
%TO.C,C5*%
X115119333Y-88601714D02*
X115157428Y-88639809D01*
X115271714Y-88677904D01*
X115347904Y-88677904D01*
X115462190Y-88639809D01*
X115538380Y-88563619D01*
X115576476Y-88487428D01*
X115614571Y-88335047D01*
X115614571Y-88220761D01*
X115576476Y-88068380D01*
X115538380Y-87992190D01*
X115462190Y-87916000D01*
X115347904Y-87877904D01*
X115271714Y-87877904D01*
X115157428Y-87916000D01*
X115119333Y-87954095D01*
X114395523Y-87877904D02*
X114776476Y-87877904D01*
X114814571Y-88258857D01*
X114776476Y-88220761D01*
X114700285Y-88182666D01*
X114509809Y-88182666D01*
X114433619Y-88220761D01*
X114395523Y-88258857D01*
X114357428Y-88335047D01*
X114357428Y-88525523D01*
X114395523Y-88601714D01*
X114433619Y-88639809D01*
X114509809Y-88677904D01*
X114700285Y-88677904D01*
X114776476Y-88639809D01*
X114814571Y-88601714D01*
%TO.C,C14*%
X117414285Y-84211214D02*
X117452380Y-84249309D01*
X117566666Y-84287404D01*
X117642857Y-84287404D01*
X117757142Y-84249309D01*
X117833333Y-84173119D01*
X117871428Y-84096928D01*
X117909523Y-83944547D01*
X117909523Y-83830261D01*
X117871428Y-83677880D01*
X117833333Y-83601690D01*
X117757142Y-83525500D01*
X117642857Y-83487404D01*
X117566666Y-83487404D01*
X117452380Y-83525500D01*
X117414285Y-83563595D01*
X116652380Y-84287404D02*
X117109523Y-84287404D01*
X116880952Y-84287404D02*
X116880952Y-83487404D01*
X116957142Y-83601690D01*
X117033333Y-83677880D01*
X117109523Y-83715976D01*
X115966666Y-83754071D02*
X115966666Y-84287404D01*
X116157142Y-83449309D02*
X116347619Y-84020738D01*
X115852380Y-84020738D01*
D10*
%TO.C,U10*%
X102102380Y-112161904D02*
X102911904Y-112161904D01*
X103007142Y-112209523D01*
X103054761Y-112257142D01*
X103102380Y-112352380D01*
X103102380Y-112542857D01*
X103054761Y-112638095D01*
X103007142Y-112685714D01*
X102911904Y-112733333D01*
X102102380Y-112733333D01*
X103102380Y-113733333D02*
X103102380Y-113161904D01*
X103102380Y-113447619D02*
X102102380Y-113447619D01*
X102245238Y-113352380D01*
X102340476Y-113257142D01*
X102388095Y-113161904D01*
X102102380Y-114352380D02*
X102102380Y-114447619D01*
X102150000Y-114542857D01*
X102197619Y-114590476D01*
X102292857Y-114638095D01*
X102483333Y-114685714D01*
X102721428Y-114685714D01*
X102911904Y-114638095D01*
X103007142Y-114590476D01*
X103054761Y-114542857D01*
X103102380Y-114447619D01*
X103102380Y-114352380D01*
X103054761Y-114257142D01*
X103007142Y-114209523D01*
X102911904Y-114161904D01*
X102721428Y-114114285D01*
X102483333Y-114114285D01*
X102292857Y-114161904D01*
X102197619Y-114209523D01*
X102150000Y-114257142D01*
X102102380Y-114352380D01*
D12*
%TO.C,C23*%
X107614285Y-120785714D02*
X107652380Y-120823809D01*
X107766666Y-120861904D01*
X107842857Y-120861904D01*
X107957142Y-120823809D01*
X108033333Y-120747619D01*
X108071428Y-120671428D01*
X108109523Y-120519047D01*
X108109523Y-120404761D01*
X108071428Y-120252380D01*
X108033333Y-120176190D01*
X107957142Y-120100000D01*
X107842857Y-120061904D01*
X107766666Y-120061904D01*
X107652380Y-120100000D01*
X107614285Y-120138095D01*
X107309523Y-120138095D02*
X107271428Y-120100000D01*
X107195238Y-120061904D01*
X107004761Y-120061904D01*
X106928571Y-120100000D01*
X106890476Y-120138095D01*
X106852380Y-120214285D01*
X106852380Y-120290476D01*
X106890476Y-120404761D01*
X107347619Y-120861904D01*
X106852380Y-120861904D01*
X106585714Y-120061904D02*
X106090476Y-120061904D01*
X106357142Y-120366666D01*
X106242857Y-120366666D01*
X106166666Y-120404761D01*
X106128571Y-120442857D01*
X106090476Y-120519047D01*
X106090476Y-120709523D01*
X106128571Y-120785714D01*
X106166666Y-120823809D01*
X106242857Y-120861904D01*
X106471428Y-120861904D01*
X106547619Y-120823809D01*
X106585714Y-120785714D01*
%TO.C,U5*%
X97688523Y-82543904D02*
X97688523Y-83191523D01*
X97650428Y-83267714D01*
X97612333Y-83305809D01*
X97536142Y-83343904D01*
X97383761Y-83343904D01*
X97307571Y-83305809D01*
X97269476Y-83267714D01*
X97231380Y-83191523D01*
X97231380Y-82543904D01*
X96469476Y-82543904D02*
X96850428Y-82543904D01*
X96888523Y-82924857D01*
X96850428Y-82886761D01*
X96774238Y-82848666D01*
X96583761Y-82848666D01*
X96507571Y-82886761D01*
X96469476Y-82924857D01*
X96431380Y-83001047D01*
X96431380Y-83191523D01*
X96469476Y-83267714D01*
X96507571Y-83305809D01*
X96583761Y-83343904D01*
X96774238Y-83343904D01*
X96850428Y-83305809D01*
X96888523Y-83267714D01*
%TO.C,U6*%
X98409523Y-130371904D02*
X98409523Y-131019523D01*
X98371428Y-131095714D01*
X98333333Y-131133809D01*
X98257142Y-131171904D01*
X98104761Y-131171904D01*
X98028571Y-131133809D01*
X97990476Y-131095714D01*
X97952380Y-131019523D01*
X97952380Y-130371904D01*
X97228571Y-130371904D02*
X97380952Y-130371904D01*
X97457142Y-130410000D01*
X97495238Y-130448095D01*
X97571428Y-130562380D01*
X97609523Y-130714761D01*
X97609523Y-131019523D01*
X97571428Y-131095714D01*
X97533333Y-131133809D01*
X97457142Y-131171904D01*
X97304761Y-131171904D01*
X97228571Y-131133809D01*
X97190476Y-131095714D01*
X97152380Y-131019523D01*
X97152380Y-130829047D01*
X97190476Y-130752857D01*
X97228571Y-130714761D01*
X97304761Y-130676666D01*
X97457142Y-130676666D01*
X97533333Y-130714761D01*
X97571428Y-130752857D01*
X97609523Y-130829047D01*
%TO.C,C32*%
X118714285Y-108585714D02*
X118752380Y-108623809D01*
X118866666Y-108661904D01*
X118942857Y-108661904D01*
X119057142Y-108623809D01*
X119133333Y-108547619D01*
X119171428Y-108471428D01*
X119209523Y-108319047D01*
X119209523Y-108204761D01*
X119171428Y-108052380D01*
X119133333Y-107976190D01*
X119057142Y-107900000D01*
X118942857Y-107861904D01*
X118866666Y-107861904D01*
X118752380Y-107900000D01*
X118714285Y-107938095D01*
X118447619Y-107861904D02*
X117952380Y-107861904D01*
X118219047Y-108166666D01*
X118104761Y-108166666D01*
X118028571Y-108204761D01*
X117990476Y-108242857D01*
X117952380Y-108319047D01*
X117952380Y-108509523D01*
X117990476Y-108585714D01*
X118028571Y-108623809D01*
X118104761Y-108661904D01*
X118333333Y-108661904D01*
X118409523Y-108623809D01*
X118447619Y-108585714D01*
X117647619Y-107938095D02*
X117609523Y-107900000D01*
X117533333Y-107861904D01*
X117342857Y-107861904D01*
X117266666Y-107900000D01*
X117228571Y-107938095D01*
X117190476Y-108014285D01*
X117190476Y-108090476D01*
X117228571Y-108204761D01*
X117685714Y-108661904D01*
X117190476Y-108661904D01*
%TO.C,R20*%
X112198285Y-130427704D02*
X112464952Y-130046752D01*
X112655428Y-130427704D02*
X112655428Y-129627704D01*
X112350666Y-129627704D01*
X112274476Y-129665800D01*
X112236380Y-129703895D01*
X112198285Y-129780085D01*
X112198285Y-129894371D01*
X112236380Y-129970561D01*
X112274476Y-130008657D01*
X112350666Y-130046752D01*
X112655428Y-130046752D01*
X111893523Y-129703895D02*
X111855428Y-129665800D01*
X111779238Y-129627704D01*
X111588761Y-129627704D01*
X111512571Y-129665800D01*
X111474476Y-129703895D01*
X111436380Y-129780085D01*
X111436380Y-129856276D01*
X111474476Y-129970561D01*
X111931619Y-130427704D01*
X111436380Y-130427704D01*
X110941142Y-129627704D02*
X110864952Y-129627704D01*
X110788761Y-129665800D01*
X110750666Y-129703895D01*
X110712571Y-129780085D01*
X110674476Y-129932466D01*
X110674476Y-130122942D01*
X110712571Y-130275323D01*
X110750666Y-130351514D01*
X110788761Y-130389609D01*
X110864952Y-130427704D01*
X110941142Y-130427704D01*
X111017333Y-130389609D01*
X111055428Y-130351514D01*
X111093523Y-130275323D01*
X111131619Y-130122942D01*
X111131619Y-129932466D01*
X111093523Y-129780085D01*
X111055428Y-129703895D01*
X111017333Y-129665800D01*
X110941142Y-129627704D01*
%TO.C,U4*%
X80734023Y-107816904D02*
X80734023Y-108464523D01*
X80695928Y-108540714D01*
X80657833Y-108578809D01*
X80581642Y-108616904D01*
X80429261Y-108616904D01*
X80353071Y-108578809D01*
X80314976Y-108540714D01*
X80276880Y-108464523D01*
X80276880Y-107816904D01*
X79553071Y-108083571D02*
X79553071Y-108616904D01*
X79743547Y-107778809D02*
X79934023Y-108350238D01*
X79438785Y-108350238D01*
%TO.C,C35*%
X79363714Y-124123714D02*
X79401809Y-124085619D01*
X79439904Y-123971333D01*
X79439904Y-123895142D01*
X79401809Y-123780857D01*
X79325619Y-123704666D01*
X79249428Y-123666571D01*
X79097047Y-123628476D01*
X78982761Y-123628476D01*
X78830380Y-123666571D01*
X78754190Y-123704666D01*
X78678000Y-123780857D01*
X78639904Y-123895142D01*
X78639904Y-123971333D01*
X78678000Y-124085619D01*
X78716095Y-124123714D01*
X78639904Y-124390380D02*
X78639904Y-124885619D01*
X78944666Y-124618952D01*
X78944666Y-124733238D01*
X78982761Y-124809428D01*
X79020857Y-124847523D01*
X79097047Y-124885619D01*
X79287523Y-124885619D01*
X79363714Y-124847523D01*
X79401809Y-124809428D01*
X79439904Y-124733238D01*
X79439904Y-124504666D01*
X79401809Y-124428476D01*
X79363714Y-124390380D01*
X78639904Y-125609428D02*
X78639904Y-125228476D01*
X79020857Y-125190380D01*
X78982761Y-125228476D01*
X78944666Y-125304666D01*
X78944666Y-125495142D01*
X78982761Y-125571333D01*
X79020857Y-125609428D01*
X79097047Y-125647523D01*
X79287523Y-125647523D01*
X79363714Y-125609428D01*
X79401809Y-125571333D01*
X79439904Y-125495142D01*
X79439904Y-125304666D01*
X79401809Y-125228476D01*
X79363714Y-125190380D01*
%TO.C,U1*%
X82321523Y-118040404D02*
X82321523Y-118688023D01*
X82283428Y-118764214D01*
X82245333Y-118802309D01*
X82169142Y-118840404D01*
X82016761Y-118840404D01*
X81940571Y-118802309D01*
X81902476Y-118764214D01*
X81864380Y-118688023D01*
X81864380Y-118040404D01*
X81064380Y-118840404D02*
X81521523Y-118840404D01*
X81292952Y-118840404D02*
X81292952Y-118040404D01*
X81369142Y-118154690D01*
X81445333Y-118230880D01*
X81521523Y-118268976D01*
%TO.C,R13*%
X92214285Y-149161904D02*
X92480952Y-148780952D01*
X92671428Y-149161904D02*
X92671428Y-148361904D01*
X92366666Y-148361904D01*
X92290476Y-148400000D01*
X92252380Y-148438095D01*
X92214285Y-148514285D01*
X92214285Y-148628571D01*
X92252380Y-148704761D01*
X92290476Y-148742857D01*
X92366666Y-148780952D01*
X92671428Y-148780952D01*
X91452380Y-149161904D02*
X91909523Y-149161904D01*
X91680952Y-149161904D02*
X91680952Y-148361904D01*
X91757142Y-148476190D01*
X91833333Y-148552380D01*
X91909523Y-148590476D01*
X91185714Y-148361904D02*
X90690476Y-148361904D01*
X90957142Y-148666666D01*
X90842857Y-148666666D01*
X90766666Y-148704761D01*
X90728571Y-148742857D01*
X90690476Y-148819047D01*
X90690476Y-149009523D01*
X90728571Y-149085714D01*
X90766666Y-149123809D01*
X90842857Y-149161904D01*
X91071428Y-149161904D01*
X91147619Y-149123809D01*
X91185714Y-149085714D01*
%TO.C,X1*%
X80835619Y-156267404D02*
X80302285Y-157067404D01*
X80302285Y-156267404D02*
X80835619Y-157067404D01*
X79578476Y-157067404D02*
X80035619Y-157067404D01*
X79807047Y-157067404D02*
X79807047Y-156267404D01*
X79883238Y-156381690D01*
X79959428Y-156457880D01*
X80035619Y-156495976D01*
%TO.C,R15*%
X90354285Y-109188404D02*
X90620952Y-108807452D01*
X90811428Y-109188404D02*
X90811428Y-108388404D01*
X90506666Y-108388404D01*
X90430476Y-108426500D01*
X90392380Y-108464595D01*
X90354285Y-108540785D01*
X90354285Y-108655071D01*
X90392380Y-108731261D01*
X90430476Y-108769357D01*
X90506666Y-108807452D01*
X90811428Y-108807452D01*
X89592380Y-109188404D02*
X90049523Y-109188404D01*
X89820952Y-109188404D02*
X89820952Y-108388404D01*
X89897142Y-108502690D01*
X89973333Y-108578880D01*
X90049523Y-108616976D01*
X88868571Y-108388404D02*
X89249523Y-108388404D01*
X89287619Y-108769357D01*
X89249523Y-108731261D01*
X89173333Y-108693166D01*
X88982857Y-108693166D01*
X88906666Y-108731261D01*
X88868571Y-108769357D01*
X88830476Y-108845547D01*
X88830476Y-109036023D01*
X88868571Y-109112214D01*
X88906666Y-109150309D01*
X88982857Y-109188404D01*
X89173333Y-109188404D01*
X89249523Y-109150309D01*
X89287619Y-109112214D01*
%TO.C,D3*%
X94963680Y-117451259D02*
X94397995Y-118016945D01*
X94532682Y-118151632D01*
X94640431Y-118205507D01*
X94748181Y-118205507D01*
X94828993Y-118178569D01*
X94963680Y-118097757D01*
X95044492Y-118016945D01*
X95125305Y-117882258D01*
X95152242Y-117801446D01*
X95152242Y-117693696D01*
X95098367Y-117585946D01*
X94963680Y-117451259D01*
X94909805Y-118528756D02*
X95259992Y-118878942D01*
X95286929Y-118474881D01*
X95367741Y-118555693D01*
X95448553Y-118582630D01*
X95502428Y-118582630D01*
X95583240Y-118555693D01*
X95717927Y-118421006D01*
X95744865Y-118340194D01*
X95744865Y-118286319D01*
X95717927Y-118205507D01*
X95556303Y-118043882D01*
X95475491Y-118016945D01*
X95421616Y-118016945D01*
%TO.C,U11*%
X123561904Y-111909523D02*
X124209523Y-111909523D01*
X124285714Y-111947619D01*
X124323809Y-111985714D01*
X124361904Y-112061904D01*
X124361904Y-112214285D01*
X124323809Y-112290476D01*
X124285714Y-112328571D01*
X124209523Y-112366666D01*
X123561904Y-112366666D01*
X124361904Y-113166666D02*
X124361904Y-112709523D01*
X124361904Y-112938095D02*
X123561904Y-112938095D01*
X123676190Y-112861904D01*
X123752380Y-112785714D01*
X123790476Y-112709523D01*
X124361904Y-113928571D02*
X124361904Y-113471428D01*
X124361904Y-113700000D02*
X123561904Y-113700000D01*
X123676190Y-113623809D01*
X123752380Y-113547619D01*
X123790476Y-113471428D01*
%TO.C,C33*%
X112914285Y-120785714D02*
X112952380Y-120823809D01*
X113066666Y-120861904D01*
X113142857Y-120861904D01*
X113257142Y-120823809D01*
X113333333Y-120747619D01*
X113371428Y-120671428D01*
X113409523Y-120519047D01*
X113409523Y-120404761D01*
X113371428Y-120252380D01*
X113333333Y-120176190D01*
X113257142Y-120100000D01*
X113142857Y-120061904D01*
X113066666Y-120061904D01*
X112952380Y-120100000D01*
X112914285Y-120138095D01*
X112647619Y-120061904D02*
X112152380Y-120061904D01*
X112419047Y-120366666D01*
X112304761Y-120366666D01*
X112228571Y-120404761D01*
X112190476Y-120442857D01*
X112152380Y-120519047D01*
X112152380Y-120709523D01*
X112190476Y-120785714D01*
X112228571Y-120823809D01*
X112304761Y-120861904D01*
X112533333Y-120861904D01*
X112609523Y-120823809D01*
X112647619Y-120785714D01*
X111885714Y-120061904D02*
X111390476Y-120061904D01*
X111657142Y-120366666D01*
X111542857Y-120366666D01*
X111466666Y-120404761D01*
X111428571Y-120442857D01*
X111390476Y-120519047D01*
X111390476Y-120709523D01*
X111428571Y-120785714D01*
X111466666Y-120823809D01*
X111542857Y-120861904D01*
X111771428Y-120861904D01*
X111847619Y-120823809D01*
X111885714Y-120785714D01*
%TO.C,C20*%
X89973285Y-113049214D02*
X90011380Y-113087309D01*
X90125666Y-113125404D01*
X90201857Y-113125404D01*
X90316142Y-113087309D01*
X90392333Y-113011119D01*
X90430428Y-112934928D01*
X90468523Y-112782547D01*
X90468523Y-112668261D01*
X90430428Y-112515880D01*
X90392333Y-112439690D01*
X90316142Y-112363500D01*
X90201857Y-112325404D01*
X90125666Y-112325404D01*
X90011380Y-112363500D01*
X89973285Y-112401595D01*
X89668523Y-112401595D02*
X89630428Y-112363500D01*
X89554238Y-112325404D01*
X89363761Y-112325404D01*
X89287571Y-112363500D01*
X89249476Y-112401595D01*
X89211380Y-112477785D01*
X89211380Y-112553976D01*
X89249476Y-112668261D01*
X89706619Y-113125404D01*
X89211380Y-113125404D01*
X88716142Y-112325404D02*
X88639952Y-112325404D01*
X88563761Y-112363500D01*
X88525666Y-112401595D01*
X88487571Y-112477785D01*
X88449476Y-112630166D01*
X88449476Y-112820642D01*
X88487571Y-112973023D01*
X88525666Y-113049214D01*
X88563761Y-113087309D01*
X88639952Y-113125404D01*
X88716142Y-113125404D01*
X88792333Y-113087309D01*
X88830428Y-113049214D01*
X88868523Y-112973023D01*
X88906619Y-112820642D01*
X88906619Y-112630166D01*
X88868523Y-112477785D01*
X88830428Y-112401595D01*
X88792333Y-112363500D01*
X88716142Y-112325404D01*
%TO.C,C18*%
X101185714Y-152885714D02*
X101223809Y-152847619D01*
X101261904Y-152733333D01*
X101261904Y-152657142D01*
X101223809Y-152542857D01*
X101147619Y-152466666D01*
X101071428Y-152428571D01*
X100919047Y-152390476D01*
X100804761Y-152390476D01*
X100652380Y-152428571D01*
X100576190Y-152466666D01*
X100500000Y-152542857D01*
X100461904Y-152657142D01*
X100461904Y-152733333D01*
X100500000Y-152847619D01*
X100538095Y-152885714D01*
X101261904Y-153647619D02*
X101261904Y-153190476D01*
X101261904Y-153419047D02*
X100461904Y-153419047D01*
X100576190Y-153342857D01*
X100652380Y-153266666D01*
X100690476Y-153190476D01*
X100804761Y-154104761D02*
X100766666Y-154028571D01*
X100728571Y-153990476D01*
X100652380Y-153952380D01*
X100614285Y-153952380D01*
X100538095Y-153990476D01*
X100500000Y-154028571D01*
X100461904Y-154104761D01*
X100461904Y-154257142D01*
X100500000Y-154333333D01*
X100538095Y-154371428D01*
X100614285Y-154409523D01*
X100652380Y-154409523D01*
X100728571Y-154371428D01*
X100766666Y-154333333D01*
X100804761Y-154257142D01*
X100804761Y-154104761D01*
X100842857Y-154028571D01*
X100880952Y-153990476D01*
X100957142Y-153952380D01*
X101109523Y-153952380D01*
X101185714Y-153990476D01*
X101223809Y-154028571D01*
X101261904Y-154104761D01*
X101261904Y-154257142D01*
X101223809Y-154333333D01*
X101185714Y-154371428D01*
X101109523Y-154409523D01*
X100957142Y-154409523D01*
X100880952Y-154371428D01*
X100842857Y-154333333D01*
X100804761Y-154257142D01*
%TO.C,C15*%
X86814285Y-151785714D02*
X86852380Y-151823809D01*
X86966666Y-151861904D01*
X87042857Y-151861904D01*
X87157142Y-151823809D01*
X87233333Y-151747619D01*
X87271428Y-151671428D01*
X87309523Y-151519047D01*
X87309523Y-151404761D01*
X87271428Y-151252380D01*
X87233333Y-151176190D01*
X87157142Y-151100000D01*
X87042857Y-151061904D01*
X86966666Y-151061904D01*
X86852380Y-151100000D01*
X86814285Y-151138095D01*
X86052380Y-151861904D02*
X86509523Y-151861904D01*
X86280952Y-151861904D02*
X86280952Y-151061904D01*
X86357142Y-151176190D01*
X86433333Y-151252380D01*
X86509523Y-151290476D01*
X85328571Y-151061904D02*
X85709523Y-151061904D01*
X85747619Y-151442857D01*
X85709523Y-151404761D01*
X85633333Y-151366666D01*
X85442857Y-151366666D01*
X85366666Y-151404761D01*
X85328571Y-151442857D01*
X85290476Y-151519047D01*
X85290476Y-151709523D01*
X85328571Y-151785714D01*
X85366666Y-151823809D01*
X85442857Y-151861904D01*
X85633333Y-151861904D01*
X85709523Y-151823809D01*
X85747619Y-151785714D01*
%TO.C,R11*%
X85314285Y-147461904D02*
X85580952Y-147080952D01*
X85771428Y-147461904D02*
X85771428Y-146661904D01*
X85466666Y-146661904D01*
X85390476Y-146700000D01*
X85352380Y-146738095D01*
X85314285Y-146814285D01*
X85314285Y-146928571D01*
X85352380Y-147004761D01*
X85390476Y-147042857D01*
X85466666Y-147080952D01*
X85771428Y-147080952D01*
X84552380Y-147461904D02*
X85009523Y-147461904D01*
X84780952Y-147461904D02*
X84780952Y-146661904D01*
X84857142Y-146776190D01*
X84933333Y-146852380D01*
X85009523Y-146890476D01*
X83790476Y-147461904D02*
X84247619Y-147461904D01*
X84019047Y-147461904D02*
X84019047Y-146661904D01*
X84095238Y-146776190D01*
X84171428Y-146852380D01*
X84247619Y-146890476D01*
%TO.C,U2*%
X81608023Y-131888904D02*
X81608023Y-132536523D01*
X81569928Y-132612714D01*
X81531833Y-132650809D01*
X81455642Y-132688904D01*
X81303261Y-132688904D01*
X81227071Y-132650809D01*
X81188976Y-132612714D01*
X81150880Y-132536523D01*
X81150880Y-131888904D01*
X80808023Y-131965095D02*
X80769928Y-131927000D01*
X80693738Y-131888904D01*
X80503261Y-131888904D01*
X80427071Y-131927000D01*
X80388976Y-131965095D01*
X80350880Y-132041285D01*
X80350880Y-132117476D01*
X80388976Y-132231761D01*
X80846119Y-132688904D01*
X80350880Y-132688904D01*
%TO.C,C25*%
X78987785Y-130765714D02*
X79025880Y-130803809D01*
X79140166Y-130841904D01*
X79216357Y-130841904D01*
X79330642Y-130803809D01*
X79406833Y-130727619D01*
X79444928Y-130651428D01*
X79483023Y-130499047D01*
X79483023Y-130384761D01*
X79444928Y-130232380D01*
X79406833Y-130156190D01*
X79330642Y-130080000D01*
X79216357Y-130041904D01*
X79140166Y-130041904D01*
X79025880Y-130080000D01*
X78987785Y-130118095D01*
X78683023Y-130118095D02*
X78644928Y-130080000D01*
X78568738Y-130041904D01*
X78378261Y-130041904D01*
X78302071Y-130080000D01*
X78263976Y-130118095D01*
X78225880Y-130194285D01*
X78225880Y-130270476D01*
X78263976Y-130384761D01*
X78721119Y-130841904D01*
X78225880Y-130841904D01*
X77502071Y-130041904D02*
X77883023Y-130041904D01*
X77921119Y-130422857D01*
X77883023Y-130384761D01*
X77806833Y-130346666D01*
X77616357Y-130346666D01*
X77540166Y-130384761D01*
X77502071Y-130422857D01*
X77463976Y-130499047D01*
X77463976Y-130689523D01*
X77502071Y-130765714D01*
X77540166Y-130803809D01*
X77616357Y-130841904D01*
X77806833Y-130841904D01*
X77883023Y-130803809D01*
X77921119Y-130765714D01*
%TO.C,C21*%
X98235285Y-141949214D02*
X98273380Y-141987309D01*
X98387666Y-142025404D01*
X98463857Y-142025404D01*
X98578142Y-141987309D01*
X98654333Y-141911119D01*
X98692428Y-141834928D01*
X98730523Y-141682547D01*
X98730523Y-141568261D01*
X98692428Y-141415880D01*
X98654333Y-141339690D01*
X98578142Y-141263500D01*
X98463857Y-141225404D01*
X98387666Y-141225404D01*
X98273380Y-141263500D01*
X98235285Y-141301595D01*
X97930523Y-141301595D02*
X97892428Y-141263500D01*
X97816238Y-141225404D01*
X97625761Y-141225404D01*
X97549571Y-141263500D01*
X97511476Y-141301595D01*
X97473380Y-141377785D01*
X97473380Y-141453976D01*
X97511476Y-141568261D01*
X97968619Y-142025404D01*
X97473380Y-142025404D01*
X96711476Y-142025404D02*
X97168619Y-142025404D01*
X96940047Y-142025404D02*
X96940047Y-141225404D01*
X97016238Y-141339690D01*
X97092428Y-141415880D01*
X97168619Y-141453976D01*
%TO.C,R16*%
X99135285Y-143525404D02*
X99401952Y-143144452D01*
X99592428Y-143525404D02*
X99592428Y-142725404D01*
X99287666Y-142725404D01*
X99211476Y-142763500D01*
X99173380Y-142801595D01*
X99135285Y-142877785D01*
X99135285Y-142992071D01*
X99173380Y-143068261D01*
X99211476Y-143106357D01*
X99287666Y-143144452D01*
X99592428Y-143144452D01*
X98373380Y-143525404D02*
X98830523Y-143525404D01*
X98601952Y-143525404D02*
X98601952Y-142725404D01*
X98678142Y-142839690D01*
X98754333Y-142915880D01*
X98830523Y-142953976D01*
X97687666Y-142725404D02*
X97840047Y-142725404D01*
X97916238Y-142763500D01*
X97954333Y-142801595D01*
X98030523Y-142915880D01*
X98068619Y-143068261D01*
X98068619Y-143373023D01*
X98030523Y-143449214D01*
X97992428Y-143487309D01*
X97916238Y-143525404D01*
X97763857Y-143525404D01*
X97687666Y-143487309D01*
X97649571Y-143449214D01*
X97611476Y-143373023D01*
X97611476Y-143182547D01*
X97649571Y-143106357D01*
X97687666Y-143068261D01*
X97763857Y-143030166D01*
X97916238Y-143030166D01*
X97992428Y-143068261D01*
X98030523Y-143106357D01*
X98068619Y-143182547D01*
%TO.C,R19*%
X88314285Y-117761904D02*
X88580952Y-117380952D01*
X88771428Y-117761904D02*
X88771428Y-116961904D01*
X88466666Y-116961904D01*
X88390476Y-117000000D01*
X88352380Y-117038095D01*
X88314285Y-117114285D01*
X88314285Y-117228571D01*
X88352380Y-117304761D01*
X88390476Y-117342857D01*
X88466666Y-117380952D01*
X88771428Y-117380952D01*
X87552380Y-117761904D02*
X88009523Y-117761904D01*
X87780952Y-117761904D02*
X87780952Y-116961904D01*
X87857142Y-117076190D01*
X87933333Y-117152380D01*
X88009523Y-117190476D01*
X87171428Y-117761904D02*
X87019047Y-117761904D01*
X86942857Y-117723809D01*
X86904761Y-117685714D01*
X86828571Y-117571428D01*
X86790476Y-117419047D01*
X86790476Y-117114285D01*
X86828571Y-117038095D01*
X86866666Y-117000000D01*
X86942857Y-116961904D01*
X87095238Y-116961904D01*
X87171428Y-117000000D01*
X87209523Y-117038095D01*
X87247619Y-117114285D01*
X87247619Y-117304761D01*
X87209523Y-117380952D01*
X87171428Y-117419047D01*
X87095238Y-117457142D01*
X86942857Y-117457142D01*
X86866666Y-117419047D01*
X86828571Y-117380952D01*
X86790476Y-117304761D01*
%TO.C,R18*%
X100260285Y-117633904D02*
X100526952Y-117252952D01*
X100717428Y-117633904D02*
X100717428Y-116833904D01*
X100412666Y-116833904D01*
X100336476Y-116872000D01*
X100298380Y-116910095D01*
X100260285Y-116986285D01*
X100260285Y-117100571D01*
X100298380Y-117176761D01*
X100336476Y-117214857D01*
X100412666Y-117252952D01*
X100717428Y-117252952D01*
X99498380Y-117633904D02*
X99955523Y-117633904D01*
X99726952Y-117633904D02*
X99726952Y-116833904D01*
X99803142Y-116948190D01*
X99879333Y-117024380D01*
X99955523Y-117062476D01*
X99041238Y-117176761D02*
X99117428Y-117138666D01*
X99155523Y-117100571D01*
X99193619Y-117024380D01*
X99193619Y-116986285D01*
X99155523Y-116910095D01*
X99117428Y-116872000D01*
X99041238Y-116833904D01*
X98888857Y-116833904D01*
X98812666Y-116872000D01*
X98774571Y-116910095D01*
X98736476Y-116986285D01*
X98736476Y-117024380D01*
X98774571Y-117100571D01*
X98812666Y-117138666D01*
X98888857Y-117176761D01*
X99041238Y-117176761D01*
X99117428Y-117214857D01*
X99155523Y-117252952D01*
X99193619Y-117329142D01*
X99193619Y-117481523D01*
X99155523Y-117557714D01*
X99117428Y-117595809D01*
X99041238Y-117633904D01*
X98888857Y-117633904D01*
X98812666Y-117595809D01*
X98774571Y-117557714D01*
X98736476Y-117481523D01*
X98736476Y-117329142D01*
X98774571Y-117252952D01*
X98812666Y-117214857D01*
X98888857Y-117176761D01*
%TO.C,R3*%
X108578833Y-88550904D02*
X108845500Y-88169952D01*
X109035976Y-88550904D02*
X109035976Y-87750904D01*
X108731214Y-87750904D01*
X108655023Y-87789000D01*
X108616928Y-87827095D01*
X108578833Y-87903285D01*
X108578833Y-88017571D01*
X108616928Y-88093761D01*
X108655023Y-88131857D01*
X108731214Y-88169952D01*
X109035976Y-88169952D01*
X108312166Y-87750904D02*
X107816928Y-87750904D01*
X108083595Y-88055666D01*
X107969309Y-88055666D01*
X107893119Y-88093761D01*
X107855023Y-88131857D01*
X107816928Y-88208047D01*
X107816928Y-88398523D01*
X107855023Y-88474714D01*
X107893119Y-88512809D01*
X107969309Y-88550904D01*
X108197880Y-88550904D01*
X108274071Y-88512809D01*
X108312166Y-88474714D01*
%TO.C,C13*%
X94926285Y-88601714D02*
X94964380Y-88639809D01*
X95078666Y-88677904D01*
X95154857Y-88677904D01*
X95269142Y-88639809D01*
X95345333Y-88563619D01*
X95383428Y-88487428D01*
X95421523Y-88335047D01*
X95421523Y-88220761D01*
X95383428Y-88068380D01*
X95345333Y-87992190D01*
X95269142Y-87916000D01*
X95154857Y-87877904D01*
X95078666Y-87877904D01*
X94964380Y-87916000D01*
X94926285Y-87954095D01*
X94164380Y-88677904D02*
X94621523Y-88677904D01*
X94392952Y-88677904D02*
X94392952Y-87877904D01*
X94469142Y-87992190D01*
X94545333Y-88068380D01*
X94621523Y-88106476D01*
X93897714Y-87877904D02*
X93402476Y-87877904D01*
X93669142Y-88182666D01*
X93554857Y-88182666D01*
X93478666Y-88220761D01*
X93440571Y-88258857D01*
X93402476Y-88335047D01*
X93402476Y-88525523D01*
X93440571Y-88601714D01*
X93478666Y-88639809D01*
X93554857Y-88677904D01*
X93783428Y-88677904D01*
X93859619Y-88639809D01*
X93897714Y-88601714D01*
%TO.C,C12*%
X85714285Y-88585714D02*
X85752380Y-88623809D01*
X85866666Y-88661904D01*
X85942857Y-88661904D01*
X86057142Y-88623809D01*
X86133333Y-88547619D01*
X86171428Y-88471428D01*
X86209523Y-88319047D01*
X86209523Y-88204761D01*
X86171428Y-88052380D01*
X86133333Y-87976190D01*
X86057142Y-87900000D01*
X85942857Y-87861904D01*
X85866666Y-87861904D01*
X85752380Y-87900000D01*
X85714285Y-87938095D01*
X84952380Y-88661904D02*
X85409523Y-88661904D01*
X85180952Y-88661904D02*
X85180952Y-87861904D01*
X85257142Y-87976190D01*
X85333333Y-88052380D01*
X85409523Y-88090476D01*
X84647619Y-87938095D02*
X84609523Y-87900000D01*
X84533333Y-87861904D01*
X84342857Y-87861904D01*
X84266666Y-87900000D01*
X84228571Y-87938095D01*
X84190476Y-88014285D01*
X84190476Y-88090476D01*
X84228571Y-88204761D01*
X84685714Y-88661904D01*
X84190476Y-88661904D01*
%TO.C,C3*%
X120834333Y-92729214D02*
X120872428Y-92767309D01*
X120986714Y-92805404D01*
X121062904Y-92805404D01*
X121177190Y-92767309D01*
X121253380Y-92691119D01*
X121291476Y-92614928D01*
X121329571Y-92462547D01*
X121329571Y-92348261D01*
X121291476Y-92195880D01*
X121253380Y-92119690D01*
X121177190Y-92043500D01*
X121062904Y-92005404D01*
X120986714Y-92005404D01*
X120872428Y-92043500D01*
X120834333Y-92081595D01*
X120567666Y-92005404D02*
X120072428Y-92005404D01*
X120339095Y-92310166D01*
X120224809Y-92310166D01*
X120148619Y-92348261D01*
X120110523Y-92386357D01*
X120072428Y-92462547D01*
X120072428Y-92653023D01*
X120110523Y-92729214D01*
X120148619Y-92767309D01*
X120224809Y-92805404D01*
X120453380Y-92805404D01*
X120529571Y-92767309D01*
X120567666Y-92729214D01*
%TO.C,C37*%
X124414285Y-111085714D02*
X124452380Y-111123809D01*
X124566666Y-111161904D01*
X124642857Y-111161904D01*
X124757142Y-111123809D01*
X124833333Y-111047619D01*
X124871428Y-110971428D01*
X124909523Y-110819047D01*
X124909523Y-110704761D01*
X124871428Y-110552380D01*
X124833333Y-110476190D01*
X124757142Y-110400000D01*
X124642857Y-110361904D01*
X124566666Y-110361904D01*
X124452380Y-110400000D01*
X124414285Y-110438095D01*
X124147619Y-110361904D02*
X123652380Y-110361904D01*
X123919047Y-110666666D01*
X123804761Y-110666666D01*
X123728571Y-110704761D01*
X123690476Y-110742857D01*
X123652380Y-110819047D01*
X123652380Y-111009523D01*
X123690476Y-111085714D01*
X123728571Y-111123809D01*
X123804761Y-111161904D01*
X124033333Y-111161904D01*
X124109523Y-111123809D01*
X124147619Y-111085714D01*
X123385714Y-110361904D02*
X122852380Y-110361904D01*
X123195238Y-111161904D01*
%TO.C,R1*%
X105933333Y-84361904D02*
X106200000Y-83980952D01*
X106390476Y-84361904D02*
X106390476Y-83561904D01*
X106085714Y-83561904D01*
X106009523Y-83600000D01*
X105971428Y-83638095D01*
X105933333Y-83714285D01*
X105933333Y-83828571D01*
X105971428Y-83904761D01*
X106009523Y-83942857D01*
X106085714Y-83980952D01*
X106390476Y-83980952D01*
X105171428Y-84361904D02*
X105628571Y-84361904D01*
X105400000Y-84361904D02*
X105400000Y-83561904D01*
X105476190Y-83676190D01*
X105552380Y-83752380D01*
X105628571Y-83790476D01*
%TO.C,C6*%
X105975333Y-88601714D02*
X106013428Y-88639809D01*
X106127714Y-88677904D01*
X106203904Y-88677904D01*
X106318190Y-88639809D01*
X106394380Y-88563619D01*
X106432476Y-88487428D01*
X106470571Y-88335047D01*
X106470571Y-88220761D01*
X106432476Y-88068380D01*
X106394380Y-87992190D01*
X106318190Y-87916000D01*
X106203904Y-87877904D01*
X106127714Y-87877904D01*
X106013428Y-87916000D01*
X105975333Y-87954095D01*
X105289619Y-87877904D02*
X105442000Y-87877904D01*
X105518190Y-87916000D01*
X105556285Y-87954095D01*
X105632476Y-88068380D01*
X105670571Y-88220761D01*
X105670571Y-88525523D01*
X105632476Y-88601714D01*
X105594380Y-88639809D01*
X105518190Y-88677904D01*
X105365809Y-88677904D01*
X105289619Y-88639809D01*
X105251523Y-88601714D01*
X105213428Y-88525523D01*
X105213428Y-88335047D01*
X105251523Y-88258857D01*
X105289619Y-88220761D01*
X105365809Y-88182666D01*
X105518190Y-88182666D01*
X105594380Y-88220761D01*
X105632476Y-88258857D01*
X105670571Y-88335047D01*
%TO.C,C10*%
X79495785Y-92348214D02*
X79533880Y-92386309D01*
X79648166Y-92424404D01*
X79724357Y-92424404D01*
X79838642Y-92386309D01*
X79914833Y-92310119D01*
X79952928Y-92233928D01*
X79991023Y-92081547D01*
X79991023Y-91967261D01*
X79952928Y-91814880D01*
X79914833Y-91738690D01*
X79838642Y-91662500D01*
X79724357Y-91624404D01*
X79648166Y-91624404D01*
X79533880Y-91662500D01*
X79495785Y-91700595D01*
X78733880Y-92424404D02*
X79191023Y-92424404D01*
X78962452Y-92424404D02*
X78962452Y-91624404D01*
X79038642Y-91738690D01*
X79114833Y-91814880D01*
X79191023Y-91852976D01*
X78238642Y-91624404D02*
X78162452Y-91624404D01*
X78086261Y-91662500D01*
X78048166Y-91700595D01*
X78010071Y-91776785D01*
X77971976Y-91929166D01*
X77971976Y-92119642D01*
X78010071Y-92272023D01*
X78048166Y-92348214D01*
X78086261Y-92386309D01*
X78162452Y-92424404D01*
X78238642Y-92424404D01*
X78314833Y-92386309D01*
X78352928Y-92348214D01*
X78391023Y-92272023D01*
X78429119Y-92119642D01*
X78429119Y-91929166D01*
X78391023Y-91776785D01*
X78352928Y-91700595D01*
X78314833Y-91662500D01*
X78238642Y-91624404D01*
%TO.C,U12*%
X106121276Y-147491704D02*
X106121276Y-148139323D01*
X106083180Y-148215514D01*
X106045085Y-148253609D01*
X105968895Y-148291704D01*
X105816514Y-148291704D01*
X105740323Y-148253609D01*
X105702228Y-148215514D01*
X105664133Y-148139323D01*
X105664133Y-147491704D01*
X104864133Y-148291704D02*
X105321276Y-148291704D01*
X105092704Y-148291704D02*
X105092704Y-147491704D01*
X105168895Y-147605990D01*
X105245085Y-147682180D01*
X105321276Y-147720276D01*
X104559371Y-147567895D02*
X104521276Y-147529800D01*
X104445085Y-147491704D01*
X104254609Y-147491704D01*
X104178419Y-147529800D01*
X104140323Y-147567895D01*
X104102228Y-147644085D01*
X104102228Y-147720276D01*
X104140323Y-147834561D01*
X104597466Y-148291704D01*
X104102228Y-148291704D01*
%TO.C,R21*%
X124809404Y-128398214D02*
X124428452Y-128131547D01*
X124809404Y-127941071D02*
X124009404Y-127941071D01*
X124009404Y-128245833D01*
X124047500Y-128322023D01*
X124085595Y-128360119D01*
X124161785Y-128398214D01*
X124276071Y-128398214D01*
X124352261Y-128360119D01*
X124390357Y-128322023D01*
X124428452Y-128245833D01*
X124428452Y-127941071D01*
X124085595Y-128702976D02*
X124047500Y-128741071D01*
X124009404Y-128817261D01*
X124009404Y-129007738D01*
X124047500Y-129083928D01*
X124085595Y-129122023D01*
X124161785Y-129160119D01*
X124237976Y-129160119D01*
X124352261Y-129122023D01*
X124809404Y-128664880D01*
X124809404Y-129160119D01*
X124809404Y-129922023D02*
X124809404Y-129464880D01*
X124809404Y-129693452D02*
X124009404Y-129693452D01*
X124123690Y-129617261D01*
X124199880Y-129541071D01*
X124237976Y-129464880D01*
%TO.C,J2*%
X110960066Y-127298704D02*
X110960066Y-127870133D01*
X110998161Y-127984419D01*
X111074352Y-128060609D01*
X111188638Y-128098704D01*
X111264828Y-128098704D01*
X110617209Y-127374895D02*
X110579114Y-127336800D01*
X110502923Y-127298704D01*
X110312447Y-127298704D01*
X110236257Y-127336800D01*
X110198161Y-127374895D01*
X110160066Y-127451085D01*
X110160066Y-127527276D01*
X110198161Y-127641561D01*
X110655304Y-128098704D01*
X110160066Y-128098704D01*
D10*
%TO.C,Y3*%
X126576190Y-145223809D02*
X127052380Y-145223809D01*
X126052380Y-144890476D02*
X126576190Y-145223809D01*
X126052380Y-145557142D01*
X126052380Y-145795238D02*
X126052380Y-146414285D01*
X126433333Y-146080952D01*
X126433333Y-146223809D01*
X126480952Y-146319047D01*
X126528571Y-146366666D01*
X126623809Y-146414285D01*
X126861904Y-146414285D01*
X126957142Y-146366666D01*
X127004761Y-146319047D01*
X127052380Y-146223809D01*
X127052380Y-145938095D01*
X127004761Y-145842857D01*
X126957142Y-145795238D01*
D12*
%TO.C,C34*%
X76600214Y-121520214D02*
X76638309Y-121482119D01*
X76676404Y-121367833D01*
X76676404Y-121291642D01*
X76638309Y-121177357D01*
X76562119Y-121101166D01*
X76485928Y-121063071D01*
X76333547Y-121024976D01*
X76219261Y-121024976D01*
X76066880Y-121063071D01*
X75990690Y-121101166D01*
X75914500Y-121177357D01*
X75876404Y-121291642D01*
X75876404Y-121367833D01*
X75914500Y-121482119D01*
X75952595Y-121520214D01*
X75876404Y-121786880D02*
X75876404Y-122282119D01*
X76181166Y-122015452D01*
X76181166Y-122129738D01*
X76219261Y-122205928D01*
X76257357Y-122244023D01*
X76333547Y-122282119D01*
X76524023Y-122282119D01*
X76600214Y-122244023D01*
X76638309Y-122205928D01*
X76676404Y-122129738D01*
X76676404Y-121901166D01*
X76638309Y-121824976D01*
X76600214Y-121786880D01*
X76143071Y-122967833D02*
X76676404Y-122967833D01*
X75838309Y-122777357D02*
X76409738Y-122586880D01*
X76409738Y-123082119D01*
%TO.C,U7*%
X96863023Y-107816904D02*
X96863023Y-108464523D01*
X96824928Y-108540714D01*
X96786833Y-108578809D01*
X96710642Y-108616904D01*
X96558261Y-108616904D01*
X96482071Y-108578809D01*
X96443976Y-108540714D01*
X96405880Y-108464523D01*
X96405880Y-107816904D01*
X96101119Y-107816904D02*
X95567785Y-107816904D01*
X95910642Y-108616904D01*
%TO.C,U8*%
X102971723Y-134004304D02*
X102971723Y-134651923D01*
X102933628Y-134728114D01*
X102895533Y-134766209D01*
X102819342Y-134804304D01*
X102666961Y-134804304D01*
X102590771Y-134766209D01*
X102552676Y-134728114D01*
X102514580Y-134651923D01*
X102514580Y-134004304D01*
X102019342Y-134347161D02*
X102095533Y-134309066D01*
X102133628Y-134270971D01*
X102171723Y-134194780D01*
X102171723Y-134156685D01*
X102133628Y-134080495D01*
X102095533Y-134042400D01*
X102019342Y-134004304D01*
X101866961Y-134004304D01*
X101790771Y-134042400D01*
X101752676Y-134080495D01*
X101714580Y-134156685D01*
X101714580Y-134194780D01*
X101752676Y-134270971D01*
X101790771Y-134309066D01*
X101866961Y-134347161D01*
X102019342Y-134347161D01*
X102095533Y-134385257D01*
X102133628Y-134423352D01*
X102171723Y-134499542D01*
X102171723Y-134651923D01*
X102133628Y-134728114D01*
X102095533Y-134766209D01*
X102019342Y-134804304D01*
X101866961Y-134804304D01*
X101790771Y-134766209D01*
X101752676Y-134728114D01*
X101714580Y-134651923D01*
X101714580Y-134499542D01*
X101752676Y-134423352D01*
X101790771Y-134385257D01*
X101866961Y-134347161D01*
D10*
%TO.C,Y7*%
X126576190Y-133173809D02*
X127052380Y-133173809D01*
X126052380Y-132840476D02*
X126576190Y-133173809D01*
X126052380Y-133507142D01*
X126052380Y-133745238D02*
X126052380Y-134411904D01*
X127052380Y-133983333D01*
D12*
%TO.C,C29*%
X116211485Y-140392314D02*
X116249580Y-140430409D01*
X116363866Y-140468504D01*
X116440057Y-140468504D01*
X116554342Y-140430409D01*
X116630533Y-140354219D01*
X116668628Y-140278028D01*
X116706723Y-140125647D01*
X116706723Y-140011361D01*
X116668628Y-139858980D01*
X116630533Y-139782790D01*
X116554342Y-139706600D01*
X116440057Y-139668504D01*
X116363866Y-139668504D01*
X116249580Y-139706600D01*
X116211485Y-139744695D01*
X115906723Y-139744695D02*
X115868628Y-139706600D01*
X115792438Y-139668504D01*
X115601961Y-139668504D01*
X115525771Y-139706600D01*
X115487676Y-139744695D01*
X115449580Y-139820885D01*
X115449580Y-139897076D01*
X115487676Y-140011361D01*
X115944819Y-140468504D01*
X115449580Y-140468504D01*
X115068628Y-140468504D02*
X114916247Y-140468504D01*
X114840057Y-140430409D01*
X114801961Y-140392314D01*
X114725771Y-140278028D01*
X114687676Y-140125647D01*
X114687676Y-139820885D01*
X114725771Y-139744695D01*
X114763866Y-139706600D01*
X114840057Y-139668504D01*
X114992438Y-139668504D01*
X115068628Y-139706600D01*
X115106723Y-139744695D01*
X115144819Y-139820885D01*
X115144819Y-140011361D01*
X115106723Y-140087552D01*
X115068628Y-140125647D01*
X114992438Y-140163742D01*
X114840057Y-140163742D01*
X114763866Y-140125647D01*
X114725771Y-140087552D01*
X114687676Y-140011361D01*
%TO.C,C36*%
X116714285Y-112885714D02*
X116752380Y-112923809D01*
X116866666Y-112961904D01*
X116942857Y-112961904D01*
X117057142Y-112923809D01*
X117133333Y-112847619D01*
X117171428Y-112771428D01*
X117209523Y-112619047D01*
X117209523Y-112504761D01*
X117171428Y-112352380D01*
X117133333Y-112276190D01*
X117057142Y-112200000D01*
X116942857Y-112161904D01*
X116866666Y-112161904D01*
X116752380Y-112200000D01*
X116714285Y-112238095D01*
X116447619Y-112161904D02*
X115952380Y-112161904D01*
X116219047Y-112466666D01*
X116104761Y-112466666D01*
X116028571Y-112504761D01*
X115990476Y-112542857D01*
X115952380Y-112619047D01*
X115952380Y-112809523D01*
X115990476Y-112885714D01*
X116028571Y-112923809D01*
X116104761Y-112961904D01*
X116333333Y-112961904D01*
X116409523Y-112923809D01*
X116447619Y-112885714D01*
X115266666Y-112161904D02*
X115419047Y-112161904D01*
X115495238Y-112200000D01*
X115533333Y-112238095D01*
X115609523Y-112352380D01*
X115647619Y-112504761D01*
X115647619Y-112809523D01*
X115609523Y-112885714D01*
X115571428Y-112923809D01*
X115495238Y-112961904D01*
X115342857Y-112961904D01*
X115266666Y-112923809D01*
X115228571Y-112885714D01*
X115190476Y-112809523D01*
X115190476Y-112619047D01*
X115228571Y-112542857D01*
X115266666Y-112504761D01*
X115342857Y-112466666D01*
X115495238Y-112466666D01*
X115571428Y-112504761D01*
X115609523Y-112542857D01*
X115647619Y-112619047D01*
%TO.C,X2*%
X120713619Y-156203904D02*
X120180285Y-157003904D01*
X120180285Y-156203904D02*
X120713619Y-157003904D01*
X119913619Y-156280095D02*
X119875523Y-156242000D01*
X119799333Y-156203904D01*
X119608857Y-156203904D01*
X119532666Y-156242000D01*
X119494571Y-156280095D01*
X119456476Y-156356285D01*
X119456476Y-156432476D01*
X119494571Y-156546761D01*
X119951714Y-157003904D01*
X119456476Y-157003904D01*
%TO.C,U3*%
X91856023Y-132645404D02*
X91856023Y-133293023D01*
X91817928Y-133369214D01*
X91779833Y-133407309D01*
X91703642Y-133445404D01*
X91551261Y-133445404D01*
X91475071Y-133407309D01*
X91436976Y-133369214D01*
X91398880Y-133293023D01*
X91398880Y-132645404D01*
X91094119Y-132645404D02*
X90598880Y-132645404D01*
X90865547Y-132950166D01*
X90751261Y-132950166D01*
X90675071Y-132988261D01*
X90636976Y-133026357D01*
X90598880Y-133102547D01*
X90598880Y-133293023D01*
X90636976Y-133369214D01*
X90675071Y-133407309D01*
X90751261Y-133445404D01*
X90979833Y-133445404D01*
X91056023Y-133407309D01*
X91094119Y-133369214D01*
%TO.C,C17*%
X102685714Y-155785714D02*
X102723809Y-155747619D01*
X102761904Y-155633333D01*
X102761904Y-155557142D01*
X102723809Y-155442857D01*
X102647619Y-155366666D01*
X102571428Y-155328571D01*
X102419047Y-155290476D01*
X102304761Y-155290476D01*
X102152380Y-155328571D01*
X102076190Y-155366666D01*
X102000000Y-155442857D01*
X101961904Y-155557142D01*
X101961904Y-155633333D01*
X102000000Y-155747619D01*
X102038095Y-155785714D01*
X102761904Y-156547619D02*
X102761904Y-156090476D01*
X102761904Y-156319047D02*
X101961904Y-156319047D01*
X102076190Y-156242857D01*
X102152380Y-156166666D01*
X102190476Y-156090476D01*
X101961904Y-156814285D02*
X101961904Y-157347619D01*
X102761904Y-157004761D01*
%TO.C,P1*%
X81286476Y-70135904D02*
X81286476Y-69335904D01*
X80981714Y-69335904D01*
X80905523Y-69374000D01*
X80867428Y-69412095D01*
X80829333Y-69488285D01*
X80829333Y-69602571D01*
X80867428Y-69678761D01*
X80905523Y-69716857D01*
X80981714Y-69754952D01*
X81286476Y-69754952D01*
X80067428Y-70135904D02*
X80524571Y-70135904D01*
X80296000Y-70135904D02*
X80296000Y-69335904D01*
X80372190Y-69450190D01*
X80448380Y-69526380D01*
X80524571Y-69564476D01*
%TO.C,C30*%
X115814285Y-120285714D02*
X115852380Y-120323809D01*
X115966666Y-120361904D01*
X116042857Y-120361904D01*
X116157142Y-120323809D01*
X116233333Y-120247619D01*
X116271428Y-120171428D01*
X116309523Y-120019047D01*
X116309523Y-119904761D01*
X116271428Y-119752380D01*
X116233333Y-119676190D01*
X116157142Y-119600000D01*
X116042857Y-119561904D01*
X115966666Y-119561904D01*
X115852380Y-119600000D01*
X115814285Y-119638095D01*
X115547619Y-119561904D02*
X115052380Y-119561904D01*
X115319047Y-119866666D01*
X115204761Y-119866666D01*
X115128571Y-119904761D01*
X115090476Y-119942857D01*
X115052380Y-120019047D01*
X115052380Y-120209523D01*
X115090476Y-120285714D01*
X115128571Y-120323809D01*
X115204761Y-120361904D01*
X115433333Y-120361904D01*
X115509523Y-120323809D01*
X115547619Y-120285714D01*
X114557142Y-119561904D02*
X114480952Y-119561904D01*
X114404761Y-119600000D01*
X114366666Y-119638095D01*
X114328571Y-119714285D01*
X114290476Y-119866666D01*
X114290476Y-120057142D01*
X114328571Y-120209523D01*
X114366666Y-120285714D01*
X114404761Y-120323809D01*
X114480952Y-120361904D01*
X114557142Y-120361904D01*
X114633333Y-120323809D01*
X114671428Y-120285714D01*
X114709523Y-120209523D01*
X114747619Y-120057142D01*
X114747619Y-119866666D01*
X114709523Y-119714285D01*
X114671428Y-119638095D01*
X114633333Y-119600000D01*
X114557142Y-119561904D01*
%TO.C,C22*%
X115982885Y-141941714D02*
X116020980Y-141979809D01*
X116135266Y-142017904D01*
X116211457Y-142017904D01*
X116325742Y-141979809D01*
X116401933Y-141903619D01*
X116440028Y-141827428D01*
X116478123Y-141675047D01*
X116478123Y-141560761D01*
X116440028Y-141408380D01*
X116401933Y-141332190D01*
X116325742Y-141256000D01*
X116211457Y-141217904D01*
X116135266Y-141217904D01*
X116020980Y-141256000D01*
X115982885Y-141294095D01*
X115678123Y-141294095D02*
X115640028Y-141256000D01*
X115563838Y-141217904D01*
X115373361Y-141217904D01*
X115297171Y-141256000D01*
X115259076Y-141294095D01*
X115220980Y-141370285D01*
X115220980Y-141446476D01*
X115259076Y-141560761D01*
X115716219Y-142017904D01*
X115220980Y-142017904D01*
X114916219Y-141294095D02*
X114878123Y-141256000D01*
X114801933Y-141217904D01*
X114611457Y-141217904D01*
X114535266Y-141256000D01*
X114497171Y-141294095D01*
X114459076Y-141370285D01*
X114459076Y-141446476D01*
X114497171Y-141560761D01*
X114954314Y-142017904D01*
X114459076Y-142017904D01*
%TO.C,R22*%
X120504104Y-128390714D02*
X120123152Y-128124047D01*
X120504104Y-127933571D02*
X119704104Y-127933571D01*
X119704104Y-128238333D01*
X119742200Y-128314523D01*
X119780295Y-128352619D01*
X119856485Y-128390714D01*
X119970771Y-128390714D01*
X120046961Y-128352619D01*
X120085057Y-128314523D01*
X120123152Y-128238333D01*
X120123152Y-127933571D01*
X119780295Y-128695476D02*
X119742200Y-128733571D01*
X119704104Y-128809761D01*
X119704104Y-129000238D01*
X119742200Y-129076428D01*
X119780295Y-129114523D01*
X119856485Y-129152619D01*
X119932676Y-129152619D01*
X120046961Y-129114523D01*
X120504104Y-128657380D01*
X120504104Y-129152619D01*
X119780295Y-129457380D02*
X119742200Y-129495476D01*
X119704104Y-129571666D01*
X119704104Y-129762142D01*
X119742200Y-129838333D01*
X119780295Y-129876428D01*
X119856485Y-129914523D01*
X119932676Y-129914523D01*
X120046961Y-129876428D01*
X120504104Y-129419285D01*
X120504104Y-129914523D01*
%TO.C,U9*%
X97752023Y-128454404D02*
X97752023Y-129102023D01*
X97713928Y-129178214D01*
X97675833Y-129216309D01*
X97599642Y-129254404D01*
X97447261Y-129254404D01*
X97371071Y-129216309D01*
X97332976Y-129178214D01*
X97294880Y-129102023D01*
X97294880Y-128454404D01*
X96875833Y-129254404D02*
X96723452Y-129254404D01*
X96647261Y-129216309D01*
X96609166Y-129178214D01*
X96532976Y-129063928D01*
X96494880Y-128911547D01*
X96494880Y-128606785D01*
X96532976Y-128530595D01*
X96571071Y-128492500D01*
X96647261Y-128454404D01*
X96799642Y-128454404D01*
X96875833Y-128492500D01*
X96913928Y-128530595D01*
X96952023Y-128606785D01*
X96952023Y-128797261D01*
X96913928Y-128873452D01*
X96875833Y-128911547D01*
X96799642Y-128949642D01*
X96647261Y-128949642D01*
X96571071Y-128911547D01*
X96532976Y-128873452D01*
X96494880Y-128797261D01*
D10*
%TO.C,R24*%
X99922380Y-104332142D02*
X99446190Y-103998809D01*
X99922380Y-103760714D02*
X98922380Y-103760714D01*
X98922380Y-104141666D01*
X98970000Y-104236904D01*
X99017619Y-104284523D01*
X99112857Y-104332142D01*
X99255714Y-104332142D01*
X99350952Y-104284523D01*
X99398571Y-104236904D01*
X99446190Y-104141666D01*
X99446190Y-103760714D01*
X99017619Y-104713095D02*
X98970000Y-104760714D01*
X98922380Y-104855952D01*
X98922380Y-105094047D01*
X98970000Y-105189285D01*
X99017619Y-105236904D01*
X99112857Y-105284523D01*
X99208095Y-105284523D01*
X99350952Y-105236904D01*
X99922380Y-104665476D01*
X99922380Y-105284523D01*
X99255714Y-106141666D02*
X99922380Y-106141666D01*
X98874761Y-105903571D02*
X99589047Y-105665476D01*
X99589047Y-106284523D01*
D12*
%TO.C,D4*%
X98936904Y-100209523D02*
X98136904Y-100209523D01*
X98136904Y-100400000D01*
X98175000Y-100514285D01*
X98251190Y-100590476D01*
X98327380Y-100628571D01*
X98479761Y-100666666D01*
X98594047Y-100666666D01*
X98746428Y-100628571D01*
X98822619Y-100590476D01*
X98898809Y-100514285D01*
X98936904Y-100400000D01*
X98936904Y-100209523D01*
X98403571Y-101352380D02*
X98936904Y-101352380D01*
X98098809Y-101161904D02*
X98670238Y-100971428D01*
X98670238Y-101466666D01*
D10*
%TO.C,R23*%
X98322380Y-104332142D02*
X97846190Y-103998809D01*
X98322380Y-103760714D02*
X97322380Y-103760714D01*
X97322380Y-104141666D01*
X97370000Y-104236904D01*
X97417619Y-104284523D01*
X97512857Y-104332142D01*
X97655714Y-104332142D01*
X97750952Y-104284523D01*
X97798571Y-104236904D01*
X97846190Y-104141666D01*
X97846190Y-103760714D01*
X97417619Y-104713095D02*
X97370000Y-104760714D01*
X97322380Y-104855952D01*
X97322380Y-105094047D01*
X97370000Y-105189285D01*
X97417619Y-105236904D01*
X97512857Y-105284523D01*
X97608095Y-105284523D01*
X97750952Y-105236904D01*
X98322380Y-104665476D01*
X98322380Y-105284523D01*
X97322380Y-105617857D02*
X97322380Y-106236904D01*
X97703333Y-105903571D01*
X97703333Y-106046428D01*
X97750952Y-106141666D01*
X97798571Y-106189285D01*
X97893809Y-106236904D01*
X98131904Y-106236904D01*
X98227142Y-106189285D01*
X98274761Y-106141666D01*
X98322380Y-106046428D01*
X98322380Y-105760714D01*
X98274761Y-105665476D01*
X98227142Y-105617857D01*
%TO.C,P4*%
X95000000Y-93550000D02*
X95000000Y-107950000D01*
X95000000Y-93550000D02*
X89600000Y-93550000D01*
X95000000Y-107950000D02*
X89300000Y-108050000D01*
X95000000Y-100750000D02*
G75*
G03*
X95000000Y-100750000I-7500000J0D01*
G01*
%TO.C,P2*%
X105000000Y-82950000D02*
X110400000Y-82950000D01*
X105000000Y-68550000D02*
X110700000Y-68450000D01*
X105000000Y-82950000D02*
X105000000Y-68550000D01*
X120000000Y-75750000D02*
G75*
G03*
X120000000Y-75750000I-7500000J0D01*
G01*
D11*
%TO.C,J1*%
X124020000Y-116810000D02*
X125300000Y-116810000D01*
X120050000Y-116810000D02*
X121300000Y-116810000D01*
X125300000Y-126390000D02*
X124020000Y-126390000D01*
X120050000Y-126390000D02*
X121300000Y-126390000D01*
X125300000Y-116810000D02*
X125300000Y-126390000D01*
D14*
%TO.C,L2*%
X81910000Y-83076248D02*
X81910000Y-85848752D01*
X78490000Y-83076248D02*
X78490000Y-85848752D01*
D10*
%TO.C,D2*%
X89373820Y-90287040D02*
X89373820Y-89586000D01*
X86374180Y-89586000D02*
X86374180Y-90287040D01*
X89373820Y-89586000D02*
X89124900Y-89586000D01*
X86574840Y-89586000D02*
X86623100Y-89586000D01*
X86574840Y-89586000D02*
X86374180Y-89586000D01*
D14*
%TO.C,C7*%
X84504000Y-86294279D02*
X84504000Y-85968721D01*
X85524000Y-86294279D02*
X85524000Y-85968721D01*
%TO.C,C8*%
X83746000Y-86294279D02*
X83746000Y-85968721D01*
X82726000Y-86294279D02*
X82726000Y-85968721D01*
%TO.C,C9*%
X81714000Y-88788221D02*
X81714000Y-89113779D01*
X80694000Y-88788221D02*
X80694000Y-89113779D01*
%TO.C,C11*%
X82599000Y-90159721D02*
X82599000Y-90485279D01*
X83619000Y-90159721D02*
X83619000Y-90485279D01*
%TO.C,C16*%
X88187000Y-149438779D02*
X88187000Y-149113221D01*
X89207000Y-149438779D02*
X89207000Y-149113221D01*
%TO.C,C24*%
X92990000Y-145837221D02*
X92990000Y-146162779D01*
X94010000Y-145837221D02*
X94010000Y-146162779D01*
%TO.C,C26*%
X78158000Y-112537221D02*
X78158000Y-112862779D01*
X77138000Y-112537221D02*
X77138000Y-112862779D01*
%TO.C,C27*%
X100569500Y-110314721D02*
X100569500Y-110640279D01*
X101589500Y-110314721D02*
X101589500Y-110640279D01*
%TO.C,C28*%
X100137279Y-81964000D02*
X99811721Y-81964000D01*
X100137279Y-82984000D02*
X99811721Y-82984000D01*
%TO.C,R2*%
X108925779Y-87429000D02*
X108600221Y-87429000D01*
X108925779Y-86409000D02*
X108600221Y-86409000D01*
%TO.C,R4*%
X108671779Y-91620000D02*
X108346221Y-91620000D01*
X108671779Y-90600000D02*
X108346221Y-90600000D01*
%TO.C,R5*%
X94668000Y-85968721D02*
X94668000Y-86294279D01*
X93648000Y-85968721D02*
X93648000Y-86294279D01*
%TO.C,R7*%
X91628279Y-88822000D02*
X91302721Y-88822000D01*
X91628279Y-89842000D02*
X91302721Y-89842000D01*
%TO.C,R8*%
X91302721Y-91620000D02*
X91628279Y-91620000D01*
X91302721Y-90600000D02*
X91628279Y-90600000D01*
%TO.C,R12*%
X87589779Y-145976000D02*
X87264221Y-145976000D01*
X87589779Y-144956000D02*
X87264221Y-144956000D01*
%TO.C,R14*%
X90862779Y-146480000D02*
X90537221Y-146480000D01*
X90862779Y-147500000D02*
X90537221Y-147500000D01*
%TO.C,R17*%
X108767221Y-140780000D02*
X109092779Y-140780000D01*
X108767221Y-141800000D02*
X109092779Y-141800000D01*
%TO.C,L1*%
X121510000Y-83276248D02*
X121510000Y-86048752D01*
X118090000Y-83276248D02*
X118090000Y-86048752D01*
D10*
%TO.C,D1*%
X113625820Y-89599760D02*
X113376900Y-89599760D01*
X110626180Y-89599760D02*
X110626180Y-90300800D01*
X113625820Y-90300800D02*
X113625820Y-89599760D01*
X110826840Y-89599760D02*
X110875100Y-89599760D01*
X110826840Y-89599760D02*
X110626180Y-89599760D01*
D14*
%TO.C,R6*%
X91302721Y-86409000D02*
X91628279Y-86409000D01*
X91302721Y-87429000D02*
X91628279Y-87429000D01*
%TO.C,C2*%
X119306000Y-89397721D02*
X119306000Y-89723279D01*
X118286000Y-89397721D02*
X118286000Y-89723279D01*
%TO.C,C1*%
X114476000Y-86294279D02*
X114476000Y-85968721D01*
X115496000Y-86294279D02*
X115496000Y-85968721D01*
D10*
%TO.C,P3*%
X105000000Y-107950000D02*
X110400000Y-107950000D01*
X105000000Y-107950000D02*
X105000000Y-93550000D01*
X105000000Y-93550000D02*
X110700000Y-93450000D01*
X120000000Y-100750000D02*
G75*
G03*
X120000000Y-100750000I-7500000J0D01*
G01*
D14*
%TO.C,C4*%
X117401000Y-90185221D02*
X117401000Y-90510779D01*
X116381000Y-90185221D02*
X116381000Y-90510779D01*
%TO.C,C5*%
X114476000Y-90510779D02*
X114476000Y-90185221D01*
X115496000Y-90510779D02*
X115496000Y-90185221D01*
%TO.C,C14*%
X116381000Y-86294279D02*
X116381000Y-85968721D01*
X117401000Y-86294279D02*
X117401000Y-85968721D01*
D10*
%TO.C,U10*%
X114225000Y-110525000D02*
X113575000Y-110525000D01*
X104150000Y-110525000D02*
X104150000Y-108925000D01*
X103575000Y-110525000D02*
X103575000Y-116275000D01*
X103575000Y-110525000D02*
X104150000Y-110525000D01*
X103575000Y-116275000D02*
X104225000Y-116275000D01*
X114225000Y-110525000D02*
X114225000Y-116275000D01*
X114225000Y-116275000D02*
X113575000Y-116275000D01*
D14*
%TO.C,C23*%
X106187221Y-119510000D02*
X106512779Y-119510000D01*
X106187221Y-118490000D02*
X106512779Y-118490000D01*
%TO.C,U5*%
X100000000Y-92685000D02*
X96550000Y-92685000D01*
X100000000Y-83815000D02*
X101950000Y-83815000D01*
X100000000Y-83815000D02*
X98050000Y-83815000D01*
X100000000Y-92685000D02*
X101950000Y-92685000D01*
%TO.C,U6*%
X97800000Y-131655000D02*
X95850000Y-131655000D01*
X97800000Y-140525000D02*
X99750000Y-140525000D01*
X97800000Y-140525000D02*
X95850000Y-140525000D01*
X97800000Y-131655000D02*
X101250000Y-131655000D01*
%TO.C,C32*%
X117790000Y-110462779D02*
X117790000Y-110137221D01*
X118810000Y-110462779D02*
X118810000Y-110137221D01*
%TO.C,R20*%
X114584721Y-128490000D02*
X114910279Y-128490000D01*
X114584721Y-129510000D02*
X114910279Y-129510000D01*
%TO.C,U4*%
X79055000Y-112700000D02*
X79055000Y-110750000D01*
X79055000Y-112700000D02*
X79055000Y-114650000D01*
X87925000Y-112700000D02*
X87925000Y-110750000D01*
X87925000Y-112700000D02*
X87925000Y-116150000D01*
%TO.C,C35*%
X77138000Y-124800779D02*
X77138000Y-124475221D01*
X78158000Y-124800779D02*
X78158000Y-124475221D01*
%TO.C,U1*%
X79734000Y-120660000D02*
X77934000Y-120660000D01*
X77934000Y-117440000D02*
X80384000Y-117440000D01*
%TO.C,R13*%
X90537221Y-144956000D02*
X90862779Y-144956000D01*
X90537221Y-145976000D02*
X90862779Y-145976000D01*
%TO.C,X1*%
X81557000Y-157541000D02*
X81557000Y-152441000D01*
X81557000Y-152441000D02*
X94157000Y-152441000D01*
X94157000Y-157541000D02*
X81557000Y-157541000D01*
%TO.C,R15*%
X89076000Y-111084779D02*
X89076000Y-110759221D01*
X90096000Y-111084779D02*
X90096000Y-110759221D01*
D10*
%TO.C,D3*%
X95673313Y-119910140D02*
X93410571Y-117647398D01*
X95885445Y-118990901D02*
X93905546Y-120970800D01*
X93834835Y-120900089D02*
X95814734Y-118920190D01*
X93905546Y-120970800D02*
X93834835Y-120900089D01*
X94824784Y-120758668D02*
X95673313Y-119910140D01*
X94824784Y-120758668D02*
X92562043Y-118495926D01*
X95814734Y-118920190D02*
X95885445Y-118990901D01*
X93410571Y-117647398D02*
X92562043Y-118495926D01*
D14*
%TO.C,U11*%
X122320000Y-115130000D02*
X119870000Y-115130000D01*
X120520000Y-111910000D02*
X122320000Y-111910000D01*
%TO.C,C33*%
X111149721Y-118590000D02*
X111475279Y-118590000D01*
X111149721Y-119610000D02*
X111475279Y-119610000D01*
%TO.C,C20*%
X90096000Y-114315221D02*
X90096000Y-114640779D01*
X89076000Y-114315221D02*
X89076000Y-114640779D01*
%TO.C,C18*%
X101790000Y-153224721D02*
X101790000Y-153550279D01*
X102810000Y-153224721D02*
X102810000Y-153550279D01*
%TO.C,C15*%
X86155000Y-149462779D02*
X86155000Y-149137221D01*
X87175000Y-149462779D02*
X87175000Y-149137221D01*
%TO.C,R11*%
X87264221Y-147500000D02*
X87589779Y-147500000D01*
X87264221Y-146480000D02*
X87589779Y-146480000D01*
%TO.C,U2*%
X80300000Y-143287000D02*
X78350000Y-143287000D01*
X80300000Y-133167000D02*
X83750000Y-133167000D01*
X80300000Y-143287000D02*
X82250000Y-143287000D01*
X80300000Y-133167000D02*
X78350000Y-133167000D01*
%TO.C,C25*%
X78501221Y-132387000D02*
X78826779Y-132387000D01*
X78501221Y-131367000D02*
X78826779Y-131367000D01*
%TO.C,C21*%
X94962779Y-142110000D02*
X94637221Y-142110000D01*
X94962779Y-141090000D02*
X94637221Y-141090000D01*
%TO.C,R16*%
X95862779Y-142590000D02*
X95537221Y-142590000D01*
X95862779Y-143610000D02*
X95537221Y-143610000D01*
%TO.C,R19*%
X90248721Y-117655000D02*
X90574279Y-117655000D01*
X90248721Y-116635000D02*
X90574279Y-116635000D01*
%TO.C,R18*%
X96624221Y-118163000D02*
X96949779Y-118163000D01*
X96624221Y-117143000D02*
X96949779Y-117143000D01*
%TO.C,R3*%
X108346221Y-88822000D02*
X108671779Y-88822000D01*
X108346221Y-89842000D02*
X108671779Y-89842000D01*
%TO.C,C13*%
X93648000Y-90159721D02*
X93648000Y-90485279D01*
X94668000Y-90159721D02*
X94668000Y-90485279D01*
%TO.C,C12*%
X84504000Y-90485279D02*
X84504000Y-90159721D01*
X85524000Y-90485279D02*
X85524000Y-90159721D01*
%TO.C,C3*%
X118286000Y-92496721D02*
X118286000Y-92822279D01*
X119306000Y-92496721D02*
X119306000Y-92822279D01*
%TO.C,C37*%
X121371679Y-111254200D02*
X121046121Y-111254200D01*
X121371679Y-110234200D02*
X121046121Y-110234200D01*
%TO.C,R1*%
X105332000Y-85968721D02*
X105332000Y-86294279D01*
X106352000Y-85968721D02*
X106352000Y-86294279D01*
%TO.C,C6*%
X106352000Y-90137221D02*
X106352000Y-90462779D01*
X105332000Y-90137221D02*
X105332000Y-90462779D01*
%TO.C,C10*%
X80694000Y-91988721D02*
X80694000Y-92314279D01*
X81714000Y-91988721D02*
X81714000Y-92314279D01*
%TO.C,P11*%
X121550000Y-101707500D02*
X123450000Y-101707500D01*
X123450000Y-101707500D02*
X123450000Y-99807500D01*
X123450000Y-99807500D02*
X121550000Y-99807500D01*
X121550000Y-99807500D02*
X121550000Y-101707500D01*
%TO.C,P12*%
X78450000Y-99800000D02*
X76550000Y-99800000D01*
X76550000Y-101700000D02*
X78450000Y-101700000D01*
X76550000Y-99800000D02*
X76550000Y-101700000D01*
X78450000Y-101700000D02*
X78450000Y-99800000D01*
%TO.C,P13*%
X76550000Y-99160000D02*
X78450000Y-99160000D01*
X78450000Y-97260000D02*
X76550000Y-97260000D01*
X76550000Y-97260000D02*
X76550000Y-99160000D01*
X78450000Y-99160000D02*
X78450000Y-97260000D01*
%TO.C,P14*%
X121550000Y-99160000D02*
X123450000Y-99160000D01*
X121550000Y-97260000D02*
X121550000Y-99160000D01*
X123450000Y-99160000D02*
X123450000Y-97260000D01*
X123450000Y-97260000D02*
X121550000Y-97260000D01*
%TO.C,U12*%
X94422000Y-147752000D02*
X94422000Y-144302000D01*
X103292000Y-147752000D02*
X103292000Y-149702000D01*
X103292000Y-147752000D02*
X103292000Y-145802000D01*
X94422000Y-147752000D02*
X94422000Y-149702000D01*
%TO.C,R21*%
X122413500Y-128749721D02*
X122413500Y-129075279D01*
X123433500Y-128749721D02*
X123433500Y-129075279D01*
%TO.C,J2*%
X111811000Y-122082000D02*
X111811000Y-121447000D01*
X111811000Y-121447000D02*
X111176000Y-121447000D01*
%TO.C,Y3*%
X122800000Y-143100000D02*
X122800000Y-142600000D01*
X125300000Y-148300000D02*
X125300000Y-143100000D01*
X122800000Y-148800000D02*
X122800000Y-148300000D01*
X108100000Y-142600000D02*
X108100000Y-143350000D01*
X108100000Y-146550000D02*
X108100000Y-148800000D01*
X121600000Y-148800000D02*
X122800000Y-148800000D01*
X125300000Y-143100000D02*
X122800000Y-143100000D01*
X122800000Y-148300000D02*
X125300000Y-148300000D01*
X117000000Y-142600000D02*
X108100000Y-142600000D01*
X121600000Y-148800000D02*
X121600000Y-150800000D01*
X119000000Y-148800000D02*
X119000000Y-150800000D01*
X112500000Y-148800000D02*
X119000000Y-148800000D01*
X122800000Y-142600000D02*
X119600000Y-142600000D01*
X108100000Y-148800000D02*
X109300000Y-148800000D01*
%TO.C,C34*%
X78572779Y-122608000D02*
X78247221Y-122608000D01*
X78572779Y-121588000D02*
X78247221Y-121588000D01*
%TO.C,U7*%
X99863000Y-112635000D02*
X99863000Y-110685000D01*
X90993000Y-112635000D02*
X90993000Y-114585000D01*
X99863000Y-112635000D02*
X99863000Y-116085000D01*
X90993000Y-112635000D02*
X90993000Y-110685000D01*
%TO.C,U8*%
X107107000Y-138855500D02*
X107107000Y-136905500D01*
X101987000Y-138855500D02*
X101987000Y-135405500D01*
X107107000Y-138855500D02*
X107107000Y-140805500D01*
X101987000Y-138855500D02*
X101987000Y-140805500D01*
%TO.C,Y7*%
X122800000Y-136750000D02*
X122800000Y-136250000D01*
X117000000Y-130550000D02*
X108100000Y-130550000D01*
X108100000Y-136750000D02*
X109300000Y-136750000D01*
X121600000Y-136750000D02*
X121600000Y-138750000D01*
X122800000Y-130550000D02*
X119600000Y-130550000D01*
X108100000Y-134500000D02*
X108100000Y-136750000D01*
X122800000Y-136250000D02*
X125300000Y-136250000D01*
X112500000Y-136750000D02*
X119000000Y-136750000D01*
X122800000Y-131050000D02*
X122800000Y-130550000D01*
X125300000Y-131050000D02*
X122800000Y-131050000D01*
X125300000Y-136250000D02*
X125300000Y-131050000D01*
X121600000Y-136750000D02*
X122800000Y-136750000D01*
X108100000Y-130550000D02*
X108100000Y-131300000D01*
X119000000Y-136750000D02*
X119000000Y-138750000D01*
%TO.C,C29*%
X115425922Y-139198500D02*
X115943078Y-139198500D01*
X115425922Y-137778500D02*
X115943078Y-137778500D01*
%TO.C,C36*%
X116227936Y-113310000D02*
X117432064Y-113310000D01*
X116227936Y-115130000D02*
X117432064Y-115130000D01*
%TO.C,X2*%
X105043000Y-157541000D02*
X105043000Y-152441000D01*
X105043000Y-152441000D02*
X117643000Y-152441000D01*
X117643000Y-157541000D02*
X105043000Y-157541000D01*
%TO.C,U3*%
X88200000Y-133929000D02*
X91650000Y-133929000D01*
X88200000Y-144049000D02*
X86250000Y-144049000D01*
X88200000Y-133929000D02*
X86250000Y-133929000D01*
X88200000Y-144049000D02*
X90150000Y-144049000D01*
%TO.C,C17*%
X103340000Y-154424721D02*
X103340000Y-154750279D01*
X104360000Y-154424721D02*
X104360000Y-154750279D01*
%TO.C,P8*%
X121550000Y-104255000D02*
X123450000Y-104255000D01*
X123450000Y-104255000D02*
X123450000Y-102355000D01*
X123450000Y-102355000D02*
X121550000Y-102355000D01*
X121550000Y-102355000D02*
X121550000Y-104255000D01*
%TO.C,P9*%
X123450000Y-106802500D02*
X123450000Y-104902500D01*
X121550000Y-104902500D02*
X121550000Y-106802500D01*
X123450000Y-104902500D02*
X121550000Y-104902500D01*
X121550000Y-106802500D02*
X123450000Y-106802500D01*
D10*
%TO.C,P1*%
X95000000Y-82950000D02*
X89300000Y-83050000D01*
X95000000Y-68550000D02*
X95000000Y-82950000D01*
X95000000Y-68550000D02*
X89600000Y-68550000D01*
X95000000Y-75750000D02*
G75*
G03*
X95000000Y-75750000I-7500000J0D01*
G01*
D14*
%TO.C,C30*%
X114790000Y-117737221D02*
X114790000Y-118062779D01*
X115810000Y-117737221D02*
X115810000Y-118062779D01*
%TO.C,C22*%
X112237221Y-140800000D02*
X112562779Y-140800000D01*
X112237221Y-141820000D02*
X112562779Y-141820000D01*
%TO.C,R22*%
X120889500Y-128749721D02*
X120889500Y-129075279D01*
X121909500Y-128749721D02*
X121909500Y-129075279D01*
%TO.C,P6*%
X122050000Y-140020200D02*
X122050000Y-141920200D01*
X123950000Y-140020200D02*
X122050000Y-140020200D01*
X123950000Y-141920200D02*
X123950000Y-140020200D01*
X122050000Y-141920200D02*
X123950000Y-141920200D01*
%TO.C,P7*%
X121550000Y-153710000D02*
X123450000Y-153710000D01*
X121550000Y-151810000D02*
X121550000Y-153710000D01*
X123450000Y-151810000D02*
X121550000Y-151810000D01*
X123450000Y-153710000D02*
X123450000Y-151810000D01*
%TO.C,P5*%
X123450000Y-107450000D02*
X121550000Y-107450000D01*
X123450000Y-109350000D02*
X123450000Y-107450000D01*
X121550000Y-107450000D02*
X121550000Y-109350000D01*
X121550000Y-109350000D02*
X123450000Y-109350000D01*
%TO.C,P16*%
X123950000Y-139380200D02*
X123950000Y-137480200D01*
X123950000Y-137480200D02*
X122050000Y-137480200D01*
X122050000Y-137480200D02*
X122050000Y-139380200D01*
X122050000Y-139380200D02*
X123950000Y-139380200D01*
%TO.C,P15*%
X121550000Y-156250000D02*
X123450000Y-156250000D01*
X123450000Y-156250000D02*
X123450000Y-154350000D01*
X121550000Y-154350000D02*
X121550000Y-156250000D01*
X123450000Y-154350000D02*
X121550000Y-154350000D01*
D10*
%TO.C,U9*%
X101494039Y-129067277D02*
X101334940Y-128908178D01*
X101494039Y-129067277D02*
X101723849Y-128837467D01*
X96367515Y-123940753D02*
X96597325Y-123710943D01*
X106620563Y-123940753D02*
X106390753Y-124170563D01*
X106620563Y-123940753D02*
X106390753Y-123710943D01*
X101334940Y-128908178D02*
X100327313Y-129915805D01*
X101494039Y-118814229D02*
X101723849Y-119044039D01*
X101494039Y-118814229D02*
X101264229Y-119044039D01*
X96367515Y-123940753D02*
X96597325Y-124170563D01*
D14*
%TO.C,R24*%
X101422500Y-104737742D02*
X101422500Y-105212258D01*
X100377500Y-104737742D02*
X100377500Y-105212258D01*
D10*
%TO.C,D4*%
X101450000Y-99650000D02*
X101450000Y-99750000D01*
X98650000Y-99650000D02*
X101450000Y-99650000D01*
X98650000Y-99750000D02*
X98650000Y-99650000D01*
X100650000Y-99150000D02*
X100650000Y-102350000D01*
X99450000Y-102350000D02*
X100650000Y-102350000D01*
X99450000Y-99150000D02*
X99450000Y-102350000D01*
X101450000Y-99750000D02*
X98650000Y-99750000D01*
X100650000Y-99150000D02*
X99450000Y-99150000D01*
D14*
%TO.C,R23*%
X99822500Y-104737742D02*
X99822500Y-105212258D01*
X98777500Y-104737742D02*
X98777500Y-105212258D01*
%TD*%
M02*
