%TF.GenerationSoftware,KiCad,Pcbnew,6.0.9+dfsg-1~bpo11+1*%
%TF.CreationDate,2022-11-22T06:03:41+00:00*%
%TF.ProjectId,OpenThereminV4,4f70656e-5468-4657-9265-6d696e56342e,rev?*%
%TF.SameCoordinates,Original*%
%TF.FileFunction,Soldermask,Bot*%
%TF.FilePolarity,Negative*%
%FSLAX46Y46*%
G04 Gerber Fmt 4.6, Leading zero omitted, Abs format (unit mm)*
G04 Created by KiCad (PCBNEW 6.0.9+dfsg-1~bpo11+1) date 2022-11-22 06:03:41*
%MOMM*%
%LPD*%
G01*
G04 APERTURE LIST*
G04 Aperture macros list*
%AMRoundRect*
0 Rectangle with rounded corners*
0 $1 Rounding radius*
0 $2 $3 $4 $5 $6 $7 $8 $9 X,Y pos of 4 corners*
0 Add a 4 corners polygon primitive as box body*
4,1,4,$2,$3,$4,$5,$6,$7,$8,$9,$2,$3,0*
0 Add four circle primitives for the rounded corners*
1,1,$1+$1,$2,$3*
1,1,$1+$1,$4,$5*
1,1,$1+$1,$6,$7*
1,1,$1+$1,$8,$9*
0 Add four rect primitives between the rounded corners*
20,1,$1+$1,$2,$3,$4,$5,0*
20,1,$1+$1,$4,$5,$6,$7,0*
20,1,$1+$1,$6,$7,$8,$9,0*
20,1,$1+$1,$8,$9,$2,$3,0*%
G04 Aperture macros list end*
%ADD10C,6.400000*%
%ADD11C,1.200000*%
%ADD12O,2.600000X1.900000*%
%ADD13C,8.400000*%
%ADD14RoundRect,0.200000X-1.750000X1.500000X-1.750000X-1.500000X1.750000X-1.500000X1.750000X1.500000X0*%
%ADD15RoundRect,0.200000X1.750000X-1.500000X1.750000X1.500000X-1.750000X1.500000X-1.750000X-1.500000X0*%
%ADD16C,1.050000*%
%ADD17RoundRect,0.200000X-0.575000X0.300000X-0.575000X-0.300000X0.575000X-0.300000X0.575000X0.300000X0*%
%ADD18RoundRect,0.200000X-0.575000X0.150000X-0.575000X-0.150000X0.575000X-0.150000X0.575000X0.150000X0*%
%ADD19O,2.400000X1.400000*%
%ADD20O,2.500000X1.450000*%
%ADD21RoundRect,0.450000X-1.450000X0.312500X-1.450000X-0.312500X1.450000X-0.312500X1.450000X0.312500X0*%
%ADD22RoundRect,0.200000X0.400050X0.400050X-0.400050X0.400050X-0.400050X-0.400050X0.400050X-0.400050X0*%
%ADD23RoundRect,0.418750X0.256250X-0.218750X0.256250X0.218750X-0.256250X0.218750X-0.256250X-0.218750X0*%
%ADD24RoundRect,0.418750X-0.256250X0.218750X-0.256250X-0.218750X0.256250X-0.218750X0.256250X0.218750X0*%
%ADD25RoundRect,0.418750X0.218750X0.256250X-0.218750X0.256250X-0.218750X-0.256250X0.218750X-0.256250X0*%
%ADD26RoundRect,0.418750X-0.218750X-0.256250X0.218750X-0.256250X0.218750X0.256250X-0.218750X0.256250X0*%
%ADD27RoundRect,0.200000X-0.225000X0.875000X-0.225000X-0.875000X0.225000X-0.875000X0.225000X0.875000X0*%
%ADD28RoundRect,0.350000X-0.825000X-0.150000X0.825000X-0.150000X0.825000X0.150000X-0.825000X0.150000X0*%
%ADD29RoundRect,0.350000X0.825000X0.150000X-0.825000X0.150000X-0.825000X-0.150000X0.825000X-0.150000X0*%
%ADD30RoundRect,0.350000X0.150000X-0.825000X0.150000X0.825000X-0.150000X0.825000X-0.150000X-0.825000X0*%
%ADD31RoundRect,0.200000X0.530000X0.325000X-0.530000X0.325000X-0.530000X-0.325000X0.530000X-0.325000X0*%
%ADD32RoundRect,0.200000X-2.250000X-1.000000X2.250000X-1.000000X2.250000X1.000000X-2.250000X1.000000X0*%
%ADD33C,2.400000*%
%ADD34RoundRect,0.200000X0.618718X-0.017678X-0.017678X0.618718X-0.618718X0.017678X0.017678X-0.618718X0*%
%ADD35RoundRect,0.200000X-0.530000X-0.325000X0.530000X-0.325000X0.530000X0.325000X-0.530000X0.325000X0*%
%ADD36RoundRect,0.200000X-0.750000X-0.750000X0.750000X-0.750000X0.750000X0.750000X-0.750000X0.750000X0*%
%ADD37RoundRect,0.350000X-0.150000X0.825000X-0.150000X-0.825000X0.150000X-0.825000X0.150000X0.825000X0*%
%ADD38C,1.390600*%
%ADD39C,1.187400*%
%ADD40C,2.100000*%
%ADD41RoundRect,0.200000X1.300000X-1.400000X1.300000X1.400000X-1.300000X1.400000X-1.300000X-1.400000X0*%
%ADD42RoundRect,0.200000X1.100000X-1.400000X1.100000X1.400000X-1.100000X1.400000X-1.100000X-1.400000X0*%
%ADD43RoundRect,0.200000X1.400000X-1.400000X1.400000X1.400000X-1.400000X1.400000X-1.400000X-1.400000X0*%
%ADD44C,2.000000*%
%ADD45RoundRect,0.443750X-0.243750X-0.456250X0.243750X-0.456250X0.243750X0.456250X-0.243750X0.456250X0*%
%ADD46RoundRect,0.450000X-0.375000X-0.625000X0.375000X-0.625000X0.375000X0.625000X-0.375000X0.625000X0*%
%ADD47RoundRect,0.200000X-0.371231X-0.760140X0.760140X0.371231X0.371231X0.760140X-0.760140X-0.371231X0*%
%ADD48RoundRect,0.200000X-0.760140X0.371231X0.371231X-0.760140X0.760140X-0.371231X-0.371231X0.760140X0*%
%ADD49RoundRect,0.400000X-0.275000X0.200000X-0.275000X-0.200000X0.275000X-0.200000X0.275000X0.200000X0*%
%ADD50RoundRect,0.200000X-0.425000X0.450000X-0.425000X-0.450000X0.425000X-0.450000X0.425000X0.450000X0*%
G04 APERTURE END LIST*
D10*
%TO.C,Y1*%
X112500000Y-55750000D03*
%TD*%
%TO.C,Y2*%
X87500000Y-55750000D03*
%TD*%
D11*
%TO.C,GND1*%
X77500000Y-148350000D03*
X79750000Y-150600000D03*
X79750000Y-146100000D03*
D10*
X79750000Y-148350000D03*
D11*
X78159010Y-146759010D03*
X81340990Y-149940990D03*
X81340990Y-146759010D03*
X78159010Y-149940990D03*
X82000000Y-148350000D03*
%TD*%
D12*
%TO.C,P4*%
X87500000Y-93900000D03*
D13*
X87500000Y-100750000D03*
D12*
X87500000Y-107600000D03*
D14*
X94650000Y-96250000D03*
X80850000Y-100750000D03*
X94650000Y-105250000D03*
%TD*%
D12*
%TO.C,P2*%
X112500000Y-82600000D03*
X112500000Y-68900000D03*
D13*
X112500000Y-75750000D03*
D15*
X105350000Y-80250000D03*
X119150000Y-75750000D03*
X105350000Y-71250000D03*
%TD*%
D16*
%TO.C,J1*%
X119020000Y-124490000D03*
X119020000Y-118710000D03*
D17*
X117945000Y-118400000D03*
X117945000Y-119200000D03*
D18*
X117945000Y-120350000D03*
X117945000Y-121350000D03*
X117945000Y-121850000D03*
X117945000Y-122850000D03*
D17*
X117945000Y-124800000D03*
X117945000Y-124000000D03*
D18*
X117945000Y-123350000D03*
X117945000Y-122350000D03*
X117945000Y-120850000D03*
X117945000Y-119850000D03*
D19*
X122700000Y-117280000D03*
X122700000Y-125920000D03*
D20*
X118520000Y-117280000D03*
X118520000Y-125920000D03*
%TD*%
D21*
%TO.C,L2*%
X80200000Y-82325000D03*
X80200000Y-86600000D03*
%TD*%
D22*
%TO.C,D2*%
X88824000Y-91237000D03*
X86924000Y-91237000D03*
X87874000Y-89238020D03*
%TD*%
D23*
%TO.C,C7*%
X85014000Y-86919000D03*
X85014000Y-85344000D03*
%TD*%
%TO.C,C8*%
X83236000Y-86919000D03*
X83236000Y-85344000D03*
%TD*%
D24*
%TO.C,C9*%
X81204000Y-88163500D03*
X81204000Y-89738500D03*
%TD*%
%TO.C,C11*%
X83109000Y-89535000D03*
X83109000Y-91110000D03*
%TD*%
D23*
%TO.C,C16*%
X88697000Y-150063500D03*
X88697000Y-148488500D03*
%TD*%
D24*
%TO.C,C24*%
X93500000Y-145212500D03*
X93500000Y-146787500D03*
%TD*%
%TO.C,C26*%
X77648000Y-111912500D03*
X77648000Y-113487500D03*
%TD*%
%TO.C,C27*%
X101079500Y-109690000D03*
X101079500Y-111265000D03*
%TD*%
D25*
%TO.C,C28*%
X100762000Y-82474000D03*
X99187000Y-82474000D03*
%TD*%
%TO.C,R2*%
X109550500Y-86919000D03*
X107975500Y-86919000D03*
%TD*%
%TO.C,R4*%
X109296500Y-91110000D03*
X107721500Y-91110000D03*
%TD*%
D24*
%TO.C,R5*%
X94158000Y-85344000D03*
X94158000Y-86919000D03*
%TD*%
D25*
%TO.C,R7*%
X92253000Y-89332000D03*
X90678000Y-89332000D03*
%TD*%
D26*
%TO.C,R8*%
X90678000Y-91110000D03*
X92253000Y-91110000D03*
%TD*%
D25*
%TO.C,R12*%
X88214500Y-145466000D03*
X86639500Y-145466000D03*
%TD*%
%TO.C,R14*%
X91487500Y-146990000D03*
X89912500Y-146990000D03*
%TD*%
D26*
%TO.C,R17*%
X108142500Y-141290000D03*
X109717500Y-141290000D03*
%TD*%
D21*
%TO.C,L1*%
X119800000Y-82525000D03*
X119800000Y-86800000D03*
%TD*%
D22*
%TO.C,D1*%
X113076000Y-91250760D03*
X111176000Y-91250760D03*
X112126000Y-89251780D03*
%TD*%
D26*
%TO.C,R6*%
X90678000Y-86919000D03*
X92253000Y-86919000D03*
%TD*%
D24*
%TO.C,C2*%
X118796000Y-88773000D03*
X118796000Y-90348000D03*
%TD*%
D23*
%TO.C,C1*%
X114986000Y-86919000D03*
X114986000Y-85344000D03*
%TD*%
D12*
%TO.C,P3*%
X112500000Y-107600000D03*
X112500000Y-93900000D03*
D13*
X112500000Y-100750000D03*
D15*
X105350000Y-105250000D03*
X119150000Y-100750000D03*
X105350000Y-96250000D03*
%TD*%
D24*
%TO.C,C4*%
X116891000Y-89560500D03*
X116891000Y-91135500D03*
%TD*%
D23*
%TO.C,C5*%
X114986000Y-91135500D03*
X114986000Y-89560500D03*
%TD*%
%TO.C,C14*%
X116891000Y-86919000D03*
X116891000Y-85344000D03*
%TD*%
D27*
%TO.C,U10*%
X104675000Y-109800000D03*
X105325000Y-109800000D03*
X105975000Y-109800000D03*
X106625000Y-109800000D03*
X107275000Y-109800000D03*
X107925000Y-109800000D03*
X108575000Y-109800000D03*
X109225000Y-109800000D03*
X109875000Y-109800000D03*
X110525000Y-109800000D03*
X111175000Y-109800000D03*
X111825000Y-109800000D03*
X112475000Y-109800000D03*
X113125000Y-109800000D03*
X113125000Y-117000000D03*
X112475000Y-117000000D03*
X111825000Y-117000000D03*
X111175000Y-117000000D03*
X110525000Y-117000000D03*
X109875000Y-117000000D03*
X109225000Y-117000000D03*
X108575000Y-117000000D03*
X107925000Y-117000000D03*
X107275000Y-117000000D03*
X106625000Y-117000000D03*
X105975000Y-117000000D03*
X105325000Y-117000000D03*
X104675000Y-117000000D03*
%TD*%
D26*
%TO.C,C23*%
X105562500Y-119000000D03*
X107137500Y-119000000D03*
%TD*%
D28*
%TO.C,U5*%
X97525000Y-92060000D03*
X97525000Y-90790000D03*
X97525000Y-89520000D03*
X97525000Y-88250000D03*
X97525000Y-86980000D03*
X97525000Y-85710000D03*
X97525000Y-84440000D03*
X102475000Y-84440000D03*
X102475000Y-85710000D03*
X102475000Y-86980000D03*
X102475000Y-88250000D03*
X102475000Y-89520000D03*
X102475000Y-90790000D03*
X102475000Y-92060000D03*
%TD*%
D29*
%TO.C,U6*%
X100275000Y-132280000D03*
X100275000Y-133550000D03*
X100275000Y-134820000D03*
X100275000Y-136090000D03*
X100275000Y-137360000D03*
X100275000Y-138630000D03*
X100275000Y-139900000D03*
X95325000Y-139900000D03*
X95325000Y-138630000D03*
X95325000Y-137360000D03*
X95325000Y-136090000D03*
X95325000Y-134820000D03*
X95325000Y-133550000D03*
X95325000Y-132280000D03*
%TD*%
D23*
%TO.C,C32*%
X118300000Y-111087500D03*
X118300000Y-109512500D03*
%TD*%
D26*
%TO.C,R20*%
X113960000Y-129000000D03*
X115535000Y-129000000D03*
%TD*%
D30*
%TO.C,U4*%
X87300000Y-115175000D03*
X86030000Y-115175000D03*
X84760000Y-115175000D03*
X83490000Y-115175000D03*
X82220000Y-115175000D03*
X80950000Y-115175000D03*
X79680000Y-115175000D03*
X79680000Y-110225000D03*
X80950000Y-110225000D03*
X82220000Y-110225000D03*
X83490000Y-110225000D03*
X84760000Y-110225000D03*
X86030000Y-110225000D03*
X87300000Y-110225000D03*
%TD*%
D23*
%TO.C,C35*%
X77648000Y-125425500D03*
X77648000Y-123850500D03*
%TD*%
D31*
%TO.C,U1*%
X79934000Y-118100000D03*
X79934000Y-119050000D03*
X79934000Y-120000000D03*
X77734000Y-120000000D03*
X77734000Y-119050000D03*
X77734000Y-118100000D03*
%TD*%
D26*
%TO.C,R13*%
X89912500Y-145466000D03*
X91487500Y-145466000D03*
%TD*%
D32*
%TO.C,X1*%
X84007000Y-154991000D03*
X92507000Y-154991000D03*
%TD*%
D23*
%TO.C,R15*%
X89586000Y-111709500D03*
X89586000Y-110134500D03*
%TD*%
D33*
%TO.C,D3*%
X94117678Y-119203033D03*
D34*
X95690990Y-119963173D03*
X94877817Y-120776346D03*
X92544365Y-118442893D03*
X93357538Y-117629720D03*
%TD*%
D35*
%TO.C,U11*%
X120320000Y-114470000D03*
X120320000Y-113520000D03*
X120320000Y-112570000D03*
X122520000Y-112570000D03*
X122520000Y-114470000D03*
%TD*%
D26*
%TO.C,C33*%
X110525000Y-119100000D03*
X112100000Y-119100000D03*
%TD*%
D24*
%TO.C,C20*%
X89586000Y-113690500D03*
X89586000Y-115265500D03*
%TD*%
%TO.C,C18*%
X102300000Y-152600000D03*
X102300000Y-154175000D03*
%TD*%
D23*
%TO.C,C15*%
X86665000Y-150087500D03*
X86665000Y-148512500D03*
%TD*%
D26*
%TO.C,R11*%
X86639500Y-146990000D03*
X88214500Y-146990000D03*
%TD*%
D29*
%TO.C,U2*%
X82775000Y-133782000D03*
X82775000Y-135052000D03*
X82775000Y-136322000D03*
X82775000Y-137592000D03*
X82775000Y-138862000D03*
X82775000Y-140132000D03*
X82775000Y-141402000D03*
X82775000Y-142672000D03*
X77825000Y-142672000D03*
X77825000Y-141402000D03*
X77825000Y-140132000D03*
X77825000Y-138862000D03*
X77825000Y-137592000D03*
X77825000Y-136322000D03*
X77825000Y-135052000D03*
X77825000Y-133782000D03*
%TD*%
D26*
%TO.C,C25*%
X77876500Y-131877000D03*
X79451500Y-131877000D03*
%TD*%
D25*
%TO.C,C21*%
X95587500Y-141600000D03*
X94012500Y-141600000D03*
%TD*%
%TO.C,R16*%
X96487500Y-143100000D03*
X94912500Y-143100000D03*
%TD*%
D26*
%TO.C,R19*%
X89624000Y-117145000D03*
X91199000Y-117145000D03*
%TD*%
%TO.C,R18*%
X95999500Y-117653000D03*
X97574500Y-117653000D03*
%TD*%
%TO.C,R3*%
X107721500Y-89332000D03*
X109296500Y-89332000D03*
%TD*%
D24*
%TO.C,C13*%
X94158000Y-89535000D03*
X94158000Y-91110000D03*
%TD*%
D23*
%TO.C,C12*%
X85014000Y-91110000D03*
X85014000Y-89535000D03*
%TD*%
D24*
%TO.C,C3*%
X118796000Y-91872000D03*
X118796000Y-93447000D03*
%TD*%
D25*
%TO.C,C37*%
X121996400Y-110744200D03*
X120421400Y-110744200D03*
%TD*%
D24*
%TO.C,R1*%
X105842000Y-85344000D03*
X105842000Y-86919000D03*
%TD*%
%TO.C,C6*%
X105842000Y-89512500D03*
X105842000Y-91087500D03*
%TD*%
%TO.C,C10*%
X81204000Y-91364000D03*
X81204000Y-92939000D03*
%TD*%
D36*
%TO.C,P11*%
X122500000Y-100757500D03*
%TD*%
%TO.C,P12*%
X77500000Y-100750000D03*
%TD*%
%TO.C,P13*%
X77500000Y-98210000D03*
%TD*%
%TO.C,P14*%
X122500000Y-98210000D03*
%TD*%
D37*
%TO.C,U12*%
X95047000Y-145277000D03*
X96317000Y-145277000D03*
X97587000Y-145277000D03*
X98857000Y-145277000D03*
X100127000Y-145277000D03*
X101397000Y-145277000D03*
X102667000Y-145277000D03*
X102667000Y-150227000D03*
X101397000Y-150227000D03*
X100127000Y-150227000D03*
X98857000Y-150227000D03*
X97587000Y-150227000D03*
X96317000Y-150227000D03*
X95047000Y-150227000D03*
%TD*%
D24*
%TO.C,R21*%
X122923500Y-128125000D03*
X122923500Y-129700000D03*
%TD*%
D38*
%TO.C,J2*%
X109525000Y-125892000D03*
X111557000Y-125892000D03*
X110541000Y-120812000D03*
D39*
X111176000Y-122082000D03*
X109906000Y-122082000D03*
X111176000Y-123352000D03*
X109906000Y-123352000D03*
X111176000Y-124622000D03*
X109906000Y-124622000D03*
%TD*%
D40*
%TO.C,Y3*%
X112200000Y-145700000D03*
X119200000Y-145700000D03*
D41*
X106900000Y-144950000D03*
D42*
X118300000Y-142000000D03*
X120300000Y-149400000D03*
D43*
X110900000Y-149400000D03*
%TD*%
D25*
%TO.C,C34*%
X79197500Y-122098000D03*
X77622500Y-122098000D03*
%TD*%
D30*
%TO.C,U7*%
X99238000Y-115110000D03*
X97968000Y-115110000D03*
X96698000Y-115110000D03*
X95428000Y-115110000D03*
X94158000Y-115110000D03*
X92888000Y-115110000D03*
X91618000Y-115110000D03*
X91618000Y-110160000D03*
X92888000Y-110160000D03*
X94158000Y-110160000D03*
X95428000Y-110160000D03*
X96698000Y-110160000D03*
X97968000Y-110160000D03*
X99238000Y-110160000D03*
%TD*%
D37*
%TO.C,U8*%
X102642000Y-136380500D03*
X103912000Y-136380500D03*
X105182000Y-136380500D03*
X106452000Y-136380500D03*
X106452000Y-141330500D03*
X105182000Y-141330500D03*
X103912000Y-141330500D03*
X102642000Y-141330500D03*
%TD*%
D40*
%TO.C,Y7*%
X119200000Y-133650000D03*
X112200000Y-133650000D03*
D41*
X106900000Y-132900000D03*
D42*
X118300000Y-129950000D03*
X120300000Y-137350000D03*
D43*
X110900000Y-137350000D03*
%TD*%
D44*
%TO.C,W1*%
X122000000Y-70000000D03*
%TD*%
%TO.C,W2*%
X78000000Y-155000000D03*
%TD*%
D45*
%TO.C,C29*%
X114747000Y-138488500D03*
X116622000Y-138488500D03*
%TD*%
D46*
%TO.C,C36*%
X115430000Y-114220000D03*
X118230000Y-114220000D03*
%TD*%
D32*
%TO.C,X2*%
X107493000Y-154991000D03*
X115993000Y-154991000D03*
%TD*%
D29*
%TO.C,U3*%
X90675000Y-134544000D03*
X90675000Y-135814000D03*
X90675000Y-137084000D03*
X90675000Y-138354000D03*
X90675000Y-139624000D03*
X90675000Y-140894000D03*
X90675000Y-142164000D03*
X90675000Y-143434000D03*
X85725000Y-143434000D03*
X85725000Y-142164000D03*
X85725000Y-140894000D03*
X85725000Y-139624000D03*
X85725000Y-138354000D03*
X85725000Y-137084000D03*
X85725000Y-135814000D03*
X85725000Y-134544000D03*
%TD*%
D24*
%TO.C,C17*%
X103850000Y-153800000D03*
X103850000Y-155375000D03*
%TD*%
D36*
%TO.C,P8*%
X122500000Y-103305000D03*
%TD*%
%TO.C,P9*%
X122500000Y-105852500D03*
%TD*%
D12*
%TO.C,P1*%
X87500000Y-68900000D03*
D13*
X87500000Y-75750000D03*
D12*
X87500000Y-82600000D03*
D14*
X94650000Y-71250000D03*
X80850000Y-75750000D03*
X94650000Y-80250000D03*
%TD*%
D24*
%TO.C,C30*%
X115300000Y-117112500D03*
X115300000Y-118687500D03*
%TD*%
D26*
%TO.C,C22*%
X111612500Y-141310000D03*
X113187500Y-141310000D03*
%TD*%
D24*
%TO.C,R22*%
X121399500Y-128125000D03*
X121399500Y-129700000D03*
%TD*%
D36*
%TO.C,P6*%
X123000000Y-140970200D03*
%TD*%
%TO.C,P7*%
X122500000Y-152760000D03*
%TD*%
%TO.C,P5*%
X122500000Y-108400000D03*
%TD*%
%TO.C,P16*%
X123000000Y-138430200D03*
%TD*%
%TO.C,P15*%
X122500000Y-155300000D03*
%TD*%
D47*
%TO.C,U9*%
X100468734Y-128925856D03*
X99903049Y-128360170D03*
X99337363Y-127794485D03*
X98771678Y-127228800D03*
X98205992Y-126663114D03*
X97640307Y-126097429D03*
X97074622Y-125531743D03*
X96508936Y-124966058D03*
D48*
X96508936Y-122915448D03*
X97074622Y-122349763D03*
X97640307Y-121784077D03*
X98205992Y-121218392D03*
X98771678Y-120652706D03*
X99337363Y-120087021D03*
X99903049Y-119521336D03*
X100468734Y-118955650D03*
D47*
X102519344Y-118955650D03*
X103085029Y-119521336D03*
X103650715Y-120087021D03*
X104216400Y-120652706D03*
X104782086Y-121218392D03*
X105347771Y-121784077D03*
X105913456Y-122349763D03*
X106479142Y-122915448D03*
D48*
X106479142Y-124966058D03*
X105913456Y-125531743D03*
X105347771Y-126097429D03*
X104782086Y-126663114D03*
X104216400Y-127228800D03*
X103650715Y-127794485D03*
X103085029Y-128360170D03*
X102519344Y-128925856D03*
%TD*%
D49*
%TO.C,R24*%
X100900000Y-104150000D03*
X100900000Y-105800000D03*
%TD*%
D33*
%TO.C,D4*%
X100050000Y-100750000D03*
D50*
X99475000Y-99100000D03*
X100625000Y-99100000D03*
X100625000Y-102400000D03*
X99475000Y-102400000D03*
%TD*%
D49*
%TO.C,R23*%
X99300000Y-104150000D03*
X99300000Y-105800000D03*
%TD*%
G36*
X79809191Y-145168907D02*
G01*
X79845155Y-145218407D01*
X79850000Y-145249000D01*
X79850000Y-151301000D01*
X79831093Y-151359191D01*
X79781593Y-151395155D01*
X79751000Y-151400000D01*
X74849000Y-151400000D01*
X74790809Y-151381093D01*
X74754845Y-151331593D01*
X74750000Y-151301000D01*
X74750000Y-145249000D01*
X74768907Y-145190809D01*
X74818407Y-145154845D01*
X74849000Y-145150000D01*
X79751000Y-145150000D01*
X79809191Y-145168907D01*
G37*
M02*
